M48
;FILE_FORMAT=2:5
INCH,TZ
T1F00S00C0.03937
%
T1
X71929Y11811
X61929
X51929Y170354
Y160354
X61929Y170354
Y160354
X71929Y170354
Y160354
X81929Y170354
Y160354
X22638Y134843
X48228
X22638Y117126
X48228
X22638Y87598
X48228
X22638Y69882
X48228
X22638Y40354
X48228
X22638Y22638
X48228
X85630Y134843
X111220
X85630Y117126
X111220
X85630Y87598
X111220
X85630Y69882
X111220
X85630Y40354
X111220
X85630Y22638
X111220
X22638Y134843
M30
