%FSLAX25Y25*%
%MOIN*%
%ADD10C,0.01000000*%
%ADD17C,0.00600000*%
%IPPOS*%
G75*
G54D17*
X69497Y1793D02*
G01X69293Y1384D01*
X68883Y975D01*
X68474Y770D01*
X67656D01*
X67247Y975D01*
X66838Y1384D01*
X66633Y1793D01*
X66429Y2406D01*
Y3429D01*
X66633Y4043D01*
X66838Y4452D01*
X67247Y4861D01*
X67656Y5065D01*
X68474D01*
X68883Y4861D01*
X69293Y4452D01*
X69497Y4043D01*
X70847Y770D02*
Y5065D01*
Y770D02*
X73711Y5065D01*
Y770D02*
Y5065D01*
X75061Y1588D02*
X75470Y1384D01*
X76083Y770D01*
Y5065D01*
X65929Y140814D02*
Y145104D01*
Y140814D02*
X67769D01*
X68379Y141014D01*
X68589Y141224D01*
X68789Y141634D01*
Y142244D01*
X68589Y142654D01*
X68379Y142854D01*
X67769Y143064D01*
X65929D01*
X70139Y141634D02*
X70549Y141424D01*
X71169Y140814D01*
Y145104D01*
G54D10*
X56930Y6810D02*
G01X76930D01*
Y16810D01*
X56930D01*
Y6810D01*
X31929Y147638D02*
Y183071D01*
Y147638D02*
X101929D01*
Y183071D02*
Y147638D01*
Y183071D02*
X31929D01*
X51850Y175197D02*
X50472Y179527D01*
X51850Y175197D02*
X53228Y179134D01*
X34329Y150004D02*
X99609D01*
Y181104D01*
X72047Y181102D01*
X61811D02*
X34331D01*
Y150394D01*
Y150000D01*
X35905Y151575D01*
X98031D01*
X99606Y150000D01*
X98031Y179527D02*
X72047D01*
X61811D02*
X35905D01*
X34331Y181102D01*
X35905Y179527D02*
Y151575D01*
X61809Y183074D02*
Y177164D01*
X72049D01*
Y183064D01*
X72047Y183071D01*
X98031Y151575D02*
Y179527D01*
X99606Y181102D01*
M02*
