%FSLAX25Y25*%
%MOIN*%
%ADD19C,0.07480315*%
%ADD24C,0.11811024*%
%IPPOS*%
G75*
G54D19*
X71930Y11810D03*
G36*
X65670Y8070D02*
G01X58190D01*
Y15550D01*
X65670D01*
Y8070D01*
G37*
G36*
X55670Y166810D02*
X48190D01*
Y173900D01*
X55670D01*
Y166810D01*
G37*
G54D19*
X51929Y160354D03*
X61929Y170354D03*
Y160354D03*
X71929Y170354D03*
Y160354D03*
X81929Y170354D03*
Y160354D03*
X22638Y134842D03*
X48228D03*
X22638Y117126D03*
X48228D03*
X22638Y87598D03*
X48228D03*
X22638Y69882D03*
X48228D03*
X22638Y40354D03*
X48228D03*
X22638Y22638D03*
X48228D03*
X85630Y134842D03*
X111220D03*
X85630Y117126D03*
X111220D03*
X85630Y87598D03*
X111220D03*
X85630Y69882D03*
X111220D03*
X85630Y40354D03*
X111220D03*
X85630Y22638D03*
X111220D03*
G36*
X75930Y51730D02*
G01X69690D01*
Y58500D01*
X75930D01*
Y51730D01*
G37*
G36*
X64170Y51730D02*
X57930D01*
Y58500D01*
X64170D01*
Y51730D01*
G37*
G36*
X75930Y98980D02*
X69690D01*
Y105750D01*
X75930D01*
Y98980D01*
G37*
G36*
X64170Y98980D02*
X57930D01*
Y105750D01*
X64170D01*
Y98980D01*
G37*
G36*
X74410Y27040D02*
X67320D01*
Y32190D01*
X74410D01*
Y27040D01*
G37*
G36*
X74410Y38680D02*
X67320D01*
Y43830D01*
X74410D01*
Y38680D01*
G37*
G36*
X74410Y74280D02*
X67320D01*
Y79430D01*
X74410D01*
Y74280D01*
G37*
G36*
X74410Y85930D02*
X67320D01*
Y91070D01*
X74410D01*
Y85930D01*
G37*
G54D19*
X22638Y134842D03*
M02*
