%FSLAX25Y25*%
%MOIN*%
%ADD10C,0.01000000*%
%ADD13C,0.03937008*%
%ADD14C,0.07086614*%
%ADD15R,0.0708661X0.0708661*%
%ADD16R,0.0708661X0.0669291*%
%IPPOS*%
G75*
G36*
X132438Y1020D02*
G01X1420D01*
X1266Y1050D01*
X1138Y1138D01*
X1050Y1266D01*
X1020Y1420D01*
Y183620D01*
X1050Y183772D01*
X1138Y183902D01*
X1266Y183988D01*
X1420Y184020D01*
X132438D01*
X132592Y183988D01*
X132722Y183902D01*
X132808Y183772D01*
X132838Y183620D01*
Y1420D01*
X132808Y1266D01*
X132722Y1138D01*
X132592Y1050D01*
X132438Y1020D01*
G37*
%LPC*%
G36*
X123350Y3938D02*
X124016Y3902D01*
X124682Y3938D01*
X125338Y4050D01*
X125978Y4234D01*
X126594Y4490D01*
X127176Y4812D01*
X127720Y5198D01*
X128216Y5642D01*
X128660Y6138D01*
X129046Y6682D01*
X129368Y7264D01*
X129624Y7880D01*
X129808Y8520D01*
X129920Y9176D01*
X129956Y9842D01*
X129920Y10508D01*
X129808Y11164D01*
X129624Y11804D01*
X129368Y12420D01*
X129046Y13002D01*
X128660Y13546D01*
X128216Y14042D01*
X127720Y14486D01*
X127176Y14872D01*
X126594Y15194D01*
X125978Y15450D01*
X125338Y15634D01*
X124682Y15746D01*
X124016Y15782D01*
X123350Y15746D01*
X122694Y15634D01*
X122054Y15450D01*
X121438Y15194D01*
X120856Y14872D01*
X120312Y14486D01*
X119816Y14042D01*
X119372Y13546D01*
X118986Y13002D01*
X118664Y12420D01*
X118408Y11804D01*
X118224Y11164D01*
X118112Y10508D01*
X118076Y9842D01*
X118112Y9176D01*
X118224Y8520D01*
X118408Y7880D01*
X118664Y7264D01*
X118986Y6682D01*
X119372Y6138D01*
X119816Y5642D01*
X120312Y5198D01*
X120856Y4812D01*
X121438Y4490D01*
X122054Y4234D01*
X122694Y4050D01*
X123350Y3938D01*
G37*
G36*
X9178Y3938D02*
X9844Y3902D01*
X10508Y3938D01*
X11164Y4050D01*
X11806Y4234D01*
X12420Y4490D01*
X13004Y4812D01*
X13546Y5198D01*
X14044Y5642D01*
X14488Y6138D01*
X14874Y6682D01*
X15196Y7264D01*
X15450Y7880D01*
X15634Y8520D01*
X15746Y9176D01*
X15784Y9842D01*
X15746Y10508D01*
X15634Y11164D01*
X15450Y11804D01*
X15196Y12420D01*
X14874Y13002D01*
X14488Y13546D01*
X14044Y14042D01*
X13546Y14486D01*
X13004Y14872D01*
X12420Y15194D01*
X11806Y15450D01*
X11164Y15634D01*
X10508Y15746D01*
X9844Y15782D01*
X9178Y15746D01*
X8522Y15634D01*
X7880Y15450D01*
X7266Y15194D01*
X6682Y14872D01*
X6140Y14486D01*
X5642Y14042D01*
X5198Y13546D01*
X4812Y13002D01*
X4490Y12420D01*
X4236Y11804D01*
X4052Y11164D01*
X3940Y10508D01*
X3902Y9842D01*
X3940Y9176D01*
X4052Y8520D01*
X4236Y7880D01*
X4490Y7264D01*
X4812Y6682D01*
X5198Y6138D01*
X5642Y5642D01*
X6140Y5198D01*
X6682Y4812D01*
X7266Y4490D01*
X7880Y4234D01*
X8522Y4050D01*
X9178Y3938D01*
G37*
G36*
X58160Y7274D02*
X58410Y7246D01*
X65450D01*
X65700Y7274D01*
X65914Y7350D01*
X66108Y7472D01*
X66268Y7632D01*
X66390Y7826D01*
X66466Y8040D01*
X66494Y8290D01*
Y15330D01*
X66466Y15580D01*
X66390Y15794D01*
X66268Y15988D01*
X66108Y16148D01*
X65914Y16270D01*
X65700Y16346D01*
X65450Y16374D01*
X58410D01*
X58160Y16346D01*
X57946Y16270D01*
X57752Y16148D01*
X57592Y15988D01*
X57470Y15794D01*
X57394Y15580D01*
X57366Y15330D01*
Y8290D01*
X57394Y8040D01*
X57470Y7826D01*
X57592Y7632D01*
X57752Y7472D01*
X57946Y7350D01*
X58160Y7274D01*
G37*
G36*
X71076Y7328D02*
X71644Y7256D01*
X72216D01*
X72784Y7328D01*
X73340Y7470D01*
X73872Y7682D01*
X74374Y7958D01*
X74838Y8294D01*
X75256Y8686D01*
X75622Y9128D01*
X75928Y9612D01*
X76172Y10130D01*
X76350Y10676D01*
X76456Y11238D01*
X76492Y11810D01*
X76456Y12382D01*
X76350Y12944D01*
X76172Y13490D01*
X75928Y14008D01*
X75622Y14492D01*
X75256Y14934D01*
X74838Y15326D01*
X74374Y15662D01*
X73872Y15938D01*
X73340Y16150D01*
X72784Y16292D01*
X72216Y16364D01*
X71644D01*
X71076Y16292D01*
X70520Y16150D01*
X69988Y15938D01*
X69486Y15662D01*
X69022Y15326D01*
X68604Y14934D01*
X68238Y14492D01*
X67932Y14008D01*
X67688Y13490D01*
X67510Y12944D01*
X67404Y12382D01*
X67368Y11810D01*
X67404Y11238D01*
X67510Y10676D01*
X67688Y10130D01*
X67932Y9612D01*
X68238Y9128D01*
X68604Y8686D01*
X69022Y8294D01*
X69486Y7958D01*
X69988Y7682D01*
X70520Y7470D01*
X71076Y7328D01*
G37*
G36*
X47374Y18156D02*
X47942Y18084D01*
X48514D01*
X49084Y18156D01*
X49638Y18298D01*
X50172Y18510D01*
X50674Y18786D01*
X51136Y19122D01*
X51554Y19514D01*
X51920Y19956D01*
X52226Y20440D01*
X52470Y20958D01*
X52648Y21504D01*
X52754Y22066D01*
X52790Y22638D01*
X52754Y23210D01*
X52648Y23772D01*
X52470Y24318D01*
X52226Y24836D01*
X51920Y25320D01*
X51554Y25762D01*
X51136Y26154D01*
X50674Y26490D01*
X50172Y26766D01*
X49638Y26976D01*
X49084Y27120D01*
X48514Y27192D01*
X47942D01*
X47374Y27120D01*
X46818Y26976D01*
X46286Y26766D01*
X45784Y26490D01*
X45320Y26154D01*
X44902Y25762D01*
X44538Y25320D01*
X44230Y24836D01*
X43986Y24318D01*
X43810Y23772D01*
X43702Y23210D01*
X43666Y22638D01*
X43702Y22066D01*
X43810Y21504D01*
X43986Y20958D01*
X44230Y20440D01*
X44538Y19956D01*
X44902Y19514D01*
X45320Y19122D01*
X45784Y18786D01*
X46286Y18510D01*
X46818Y18298D01*
X47374Y18156D01*
G37*
G36*
X21782Y18156D02*
X22352Y18084D01*
X22924D01*
X23492Y18156D01*
X24048Y18298D01*
X24580Y18510D01*
X25082Y18786D01*
X25546Y19122D01*
X25964Y19514D01*
X26328Y19956D01*
X26636Y20440D01*
X26880Y20958D01*
X27056Y21504D01*
X27164Y22066D01*
X27200Y22638D01*
X27164Y23210D01*
X27056Y23772D01*
X26880Y24318D01*
X26636Y24836D01*
X26328Y25320D01*
X25964Y25762D01*
X25546Y26154D01*
X25082Y26490D01*
X24580Y26766D01*
X24048Y26976D01*
X23492Y27120D01*
X22924Y27192D01*
X22352D01*
X21782Y27120D01*
X21228Y26976D01*
X20696Y26766D01*
X20194Y26490D01*
X19730Y26154D01*
X19312Y25762D01*
X18946Y25320D01*
X18640Y24836D01*
X18396Y24318D01*
X18218Y23772D01*
X18112Y23210D01*
X18076Y22638D01*
X18112Y22066D01*
X18218Y21504D01*
X18396Y20958D01*
X18640Y20440D01*
X18946Y19956D01*
X19312Y19514D01*
X19730Y19122D01*
X20194Y18786D01*
X20696Y18510D01*
X21228Y18298D01*
X21782Y18156D01*
G37*
G36*
X84774Y18156D02*
X85344Y18084D01*
X85916D01*
X86484Y18156D01*
X87040Y18298D01*
X87572Y18510D01*
X88074Y18786D01*
X88546Y19128D01*
X90722Y21020D01*
X90844Y21092D01*
X90986Y21118D01*
X105866D01*
X106006Y21092D01*
X106128Y21020D01*
X108304Y19128D01*
X108776Y18786D01*
X109278Y18510D01*
X109810Y18298D01*
X110366Y18156D01*
X110934Y18084D01*
X111506D01*
X112076Y18156D01*
X112630Y18298D01*
X113164Y18510D01*
X113666Y18786D01*
X114128Y19122D01*
X114546Y19514D01*
X114912Y19956D01*
X115218Y20440D01*
X115462Y20958D01*
X115640Y21504D01*
X115748Y22066D01*
X115784Y22638D01*
X115748Y23210D01*
X115640Y23772D01*
X115462Y24318D01*
X115218Y24836D01*
X114912Y25320D01*
X114546Y25762D01*
X114128Y26154D01*
X113666Y26490D01*
X113164Y26766D01*
X112630Y26976D01*
X112076Y27120D01*
X111506Y27192D01*
X110934D01*
X110366Y27120D01*
X109810Y26976D01*
X109278Y26766D01*
X108776Y26490D01*
X108304Y26148D01*
X106128Y24256D01*
X106006Y24184D01*
X105866Y24158D01*
X90984D01*
X90844Y24184D01*
X90722Y24256D01*
X88546Y26148D01*
X88074Y26490D01*
X87572Y26766D01*
X87040Y26976D01*
X86484Y27120D01*
X85916Y27192D01*
X85344D01*
X84774Y27120D01*
X84220Y26976D01*
X83688Y26766D01*
X83186Y26490D01*
X82722Y26154D01*
X82304Y25762D01*
X81938Y25320D01*
X81632Y24836D01*
X81388Y24318D01*
X81210Y23772D01*
X81104Y23210D01*
X81068Y22638D01*
X81104Y22066D01*
X81210Y21504D01*
X81388Y20958D01*
X81632Y20440D01*
X81938Y19956D01*
X82304Y19514D01*
X82722Y19122D01*
X83186Y18786D01*
X83688Y18510D01*
X84220Y18298D01*
X84774Y18156D01*
G37*
G36*
X50250Y38332D02*
Y36270D01*
X50674Y36502D01*
X51136Y36838D01*
X51554Y37232D01*
X51920Y37672D01*
X52226Y38156D01*
X52310Y38332D01*
X50250D01*
G37*
G36*
X24660Y38332D02*
Y36270D01*
X25082Y36502D01*
X25546Y36838D01*
X25964Y37232D01*
X26328Y37672D01*
X26636Y38156D01*
X26718Y38332D01*
X24660D01*
G37*
G36*
X20194Y36502D02*
X20616Y36270D01*
Y38332D01*
X18556D01*
X18640Y38156D01*
X18946Y37672D01*
X19312Y37232D01*
X19730Y36838D01*
X20194Y36502D01*
G37*
G36*
X45784Y36502D02*
X46206Y36270D01*
Y38332D01*
X44148D01*
X44230Y38156D01*
X44538Y37672D01*
X44902Y37232D01*
X45320Y36838D01*
X45784Y36502D01*
G37*
G36*
X87652Y38332D02*
Y36270D01*
X88074Y36502D01*
X88538Y36838D01*
X88956Y37232D01*
X89322Y37672D01*
X89628Y38156D01*
X89712Y38332D01*
X87652D01*
G37*
G36*
X108776Y36502D02*
X109198Y36270D01*
Y38332D01*
X107140D01*
X107222Y38156D01*
X107530Y37672D01*
X107894Y37232D01*
X108312Y36838D01*
X108776Y36502D01*
G37*
G36*
X83186Y36502D02*
X83608Y36270D01*
Y38332D01*
X81548D01*
X81632Y38156D01*
X81938Y37672D01*
X82304Y37232D01*
X82722Y36838D01*
X83186Y36502D01*
G37*
G36*
X113242Y38332D02*
Y36270D01*
X113666Y36502D01*
X114128Y36838D01*
X114546Y37232D01*
X114912Y37672D01*
X115218Y38156D01*
X115302Y38332D01*
X113242D01*
G37*
G36*
X44230Y42552D02*
X44148Y42376D01*
X46206D01*
Y44440D01*
X45784Y44206D01*
X45320Y43870D01*
X44902Y43478D01*
X44538Y43036D01*
X44230Y42552D01*
G37*
G36*
X18640Y42552D02*
X18556Y42376D01*
X20616D01*
Y44440D01*
X20194Y44206D01*
X19730Y43870D01*
X19312Y43478D01*
X18946Y43036D01*
X18640Y42552D01*
G37*
G36*
X50250Y44440D02*
Y42376D01*
X52310D01*
X52226Y42552D01*
X51920Y43036D01*
X51554Y43478D01*
X51136Y43870D01*
X50674Y44206D01*
X50250Y44440D01*
G37*
G36*
X24660Y44440D02*
Y42376D01*
X26718D01*
X26636Y42552D01*
X26328Y43036D01*
X25964Y43478D01*
X25546Y43870D01*
X25082Y44206D01*
X24660Y44440D01*
G37*
G36*
X87652Y44440D02*
Y42376D01*
X89712D01*
X89628Y42552D01*
X89322Y43036D01*
X88956Y43478D01*
X88538Y43870D01*
X88074Y44206D01*
X87652Y44440D01*
G37*
G36*
X107222Y42552D02*
X107140Y42376D01*
X109198D01*
Y44440D01*
X108776Y44206D01*
X108312Y43870D01*
X107894Y43478D01*
X107530Y43036D01*
X107222Y42552D01*
G37*
G36*
X81632Y42552D02*
X81548Y42376D01*
X83608D01*
Y44440D01*
X83186Y44206D01*
X82722Y43870D01*
X82304Y43478D01*
X81938Y43036D01*
X81632Y42552D01*
G37*
G36*
X113242Y44440D02*
Y42376D01*
X115302D01*
X115218Y42552D01*
X114912Y43036D01*
X114546Y43478D01*
X114128Y43870D01*
X113666Y44206D01*
X113242Y44440D01*
G37*
G36*
X21782Y65400D02*
X22352Y65328D01*
X22924D01*
X23492Y65400D01*
X24048Y65542D01*
X24580Y65754D01*
X25082Y66030D01*
X25554Y66372D01*
X27730Y68264D01*
X27854Y68336D01*
X27994Y68362D01*
X42872D01*
X43012Y68336D01*
X43136Y68264D01*
X45312Y66372D01*
X45784Y66030D01*
X46286Y65754D01*
X46818Y65542D01*
X47374Y65400D01*
X47942Y65328D01*
X48514D01*
X49084Y65400D01*
X49638Y65542D01*
X50172Y65754D01*
X50674Y66030D01*
X51136Y66366D01*
X51554Y66758D01*
X51920Y67200D01*
X52226Y67684D01*
X52470Y68202D01*
X52648Y68748D01*
X52754Y69310D01*
X52790Y69882D01*
X52754Y70454D01*
X52648Y71016D01*
X52470Y71562D01*
X52226Y72080D01*
X51920Y72564D01*
X51554Y73006D01*
X51136Y73398D01*
X50674Y73734D01*
X50172Y74010D01*
X49638Y74222D01*
X49084Y74364D01*
X48514Y74436D01*
X47942D01*
X47374Y74364D01*
X46818Y74222D01*
X46286Y74010D01*
X45784Y73734D01*
X45312Y73392D01*
X43136Y71500D01*
X43014Y71428D01*
X42872Y71402D01*
X27994D01*
X27852Y71428D01*
X27730Y71500D01*
X25554Y73392D01*
X25082Y73734D01*
X24580Y74010D01*
X24048Y74222D01*
X23492Y74364D01*
X22924Y74436D01*
X22352D01*
X21782Y74364D01*
X21228Y74222D01*
X20696Y74010D01*
X20194Y73734D01*
X19730Y73398D01*
X19312Y73006D01*
X18946Y72564D01*
X18640Y72080D01*
X18396Y71562D01*
X18218Y71016D01*
X18112Y70454D01*
X18076Y69882D01*
X18112Y69310D01*
X18218Y68748D01*
X18396Y68202D01*
X18640Y67684D01*
X18946Y67200D01*
X19312Y66758D01*
X19730Y66366D01*
X20194Y66030D01*
X20696Y65754D01*
X21228Y65542D01*
X21782Y65400D01*
G37*
G36*
X84774Y65400D02*
X85344Y65328D01*
X85916D01*
X86484Y65400D01*
X87040Y65542D01*
X87572Y65754D01*
X88074Y66030D01*
X88546Y66372D01*
X90722Y68264D01*
X90844Y68336D01*
X90986Y68362D01*
X105866D01*
X106006Y68336D01*
X106128Y68264D01*
X108304Y66372D01*
X108776Y66030D01*
X109278Y65754D01*
X109810Y65542D01*
X110366Y65400D01*
X110934Y65328D01*
X111506D01*
X112076Y65400D01*
X112630Y65542D01*
X113164Y65754D01*
X113666Y66030D01*
X114128Y66366D01*
X114546Y66758D01*
X114912Y67200D01*
X115218Y67684D01*
X115462Y68202D01*
X115640Y68748D01*
X115748Y69310D01*
X115784Y69882D01*
X115748Y70454D01*
X115640Y71016D01*
X115462Y71562D01*
X115218Y72080D01*
X114912Y72564D01*
X114546Y73006D01*
X114128Y73398D01*
X113666Y73734D01*
X113164Y74010D01*
X112630Y74222D01*
X112076Y74364D01*
X111506Y74436D01*
X110934D01*
X110366Y74364D01*
X109810Y74222D01*
X109278Y74010D01*
X108776Y73734D01*
X108304Y73392D01*
X106128Y71500D01*
X106006Y71428D01*
X105866Y71402D01*
X90986D01*
X90844Y71428D01*
X90722Y71500D01*
X88546Y73392D01*
X88074Y73734D01*
X87572Y74010D01*
X87040Y74222D01*
X86484Y74364D01*
X85916Y74436D01*
X85344D01*
X84774Y74364D01*
X84220Y74222D01*
X83688Y74010D01*
X83186Y73734D01*
X82722Y73398D01*
X82304Y73006D01*
X81938Y72564D01*
X81632Y72080D01*
X81388Y71562D01*
X81210Y71016D01*
X81104Y70454D01*
X81068Y69882D01*
X81104Y69310D01*
X81210Y68748D01*
X81388Y68202D01*
X81632Y67684D01*
X81938Y67200D01*
X82304Y66758D01*
X82722Y66366D01*
X83186Y66030D01*
X83688Y65754D01*
X84220Y65542D01*
X84774Y65400D01*
G37*
G36*
X50250Y85576D02*
Y83514D01*
X50674Y83746D01*
X51136Y84084D01*
X51554Y84476D01*
X51920Y84916D01*
X52226Y85400D01*
X52310Y85576D01*
X50250D01*
G37*
G36*
X24660Y85576D02*
Y83514D01*
X25082Y83746D01*
X25546Y84084D01*
X25964Y84476D01*
X26328Y84916D01*
X26636Y85400D01*
X26718Y85576D01*
X24660D01*
G37*
G36*
X20194Y83746D02*
X20616Y83514D01*
Y85576D01*
X18556D01*
X18640Y85400D01*
X18946Y84916D01*
X19312Y84476D01*
X19730Y84084D01*
X20194Y83746D01*
G37*
G36*
X45784Y83746D02*
X46206Y83514D01*
Y85576D01*
X44148D01*
X44230Y85400D01*
X44538Y84916D01*
X44902Y84476D01*
X45320Y84084D01*
X45784Y83746D01*
G37*
G36*
X83186Y83746D02*
X83608Y83514D01*
Y85576D01*
X81548D01*
X81632Y85400D01*
X81938Y84916D01*
X82304Y84476D01*
X82722Y84084D01*
X83186Y83746D01*
G37*
G36*
X87652Y85576D02*
Y83514D01*
X88074Y83746D01*
X88538Y84084D01*
X88956Y84476D01*
X89322Y84916D01*
X89628Y85400D01*
X89712Y85576D01*
X87652D01*
G37*
G36*
X108776Y83746D02*
X109198Y83514D01*
Y85576D01*
X107140D01*
X107222Y85400D01*
X107530Y84916D01*
X107894Y84476D01*
X108312Y84084D01*
X108776Y83746D01*
G37*
G36*
X113242Y85576D02*
Y83514D01*
X113666Y83746D01*
X114128Y84084D01*
X114546Y84476D01*
X114912Y84916D01*
X115218Y85400D01*
X115302Y85576D01*
X113242D01*
G37*
G36*
X44230Y89796D02*
X44148Y89620D01*
X46206D01*
Y91684D01*
X45784Y91450D01*
X45320Y91114D01*
X44902Y90722D01*
X44538Y90280D01*
X44230Y89796D01*
G37*
G36*
X18640Y89796D02*
X18556Y89620D01*
X20616D01*
Y91684D01*
X20194Y91450D01*
X19730Y91114D01*
X19312Y90722D01*
X18946Y90280D01*
X18640Y89796D01*
G37*
G36*
X50250Y91684D02*
Y89620D01*
X52310D01*
X52226Y89796D01*
X51920Y90280D01*
X51554Y90722D01*
X51136Y91114D01*
X50674Y91450D01*
X50250Y91684D01*
G37*
G36*
X24660Y91684D02*
Y89620D01*
X26718D01*
X26636Y89796D01*
X26328Y90280D01*
X25964Y90722D01*
X25546Y91114D01*
X25082Y91450D01*
X24660Y91684D01*
G37*
G36*
X81632Y89796D02*
X81548Y89620D01*
X83608D01*
Y91684D01*
X83186Y91450D01*
X82722Y91114D01*
X82304Y90722D01*
X81938Y90280D01*
X81632Y89796D01*
G37*
G36*
X87652Y91684D02*
Y89620D01*
X89712D01*
X89628Y89796D01*
X89322Y90280D01*
X88956Y90722D01*
X88538Y91114D01*
X88074Y91450D01*
X87652Y91684D01*
G37*
G36*
X113242Y91684D02*
Y89620D01*
X115302D01*
X115218Y89796D01*
X114912Y90280D01*
X114546Y90722D01*
X114128Y91114D01*
X113666Y91450D01*
X113242Y91684D01*
G37*
G36*
X107222Y89796D02*
X107140Y89620D01*
X109198D01*
Y91684D01*
X108776Y91450D01*
X108312Y91114D01*
X107894Y90722D01*
X107530Y90280D01*
X107222Y89796D01*
G37*
G36*
X21782Y112644D02*
X22352Y112572D01*
X22924D01*
X23492Y112644D01*
X24048Y112786D01*
X24580Y112998D01*
X25082Y113274D01*
X25554Y113616D01*
X27730Y115508D01*
X27854Y115580D01*
X27994Y115606D01*
X42872D01*
X43012Y115580D01*
X43136Y115508D01*
X45312Y113616D01*
X45784Y113274D01*
X46286Y112998D01*
X46818Y112786D01*
X47374Y112644D01*
X47942Y112572D01*
X48514D01*
X49084Y112644D01*
X49638Y112786D01*
X50172Y112998D01*
X50674Y113274D01*
X51136Y113610D01*
X51554Y114002D01*
X51920Y114444D01*
X52226Y114928D01*
X52470Y115446D01*
X52648Y115992D01*
X52754Y116554D01*
X52790Y117126D01*
X52754Y117698D01*
X52648Y118260D01*
X52470Y118806D01*
X52226Y119324D01*
X51920Y119808D01*
X51554Y120250D01*
X51136Y120642D01*
X50674Y120978D01*
X50172Y121254D01*
X49638Y121466D01*
X49084Y121608D01*
X48514Y121680D01*
X47942D01*
X47374Y121608D01*
X46818Y121466D01*
X46286Y121254D01*
X45784Y120978D01*
X45312Y120636D01*
X43136Y118744D01*
X43014Y118672D01*
X42874Y118646D01*
X27992D01*
X27852Y118672D01*
X27730Y118744D01*
X25554Y120636D01*
X25082Y120978D01*
X24580Y121254D01*
X24048Y121466D01*
X23492Y121608D01*
X22924Y121680D01*
X22352D01*
X21782Y121608D01*
X21228Y121466D01*
X20696Y121254D01*
X20194Y120978D01*
X19730Y120642D01*
X19312Y120250D01*
X18946Y119808D01*
X18640Y119324D01*
X18396Y118806D01*
X18218Y118260D01*
X18112Y117698D01*
X18076Y117126D01*
X18112Y116554D01*
X18218Y115992D01*
X18396Y115446D01*
X18640Y114928D01*
X18946Y114444D01*
X19312Y114002D01*
X19730Y113610D01*
X20194Y113274D01*
X20696Y112998D01*
X21228Y112786D01*
X21782Y112644D01*
G37*
G36*
X84774Y112644D02*
X85344Y112572D01*
X85916D01*
X86484Y112644D01*
X87040Y112786D01*
X87572Y112998D01*
X88074Y113274D01*
X88546Y113616D01*
X90722Y115508D01*
X90846Y115580D01*
X90986Y115606D01*
X105864D01*
X106006Y115580D01*
X106128Y115508D01*
X108304Y113616D01*
X108776Y113274D01*
X109278Y112998D01*
X109810Y112786D01*
X110366Y112644D01*
X110934Y112572D01*
X111506D01*
X112076Y112644D01*
X112630Y112786D01*
X113164Y112998D01*
X113666Y113274D01*
X114128Y113610D01*
X114546Y114002D01*
X114912Y114444D01*
X115218Y114928D01*
X115462Y115446D01*
X115640Y115992D01*
X115748Y116554D01*
X115784Y117126D01*
X115748Y117698D01*
X115640Y118260D01*
X115462Y118806D01*
X115218Y119324D01*
X114912Y119808D01*
X114546Y120250D01*
X114128Y120642D01*
X113666Y120978D01*
X113164Y121254D01*
X112630Y121466D01*
X112076Y121608D01*
X111506Y121680D01*
X110934D01*
X110366Y121608D01*
X109810Y121466D01*
X109278Y121254D01*
X108776Y120978D01*
X108304Y120636D01*
X106128Y118744D01*
X106006Y118672D01*
X105866Y118646D01*
X90984D01*
X90844Y118672D01*
X90722Y118744D01*
X88546Y120636D01*
X88074Y120978D01*
X87572Y121254D01*
X87040Y121466D01*
X86484Y121608D01*
X85916Y121680D01*
X85344D01*
X84774Y121608D01*
X84220Y121466D01*
X83688Y121254D01*
X83186Y120978D01*
X82722Y120642D01*
X82304Y120250D01*
X81938Y119808D01*
X81632Y119324D01*
X81388Y118806D01*
X81210Y118260D01*
X81104Y117698D01*
X81068Y117126D01*
X81104Y116554D01*
X81210Y115992D01*
X81388Y115446D01*
X81632Y114928D01*
X81938Y114444D01*
X82304Y114002D01*
X82722Y113610D01*
X83186Y113274D01*
X83688Y112998D01*
X84220Y112786D01*
X84774Y112644D01*
G37*
G36*
X50250Y132820D02*
Y130758D01*
X50674Y130990D01*
X51136Y131328D01*
X51554Y131720D01*
X51920Y132160D01*
X52226Y132644D01*
X52310Y132820D01*
X50250D01*
G37*
G36*
X24660Y132820D02*
Y130758D01*
X25082Y130990D01*
X25546Y131326D01*
X25964Y131718D01*
X26328Y132160D01*
X26636Y132644D01*
X26718Y132820D01*
X24660D01*
G37*
G36*
X45784Y130990D02*
X46206Y130758D01*
Y132820D01*
X44148D01*
X44230Y132644D01*
X44538Y132160D01*
X44902Y131720D01*
X45320Y131328D01*
X45784Y130990D01*
G37*
G36*
X20194Y130990D02*
X20616Y130758D01*
Y132820D01*
X18556D01*
X18640Y132644D01*
X18946Y132160D01*
X19312Y131718D01*
X19730Y131326D01*
X20194Y130990D01*
G37*
G36*
X87652Y132820D02*
Y130758D01*
X88074Y130990D01*
X88538Y131328D01*
X88956Y131720D01*
X89322Y132160D01*
X89628Y132644D01*
X89712Y132820D01*
X87652D01*
G37*
G36*
X83186Y130990D02*
X83608Y130758D01*
Y132820D01*
X81548D01*
X81632Y132644D01*
X81938Y132160D01*
X82304Y131720D01*
X82722Y131328D01*
X83186Y130990D01*
G37*
G36*
X108776Y130990D02*
X109198Y130758D01*
Y132820D01*
X107140D01*
X107222Y132644D01*
X107530Y132160D01*
X107894Y131720D01*
X108312Y131328D01*
X108776Y130990D01*
G37*
G36*
X113242Y132820D02*
Y130758D01*
X113666Y130990D01*
X114128Y131328D01*
X114546Y131720D01*
X114912Y132160D01*
X115218Y132644D01*
X115302Y132820D01*
X113242D01*
G37*
G36*
X44230Y137040D02*
X44148Y136864D01*
X46206D01*
Y138928D01*
X45784Y138694D01*
X45320Y138358D01*
X44902Y137966D01*
X44538Y137524D01*
X44230Y137040D01*
G37*
G36*
X18640Y137040D02*
X18556Y136864D01*
X20616D01*
Y138928D01*
X20194Y138694D01*
X19730Y138358D01*
X19312Y137966D01*
X18946Y137524D01*
X18640Y137040D01*
G37*
G36*
X50250Y138928D02*
Y136864D01*
X52310D01*
X52226Y137040D01*
X51920Y137524D01*
X51554Y137966D01*
X51136Y138358D01*
X50674Y138694D01*
X50250Y138928D01*
G37*
G36*
X24660Y138928D02*
Y136864D01*
X26718D01*
X26636Y137040D01*
X26328Y137524D01*
X25964Y137966D01*
X25546Y138358D01*
X25082Y138694D01*
X24660Y138928D01*
G37*
G36*
X87652Y138928D02*
Y136864D01*
X89712D01*
X89628Y137040D01*
X89322Y137524D01*
X88956Y137966D01*
X88538Y138358D01*
X88074Y138694D01*
X87652Y138928D01*
G37*
G36*
X81632Y137040D02*
X81548Y136864D01*
X83608D01*
Y138928D01*
X83186Y138694D01*
X82722Y138358D01*
X82304Y137966D01*
X81938Y137524D01*
X81632Y137040D01*
G37*
G36*
X113242Y138928D02*
Y136864D01*
X115302D01*
X115218Y137040D01*
X114912Y137524D01*
X114546Y137966D01*
X114128Y138358D01*
X113666Y138694D01*
X113242Y138928D01*
G37*
G36*
X107222Y137040D02*
X107140Y136864D01*
X109198D01*
Y138928D01*
X108776Y138694D01*
X108312Y138358D01*
X107894Y137966D01*
X107530Y137524D01*
X107222Y137040D01*
G37*
G36*
X61074Y155872D02*
X61642Y155800D01*
X62216D01*
X62784Y155872D01*
X63338Y156016D01*
X63872Y156226D01*
X64374Y156502D01*
X64838Y156838D01*
X65256Y157232D01*
X65620Y157672D01*
X65928Y158156D01*
X66172Y158674D01*
X66348Y159220D01*
X66456Y159782D01*
X66492Y160354D01*
X66456Y160926D01*
X66348Y161488D01*
X66172Y162034D01*
X65928Y162552D01*
X65620Y163036D01*
X65256Y163478D01*
X64838Y163870D01*
X64374Y164206D01*
X63872Y164482D01*
X63338Y164694D01*
X62784Y164836D01*
X62216Y164908D01*
X61642D01*
X61074Y164836D01*
X60520Y164694D01*
X59986Y164482D01*
X59484Y164206D01*
X59020Y163870D01*
X58604Y163478D01*
X58238Y163036D01*
X57930Y162552D01*
X57686Y162034D01*
X57510Y161488D01*
X57402Y160926D01*
X57366Y160354D01*
X57402Y159782D01*
X57510Y159220D01*
X57686Y158674D01*
X57930Y158156D01*
X58238Y157672D01*
X58604Y157232D01*
X59020Y156838D01*
X59484Y156502D01*
X59986Y156226D01*
X60520Y156016D01*
X61074Y155872D01*
G37*
G36*
X71074Y155872D02*
X71642Y155800D01*
X72216D01*
X72784Y155872D01*
X73338Y156016D01*
X73872Y156226D01*
X74374Y156502D01*
X74838Y156838D01*
X75256Y157232D01*
X75620Y157672D01*
X75928Y158156D01*
X76172Y158674D01*
X76348Y159220D01*
X76456Y159782D01*
X76492Y160354D01*
X76456Y160926D01*
X76348Y161488D01*
X76172Y162034D01*
X75928Y162552D01*
X75620Y163036D01*
X75256Y163478D01*
X74838Y163870D01*
X74374Y164206D01*
X73872Y164482D01*
X73338Y164694D01*
X72784Y164836D01*
X72216Y164908D01*
X71642D01*
X71074Y164836D01*
X70520Y164694D01*
X69986Y164482D01*
X69484Y164206D01*
X69020Y163870D01*
X68604Y163478D01*
X68238Y163036D01*
X67930Y162552D01*
X67686Y162034D01*
X67510Y161488D01*
X67402Y160926D01*
X67366Y160354D01*
X67402Y159782D01*
X67510Y159220D01*
X67686Y158674D01*
X67930Y158156D01*
X68238Y157672D01*
X68604Y157232D01*
X69020Y156838D01*
X69484Y156502D01*
X69986Y156226D01*
X70520Y156016D01*
X71074Y155872D01*
G37*
G36*
X81074Y155872D02*
X81642Y155800D01*
X82216D01*
X82784Y155872D01*
X83338Y156016D01*
X83872Y156226D01*
X84374Y156502D01*
X84838Y156838D01*
X85256Y157232D01*
X85620Y157672D01*
X85928Y158156D01*
X86172Y158674D01*
X86348Y159220D01*
X86456Y159782D01*
X86492Y160354D01*
X86456Y160926D01*
X86348Y161488D01*
X86172Y162034D01*
X85928Y162552D01*
X85620Y163036D01*
X85256Y163478D01*
X84838Y163870D01*
X84374Y164206D01*
X83872Y164482D01*
X83338Y164694D01*
X82784Y164836D01*
X82216Y164908D01*
X81642D01*
X81074Y164836D01*
X80520Y164694D01*
X79986Y164482D01*
X79484Y164206D01*
X79020Y163870D01*
X78604Y163478D01*
X78238Y163036D01*
X77930Y162552D01*
X77686Y162034D01*
X77510Y161488D01*
X77402Y160926D01*
X77366Y160354D01*
X77402Y159782D01*
X77510Y159220D01*
X77686Y158674D01*
X77930Y158156D01*
X78238Y157672D01*
X78604Y157232D01*
X79020Y156838D01*
X79484Y156502D01*
X79986Y156226D01*
X80520Y156016D01*
X81074Y155872D01*
G37*
G36*
X53950Y158332D02*
Y156270D01*
X54374Y156502D01*
X54838Y156838D01*
X55256Y157232D01*
X55620Y157672D01*
X55928Y158156D01*
X56010Y158332D01*
X53950D01*
G37*
G36*
X49484Y156502D02*
X49908Y156270D01*
Y158332D01*
X47848D01*
X47930Y158156D01*
X48238Y157672D01*
X48604Y157232D01*
X49020Y156838D01*
X49484Y156502D01*
G37*
G36*
X47930Y162552D02*
X47848Y162376D01*
X49908D01*
Y164440D01*
X49484Y164206D01*
X49020Y163870D01*
X48604Y163478D01*
X48238Y163036D01*
X47930Y162552D01*
G37*
G36*
X53950Y164440D02*
Y162376D01*
X56010D01*
X55928Y162552D01*
X55620Y163036D01*
X55256Y163478D01*
X54838Y163870D01*
X54374Y164206D01*
X53950Y164440D01*
G37*
G36*
X61074Y165872D02*
X61642Y165800D01*
X62216D01*
X62784Y165872D01*
X63338Y166016D01*
X63872Y166226D01*
X64374Y166502D01*
X64838Y166838D01*
X65256Y167232D01*
X65620Y167672D01*
X65928Y168156D01*
X66172Y168674D01*
X66348Y169220D01*
X66456Y169782D01*
X66492Y170354D01*
X66456Y170926D01*
X66348Y171488D01*
X66172Y172034D01*
X65928Y172552D01*
X65620Y173036D01*
X65256Y173478D01*
X64838Y173870D01*
X64374Y174206D01*
X63872Y174482D01*
X63338Y174694D01*
X62784Y174836D01*
X62216Y174908D01*
X61642D01*
X61074Y174836D01*
X60520Y174694D01*
X59986Y174482D01*
X59484Y174206D01*
X59020Y173870D01*
X58604Y173478D01*
X58238Y173036D01*
X57930Y172552D01*
X57686Y172034D01*
X57510Y171488D01*
X57402Y170926D01*
X57366Y170354D01*
X57402Y169782D01*
X57510Y169220D01*
X57686Y168674D01*
X57930Y168156D01*
X58238Y167672D01*
X58604Y167232D01*
X59020Y166838D01*
X59484Y166502D01*
X59986Y166226D01*
X60520Y166016D01*
X61074Y165872D01*
G37*
G36*
X71074Y165872D02*
X71642Y165800D01*
X72216D01*
X72784Y165872D01*
X73338Y166016D01*
X73872Y166226D01*
X74374Y166502D01*
X74838Y166838D01*
X75256Y167232D01*
X75620Y167672D01*
X75928Y168156D01*
X76172Y168674D01*
X76348Y169220D01*
X76456Y169782D01*
X76492Y170354D01*
X76456Y170926D01*
X76348Y171488D01*
X76172Y172034D01*
X75928Y172552D01*
X75620Y173036D01*
X75256Y173478D01*
X74838Y173870D01*
X74374Y174206D01*
X73872Y174482D01*
X73338Y174694D01*
X72784Y174836D01*
X72216Y174908D01*
X71642D01*
X71074Y174836D01*
X70520Y174694D01*
X69986Y174482D01*
X69484Y174206D01*
X69020Y173870D01*
X68604Y173478D01*
X68238Y173036D01*
X67930Y172552D01*
X67686Y172034D01*
X67510Y171488D01*
X67402Y170926D01*
X67366Y170354D01*
X67402Y169782D01*
X67510Y169220D01*
X67686Y168674D01*
X67930Y168156D01*
X68238Y167672D01*
X68604Y167232D01*
X69020Y166838D01*
X69484Y166502D01*
X69986Y166226D01*
X70520Y166016D01*
X71074Y165872D01*
G37*
G36*
X81074Y165872D02*
X81642Y165800D01*
X82216D01*
X82784Y165872D01*
X83338Y166016D01*
X83872Y166226D01*
X84374Y166502D01*
X84838Y166838D01*
X85256Y167232D01*
X85620Y167672D01*
X85928Y168156D01*
X86172Y168674D01*
X86348Y169220D01*
X86456Y169782D01*
X86492Y170354D01*
X86456Y170926D01*
X86348Y171488D01*
X86172Y172034D01*
X85928Y172552D01*
X85620Y173036D01*
X85256Y173478D01*
X84838Y173870D01*
X84374Y174206D01*
X83872Y174482D01*
X83338Y174694D01*
X82784Y174836D01*
X82216Y174908D01*
X81642D01*
X81074Y174836D01*
X80520Y174694D01*
X79986Y174482D01*
X79484Y174206D01*
X79020Y173870D01*
X78604Y173478D01*
X78238Y173036D01*
X77930Y172552D01*
X77686Y172034D01*
X77510Y171488D01*
X77402Y170926D01*
X77366Y170354D01*
X77402Y169782D01*
X77510Y169220D01*
X77686Y168674D01*
X77930Y168156D01*
X78238Y167672D01*
X78604Y167232D01*
X79020Y166838D01*
X79484Y166502D01*
X79986Y166226D01*
X80520Y166016D01*
X81074Y165872D01*
G37*
G36*
X53950Y168432D02*
Y165988D01*
X55450D01*
X55698Y166016D01*
X55914Y166092D01*
X56106Y166212D01*
X56268Y166374D01*
X56390Y166566D01*
X56464Y166782D01*
X56492Y167030D01*
Y168432D01*
X53950D01*
G37*
G36*
X48160Y166016D02*
X48408Y165988D01*
X49908D01*
Y168432D01*
X47366D01*
Y167030D01*
X47394Y166782D01*
X47470Y166566D01*
X47590Y166374D01*
X47752Y166212D01*
X47944Y166092D01*
X48160Y166016D01*
G37*
G36*
X123350Y169294D02*
X124016Y169256D01*
X124682Y169294D01*
X125338Y169406D01*
X125978Y169590D01*
X126594Y169844D01*
X127176Y170166D01*
X127720Y170552D01*
X128216Y170996D01*
X128660Y171494D01*
X129046Y172036D01*
X129368Y172620D01*
X129624Y173234D01*
X129808Y173876D01*
X129920Y174532D01*
X129956Y175196D01*
X129920Y175862D01*
X129808Y176518D01*
X129624Y177160D01*
X129368Y177774D01*
X129046Y178358D01*
X128660Y178900D01*
X128216Y179398D01*
X127720Y179842D01*
X127176Y180228D01*
X126594Y180550D01*
X125978Y180804D01*
X125338Y180988D01*
X124682Y181100D01*
X124016Y181138D01*
X123350Y181100D01*
X122694Y180988D01*
X122054Y180804D01*
X121438Y180550D01*
X120856Y180228D01*
X120312Y179842D01*
X119816Y179398D01*
X119372Y178900D01*
X118986Y178358D01*
X118664Y177774D01*
X118408Y177160D01*
X118224Y176518D01*
X118112Y175862D01*
X118076Y175196D01*
X118112Y174532D01*
X118224Y173876D01*
X118408Y173234D01*
X118664Y172620D01*
X118986Y172036D01*
X119372Y171494D01*
X119816Y170996D01*
X120312Y170552D01*
X120856Y170166D01*
X121438Y169844D01*
X122054Y169590D01*
X122694Y169406D01*
X123350Y169294D01*
G37*
G36*
X9178Y169294D02*
X9844Y169256D01*
X10508Y169294D01*
X11164Y169406D01*
X11806Y169590D01*
X12420Y169844D01*
X13004Y170166D01*
X13546Y170552D01*
X14044Y170996D01*
X14488Y171494D01*
X14874Y172036D01*
X15196Y172620D01*
X15450Y173234D01*
X15634Y173876D01*
X15746Y174532D01*
X15784Y175196D01*
X15746Y175862D01*
X15634Y176518D01*
X15450Y177160D01*
X15196Y177774D01*
X14874Y178358D01*
X14488Y178900D01*
X14044Y179398D01*
X13546Y179842D01*
X13004Y180228D01*
X12420Y180550D01*
X11806Y180804D01*
X11164Y180988D01*
X10508Y181100D01*
X9844Y181138D01*
X9178Y181100D01*
X8522Y180988D01*
X7880Y180804D01*
X7266Y180550D01*
X6682Y180228D01*
X6140Y179842D01*
X5642Y179398D01*
X5198Y178900D01*
X4812Y178358D01*
X4490Y177774D01*
X4236Y177160D01*
X4052Y176518D01*
X3940Y175862D01*
X3902Y175196D01*
X3940Y174532D01*
X4052Y173876D01*
X4236Y173234D01*
X4490Y172620D01*
X4812Y172036D01*
X5198Y171494D01*
X5642Y170996D01*
X6140Y170552D01*
X6682Y170166D01*
X7266Y169844D01*
X7880Y169590D01*
X8522Y169406D01*
X9178Y169294D01*
G37*
G36*
X47366Y173678D02*
Y172278D01*
X49908D01*
Y174720D01*
X48408D01*
X48160Y174692D01*
X47944Y174618D01*
X47752Y174496D01*
X47590Y174336D01*
X47470Y174142D01*
X47394Y173928D01*
X47366Y173678D01*
G37*
G36*
X53950Y174720D02*
Y172278D01*
X56492D01*
Y173678D01*
X56464Y173928D01*
X56390Y174142D01*
X56268Y174336D01*
X56106Y174496D01*
X55914Y174618D01*
X55698Y174692D01*
X55450Y174720D01*
X53950D01*
G37*
%LPD*%
G36*
X108876Y19980D02*
Y25296D01*
X106396Y23138D01*
Y22138D01*
X108876Y19980D01*
G37*
G36*
X90454Y23138D02*
X87974Y25296D01*
Y19980D01*
X90454Y22138D01*
Y23138D01*
G37*
G36*
X108876Y67224D02*
Y72540D01*
X106396Y70382D01*
Y69382D01*
X108876Y67224D01*
G37*
G36*
X90454Y70382D02*
X87974Y72540D01*
Y67224D01*
X90454Y69382D01*
Y70382D01*
G37*
G36*
X108876Y114468D02*
Y119784D01*
X106396Y117626D01*
Y116626D01*
X108876Y114468D01*
G37*
G36*
X90454Y117626D02*
X87974Y119784D01*
Y114468D01*
X90454Y116626D01*
Y117626D01*
G37*
G36*
X45884Y67224D02*
Y72540D01*
X43404Y70382D01*
Y69382D01*
X45884Y67224D01*
G37*
G36*
X27462Y70382D02*
X24982Y72540D01*
Y67224D01*
X27462Y69382D01*
Y70382D01*
G37*
G36*
X45884Y114468D02*
Y119784D01*
X43404Y117626D01*
Y116626D01*
X45884Y114468D01*
G37*
G36*
X27462Y117626D02*
X24982Y119784D01*
Y114468D01*
X27462Y116626D01*
Y117626D01*
G37*
G54D10*
X111220Y22638D02*
G01X85630D01*
X111220Y69882D02*
X85630D01*
X111220Y117126D02*
X85630D01*
X48228Y69882D02*
X22638D01*
X48228Y117126D02*
X22638D01*
G54D14*
X71930Y11810D03*
G54D15*
X61930D03*
G54D16*
X51929Y170354D03*
G54D14*
Y160354D03*
X61929Y170354D03*
Y160354D03*
X71929Y170354D03*
Y160354D03*
X81929Y170354D03*
Y160354D03*
X22638Y134842D03*
X48228D03*
X22638Y117126D03*
X48228D03*
X22638Y87598D03*
X48228D03*
X22638Y69882D03*
X48228D03*
X22638Y40354D03*
X48228D03*
X22638Y22638D03*
X48228D03*
X85630Y134842D03*
X111220D03*
X85630Y117126D03*
X111220D03*
X85630Y87598D03*
X111220D03*
X85630Y69882D03*
X111220D03*
X85630Y40354D03*
X111220D03*
X85630Y22638D03*
X111220D03*
X22638Y134842D03*
M02*
