%FSLAX25Y25*%
%MOIN*%
%ADD10C,0.00000394*%
%IPPOS*%
G75*
G36*
X75334Y58308D02*
G01X70276D01*
X69882Y57914D01*
Y56596D01*
X70276Y56202D01*
X71476D01*
X71870Y55808D01*
Y54428D01*
X71476Y54034D01*
X70276D01*
X69882Y53640D01*
Y52322D01*
X70276Y51930D01*
X75334D01*
X75728Y52322D01*
Y57914D01*
X75334Y58308D01*
G37*
G36*
X63582Y58308D02*
X58524D01*
X58130Y57914D01*
Y52322D01*
X58524Y51930D01*
X63582D01*
X63976Y52322D01*
Y53640D01*
X63582Y54034D01*
X62382D01*
X61988Y54428D01*
Y55808D01*
X62382Y56202D01*
X63582D01*
X63976Y56596D01*
Y57914D01*
X63582Y58308D01*
G37*
G36*
X75334Y105552D02*
X70276D01*
X69882Y105158D01*
Y103840D01*
X70276Y103446D01*
X71476D01*
X71870Y103052D01*
Y101672D01*
X71476Y101278D01*
X70276D01*
X69882Y100884D01*
Y99566D01*
X70276Y99174D01*
X75334D01*
X75728Y99566D01*
Y105158D01*
X75334Y105552D01*
G37*
G36*
X63582Y105552D02*
X58524D01*
X58130Y105158D01*
Y99566D01*
X58524Y99174D01*
X63582D01*
X63976Y99566D01*
Y100884D01*
X63582Y101278D01*
X62382D01*
X61988Y101672D01*
Y103052D01*
X62382Y103446D01*
X63582D01*
X63976Y103840D01*
Y105158D01*
X63582Y105552D01*
G37*
G36*
X69334Y31988D02*
X67912D01*
X67518Y31594D01*
Y27628D01*
X67912Y27234D01*
X73820D01*
X74214Y27628D01*
Y31594D01*
X73820Y31988D01*
X72398D01*
X72004Y31594D01*
Y30766D01*
X71610Y30372D01*
X70122D01*
X69728Y30766D01*
Y31594D01*
X69334Y31988D01*
G37*
G36*
X73820Y43632D02*
X67912D01*
X67518Y43238D01*
Y39272D01*
X67912Y38878D01*
X69334D01*
X69728Y39272D01*
Y40100D01*
X70122Y40494D01*
X71610D01*
X72004Y40100D01*
Y39272D01*
X72398Y38878D01*
X73820D01*
X74214Y39272D01*
Y43238D01*
X73820Y43632D01*
G37*
G36*
X69334Y79232D02*
X67912D01*
X67518Y78838D01*
Y74872D01*
X67912Y74478D01*
X73820D01*
X74214Y74872D01*
Y78838D01*
X73820Y79232D01*
X72398D01*
X72004Y78838D01*
Y78010D01*
X71610Y77616D01*
X70122D01*
X69728Y78010D01*
Y78838D01*
X69334Y79232D01*
G37*
G36*
X73820Y90876D02*
X67912D01*
X67518Y90482D01*
Y86516D01*
X67912Y86122D01*
X69334D01*
X69728Y86516D01*
Y87344D01*
X70122Y87738D01*
X71610D01*
X72004Y87344D01*
Y86516D01*
X72398Y86122D01*
X73820D01*
X74214Y86516D01*
Y90482D01*
X73820Y90876D01*
G37*
M02*
