%FSLAX25Y25*%
%MOIN*%
%ADD10C,0.01000000*%
%ADD17C,0.00600000*%
%ADD18C,0.00393701*%
%IPPOS*%
G75*
G54D18*
X126839Y24342D02*
G01X126489Y24162D01*
X126129Y23802D01*
X125949Y23442D01*
Y22732D01*
X126129Y22372D01*
X126489Y22012D01*
X126839Y21832D01*
X127379Y21652D01*
X128279D01*
X128809Y21832D01*
X129169Y22012D01*
X129529Y22372D01*
X129709Y22732D01*
Y23442D01*
X129529Y23802D01*
X129169Y24162D01*
X128809Y24342D01*
X128279D01*
Y23442D02*
Y24342D01*
X126669Y25522D02*
X126489Y25872D01*
X125949Y26412D01*
X129709D01*
X125949Y28672D02*
X126129Y28132D01*
X126669Y27772D01*
X127559Y27592D01*
X128099D01*
X128989Y27772D01*
X129529Y28132D01*
X129709Y28672D01*
Y29022D01*
X129529Y29562D01*
X128989Y29922D01*
X128099Y30102D01*
X127559D01*
X126669Y29922D01*
X126129Y29562D01*
X125949Y29022D01*
Y28672D01*
Y32352D02*
X126129Y31822D01*
X126669Y31462D01*
X127559Y31282D01*
X128099D01*
X128989Y31462D01*
X129529Y31822D01*
X129709Y32352D01*
Y32712D01*
X129529Y33252D01*
X128989Y33612D01*
X128099Y33782D01*
X127559D01*
X126669Y33612D01*
X126129Y33252D01*
X125949Y32712D01*
Y32352D01*
Y36042D02*
X126129Y35502D01*
X126669Y35142D01*
X127559Y34972D01*
X128099D01*
X128989Y35142D01*
X129529Y35502D01*
X129709Y36042D01*
Y36402D01*
X129529Y36932D01*
X128989Y37292D01*
X128099Y37472D01*
X127559D01*
X126669Y37292D01*
X126129Y36932D01*
X125949Y36402D01*
Y36042D01*
Y41412D02*
X129709D01*
X125949D02*
Y43732D01*
X127739Y41412D02*
Y42842D01*
X125949Y44922D02*
X129709D01*
X125949D02*
X129709Y46352D01*
X125949Y47782D02*
X129709Y46352D01*
X125949Y47782D02*
X129709D01*
X126489Y51472D02*
X126129Y51112D01*
X125949Y50572D01*
Y49852D01*
X126129Y49322D01*
X126489Y48962D01*
X126839D01*
X127199Y49142D01*
X127379Y49322D01*
X127559Y49682D01*
X127919Y50752D01*
X128099Y51112D01*
X128279Y51292D01*
X128629Y51472D01*
X129169D01*
X129529Y51112D01*
X129709Y50572D01*
Y49852D01*
X129529Y49322D01*
X129169Y48962D01*
X125949Y55402D02*
X129709Y56832D01*
X125949Y58272D02*
X129709Y56832D01*
X126669Y59452D02*
X126489Y59802D01*
X125949Y60342D01*
X129709D01*
X125229Y65532D02*
X125589Y65172D01*
X126129Y64822D01*
X126839Y64462D01*
X127739Y64282D01*
X128449D01*
X129349Y64462D01*
X130069Y64822D01*
X130599Y65172D01*
X130959Y65532D01*
X127739Y68862D02*
X127379Y68502D01*
X127199Y68142D01*
Y67612D01*
X127379Y67252D01*
X127739Y66892D01*
X128279Y66712D01*
X128629D01*
X129169Y66892D01*
X129529Y67252D01*
X129709Y67612D01*
Y68142D01*
X129529Y68502D01*
X129169Y68862D01*
X125229Y70042D02*
X125589Y70402D01*
X126129Y70762D01*
X126839Y71112D01*
X127739Y71292D01*
X128449D01*
X129349Y71112D01*
X130069Y70762D01*
X130599Y70402D01*
X130959Y70042D01*
X127199Y75232D02*
X129709D01*
X127919D02*
X127379Y75772D01*
X127199Y76132D01*
Y76662D01*
X127379Y77022D01*
X127919Y77202D01*
X129709D01*
X127919D02*
X127379Y77742D01*
X127199Y78092D01*
Y78632D01*
X127379Y78992D01*
X127919Y79172D01*
X129709D01*
X127199Y80352D02*
X129709D01*
X128279D02*
X127739Y80532D01*
X127379Y80892D01*
X127199Y81242D01*
Y81782D01*
Y82962D02*
X128989D01*
X129529Y83142D01*
X129709Y83502D01*
Y84032D01*
X129529Y84392D01*
X128989Y84932D01*
X127199D02*
X129709D01*
X127739Y88082D02*
X127379Y87902D01*
X127199Y87362D01*
Y86832D01*
X127379Y86292D01*
X127739Y86112D01*
X128099Y86292D01*
X128279Y86652D01*
X128449Y87542D01*
X128629Y87902D01*
X128989Y88082D01*
X129169D01*
X129529Y87902D01*
X129709Y87362D01*
Y86832D01*
X129529Y86292D01*
X129169Y86112D01*
X125949Y89262D02*
X129709D01*
X127199Y91052D02*
X128989Y89262D01*
X128279Y89982D02*
X129709Y91232D01*
G54D17*
X37293Y143914D02*
G01X36883Y144324D01*
X36273Y144524D01*
X35453D01*
X34843Y144324D01*
X34433Y143914D01*
Y143504D01*
X34633Y143094D01*
X34843Y142884D01*
X35253Y142684D01*
X36483Y142274D01*
X36883Y142074D01*
X37093Y141864D01*
X37293Y141454D01*
Y140844D01*
X36883Y140434D01*
X36273Y140234D01*
X35453D01*
X34843Y140434D01*
X34433Y140844D01*
X38643Y144524D02*
X39673Y140234D01*
X40693Y144524D02*
X39673Y140234D01*
X40693Y144524D02*
X41713Y140234D01*
X42733Y144524D02*
X41713Y140234D01*
X44083Y143704D02*
X44493Y143914D01*
X45113Y144524D01*
Y140234D01*
X37293Y96670D02*
X36883Y97080D01*
X36273Y97280D01*
X35453D01*
X34843Y97080D01*
X34433Y96670D01*
Y96260D01*
X34633Y95850D01*
X34843Y95640D01*
X35253Y95440D01*
X36483Y95030D01*
X36883Y94830D01*
X37093Y94620D01*
X37293Y94210D01*
Y93600D01*
X36883Y93190D01*
X36273Y92990D01*
X35453D01*
X34843Y93190D01*
X34433Y93600D01*
X38643Y97280D02*
X39673Y92990D01*
X40693Y97280D02*
X39673Y92990D01*
X40693Y97280D02*
X41713Y92990D01*
X42733Y97280D02*
X41713Y92990D01*
X44293Y96260D02*
Y96460D01*
X44493Y96870D01*
X44703Y97080D01*
X45113Y97280D01*
X45933D01*
X46333Y97080D01*
X46543Y96870D01*
X46743Y96460D01*
Y96050D01*
X46543Y95640D01*
X46133Y95030D01*
X44083Y92990D01*
X46953D01*
X34356Y49206D02*
X33946Y49616D01*
X33336Y49816D01*
X32516D01*
X31906Y49616D01*
X31496Y49206D01*
Y48796D01*
X31696Y48386D01*
X31906Y48176D01*
X32316Y47976D01*
X33546Y47566D01*
X33946Y47366D01*
X34156Y47156D01*
X34356Y46746D01*
Y46136D01*
X33946Y45726D01*
X33336Y45526D01*
X32516D01*
X31906Y45726D01*
X31496Y46136D01*
X35706Y49816D02*
X36736Y45526D01*
X37756Y49816D02*
X36736Y45526D01*
X37756Y49816D02*
X38776Y45526D01*
X39796Y49816D02*
X38776Y45526D01*
X41556Y49816D02*
X43806D01*
X42586Y48176D01*
X43196D01*
X43606Y47976D01*
X43806Y47776D01*
X44016Y47156D01*
Y46746D01*
X43806Y46136D01*
X43396Y45726D01*
X42786Y45526D01*
X42176D01*
X41556Y45726D01*
X41356Y45926D01*
X41146Y46336D01*
X100285Y143914D02*
X99875Y144324D01*
X99265Y144524D01*
X98445D01*
X97835Y144324D01*
X97425Y143914D01*
Y143504D01*
X97625Y143094D01*
X97835Y142884D01*
X98245Y142684D01*
X99475Y142274D01*
X99875Y142074D01*
X100085Y141864D01*
X100285Y141454D01*
Y140844D01*
X99875Y140434D01*
X99265Y140234D01*
X98445D01*
X97835Y140434D01*
X97425Y140844D01*
X101635Y144524D02*
X102665Y140234D01*
X103685Y144524D02*
X102665Y140234D01*
X103685Y144524D02*
X104705Y140234D01*
X105725Y144524D02*
X104705Y140234D01*
X109125Y144524D02*
X107075Y141664D01*
X110145D01*
X109125Y144524D02*
Y140234D01*
X100285Y96670D02*
X99875Y97080D01*
X99265Y97280D01*
X98445D01*
X97835Y97080D01*
X97425Y96670D01*
Y96260D01*
X97625Y95850D01*
X97835Y95640D01*
X98245Y95440D01*
X99475Y95030D01*
X99875Y94830D01*
X100085Y94620D01*
X100285Y94210D01*
Y93600D01*
X99875Y93190D01*
X99265Y92990D01*
X98445D01*
X97835Y93190D01*
X97425Y93600D01*
X101635Y97280D02*
X102665Y92990D01*
X103685Y97280D02*
X102665Y92990D01*
X103685Y97280D02*
X104705Y92990D01*
X105725Y97280D02*
X104705Y92990D01*
X109535Y97280D02*
X107485D01*
X107285Y95440D01*
X107485Y95640D01*
X108105Y95850D01*
X108715D01*
X109325Y95640D01*
X109735Y95240D01*
X109945Y94620D01*
Y94210D01*
X109735Y93600D01*
X109325Y93190D01*
X108715Y92990D01*
X108105D01*
X107485Y93190D01*
X107285Y93390D01*
X107075Y93800D01*
X100285Y49426D02*
X99875Y49836D01*
X99265Y50036D01*
X98445D01*
X97835Y49836D01*
X97425Y49426D01*
Y49016D01*
X97625Y48606D01*
X97835Y48396D01*
X98245Y48196D01*
X99475Y47786D01*
X99875Y47586D01*
X100085Y47376D01*
X100285Y46966D01*
Y46356D01*
X99875Y45946D01*
X99265Y45746D01*
X98445D01*
X97835Y45946D01*
X97425Y46356D01*
X101635Y50036D02*
X102665Y45746D01*
X103685Y50036D02*
X102665Y45746D01*
X103685Y50036D02*
X104705Y45746D01*
X105725Y50036D02*
X104705Y45746D01*
X109535Y49426D02*
X109325Y49836D01*
X108715Y50036D01*
X108305D01*
X107695Y49836D01*
X107285Y49216D01*
X107075Y48196D01*
Y47176D01*
X107285Y46356D01*
X107695Y45946D01*
X108305Y45746D01*
X108515D01*
X109125Y45946D01*
X109535Y46356D01*
X109735Y46966D01*
Y47176D01*
X109535Y47786D01*
X109125Y48196D01*
X108515Y48396D01*
X108305D01*
X107695Y48196D01*
X107285Y47786D01*
X107075Y47176D01*
X65929Y65658D02*
Y61368D01*
X68379D01*
X69729Y65658D02*
Y61368D01*
Y65658D02*
X72389D01*
X69729Y63618D02*
X71369D01*
X69729Y61368D02*
X72389D01*
X73739Y65658D02*
Y61368D01*
Y65658D02*
X75179D01*
X75789Y65458D01*
X76199Y65048D01*
X76399Y64638D01*
X76609Y64018D01*
Y62998D01*
X76399Y62388D01*
X76199Y61978D01*
X75789Y61568D01*
X75179Y61368D01*
X73739D01*
X77959Y64838D02*
X78369Y65048D01*
X78979Y65658D01*
Y61368D01*
X65929Y112902D02*
Y108612D01*
X68379D01*
X69729Y112902D02*
Y108612D01*
Y112902D02*
X72389D01*
X69729Y110862D02*
X71369D01*
X69729Y108612D02*
X72389D01*
X73739Y112902D02*
Y108612D01*
Y112902D02*
X75179D01*
X75789Y112702D01*
X76199Y112292D01*
X76399Y111882D01*
X76609Y111262D01*
Y110242D01*
X76399Y109632D01*
X76199Y109222D01*
X75789Y108812D01*
X75179Y108612D01*
X73739D01*
X78159Y111882D02*
Y112082D01*
X78369Y112492D01*
X78569Y112702D01*
X78979Y112902D01*
X79799D01*
X80209Y112702D01*
X80409Y112492D01*
X80619Y112082D01*
Y111672D01*
X80409Y111262D01*
X79999Y110652D01*
X77959Y108612D01*
X80819D01*
X59055Y41942D02*
Y37652D01*
Y41942D02*
X60895D01*
X61505Y41742D01*
X61715Y41532D01*
X61915Y41122D01*
Y40712D01*
X61715Y40302D01*
X61505Y40102D01*
X60895Y39902D01*
X59055D01*
X60485D02*
X61915Y37652D01*
X63265Y41122D02*
X63675Y41332D01*
X64295Y41942D01*
Y37652D01*
X57086Y89186D02*
Y84896D01*
Y89186D02*
X58926D01*
X59536Y88986D01*
X59746Y88776D01*
X59946Y88366D01*
Y87956D01*
X59746Y87546D01*
X59536Y87346D01*
X58926Y87146D01*
X57086D01*
X58516D02*
X59946Y84896D01*
X61506Y88166D02*
Y88366D01*
X61706Y88776D01*
X61916Y88986D01*
X62326Y89186D01*
X63136D01*
X63546Y88986D01*
X63756Y88776D01*
X63956Y88366D01*
Y87956D01*
X63756Y87546D01*
X63346Y86936D01*
X61296Y84896D01*
X64166D01*
G36*
X56630Y58606D02*
X56030D01*
Y51628D01*
X56630D01*
Y58606D01*
G37*
G36*
X56630Y105852D02*
X56030D01*
Y98874D01*
X56630D01*
Y105852D01*
G37*
G54D10*
X25968Y137795D02*
G01X44898D01*
X47244Y130500D02*
Y121469D01*
X44898Y114173D02*
X25968D01*
X23622Y121469D02*
Y130500D01*
X25968Y90551D02*
X44898D01*
X47244Y83256D02*
Y74225D01*
X44898Y66929D02*
X25968D01*
X23622Y74225D02*
Y83256D01*
X25968Y43307D02*
X44898D01*
X47244Y36011D02*
Y26981D01*
X44898Y19685D02*
X25968D01*
X23622Y26981D02*
Y36011D01*
X88960Y137795D02*
X107890D01*
X110236Y130500D02*
Y121469D01*
X107890Y114173D02*
X88960D01*
X86614Y121469D02*
Y130500D01*
X88960Y90551D02*
X107890D01*
X110236Y83256D02*
Y74225D01*
X107890Y66929D02*
X88960D01*
X86614Y74225D02*
Y83256D01*
X88960Y43307D02*
X107890D01*
X110236Y36011D02*
Y26981D01*
X107890Y19685D02*
X88960D01*
X86614Y26981D02*
Y36011D01*
G54D17*
X70182Y51029D02*
G01X76628D01*
Y59207D01*
X70182D01*
X63677Y51029D02*
X57830D01*
X57230Y51629D01*
Y58607D01*
X57830Y59207D01*
X63677D01*
X70182Y98273D02*
X76628D01*
Y106451D01*
X70182D01*
X63677Y98273D02*
X57830D01*
X57230Y98873D01*
Y105851D01*
X57830Y106451D01*
X63677D01*
X66618Y31688D02*
Y26334D01*
X75114D01*
Y31688D01*
X66618Y39178D02*
Y44532D01*
X75114D01*
Y39178D01*
X66618Y78932D02*
Y73578D01*
X75114D01*
Y78932D01*
X66618Y86422D02*
Y91776D01*
X75114D01*
Y86422D01*
G54D10*
X42520Y125984D02*
G03I-07087J0D01*
X44281Y133070D02*
G03I-01761J0D01*
X30107Y133071D02*
G03I-01761J0D01*
Y118897D02*
G03I-01761J0D01*
X44281D02*
G03I-01761J0D01*
X42520Y78740D02*
G03I-07087J0D01*
X44281Y85826D02*
G03I-01761J0D01*
X30107Y85827D02*
G03I-01761J0D01*
Y71653D02*
G03I-01761J0D01*
X44281D02*
G03I-01761J0D01*
X42520Y31496D02*
G03I-07087J0D01*
X44281Y38582D02*
G03I-01761J0D01*
X30107Y38583D02*
G03I-01761J0D01*
Y24409D02*
G03I-01761J0D01*
X44281D02*
G03I-01761J0D01*
X105512Y125984D02*
G03I-07087J0D01*
X107273Y133070D02*
G03I-01761J0D01*
X93099Y133071D02*
G03I-01761J0D01*
Y118897D02*
G03I-01761J0D01*
X107273D02*
G03I-01761J0D01*
X105512Y78740D02*
G03I-07087J0D01*
X107273Y85826D02*
G03I-01761J0D01*
X93099Y85827D02*
G03I-01761J0D01*
Y71653D02*
G03I-01761J0D01*
X107273D02*
G03I-01761J0D01*
X105512Y31496D02*
G03I-07087J0D01*
X107273Y38582D02*
G03I-01761J0D01*
X93099Y38583D02*
G03I-01761J0D01*
Y24409D02*
G03I-01761J0D01*
X107273D02*
G03I-01761J0D01*
M02*
