%FSLAX25Y25*%
%MOIN*%
%ADD10C,0.01000000*%
%ADD11C,0.03937008*%
%ADD12C,0.06000000*%
%ADD13C,0.07086614*%
%IPPOS*%
G75*
G36*
X57640Y-36380D02*
G01X-57640D01*
X-57794Y-36350D01*
X-57922Y-36262D01*
X-58010Y-36134D01*
X-58040Y-35980D01*
Y35980D01*
X-58010Y36134D01*
X-57922Y36262D01*
X-57794Y36350D01*
X-57640Y36380D01*
X1580D01*
X1734Y36350D01*
X1864Y36262D01*
X1950Y36134D01*
X1980Y35980D01*
X1950Y35826D01*
X1864Y35698D01*
X-01190Y32642D01*
X-01318Y32558D01*
X-01466Y32526D01*
X-01616Y32552D01*
X-01746Y32632D01*
X-01836Y32756D01*
X-01906Y32908D01*
X-02214Y33390D01*
X-02580Y33832D01*
X-02996Y34224D01*
X-03460Y34562D01*
X-03884Y34794D01*
Y32730D01*
X-02054D01*
X-01908Y32702D01*
X-01782Y32622D01*
X-01694Y32502D01*
X-01656Y32356D01*
X-01674Y32208D01*
X-01746Y32076D01*
X-01896Y31894D01*
X-02036Y31632D01*
X-02122Y31348D01*
X-02154Y31032D01*
Y29088D01*
X-02184Y28934D01*
X-02270Y28804D01*
X-02400Y28718D01*
X-02554Y28688D01*
X-03884D01*
Y27706D01*
X-03910Y27564D01*
X-03984Y27440D01*
X-04096Y27352D01*
X-04234Y27308D01*
X-04792Y27238D01*
X-05346Y27096D01*
X-05880Y26884D01*
X-06382Y26608D01*
X-06846Y26272D01*
X-07252Y25888D01*
X-07628Y25438D01*
X-07936Y24954D01*
X-08180Y24436D01*
X-08356Y23890D01*
X-08464Y23328D01*
X-08500Y22756D01*
X-08464Y22184D01*
X-08356Y21622D01*
X-08180Y21076D01*
X-07936Y20558D01*
X-07628Y20074D01*
X-07262Y19632D01*
X-06846Y19240D01*
X-06382Y18904D01*
X-05880Y18628D01*
X-05346Y18416D01*
X-04792Y18274D01*
X-04224Y18202D01*
X-03650D01*
X-03082Y18274D01*
X-02528Y18416D01*
X-01994Y18628D01*
X-01492Y18904D01*
X-01028Y19240D01*
X-00612Y19632D01*
X-00246Y20074D01*
X62Y20558D01*
X306Y21076D01*
X482Y21622D01*
X590Y22184D01*
X626Y22756D01*
X590Y23328D01*
X482Y23890D01*
X306Y24436D01*
X254Y24620D01*
X282Y24780D01*
X372Y24916D01*
X428Y24972D01*
X630Y25216D01*
X770Y25478D01*
X856Y25764D01*
X886Y26080D01*
Y28896D01*
X916Y29046D01*
X1000Y29174D01*
X1126Y29262D01*
X1276Y29296D01*
X1428Y29270D01*
X1558Y29188D01*
X1650Y29064D01*
X1908Y28510D01*
X2214Y28028D01*
X2580Y27586D01*
X2998Y27194D01*
X3462Y26856D01*
X3964Y26580D01*
X4496Y26370D01*
X5052Y26228D01*
X5620Y26156D01*
X6192D01*
X6760Y26228D01*
X7316Y26370D01*
X7848Y26580D01*
X8350Y26856D01*
X8814Y27194D01*
X9232Y27586D01*
X9598Y28028D01*
X9904Y28510D01*
X10116Y28960D01*
X10204Y29080D01*
X10330Y29160D01*
X10478Y29188D01*
X31630D01*
X31782Y29158D01*
X31912Y29072D01*
X41430Y19554D01*
X41520Y19416D01*
X41546Y19252D01*
X41504Y19092D01*
X41400Y18962D01*
X41252Y18886D01*
X40926Y18796D01*
X40432Y18588D01*
X39970Y18314D01*
X39548Y17980D01*
X39174Y17594D01*
X38856Y17162D01*
X38598Y16692D01*
X38406Y16190D01*
X38280Y15668D01*
X38228Y15134D01*
X38246Y14598D01*
X38334Y14068D01*
X38460Y13666D01*
X38476Y13524D01*
X38442Y13384D01*
X38360Y13266D01*
X34354Y9260D01*
X34228Y9174D01*
X34078Y9142D01*
X33928Y9170D01*
X33798Y9252D01*
X33618Y9420D01*
X33154Y9758D01*
X32652Y10034D01*
X32118Y10244D01*
X31564Y10386D01*
X30996Y10458D01*
X30422D01*
X29854Y10386D01*
X29300Y10244D01*
X28766Y10034D01*
X28264Y9758D01*
X27800Y9420D01*
X27384Y9028D01*
X27018Y8586D01*
X26710Y8104D01*
X26466Y7584D01*
X26290Y7040D01*
X26182Y6476D01*
X26146Y5904D01*
X26182Y5334D01*
X26290Y4770D01*
X26466Y4226D01*
X26710Y3706D01*
X27018Y3224D01*
X27384Y2782D01*
X27800Y2390D01*
X28264Y2052D01*
X28766Y1776D01*
X29300Y1566D01*
X29854Y1424D01*
X30422Y1352D01*
X30996D01*
X31564Y1424D01*
X32118Y1566D01*
X32652Y1776D01*
X33154Y2052D01*
X33618Y2390D01*
X34034Y2782D01*
X34400Y3224D01*
X34708Y3706D01*
X34952Y4226D01*
X35128Y4770D01*
X35236Y5334D01*
X35260Y5726D01*
X35294Y5864D01*
X35376Y5982D01*
X40512Y11118D01*
X40634Y11202D01*
X40778Y11234D01*
X40926Y11212D01*
X41182Y11124D01*
X41708Y11016D01*
X42244Y10980D01*
X42780Y11016D01*
X43306Y11124D01*
X43814Y11300D01*
X44292Y11542D01*
X44556Y11724D01*
X44716Y11788D01*
X44888Y11780D01*
X45042Y11700D01*
X45146Y11562D01*
X45182Y11394D01*
Y10254D01*
X45152Y10102D01*
X45066Y9972D01*
X43984Y8890D01*
X43870Y8810D01*
X43734Y8774D01*
X43594Y8786D01*
X43044Y8938D01*
X42512Y9010D01*
X41976D01*
X41444Y8938D01*
X40926Y8796D01*
X40432Y8588D01*
X39970Y8314D01*
X39548Y7980D01*
X39174Y7594D01*
X38856Y7162D01*
X38598Y6692D01*
X38406Y6190D01*
X38280Y5668D01*
X38228Y5134D01*
X38246Y4598D01*
X38334Y4068D01*
X38494Y3556D01*
X38720Y3068D01*
X39008Y2616D01*
X39356Y2206D01*
X39754Y1846D01*
X40196Y1542D01*
X40676Y1300D01*
X41182Y1124D01*
X41708Y1016D01*
X42244Y980D01*
X42780Y1016D01*
X43306Y1124D01*
X43814Y1300D01*
X44292Y1542D01*
X44734Y1846D01*
X45134Y2206D01*
X45480Y2616D01*
X45768Y3068D01*
X45994Y3556D01*
X46154Y4068D01*
X46244Y4598D01*
X46260Y5134D01*
X46208Y5668D01*
X46082Y6190D01*
X46038Y6308D01*
X46010Y6458D01*
X46042Y6608D01*
X46128Y6734D01*
X47764Y8370D01*
X47966Y8616D01*
X48106Y8878D01*
X48192Y9162D01*
X48222Y9478D01*
Y12476D01*
X48260Y12642D01*
X48362Y12780D01*
X48510Y12860D01*
X48680Y12872D01*
X48840Y12812D01*
X48960Y12692D01*
X49008Y12616D01*
X49356Y12206D01*
X49754Y11846D01*
X50196Y11542D01*
X50676Y11300D01*
X51182Y11124D01*
X51708Y11016D01*
X52244Y10980D01*
X52780Y11016D01*
X53306Y11124D01*
X53814Y11300D01*
X54292Y11542D01*
X54632Y11774D01*
X54792Y11840D01*
X54964Y11830D01*
X55116Y11750D01*
X55220Y11614D01*
X55258Y11446D01*
Y8556D01*
X55218Y8382D01*
X55108Y8244D01*
X54948Y8166D01*
X54770D01*
X54610Y8242D01*
X54518Y8314D01*
X54056Y8588D01*
X53562Y8796D01*
X53044Y8938D01*
X52512Y9010D01*
X51976D01*
X51444Y8938D01*
X50926Y8796D01*
X50432Y8588D01*
X49970Y8314D01*
X49548Y7980D01*
X49174Y7594D01*
X48856Y7162D01*
X48598Y6692D01*
X48406Y6190D01*
X48280Y5668D01*
X48228Y5134D01*
X48246Y4598D01*
X48334Y4068D01*
X48494Y3556D01*
X48720Y3068D01*
X49008Y2616D01*
X49356Y2206D01*
X49754Y1846D01*
X50196Y1542D01*
X50676Y1300D01*
X51182Y1124D01*
X51708Y1016D01*
X52244Y980D01*
X52780Y1016D01*
X53306Y1124D01*
X53814Y1300D01*
X54292Y1542D01*
X54632Y1774D01*
X54792Y1840D01*
X54964Y1830D01*
X55116Y1750D01*
X55220Y1614D01*
X55258Y1446D01*
Y-01444D01*
X55218Y-01618D01*
X55108Y-01756D01*
X54948Y-01834D01*
X54770D01*
X54610Y-01758D01*
X54518Y-01686D01*
X54056Y-01412D01*
X53562Y-01204D01*
X53044Y-01062D01*
X52512Y-00990D01*
X51976D01*
X51444Y-01062D01*
X50926Y-01204D01*
X50432Y-01412D01*
X49970Y-01686D01*
X49548Y-02020D01*
X49174Y-02406D01*
X48856Y-02838D01*
X48598Y-03308D01*
X48406Y-03810D01*
X48280Y-04332D01*
X48228Y-04866D01*
X48246Y-05402D01*
X48334Y-05932D01*
X48494Y-06444D01*
X48720Y-06932D01*
X49008Y-07384D01*
X49356Y-07794D01*
X49754Y-08154D01*
X50196Y-08458D01*
X50676Y-08700D01*
X51182Y-08876D01*
X51708Y-08984D01*
X52244Y-09020D01*
X52780Y-08984D01*
X53306Y-08876D01*
X53814Y-08700D01*
X54292Y-08458D01*
X54632Y-08226D01*
X54792Y-08160D01*
X54964Y-08170D01*
X55116Y-08250D01*
X55220Y-08386D01*
X55258Y-08554D01*
Y-09670D01*
X55228Y-09824D01*
X55140Y-09954D01*
X53984Y-11110D01*
X53870Y-11190D01*
X53734Y-11226D01*
X53594Y-11214D01*
X53044Y-11062D01*
X52512Y-10990D01*
X51976D01*
X51444Y-11062D01*
X50926Y-11204D01*
X50432Y-11412D01*
X49970Y-11686D01*
X49548Y-12020D01*
X49174Y-12406D01*
X48856Y-12838D01*
X48598Y-13308D01*
X48406Y-13810D01*
X48280Y-14332D01*
X48228Y-14866D01*
X48246Y-15402D01*
X48334Y-15932D01*
X48494Y-16444D01*
X48720Y-16932D01*
X49008Y-17384D01*
X49356Y-17794D01*
X49754Y-18154D01*
X50196Y-18458D01*
X50676Y-18700D01*
X51182Y-18876D01*
X51708Y-18984D01*
X52244Y-19020D01*
X52780Y-18984D01*
X53306Y-18876D01*
X53814Y-18700D01*
X54292Y-18458D01*
X54734Y-18154D01*
X55134Y-17794D01*
X55480Y-17384D01*
X55768Y-16932D01*
X55994Y-16444D01*
X56154Y-15932D01*
X56244Y-15402D01*
X56260Y-14866D01*
X56208Y-14332D01*
X56082Y-13810D01*
X56038Y-13692D01*
X56010Y-13542D01*
X56042Y-13392D01*
X56128Y-13266D01*
X57358Y-12036D01*
X57486Y-11950D01*
X57640Y-11920D01*
X57794Y-11950D01*
X57922Y-12036D01*
X58010Y-12166D01*
X58040Y-12320D01*
Y-35980D01*
X58010Y-36134D01*
X57922Y-36262D01*
X57794Y-36350D01*
X57640Y-36380D01*
G37*
%LPC*%
G36*
X48548Y-35432D02*
X49214Y-35468D01*
X49878Y-35432D01*
X50534Y-35320D01*
X51176Y-35136D01*
X51790Y-34880D01*
X52374Y-34558D01*
X52916Y-34172D01*
X53414Y-33728D01*
X53858Y-33232D01*
X54244Y-32688D01*
X54566Y-32106D01*
X54820Y-31490D01*
X55004Y-30850D01*
X55116Y-30194D01*
X55154Y-29528D01*
X55116Y-28862D01*
X55004Y-28206D01*
X54820Y-27566D01*
X54566Y-26950D01*
X54244Y-26368D01*
X53858Y-25824D01*
X53414Y-25328D01*
X52916Y-24884D01*
X52374Y-24498D01*
X51790Y-24176D01*
X51176Y-23920D01*
X50534Y-23736D01*
X49878Y-23624D01*
X49214Y-23588D01*
X48548Y-23624D01*
X47892Y-23736D01*
X47250Y-23920D01*
X46636Y-24176D01*
X46052Y-24498D01*
X45510Y-24884D01*
X45012Y-25328D01*
X44568Y-25824D01*
X44182Y-26368D01*
X43860Y-26950D01*
X43606Y-27566D01*
X43422Y-28206D01*
X43310Y-28862D01*
X43272Y-29528D01*
X43310Y-30194D01*
X43422Y-30850D01*
X43606Y-31490D01*
X43860Y-32106D01*
X44182Y-32688D01*
X44568Y-33232D01*
X45012Y-33728D01*
X45510Y-34172D01*
X46052Y-34558D01*
X46636Y-34880D01*
X47250Y-35136D01*
X47892Y-35320D01*
X48548Y-35432D01*
G37*
G36*
X-49878Y-35432D02*
X-49212Y-35468D01*
X-48548Y-35432D01*
X-47892Y-35320D01*
X-47250Y-35136D01*
X-46636Y-34880D01*
X-46052Y-34558D01*
X-45510Y-34172D01*
X-45012Y-33728D01*
X-44568Y-33232D01*
X-44182Y-32688D01*
X-43860Y-32106D01*
X-43606Y-31490D01*
X-43422Y-30850D01*
X-43310Y-30194D01*
X-43272Y-29528D01*
X-43310Y-28862D01*
X-43422Y-28206D01*
X-43606Y-27566D01*
X-43860Y-26950D01*
X-44182Y-26368D01*
X-44568Y-25824D01*
X-45012Y-25328D01*
X-45510Y-24884D01*
X-46052Y-24498D01*
X-46636Y-24176D01*
X-47250Y-23920D01*
X-47892Y-23736D01*
X-48548Y-23624D01*
X-49212Y-23588D01*
X-49878Y-23624D01*
X-50534Y-23736D01*
X-51176Y-23920D01*
X-51790Y-24176D01*
X-52374Y-24498D01*
X-52916Y-24884D01*
X-53414Y-25328D01*
X-53858Y-25824D01*
X-54244Y-26368D01*
X-54566Y-26950D01*
X-54820Y-27566D01*
X-55004Y-28206D01*
X-55116Y-28862D01*
X-55154Y-29528D01*
X-55116Y-30194D01*
X-55004Y-30850D01*
X-54820Y-31490D01*
X-54566Y-32106D01*
X-54244Y-32688D01*
X-53858Y-33232D01*
X-53414Y-33728D01*
X-52916Y-34172D01*
X-52374Y-34558D01*
X-51790Y-34880D01*
X-51176Y-35136D01*
X-50534Y-35320D01*
X-49878Y-35432D01*
G37*
G36*
X-06760Y-35190D02*
X-06192Y-35262D01*
X-05618D01*
X-05050Y-35190D01*
X-04496Y-35048D01*
X-03962Y-34838D01*
X-03460Y-34562D01*
X-02996Y-34224D01*
X-02592Y-33844D01*
X-02466Y-33764D01*
X-02318Y-33736D01*
X16208D01*
X16524Y-33706D01*
X16808Y-33618D01*
X17070Y-33478D01*
X17316Y-33278D01*
X38214Y-12378D01*
X38350Y-12290D01*
X38508Y-12262D01*
X38666Y-12300D01*
X38796Y-12396D01*
X38876Y-12538D01*
X38894Y-12698D01*
X38848Y-12854D01*
X38630Y-13250D01*
X40494D01*
Y-11386D01*
X40432Y-11412D01*
X40092Y-11614D01*
X39938Y-11666D01*
X39774Y-11652D01*
X39630Y-11574D01*
X39530Y-11444D01*
X39490Y-11286D01*
X39516Y-11124D01*
X39606Y-10986D01*
X41488Y-09106D01*
X41630Y-09014D01*
X41796Y-08990D01*
X42244Y-09020D01*
X42780Y-08984D01*
X43306Y-08876D01*
X43814Y-08700D01*
X44292Y-08458D01*
X44734Y-08154D01*
X45134Y-07794D01*
X45480Y-07384D01*
X45768Y-06932D01*
X45994Y-06444D01*
X46154Y-05932D01*
X46244Y-05402D01*
X46260Y-04866D01*
X46208Y-04332D01*
X46082Y-03810D01*
X45890Y-03308D01*
X45632Y-02838D01*
X45314Y-02406D01*
X44940Y-02020D01*
X44518Y-01686D01*
X44056Y-01412D01*
X43562Y-01204D01*
X43044Y-01062D01*
X42512Y-00990D01*
X41976D01*
X41444Y-01062D01*
X40926Y-01204D01*
X40432Y-01412D01*
X39970Y-01686D01*
X39548Y-02020D01*
X39174Y-02406D01*
X38856Y-02838D01*
X38598Y-03308D01*
X38406Y-03810D01*
X38280Y-04332D01*
X38228Y-04866D01*
X38246Y-05402D01*
X38334Y-05932D01*
X38494Y-06444D01*
X38720Y-06932D01*
X38796Y-07052D01*
X38850Y-07176D01*
X38858Y-07312D01*
X38820Y-07440D01*
X38742Y-07550D01*
X29624Y-16668D01*
X29496Y-16756D01*
X29342Y-16786D01*
X29030D01*
Y-17098D01*
X29000Y-17252D01*
X28912Y-17380D01*
X15714Y-30578D01*
X15584Y-30666D01*
X15432Y-30696D01*
X8016D01*
X7850Y-30660D01*
X7714Y-30558D01*
X7634Y-30410D01*
X7620Y-30240D01*
X7678Y-30082D01*
X7936Y-29678D01*
X8018Y-29502D01*
X5958D01*
Y-30296D01*
X5928Y-30450D01*
X5842Y-30578D01*
X5712Y-30666D01*
X5558Y-30696D01*
X2316D01*
X2162Y-30666D01*
X2032Y-30578D01*
X1946Y-30450D01*
X1916Y-30296D01*
Y-29502D01*
X-00144D01*
X-00062Y-29678D01*
X196Y-30082D01*
X254Y-30240D01*
X240Y-30410D01*
X160Y-30558D01*
X24Y-30660D01*
X-00142Y-30696D01*
X-00968D01*
X-01114Y-30668D01*
X-01242Y-30588D01*
X-01330Y-30466D01*
X-01366Y-30322D01*
X-01378Y-30138D01*
X-01486Y-29574D01*
X-01662Y-29030D01*
X-01906Y-28510D01*
X-02214Y-28028D01*
X-02580Y-27586D01*
X-02996Y-27194D01*
X-03460Y-26856D01*
X-03962Y-26580D01*
X-04496Y-26370D01*
X-05050Y-26228D01*
X-05618Y-26156D01*
X-06192D01*
X-06760Y-26228D01*
X-07314Y-26370D01*
X-07848Y-26580D01*
X-08350Y-26856D01*
X-08814Y-27194D01*
X-09230Y-27586D01*
X-09596Y-28028D01*
X-09904Y-28510D01*
X-10148Y-29030D01*
X-10324Y-29574D01*
X-10432Y-30138D01*
X-10468Y-30710D01*
X-10432Y-31280D01*
X-10324Y-31844D01*
X-10148Y-32388D01*
X-09904Y-32908D01*
X-09596Y-33390D01*
X-09230Y-33832D01*
X-08814Y-34224D01*
X-08350Y-34562D01*
X-07848Y-34838D01*
X-07314Y-35048D01*
X-06760Y-35190D01*
G37*
G36*
X-00062Y-25282D02*
X-00144Y-25458D01*
X1916D01*
Y-23396D01*
X1492Y-23628D01*
X1028Y-23964D01*
X612Y-24356D01*
X246Y-24798D01*
X-00062Y-25282D01*
G37*
G36*
X5958Y-23396D02*
Y-25458D01*
X8018D01*
X7936Y-25282D01*
X7628Y-24798D01*
X7262Y-24356D01*
X6846Y-23964D01*
X6382Y-23628D01*
X5958Y-23396D01*
G37*
G36*
X24564Y-18616D02*
X24986Y-18848D01*
Y-16786D01*
X22926D01*
X23010Y-16962D01*
X23316Y-17446D01*
X23682Y-17888D01*
X24100Y-18280D01*
X24564Y-18616D01*
G37*
G36*
X43994Y-16750D02*
Y-18608D01*
X44292Y-18458D01*
X44734Y-18154D01*
X45134Y-17794D01*
X45480Y-17384D01*
X45768Y-16932D01*
X45852Y-16750D01*
X43994D01*
G37*
G36*
X40196Y-18458D02*
X40494Y-18608D01*
Y-16750D01*
X38636D01*
X38720Y-16932D01*
X39008Y-17384D01*
X39356Y-17794D01*
X39754Y-18154D01*
X40196Y-18458D01*
G37*
G36*
X43994Y-11386D02*
Y-13250D01*
X45858D01*
X45632Y-12838D01*
X45314Y-12406D01*
X44940Y-12020D01*
X44518Y-11686D01*
X44056Y-11412D01*
X43994Y-11386D01*
G37*
G36*
X23010Y-12566D02*
X22926Y-12742D01*
X24986D01*
Y-10680D01*
X24564Y-10912D01*
X24100Y-11248D01*
X23682Y-11640D01*
X23316Y-12082D01*
X23010Y-12566D01*
G37*
G36*
X29030Y-10410D02*
Y-12742D01*
X31090D01*
X31006Y-12566D01*
X30700Y-12082D01*
X30334Y-11640D01*
X29916Y-11248D01*
X29756Y-11132D01*
X29640Y-11000D01*
X29592Y-10834D01*
X29618Y-10660D01*
X29716Y-10516D01*
X29868Y-10428D01*
X30040Y-10412D01*
X30422Y-10460D01*
X30996D01*
X31564Y-10388D01*
X32118Y-10246D01*
X32652Y-10034D01*
X33154Y-09758D01*
X33618Y-09422D01*
X34034Y-09030D01*
X34400Y-08588D01*
X34708Y-08104D01*
X34952Y-07586D01*
X35128Y-07040D01*
X35236Y-06478D01*
X35272Y-05906D01*
X35236Y-05334D01*
X35128Y-04772D01*
X34952Y-04226D01*
X34708Y-03708D01*
X34400Y-03224D01*
X34034Y-02782D01*
X33618Y-02390D01*
X33154Y-02054D01*
X32652Y-01778D01*
X32118Y-01566D01*
X31564Y-01424D01*
X30996Y-01352D01*
X30422D01*
X29854Y-01424D01*
X29300Y-01566D01*
X28766Y-01778D01*
X28264Y-02054D01*
X27800Y-02390D01*
X27384Y-02782D01*
X27018Y-03224D01*
X26710Y-03708D01*
X26466Y-04226D01*
X26290Y-04772D01*
X26182Y-05334D01*
X26146Y-05906D01*
X26182Y-06478D01*
X26290Y-07040D01*
X26466Y-07586D01*
X26710Y-08104D01*
X27018Y-08588D01*
X27384Y-09030D01*
X27800Y-09422D01*
X28264Y-09758D01*
X28776Y-10038D01*
X28910Y-10124D01*
X28998Y-10256D01*
X29030Y-10410D01*
G37*
G36*
X-31564Y-10388D02*
X-30996Y-10460D01*
X-30422D01*
X-29854Y-10388D01*
X-29300Y-10246D01*
X-28766Y-10034D01*
X-28264Y-09758D01*
X-27800Y-09422D01*
X-27384Y-09030D01*
X-27018Y-08588D01*
X-26710Y-08104D01*
X-26466Y-07586D01*
X-26290Y-07040D01*
X-26182Y-06478D01*
X-26146Y-05906D01*
X-26182Y-05334D01*
X-26290Y-04772D01*
X-26466Y-04226D01*
X-26710Y-03708D01*
X-27018Y-03224D01*
X-27384Y-02782D01*
X-27800Y-02390D01*
X-28264Y-02054D01*
X-28766Y-01778D01*
X-29300Y-01566D01*
X-29854Y-01424D01*
X-30422Y-01352D01*
X-30996D01*
X-31564Y-01424D01*
X-32118Y-01566D01*
X-32652Y-01778D01*
X-33154Y-02054D01*
X-33618Y-02390D01*
X-34034Y-02782D01*
X-34400Y-03224D01*
X-34708Y-03708D01*
X-34952Y-04226D01*
X-35128Y-04772D01*
X-35236Y-05334D01*
X-35272Y-05906D01*
X-35236Y-06478D01*
X-35128Y-07040D01*
X-34952Y-07586D01*
X-34708Y-08104D01*
X-34400Y-08588D01*
X-34034Y-09030D01*
X-33618Y-09422D01*
X-33154Y-09758D01*
X-32652Y-10034D01*
X-32118Y-10246D01*
X-31564Y-10388D01*
G37*
G36*
X-15336Y-09464D02*
X-14836Y-09482D01*
X-14340Y-09430D01*
X-13856Y-09310D01*
X-13392Y-09122D01*
X-12960Y-08872D01*
X-12566Y-08566D01*
X-12220Y-08206D01*
X-11926Y-07802D01*
X-11692Y-07362D01*
X-11522Y-06892D01*
X-11418Y-06404D01*
X-11382Y-05906D01*
X-11418Y-05408D01*
X-11522Y-04920D01*
X-11692Y-04450D01*
X-11926Y-04010D01*
X-12220Y-03606D01*
X-12566Y-03246D01*
X-12960Y-02940D01*
X-13392Y-02690D01*
X-13856Y-02504D01*
X-14340Y-02382D01*
X-14836Y-02330D01*
X-15336Y-02348D01*
X-15826Y-02434D01*
X-16302Y-02588D01*
X-16750Y-02808D01*
X-17164Y-03086D01*
X-17534Y-03420D01*
X-17856Y-03802D01*
X-18120Y-04226D01*
X-18324Y-04682D01*
X-18460Y-05162D01*
X-18530Y-05656D01*
Y-06156D01*
X-18460Y-06650D01*
X-18324Y-07130D01*
X-18120Y-07586D01*
X-17856Y-08010D01*
X-17534Y-08392D01*
X-17164Y-08726D01*
X-16750Y-09004D01*
X-16302Y-09224D01*
X-15826Y-09378D01*
X-15336Y-09464D01*
G37*
G36*
X-31564Y1424D02*
X-30996Y1352D01*
X-30422D01*
X-29854Y1424D01*
X-29300Y1566D01*
X-28766Y1776D01*
X-28264Y2052D01*
X-27800Y2390D01*
X-27384Y2782D01*
X-27018Y3224D01*
X-26710Y3706D01*
X-26466Y4226D01*
X-26290Y4770D01*
X-26182Y5334D01*
X-26146Y5904D01*
X-26182Y6476D01*
X-26290Y7040D01*
X-26466Y7584D01*
X-26710Y8104D01*
X-27018Y8586D01*
X-27384Y9028D01*
X-27800Y9420D01*
X-28264Y9758D01*
X-28766Y10034D01*
X-29300Y10244D01*
X-29854Y10386D01*
X-30422Y10458D01*
X-30996D01*
X-31564Y10386D01*
X-32118Y10244D01*
X-32652Y10034D01*
X-33154Y9758D01*
X-33618Y9420D01*
X-34034Y9028D01*
X-34400Y8586D01*
X-34708Y8104D01*
X-34952Y7584D01*
X-35128Y7040D01*
X-35236Y6476D01*
X-35272Y5904D01*
X-35236Y5334D01*
X-35128Y4770D01*
X-34952Y4226D01*
X-34708Y3706D01*
X-34400Y3224D01*
X-34034Y2782D01*
X-33618Y2390D01*
X-33154Y2052D01*
X-32652Y1776D01*
X-32118Y1566D01*
X-31564Y1424D01*
G37*
G36*
X-49878Y23624D02*
X-49212Y23588D01*
X-48548Y23624D01*
X-47892Y23736D01*
X-47250Y23920D01*
X-46636Y24176D01*
X-46052Y24498D01*
X-45510Y24884D01*
X-45012Y25328D01*
X-44568Y25824D01*
X-44182Y26368D01*
X-43860Y26950D01*
X-43606Y27566D01*
X-43422Y28206D01*
X-43310Y28862D01*
X-43272Y29528D01*
X-43310Y30194D01*
X-43422Y30850D01*
X-43606Y31490D01*
X-43860Y32106D01*
X-44182Y32688D01*
X-44568Y33232D01*
X-45012Y33728D01*
X-45510Y34172D01*
X-46052Y34558D01*
X-46636Y34880D01*
X-47250Y35136D01*
X-47892Y35320D01*
X-48548Y35432D01*
X-49212Y35468D01*
X-49878Y35432D01*
X-50534Y35320D01*
X-51176Y35136D01*
X-51790Y34880D01*
X-52374Y34558D01*
X-52916Y34172D01*
X-53414Y33728D01*
X-53858Y33232D01*
X-54244Y32688D01*
X-54566Y32106D01*
X-54820Y31490D01*
X-55004Y30850D01*
X-55116Y30194D01*
X-55154Y29528D01*
X-55116Y28862D01*
X-55004Y28206D01*
X-54820Y27566D01*
X-54566Y26950D01*
X-54244Y26368D01*
X-53858Y25824D01*
X-53414Y25328D01*
X-52916Y24884D01*
X-52374Y24498D01*
X-51790Y24176D01*
X-51176Y23920D01*
X-50534Y23736D01*
X-49878Y23624D01*
G37*
G36*
X-08350Y26856D02*
X-07926Y26624D01*
Y28688D01*
X-09986D01*
X-09904Y28510D01*
X-09596Y28028D01*
X-09230Y27586D01*
X-08814Y27194D01*
X-08350Y26856D01*
G37*
G36*
X-09904Y32908D02*
X-09986Y32730D01*
X-07926D01*
Y34794D01*
X-08350Y34562D01*
X-08814Y34224D01*
X-09230Y33832D01*
X-09596Y33390D01*
X-09904Y32908D01*
G37*
%LPD*%
G54D10*
X16653Y-14764D02*
G01X3937Y-27480D01*
X27008Y-14764D02*
X16653D01*
X-05905Y30709D02*
X-08768Y27846D01*
Y10657D01*
X16653Y-14764D01*
X42244Y-05000D02*
Y-06199D01*
X16227Y-32216D01*
X-04398D01*
X-05905Y-30709D01*
X42244Y15000D02*
X33149Y5905D01*
X30709D01*
X42244Y5000D02*
X46703Y9459D01*
Y16431D01*
X32425Y30709D01*
X5906D01*
X52244Y-15000D02*
X56778Y-10466D01*
Y16410D01*
X50519Y22669D01*
X43186D01*
X30289Y35566D01*
X3882D01*
X-00633Y31051D01*
Y26060D01*
X-03937Y22756D01*
G54D12*
X42244Y-15000D03*
X52244D03*
X42244Y-05000D03*
X52244D03*
X42244Y5000D03*
X52244D03*
X42244Y15000D03*
X52244D03*
G54D13*
X-05905Y-30709D03*
X3937Y-27480D03*
X30709Y-05906D03*
Y5905D03*
X5906Y30709D03*
X-05905D03*
X-03937Y22756D03*
X-30709Y5905D03*
Y-05906D03*
X27008Y-14764D03*
M02*
