%FSLAX25Y25*%
%MOIN*%
%ADD10C,0.01000000*%
%ADD11C,0.03937008*%
%ADD12C,0.06000000*%
%ADD13C,0.07086614*%
%IPPOS*%
G75*
G36*
X57640Y-36380D02*
G01X-57640D01*
X-57794Y-36350D01*
X-57922Y-36262D01*
X-58010Y-36134D01*
X-58040Y-35980D01*
Y35980D01*
X-58010Y36134D01*
X-57922Y36262D01*
X-57794Y36350D01*
X-57640Y36380D01*
X57640D01*
X57794Y36350D01*
X57922Y36262D01*
X58010Y36134D01*
X58040Y35980D01*
Y18178D01*
X58010Y18026D01*
X57922Y17896D01*
X57794Y17808D01*
X57640Y17778D01*
X57486Y17808D01*
X57358Y17896D01*
X55080Y20172D01*
X54834Y20374D01*
X54572Y20514D01*
X54288Y20600D01*
X53972Y20632D01*
X1906D01*
X1590Y20600D01*
X1306Y20514D01*
X1044Y20374D01*
X790Y20166D01*
X680Y20066D01*
X546Y19988D01*
X392Y19966D01*
X240Y20004D01*
X116Y20096D01*
X36Y20230D01*
X12Y20384D01*
X50Y20536D01*
X306Y21076D01*
X482Y21622D01*
X590Y22184D01*
X626Y22756D01*
X590Y23328D01*
X482Y23890D01*
X306Y24436D01*
X62Y24954D01*
X-00246Y25438D01*
X-00612Y25880D01*
X-01028Y26272D01*
X-01492Y26608D01*
X-01994Y26884D01*
X-02360Y27030D01*
X-02486Y27110D01*
X-02574Y27230D01*
X-02612Y27376D01*
X-02594Y27524D01*
X-02520Y27656D01*
X-02214Y28028D01*
X-01906Y28510D01*
X-01824Y28688D01*
X-03884D01*
Y27706D01*
X-03910Y27564D01*
X-03984Y27440D01*
X-04096Y27352D01*
X-04234Y27308D01*
X-04792Y27238D01*
X-05346Y27096D01*
X-05880Y26884D01*
X-06382Y26608D01*
X-06846Y26272D01*
X-07252Y25888D01*
X-07628Y25438D01*
X-07936Y24954D01*
X-08180Y24436D01*
X-08356Y23890D01*
X-08464Y23328D01*
X-08500Y22756D01*
X-08464Y22184D01*
X-08356Y21622D01*
X-08180Y21076D01*
X-07936Y20558D01*
X-07628Y20074D01*
X-07340Y19724D01*
X-07266Y19594D01*
X-07248Y19444D01*
X-07286Y19300D01*
X-07374Y19178D01*
X-07500Y19098D01*
X-07648Y19070D01*
X-19044D01*
X-19360Y19038D01*
X-19646Y18952D01*
X-19908Y18812D01*
X-20152Y18610D01*
X-28554Y10208D01*
X-28682Y10122D01*
X-28834Y10092D01*
X-28984Y10120D01*
X-29300Y10244D01*
X-29854Y10386D01*
X-30422Y10458D01*
X-30996D01*
X-31564Y10386D01*
X-32118Y10244D01*
X-32652Y10034D01*
X-33154Y9758D01*
X-33618Y9420D01*
X-34034Y9028D01*
X-34400Y8586D01*
X-34708Y8104D01*
X-34952Y7584D01*
X-35128Y7040D01*
X-35236Y6476D01*
X-35272Y5904D01*
X-35236Y5334D01*
X-35128Y4770D01*
X-34952Y4226D01*
X-34708Y3706D01*
X-34400Y3224D01*
X-34034Y2782D01*
X-33618Y2390D01*
X-33154Y2052D01*
X-32652Y1776D01*
X-32118Y1566D01*
X-31564Y1424D01*
X-30996Y1352D01*
X-30422D01*
X-29854Y1424D01*
X-29300Y1566D01*
X-28766Y1776D01*
X-28264Y2052D01*
X-27800Y2390D01*
X-27384Y2782D01*
X-27018Y3224D01*
X-26710Y3706D01*
X-26466Y4226D01*
X-26290Y4770D01*
X-26182Y5334D01*
X-26146Y5904D01*
X-26182Y6476D01*
X-26290Y7040D01*
X-26466Y7584D01*
X-26518Y7768D01*
X-26490Y7928D01*
X-26400Y8064D01*
X-18552Y15912D01*
X-18422Y16000D01*
X-18268Y16030D01*
X306D01*
X622Y16060D01*
X906Y16148D01*
X1168Y16288D01*
X1414Y16488D01*
X2400Y17474D01*
X2530Y17562D01*
X2682Y17592D01*
X38416D01*
X38578Y17558D01*
X38712Y17462D01*
X38796Y17320D01*
X38814Y17158D01*
X38768Y17000D01*
X38598Y16692D01*
X38406Y16190D01*
X38280Y15668D01*
X38228Y15134D01*
X38246Y14598D01*
X38334Y14068D01*
X38494Y13556D01*
X38720Y13068D01*
X38914Y12766D01*
X38972Y12606D01*
X38960Y12436D01*
X38878Y12288D01*
X38742Y12186D01*
X38576Y12150D01*
X-14154D01*
X-14470Y12118D01*
X-14754Y12032D01*
X-15016Y11892D01*
X-15262Y11690D01*
X-28554Y-01602D01*
X-28682Y-01688D01*
X-28834Y-01720D01*
X-28984Y-01692D01*
X-29300Y-01566D01*
X-29854Y-01424D01*
X-30422Y-01352D01*
X-30996D01*
X-31564Y-01424D01*
X-32118Y-01566D01*
X-32652Y-01778D01*
X-33154Y-02054D01*
X-33618Y-02390D01*
X-34034Y-02782D01*
X-34400Y-03224D01*
X-34708Y-03708D01*
X-34952Y-04226D01*
X-35128Y-04772D01*
X-35236Y-05334D01*
X-35272Y-05906D01*
X-35236Y-06478D01*
X-35128Y-07040D01*
X-34952Y-07586D01*
X-34708Y-08104D01*
X-34400Y-08588D01*
X-34034Y-09030D01*
X-33618Y-09422D01*
X-33154Y-09758D01*
X-32652Y-10034D01*
X-32118Y-10246D01*
X-31564Y-10388D01*
X-30996Y-10460D01*
X-30422D01*
X-29854Y-10388D01*
X-29300Y-10246D01*
X-28766Y-10034D01*
X-28264Y-09758D01*
X-27800Y-09422D01*
X-27384Y-09030D01*
X-27018Y-08588D01*
X-26710Y-08104D01*
X-26466Y-07586D01*
X-26290Y-07040D01*
X-26182Y-06478D01*
X-26146Y-05906D01*
X-26182Y-05334D01*
X-26290Y-04772D01*
X-26466Y-04226D01*
X-26518Y-04042D01*
X-26490Y-03882D01*
X-26400Y-03746D01*
X-13660Y8992D01*
X-13530Y9080D01*
X-13378Y9110D01*
X26622D01*
X26788Y9074D01*
X26924Y8972D01*
X27006Y8824D01*
X27018Y8654D01*
X26960Y8496D01*
X26710Y8104D01*
X26466Y7584D01*
X26290Y7040D01*
X26182Y6476D01*
X26146Y5904D01*
X26182Y5334D01*
X26290Y4770D01*
X26466Y4226D01*
X26710Y3706D01*
X27018Y3224D01*
X27384Y2782D01*
X27800Y2390D01*
X28264Y2052D01*
X28766Y1776D01*
X29300Y1566D01*
X29854Y1424D01*
X30422Y1352D01*
X30996D01*
X31564Y1424D01*
X32118Y1566D01*
X32652Y1776D01*
X33154Y2052D01*
X33618Y2390D01*
X34034Y2782D01*
X34400Y3224D01*
X34708Y3706D01*
X34952Y4226D01*
X35128Y4770D01*
X35236Y5334D01*
X35272Y5904D01*
X35236Y6476D01*
X35128Y7040D01*
X34952Y7584D01*
X34708Y8104D01*
X34458Y8496D01*
X34400Y8654D01*
X34412Y8824D01*
X34494Y8972D01*
X34630Y9074D01*
X34796Y9110D01*
X39854D01*
X40022Y9072D01*
X40160Y8968D01*
X40240Y8816D01*
X40248Y8644D01*
X40184Y8484D01*
X40058Y8366D01*
X39970Y8314D01*
X39548Y7980D01*
X39174Y7594D01*
X38856Y7162D01*
X38598Y6692D01*
X38406Y6190D01*
X38280Y5668D01*
X38228Y5134D01*
X38246Y4598D01*
X38334Y4068D01*
X38494Y3556D01*
X38720Y3068D01*
X39008Y2616D01*
X39356Y2206D01*
X39754Y1846D01*
X40196Y1542D01*
X40676Y1300D01*
X41182Y1124D01*
X41708Y1016D01*
X42244Y980D01*
X42780Y1016D01*
X43306Y1124D01*
X43814Y1300D01*
X44292Y1542D01*
X44734Y1846D01*
X45134Y2206D01*
X45480Y2616D01*
X45768Y3068D01*
X45994Y3556D01*
X46154Y4068D01*
X46244Y4598D01*
X46260Y5134D01*
X46208Y5668D01*
X46082Y6190D01*
X45890Y6692D01*
X45632Y7162D01*
X45314Y7594D01*
X44940Y7980D01*
X44518Y8314D01*
X44430Y8366D01*
X44304Y8484D01*
X44240Y8644D01*
X44248Y8816D01*
X44328Y8968D01*
X44466Y9072D01*
X44634Y9110D01*
X47854D01*
X48170Y9140D01*
X48454Y9228D01*
X48718Y9368D01*
X48962Y9568D01*
X50512Y11118D01*
X50634Y11202D01*
X50778Y11234D01*
X50926Y11212D01*
X51182Y11124D01*
X51708Y11016D01*
X52244Y10980D01*
X52780Y11016D01*
X53306Y11124D01*
X53814Y11300D01*
X54292Y11542D01*
X54542Y11714D01*
X54702Y11778D01*
X54874Y11770D01*
X55026Y11688D01*
X55130Y11552D01*
X55168Y11384D01*
Y10240D01*
X55138Y10086D01*
X55050Y9956D01*
X53984Y8890D01*
X53870Y8810D01*
X53734Y8774D01*
X53594Y8786D01*
X53044Y8938D01*
X52512Y9010D01*
X51976D01*
X51444Y8938D01*
X50926Y8796D01*
X50432Y8588D01*
X49970Y8314D01*
X49548Y7980D01*
X49174Y7594D01*
X48856Y7162D01*
X48598Y6692D01*
X48406Y6190D01*
X48280Y5668D01*
X48228Y5134D01*
X48246Y4598D01*
X48334Y4068D01*
X48494Y3556D01*
X48720Y3068D01*
X49008Y2616D01*
X49356Y2206D01*
X49754Y1846D01*
X50196Y1542D01*
X50676Y1300D01*
X51182Y1124D01*
X51708Y1016D01*
X52244Y980D01*
X52780Y1016D01*
X53306Y1124D01*
X53814Y1300D01*
X54292Y1542D01*
X54734Y1846D01*
X55134Y2206D01*
X55480Y2616D01*
X55768Y3068D01*
X55994Y3556D01*
X56154Y4068D01*
X56244Y4598D01*
X56260Y5134D01*
X56208Y5668D01*
X56082Y6190D01*
X56038Y6308D01*
X56010Y6458D01*
X56042Y6608D01*
X56128Y6734D01*
X57358Y7964D01*
X57486Y8050D01*
X57640Y8080D01*
X57794Y8050D01*
X57922Y7964D01*
X58010Y7834D01*
X58040Y7680D01*
Y-35980D01*
X58010Y-36134D01*
X57922Y-36262D01*
X57794Y-36350D01*
X57640Y-36380D01*
G37*
%LPC*%
G36*
X48548Y-35432D02*
X49214Y-35468D01*
X49878Y-35432D01*
X50534Y-35320D01*
X51176Y-35136D01*
X51790Y-34880D01*
X52374Y-34558D01*
X52916Y-34172D01*
X53414Y-33728D01*
X53858Y-33232D01*
X54244Y-32688D01*
X54566Y-32106D01*
X54820Y-31490D01*
X55004Y-30850D01*
X55116Y-30194D01*
X55154Y-29528D01*
X55116Y-28862D01*
X55004Y-28206D01*
X54820Y-27566D01*
X54566Y-26950D01*
X54244Y-26368D01*
X53858Y-25824D01*
X53414Y-25328D01*
X52916Y-24884D01*
X52374Y-24498D01*
X51790Y-24176D01*
X51176Y-23920D01*
X50534Y-23736D01*
X49878Y-23624D01*
X49214Y-23588D01*
X48548Y-23624D01*
X47892Y-23736D01*
X47250Y-23920D01*
X46636Y-24176D01*
X46052Y-24498D01*
X45510Y-24884D01*
X45012Y-25328D01*
X44568Y-25824D01*
X44182Y-26368D01*
X43860Y-26950D01*
X43606Y-27566D01*
X43422Y-28206D01*
X43310Y-28862D01*
X43272Y-29528D01*
X43310Y-30194D01*
X43422Y-30850D01*
X43606Y-31490D01*
X43860Y-32106D01*
X44182Y-32688D01*
X44568Y-33232D01*
X45012Y-33728D01*
X45510Y-34172D01*
X46052Y-34558D01*
X46636Y-34880D01*
X47250Y-35136D01*
X47892Y-35320D01*
X48548Y-35432D01*
G37*
G36*
X-49878Y-35432D02*
X-49212Y-35468D01*
X-48548Y-35432D01*
X-47892Y-35320D01*
X-47250Y-35136D01*
X-46636Y-34880D01*
X-46052Y-34558D01*
X-45510Y-34172D01*
X-45012Y-33728D01*
X-44568Y-33232D01*
X-44182Y-32688D01*
X-43860Y-32106D01*
X-43606Y-31490D01*
X-43422Y-30850D01*
X-43310Y-30194D01*
X-43272Y-29528D01*
X-43310Y-28862D01*
X-43422Y-28206D01*
X-43606Y-27566D01*
X-43860Y-26950D01*
X-44182Y-26368D01*
X-44568Y-25824D01*
X-45012Y-25328D01*
X-45510Y-24884D01*
X-46052Y-24498D01*
X-46636Y-24176D01*
X-47250Y-23920D01*
X-47892Y-23736D01*
X-48548Y-23624D01*
X-49212Y-23588D01*
X-49878Y-23624D01*
X-50534Y-23736D01*
X-51176Y-23920D01*
X-51790Y-24176D01*
X-52374Y-24498D01*
X-52916Y-24884D01*
X-53414Y-25328D01*
X-53858Y-25824D01*
X-54244Y-26368D01*
X-54566Y-26950D01*
X-54820Y-27566D01*
X-55004Y-28206D01*
X-55116Y-28862D01*
X-55154Y-29528D01*
X-55116Y-30194D01*
X-55004Y-30850D01*
X-54820Y-31490D01*
X-54566Y-32106D01*
X-54244Y-32688D01*
X-53858Y-33232D01*
X-53414Y-33728D01*
X-52916Y-34172D01*
X-52374Y-34558D01*
X-51790Y-34880D01*
X-51176Y-35136D01*
X-50534Y-35320D01*
X-49878Y-35432D01*
G37*
G36*
X-06760Y-35190D02*
X-06192Y-35262D01*
X-05618D01*
X-05050Y-35190D01*
X-04496Y-35048D01*
X-03962Y-34838D01*
X-03460Y-34562D01*
X-02996Y-34224D01*
X-02580Y-33832D01*
X-02214Y-33390D01*
X-01906Y-32908D01*
X-01662Y-32388D01*
X-01486Y-31844D01*
X-01378Y-31280D01*
X-01342Y-30710D01*
X-01378Y-30138D01*
X-01486Y-29574D01*
X-01662Y-29030D01*
X-01906Y-28510D01*
X-02214Y-28028D01*
X-02580Y-27586D01*
X-02996Y-27194D01*
X-03460Y-26856D01*
X-03962Y-26580D01*
X-04496Y-26370D01*
X-05050Y-26228D01*
X-05618Y-26156D01*
X-06192D01*
X-06760Y-26228D01*
X-07314Y-26370D01*
X-07848Y-26580D01*
X-08350Y-26856D01*
X-08814Y-27194D01*
X-09230Y-27586D01*
X-09596Y-28028D01*
X-09904Y-28510D01*
X-10148Y-29030D01*
X-10324Y-29574D01*
X-10432Y-30138D01*
X-10468Y-30710D01*
X-10432Y-31280D01*
X-10324Y-31844D01*
X-10148Y-32388D01*
X-09904Y-32908D01*
X-09596Y-33390D01*
X-09230Y-33832D01*
X-08814Y-34224D01*
X-08350Y-34562D01*
X-07848Y-34838D01*
X-07314Y-35048D01*
X-06760Y-35190D01*
G37*
G36*
X5958Y-29502D02*
Y-31564D01*
X6382Y-31332D01*
X6846Y-30996D01*
X7262Y-30604D01*
X7628Y-30162D01*
X7936Y-29678D01*
X8018Y-29502D01*
X5958D01*
G37*
G36*
X1492Y-31332D02*
X1916Y-31564D01*
Y-29502D01*
X-00144D01*
X-00062Y-29678D01*
X246Y-30162D01*
X612Y-30604D01*
X1028Y-30996D01*
X1492Y-31332D01*
G37*
G36*
X-00062Y-25282D02*
X-00144Y-25458D01*
X1916D01*
Y-23396D01*
X1492Y-23628D01*
X1028Y-23964D01*
X612Y-24356D01*
X246Y-24798D01*
X-00062Y-25282D01*
G37*
G36*
X5958Y-23396D02*
Y-25458D01*
X8018D01*
X7936Y-25282D01*
X7628Y-24798D01*
X7262Y-24356D01*
X6846Y-23964D01*
X6382Y-23628D01*
X5958Y-23396D01*
G37*
G36*
X51708Y-18984D02*
X52244Y-19020D01*
X52780Y-18984D01*
X53306Y-18876D01*
X53814Y-18700D01*
X54292Y-18458D01*
X54734Y-18154D01*
X55134Y-17794D01*
X55480Y-17384D01*
X55768Y-16932D01*
X55994Y-16444D01*
X56154Y-15932D01*
X56244Y-15402D01*
X56260Y-14866D01*
X56208Y-14332D01*
X56082Y-13810D01*
X55890Y-13308D01*
X55632Y-12838D01*
X55314Y-12406D01*
X54940Y-12020D01*
X54518Y-11686D01*
X54056Y-11412D01*
X53562Y-11204D01*
X53044Y-11062D01*
X52512Y-10990D01*
X51976D01*
X51444Y-11062D01*
X50926Y-11204D01*
X50432Y-11412D01*
X49970Y-11686D01*
X49548Y-12020D01*
X49174Y-12406D01*
X48856Y-12838D01*
X48598Y-13308D01*
X48406Y-13810D01*
X48280Y-14332D01*
X48228Y-14866D01*
X48246Y-15402D01*
X48334Y-15932D01*
X48494Y-16444D01*
X48720Y-16932D01*
X49008Y-17384D01*
X49356Y-17794D01*
X49754Y-18154D01*
X50196Y-18458D01*
X50676Y-18700D01*
X51182Y-18876D01*
X51708Y-18984D01*
G37*
G36*
X29030Y-16786D02*
Y-18848D01*
X29452Y-18616D01*
X29916Y-18280D01*
X30334Y-17888D01*
X30700Y-17446D01*
X31006Y-16962D01*
X31090Y-16786D01*
X29030D01*
G37*
G36*
X24564Y-18616D02*
X24986Y-18848D01*
Y-16786D01*
X22926D01*
X23010Y-16962D01*
X23316Y-17446D01*
X23682Y-17888D01*
X24100Y-18280D01*
X24564Y-18616D01*
G37*
G36*
X40196Y-18458D02*
X40494Y-18608D01*
Y-16750D01*
X38636D01*
X38720Y-16932D01*
X39008Y-17384D01*
X39356Y-17794D01*
X39754Y-18154D01*
X40196Y-18458D01*
G37*
G36*
X43994Y-16750D02*
Y-18608D01*
X44292Y-18458D01*
X44734Y-18154D01*
X45134Y-17794D01*
X45480Y-17384D01*
X45768Y-16932D01*
X45852Y-16750D01*
X43994D01*
G37*
G36*
X38856Y-12838D02*
X38630Y-13250D01*
X40494D01*
Y-11408D01*
X40524Y-11256D01*
X40612Y-11126D01*
X40742Y-11038D01*
X40894Y-11008D01*
X43594D01*
X43748Y-11038D01*
X43876Y-11126D01*
X43964Y-11256D01*
X43994Y-11408D01*
Y-13250D01*
X45858D01*
X45632Y-12838D01*
X45314Y-12406D01*
X44940Y-12020D01*
X44564Y-11722D01*
X44458Y-11596D01*
X44412Y-11440D01*
X44434Y-11276D01*
X44518Y-11136D01*
X44652Y-11042D01*
X44812Y-11008D01*
X47736D01*
X48052Y-10978D01*
X48336Y-10890D01*
X48600Y-10750D01*
X48844Y-10550D01*
X50512Y-08882D01*
X50634Y-08798D01*
X50778Y-08766D01*
X50926Y-08788D01*
X51182Y-08876D01*
X51708Y-08984D01*
X52244Y-09020D01*
X52780Y-08984D01*
X53306Y-08876D01*
X53814Y-08700D01*
X54292Y-08458D01*
X54734Y-08154D01*
X55134Y-07794D01*
X55480Y-07384D01*
X55768Y-06932D01*
X55994Y-06444D01*
X56154Y-05932D01*
X56244Y-05402D01*
X56260Y-04866D01*
X56208Y-04332D01*
X56082Y-03810D01*
X55890Y-03308D01*
X55632Y-02838D01*
X55314Y-02406D01*
X54940Y-02020D01*
X54518Y-01686D01*
X54056Y-01412D01*
X53562Y-01204D01*
X53044Y-01062D01*
X52512Y-00990D01*
X51976D01*
X51444Y-01062D01*
X50926Y-01204D01*
X50432Y-01412D01*
X49970Y-01686D01*
X49548Y-02020D01*
X49174Y-02406D01*
X48856Y-02838D01*
X48598Y-03308D01*
X48406Y-03810D01*
X48280Y-04332D01*
X48228Y-04866D01*
X48246Y-05402D01*
X48334Y-05932D01*
X48460Y-06334D01*
X48476Y-06476D01*
X48442Y-06616D01*
X48360Y-06734D01*
X47244Y-07850D01*
X47114Y-07938D01*
X46960Y-07968D01*
X45836D01*
X45670Y-07932D01*
X45534Y-07830D01*
X45454Y-07682D01*
X45440Y-07512D01*
X45500Y-07352D01*
X45768Y-06932D01*
X45994Y-06444D01*
X46154Y-05932D01*
X46244Y-05402D01*
X46260Y-04866D01*
X46208Y-04332D01*
X46082Y-03810D01*
X45890Y-03308D01*
X45632Y-02838D01*
X45314Y-02406D01*
X44940Y-02020D01*
X44518Y-01686D01*
X44056Y-01412D01*
X43562Y-01204D01*
X43044Y-01062D01*
X42512Y-00990D01*
X41976D01*
X41444Y-01062D01*
X40926Y-01204D01*
X40432Y-01412D01*
X39970Y-01686D01*
X39548Y-02020D01*
X39174Y-02406D01*
X38856Y-02838D01*
X38598Y-03308D01*
X38406Y-03810D01*
X38280Y-04332D01*
X38228Y-04866D01*
X38246Y-05402D01*
X38334Y-05932D01*
X38494Y-06444D01*
X38720Y-06932D01*
X38988Y-07352D01*
X39048Y-07512D01*
X39034Y-07682D01*
X38954Y-07830D01*
X38818Y-07932D01*
X38652Y-07968D01*
X35378D01*
X35230Y-07940D01*
X35104Y-07860D01*
X35016Y-07738D01*
X34978Y-07594D01*
X34996Y-07444D01*
X35128Y-07040D01*
X35236Y-06478D01*
X35272Y-05906D01*
X35236Y-05334D01*
X35128Y-04772D01*
X34952Y-04226D01*
X34708Y-03708D01*
X34400Y-03224D01*
X34034Y-02782D01*
X33618Y-02390D01*
X33154Y-02054D01*
X32652Y-01778D01*
X32118Y-01566D01*
X31564Y-01424D01*
X30996Y-01352D01*
X30422D01*
X29854Y-01424D01*
X29300Y-01566D01*
X28766Y-01778D01*
X28264Y-02054D01*
X27800Y-02390D01*
X27384Y-02782D01*
X27018Y-03224D01*
X26710Y-03708D01*
X26466Y-04226D01*
X26290Y-04772D01*
X26182Y-05334D01*
X26146Y-05906D01*
X26182Y-06478D01*
X26290Y-07040D01*
X26466Y-07586D01*
X26710Y-08104D01*
X27018Y-08588D01*
X27384Y-09030D01*
X27800Y-09422D01*
X28264Y-09758D01*
X28776Y-10038D01*
X28910Y-10124D01*
X28998Y-10256D01*
X29030Y-10410D01*
Y-12742D01*
X31090D01*
X31006Y-12566D01*
X30700Y-12082D01*
X30334Y-11640D01*
X29916Y-11248D01*
X29756Y-11132D01*
X29640Y-11000D01*
X29592Y-10834D01*
X29618Y-10660D01*
X29716Y-10516D01*
X29868Y-10428D01*
X30040Y-10412D01*
X30422Y-10460D01*
X30996D01*
X31564Y-10388D01*
X32118Y-10246D01*
X32434Y-10120D01*
X32584Y-10092D01*
X32736Y-10124D01*
X32864Y-10210D01*
X33202Y-10550D01*
X33448Y-10750D01*
X33710Y-10890D01*
X33994Y-10978D01*
X34310Y-11008D01*
X39676D01*
X39836Y-11042D01*
X39970Y-11136D01*
X40054Y-11276D01*
X40076Y-11440D01*
X40030Y-11596D01*
X39924Y-11722D01*
X39548Y-12020D01*
X39174Y-12406D01*
X38856Y-12838D01*
G37*
G36*
X23010Y-12566D02*
X22926Y-12742D01*
X24986D01*
Y-10680D01*
X24564Y-10912D01*
X24100Y-11248D01*
X23682Y-11640D01*
X23316Y-12082D01*
X23010Y-12566D01*
G37*
G36*
X-15336Y-09464D02*
X-14836Y-09482D01*
X-14340Y-09430D01*
X-13856Y-09310D01*
X-13392Y-09122D01*
X-12960Y-08872D01*
X-12566Y-08566D01*
X-12220Y-08206D01*
X-11926Y-07802D01*
X-11692Y-07362D01*
X-11522Y-06892D01*
X-11418Y-06404D01*
X-11382Y-05906D01*
X-11418Y-05408D01*
X-11522Y-04920D01*
X-11692Y-04450D01*
X-11926Y-04010D01*
X-12220Y-03606D01*
X-12566Y-03246D01*
X-12960Y-02940D01*
X-13392Y-02690D01*
X-13856Y-02504D01*
X-14340Y-02382D01*
X-14836Y-02330D01*
X-15336Y-02348D01*
X-15826Y-02434D01*
X-16302Y-02588D01*
X-16750Y-02808D01*
X-17164Y-03086D01*
X-17534Y-03420D01*
X-17856Y-03802D01*
X-18120Y-04226D01*
X-18324Y-04682D01*
X-18460Y-05162D01*
X-18530Y-05656D01*
Y-06156D01*
X-18460Y-06650D01*
X-18324Y-07130D01*
X-18120Y-07586D01*
X-17856Y-08010D01*
X-17534Y-08392D01*
X-17164Y-08726D01*
X-16750Y-09004D01*
X-16302Y-09224D01*
X-15826Y-09378D01*
X-15336Y-09464D01*
G37*
G36*
X-49878Y23624D02*
X-49212Y23588D01*
X-48548Y23624D01*
X-47892Y23736D01*
X-47250Y23920D01*
X-46636Y24176D01*
X-46052Y24498D01*
X-45510Y24884D01*
X-45012Y25328D01*
X-44568Y25824D01*
X-44182Y26368D01*
X-43860Y26950D01*
X-43606Y27566D01*
X-43422Y28206D01*
X-43310Y28862D01*
X-43272Y29528D01*
X-43310Y30194D01*
X-43422Y30850D01*
X-43606Y31490D01*
X-43860Y32106D01*
X-44182Y32688D01*
X-44568Y33232D01*
X-45012Y33728D01*
X-45510Y34172D01*
X-46052Y34558D01*
X-46636Y34880D01*
X-47250Y35136D01*
X-47892Y35320D01*
X-48548Y35432D01*
X-49212Y35468D01*
X-49878Y35432D01*
X-50534Y35320D01*
X-51176Y35136D01*
X-51790Y34880D01*
X-52374Y34558D01*
X-52916Y34172D01*
X-53414Y33728D01*
X-53858Y33232D01*
X-54244Y32688D01*
X-54566Y32106D01*
X-54820Y31490D01*
X-55004Y30850D01*
X-55116Y30194D01*
X-55154Y29528D01*
X-55116Y28862D01*
X-55004Y28206D01*
X-54820Y27566D01*
X-54566Y26950D01*
X-54244Y26368D01*
X-53858Y25824D01*
X-53414Y25328D01*
X-52916Y24884D01*
X-52374Y24498D01*
X-51790Y24176D01*
X-51176Y23920D01*
X-50534Y23736D01*
X-49878Y23624D01*
G37*
G36*
X48548Y23624D02*
X49214Y23588D01*
X49878Y23624D01*
X50534Y23736D01*
X51176Y23920D01*
X51790Y24176D01*
X52374Y24498D01*
X52916Y24884D01*
X53414Y25328D01*
X53858Y25824D01*
X54244Y26368D01*
X54566Y26950D01*
X54820Y27566D01*
X55004Y28206D01*
X55116Y28862D01*
X55154Y29528D01*
X55116Y30194D01*
X55004Y30850D01*
X54820Y31490D01*
X54566Y32106D01*
X54244Y32688D01*
X53858Y33232D01*
X53414Y33728D01*
X52916Y34172D01*
X52374Y34558D01*
X51790Y34880D01*
X51176Y35136D01*
X50534Y35320D01*
X49878Y35432D01*
X49214Y35468D01*
X48548Y35432D01*
X47892Y35320D01*
X47250Y35136D01*
X46636Y34880D01*
X46052Y34558D01*
X45510Y34172D01*
X45012Y33728D01*
X44568Y33232D01*
X44182Y32688D01*
X43860Y32106D01*
X43606Y31490D01*
X43422Y30850D01*
X43310Y30194D01*
X43272Y29528D01*
X43310Y28862D01*
X43422Y28206D01*
X43606Y27566D01*
X43860Y26950D01*
X44182Y26368D01*
X44568Y25824D01*
X45012Y25328D01*
X45510Y24884D01*
X46052Y24498D01*
X46636Y24176D01*
X47250Y23920D01*
X47892Y23736D01*
X48548Y23624D01*
G37*
G36*
X5052Y26228D02*
X5620Y26156D01*
X6192D01*
X6760Y26228D01*
X7316Y26370D01*
X7848Y26580D01*
X8350Y26856D01*
X8814Y27194D01*
X9232Y27586D01*
X9598Y28028D01*
X9904Y28510D01*
X10148Y29030D01*
X10326Y29574D01*
X10432Y30138D01*
X10468Y30708D01*
X10432Y31280D01*
X10326Y31844D01*
X10148Y32388D01*
X9904Y32908D01*
X9598Y33390D01*
X9232Y33832D01*
X8814Y34224D01*
X8350Y34562D01*
X7848Y34838D01*
X7316Y35048D01*
X6760Y35190D01*
X6192Y35262D01*
X5620D01*
X5052Y35190D01*
X4496Y35048D01*
X3964Y34838D01*
X3462Y34562D01*
X2998Y34224D01*
X2580Y33832D01*
X2214Y33390D01*
X1908Y32908D01*
X1664Y32388D01*
X1486Y31844D01*
X1380Y31280D01*
X1344Y30708D01*
X1380Y30138D01*
X1486Y29574D01*
X1664Y29030D01*
X1908Y28510D01*
X2214Y28028D01*
X2580Y27586D01*
X2998Y27194D01*
X3462Y26856D01*
X3964Y26580D01*
X4496Y26370D01*
X5052Y26228D01*
G37*
G36*
X-08350Y26856D02*
X-07926Y26624D01*
Y28688D01*
X-09986D01*
X-09904Y28510D01*
X-09596Y28028D01*
X-09230Y27586D01*
X-08814Y27194D01*
X-08350Y26856D01*
G37*
G36*
X-09904Y32908D02*
X-09986Y32730D01*
X-07926D01*
Y34794D01*
X-08350Y34562D01*
X-08814Y34224D01*
X-09230Y33832D01*
X-09596Y33390D01*
X-09904Y32908D01*
G37*
G36*
X-03884Y34794D02*
Y32730D01*
X-01824D01*
X-01906Y32908D01*
X-02214Y33390D01*
X-02580Y33832D01*
X-02996Y34224D01*
X-03460Y34562D01*
X-03884Y34794D01*
G37*
%LPD*%
G54D10*
X42244Y-15000D02*
G01X27244D01*
X27008Y-14764D01*
X52244Y-05000D02*
X47756Y-09488D01*
X34291D01*
X30709Y-05906D01*
X52244Y5000D02*
X56688Y9444D01*
Y16415D01*
X53991Y19112D01*
X1887D01*
X325Y17550D01*
X-19064D01*
X-30709Y5905D01*
X52244Y15000D02*
X47874Y10630D01*
X-14173D01*
X-30709Y-05906D01*
G54D12*
X42244Y-15000D03*
X52244D03*
X42244Y-05000D03*
X52244D03*
X42244Y5000D03*
X52244D03*
X42244Y15000D03*
X52244D03*
G54D13*
X-05905Y-30709D03*
X3937Y-27480D03*
X30709Y-05906D03*
Y5905D03*
X5906Y30709D03*
X-05905D03*
X-03937Y22756D03*
X-30709Y5905D03*
Y-05906D03*
X27008Y-14764D03*
M02*
