M48
;FILE_FORMAT=2:5
INCH,TZ
T1F00S00C0.03937
T2F00S00C0.06697
%
T1
X95551Y25433
Y45433
Y35433
X85551Y25433
Y35433
Y45433
X41339Y65945
X21654
X31496
X21654Y08858
X41339
X99213Y65945
X79528
X89370
X79528Y08858
X99213
T2
X09843Y38583G85X09843Y34252
X53150Y38583G85X53150Y34252
X67717Y38583G85X67717Y34252
X111024Y38583G85X111024Y34252
M30
