%FSLAX25Y25*%
%MOIN*%
%ADD17C,0.09842520*%
%ADD18C,0.07480315*%
%ADD20C,0.11811024*%
%IPPOS*%
G75*
G54D18*
X95551Y25433D03*
Y45433D03*
Y35433D03*
G36*
X89450Y21690D02*
G01X81650D01*
Y29170D01*
X89450D01*
Y21690D01*
G37*
G54D18*
X85551Y35433D03*
Y45433D03*
X41338Y65945D03*
X21653D03*
X31496D03*
X21653Y8858D03*
X41338D03*
X99212Y65945D03*
X79527D03*
X89370D03*
X79527Y8858D03*
X99212D03*
G36*
X9842Y29133D02*
G01X10151Y29143D01*
X10459Y29172D01*
X10764Y29221D01*
X11066Y29288D01*
X11363Y29374D01*
X11654Y29479D01*
X11937Y29602D01*
X12213Y29742D01*
X12479Y29900D01*
X12735Y30073D01*
X12979Y30263D01*
X13211Y30467D01*
X13429Y30686D01*
X13634Y30918D01*
X13823Y31162D01*
X13997Y31418D01*
X14155Y31684D01*
X14295Y31959D01*
X14418Y32243D01*
X14522Y32534D01*
X14609Y32831D01*
X14676Y33133D01*
X14724Y33438D01*
X14754Y33746D01*
X14763Y34055D01*
Y38779D01*
X14754Y39088D01*
X14724Y39396D01*
X14676Y39701D01*
X14609Y40003D01*
X14522Y40300D01*
X14418Y40591D01*
X14295Y40875D01*
X14155Y41150D01*
X13997Y41416D01*
X13823Y41672D01*
X13634Y41916D01*
X13429Y42148D01*
X13211Y42367D01*
X12979Y42571D01*
X12735Y42761D01*
X12479Y42934D01*
X12213Y43092D01*
X11937Y43232D01*
X11654Y43355D01*
X11363Y43460D01*
X11066Y43546D01*
X10764Y43613D01*
X10459Y43662D01*
X10151Y43691D01*
X9842Y43700D01*
X9533Y43691D01*
X9225Y43662D01*
X8920Y43613D01*
X8618Y43546D01*
X8321Y43460D01*
X8030Y43355D01*
X7747Y43232D01*
X7471Y43092D01*
X7205Y42934D01*
X6949Y42761D01*
X6705Y42571D01*
X6473Y42367D01*
X6255Y42148D01*
X6050Y41916D01*
X5861Y41672D01*
X5687Y41416D01*
X5529Y41150D01*
X5389Y40875D01*
X5266Y40591D01*
X5162Y40300D01*
X5075Y40003D01*
X5008Y39701D01*
X4960Y39396D01*
X4930Y39088D01*
X4921Y38779D01*
Y34055D01*
X4930Y33746D01*
X4960Y33438D01*
X5008Y33133D01*
X5075Y32831D01*
X5162Y32534D01*
X5266Y32243D01*
X5389Y31959D01*
X5529Y31684D01*
X5687Y31418D01*
X5861Y31162D01*
X6050Y30918D01*
X6255Y30686D01*
X6473Y30467D01*
X6705Y30263D01*
X6949Y30073D01*
X7205Y29900D01*
X7471Y29742D01*
X7747Y29602D01*
X8030Y29479D01*
X8321Y29374D01*
X8618Y29288D01*
X8920Y29221D01*
X9225Y29172D01*
X9533Y29143D01*
X9842Y29133D01*
G37*
G36*
X53149Y29133D02*
X53458Y29143D01*
X53766Y29172D01*
X54071Y29221D01*
X54373Y29288D01*
X54670Y29374D01*
X54961Y29479D01*
X55244Y29602D01*
X55520Y29742D01*
X55786Y29900D01*
X56042Y30073D01*
X56286Y30263D01*
X56518Y30467D01*
X56736Y30686D01*
X56941Y30918D01*
X57130Y31162D01*
X57304Y31418D01*
X57462Y31684D01*
X57602Y31959D01*
X57725Y32243D01*
X57829Y32534D01*
X57916Y32831D01*
X57983Y33133D01*
X58031Y33438D01*
X58061Y33746D01*
X58070Y34055D01*
Y38779D01*
X58061Y39088D01*
X58031Y39396D01*
X57983Y39701D01*
X57916Y40003D01*
X57829Y40300D01*
X57725Y40591D01*
X57602Y40875D01*
X57462Y41150D01*
X57304Y41416D01*
X57130Y41672D01*
X56941Y41916D01*
X56736Y42148D01*
X56518Y42367D01*
X56286Y42571D01*
X56042Y42761D01*
X55786Y42934D01*
X55520Y43092D01*
X55244Y43232D01*
X54961Y43355D01*
X54670Y43460D01*
X54373Y43546D01*
X54071Y43613D01*
X53766Y43662D01*
X53458Y43691D01*
X53149Y43700D01*
X52840Y43691D01*
X52532Y43662D01*
X52227Y43613D01*
X51925Y43546D01*
X51628Y43460D01*
X51337Y43355D01*
X51054Y43232D01*
X50778Y43092D01*
X50512Y42934D01*
X50256Y42761D01*
X50012Y42571D01*
X49780Y42367D01*
X49562Y42148D01*
X49357Y41916D01*
X49168Y41672D01*
X48994Y41416D01*
X48836Y41150D01*
X48696Y40875D01*
X48573Y40591D01*
X48469Y40300D01*
X48382Y40003D01*
X48315Y39701D01*
X48267Y39396D01*
X48237Y39088D01*
X48228Y38779D01*
Y34055D01*
X48237Y33746D01*
X48267Y33438D01*
X48315Y33133D01*
X48382Y32831D01*
X48469Y32534D01*
X48573Y32243D01*
X48696Y31959D01*
X48836Y31684D01*
X48994Y31418D01*
X49168Y31162D01*
X49357Y30918D01*
X49562Y30686D01*
X49780Y30467D01*
X50012Y30263D01*
X50256Y30073D01*
X50512Y29900D01*
X50778Y29742D01*
X51054Y29602D01*
X51337Y29479D01*
X51628Y29374D01*
X51925Y29288D01*
X52227Y29221D01*
X52532Y29172D01*
X52840Y29143D01*
X53149Y29133D01*
G37*
G36*
X67716Y29133D02*
X68025Y29143D01*
X68333Y29172D01*
X68638Y29221D01*
X68940Y29288D01*
X69237Y29374D01*
X69528Y29479D01*
X69811Y29602D01*
X70087Y29742D01*
X70353Y29900D01*
X70609Y30073D01*
X70853Y30263D01*
X71085Y30467D01*
X71303Y30686D01*
X71508Y30918D01*
X71697Y31162D01*
X71871Y31418D01*
X72029Y31684D01*
X72169Y31959D01*
X72292Y32243D01*
X72396Y32534D01*
X72483Y32831D01*
X72550Y33133D01*
X72598Y33438D01*
X72628Y33746D01*
X72637Y34055D01*
Y38779D01*
X72628Y39088D01*
X72598Y39396D01*
X72550Y39701D01*
X72483Y40003D01*
X72396Y40300D01*
X72292Y40591D01*
X72169Y40875D01*
X72029Y41150D01*
X71871Y41416D01*
X71697Y41672D01*
X71508Y41916D01*
X71303Y42148D01*
X71085Y42367D01*
X70853Y42571D01*
X70609Y42761D01*
X70353Y42934D01*
X70087Y43092D01*
X69811Y43232D01*
X69528Y43355D01*
X69237Y43460D01*
X68940Y43546D01*
X68638Y43613D01*
X68333Y43662D01*
X68025Y43691D01*
X67716Y43700D01*
X67407Y43691D01*
X67099Y43662D01*
X66794Y43613D01*
X66492Y43546D01*
X66195Y43460D01*
X65904Y43355D01*
X65621Y43232D01*
X65345Y43092D01*
X65079Y42934D01*
X64823Y42761D01*
X64579Y42571D01*
X64347Y42367D01*
X64129Y42148D01*
X63924Y41916D01*
X63735Y41672D01*
X63561Y41416D01*
X63404Y41150D01*
X63263Y40875D01*
X63140Y40591D01*
X63036Y40300D01*
X62949Y40003D01*
X62882Y39701D01*
X62834Y39396D01*
X62804Y39088D01*
X62795Y38779D01*
Y34055D01*
X62804Y33746D01*
X62834Y33438D01*
X62882Y33133D01*
X62949Y32831D01*
X63036Y32534D01*
X63140Y32243D01*
X63263Y31959D01*
X63404Y31684D01*
X63561Y31418D01*
X63735Y31162D01*
X63924Y30918D01*
X64129Y30686D01*
X64347Y30467D01*
X64579Y30263D01*
X64823Y30073D01*
X65079Y29900D01*
X65345Y29742D01*
X65621Y29602D01*
X65904Y29479D01*
X66195Y29374D01*
X66492Y29288D01*
X66794Y29221D01*
X67099Y29172D01*
X67407Y29143D01*
X67716Y29133D01*
G37*
G36*
X111023Y29133D02*
X111332Y29143D01*
X111640Y29172D01*
X111945Y29221D01*
X112247Y29288D01*
X112544Y29374D01*
X112835Y29479D01*
X113118Y29602D01*
X113394Y29742D01*
X113660Y29900D01*
X113916Y30073D01*
X114160Y30263D01*
X114392Y30467D01*
X114610Y30686D01*
X114815Y30918D01*
X115004Y31162D01*
X115178Y31418D01*
X115336Y31684D01*
X115476Y31959D01*
X115599Y32243D01*
X115703Y32534D01*
X115790Y32831D01*
X115857Y33133D01*
X115905Y33438D01*
X115935Y33746D01*
X115944Y34055D01*
Y38779D01*
X115935Y39088D01*
X115905Y39396D01*
X115857Y39701D01*
X115790Y40003D01*
X115703Y40300D01*
X115599Y40591D01*
X115476Y40875D01*
X115336Y41150D01*
X115178Y41416D01*
X115004Y41672D01*
X114815Y41916D01*
X114610Y42148D01*
X114392Y42367D01*
X114160Y42571D01*
X113916Y42761D01*
X113660Y42934D01*
X113394Y43092D01*
X113118Y43232D01*
X112835Y43355D01*
X112544Y43460D01*
X112247Y43546D01*
X111945Y43613D01*
X111640Y43662D01*
X111332Y43691D01*
X111023Y43700D01*
X110714Y43691D01*
X110406Y43662D01*
X110101Y43613D01*
X109799Y43546D01*
X109502Y43460D01*
X109211Y43355D01*
X108928Y43232D01*
X108652Y43092D01*
X108386Y42934D01*
X108130Y42761D01*
X107886Y42571D01*
X107654Y42367D01*
X107435Y42148D01*
X107231Y41916D01*
X107042Y41672D01*
X106868Y41416D01*
X106711Y41150D01*
X106570Y40875D01*
X106447Y40591D01*
X106343Y40300D01*
X106256Y40003D01*
X106189Y39701D01*
X106140Y39396D01*
X106111Y39088D01*
X106102Y38779D01*
Y34055D01*
X106111Y33746D01*
X106140Y33438D01*
X106189Y33133D01*
X106256Y32831D01*
X106343Y32534D01*
X106447Y32243D01*
X106570Y31959D01*
X106711Y31684D01*
X106868Y31418D01*
X107042Y31162D01*
X107231Y30918D01*
X107435Y30686D01*
X107654Y30467D01*
X107886Y30263D01*
X108130Y30073D01*
X108386Y29900D01*
X108652Y29742D01*
X108928Y29602D01*
X109211Y29479D01*
X109502Y29374D01*
X109799Y29288D01*
X110101Y29221D01*
X110406Y29172D01*
X110714Y29143D01*
X111023Y29133D01*
G37*
M02*
