%FSLAX25Y25*%
%MOIN*%
%ADD10C,0.01000000*%
%ADD15C,0.00393701*%
%ADD16C,0.00600000*%
%IPPOS*%
G75*
G54D15*
X116996Y6618D02*
G01X116646Y6438D01*
X116286Y6088D01*
X116106Y5728D01*
Y5008D01*
X116286Y4648D01*
X116646Y4298D01*
X116996Y4118D01*
X117536Y3938D01*
X118436D01*
X118966Y4118D01*
X119326Y4298D01*
X119686Y4648D01*
X119866Y5008D01*
Y5728D01*
X119686Y6088D01*
X119326Y6438D01*
X118966Y6618D01*
X118436D01*
Y5728D02*
Y6618D01*
X116826Y7798D02*
X116646Y8158D01*
X116106Y8698D01*
X119866D01*
X116106Y10948D02*
X116286Y10418D01*
X116826Y10058D01*
X117716Y9878D01*
X118256D01*
X119146Y10058D01*
X119686Y10418D01*
X119866Y10948D01*
Y11308D01*
X119686Y11848D01*
X119146Y12208D01*
X118256Y12388D01*
X117716D01*
X116826Y12208D01*
X116286Y11848D01*
X116106Y11308D01*
Y10948D01*
Y14638D02*
X116286Y14098D01*
X116826Y13748D01*
X117716Y13568D01*
X118256D01*
X119146Y13748D01*
X119686Y14098D01*
X119866Y14638D01*
Y14998D01*
X119686Y15538D01*
X119146Y15888D01*
X118256Y16068D01*
X117716D01*
X116826Y15888D01*
X116286Y15538D01*
X116106Y14998D01*
Y14638D01*
Y18328D02*
X116286Y17788D01*
X116826Y17428D01*
X117716Y17248D01*
X118256D01*
X119146Y17428D01*
X119686Y17788D01*
X119866Y18328D01*
Y18678D01*
X119686Y19218D01*
X119146Y19578D01*
X118256Y19758D01*
X117716D01*
X116826Y19578D01*
X116286Y19218D01*
X116106Y18678D01*
Y18328D01*
Y23698D02*
X119866D01*
X116106D02*
Y24948D01*
X116286Y25488D01*
X116646Y25838D01*
X116996Y26018D01*
X117536Y26198D01*
X118436D01*
X118966Y26018D01*
X119326Y25838D01*
X119686Y25488D01*
X119866Y24948D01*
Y23698D01*
X116106Y27378D02*
X119866D01*
X116106D02*
Y29708D01*
X117896Y27378D02*
Y28808D01*
X119866Y27378D02*
Y29708D01*
X116106Y30888D02*
X119866D01*
X116106D02*
X119866Y33388D01*
X116106D02*
X119866D01*
X116996Y37258D02*
X116646Y37078D01*
X116286Y36718D01*
X116106Y36368D01*
Y35648D01*
X116286Y35288D01*
X116646Y34928D01*
X116996Y34748D01*
X117536Y34578D01*
X118436D01*
X118966Y34748D01*
X119326Y34928D01*
X119686Y35288D01*
X119866Y35648D01*
Y36368D01*
X119686Y36718D01*
X119326Y37078D01*
X118966Y37258D01*
X116106Y41198D02*
X119866Y42628D01*
X116106Y44058D02*
X119866Y42628D01*
X116996Y45418D02*
X116826D01*
X116466Y45598D01*
X116286Y45778D01*
X116106Y46138D01*
Y46848D01*
X116286Y47208D01*
X116466Y47388D01*
X116826Y47568D01*
X117176D01*
X117536Y47388D01*
X118076Y47028D01*
X119866Y45238D01*
Y47748D01*
X1217Y46530D02*
X1577Y46170D01*
X2107Y45810D01*
X2827Y45450D01*
X3727Y45280D01*
X4437D01*
X5337Y45450D01*
X6047Y45810D01*
X6587Y46170D01*
X6947Y46530D01*
X3727Y49860D02*
X3367Y49500D01*
X3187Y49140D01*
Y48600D01*
X3367Y48250D01*
X3727Y47890D01*
X4257Y47710D01*
X4617D01*
X5157Y47890D01*
X5507Y48250D01*
X5687Y48600D01*
Y49140D01*
X5507Y49500D01*
X5157Y49860D01*
X1217Y51040D02*
X1577Y51400D01*
X2107Y51750D01*
X2827Y52110D01*
X3727Y52290D01*
X4437D01*
X5337Y52110D01*
X6047Y51750D01*
X6587Y51400D01*
X6947Y51040D01*
X3187Y56230D02*
X5687D01*
X3897D02*
X3367Y56760D01*
X3187Y57120D01*
Y57660D01*
X3367Y58020D01*
X3897Y58200D01*
X5687D01*
X3897D02*
X3367Y58730D01*
X3187Y59090D01*
Y59630D01*
X3367Y59990D01*
X3897Y60160D01*
X5687D01*
X3187Y61350D02*
X5687D01*
X4257D02*
X3727Y61520D01*
X3367Y61880D01*
X3187Y62240D01*
Y62780D01*
Y63960D02*
X4977D01*
X5507Y64140D01*
X5687Y64500D01*
Y65030D01*
X5507Y65390D01*
X4977Y65930D01*
X3187D02*
X5687D01*
X3727Y69080D02*
X3367Y68900D01*
X3187Y68360D01*
Y67820D01*
X3367Y67290D01*
X3727Y67110D01*
X4077Y67290D01*
X4257Y67640D01*
X4437Y68540D01*
X4617Y68900D01*
X4977Y69080D01*
X5157D01*
X5507Y68900D01*
X5687Y68360D01*
Y67820D01*
X5507Y67290D01*
X5157Y67110D01*
X1937Y70260D02*
X5687D01*
X3187Y72050D02*
X4977Y70260D01*
X4257Y70970D02*
X5687Y72230D01*
G54D16*
X12888Y3944D02*
G01X13298Y3534D01*
X13908Y3334D01*
X14728D01*
X15338Y3534D01*
X15748Y3944D01*
Y4354D01*
X15548Y4764D01*
X15338Y4974D01*
X14928Y5174D01*
X13698Y5584D01*
X13298Y5784D01*
X13088Y5994D01*
X12888Y6404D01*
Y7014D01*
X13298Y7424D01*
X13908Y7624D01*
X14728D01*
X15338Y7424D01*
X15748Y7014D01*
X11538Y3334D02*
X10508Y7624D01*
X9488Y3334D02*
X10508Y7624D01*
X9488Y3334D02*
X8468Y7624D01*
X7448Y3334D02*
X8468Y7624D01*
X6098Y4154D02*
X5688Y3944D01*
X5068Y3334D01*
Y7624D01*
X69975Y3944D02*
X70385Y3534D01*
X70995Y3334D01*
X71815D01*
X72425Y3534D01*
X72835Y3944D01*
Y4354D01*
X72635Y4764D01*
X72425Y4974D01*
X72015Y5174D01*
X70785Y5584D01*
X70385Y5784D01*
X70175Y5994D01*
X69975Y6404D01*
Y7014D01*
X70385Y7424D01*
X70995Y7624D01*
X71815D01*
X72425Y7424D01*
X72835Y7014D01*
X68625Y3334D02*
X67595Y7624D01*
X66575Y3334D02*
X67595Y7624D01*
X66575Y3334D02*
X65555Y7624D01*
X64535Y3334D02*
X65555Y7624D01*
X62975Y4354D02*
Y4154D01*
X62775Y3744D01*
X62565Y3534D01*
X62155Y3334D01*
X61335D01*
X60935Y3534D01*
X60725Y3744D01*
X60525Y4154D01*
Y4564D01*
X60725Y4974D01*
X61135Y5584D01*
X63185Y7624D01*
X60315D01*
G54D10*
X54331Y29142D02*
G01Y8858D01*
Y60039D02*
Y43692D01*
X46186Y8858D02*
X54331D01*
X26501D02*
X36492D01*
X8268D02*
X16807D01*
X8268Y29385D02*
Y8858D01*
Y60039D02*
Y43449D01*
X54331Y60039D02*
X8268D01*
X112205Y29142D02*
Y8858D01*
Y60039D02*
Y43692D01*
X104060Y8858D02*
X112205D01*
X84375D02*
X94366D01*
X66142D02*
X74681D01*
X66142Y29385D02*
Y8858D01*
Y60039D02*
Y43449D01*
X112205Y60039D02*
X66142D01*
X34837Y36417D02*
G03I-03735J0D01*
X41496D02*
G03I-10394J0D01*
X92711D02*
G03I-03735J0D01*
X99370D02*
G03I-10394J0D01*
M02*
