M48
;FILE_FORMAT=2:5
INCH,TZ
T1F00S00C0.01205
T2F00S00C0.03937
T3F00S00C0.04724
%
T1
X84094Y-10539
X206925Y-09512
X72039Y00000
X218539Y05181
X361189Y00004
X434591
T2
X34449Y08858
X60039
X34449Y-08858
X60039
X103346Y08858
X128937
X103346Y-08858
X128937
X172244Y08858
X197835
X172244Y-08858
X197835
X241142Y08858
X266732
X241142Y-08858
X266732
X310039Y08858
X335630
X310039Y-08858
X335630
X378937Y08858
X404528
X378937Y-08858
X404528
X447835Y08858
X473425
X447835Y-08858
X473425
X516732Y08858
X542323
X516732Y-08858
X542323
X585630Y08858
X611220
X585630Y-08858
X611220
X654528Y08858
X680118
X654528Y-08858
X680118
X723425Y08858
X749016
X723425Y-08858
X749016
X792323Y08858
X817913
X792323Y-08858
X817913
X569961Y15000
X559961
X569961Y05000
X559961
X569961Y-05000
X559961
X569961Y-15000
X559961
X294370Y15000
X284370
X294370Y05000
X284370
X294370Y-05000
X284370
X294370Y-15000
X284370
T3
X149610Y-05000
Y05000
M30
