%FSLAX25Y25*%
%MOIN*%
%ADD10C,0.01000000*%
%ADD11C,0.02401575*%
%ADD14C,0.07086614*%
%ADD16R,0.0669291X0.0708661*%
%IPPOS*%
G75*
G36*
X850942Y-27524D02*
G01X1420D01*
X1266Y-27492D01*
X1138Y-27406D01*
X1050Y-27276D01*
X1020Y-27124D01*
Y27124D01*
X1050Y27276D01*
X1138Y27406D01*
X1266Y27492D01*
X1420Y27524D01*
X850942D01*
X851096Y27492D01*
X851226Y27406D01*
X851312Y27276D01*
X851342Y27124D01*
Y-27124D01*
X851312Y-27276D01*
X851226Y-27406D01*
X851096Y-27492D01*
X850942Y-27524D01*
G37*
%LPC*%
G36*
X226030Y-21416D02*
X226346Y-21446D01*
X349842D01*
X350158Y-21416D01*
X350442Y-21330D01*
X350706Y-21190D01*
X350950Y-20988D01*
X355642Y-16296D01*
X355772Y-16210D01*
X355924Y-16180D01*
X356852D01*
X357102Y-16152D01*
X357316Y-16076D01*
X357510Y-15954D01*
X357670Y-15794D01*
X357792Y-15600D01*
X357866Y-15386D01*
X357896Y-15136D01*
Y-14842D01*
X357926Y-14688D01*
X358012Y-14558D01*
X358142Y-14472D01*
X358296Y-14442D01*
X358448Y-14472D01*
X358578Y-14558D01*
X361886Y-17866D01*
X362130Y-18068D01*
X362394Y-18208D01*
X362678Y-18294D01*
X362994Y-18324D01*
X493006D01*
X493158Y-18356D01*
X493288Y-18442D01*
X495738Y-20892D01*
X495984Y-21094D01*
X496246Y-21234D01*
X496530Y-21320D01*
X496846Y-21350D01*
X623472D01*
X623788Y-21320D01*
X624072Y-21234D01*
X624336Y-21094D01*
X624580Y-20892D01*
X629176Y-16296D01*
X629306Y-16210D01*
X629458Y-16180D01*
X630390D01*
X630640Y-16152D01*
X630854Y-16076D01*
X631048Y-15954D01*
X631208Y-15794D01*
X631330Y-15600D01*
X631406Y-15386D01*
X631434Y-15136D01*
Y-14848D01*
X631464Y-14694D01*
X631550Y-14564D01*
X631680Y-14478D01*
X631834Y-14448D01*
X631986Y-14478D01*
X632116Y-14564D01*
X634878Y-17326D01*
X635122Y-17528D01*
X635386Y-17668D01*
X635670Y-17754D01*
X635986Y-17784D01*
X757882D01*
X758198Y-17754D01*
X758482Y-17668D01*
X758746Y-17528D01*
X758990Y-17326D01*
X761752Y-14564D01*
X761882Y-14478D01*
X762034Y-14448D01*
X762188Y-14478D01*
X762318Y-14564D01*
X762404Y-14694D01*
X762434Y-14848D01*
Y-15136D01*
X762462Y-15386D01*
X762538Y-15600D01*
X762660Y-15794D01*
X762820Y-15954D01*
X763014Y-16076D01*
X763228Y-16152D01*
X763478Y-16180D01*
X768186D01*
X768436Y-16152D01*
X768650Y-16076D01*
X768844Y-15954D01*
X769004Y-15794D01*
X769126Y-15600D01*
X769200Y-15386D01*
X769228Y-15136D01*
Y-08486D01*
X769200Y-08236D01*
X769126Y-08022D01*
X769004Y-07828D01*
X768844Y-07668D01*
X768650Y-07546D01*
X768436Y-07470D01*
X768186Y-07442D01*
X763478D01*
X763228Y-07470D01*
X763014Y-07546D01*
X762820Y-07668D01*
X762660Y-07828D01*
X762538Y-08022D01*
X762462Y-08236D01*
X762434Y-08486D01*
Y-09922D01*
X762408Y-10066D01*
X762332Y-10192D01*
X762214Y-10280D01*
X761776Y-10408D01*
X761512Y-10548D01*
X761268Y-10750D01*
X757390Y-14628D01*
X757260Y-14714D01*
X757106Y-14744D01*
X643478D01*
X643324Y-14714D01*
X643194Y-14628D01*
X643108Y-14498D01*
X643078Y-14344D01*
Y-08486D01*
X643050Y-08236D01*
X642974Y-08022D01*
X642852Y-07828D01*
X642692Y-07668D01*
X642498Y-07546D01*
X642284Y-07470D01*
X642034Y-07442D01*
X641654D01*
X641500Y-07412D01*
X641372Y-07326D01*
X641284Y-07196D01*
X641254Y-07042D01*
Y-04610D01*
X641284Y-04456D01*
X641372Y-04326D01*
X641500Y-04240D01*
X641654Y-04210D01*
X642636D01*
X642884Y-04182D01*
X643100Y-04106D01*
X643292Y-03984D01*
X643454Y-03824D01*
X643574Y-03630D01*
X643650Y-03416D01*
X643678Y-03166D01*
Y2376D01*
X643708Y2528D01*
X643794Y2658D01*
X643924Y2744D01*
X644078Y2776D01*
X649084D01*
X649236Y2744D01*
X649366Y2658D01*
X653086Y-01060D01*
X653330Y-01262D01*
X653594Y-01402D01*
X653878Y-01488D01*
X654194Y-01520D01*
X761434D01*
X761588Y-01550D01*
X761718Y-01636D01*
X761804Y-01766D01*
X761834Y-01920D01*
Y-03166D01*
X761862Y-03416D01*
X761938Y-03630D01*
X762058Y-03824D01*
X762220Y-03984D01*
X762412Y-04106D01*
X762628Y-04182D01*
X762876Y-04210D01*
X768678D01*
X768928Y-04182D01*
X769142Y-04106D01*
X769336Y-03984D01*
X769496Y-03824D01*
X769618Y-03630D01*
X769692Y-03416D01*
X769720Y-03166D01*
Y3166D01*
X769692Y3416D01*
X769618Y3630D01*
X769496Y3824D01*
X769336Y3984D01*
X769142Y4106D01*
X768928Y4180D01*
X768678Y4208D01*
X762876D01*
X762628Y4180D01*
X762412Y4106D01*
X762220Y3984D01*
X762058Y3824D01*
X761938Y3630D01*
X761862Y3416D01*
X761834Y3166D01*
Y1920D01*
X761804Y1768D01*
X761718Y1638D01*
X761588Y1550D01*
X761434Y1520D01*
X654970D01*
X654816Y1550D01*
X654686Y1638D01*
X652310Y4014D01*
X652218Y4156D01*
X652194Y4324D01*
X652242Y4488D01*
X652352Y4616D01*
X652506Y4688D01*
Y6836D01*
X650446D01*
X650530Y6660D01*
X650726Y6352D01*
X650782Y6202D01*
X650776Y6040D01*
X650706Y5896D01*
X650584Y5790D01*
X650432Y5740D01*
X650272Y5754D01*
X650176Y5784D01*
X649860Y5816D01*
X636320D01*
X636004Y5784D01*
X635720Y5698D01*
X635456Y5558D01*
X635212Y5356D01*
X632608Y2754D01*
X632478Y2666D01*
X632326Y2636D01*
X632172Y2666D01*
X632042Y2754D01*
X631956Y2884D01*
X631926Y3036D01*
Y3166D01*
X631898Y3416D01*
X631822Y3630D01*
X631702Y3824D01*
X631540Y3984D01*
X631348Y4106D01*
X631132Y4180D01*
X630884Y4208D01*
X625082D01*
X624832Y4180D01*
X624618Y4106D01*
X624424Y3984D01*
X624264Y3824D01*
X624142Y3630D01*
X624068Y3416D01*
X624040Y3166D01*
Y1920D01*
X624008Y1768D01*
X623922Y1638D01*
X623792Y1550D01*
X623640Y1520D01*
X573846D01*
X573676Y1558D01*
X573538Y1666D01*
X573458Y1820D01*
X573452Y1996D01*
X573522Y2156D01*
X573812Y2556D01*
X574088Y3058D01*
X574300Y3590D01*
X574442Y4146D01*
X574514Y4714D01*
Y5286D01*
X574442Y5854D01*
X574300Y6410D01*
X574088Y6942D01*
X573812Y7444D01*
X573476Y7908D01*
X573084Y8326D01*
X572642Y8692D01*
X572158Y8998D01*
X571640Y9242D01*
X571096Y9420D01*
X570532Y9526D01*
X569960Y9562D01*
X569388Y9526D01*
X568826Y9420D01*
X568282Y9242D01*
X567762Y8998D01*
X567278Y8692D01*
X566838Y8326D01*
X566446Y7908D01*
X566108Y7444D01*
X565832Y6942D01*
X565622Y6410D01*
X565478Y5854D01*
X565408Y5286D01*
Y4714D01*
X565478Y4146D01*
X565622Y3590D01*
X565832Y3058D01*
X566108Y2556D01*
X566398Y2156D01*
X566468Y1996D01*
X566462Y1820D01*
X566384Y1666D01*
X566246Y1558D01*
X566076Y1520D01*
X563842D01*
X563694Y1548D01*
X563568Y1628D01*
X563480Y1750D01*
X563442Y1896D01*
X563462Y2044D01*
X563534Y2176D01*
X563652Y2318D01*
X563958Y2802D01*
X564202Y3320D01*
X564380Y3866D01*
X564488Y4428D01*
X564524Y5000D01*
X564488Y5572D01*
X564380Y6134D01*
X564202Y6680D01*
X563958Y7198D01*
X563652Y7682D01*
X563286Y8124D01*
X562868Y8516D01*
X562406Y8852D01*
X561904Y9128D01*
X561370Y9340D01*
X560816Y9482D01*
X560248Y9554D01*
X559674D01*
X559106Y9482D01*
X558550Y9340D01*
X558018Y9128D01*
X557516Y8852D01*
X557052Y8516D01*
X556634Y8124D01*
X556270Y7682D01*
X555962Y7198D01*
X555718Y6680D01*
X555542Y6134D01*
X555434Y5572D01*
X555398Y5000D01*
X555434Y4428D01*
X555542Y3866D01*
X555718Y3320D01*
X555962Y2802D01*
X556270Y2318D01*
X556388Y2176D01*
X556460Y2044D01*
X556478Y1896D01*
X556442Y1750D01*
X556354Y1628D01*
X556226Y1548D01*
X556080Y1520D01*
X515206D01*
X515054Y1550D01*
X514924Y1638D01*
X513172Y3388D01*
X512928Y3590D01*
X512664Y3730D01*
X512380Y3816D01*
X512064Y3848D01*
X498552D01*
X498236Y3816D01*
X497952Y3730D01*
X497690Y3590D01*
X497444Y3388D01*
X494842Y786D01*
X494712Y700D01*
X494560Y668D01*
X494406Y700D01*
X494276Y786D01*
X494190Y916D01*
X494160Y1068D01*
Y1198D01*
X494132Y1448D01*
X494056Y1662D01*
X493934Y1856D01*
X493774Y2016D01*
X493580Y2138D01*
X493366Y2212D01*
X493116Y2240D01*
X487316D01*
X487066Y2212D01*
X486852Y2138D01*
X486658Y2016D01*
X486498Y1856D01*
X486406Y1710D01*
X486316Y1610D01*
X486200Y1544D01*
X486068Y1522D01*
X436364D01*
X436210Y1552D01*
X436080Y1640D01*
X436018Y1702D01*
X435700Y1924D01*
X435350Y2088D01*
X434976Y2188D01*
X434592Y2222D01*
X434206Y2188D01*
X433832Y2088D01*
X433482Y1924D01*
X433164Y1702D01*
X432890Y1428D01*
X432696Y1150D01*
X432584Y1042D01*
X432438Y986D01*
X432280Y990D01*
X432138Y1054D01*
X432030Y1166D01*
X431972Y1322D01*
X431788Y1962D01*
X431534Y2578D01*
X431212Y3160D01*
X430826Y3704D01*
X430382Y4200D01*
X429884Y4644D01*
X429342Y5030D01*
X428758Y5352D01*
X428144Y5608D01*
X427502Y5792D01*
X426846Y5904D01*
X426182Y5940D01*
X425516Y5904D01*
X424860Y5792D01*
X424218Y5608D01*
X423604Y5352D01*
X423020Y5030D01*
X422478Y4644D01*
X421980Y4200D01*
X421536Y3704D01*
X421150Y3160D01*
X420828Y2578D01*
X420574Y1962D01*
X420390Y1322D01*
X420278Y666D01*
X420240Y0D01*
X420278Y-00666D01*
X420390Y-01322D01*
X420574Y-01962D01*
X420828Y-02578D01*
X421150Y-03160D01*
X421536Y-03704D01*
X421980Y-04200D01*
X422478Y-04644D01*
X423020Y-05030D01*
X423604Y-05352D01*
X424218Y-05608D01*
X424860Y-05792D01*
X425516Y-05904D01*
X426182Y-05940D01*
X426846Y-05904D01*
X427502Y-05792D01*
X428144Y-05608D01*
X428758Y-05352D01*
X429342Y-05030D01*
X429884Y-04644D01*
X430382Y-04200D01*
X430826Y-03704D01*
X431212Y-03160D01*
X431534Y-02578D01*
X431788Y-01962D01*
X431974Y-01310D01*
X432030Y-01164D01*
X432138Y-01050D01*
X432282Y-00986D01*
X432438Y-00982D01*
X432584Y-01038D01*
X432696Y-01148D01*
X432890Y-01424D01*
X433164Y-01698D01*
X433482Y-01920D01*
X433832Y-02084D01*
X434206Y-02184D01*
X434592Y-02218D01*
X434976Y-02184D01*
X435350Y-02084D01*
X435700Y-01920D01*
X436018Y-01698D01*
X436080Y-01634D01*
X436210Y-01548D01*
X436364Y-01518D01*
X485872D01*
X486026Y-01548D01*
X486156Y-01634D01*
X486242Y-01764D01*
X486272Y-01918D01*
Y-05134D01*
X486300Y-05384D01*
X486376Y-05598D01*
X486498Y-05792D01*
X486658Y-05952D01*
X486852Y-06074D01*
X487066Y-06150D01*
X487316Y-06178D01*
X493116D01*
X493366Y-06150D01*
X493580Y-06074D01*
X493774Y-05952D01*
X493934Y-05792D01*
X494056Y-05598D01*
X494132Y-05384D01*
X494160Y-05134D01*
Y-03856D01*
X494186Y-03712D01*
X494262Y-03588D01*
X494380Y-03498D01*
X494818Y-03370D01*
X495082Y-03230D01*
X495326Y-03028D01*
X497342Y-01014D01*
X497472Y-00926D01*
X497624Y-00896D01*
X497778Y-00926D01*
X497908Y-01014D01*
X497994Y-01144D01*
X498024Y-01296D01*
Y-05134D01*
X498052Y-05384D01*
X498128Y-05598D01*
X498250Y-05792D01*
X498410Y-05952D01*
X498604Y-06074D01*
X498818Y-06150D01*
X499068Y-06178D01*
X500050D01*
X500202Y-06208D01*
X500332Y-06294D01*
X500418Y-06424D01*
X500450Y-06578D01*
Y-09012D01*
X500418Y-09164D01*
X500332Y-09294D01*
X500202Y-09382D01*
X500050Y-09412D01*
X499614D01*
X499366Y-09440D01*
X499150Y-09514D01*
X498958Y-09636D01*
X498796Y-09798D01*
X498676Y-09990D01*
X498600Y-10206D01*
X498572Y-10454D01*
Y-17106D01*
X498600Y-17354D01*
X498676Y-17570D01*
X498756Y-17698D01*
X498814Y-17858D01*
X498800Y-18026D01*
X498718Y-18174D01*
X498582Y-18274D01*
X498416Y-18310D01*
X497622D01*
X497470Y-18280D01*
X497340Y-18194D01*
X495438Y-16292D01*
X495352Y-16162D01*
X495322Y-16010D01*
Y-13800D01*
X495290Y-13484D01*
X495204Y-13198D01*
X495064Y-12936D01*
X494874Y-12706D01*
X494644Y-12518D01*
X494382Y-12378D01*
X493942Y-12248D01*
X493826Y-12160D01*
X493748Y-12036D01*
X493722Y-11892D01*
Y-10454D01*
X493694Y-10206D01*
X493618Y-09990D01*
X493498Y-09798D01*
X493336Y-09636D01*
X493144Y-09514D01*
X492928Y-09440D01*
X492680Y-09412D01*
X487970D01*
X487722Y-09440D01*
X487506Y-09514D01*
X487314Y-09636D01*
X487152Y-09798D01*
X487032Y-09990D01*
X486956Y-10206D01*
X486928Y-10454D01*
Y-14884D01*
X486898Y-15038D01*
X486810Y-15168D01*
X486680Y-15254D01*
X486528Y-15284D01*
X369938D01*
X369786Y-15254D01*
X369656Y-15168D01*
X369570Y-15038D01*
X369538Y-14884D01*
Y-08486D01*
X369510Y-08236D01*
X369436Y-08022D01*
X369314Y-07828D01*
X369154Y-07668D01*
X368960Y-07546D01*
X368746Y-07470D01*
X368496Y-07442D01*
X368066D01*
X367912Y-07412D01*
X367782Y-07326D01*
X367696Y-07196D01*
X367666Y-07042D01*
Y-04610D01*
X367696Y-04456D01*
X367782Y-04326D01*
X367912Y-04240D01*
X368066Y-04210D01*
X369042D01*
X369292Y-04182D01*
X369506Y-04106D01*
X369700Y-03984D01*
X369860Y-03824D01*
X369982Y-03630D01*
X370058Y-03416D01*
X370086Y-03166D01*
Y3166D01*
X370058Y3416D01*
X369982Y3630D01*
X369860Y3824D01*
X369700Y3984D01*
X369506Y4106D01*
X369292Y4180D01*
X369042Y4208D01*
X363242D01*
X362992Y4180D01*
X362778Y4106D01*
X362584Y3984D01*
X362424Y3824D01*
X362302Y3630D01*
X362226Y3416D01*
X362198Y3166D01*
Y2542D01*
X362172Y2398D01*
X362096Y2274D01*
X361980Y2186D01*
X361840Y2144D01*
X361696Y2156D01*
X361576Y2188D01*
X361190Y2222D01*
X360804Y2188D01*
X360430Y2088D01*
X360080Y1924D01*
X359764Y1702D01*
X359700Y1640D01*
X359570Y1552D01*
X359418Y1522D01*
X358734D01*
X358580Y1552D01*
X358450Y1640D01*
X358364Y1770D01*
X358334Y1922D01*
Y3166D01*
X358306Y3416D01*
X358230Y3630D01*
X358108Y3824D01*
X357948Y3984D01*
X357754Y4106D01*
X357540Y4180D01*
X357290Y4208D01*
X351490D01*
X351240Y4180D01*
X351026Y4106D01*
X350832Y3984D01*
X350672Y3824D01*
X350550Y3630D01*
X350474Y3416D01*
X350446Y3166D01*
Y-03166D01*
X350474Y-03416D01*
X350550Y-03630D01*
X350672Y-03824D01*
X350832Y-03984D01*
X351026Y-04106D01*
X351240Y-04182D01*
X351490Y-04210D01*
X357290D01*
X357540Y-04182D01*
X357754Y-04106D01*
X357948Y-03984D01*
X358108Y-03824D01*
X358230Y-03630D01*
X358306Y-03416D01*
X358334Y-03166D01*
Y-01918D01*
X358364Y-01764D01*
X358450Y-01634D01*
X358580Y-01548D01*
X358734Y-01518D01*
X359418D01*
X359570Y-01548D01*
X359700Y-01634D01*
X359764Y-01698D01*
X360080Y-01920D01*
X360430Y-02084D01*
X360804Y-02184D01*
X361190Y-02218D01*
X361576Y-02184D01*
X361696Y-02152D01*
X361840Y-02140D01*
X361980Y-02182D01*
X362096Y-02270D01*
X362172Y-02394D01*
X362198Y-02538D01*
Y-03166D01*
X362226Y-03416D01*
X362302Y-03630D01*
X362424Y-03824D01*
X362584Y-03984D01*
X362778Y-04106D01*
X362992Y-04182D01*
X363242Y-04210D01*
X364226D01*
X364378Y-04240D01*
X364508Y-04326D01*
X364594Y-04456D01*
X364626Y-04610D01*
Y-07042D01*
X364594Y-07196D01*
X364508Y-07326D01*
X364378Y-07412D01*
X364226Y-07442D01*
X363788D01*
X363538Y-07470D01*
X363324Y-07546D01*
X363130Y-07668D01*
X362970Y-07828D01*
X362848Y-08022D01*
X362772Y-08236D01*
X362744Y-08486D01*
Y-13460D01*
X362714Y-13614D01*
X362628Y-13744D01*
X362498Y-13830D01*
X362344Y-13860D01*
X362192Y-13830D01*
X362062Y-13744D01*
X359068Y-10748D01*
X358822Y-10548D01*
X358560Y-10408D01*
X358116Y-10278D01*
X357998Y-10190D01*
X357922Y-10064D01*
X357896Y-09920D01*
Y-08486D01*
X357866Y-08236D01*
X357792Y-08022D01*
X357670Y-07828D01*
X357510Y-07668D01*
X357316Y-07546D01*
X357102Y-07470D01*
X356852Y-07442D01*
X352144D01*
X351894Y-07470D01*
X351680Y-07546D01*
X351486Y-07668D01*
X351326Y-07828D01*
X351204Y-08022D01*
X351130Y-08236D01*
X351102Y-08486D01*
Y-15136D01*
X351130Y-15386D01*
X351204Y-15600D01*
X351356Y-15838D01*
X351410Y-15962D01*
X351418Y-16096D01*
X351380Y-16226D01*
X351302Y-16336D01*
X349350Y-18290D01*
X349220Y-18376D01*
X349066Y-18406D01*
X298308D01*
X298138Y-18368D01*
X298000Y-18262D01*
X297920Y-18106D01*
X297916Y-17932D01*
X297984Y-17772D01*
X298222Y-17444D01*
X298498Y-16942D01*
X298710Y-16410D01*
X298852Y-15854D01*
X298924Y-15286D01*
Y-14714D01*
X298852Y-14146D01*
X298710Y-13590D01*
X298498Y-13058D01*
X298222Y-12556D01*
X297886Y-12092D01*
X297494Y-11674D01*
X297052Y-11308D01*
X296568Y-11002D01*
X296050Y-10758D01*
X295504Y-10580D01*
X294942Y-10474D01*
X294370Y-10438D01*
X293798Y-10474D01*
X293236Y-10580D01*
X292690Y-10758D01*
X292172Y-11002D01*
X291688Y-11308D01*
X291246Y-11674D01*
X290854Y-12092D01*
X290518Y-12556D01*
X290242Y-13058D01*
X290030Y-13590D01*
X289888Y-14146D01*
X289816Y-14714D01*
Y-15286D01*
X289888Y-15854D01*
X290030Y-16410D01*
X290242Y-16942D01*
X290518Y-17444D01*
X290756Y-17772D01*
X290824Y-17932D01*
X290820Y-18106D01*
X290740Y-18262D01*
X290602Y-18368D01*
X290432Y-18406D01*
X288308D01*
X288138Y-18368D01*
X288000Y-18262D01*
X287920Y-18106D01*
X287916Y-17932D01*
X287984Y-17772D01*
X288222Y-17444D01*
X288498Y-16942D01*
X288710Y-16410D01*
X288852Y-15854D01*
X288924Y-15286D01*
Y-14714D01*
X288852Y-14146D01*
X288710Y-13590D01*
X288498Y-13058D01*
X288222Y-12556D01*
X287886Y-12092D01*
X287494Y-11674D01*
X287052Y-11308D01*
X286568Y-11002D01*
X286050Y-10758D01*
X285504Y-10580D01*
X284942Y-10474D01*
X284370Y-10438D01*
X283798Y-10474D01*
X283236Y-10580D01*
X282690Y-10758D01*
X282172Y-11002D01*
X281688Y-11308D01*
X281246Y-11674D01*
X280854Y-12092D01*
X280518Y-12556D01*
X280242Y-13058D01*
X280030Y-13590D01*
X279888Y-14146D01*
X279816Y-14714D01*
Y-15286D01*
X279888Y-15854D01*
X280030Y-16410D01*
X280242Y-16942D01*
X280518Y-17444D01*
X280756Y-17772D01*
X280824Y-17932D01*
X280820Y-18106D01*
X280740Y-18262D01*
X280602Y-18368D01*
X280432Y-18406D01*
X227122D01*
X226968Y-18376D01*
X226838Y-18290D01*
X225412Y-16862D01*
X225324Y-16732D01*
X225294Y-16580D01*
X225324Y-16426D01*
X225412Y-16296D01*
X225540Y-16210D01*
X225694Y-16180D01*
X228732D01*
X228982Y-16152D01*
X229196Y-16076D01*
X229390Y-15954D01*
X229550Y-15794D01*
X229672Y-15600D01*
X229746Y-15386D01*
X229774Y-15136D01*
Y-08486D01*
X229746Y-08236D01*
X229672Y-08022D01*
X229550Y-07828D01*
X229390Y-07668D01*
X229196Y-07546D01*
X228982Y-07470D01*
X228732Y-07442D01*
X228298D01*
X228144Y-07412D01*
X228016Y-07326D01*
X227928Y-07196D01*
X227898Y-07042D01*
Y-04610D01*
X227928Y-04456D01*
X228016Y-04326D01*
X228144Y-04240D01*
X228298Y-04210D01*
X229278D01*
X229528Y-04182D01*
X229742Y-04106D01*
X229936Y-03984D01*
X230096Y-03824D01*
X230218Y-03630D01*
X230294Y-03416D01*
X230322Y-03166D01*
Y3166D01*
X230294Y3416D01*
X230218Y3630D01*
X230096Y3824D01*
X229936Y3984D01*
X229742Y4106D01*
X229528Y4180D01*
X229278Y4208D01*
X223478D01*
X223228Y4180D01*
X223014Y4106D01*
X222820Y3984D01*
X222660Y3824D01*
X222538Y3630D01*
X222462Y3416D01*
X222434Y3166D01*
Y-03166D01*
X222462Y-03416D01*
X222538Y-03630D01*
X222660Y-03824D01*
X222820Y-03984D01*
X223014Y-04106D01*
X223228Y-04182D01*
X223478Y-04210D01*
X224458D01*
X224612Y-04240D01*
X224740Y-04326D01*
X224828Y-04456D01*
X224858Y-04610D01*
Y-07042D01*
X224828Y-07196D01*
X224740Y-07326D01*
X224612Y-07412D01*
X224458Y-07442D01*
X224024D01*
X223774Y-07470D01*
X223560Y-07546D01*
X223366Y-07668D01*
X223206Y-07828D01*
X223084Y-08022D01*
X223008Y-08236D01*
X222980Y-08486D01*
Y-13466D01*
X222950Y-13620D01*
X222864Y-13750D01*
X222734Y-13836D01*
X222580Y-13866D01*
X222428Y-13836D01*
X222298Y-13750D01*
X219298Y-10750D01*
X219054Y-10548D01*
X218790Y-10408D01*
X218352Y-10280D01*
X218234Y-10192D01*
X218158Y-10066D01*
X218132Y-09922D01*
Y-08486D01*
X218102Y-08236D01*
X218028Y-08022D01*
X217906Y-07828D01*
X217746Y-07668D01*
X217552Y-07546D01*
X217338Y-07470D01*
X217088Y-07442D01*
X212380D01*
X212130Y-07470D01*
X211916Y-07546D01*
X211722Y-07668D01*
X211562Y-07828D01*
X211440Y-08022D01*
X211366Y-08236D01*
X211338Y-08486D01*
Y-08774D01*
X211306Y-08928D01*
X211220Y-09058D01*
X211090Y-09144D01*
X210938Y-09174D01*
X210784Y-09144D01*
X210654Y-09058D01*
X210048Y-08452D01*
X209804Y-08250D01*
X209540Y-08110D01*
X209256Y-08024D01*
X208940Y-07992D01*
X208698D01*
X208544Y-07962D01*
X208414Y-07876D01*
X208352Y-07812D01*
X208034Y-07590D01*
X207684Y-07428D01*
X207310Y-07328D01*
X206926Y-07294D01*
X206540Y-07328D01*
X206166Y-07428D01*
X205816Y-07590D01*
X205498Y-07812D01*
X205224Y-08086D01*
X205004Y-08404D01*
X204840Y-08754D01*
X204740Y-09128D01*
X204706Y-09512D01*
X204740Y-09898D01*
X204840Y-10272D01*
X205004Y-10622D01*
X205224Y-10940D01*
X205498Y-11212D01*
X205816Y-11434D01*
X206166Y-11598D01*
X206540Y-11698D01*
X206926Y-11732D01*
X207310Y-11698D01*
X207684Y-11598D01*
X208034Y-11434D01*
X208170Y-11340D01*
X208296Y-11282D01*
X208434Y-11270D01*
X208568Y-11306D01*
X208682Y-11384D01*
X210170Y-12872D01*
X210414Y-13074D01*
X210678Y-13214D01*
X211116Y-13342D01*
X211234Y-13430D01*
X211310Y-13556D01*
X211338Y-13700D01*
Y-15136D01*
X211366Y-15386D01*
X211440Y-15600D01*
X211562Y-15794D01*
X211722Y-15954D01*
X211916Y-16076D01*
X212130Y-16152D01*
X212380Y-16180D01*
X217088D01*
X217338Y-16152D01*
X217552Y-16076D01*
X217746Y-15954D01*
X217906Y-15794D01*
X218028Y-15600D01*
X218102Y-15386D01*
X218132Y-15136D01*
Y-14848D01*
X218162Y-14694D01*
X218248Y-14564D01*
X218378Y-14478D01*
X218532Y-14448D01*
X218684Y-14478D01*
X218814Y-14564D01*
X225238Y-20988D01*
X225482Y-21190D01*
X225746Y-21330D01*
X226030Y-21416D01*
G37*
G36*
X774872Y-16152D02*
X775120Y-16180D01*
X779830D01*
X780078Y-16152D01*
X780294Y-16076D01*
X780486Y-15954D01*
X780648Y-15794D01*
X780770Y-15600D01*
X780844Y-15386D01*
X780872Y-15136D01*
Y-08486D01*
X780844Y-08236D01*
X780770Y-08022D01*
X780648Y-07828D01*
X780486Y-07668D01*
X780294Y-07546D01*
X780078Y-07470D01*
X779830Y-07442D01*
X779450D01*
X779296Y-07412D01*
X779168Y-07326D01*
X779080Y-07196D01*
X779050Y-07042D01*
Y-04610D01*
X779080Y-04456D01*
X779168Y-04326D01*
X779296Y-04240D01*
X779450Y-04210D01*
X780430D01*
X780680Y-04182D01*
X780894Y-04106D01*
X781088Y-03984D01*
X781248Y-03824D01*
X781370Y-03630D01*
X781444Y-03416D01*
X781472Y-03166D01*
Y3166D01*
X781444Y3416D01*
X781370Y3630D01*
X781248Y3824D01*
X781088Y3984D01*
X780894Y4106D01*
X780680Y4180D01*
X780430Y4208D01*
X774628D01*
X774380Y4180D01*
X774164Y4106D01*
X773972Y3984D01*
X773810Y3824D01*
X773690Y3630D01*
X773614Y3416D01*
X773586Y3166D01*
Y-03166D01*
X773614Y-03416D01*
X773690Y-03630D01*
X773810Y-03824D01*
X773972Y-03984D01*
X774164Y-04106D01*
X774380Y-04182D01*
X774628Y-04210D01*
X775610D01*
X775764Y-04240D01*
X775892Y-04326D01*
X775980Y-04456D01*
X776010Y-04610D01*
Y-06932D01*
X775980Y-07122D01*
X775930Y-07250D01*
X775840Y-07352D01*
X775722Y-07420D01*
X775588Y-07442D01*
X775120D01*
X774872Y-07470D01*
X774658Y-07546D01*
X774464Y-07668D01*
X774304Y-07828D01*
X774182Y-08022D01*
X774106Y-08236D01*
X774078Y-08486D01*
Y-15136D01*
X774106Y-15386D01*
X774182Y-15600D01*
X774304Y-15794D01*
X774464Y-15954D01*
X774658Y-16076D01*
X774872Y-16152D01*
G37*
G36*
X74252Y-16152D02*
X74500Y-16180D01*
X79210D01*
X79458Y-16152D01*
X79674Y-16076D01*
X79866Y-15954D01*
X80028Y-15794D01*
X80150Y-15600D01*
X80224Y-15386D01*
X80252Y-15136D01*
Y-13700D01*
X80280Y-13556D01*
X80356Y-13430D01*
X80472Y-13342D01*
X80912Y-13214D01*
X81174Y-13074D01*
X81420Y-12872D01*
X82078Y-12214D01*
X82208Y-12126D01*
X82362Y-12096D01*
X82514Y-12126D01*
X82986Y-12460D01*
X83336Y-12624D01*
X83710Y-12724D01*
X84096Y-12758D01*
X84482Y-12724D01*
X84598Y-12692D01*
X84744Y-12682D01*
X84884Y-12722D01*
X85000Y-12812D01*
X85076Y-12936D01*
X85102Y-13080D01*
Y-15136D01*
X85130Y-15386D01*
X85206Y-15600D01*
X85326Y-15794D01*
X85488Y-15954D01*
X85680Y-16076D01*
X85896Y-16152D01*
X86144Y-16180D01*
X90854D01*
X91102Y-16152D01*
X91318Y-16076D01*
X91510Y-15954D01*
X91672Y-15794D01*
X91792Y-15600D01*
X91868Y-15386D01*
X91896Y-15136D01*
Y-08486D01*
X91868Y-08236D01*
X91792Y-08022D01*
X91672Y-07828D01*
X91510Y-07668D01*
X91318Y-07546D01*
X91102Y-07470D01*
X90854Y-07442D01*
X90474D01*
X90320Y-07412D01*
X90190Y-07326D01*
X90104Y-07196D01*
X90074Y-07042D01*
Y-04610D01*
X90104Y-04456D01*
X90190Y-04326D01*
X90320Y-04240D01*
X90474Y-04210D01*
X91454D01*
X91702Y-04182D01*
X91918Y-04106D01*
X92110Y-03984D01*
X92272Y-03824D01*
X92394Y-03630D01*
X92468Y-03416D01*
X92496Y-03166D01*
Y3166D01*
X92468Y3416D01*
X92394Y3630D01*
X92272Y3824D01*
X92110Y3984D01*
X91918Y4106D01*
X91702Y4180D01*
X91454Y4208D01*
X85652D01*
X85404Y4180D01*
X85188Y4106D01*
X84996Y3984D01*
X84834Y3824D01*
X84714Y3630D01*
X84638Y3416D01*
X84610Y3166D01*
Y-03166D01*
X84638Y-03416D01*
X84714Y-03630D01*
X84834Y-03824D01*
X84996Y-03984D01*
X85188Y-04106D01*
X85404Y-04182D01*
X85652Y-04210D01*
X86634D01*
X86786Y-04240D01*
X86916Y-04326D01*
X87002Y-04456D01*
X87034Y-04610D01*
Y-06932D01*
X87002Y-07122D01*
X86954Y-07250D01*
X86864Y-07352D01*
X86744Y-07420D01*
X86610Y-07442D01*
X86144D01*
X85896Y-07470D01*
X85680Y-07546D01*
X85488Y-07668D01*
X85326Y-07828D01*
X85206Y-08022D01*
X85160Y-08152D01*
X85086Y-08280D01*
X84970Y-08374D01*
X84826Y-08418D01*
X84678Y-08406D01*
X84482Y-08354D01*
X84096Y-08320D01*
X83710Y-08354D01*
X83336Y-08454D01*
X82986Y-08616D01*
X82670Y-08838D01*
X82606Y-08902D01*
X82476Y-08988D01*
X82324Y-09018D01*
X81622D01*
X81306Y-09050D01*
X81022Y-09136D01*
X80840Y-09234D01*
X80684Y-09280D01*
X80522Y-09258D01*
X80380Y-09174D01*
X80286Y-09040D01*
X80252Y-08880D01*
Y-08486D01*
X80224Y-08236D01*
X80150Y-08022D01*
X80028Y-07828D01*
X79866Y-07668D01*
X79674Y-07546D01*
X79458Y-07470D01*
X79210Y-07442D01*
X74500D01*
X74252Y-07470D01*
X74036Y-07546D01*
X73844Y-07668D01*
X73682Y-07828D01*
X73562Y-08022D01*
X73486Y-08236D01*
X73458Y-08486D01*
Y-15136D01*
X73486Y-15386D01*
X73562Y-15600D01*
X73682Y-15794D01*
X73844Y-15954D01*
X74036Y-16076D01*
X74252Y-16152D01*
G37*
G36*
X33594Y-13340D02*
X34162Y-13412D01*
X34736D01*
X35304Y-13340D01*
X35858Y-13198D01*
X36392Y-12986D01*
X36894Y-12710D01*
X37358Y-12374D01*
X37774Y-11982D01*
X38140Y-11540D01*
X38446Y-11056D01*
X38658Y-10608D01*
X38746Y-10486D01*
X38872Y-10406D01*
X39020Y-10378D01*
X55468D01*
X55616Y-10406D01*
X55742Y-10486D01*
X55830Y-10608D01*
X56042Y-11056D01*
X56348Y-11540D01*
X56714Y-11982D01*
X57132Y-12374D01*
X57594Y-12710D01*
X58096Y-12986D01*
X58630Y-13198D01*
X59184Y-13340D01*
X59752Y-13412D01*
X60326D01*
X60894Y-13340D01*
X61450Y-13198D01*
X61982Y-12986D01*
X62484Y-12710D01*
X62948Y-12374D01*
X63366Y-11982D01*
X63730Y-11540D01*
X64038Y-11056D01*
X64282Y-10538D01*
X64458Y-09992D01*
X64566Y-09430D01*
X64602Y-08858D01*
X64566Y-08286D01*
X64458Y-07724D01*
X64282Y-07178D01*
X64038Y-06660D01*
X63730Y-06176D01*
X63366Y-05736D01*
X62948Y-05342D01*
X62484Y-05006D01*
X61982Y-04730D01*
X61450Y-04520D01*
X60894Y-04376D01*
X60326Y-04304D01*
X59752D01*
X59184Y-04376D01*
X58630Y-04520D01*
X58096Y-04730D01*
X57594Y-05006D01*
X57132Y-05342D01*
X56714Y-05736D01*
X56348Y-06176D01*
X56042Y-06660D01*
X55830Y-07108D01*
X55742Y-07230D01*
X55616Y-07310D01*
X55468Y-07338D01*
X39020D01*
X38872Y-07310D01*
X38746Y-07230D01*
X38658Y-07108D01*
X38446Y-06660D01*
X38140Y-06176D01*
X37774Y-05736D01*
X37358Y-05342D01*
X36894Y-05006D01*
X36392Y-04730D01*
X35858Y-04520D01*
X35304Y-04376D01*
X34736Y-04304D01*
X34162D01*
X33594Y-04376D01*
X33038Y-04520D01*
X32506Y-04730D01*
X32004Y-05006D01*
X31540Y-05342D01*
X31122Y-05736D01*
X30758Y-06176D01*
X30450Y-06660D01*
X30206Y-07178D01*
X30030Y-07724D01*
X29922Y-08286D01*
X29886Y-08858D01*
X29922Y-09430D01*
X30030Y-09992D01*
X30206Y-10538D01*
X30450Y-11056D01*
X30758Y-11540D01*
X31122Y-11982D01*
X31540Y-12374D01*
X32004Y-12710D01*
X32506Y-12986D01*
X33038Y-13198D01*
X33594Y-13340D01*
G37*
G36*
X240286Y-13340D02*
X240856Y-13412D01*
X241428D01*
X241996Y-13340D01*
X242552Y-13198D01*
X243084Y-12986D01*
X243586Y-12710D01*
X244050Y-12374D01*
X244468Y-11982D01*
X244832Y-11540D01*
X245140Y-11056D01*
X245352Y-10608D01*
X245440Y-10486D01*
X245566Y-10406D01*
X245712Y-10378D01*
X262162D01*
X262308Y-10406D01*
X262434Y-10486D01*
X262522Y-10608D01*
X262734Y-11056D01*
X263042Y-11540D01*
X263406Y-11982D01*
X263824Y-12374D01*
X264288Y-12710D01*
X264790Y-12986D01*
X265322Y-13198D01*
X265878Y-13340D01*
X266446Y-13412D01*
X267018D01*
X267588Y-13340D01*
X268142Y-13198D01*
X268674Y-12986D01*
X269178Y-12710D01*
X269640Y-12374D01*
X270058Y-11982D01*
X270424Y-11540D01*
X270730Y-11056D01*
X270974Y-10538D01*
X271152Y-09992D01*
X271258Y-09430D01*
X271294Y-08858D01*
X271258Y-08286D01*
X271152Y-07724D01*
X270974Y-07178D01*
X270730Y-06660D01*
X270424Y-06176D01*
X270058Y-05736D01*
X269640Y-05342D01*
X269178Y-05006D01*
X268674Y-04730D01*
X268142Y-04520D01*
X267588Y-04376D01*
X267018Y-04304D01*
X266446D01*
X265878Y-04376D01*
X265322Y-04520D01*
X264790Y-04730D01*
X264288Y-05006D01*
X263824Y-05342D01*
X263406Y-05736D01*
X263042Y-06176D01*
X262734Y-06660D01*
X262524Y-07108D01*
X262436Y-07230D01*
X262308Y-07310D01*
X262162Y-07338D01*
X245712D01*
X245566Y-07310D01*
X245438Y-07230D01*
X245350Y-07108D01*
X245140Y-06660D01*
X244832Y-06176D01*
X244468Y-05736D01*
X244050Y-05342D01*
X243586Y-05006D01*
X243084Y-04730D01*
X242552Y-04520D01*
X241996Y-04376D01*
X241428Y-04304D01*
X240856D01*
X240286Y-04376D01*
X239732Y-04520D01*
X239200Y-04730D01*
X238696Y-05006D01*
X238234Y-05342D01*
X237816Y-05736D01*
X237450Y-06176D01*
X237144Y-06660D01*
X236900Y-07178D01*
X236722Y-07724D01*
X236616Y-08286D01*
X236580Y-08858D01*
X236616Y-09430D01*
X236722Y-09992D01*
X236900Y-10538D01*
X237144Y-11056D01*
X237450Y-11540D01*
X237816Y-11982D01*
X238234Y-12374D01*
X238696Y-12710D01*
X239200Y-12986D01*
X239732Y-13198D01*
X240286Y-13340D01*
G37*
G36*
X446980Y-13340D02*
X447548Y-13412D01*
X448122D01*
X448690Y-13340D01*
X449244Y-13198D01*
X449778Y-12986D01*
X450280Y-12710D01*
X450742Y-12374D01*
X451160Y-11982D01*
X451526Y-11540D01*
X451832Y-11056D01*
X452044Y-10608D01*
X452132Y-10486D01*
X452258Y-10406D01*
X452406Y-10378D01*
X468854D01*
X469002Y-10406D01*
X469128Y-10486D01*
X469216Y-10608D01*
X469428Y-11056D01*
X469734Y-11540D01*
X470100Y-11982D01*
X470516Y-12374D01*
X470980Y-12710D01*
X471482Y-12986D01*
X472016Y-13198D01*
X472570Y-13340D01*
X473138Y-13412D01*
X473712D01*
X474280Y-13340D01*
X474836Y-13198D01*
X475368Y-12986D01*
X475870Y-12710D01*
X476334Y-12374D01*
X476752Y-11982D01*
X477116Y-11540D01*
X477424Y-11056D01*
X477668Y-10538D01*
X477844Y-09992D01*
X477952Y-09430D01*
X477988Y-08858D01*
X477952Y-08286D01*
X477844Y-07724D01*
X477668Y-07178D01*
X477424Y-06660D01*
X477116Y-06176D01*
X476752Y-05736D01*
X476334Y-05342D01*
X475870Y-05006D01*
X475368Y-04730D01*
X474836Y-04520D01*
X474280Y-04376D01*
X473712Y-04304D01*
X473138D01*
X472570Y-04376D01*
X472016Y-04520D01*
X471482Y-04730D01*
X470980Y-05006D01*
X470516Y-05342D01*
X470100Y-05736D01*
X469734Y-06176D01*
X469428Y-06660D01*
X469216Y-07108D01*
X469128Y-07230D01*
X469002Y-07310D01*
X468854Y-07338D01*
X452406D01*
X452258Y-07310D01*
X452132Y-07230D01*
X452044Y-07108D01*
X451832Y-06660D01*
X451526Y-06176D01*
X451160Y-05736D01*
X450742Y-05342D01*
X450280Y-05006D01*
X449778Y-04730D01*
X449244Y-04520D01*
X448690Y-04376D01*
X448122Y-04304D01*
X447548D01*
X446980Y-04376D01*
X446424Y-04520D01*
X445892Y-04730D01*
X445390Y-05006D01*
X444926Y-05342D01*
X444508Y-05736D01*
X444144Y-06176D01*
X443836Y-06660D01*
X443592Y-07178D01*
X443416Y-07724D01*
X443308Y-08286D01*
X443272Y-08858D01*
X443308Y-09430D01*
X443416Y-09992D01*
X443592Y-10538D01*
X443836Y-11056D01*
X444144Y-11540D01*
X444508Y-11982D01*
X444926Y-12374D01*
X445390Y-12710D01*
X445892Y-12986D01*
X446424Y-13198D01*
X446980Y-13340D01*
G37*
G36*
X102492Y-13340D02*
X103060Y-13412D01*
X103632D01*
X104202Y-13340D01*
X104756Y-13198D01*
X105290Y-12986D01*
X105792Y-12710D01*
X106254Y-12374D01*
X106672Y-11982D01*
X107038Y-11540D01*
X107344Y-11056D01*
X107556Y-10608D01*
X107644Y-10486D01*
X107770Y-10406D01*
X107918Y-10378D01*
X124366D01*
X124512Y-10406D01*
X124640Y-10486D01*
X124728Y-10608D01*
X124938Y-11056D01*
X125246Y-11540D01*
X125612Y-11982D01*
X126028Y-12374D01*
X126492Y-12710D01*
X126994Y-12986D01*
X127528Y-13198D01*
X128082Y-13340D01*
X128650Y-13412D01*
X129224D01*
X129792Y-13340D01*
X130346Y-13198D01*
X130880Y-12986D01*
X131382Y-12710D01*
X131846Y-12374D01*
X132262Y-11982D01*
X132628Y-11540D01*
X132936Y-11056D01*
X133180Y-10538D01*
X133356Y-09992D01*
X133464Y-09430D01*
X133500Y-08858D01*
X133464Y-08286D01*
X133356Y-07724D01*
X133180Y-07178D01*
X132936Y-06660D01*
X132628Y-06176D01*
X132262Y-05736D01*
X131846Y-05342D01*
X131382Y-05006D01*
X130880Y-04730D01*
X130346Y-04520D01*
X129792Y-04376D01*
X129224Y-04304D01*
X128650D01*
X128082Y-04376D01*
X127528Y-04520D01*
X126994Y-04730D01*
X126492Y-05006D01*
X126028Y-05342D01*
X125612Y-05736D01*
X125246Y-06176D01*
X124938Y-06660D01*
X124728Y-07108D01*
X124640Y-07230D01*
X124514Y-07310D01*
X124366Y-07338D01*
X107918D01*
X107770Y-07310D01*
X107644Y-07230D01*
X107556Y-07108D01*
X107344Y-06660D01*
X107038Y-06176D01*
X106672Y-05736D01*
X106254Y-05342D01*
X105792Y-05006D01*
X105290Y-04730D01*
X104756Y-04520D01*
X104202Y-04376D01*
X103632Y-04304D01*
X103060D01*
X102492Y-04376D01*
X101936Y-04520D01*
X101404Y-04730D01*
X100902Y-05006D01*
X100438Y-05342D01*
X100020Y-05736D01*
X99656Y-06176D01*
X99348Y-06660D01*
X99104Y-07178D01*
X98928Y-07724D01*
X98820Y-08286D01*
X98784Y-08858D01*
X98820Y-09430D01*
X98928Y-09992D01*
X99104Y-10538D01*
X99348Y-11056D01*
X99656Y-11540D01*
X100020Y-11982D01*
X100438Y-12374D01*
X100902Y-12710D01*
X101404Y-12986D01*
X101936Y-13198D01*
X102492Y-13340D01*
G37*
G36*
X653672Y-13340D02*
X654242Y-13412D01*
X654814D01*
X655382Y-13340D01*
X655938Y-13198D01*
X656470Y-12986D01*
X656972Y-12710D01*
X657436Y-12374D01*
X657854Y-11982D01*
X658218Y-11540D01*
X658526Y-11056D01*
X658736Y-10608D01*
X658826Y-10486D01*
X658952Y-10406D01*
X659098Y-10378D01*
X675546D01*
X675694Y-10406D01*
X675820Y-10486D01*
X675908Y-10608D01*
X676120Y-11056D01*
X676428Y-11540D01*
X676792Y-11982D01*
X677210Y-12374D01*
X677674Y-12710D01*
X678176Y-12986D01*
X678708Y-13198D01*
X679264Y-13340D01*
X679832Y-13412D01*
X680404D01*
X680974Y-13340D01*
X681528Y-13198D01*
X682060Y-12986D01*
X682562Y-12710D01*
X683026Y-12374D01*
X683444Y-11982D01*
X683810Y-11540D01*
X684116Y-11056D01*
X684360Y-10538D01*
X684538Y-09992D01*
X684644Y-09430D01*
X684680Y-08858D01*
X684644Y-08286D01*
X684538Y-07724D01*
X684360Y-07178D01*
X684116Y-06660D01*
X683810Y-06176D01*
X683444Y-05736D01*
X683026Y-05342D01*
X682562Y-05006D01*
X682060Y-04730D01*
X681528Y-04520D01*
X680974Y-04376D01*
X680404Y-04304D01*
X679832D01*
X679264Y-04376D01*
X678708Y-04520D01*
X678176Y-04730D01*
X677674Y-05006D01*
X677210Y-05342D01*
X676792Y-05736D01*
X676428Y-06176D01*
X676120Y-06660D01*
X675910Y-07108D01*
X675822Y-07230D01*
X675694Y-07310D01*
X675548Y-07338D01*
X659098D01*
X658952Y-07310D01*
X658824Y-07230D01*
X658736Y-07108D01*
X658526Y-06660D01*
X658218Y-06176D01*
X657854Y-05736D01*
X657436Y-05342D01*
X656972Y-05006D01*
X656470Y-04730D01*
X655938Y-04520D01*
X655382Y-04376D01*
X654814Y-04304D01*
X654242D01*
X653672Y-04376D01*
X653118Y-04520D01*
X652584Y-04730D01*
X652082Y-05006D01*
X651620Y-05342D01*
X651202Y-05736D01*
X650836Y-06176D01*
X650530Y-06660D01*
X650286Y-07178D01*
X650108Y-07724D01*
X650002Y-08286D01*
X649966Y-08858D01*
X650002Y-09430D01*
X650108Y-09992D01*
X650286Y-10538D01*
X650530Y-11056D01*
X650836Y-11540D01*
X651202Y-11982D01*
X651620Y-12374D01*
X652082Y-12710D01*
X652584Y-12986D01*
X653118Y-13198D01*
X653672Y-13340D01*
G37*
G36*
X309184Y-13340D02*
X309752Y-13412D01*
X310326D01*
X310894Y-13340D01*
X311450Y-13198D01*
X311982Y-12986D01*
X312484Y-12710D01*
X312948Y-12374D01*
X313366Y-11982D01*
X313730Y-11540D01*
X314038Y-11056D01*
X314248Y-10608D01*
X314336Y-10486D01*
X314464Y-10406D01*
X314610Y-10378D01*
X331058D01*
X331206Y-10406D01*
X331332Y-10486D01*
X331420Y-10608D01*
X331632Y-11056D01*
X331938Y-11540D01*
X332304Y-11982D01*
X332722Y-12374D01*
X333186Y-12710D01*
X333688Y-12986D01*
X334220Y-13198D01*
X334776Y-13340D01*
X335344Y-13412D01*
X335916D01*
X336484Y-13340D01*
X337040Y-13198D01*
X337572Y-12986D01*
X338074Y-12710D01*
X338538Y-12374D01*
X338956Y-11982D01*
X339322Y-11540D01*
X339628Y-11056D01*
X339872Y-10538D01*
X340050Y-09992D01*
X340156Y-09430D01*
X340192Y-08858D01*
X340156Y-08286D01*
X340050Y-07724D01*
X339872Y-07178D01*
X339628Y-06660D01*
X339322Y-06176D01*
X338956Y-05736D01*
X338538Y-05342D01*
X338074Y-05006D01*
X337572Y-04730D01*
X337040Y-04520D01*
X336484Y-04376D01*
X335916Y-04304D01*
X335344D01*
X334776Y-04376D01*
X334220Y-04520D01*
X333688Y-04730D01*
X333186Y-05006D01*
X332722Y-05342D01*
X332304Y-05736D01*
X331938Y-06176D01*
X331632Y-06660D01*
X331422Y-07108D01*
X331334Y-07230D01*
X331206Y-07310D01*
X331060Y-07338D01*
X314610D01*
X314462Y-07310D01*
X314336Y-07230D01*
X314248Y-07108D01*
X314038Y-06660D01*
X313730Y-06176D01*
X313366Y-05736D01*
X312948Y-05342D01*
X312484Y-05006D01*
X311982Y-04730D01*
X311450Y-04520D01*
X310894Y-04376D01*
X310326Y-04304D01*
X309752D01*
X309184Y-04376D01*
X308630Y-04520D01*
X308096Y-04730D01*
X307594Y-05006D01*
X307132Y-05342D01*
X306714Y-05736D01*
X306348Y-06176D01*
X306042Y-06660D01*
X305798Y-07178D01*
X305620Y-07724D01*
X305512Y-08286D01*
X305476Y-08858D01*
X305512Y-09430D01*
X305620Y-09992D01*
X305798Y-10538D01*
X306042Y-11056D01*
X306348Y-11540D01*
X306714Y-11982D01*
X307132Y-12374D01*
X307594Y-12710D01*
X308096Y-12986D01*
X308630Y-13198D01*
X309184Y-13340D01*
G37*
G36*
X171390Y-13340D02*
X171958Y-13412D01*
X172530D01*
X173100Y-13340D01*
X173654Y-13198D01*
X174186Y-12986D01*
X174688Y-12710D01*
X175152Y-12374D01*
X175570Y-11982D01*
X175936Y-11540D01*
X176242Y-11056D01*
X176454Y-10608D01*
X176542Y-10486D01*
X176668Y-10406D01*
X176816Y-10378D01*
X193264D01*
X193410Y-10406D01*
X193538Y-10486D01*
X193626Y-10608D01*
X193836Y-11056D01*
X194144Y-11540D01*
X194508Y-11982D01*
X194926Y-12374D01*
X195390Y-12710D01*
X195892Y-12986D01*
X196424Y-13198D01*
X196980Y-13340D01*
X197548Y-13412D01*
X198122D01*
X198690Y-13340D01*
X199244Y-13198D01*
X199778Y-12986D01*
X200280Y-12710D01*
X200742Y-12374D01*
X201160Y-11982D01*
X201526Y-11540D01*
X201832Y-11056D01*
X202076Y-10538D01*
X202254Y-09992D01*
X202362Y-09430D01*
X202398Y-08858D01*
X202362Y-08286D01*
X202254Y-07724D01*
X202076Y-07178D01*
X201832Y-06660D01*
X201526Y-06176D01*
X201160Y-05736D01*
X200742Y-05342D01*
X200280Y-05006D01*
X199778Y-04730D01*
X199244Y-04520D01*
X198690Y-04376D01*
X198122Y-04304D01*
X197548D01*
X196980Y-04376D01*
X196424Y-04520D01*
X195892Y-04730D01*
X195390Y-05006D01*
X194926Y-05342D01*
X194508Y-05736D01*
X194144Y-06176D01*
X193836Y-06660D01*
X193626Y-07108D01*
X193538Y-07230D01*
X193412Y-07310D01*
X193264Y-07338D01*
X176814D01*
X176668Y-07310D01*
X176542Y-07230D01*
X176452Y-07108D01*
X176242Y-06660D01*
X175936Y-06176D01*
X175570Y-05736D01*
X175152Y-05342D01*
X174688Y-05006D01*
X174186Y-04730D01*
X173654Y-04520D01*
X173100Y-04376D01*
X172530Y-04304D01*
X171958D01*
X171390Y-04376D01*
X170834Y-04520D01*
X170302Y-04730D01*
X169800Y-05006D01*
X169336Y-05342D01*
X168918Y-05736D01*
X168552Y-06176D01*
X168246Y-06660D01*
X168002Y-07178D01*
X167824Y-07724D01*
X167718Y-08286D01*
X167682Y-08858D01*
X167718Y-09430D01*
X167824Y-09992D01*
X168002Y-10538D01*
X168246Y-11056D01*
X168552Y-11540D01*
X168918Y-11982D01*
X169336Y-12374D01*
X169800Y-12710D01*
X170302Y-12986D01*
X170834Y-13198D01*
X171390Y-13340D01*
G37*
G36*
X791468Y-13340D02*
X792036Y-13412D01*
X792610D01*
X793178Y-13340D01*
X793732Y-13198D01*
X794266Y-12986D01*
X794768Y-12710D01*
X795232Y-12374D01*
X795648Y-11982D01*
X796014Y-11540D01*
X796320Y-11056D01*
X796532Y-10608D01*
X796620Y-10486D01*
X796746Y-10406D01*
X796894Y-10378D01*
X813342D01*
X813490Y-10406D01*
X813616Y-10486D01*
X813704Y-10608D01*
X813916Y-11056D01*
X814222Y-11540D01*
X814588Y-11982D01*
X815006Y-12374D01*
X815468Y-12710D01*
X815970Y-12986D01*
X816504Y-13198D01*
X817058Y-13340D01*
X817626Y-13412D01*
X818200D01*
X818768Y-13340D01*
X819324Y-13198D01*
X819856Y-12986D01*
X820358Y-12710D01*
X820822Y-12374D01*
X821240Y-11982D01*
X821604Y-11540D01*
X821912Y-11056D01*
X822156Y-10538D01*
X822332Y-09992D01*
X822440Y-09430D01*
X822476Y-08858D01*
X822440Y-08286D01*
X822332Y-07724D01*
X822156Y-07178D01*
X821912Y-06660D01*
X821604Y-06176D01*
X821240Y-05736D01*
X820822Y-05342D01*
X820358Y-05006D01*
X819856Y-04730D01*
X819324Y-04520D01*
X818768Y-04376D01*
X818200Y-04304D01*
X817626D01*
X817058Y-04376D01*
X816504Y-04520D01*
X815970Y-04730D01*
X815468Y-05006D01*
X815006Y-05342D01*
X814588Y-05736D01*
X814222Y-06176D01*
X813916Y-06660D01*
X813704Y-07108D01*
X813616Y-07230D01*
X813490Y-07310D01*
X813342Y-07338D01*
X796894D01*
X796746Y-07310D01*
X796620Y-07230D01*
X796532Y-07108D01*
X796320Y-06660D01*
X796014Y-06176D01*
X795648Y-05736D01*
X795232Y-05342D01*
X794768Y-05006D01*
X794266Y-04730D01*
X793732Y-04520D01*
X793178Y-04376D01*
X792610Y-04304D01*
X792036D01*
X791468Y-04376D01*
X790912Y-04520D01*
X790380Y-04730D01*
X789878Y-05006D01*
X789414Y-05342D01*
X788996Y-05736D01*
X788632Y-06176D01*
X788324Y-06660D01*
X788080Y-07178D01*
X787904Y-07724D01*
X787796Y-08286D01*
X787760Y-08858D01*
X787796Y-09430D01*
X787904Y-09992D01*
X788080Y-10538D01*
X788324Y-11056D01*
X788632Y-11540D01*
X788996Y-11982D01*
X789414Y-12374D01*
X789878Y-12710D01*
X790380Y-12986D01*
X790912Y-13198D01*
X791468Y-13340D01*
G37*
G36*
X378082Y-13340D02*
X378650Y-13412D01*
X379224D01*
X379792Y-13340D01*
X380346Y-13198D01*
X380880Y-12986D01*
X381382Y-12710D01*
X381846Y-12374D01*
X382262Y-11982D01*
X382628Y-11540D01*
X382936Y-11056D01*
X383146Y-10608D01*
X383234Y-10486D01*
X383362Y-10406D01*
X383508Y-10378D01*
X399956D01*
X400104Y-10406D01*
X400230Y-10486D01*
X400318Y-10608D01*
X400530Y-11056D01*
X400836Y-11540D01*
X401202Y-11982D01*
X401620Y-12374D01*
X402082Y-12710D01*
X402584Y-12986D01*
X403118Y-13198D01*
X403672Y-13340D01*
X404242Y-13412D01*
X404814D01*
X405382Y-13340D01*
X405938Y-13198D01*
X406470Y-12986D01*
X406972Y-12710D01*
X407436Y-12374D01*
X407854Y-11982D01*
X408218Y-11540D01*
X408526Y-11056D01*
X408770Y-10538D01*
X408946Y-09992D01*
X409054Y-09430D01*
X409090Y-08858D01*
X409054Y-08286D01*
X408946Y-07724D01*
X408770Y-07178D01*
X408526Y-06660D01*
X408218Y-06176D01*
X407854Y-05736D01*
X407436Y-05342D01*
X406972Y-05006D01*
X406470Y-04730D01*
X405938Y-04520D01*
X405382Y-04376D01*
X404814Y-04304D01*
X404242D01*
X403672Y-04376D01*
X403118Y-04520D01*
X402584Y-04730D01*
X402082Y-05006D01*
X401620Y-05342D01*
X401202Y-05736D01*
X400836Y-06176D01*
X400530Y-06660D01*
X400318Y-07108D01*
X400230Y-07230D01*
X400104Y-07310D01*
X399956Y-07338D01*
X383508D01*
X383360Y-07310D01*
X383234Y-07230D01*
X383146Y-07108D01*
X382936Y-06660D01*
X382628Y-06176D01*
X382262Y-05736D01*
X381846Y-05342D01*
X381382Y-05006D01*
X380880Y-04730D01*
X380346Y-04520D01*
X379792Y-04376D01*
X379224Y-04304D01*
X378650D01*
X378082Y-04376D01*
X377528Y-04520D01*
X376994Y-04730D01*
X376492Y-05006D01*
X376028Y-05342D01*
X375612Y-05736D01*
X375246Y-06176D01*
X374938Y-06660D01*
X374694Y-07178D01*
X374518Y-07724D01*
X374410Y-08286D01*
X374374Y-08858D01*
X374410Y-09430D01*
X374518Y-09992D01*
X374694Y-10538D01*
X374938Y-11056D01*
X375246Y-11540D01*
X375612Y-11982D01*
X376028Y-12374D01*
X376492Y-12710D01*
X376994Y-12986D01*
X377528Y-13198D01*
X378082Y-13340D01*
G37*
G36*
X722570Y-13340D02*
X723138Y-13412D01*
X723712D01*
X724280Y-13340D01*
X724836Y-13198D01*
X725368Y-12986D01*
X725870Y-12710D01*
X726334Y-12374D01*
X726752Y-11982D01*
X727116Y-11540D01*
X727424Y-11056D01*
X727634Y-10608D01*
X727722Y-10486D01*
X727850Y-10406D01*
X727996Y-10378D01*
X744444D01*
X744592Y-10406D01*
X744718Y-10486D01*
X744806Y-10608D01*
X745018Y-11056D01*
X745324Y-11540D01*
X745690Y-11982D01*
X746108Y-12374D01*
X746572Y-12710D01*
X747074Y-12986D01*
X747606Y-13198D01*
X748160Y-13340D01*
X748730Y-13412D01*
X749302D01*
X749870Y-13340D01*
X750426Y-13198D01*
X750958Y-12986D01*
X751460Y-12710D01*
X751924Y-12374D01*
X752342Y-11982D01*
X752706Y-11540D01*
X753014Y-11056D01*
X753258Y-10538D01*
X753434Y-09992D01*
X753542Y-09430D01*
X753578Y-08858D01*
X753542Y-08286D01*
X753434Y-07724D01*
X753258Y-07178D01*
X753014Y-06660D01*
X752706Y-06176D01*
X752342Y-05736D01*
X751924Y-05342D01*
X751460Y-05006D01*
X750958Y-04730D01*
X750426Y-04520D01*
X749870Y-04376D01*
X749302Y-04304D01*
X748730D01*
X748160Y-04376D01*
X747606Y-04520D01*
X747074Y-04730D01*
X746572Y-05006D01*
X746108Y-05342D01*
X745690Y-05736D01*
X745324Y-06176D01*
X745018Y-06660D01*
X744806Y-07108D01*
X744718Y-07230D01*
X744592Y-07310D01*
X744444Y-07338D01*
X727996D01*
X727848Y-07310D01*
X727722Y-07230D01*
X727634Y-07108D01*
X727424Y-06660D01*
X727116Y-06176D01*
X726752Y-05736D01*
X726334Y-05342D01*
X725870Y-05006D01*
X725368Y-04730D01*
X724836Y-04520D01*
X724280Y-04376D01*
X723712Y-04304D01*
X723138D01*
X722570Y-04376D01*
X722016Y-04520D01*
X721482Y-04730D01*
X720980Y-05006D01*
X720516Y-05342D01*
X720100Y-05736D01*
X719734Y-06176D01*
X719428Y-06660D01*
X719184Y-07178D01*
X719006Y-07724D01*
X718898Y-08286D01*
X718862Y-08858D01*
X718898Y-09430D01*
X719006Y-09992D01*
X719184Y-10538D01*
X719428Y-11056D01*
X719734Y-11540D01*
X720100Y-11982D01*
X720516Y-12374D01*
X720980Y-12710D01*
X721482Y-12986D01*
X722016Y-13198D01*
X722570Y-13340D01*
G37*
G36*
X149038Y-09526D02*
X149610Y-09562D01*
X150182Y-09526D01*
X150744Y-09420D01*
X151290Y-09242D01*
X151808Y-08998D01*
X152292Y-08692D01*
X152734Y-08326D01*
X153126Y-07908D01*
X153462Y-07444D01*
X153738Y-06942D01*
X153950Y-06410D01*
X154092Y-05854D01*
X154164Y-05286D01*
Y-04714D01*
X154092Y-04146D01*
X153950Y-03590D01*
X153738Y-03058D01*
X153462Y-02556D01*
X153126Y-02092D01*
X152734Y-01674D01*
X152292Y-01308D01*
X151808Y-01002D01*
X151290Y-00758D01*
X150744Y-00580D01*
X150182Y-00474D01*
X149610Y-00438D01*
X149038Y-00474D01*
X148476Y-00580D01*
X147930Y-00758D01*
X147412Y-01002D01*
X146928Y-01308D01*
X146486Y-01674D01*
X146094Y-02092D01*
X145758Y-02556D01*
X145482Y-03058D01*
X145270Y-03590D01*
X145128Y-04146D01*
X145056Y-04714D01*
Y-05286D01*
X145128Y-05854D01*
X145270Y-06410D01*
X145482Y-06942D01*
X145758Y-07444D01*
X146094Y-07908D01*
X146486Y-08326D01*
X146928Y-08692D01*
X147412Y-08998D01*
X147930Y-09242D01*
X148476Y-09420D01*
X149038Y-09526D01*
G37*
G36*
X293798Y-09526D02*
X294370Y-09562D01*
X294942Y-09526D01*
X295504Y-09420D01*
X296050Y-09242D01*
X296568Y-08998D01*
X297052Y-08692D01*
X297494Y-08326D01*
X297886Y-07908D01*
X298222Y-07444D01*
X298498Y-06942D01*
X298710Y-06410D01*
X298852Y-05854D01*
X298924Y-05286D01*
Y-04714D01*
X298852Y-04146D01*
X298710Y-03590D01*
X298498Y-03058D01*
X298222Y-02556D01*
X297886Y-02092D01*
X297494Y-01674D01*
X297052Y-01308D01*
X296568Y-01002D01*
X296050Y-00758D01*
X295504Y-00580D01*
X294942Y-00474D01*
X294370Y-00438D01*
X293798Y-00474D01*
X293236Y-00580D01*
X292690Y-00758D01*
X292172Y-01002D01*
X291688Y-01308D01*
X291246Y-01674D01*
X290854Y-02092D01*
X290518Y-02556D01*
X290242Y-03058D01*
X290030Y-03590D01*
X289888Y-04146D01*
X289816Y-04714D01*
Y-05286D01*
X289888Y-05854D01*
X290030Y-06410D01*
X290242Y-06942D01*
X290518Y-07444D01*
X290854Y-07908D01*
X291246Y-08326D01*
X291688Y-08692D01*
X292172Y-08998D01*
X292690Y-09242D01*
X293236Y-09420D01*
X293798Y-09526D01*
G37*
G36*
X283798Y-09526D02*
X284370Y-09562D01*
X284942Y-09526D01*
X285504Y-09420D01*
X286050Y-09242D01*
X286568Y-08998D01*
X287052Y-08692D01*
X287494Y-08326D01*
X287886Y-07908D01*
X288222Y-07444D01*
X288498Y-06942D01*
X288710Y-06410D01*
X288852Y-05854D01*
X288924Y-05286D01*
Y-04714D01*
X288852Y-04146D01*
X288710Y-03590D01*
X288498Y-03058D01*
X288222Y-02556D01*
X287886Y-02092D01*
X287494Y-01674D01*
X287052Y-01308D01*
X286568Y-01002D01*
X286050Y-00758D01*
X285504Y-00580D01*
X284942Y-00474D01*
X284370Y-00438D01*
X283798Y-00474D01*
X283236Y-00580D01*
X282690Y-00758D01*
X282172Y-01002D01*
X281688Y-01308D01*
X281246Y-01674D01*
X280854Y-02092D01*
X280518Y-02556D01*
X280242Y-03058D01*
X280030Y-03590D01*
X279888Y-04146D01*
X279816Y-04714D01*
Y-05286D01*
X279888Y-05854D01*
X280030Y-06410D01*
X280242Y-06942D01*
X280518Y-07444D01*
X280854Y-07908D01*
X281246Y-08326D01*
X281688Y-08692D01*
X282172Y-08998D01*
X282690Y-09242D01*
X283236Y-09420D01*
X283798Y-09526D01*
G37*
G36*
X843822Y-05904D02*
X844488Y-05940D01*
X845154Y-05904D01*
X845810Y-05792D01*
X846450Y-05608D01*
X847066Y-05352D01*
X847648Y-05030D01*
X848192Y-04644D01*
X848688Y-04200D01*
X849132Y-03704D01*
X849518Y-03160D01*
X849840Y-02578D01*
X850096Y-01962D01*
X850280Y-01322D01*
X850392Y-00666D01*
X850428Y0D01*
X850392Y666D01*
X850280Y1322D01*
X850096Y1962D01*
X849840Y2578D01*
X849518Y3160D01*
X849132Y3704D01*
X848688Y4200D01*
X848192Y4644D01*
X847648Y5030D01*
X847066Y5352D01*
X846450Y5608D01*
X845810Y5792D01*
X845154Y5904D01*
X844488Y5940D01*
X843822Y5904D01*
X843166Y5792D01*
X842526Y5608D01*
X841910Y5352D01*
X841328Y5030D01*
X840784Y4644D01*
X840288Y4200D01*
X839844Y3704D01*
X839458Y3160D01*
X839136Y2578D01*
X838880Y1962D01*
X838696Y1322D01*
X838584Y666D01*
X838548Y0D01*
X838584Y-00666D01*
X838696Y-01322D01*
X838880Y-01962D01*
X839136Y-02578D01*
X839458Y-03160D01*
X839844Y-03704D01*
X840288Y-04200D01*
X840784Y-04644D01*
X841328Y-05030D01*
X841910Y-05352D01*
X842526Y-05608D01*
X843166Y-05792D01*
X843822Y-05904D01*
G37*
G36*
X7208Y-05904D02*
X7874Y-05940D01*
X8540Y-05904D01*
X9196Y-05792D01*
X9836Y-05608D01*
X10452Y-05352D01*
X11034Y-05030D01*
X11578Y-04644D01*
X12074Y-04200D01*
X12518Y-03704D01*
X12904Y-03160D01*
X13226Y-02578D01*
X13482Y-01962D01*
X13666Y-01322D01*
X13778Y-00666D01*
X13814Y0D01*
X13778Y666D01*
X13666Y1322D01*
X13482Y1962D01*
X13226Y2578D01*
X12904Y3160D01*
X12518Y3704D01*
X12074Y4200D01*
X11578Y4644D01*
X11034Y5030D01*
X10452Y5352D01*
X9836Y5608D01*
X9196Y5792D01*
X8540Y5904D01*
X7874Y5940D01*
X7208Y5904D01*
X6552Y5792D01*
X5912Y5608D01*
X5296Y5352D01*
X4714Y5030D01*
X4170Y4644D01*
X3674Y4200D01*
X3230Y3704D01*
X2844Y3160D01*
X2522Y2578D01*
X2266Y1962D01*
X2082Y1322D01*
X1970Y666D01*
X1934Y0D01*
X1970Y-00666D01*
X2082Y-01322D01*
X2266Y-01962D01*
X2522Y-02578D01*
X2844Y-03160D01*
X3230Y-03704D01*
X3674Y-04200D01*
X4170Y-04644D01*
X4714Y-05030D01*
X5296Y-05352D01*
X5912Y-05608D01*
X6552Y-05792D01*
X7208Y-05904D01*
G37*
G36*
X73652Y-04182D02*
X73900Y-04210D01*
X79702D01*
X79950Y-04182D01*
X80166Y-04106D01*
X80358Y-03984D01*
X80520Y-03824D01*
X80642Y-03630D01*
X80716Y-03416D01*
X80744Y-03166D01*
Y3166D01*
X80716Y3416D01*
X80642Y3630D01*
X80520Y3824D01*
X80358Y3984D01*
X80166Y4106D01*
X79950Y4180D01*
X79702Y4208D01*
X73900D01*
X73652Y4180D01*
X73436Y4106D01*
X73244Y3984D01*
X73082Y3824D01*
X72962Y3630D01*
X72886Y3416D01*
X72858Y3166D01*
Y2584D01*
X72824Y2424D01*
X72728Y2290D01*
X72586Y2206D01*
X72424Y2186D01*
X72040Y2220D01*
X71654Y2186D01*
X71280Y2086D01*
X70930Y1922D01*
X70614Y1700D01*
X70340Y1426D01*
X70118Y1110D01*
X69954Y760D01*
X69854Y386D01*
X69820Y0D01*
X69854Y-00386D01*
X69954Y-00758D01*
X70118Y-01110D01*
X70340Y-01426D01*
X70614Y-01700D01*
X70930Y-01922D01*
X71280Y-02086D01*
X71654Y-02186D01*
X72040Y-02220D01*
X72424Y-02186D01*
X72586Y-02206D01*
X72728Y-02290D01*
X72824Y-02422D01*
X72858Y-02584D01*
Y-03166D01*
X72886Y-03416D01*
X72962Y-03630D01*
X73082Y-03824D01*
X73244Y-03984D01*
X73436Y-04106D01*
X73652Y-04182D01*
G37*
G36*
X211476Y-04182D02*
X211726Y-04210D01*
X217526D01*
X217776Y-04182D01*
X217990Y-04106D01*
X218184Y-03984D01*
X218344Y-03824D01*
X218466Y-03630D01*
X218542Y-03416D01*
X218570Y-03166D01*
Y2596D01*
X218596Y2740D01*
X218672Y2864D01*
X218786Y2952D01*
X219300Y3094D01*
X219650Y3258D01*
X219966Y3480D01*
X220240Y3754D01*
X220462Y4070D01*
X220626Y4422D01*
X220726Y4794D01*
X220760Y5180D01*
X220726Y5566D01*
X220626Y5940D01*
X220462Y6290D01*
X220240Y6606D01*
X219966Y6880D01*
X219650Y7102D01*
X219300Y7266D01*
X218926Y7366D01*
X218540Y7400D01*
X218154Y7366D01*
X217780Y7266D01*
X217430Y7102D01*
X217114Y6880D01*
X216840Y6606D01*
X216618Y6290D01*
X216502Y6040D01*
X216414Y5918D01*
X216286Y5836D01*
X216138Y5808D01*
X214646D01*
X214330Y5778D01*
X214046Y5690D01*
X213782Y5550D01*
X213552Y5362D01*
X213364Y5132D01*
X213224Y4870D01*
X213094Y4430D01*
X213006Y4312D01*
X212882Y4236D01*
X212738Y4208D01*
X211726D01*
X211476Y4180D01*
X211262Y4106D01*
X211068Y3984D01*
X210908Y3824D01*
X210786Y3630D01*
X210710Y3416D01*
X210682Y3166D01*
Y-03166D01*
X210710Y-03416D01*
X210786Y-03630D01*
X210908Y-03824D01*
X211068Y-03984D01*
X211262Y-04106D01*
X211476Y-04182D01*
G37*
G36*
X145840Y464D02*
X146090Y436D01*
X153130D01*
X153380Y464D01*
X153594Y540D01*
X153788Y662D01*
X153948Y822D01*
X154070Y1016D01*
X154146Y1230D01*
X154174Y1480D01*
Y8520D01*
X154146Y8770D01*
X154070Y8984D01*
X153948Y9178D01*
X153788Y9338D01*
X153594Y9460D01*
X153380Y9536D01*
X153130Y9564D01*
X146090D01*
X145840Y9536D01*
X145626Y9460D01*
X145432Y9338D01*
X145272Y9178D01*
X145150Y8984D01*
X145074Y8770D01*
X145046Y8520D01*
Y1480D01*
X145074Y1230D01*
X145150Y1016D01*
X145272Y822D01*
X145432Y662D01*
X145626Y540D01*
X145840Y464D01*
G37*
G36*
X283798Y474D02*
X284370Y438D01*
X284942Y474D01*
X285504Y580D01*
X286050Y758D01*
X286568Y1002D01*
X287052Y1308D01*
X287494Y1674D01*
X287886Y2092D01*
X288222Y2556D01*
X288498Y3058D01*
X288710Y3590D01*
X288852Y4146D01*
X288924Y4714D01*
Y5286D01*
X288852Y5854D01*
X288710Y6410D01*
X288498Y6942D01*
X288222Y7444D01*
X287886Y7908D01*
X287494Y8326D01*
X287052Y8692D01*
X286568Y8998D01*
X286050Y9242D01*
X285504Y9420D01*
X284942Y9526D01*
X284370Y9562D01*
X283798Y9526D01*
X283236Y9420D01*
X282690Y9242D01*
X282172Y8998D01*
X281688Y8692D01*
X281246Y8326D01*
X280854Y7908D01*
X280518Y7444D01*
X280242Y6942D01*
X280030Y6410D01*
X279888Y5854D01*
X279816Y5286D01*
Y4714D01*
X279888Y4146D01*
X280030Y3590D01*
X280242Y3058D01*
X280518Y2556D01*
X280854Y2092D01*
X281246Y1674D01*
X281688Y1308D01*
X282172Y1002D01*
X282690Y758D01*
X283236Y580D01*
X283798Y474D01*
G37*
G36*
X293798Y474D02*
X294370Y438D01*
X294942Y474D01*
X295504Y580D01*
X296050Y758D01*
X296568Y1002D01*
X297052Y1308D01*
X297494Y1674D01*
X297886Y2092D01*
X298222Y2556D01*
X298498Y3058D01*
X298710Y3590D01*
X298852Y4146D01*
X298924Y4714D01*
Y5286D01*
X298852Y5854D01*
X298710Y6410D01*
X298498Y6942D01*
X298222Y7444D01*
X297886Y7908D01*
X297494Y8326D01*
X297052Y8692D01*
X296568Y8998D01*
X296050Y9242D01*
X295504Y9420D01*
X294942Y9526D01*
X294370Y9562D01*
X293798Y9526D01*
X293236Y9420D01*
X292690Y9242D01*
X292172Y8998D01*
X291688Y8692D01*
X291246Y8326D01*
X290854Y7908D01*
X290518Y7444D01*
X290242Y6942D01*
X290030Y6410D01*
X289888Y5854D01*
X289816Y5286D01*
Y4714D01*
X289888Y4146D01*
X290030Y3590D01*
X290242Y3058D01*
X290518Y2556D01*
X290854Y2092D01*
X291246Y1674D01*
X291688Y1308D01*
X292172Y1002D01*
X292690Y758D01*
X293236Y580D01*
X293798Y474D01*
G37*
G36*
X57594Y5006D02*
X58018Y4774D01*
Y6836D01*
X55958D01*
X56042Y6660D01*
X56348Y6176D01*
X56714Y5736D01*
X57132Y5342D01*
X57594Y5006D01*
G37*
G36*
X62062Y6836D02*
Y4774D01*
X62484Y5006D01*
X62948Y5342D01*
X63366Y5736D01*
X63730Y6176D01*
X64038Y6660D01*
X64120Y6836D01*
X62062D01*
G37*
G36*
X36470Y6836D02*
Y4774D01*
X36894Y5006D01*
X37358Y5342D01*
X37774Y5736D01*
X38140Y6176D01*
X38446Y6660D01*
X38530Y6836D01*
X36470D01*
G37*
G36*
X32004Y5006D02*
X32428Y4774D01*
Y6836D01*
X30368D01*
X30450Y6660D01*
X30758Y6176D01*
X31122Y5736D01*
X31540Y5342D01*
X32004Y5006D01*
G37*
G36*
X475446Y6836D02*
Y4774D01*
X475870Y5006D01*
X476334Y5342D01*
X476752Y5736D01*
X477116Y6176D01*
X477424Y6660D01*
X477506Y6836D01*
X475446D01*
G37*
G36*
X789878Y5006D02*
X790302Y4774D01*
Y6836D01*
X788242D01*
X788324Y6660D01*
X788632Y6176D01*
X788996Y5736D01*
X789414Y5342D01*
X789878Y5006D01*
G37*
G36*
X720980Y5006D02*
X721404Y4774D01*
Y6836D01*
X719344D01*
X719428Y6660D01*
X719734Y6176D01*
X720100Y5736D01*
X720516Y5342D01*
X720980Y5006D01*
G37*
G36*
X105368Y6836D02*
Y4774D01*
X105792Y5006D01*
X106254Y5342D01*
X106672Y5736D01*
X107038Y6176D01*
X107344Y6660D01*
X107428Y6836D01*
X105368D01*
G37*
G36*
X518754Y6836D02*
Y4774D01*
X519178Y5006D01*
X519640Y5342D01*
X520058Y5736D01*
X520424Y6176D01*
X520730Y6660D01*
X520814Y6836D01*
X518754D01*
G37*
G36*
X682140Y6836D02*
Y4774D01*
X682562Y5006D01*
X683026Y5342D01*
X683444Y5736D01*
X683810Y6176D01*
X684116Y6660D01*
X684200Y6836D01*
X682140D01*
G37*
G36*
X470980Y5006D02*
X471404Y4774D01*
Y6836D01*
X469344D01*
X469428Y6660D01*
X469734Y6176D01*
X470100Y5736D01*
X470516Y5342D01*
X470980Y5006D01*
G37*
G36*
X380958Y6836D02*
Y4774D01*
X381382Y5006D01*
X381846Y5342D01*
X382262Y5736D01*
X382628Y6176D01*
X382936Y6660D01*
X383018Y6836D01*
X380958D01*
G37*
G36*
X264288Y5006D02*
X264710Y4774D01*
Y6836D01*
X262652D01*
X262734Y6660D01*
X263042Y6176D01*
X263406Y5736D01*
X263824Y5342D01*
X264288Y5006D01*
G37*
G36*
X312062Y6836D02*
Y4774D01*
X312484Y5006D01*
X312948Y5342D01*
X313366Y5736D01*
X313730Y6176D01*
X314038Y6660D01*
X314120Y6836D01*
X312062D01*
G37*
G36*
X587652Y6836D02*
Y4774D01*
X588074Y5006D01*
X588538Y5342D01*
X588956Y5736D01*
X589322Y6176D01*
X589628Y6660D01*
X589712Y6836D01*
X587652D01*
G37*
G36*
X243164Y6836D02*
Y4774D01*
X243586Y5006D01*
X244050Y5342D01*
X244468Y5736D01*
X244832Y6176D01*
X245140Y6660D01*
X245222Y6836D01*
X243164D01*
G37*
G36*
X449856Y6836D02*
Y4774D01*
X450280Y5006D01*
X450742Y5342D01*
X451160Y5736D01*
X451526Y6176D01*
X451832Y6660D01*
X451916Y6836D01*
X449856D01*
G37*
G36*
X402082Y5006D02*
X402506Y4774D01*
Y6836D01*
X400446D01*
X400530Y6660D01*
X400836Y6176D01*
X401202Y5736D01*
X401620Y5342D01*
X402082Y5006D01*
G37*
G36*
X195390Y5006D02*
X195814Y4774D01*
Y6836D01*
X193754D01*
X193836Y6660D01*
X194144Y6176D01*
X194508Y5736D01*
X194926Y5342D01*
X195390Y5006D01*
G37*
G36*
X608776Y5006D02*
X609198Y4774D01*
Y6836D01*
X607140D01*
X607222Y6660D01*
X607530Y6176D01*
X607894Y5736D01*
X608312Y5342D01*
X608776Y5006D01*
G37*
G36*
X268754Y6836D02*
Y4774D01*
X269178Y5006D01*
X269640Y5342D01*
X270058Y5736D01*
X270424Y6176D01*
X270730Y6660D01*
X270814Y6836D01*
X268754D01*
G37*
G36*
X307594Y5006D02*
X308018Y4774D01*
Y6836D01*
X305958D01*
X306042Y6660D01*
X306348Y6176D01*
X306714Y5736D01*
X307132Y5342D01*
X307594Y5006D01*
G37*
G36*
X746572Y5006D02*
X746994Y4774D01*
Y6836D01*
X744934D01*
X745018Y6660D01*
X745324Y6176D01*
X745690Y5736D01*
X746108Y5342D01*
X746572Y5006D01*
G37*
G36*
X238696Y5006D02*
X239120Y4774D01*
Y6836D01*
X237060D01*
X237144Y6660D01*
X237450Y6176D01*
X237816Y5736D01*
X238234Y5342D01*
X238696Y5006D01*
G37*
G36*
X333186Y5006D02*
X333608Y4774D01*
Y6836D01*
X331548D01*
X331632Y6660D01*
X331938Y6176D01*
X332304Y5736D01*
X332722Y5342D01*
X333186Y5006D01*
G37*
G36*
X199856Y6836D02*
Y4774D01*
X200280Y5006D01*
X200742Y5342D01*
X201160Y5736D01*
X201526Y6176D01*
X201832Y6660D01*
X201916Y6836D01*
X199856D01*
G37*
G36*
X725446Y6836D02*
Y4774D01*
X725870Y5006D01*
X726334Y5342D01*
X726752Y5736D01*
X727116Y6176D01*
X727424Y6660D01*
X727506Y6836D01*
X725446D01*
G37*
G36*
X539878Y5006D02*
X540302Y4774D01*
Y6836D01*
X538242D01*
X538324Y6660D01*
X538632Y6176D01*
X538996Y5736D01*
X539414Y5342D01*
X539878Y5006D01*
G37*
G36*
X677674Y5006D02*
X678096Y4774D01*
Y6836D01*
X676038D01*
X676120Y6660D01*
X676428Y6176D01*
X676792Y5736D01*
X677210Y5342D01*
X677674Y5006D01*
G37*
G36*
X337652Y6836D02*
Y4774D01*
X338074Y5006D01*
X338538Y5342D01*
X338956Y5736D01*
X339322Y6176D01*
X339628Y6660D01*
X339712Y6836D01*
X337652D01*
G37*
G36*
X126492Y5006D02*
X126916Y4774D01*
Y6836D01*
X124856D01*
X124938Y6660D01*
X125246Y6176D01*
X125612Y5736D01*
X126028Y5342D01*
X126492Y5006D01*
G37*
G36*
X514288Y5006D02*
X514710Y4774D01*
Y6836D01*
X512652D01*
X512734Y6660D01*
X513042Y6176D01*
X513406Y5736D01*
X513824Y5342D01*
X514288Y5006D01*
G37*
G36*
X174266Y6836D02*
Y4774D01*
X174688Y5006D01*
X175152Y5342D01*
X175570Y5736D01*
X175936Y6176D01*
X176242Y6660D01*
X176326Y6836D01*
X174266D01*
G37*
G36*
X406550Y6836D02*
Y4774D01*
X406972Y5006D01*
X407436Y5342D01*
X407854Y5736D01*
X408218Y6176D01*
X408526Y6660D01*
X408608Y6836D01*
X406550D01*
G37*
G36*
X376492Y5006D02*
X376916Y4774D01*
Y6836D01*
X374856D01*
X374938Y6660D01*
X375246Y6176D01*
X375612Y5736D01*
X376028Y5342D01*
X376492Y5006D01*
G37*
G36*
X656550Y6836D02*
Y4774D01*
X656972Y5006D01*
X657436Y5342D01*
X657854Y5736D01*
X658218Y6176D01*
X658526Y6660D01*
X658608Y6836D01*
X656550D01*
G37*
G36*
X544344Y6836D02*
Y4774D01*
X544768Y5006D01*
X545232Y5342D01*
X545648Y5736D01*
X546014Y6176D01*
X546322Y6660D01*
X546404Y6836D01*
X544344D01*
G37*
G36*
X815468Y5006D02*
X815892Y4774D01*
Y6836D01*
X813832D01*
X813916Y6660D01*
X814222Y6176D01*
X814588Y5736D01*
X815006Y5342D01*
X815468Y5006D01*
G37*
G36*
X583186Y5006D02*
X583608Y4774D01*
Y6836D01*
X581548D01*
X581632Y6660D01*
X581938Y6176D01*
X582304Y5736D01*
X582722Y5342D01*
X583186Y5006D01*
G37*
G36*
X169800Y5006D02*
X170222Y4774D01*
Y6836D01*
X168162D01*
X168246Y6660D01*
X168552Y6176D01*
X168918Y5736D01*
X169336Y5342D01*
X169800Y5006D01*
G37*
G36*
X100902Y5006D02*
X101324Y4774D01*
Y6836D01*
X99266D01*
X99348Y6660D01*
X99656Y6176D01*
X100020Y5736D01*
X100438Y5342D01*
X100902Y5006D01*
G37*
G36*
X613242Y6836D02*
Y4774D01*
X613666Y5006D01*
X614128Y5342D01*
X614546Y5736D01*
X614912Y6176D01*
X615218Y6660D01*
X615302Y6836D01*
X613242D01*
G37*
G36*
X130958Y6836D02*
Y4774D01*
X131382Y5006D01*
X131846Y5342D01*
X132262Y5736D01*
X132628Y6176D01*
X132936Y6660D01*
X133018Y6836D01*
X130958D01*
G37*
G36*
X819936Y6836D02*
Y4774D01*
X820358Y5006D01*
X820822Y5342D01*
X821240Y5736D01*
X821604Y6176D01*
X821912Y6660D01*
X821994Y6836D01*
X819936D01*
G37*
G36*
X751038Y6836D02*
Y4774D01*
X751460Y5006D01*
X751924Y5342D01*
X752342Y5736D01*
X752706Y6176D01*
X753014Y6660D01*
X753096Y6836D01*
X751038D01*
G37*
G36*
X445390Y5006D02*
X445812Y4774D01*
Y6836D01*
X443754D01*
X443836Y6660D01*
X444144Y6176D01*
X444508Y5736D01*
X444926Y5342D01*
X445390Y5006D01*
G37*
G36*
X794344Y6836D02*
Y4774D01*
X794768Y5006D01*
X795232Y5342D01*
X795648Y5736D01*
X796014Y6176D01*
X796320Y6660D01*
X796404Y6836D01*
X794344D01*
G37*
G36*
X571884Y12978D02*
Y10436D01*
X573284D01*
X573534Y10464D01*
X573748Y10540D01*
X573942Y10662D01*
X574102Y10822D01*
X574224Y11016D01*
X574300Y11230D01*
X574328Y11480D01*
Y12978D01*
X571884D01*
G37*
G36*
X296294Y12978D02*
Y10436D01*
X297694D01*
X297942Y10464D01*
X298158Y10540D01*
X298350Y10662D01*
X298512Y10822D01*
X298634Y11016D01*
X298708Y11230D01*
X298736Y11480D01*
Y12978D01*
X296294D01*
G37*
G36*
X566388Y10464D02*
X566636Y10436D01*
X568038D01*
Y12978D01*
X565594D01*
Y11480D01*
X565622Y11230D01*
X565698Y11016D01*
X565818Y10822D01*
X565980Y10662D01*
X566172Y10540D01*
X566388Y10464D01*
G37*
G36*
X290798Y10464D02*
X291046Y10436D01*
X292446D01*
Y12978D01*
X290004D01*
Y11480D01*
X290032Y11230D01*
X290106Y11016D01*
X290228Y10822D01*
X290390Y10662D01*
X290582Y10540D01*
X290798Y10464D01*
G37*
G36*
X56042Y11056D02*
X55958Y10880D01*
X58018D01*
Y12944D01*
X57594Y12710D01*
X57132Y12374D01*
X56714Y11982D01*
X56348Y11540D01*
X56042Y11056D01*
G37*
G36*
X30450Y11056D02*
X30368Y10880D01*
X32428D01*
Y12944D01*
X32004Y12710D01*
X31540Y12374D01*
X31122Y11982D01*
X30758Y11540D01*
X30450Y11056D01*
G37*
G36*
X36470Y12944D02*
Y10880D01*
X38530D01*
X38446Y11056D01*
X38140Y11540D01*
X37774Y11982D01*
X37358Y12374D01*
X36894Y12710D01*
X36470Y12944D01*
G37*
G36*
X62062Y12944D02*
Y10880D01*
X64120D01*
X64038Y11056D01*
X63730Y11540D01*
X63366Y11982D01*
X62948Y12374D01*
X62484Y12710D01*
X62062Y12944D01*
G37*
G36*
X443836Y11056D02*
X443754Y10880D01*
X445812D01*
Y12944D01*
X445390Y12710D01*
X444926Y12374D01*
X444508Y11982D01*
X444144Y11540D01*
X443836Y11056D01*
G37*
G36*
X406550Y12944D02*
Y10880D01*
X408608D01*
X408526Y11056D01*
X408218Y11540D01*
X407854Y11982D01*
X407436Y12374D01*
X406972Y12710D01*
X406550Y12944D01*
G37*
G36*
X682140Y12944D02*
Y10880D01*
X684200D01*
X684116Y11056D01*
X683810Y11540D01*
X683444Y11982D01*
X683026Y12374D01*
X682562Y12710D01*
X682140Y12944D01*
G37*
G36*
X449856Y12944D02*
Y10880D01*
X451916D01*
X451832Y11056D01*
X451526Y11540D01*
X451160Y11982D01*
X450742Y12374D01*
X450280Y12710D01*
X449856Y12944D01*
G37*
G36*
X168246Y11056D02*
X168162Y10880D01*
X170222D01*
Y12944D01*
X169800Y12710D01*
X169336Y12374D01*
X168918Y11982D01*
X168552Y11540D01*
X168246Y11056D01*
G37*
G36*
X400530Y11056D02*
X400446Y10880D01*
X402506D01*
Y12944D01*
X402082Y12710D01*
X401620Y12374D01*
X401202Y11982D01*
X400836Y11540D01*
X400530Y11056D01*
G37*
G36*
X719428Y11056D02*
X719344Y10880D01*
X721404D01*
Y12944D01*
X720980Y12710D01*
X720516Y12374D01*
X720100Y11982D01*
X719734Y11540D01*
X719428Y11056D01*
G37*
G36*
X130958Y12944D02*
Y10880D01*
X133018D01*
X132936Y11056D01*
X132628Y11540D01*
X132262Y11982D01*
X131846Y12374D01*
X131382Y12710D01*
X130958Y12944D01*
G37*
G36*
X676120Y11056D02*
X676038Y10880D01*
X678096D01*
Y12944D01*
X677674Y12710D01*
X677210Y12374D01*
X676792Y11982D01*
X676428Y11540D01*
X676120Y11056D01*
G37*
G36*
X607222Y11056D02*
X607140Y10880D01*
X609198D01*
Y12944D01*
X608776Y12710D01*
X608312Y12374D01*
X607894Y11982D01*
X607530Y11540D01*
X607222Y11056D01*
G37*
G36*
X469428Y11056D02*
X469344Y10880D01*
X471404D01*
Y12944D01*
X470980Y12710D01*
X470516Y12374D01*
X470100Y11982D01*
X469734Y11540D01*
X469428Y11056D01*
G37*
G36*
X538324Y11056D02*
X538242Y10880D01*
X540302D01*
Y12944D01*
X539878Y12710D01*
X539414Y12374D01*
X538996Y11982D01*
X538632Y11540D01*
X538324Y11056D01*
G37*
G36*
X174266Y12944D02*
Y10880D01*
X176326D01*
X176242Y11056D01*
X175936Y11540D01*
X175570Y11982D01*
X175152Y12374D01*
X174688Y12710D01*
X174266Y12944D01*
G37*
G36*
X243164Y12944D02*
Y10880D01*
X245222D01*
X245140Y11056D01*
X244832Y11540D01*
X244468Y11982D01*
X244050Y12374D01*
X243586Y12710D01*
X243164Y12944D01*
G37*
G36*
X380958Y12944D02*
Y10880D01*
X383018D01*
X382936Y11056D01*
X382628Y11540D01*
X382262Y11982D01*
X381846Y12374D01*
X381382Y12710D01*
X380958Y12944D01*
G37*
G36*
X312062Y12944D02*
Y10880D01*
X314120D01*
X314038Y11056D01*
X313730Y11540D01*
X313366Y11982D01*
X312948Y12374D01*
X312484Y12710D01*
X312062Y12944D01*
G37*
G36*
X725446Y12944D02*
Y10880D01*
X727506D01*
X727424Y11056D01*
X727116Y11540D01*
X726752Y11982D01*
X726334Y12374D01*
X725870Y12710D01*
X725446Y12944D01*
G37*
G36*
X124938Y11056D02*
X124856Y10880D01*
X126916D01*
Y12944D01*
X126492Y12710D01*
X126028Y12374D01*
X125612Y11982D01*
X125246Y11540D01*
X124938Y11056D01*
G37*
G36*
X656550Y12944D02*
Y10880D01*
X658608D01*
X658526Y11056D01*
X658218Y11540D01*
X657854Y11982D01*
X657436Y12374D01*
X656972Y12710D01*
X656550Y12944D01*
G37*
G36*
X475446Y12944D02*
Y10880D01*
X477506D01*
X477424Y11056D01*
X477116Y11540D01*
X476752Y11982D01*
X476334Y12374D01*
X475870Y12710D01*
X475446Y12944D01*
G37*
G36*
X193836Y11056D02*
X193754Y10880D01*
X195814D01*
Y12944D01*
X195390Y12710D01*
X194926Y12374D01*
X194508Y11982D01*
X194144Y11540D01*
X193836Y11056D01*
G37*
G36*
X374938Y11056D02*
X374856Y10880D01*
X376916D01*
Y12944D01*
X376492Y12710D01*
X376028Y12374D01*
X375612Y11982D01*
X375246Y11540D01*
X374938Y11056D01*
G37*
G36*
X745018Y11056D02*
X744934Y10880D01*
X746994D01*
Y12944D01*
X746572Y12710D01*
X746108Y12374D01*
X745690Y11982D01*
X745324Y11540D01*
X745018Y11056D01*
G37*
G36*
X105368Y12944D02*
Y10880D01*
X107428D01*
X107344Y11056D01*
X107038Y11540D01*
X106672Y11982D01*
X106254Y12374D01*
X105792Y12710D01*
X105368Y12944D01*
G37*
G36*
X650530Y11056D02*
X650446Y10880D01*
X652506D01*
Y12944D01*
X652082Y12710D01*
X651620Y12374D01*
X651202Y11982D01*
X650836Y11540D01*
X650530Y11056D01*
G37*
G36*
X512734Y11056D02*
X512652Y10880D01*
X514710D01*
Y12944D01*
X514288Y12710D01*
X513824Y12374D01*
X513406Y11982D01*
X513042Y11540D01*
X512734Y11056D01*
G37*
G36*
X199856Y12944D02*
Y10880D01*
X201916D01*
X201832Y11056D01*
X201526Y11540D01*
X201160Y11982D01*
X200742Y12374D01*
X200280Y12710D01*
X199856Y12944D01*
G37*
G36*
X337652Y12944D02*
Y10880D01*
X339712D01*
X339628Y11056D01*
X339322Y11540D01*
X338956Y11982D01*
X338538Y12374D01*
X338074Y12710D01*
X337652Y12944D01*
G37*
G36*
X788324Y11056D02*
X788242Y10880D01*
X790302D01*
Y12944D01*
X789878Y12710D01*
X789414Y12374D01*
X788996Y11982D01*
X788632Y11540D01*
X788324Y11056D01*
G37*
G36*
X794344Y12944D02*
Y10880D01*
X796404D01*
X796320Y11056D01*
X796014Y11540D01*
X795648Y11982D01*
X795232Y12374D01*
X794768Y12710D01*
X794344Y12944D01*
G37*
G36*
X813916Y11056D02*
X813832Y10880D01*
X815892D01*
Y12944D01*
X815468Y12710D01*
X815006Y12374D01*
X814588Y11982D01*
X814222Y11540D01*
X813916Y11056D01*
G37*
G36*
X751038Y12944D02*
Y10880D01*
X753096D01*
X753014Y11056D01*
X752706Y11540D01*
X752342Y11982D01*
X751924Y12374D01*
X751460Y12710D01*
X751038Y12944D01*
G37*
G36*
X587652Y12944D02*
Y10880D01*
X589712D01*
X589628Y11056D01*
X589322Y11540D01*
X588956Y11982D01*
X588538Y12374D01*
X588074Y12710D01*
X587652Y12944D01*
G37*
G36*
X581632Y11056D02*
X581548Y10880D01*
X583608D01*
Y12944D01*
X583186Y12710D01*
X582722Y12374D01*
X582304Y11982D01*
X581938Y11540D01*
X581632Y11056D01*
G37*
G36*
X99348Y11056D02*
X99266Y10880D01*
X101324D01*
Y12944D01*
X100902Y12710D01*
X100438Y12374D01*
X100020Y11982D01*
X99656Y11540D01*
X99348Y11056D01*
G37*
G36*
X613242Y12944D02*
Y10880D01*
X615302D01*
X615218Y11056D01*
X614912Y11540D01*
X614546Y11982D01*
X614128Y12374D01*
X613666Y12710D01*
X613242Y12944D01*
G37*
G36*
X268754Y12944D02*
Y10880D01*
X270814D01*
X270730Y11056D01*
X270424Y11540D01*
X270058Y11982D01*
X269640Y12374D01*
X269178Y12710D01*
X268754Y12944D01*
G37*
G36*
X544344Y12944D02*
Y10880D01*
X546404D01*
X546322Y11056D01*
X546014Y11540D01*
X545648Y11982D01*
X545232Y12374D01*
X544768Y12710D01*
X544344Y12944D01*
G37*
G36*
X518754Y12944D02*
Y10880D01*
X520814D01*
X520730Y11056D01*
X520424Y11540D01*
X520058Y11982D01*
X519640Y12374D01*
X519178Y12710D01*
X518754Y12944D01*
G37*
G36*
X262734Y11056D02*
X262652Y10880D01*
X264710D01*
Y12944D01*
X264288Y12710D01*
X263824Y12374D01*
X263406Y11982D01*
X263042Y11540D01*
X262734Y11056D01*
G37*
G36*
X237144Y11056D02*
X237060Y10880D01*
X239120D01*
Y12944D01*
X238696Y12710D01*
X238234Y12374D01*
X237816Y11982D01*
X237450Y11540D01*
X237144Y11056D01*
G37*
G36*
X331632Y11056D02*
X331548Y10880D01*
X333608D01*
Y12944D01*
X333186Y12710D01*
X332722Y12374D01*
X332304Y11982D01*
X331938Y11540D01*
X331632Y11056D01*
G37*
G36*
X306042Y11056D02*
X305958Y10880D01*
X308018D01*
Y12944D01*
X307594Y12710D01*
X307132Y12374D01*
X306714Y11982D01*
X306348Y11540D01*
X306042Y11056D01*
G37*
G36*
X819936Y12944D02*
Y10880D01*
X821994D01*
X821912Y11056D01*
X821604Y11540D01*
X821240Y11982D01*
X820822Y12374D01*
X820358Y12710D01*
X819936Y12944D01*
G37*
G36*
X557762Y11002D02*
X557938Y10918D01*
Y12978D01*
X555876D01*
X556108Y12556D01*
X556446Y12092D01*
X556838Y11674D01*
X557278Y11308D01*
X557762Y11002D01*
G37*
G36*
X561982Y12978D02*
Y10918D01*
X562158Y11002D01*
X562642Y11308D01*
X563084Y11674D01*
X563476Y12092D01*
X563812Y12556D01*
X564046Y12978D01*
X561982D01*
G37*
G36*
X286392Y12978D02*
Y10918D01*
X286568Y11002D01*
X287052Y11308D01*
X287494Y11674D01*
X287886Y12092D01*
X288222Y12556D01*
X288454Y12978D01*
X286392D01*
G37*
G36*
X282172Y11002D02*
X282348Y10918D01*
Y12978D01*
X280286D01*
X280518Y12556D01*
X280854Y12092D01*
X281246Y11674D01*
X281688Y11308D01*
X282172Y11002D01*
G37*
G36*
X286392Y19082D02*
Y17022D01*
X288454D01*
X288222Y17444D01*
X287886Y17908D01*
X287494Y18326D01*
X287052Y18692D01*
X286568Y18998D01*
X286392Y19082D01*
G37*
G36*
X280518Y17444D02*
X280286Y17022D01*
X282348D01*
Y19082D01*
X282172Y18998D01*
X281688Y18692D01*
X281246Y18326D01*
X280854Y17908D01*
X280518Y17444D01*
G37*
G36*
X561982Y19082D02*
Y17022D01*
X564046D01*
X563812Y17444D01*
X563476Y17908D01*
X563084Y18326D01*
X562642Y18692D01*
X562158Y18998D01*
X561982Y19082D01*
G37*
G36*
X556108Y17444D02*
X555876Y17022D01*
X557938D01*
Y19082D01*
X557762Y18998D01*
X557278Y18692D01*
X556838Y18326D01*
X556446Y17908D01*
X556108Y17444D01*
G37*
G36*
X565594Y18520D02*
Y17022D01*
X568038D01*
Y19564D01*
X566636D01*
X566388Y19536D01*
X566172Y19460D01*
X565980Y19338D01*
X565818Y19178D01*
X565698Y18984D01*
X565622Y18770D01*
X565594Y18520D01*
G37*
G36*
X571884Y19564D02*
Y17022D01*
X574328D01*
Y18520D01*
X574300Y18770D01*
X574224Y18984D01*
X574102Y19178D01*
X573942Y19338D01*
X573748Y19460D01*
X573534Y19536D01*
X573284Y19564D01*
X571884D01*
G37*
G36*
X290004Y18520D02*
Y17022D01*
X292446D01*
Y19564D01*
X291046D01*
X290798Y19536D01*
X290582Y19460D01*
X290390Y19338D01*
X290228Y19178D01*
X290106Y18984D01*
X290032Y18770D01*
X290004Y18520D01*
G37*
G36*
X296294Y19564D02*
Y17022D01*
X298736D01*
Y18520D01*
X298708Y18770D01*
X298634Y18984D01*
X298512Y19178D01*
X298350Y19338D01*
X298158Y19460D01*
X297942Y19536D01*
X297694Y19564D01*
X296294D01*
G37*
%LPD*%
G54D10*
X88499Y-07364D02*
G01X88553Y-07310D01*
Y0D01*
X88499Y-11811D02*
Y-07364D01*
X226378Y-11811D02*
Y0D01*
X366140Y-07361D02*
X366145Y-07356D01*
Y0D01*
X366140Y-11810D02*
Y-07361D01*
X501969Y-13780D02*
Y-06256D01*
D03*
X501968Y-01968D02*
Y-06256D01*
X639680Y-07364D02*
X639734Y-07310D01*
Y0D01*
X639680Y-11811D02*
Y-07364D01*
X777476D02*
X777530Y-07310D01*
Y0D01*
X777476Y-11811D02*
Y-07364D01*
X611220Y-08858D02*
X585630D01*
X473425D02*
X447835D01*
X335630D02*
X310040D01*
X197834D02*
X172244D01*
X817913D02*
X792323D01*
X749016D02*
X723426D01*
X680118D02*
X654528D01*
X516733D02*
X542323D01*
X404527D02*
X378937D01*
X241142D02*
X266732D01*
X128937D02*
X103347D01*
X60039D02*
X34449D01*
X765778Y0D02*
X654174D01*
X649879Y4295D01*
X636300D01*
X632005Y0D01*
X629994D02*
X632005D01*
X629994D02*
X627982D01*
X514411D01*
X512084Y2327D01*
X498533D01*
X494238Y-01968D01*
X490216D02*
X492227D01*
X494238D01*
X492227D02*
X490257Y2D01*
X434591D01*
X354390Y0D02*
X358409D01*
X358411Y2D01*
X361190D01*
X218540Y5180D02*
X217648Y4288D01*
X214626D01*
Y0D02*
Y4288D01*
X76801Y0D02*
X72779D01*
X72040D01*
X765832Y-11811D02*
X762356D01*
X628036D02*
X631512D01*
X762356D02*
X757902Y-16265D01*
X635966D01*
X631512Y-11811D01*
X490325Y-13780D02*
X493801D01*
X354500Y-11810D02*
X357979D01*
X631512Y-11811D02*
X623492Y-19831D01*
X496827D01*
X493801Y-16805D01*
Y-13780D01*
X214734Y-11811D02*
X218210D01*
X493801Y-16805D02*
X362974D01*
X357979Y-11810D01*
X349862Y-19927D01*
X226326D01*
X218210Y-11811D01*
X206925Y-09513D02*
X208960D01*
X211258Y-11811D01*
X214734D02*
X211258D01*
X84096Y-10539D02*
X81603D01*
X80331Y-11811D01*
X76855D02*
X80331D01*
G36*
X91476Y-03189D02*
X85630D01*
Y3189D01*
X91476D01*
Y-03189D01*
G37*
G36*
X73878Y-03189D02*
X79724D01*
Y3189D01*
X73878D01*
Y-03189D01*
G37*
G36*
X229301Y-03189D02*
X223455D01*
Y3189D01*
X229301D01*
Y-03189D01*
G37*
G36*
X211703Y-03189D02*
X217549D01*
Y3189D01*
X211703D01*
Y-03189D01*
G37*
G36*
X369070Y-03190D02*
X363220D01*
Y3190D01*
X369070D01*
Y-03190D01*
G37*
G36*
X351470Y-03190D02*
X357310D01*
Y3190D01*
X351470D01*
Y-03190D01*
G37*
G36*
X504891Y-05157D02*
X499045D01*
Y1221D01*
X504891D01*
Y-05157D01*
G37*
G36*
X487293Y-05157D02*
X493139D01*
Y1221D01*
X487293D01*
Y-05157D01*
G37*
G36*
X642658Y-03189D02*
X636811D01*
Y3189D01*
X642658D01*
Y-03189D01*
G37*
G36*
X625059Y-03189D02*
X630906D01*
Y3189D01*
X625059D01*
Y-03189D01*
G37*
G36*
X780453Y-03189D02*
X774606D01*
Y3189D01*
X780453D01*
Y-03189D01*
G37*
G36*
X762854Y-03189D02*
X768701D01*
Y3189D01*
X762854D01*
Y-03189D01*
G37*
G36*
X74478Y-08463D02*
X79232D01*
Y-15159D01*
X74478D01*
Y-08463D01*
G37*
G36*
X90876Y-08463D02*
X86122D01*
Y-15159D01*
X90876D01*
Y-08463D01*
G37*
G36*
X212357Y-08463D02*
X217111D01*
Y-15159D01*
X212357D01*
Y-08463D01*
G37*
G36*
X228755Y-08463D02*
X224001D01*
Y-15159D01*
X228755D01*
Y-08463D01*
G37*
G36*
X352120Y-08460D02*
X356880D01*
Y-15160D01*
X352120D01*
Y-08460D01*
G37*
G36*
X368520Y-08460D02*
X363760D01*
Y-15160D01*
X368520D01*
Y-08460D01*
G37*
G36*
X492702Y-17128D02*
X487948D01*
Y-10432D01*
X492702D01*
Y-17128D01*
G37*
G36*
X504346Y-10432D02*
X499592D01*
Y-17128D01*
X504346D01*
Y-10432D01*
G37*
G36*
X625659Y-08463D02*
X630413D01*
Y-15159D01*
X625659D01*
Y-08463D01*
G37*
G36*
X642057Y-08463D02*
X637303D01*
Y-15159D01*
X642057D01*
Y-08463D01*
G37*
G36*
X763455Y-08463D02*
X768209D01*
Y-15159D01*
X763455D01*
Y-08463D01*
G37*
G36*
X779852Y-08463D02*
X775098D01*
Y-15159D01*
X779852D01*
Y-08463D01*
G37*
G54D14*
X34449Y8858D03*
X60039D03*
X34449Y-08858D03*
X60039D03*
X103347Y8858D03*
X128937D03*
X103347Y-08858D03*
X128937D03*
X172244Y8858D03*
X197834D03*
X172244Y-08858D03*
X197834D03*
X241142Y8858D03*
X266732D03*
X241142Y-08858D03*
X266732D03*
X310040Y8858D03*
X335630D03*
X310040Y-08858D03*
X335630D03*
X378937Y8858D03*
X404527D03*
X378937Y-08858D03*
X404527D03*
X447835Y8858D03*
X473425D03*
X447835Y-08858D03*
X473425D03*
X516733Y8858D03*
X542323D03*
X516733Y-08858D03*
X542323D03*
X585630Y8858D03*
X611220D03*
X585630Y-08858D03*
X611220D03*
X654528Y8858D03*
X680118D03*
X654528Y-08858D03*
X680118D03*
X723426Y8858D03*
X749016D03*
X723426Y-08858D03*
X749016D03*
X792323Y8858D03*
X817913D03*
X792323Y-08858D03*
X817913D03*
X149610Y-05000D03*
G36*
X153153Y8543D02*
G01X146067D01*
Y1457D01*
X153153D01*
Y8543D01*
G37*
G54D16*
X569961Y15000D03*
G54D14*
X559961D03*
X569961Y5000D03*
X559961D03*
X569961Y-05000D03*
X559961D03*
X569961Y-15000D03*
X559961D03*
G54D16*
X294370Y15000D03*
G54D14*
X284370D03*
X294370Y5000D03*
X284370D03*
X294370Y-05000D03*
X284370D03*
X294370Y-15000D03*
X284370D03*
G54D11*
X84096Y-10539D03*
X206925Y-09513D03*
X72040Y0D03*
X218540Y5180D03*
X361190Y2D03*
X434591D03*
M02*
