%FSLAX25Y25*%
%MOIN*%
%ADD21C,0.07480315*%
%ADD22C,0.07486614*%
%IPPOS*%
G75*
G54D21*
X34449Y8858D03*
X60039D03*
X34449Y-08858D03*
X60039D03*
X103347Y8858D03*
X128937D03*
X103347Y-08858D03*
X128937D03*
X172244Y8858D03*
X197834D03*
X172244Y-08858D03*
X197834D03*
X241142Y8858D03*
X266732D03*
X241142Y-08858D03*
X266732D03*
X310040Y8858D03*
X335630D03*
X310040Y-08858D03*
X335630D03*
X378937Y8858D03*
X404527D03*
X378937Y-08858D03*
X404527D03*
X447835Y8858D03*
X473425D03*
X447835Y-08858D03*
X473425D03*
X516733Y8858D03*
X542323D03*
X516733Y-08858D03*
X542323D03*
X585630Y8858D03*
X611220D03*
X585630Y-08858D03*
X611220D03*
X654528Y8858D03*
X680118D03*
X654528Y-08858D03*
X680118D03*
X723426Y8858D03*
X749016D03*
X723426Y-08858D03*
X749016D03*
X792323Y8858D03*
X817913D03*
X792323Y-08858D03*
X817913D03*
G54D22*
X149610Y-05000D03*
G36*
X153350Y1260D02*
G01X145870D01*
Y8740D01*
X153350D01*
Y1260D01*
G37*
G36*
X573500Y11260D02*
X566420D01*
Y18740D01*
X573500D01*
Y11260D01*
G37*
G54D21*
X559961Y15000D03*
X569961Y5000D03*
X559961D03*
X569961Y-05000D03*
X559961D03*
X569961Y-15000D03*
X559961D03*
G36*
X297910Y11260D02*
G01X290830D01*
Y18740D01*
X297910D01*
Y11260D01*
G37*
G54D21*
X284370Y15000D03*
X294370Y5000D03*
X284370D03*
X294370Y-05000D03*
X284370D03*
X294370Y-15000D03*
X284370D03*
M02*
