%FSLAX25Y25*%
%MOIN*%
%ADD21C,0.07480315*%
%ADD22C,0.07486614*%
%IPPOS*%
G75*
G36*
X91670Y-03390D02*
G01X85430D01*
Y3390D01*
X91670D01*
Y-03390D01*
G37*
G36*
X79920Y-03390D02*
X73680D01*
Y3390D01*
X79920D01*
Y-03390D01*
G37*
G36*
X229500Y-03390D02*
X223260D01*
Y3390D01*
X229500D01*
Y-03390D01*
G37*
G36*
X217750Y-03390D02*
X211510D01*
Y3390D01*
X217750D01*
Y-03390D01*
G37*
G36*
X369270Y-03390D02*
X363020D01*
Y3390D01*
X369270D01*
Y-03390D01*
G37*
G36*
X357510Y-03390D02*
X351270D01*
Y3390D01*
X357510D01*
Y-03390D01*
G37*
G36*
X505090Y-05350D02*
X498850D01*
Y1420D01*
X505090D01*
Y-05350D01*
G37*
G36*
X493340Y-05350D02*
X487100D01*
Y1420D01*
X493340D01*
Y-05350D01*
G37*
G36*
X642850Y-03390D02*
X636610D01*
Y3390D01*
X642850D01*
Y-03390D01*
G37*
G36*
X631100Y-03390D02*
X624860D01*
Y3390D01*
X631100D01*
Y-03390D01*
G37*
G36*
X780650Y-03390D02*
X774410D01*
Y3390D01*
X780650D01*
Y-03390D01*
G37*
G36*
X768900Y-03390D02*
X762660D01*
Y3390D01*
X768900D01*
Y-03390D01*
G37*
G36*
X79430Y-15360D02*
X74280D01*
Y-08270D01*
X79430D01*
Y-15360D01*
G37*
G36*
X91070Y-15360D02*
X85930D01*
Y-08270D01*
X91070D01*
Y-15360D01*
G37*
G36*
X217310Y-15360D02*
X212160D01*
Y-08270D01*
X217310D01*
Y-15360D01*
G37*
G36*
X228950Y-15360D02*
X223800D01*
Y-08270D01*
X228950D01*
Y-15360D01*
G37*
G36*
X357080Y-15360D02*
X351920D01*
Y-08260D01*
X357080D01*
Y-15360D01*
G37*
G36*
X368720Y-15360D02*
X363560D01*
Y-08260D01*
X368720D01*
Y-15360D01*
G37*
G36*
X492900Y-17330D02*
X487750D01*
Y-10230D01*
X492900D01*
Y-17330D01*
G37*
G36*
X504540Y-17330D02*
X499400D01*
Y-10230D01*
X504540D01*
Y-17330D01*
G37*
G36*
X630610Y-15360D02*
X625460D01*
Y-08270D01*
X630610D01*
Y-15360D01*
G37*
G36*
X642250Y-15360D02*
X637110D01*
Y-08270D01*
X642250D01*
Y-15360D01*
G37*
G36*
X768410Y-15360D02*
X763260D01*
Y-08270D01*
X768410D01*
Y-15360D01*
G37*
G36*
X780050Y-15360D02*
X774900D01*
Y-08270D01*
X780050D01*
Y-15360D01*
G37*
G54D21*
X34449Y8858D03*
X60039D03*
X34449Y-08858D03*
X60039D03*
X103347Y8858D03*
X128937D03*
X103347Y-08858D03*
X128937D03*
X172244Y8858D03*
X197834D03*
X172244Y-08858D03*
X197834D03*
X241142Y8858D03*
X266732D03*
X241142Y-08858D03*
X266732D03*
X310040Y8858D03*
X335630D03*
X310040Y-08858D03*
X335630D03*
X378937Y8858D03*
X404527D03*
X378937Y-08858D03*
X404527D03*
X447835Y8858D03*
X473425D03*
X447835Y-08858D03*
X473425D03*
X516733Y8858D03*
X542323D03*
X516733Y-08858D03*
X542323D03*
X585630Y8858D03*
X611220D03*
X585630Y-08858D03*
X611220D03*
X654528Y8858D03*
X680118D03*
X654528Y-08858D03*
X680118D03*
X723426Y8858D03*
X749016D03*
X723426Y-08858D03*
X749016D03*
X792323Y8858D03*
X817913D03*
X792323Y-08858D03*
X817913D03*
G54D22*
X149610Y-05000D03*
G36*
X153350Y1260D02*
G01X145870D01*
Y8740D01*
X153350D01*
Y1260D01*
G37*
G36*
X573500Y11260D02*
X566420D01*
Y18740D01*
X573500D01*
Y11260D01*
G37*
G54D21*
X559961Y15000D03*
X569961Y5000D03*
X559961D03*
X569961Y-05000D03*
X559961D03*
X569961Y-15000D03*
X559961D03*
G36*
X297910Y11260D02*
G01X290830D01*
Y18740D01*
X297910D01*
Y11260D01*
G37*
G54D21*
X284370Y15000D03*
X294370Y5000D03*
X284370D03*
X294370Y-05000D03*
X284370D03*
X294370Y-15000D03*
X284370D03*
M02*
