%FSLAX25Y25*%
%MOIN*%
%ADD10C,0.01000000*%
%ADD17C,0.00600000*%
%IPPOS*%
G75*
G54D17*
X139588Y-02568D02*
G01X139179Y-02364D01*
X138770Y-01954D01*
X138565Y-01545D01*
Y-00727D01*
X138770Y-00318D01*
X139179Y91D01*
X139588Y295D01*
X140201Y500D01*
X141224D01*
X141838Y295D01*
X142247Y91D01*
X142656Y-00318D01*
X142860Y-00727D01*
Y-01545D01*
X142656Y-01954D01*
X142247Y-02364D01*
X141838Y-02568D01*
X138565Y-03918D02*
X142860D01*
X138565D02*
X142860Y-06782D01*
X138565D02*
X142860D01*
X139383Y-08132D02*
X139179Y-08541D01*
X138565Y-09154D01*
X142860D01*
X549421Y1000D02*
X553711D01*
X549421Y-01860D02*
X553711D01*
X551461Y1000D02*
Y-01860D01*
X549421Y-03620D02*
Y-05870D01*
X551061Y-04650D01*
Y-05260D01*
X551261Y-05670D01*
X551461Y-05870D01*
X552081Y-06080D01*
X552491D01*
X553101Y-05870D01*
X553511Y-05460D01*
X553711Y-04850D01*
Y-04240D01*
X553511Y-03620D01*
X553311Y-03420D01*
X552901Y-03210D01*
X273830Y1000D02*
X278120D01*
X273830Y-01860D02*
X278120D01*
X275870Y1000D02*
Y-01860D01*
X274850Y-03420D02*
X274650D01*
X274240Y-03620D01*
X274030Y-03830D01*
X273830Y-04240D01*
Y-05050D01*
X274030Y-05460D01*
X274240Y-05670D01*
X274650Y-05870D01*
X275060D01*
X275470Y-05670D01*
X276080Y-05260D01*
X278120Y-03210D01*
Y-06080D01*
G54D10*
X144610Y10000D02*
G01Y-10000D01*
X154610D01*
Y10000D01*
X144610D01*
X564961Y20000D02*
Y10000D01*
X574961D01*
X554961Y-20000D02*
X574961D01*
Y20000D01*
X554961D01*
Y-19961D01*
X289370Y20000D02*
Y10000D01*
X299370D01*
X279370Y-20000D02*
X299370D01*
Y20000D01*
X279370D01*
Y-19961D01*
M02*
