%FSLAX25Y25*%
%MOIN*%
%ADD10C,0.01000000*%
%ADD11C,0.02401575*%
%ADD14C,0.07086614*%
%ADD16R,0.0669291X0.0708661*%
%IPPOS*%
G75*
G36*
X850942Y-27524D02*
G01X1420D01*
X1266Y-27492D01*
X1138Y-27406D01*
X1050Y-27276D01*
X1020Y-27124D01*
Y27124D01*
X1050Y27276D01*
X1138Y27406D01*
X1266Y27492D01*
X1420Y27524D01*
X850942D01*
X851096Y27492D01*
X851226Y27406D01*
X851312Y27276D01*
X851342Y27124D01*
Y-27124D01*
X851312Y-27276D01*
X851226Y-27406D01*
X851096Y-27492D01*
X850942Y-27524D01*
G37*
%LPC*%
G36*
X564354Y-21178D02*
X564670Y-21208D01*
X781472D01*
X781788Y-21178D01*
X782072Y-21092D01*
X782336Y-20952D01*
X782580Y-20750D01*
X790168Y-13162D01*
X790296Y-13076D01*
X790448Y-13044D01*
X790598Y-13074D01*
X790912Y-13198D01*
X791468Y-13340D01*
X792036Y-13412D01*
X792610D01*
X793178Y-13340D01*
X793732Y-13198D01*
X794266Y-12986D01*
X794768Y-12710D01*
X795232Y-12374D01*
X795648Y-11982D01*
X796014Y-11540D01*
X796320Y-11056D01*
X796564Y-10538D01*
X796742Y-09992D01*
X796850Y-09430D01*
X796886Y-08858D01*
X796850Y-08286D01*
X796742Y-07724D01*
X796564Y-07178D01*
X796320Y-06660D01*
X796014Y-06176D01*
X795648Y-05736D01*
X795232Y-05342D01*
X794768Y-05006D01*
X794266Y-04730D01*
X793732Y-04520D01*
X793178Y-04376D01*
X792610Y-04304D01*
X792036D01*
X791468Y-04376D01*
X790912Y-04520D01*
X790380Y-04730D01*
X789878Y-05006D01*
X789414Y-05342D01*
X788996Y-05736D01*
X788632Y-06176D01*
X788324Y-06660D01*
X788080Y-07178D01*
X787904Y-07724D01*
X787796Y-08286D01*
X787760Y-08858D01*
X787796Y-09430D01*
X787904Y-09992D01*
X788080Y-10538D01*
X788130Y-10722D01*
X788104Y-10882D01*
X788014Y-11018D01*
X780980Y-18052D01*
X780850Y-18138D01*
X780696Y-18168D01*
X574072D01*
X573902Y-18130D01*
X573764Y-18024D01*
X573684Y-17868D01*
X573678Y-17694D01*
X573748Y-17534D01*
X573812Y-17444D01*
X574088Y-16942D01*
X574156Y-16772D01*
X574242Y-16640D01*
X574374Y-16552D01*
X574528Y-16520D01*
X717264D01*
X717580Y-16488D01*
X717864Y-16402D01*
X718128Y-16262D01*
X718372Y-16060D01*
X721272Y-13162D01*
X721400Y-13076D01*
X721550Y-13046D01*
X721702Y-13074D01*
X722016Y-13198D01*
X722570Y-13340D01*
X723138Y-13412D01*
X723712D01*
X724280Y-13340D01*
X724836Y-13198D01*
X725368Y-12986D01*
X725870Y-12710D01*
X726334Y-12374D01*
X726752Y-11982D01*
X727116Y-11540D01*
X727424Y-11056D01*
X727668Y-10538D01*
X727844Y-09992D01*
X727952Y-09430D01*
X727988Y-08858D01*
X727952Y-08286D01*
X727844Y-07724D01*
X727668Y-07178D01*
X727424Y-06660D01*
X727116Y-06176D01*
X726752Y-05736D01*
X726334Y-05342D01*
X725870Y-05006D01*
X725368Y-04730D01*
X724836Y-04520D01*
X724280Y-04376D01*
X723712Y-04304D01*
X723138D01*
X722570Y-04376D01*
X722016Y-04520D01*
X721482Y-04730D01*
X720980Y-05006D01*
X720516Y-05342D01*
X720100Y-05736D01*
X719734Y-06176D01*
X719428Y-06660D01*
X719184Y-07178D01*
X719006Y-07724D01*
X718898Y-08286D01*
X718862Y-08858D01*
X718898Y-09430D01*
X719006Y-09992D01*
X719184Y-10538D01*
X719234Y-10722D01*
X719206Y-10882D01*
X719116Y-11018D01*
X716772Y-13362D01*
X716642Y-13450D01*
X716488Y-13480D01*
X682722D01*
X682552Y-13442D01*
X682414Y-13334D01*
X682334Y-13180D01*
X682328Y-13004D01*
X682398Y-12844D01*
X682562Y-12710D01*
X683026Y-12374D01*
X683444Y-11982D01*
X683810Y-11540D01*
X684116Y-11056D01*
X684360Y-10538D01*
X684538Y-09992D01*
X684644Y-09430D01*
X684680Y-08858D01*
X684644Y-08286D01*
X684538Y-07724D01*
X684360Y-07178D01*
X684116Y-06660D01*
X683810Y-06176D01*
X683444Y-05736D01*
X683026Y-05342D01*
X682562Y-05006D01*
X682060Y-04730D01*
X681528Y-04520D01*
X680974Y-04376D01*
X680404Y-04304D01*
X679832D01*
X679264Y-04376D01*
X678708Y-04520D01*
X678176Y-04730D01*
X677674Y-05006D01*
X677210Y-05342D01*
X676792Y-05736D01*
X676428Y-06176D01*
X676120Y-06660D01*
X675876Y-07178D01*
X675700Y-07724D01*
X675592Y-08286D01*
X675556Y-08858D01*
X675592Y-09430D01*
X675700Y-09992D01*
X675876Y-10538D01*
X676120Y-11056D01*
X676428Y-11540D01*
X676792Y-11982D01*
X677210Y-12374D01*
X677674Y-12710D01*
X677838Y-12844D01*
X677908Y-13004D01*
X677902Y-13180D01*
X677824Y-13334D01*
X677686Y-13442D01*
X677514Y-13480D01*
X657130D01*
X656960Y-13442D01*
X656822Y-13334D01*
X656744Y-13180D01*
X656738Y-13004D01*
X656808Y-12844D01*
X656972Y-12710D01*
X657436Y-12374D01*
X657854Y-11982D01*
X658218Y-11540D01*
X658526Y-11056D01*
X658770Y-10538D01*
X658946Y-09992D01*
X659054Y-09430D01*
X659090Y-08858D01*
X659054Y-08286D01*
X658946Y-07724D01*
X658770Y-07178D01*
X658526Y-06660D01*
X658218Y-06176D01*
X657854Y-05736D01*
X657436Y-05342D01*
X656972Y-05006D01*
X656470Y-04730D01*
X655938Y-04520D01*
X655382Y-04376D01*
X654814Y-04304D01*
X654242D01*
X653672Y-04376D01*
X653118Y-04520D01*
X652804Y-04644D01*
X652652Y-04672D01*
X652502Y-04640D01*
X652374Y-04554D01*
X646758Y1062D01*
X646514Y1262D01*
X646250Y1402D01*
X645966Y1490D01*
X645650Y1520D01*
X573846D01*
X573676Y1558D01*
X573538Y1666D01*
X573458Y1820D01*
X573452Y1996D01*
X573522Y2156D01*
X573812Y2556D01*
X574088Y3058D01*
X574300Y3590D01*
X574442Y4146D01*
X574514Y4714D01*
Y5286D01*
X574442Y5854D01*
X574300Y6410D01*
X574088Y6942D01*
X573812Y7444D01*
X573476Y7908D01*
X573084Y8326D01*
X572642Y8692D01*
X572158Y8998D01*
X571640Y9242D01*
X571096Y9420D01*
X570532Y9526D01*
X569960Y9562D01*
X569388Y9526D01*
X568826Y9420D01*
X568282Y9242D01*
X568098Y9192D01*
X567938Y9220D01*
X567802Y9308D01*
X567356Y9754D01*
X567270Y9884D01*
X567240Y10036D01*
X567270Y10190D01*
X567356Y10320D01*
X567486Y10406D01*
X567640Y10436D01*
X568038D01*
Y12978D01*
X565594D01*
Y11898D01*
X565560Y11736D01*
X565462Y11600D01*
X565320Y11518D01*
X565154Y11500D01*
X564942Y11520D01*
X563846D01*
X563676Y11558D01*
X563538Y11666D01*
X563458Y11820D01*
X563452Y11996D01*
X563522Y12156D01*
X563812Y12556D01*
X564046Y12978D01*
X561982D01*
Y11920D01*
X561952Y11768D01*
X561866Y11638D01*
X561736Y11550D01*
X561582Y11520D01*
X558338D01*
X558186Y11550D01*
X558056Y11638D01*
X557970Y11768D01*
X557938Y11920D01*
Y12978D01*
X555876D01*
X556108Y12556D01*
X556446Y12092D01*
X556598Y11928D01*
X556678Y11806D01*
X556706Y11662D01*
X556684Y11518D01*
X556610Y11392D01*
X556496Y11302D01*
X556422Y11262D01*
X556176Y11062D01*
X546752Y1638D01*
X546622Y1550D01*
X546470Y1520D01*
X482302D01*
X481986Y1490D01*
X481702Y1402D01*
X481440Y1262D01*
X481194Y1062D01*
X475578Y-04554D01*
X475452Y-04640D01*
X475300Y-04672D01*
X475148Y-04644D01*
X474836Y-04520D01*
X474280Y-04376D01*
X473712Y-04304D01*
X473138D01*
X472570Y-04376D01*
X472016Y-04520D01*
X471482Y-04730D01*
X470980Y-05006D01*
X470516Y-05342D01*
X470100Y-05736D01*
X469734Y-06176D01*
X469428Y-06660D01*
X469184Y-07178D01*
X469006Y-07724D01*
X468898Y-08286D01*
X468862Y-08858D01*
X468898Y-09430D01*
X469006Y-09992D01*
X469184Y-10538D01*
X469428Y-11056D01*
X469734Y-11540D01*
X470100Y-11982D01*
X470516Y-12374D01*
X470980Y-12710D01*
X471482Y-12986D01*
X472016Y-13198D01*
X472570Y-13340D01*
X473138Y-13412D01*
X473712D01*
X474280Y-13340D01*
X474836Y-13198D01*
X475368Y-12986D01*
X475870Y-12710D01*
X476334Y-12374D01*
X476752Y-11982D01*
X477116Y-11540D01*
X477424Y-11056D01*
X477668Y-10538D01*
X477844Y-09992D01*
X477952Y-09430D01*
X477988Y-08858D01*
X477952Y-08286D01*
X477844Y-07724D01*
X477668Y-07178D01*
X477616Y-06994D01*
X477644Y-06834D01*
X477734Y-06698D01*
X482796Y-01636D01*
X482926Y-01550D01*
X483078Y-01520D01*
X546546D01*
X546698Y-01550D01*
X546828Y-01636D01*
X546916Y-01766D01*
X546946Y-01920D01*
X546916Y-02072D01*
X546828Y-02202D01*
X544476Y-04554D01*
X544350Y-04640D01*
X544198Y-04672D01*
X544046Y-04644D01*
X543732Y-04520D01*
X543178Y-04376D01*
X542610Y-04304D01*
X542036D01*
X541468Y-04376D01*
X540914Y-04520D01*
X540380Y-04730D01*
X539878Y-05006D01*
X539414Y-05342D01*
X538996Y-05736D01*
X538632Y-06176D01*
X538324Y-06660D01*
X538080Y-07178D01*
X537904Y-07724D01*
X537796Y-08286D01*
X537760Y-08858D01*
X537796Y-09430D01*
X537904Y-09992D01*
X538080Y-10538D01*
X538324Y-11056D01*
X538632Y-11540D01*
X538996Y-11982D01*
X539414Y-12374D01*
X539878Y-12710D01*
X540380Y-12986D01*
X540914Y-13198D01*
X541468Y-13340D01*
X542036Y-13412D01*
X542610D01*
X543178Y-13340D01*
X543732Y-13198D01*
X544266Y-12986D01*
X544768Y-12710D01*
X545232Y-12374D01*
X545648Y-11982D01*
X546014Y-11540D01*
X546322Y-11056D01*
X546566Y-10538D01*
X546742Y-09992D01*
X546850Y-09430D01*
X546886Y-08858D01*
X546850Y-08286D01*
X546742Y-07724D01*
X546566Y-07178D01*
X546514Y-06994D01*
X546542Y-06834D01*
X546632Y-06698D01*
X555678Y2348D01*
X555816Y2438D01*
X555980Y2464D01*
X556140Y2422D01*
X556268Y2320D01*
X556634Y1876D01*
X557052Y1484D01*
X557516Y1148D01*
X558018Y872D01*
X558550Y660D01*
X559106Y518D01*
X559674Y446D01*
X560248D01*
X560816Y518D01*
X561370Y660D01*
X561904Y872D01*
X562406Y1148D01*
X562868Y1484D01*
X563286Y1876D01*
X563652Y2318D01*
X563958Y2802D01*
X564202Y3320D01*
X564380Y3866D01*
X564488Y4428D01*
X564524Y5000D01*
X564488Y5572D01*
X564380Y6134D01*
X564202Y6680D01*
X563958Y7198D01*
X563652Y7682D01*
X563534Y7826D01*
X563460Y7956D01*
X563442Y8106D01*
X563480Y8250D01*
X563568Y8372D01*
X563694Y8452D01*
X563842Y8480D01*
X564166D01*
X564318Y8450D01*
X564448Y8364D01*
X565656Y7154D01*
X565742Y7026D01*
X565774Y6876D01*
X565746Y6724D01*
X565622Y6410D01*
X565478Y5854D01*
X565408Y5286D01*
Y4714D01*
X565478Y4146D01*
X565622Y3590D01*
X565832Y3058D01*
X566108Y2556D01*
X566398Y2156D01*
X566468Y1996D01*
X566462Y1820D01*
X566384Y1666D01*
X566246Y1558D01*
X566076Y1520D01*
X564980D01*
X564664Y1490D01*
X564380Y1402D01*
X564118Y1262D01*
X563872Y1062D01*
X562120Y-00692D01*
X561984Y-00780D01*
X561824Y-00808D01*
X561640Y-00758D01*
X561096Y-00580D01*
X560532Y-00474D01*
X559960Y-00438D01*
X559388Y-00474D01*
X558826Y-00580D01*
X558282Y-00758D01*
X557762Y-01002D01*
X557278Y-01308D01*
X556838Y-01674D01*
X556446Y-02092D01*
X556108Y-02556D01*
X555832Y-03058D01*
X555622Y-03590D01*
X555478Y-04146D01*
X555408Y-04714D01*
Y-05286D01*
X555478Y-05854D01*
X555622Y-06410D01*
X555832Y-06942D01*
X556108Y-07444D01*
X556446Y-07908D01*
X556838Y-08326D01*
X557278Y-08692D01*
X557762Y-08998D01*
X558282Y-09242D01*
X558826Y-09420D01*
X559388Y-09526D01*
X559960Y-09562D01*
X560532Y-09526D01*
X561096Y-09420D01*
X561640Y-09242D01*
X562158Y-08998D01*
X562642Y-08692D01*
X563084Y-08326D01*
X563476Y-07908D01*
X563812Y-07444D01*
X564088Y-06942D01*
X564300Y-06410D01*
X564442Y-05854D01*
X564514Y-05286D01*
Y-04714D01*
X564442Y-04146D01*
X564300Y-03590D01*
X564176Y-03276D01*
X564148Y-03124D01*
X564178Y-02974D01*
X564264Y-02846D01*
X565474Y-01636D01*
X565604Y-01550D01*
X565756Y-01520D01*
X566076D01*
X566246Y-01558D01*
X566384Y-01664D01*
X566464Y-01820D01*
X566468Y-01994D01*
X566400Y-02154D01*
X566108Y-02556D01*
X565832Y-03058D01*
X565622Y-03590D01*
X565478Y-04146D01*
X565408Y-04714D01*
Y-05286D01*
X565478Y-05854D01*
X565622Y-06410D01*
X565832Y-06942D01*
X566108Y-07444D01*
X566446Y-07908D01*
X566838Y-08326D01*
X567278Y-08692D01*
X567762Y-08998D01*
X568282Y-09242D01*
X568826Y-09420D01*
X569388Y-09526D01*
X569960Y-09562D01*
X570532Y-09526D01*
X571096Y-09420D01*
X571640Y-09242D01*
X571824Y-09192D01*
X571984Y-09220D01*
X572120Y-09308D01*
X572730Y-09918D01*
X572976Y-10120D01*
X573238Y-10260D01*
X573522Y-10346D01*
X573838Y-10378D01*
X581058D01*
X581206Y-10406D01*
X581332Y-10486D01*
X581420Y-10608D01*
X581632Y-11056D01*
X581938Y-11540D01*
X582304Y-11982D01*
X582722Y-12374D01*
X583186Y-12710D01*
X583350Y-12844D01*
X583420Y-13004D01*
X583414Y-13180D01*
X583334Y-13334D01*
X583196Y-13442D01*
X583026Y-13480D01*
X574528D01*
X574372Y-13448D01*
X574242Y-13360D01*
X574156Y-13228D01*
X574088Y-13058D01*
X573812Y-12556D01*
X573476Y-12092D01*
X573084Y-11674D01*
X572642Y-11308D01*
X572158Y-11002D01*
X571640Y-10758D01*
X571096Y-10580D01*
X570532Y-10474D01*
X569960Y-10438D01*
X569388Y-10474D01*
X568826Y-10580D01*
X568282Y-10758D01*
X567762Y-11002D01*
X567278Y-11308D01*
X566838Y-11674D01*
X566446Y-12092D01*
X566108Y-12556D01*
X565832Y-13058D01*
X565622Y-13590D01*
X565478Y-14146D01*
X565408Y-14714D01*
Y-15286D01*
X565478Y-15854D01*
X565622Y-16410D01*
X565832Y-16942D01*
X566108Y-17444D01*
X566172Y-17534D01*
X566242Y-17694D01*
X566236Y-17868D01*
X566158Y-18024D01*
X566020Y-18130D01*
X565850Y-18168D01*
X565446D01*
X565292Y-18138D01*
X565162Y-18052D01*
X564264Y-17154D01*
X564178Y-17026D01*
X564148Y-16876D01*
X564176Y-16724D01*
X564300Y-16410D01*
X564442Y-15854D01*
X564514Y-15286D01*
Y-14714D01*
X564442Y-14146D01*
X564300Y-13590D01*
X564088Y-13058D01*
X563812Y-12556D01*
X563476Y-12092D01*
X563084Y-11674D01*
X562642Y-11308D01*
X562158Y-11002D01*
X561640Y-10758D01*
X561096Y-10580D01*
X560532Y-10474D01*
X559960Y-10438D01*
X559388Y-10474D01*
X558826Y-10580D01*
X558282Y-10758D01*
X557762Y-11002D01*
X557278Y-11308D01*
X556838Y-11674D01*
X556446Y-12092D01*
X556108Y-12556D01*
X555832Y-13058D01*
X555622Y-13590D01*
X555478Y-14146D01*
X555408Y-14714D01*
Y-15286D01*
X555478Y-15854D01*
X555622Y-16410D01*
X555832Y-16942D01*
X556108Y-17444D01*
X556446Y-17908D01*
X556838Y-18326D01*
X557278Y-18692D01*
X557762Y-18998D01*
X558282Y-19242D01*
X558826Y-19420D01*
X559388Y-19526D01*
X559960Y-19562D01*
X560532Y-19526D01*
X561096Y-19420D01*
X561640Y-19242D01*
X561824Y-19192D01*
X561984Y-19220D01*
X562120Y-19308D01*
X563562Y-20750D01*
X563806Y-20952D01*
X564070Y-21092D01*
X564354Y-21178D01*
G37*
G36*
X288736Y-21150D02*
X289052Y-21182D01*
X368114D01*
X368430Y-21150D01*
X368714Y-21064D01*
X368976Y-20924D01*
X369222Y-20722D01*
X376782Y-13162D01*
X376910Y-13076D01*
X377062Y-13044D01*
X377212Y-13072D01*
X377528Y-13198D01*
X378082Y-13340D01*
X378650Y-13412D01*
X379224D01*
X379792Y-13340D01*
X380346Y-13198D01*
X380880Y-12986D01*
X381382Y-12710D01*
X381846Y-12374D01*
X382262Y-11982D01*
X382628Y-11540D01*
X382936Y-11056D01*
X383180Y-10538D01*
X383356Y-09992D01*
X383464Y-09430D01*
X383500Y-08858D01*
X383464Y-08286D01*
X383356Y-07724D01*
X383180Y-07178D01*
X382936Y-06660D01*
X382628Y-06176D01*
X382262Y-05736D01*
X381846Y-05342D01*
X381382Y-05006D01*
X380880Y-04730D01*
X380346Y-04520D01*
X379792Y-04376D01*
X379224Y-04304D01*
X378650D01*
X378082Y-04376D01*
X377528Y-04520D01*
X376994Y-04730D01*
X376492Y-05006D01*
X376028Y-05342D01*
X375612Y-05736D01*
X375246Y-06176D01*
X374938Y-06660D01*
X374694Y-07178D01*
X374518Y-07724D01*
X374410Y-08286D01*
X374374Y-08858D01*
X374410Y-09430D01*
X374518Y-09992D01*
X374694Y-10538D01*
X374746Y-10722D01*
X374718Y-10882D01*
X374628Y-11018D01*
X367620Y-18024D01*
X367490Y-18112D01*
X367338Y-18142D01*
X298500D01*
X298330Y-18104D01*
X298192Y-17996D01*
X298114Y-17842D01*
X298108Y-17666D01*
X298178Y-17506D01*
X298222Y-17444D01*
X298498Y-16942D01*
X298710Y-16410D01*
X298852Y-15854D01*
X298924Y-15286D01*
Y-14714D01*
X298852Y-14146D01*
X298710Y-13590D01*
X298584Y-13276D01*
X298556Y-13124D01*
X298588Y-12974D01*
X298674Y-12846D01*
X301024Y-10494D01*
X301154Y-10408D01*
X301308Y-10378D01*
X305468D01*
X305616Y-10406D01*
X305742Y-10486D01*
X305830Y-10608D01*
X306042Y-11056D01*
X306348Y-11540D01*
X306714Y-11982D01*
X307132Y-12374D01*
X307594Y-12710D01*
X308096Y-12986D01*
X308630Y-13198D01*
X309184Y-13340D01*
X309752Y-13412D01*
X310326D01*
X310894Y-13340D01*
X311450Y-13198D01*
X311982Y-12986D01*
X312484Y-12710D01*
X312948Y-12374D01*
X313366Y-11982D01*
X313730Y-11540D01*
X314038Y-11056D01*
X314282Y-10538D01*
X314458Y-09992D01*
X314566Y-09430D01*
X314602Y-08858D01*
X314566Y-08286D01*
X314458Y-07724D01*
X314282Y-07178D01*
X314038Y-06660D01*
X313730Y-06176D01*
X313366Y-05736D01*
X312948Y-05342D01*
X312484Y-05006D01*
X311982Y-04730D01*
X311450Y-04520D01*
X310894Y-04376D01*
X310326Y-04304D01*
X309752D01*
X309184Y-04376D01*
X308630Y-04520D01*
X308096Y-04730D01*
X307594Y-05006D01*
X307132Y-05342D01*
X306714Y-05736D01*
X306348Y-06176D01*
X306042Y-06660D01*
X305830Y-07108D01*
X305742Y-07230D01*
X305616Y-07310D01*
X305468Y-07338D01*
X301600D01*
X301438Y-07304D01*
X301302Y-07206D01*
X301220Y-07062D01*
X301202Y-06896D01*
X301242Y-06528D01*
Y-00370D01*
X301210Y-00054D01*
X301124Y230D01*
X300984Y492D01*
X300782Y738D01*
X298674Y2846D01*
X298588Y2974D01*
X298556Y3124D01*
X298584Y3276D01*
X298710Y3590D01*
X298852Y4146D01*
X298924Y4714D01*
Y5286D01*
X298852Y5854D01*
X298710Y6410D01*
X298498Y6942D01*
X298222Y7444D01*
X297886Y7908D01*
X297494Y8326D01*
X297052Y8692D01*
X296568Y8998D01*
X296050Y9242D01*
X295504Y9420D01*
X294942Y9526D01*
X294370Y9562D01*
X293798Y9526D01*
X293236Y9420D01*
X292690Y9242D01*
X292172Y8998D01*
X291688Y8692D01*
X291246Y8326D01*
X290854Y7908D01*
X290518Y7444D01*
X290242Y6942D01*
X290030Y6410D01*
X289888Y5854D01*
X289816Y5286D01*
Y4714D01*
X289888Y4146D01*
X290030Y3590D01*
X290242Y3058D01*
X290518Y2556D01*
X290854Y2092D01*
X291246Y1674D01*
X291688Y1308D01*
X292172Y1002D01*
X292690Y758D01*
X293236Y580D01*
X293798Y474D01*
X294370Y438D01*
X294942Y474D01*
X295504Y580D01*
X296050Y758D01*
X296234Y808D01*
X296394Y780D01*
X296530Y692D01*
X298084Y-00864D01*
X298170Y-00994D01*
X298202Y-01146D01*
Y-01418D01*
X298170Y-01572D01*
X298080Y-01704D01*
X297948Y-01790D01*
X297792Y-01818D01*
X297638Y-01782D01*
X297494Y-01674D01*
X297052Y-01308D01*
X296568Y-01002D01*
X296050Y-00758D01*
X295504Y-00580D01*
X294942Y-00474D01*
X294370Y-00438D01*
X293798Y-00474D01*
X293236Y-00580D01*
X292690Y-00758D01*
X292506Y-00808D01*
X292346Y-00780D01*
X292212Y-00692D01*
X290458Y1062D01*
X290214Y1262D01*
X289950Y1402D01*
X289666Y1490D01*
X289350Y1520D01*
X288256D01*
X288086Y1558D01*
X287948Y1666D01*
X287868Y1820D01*
X287862Y1996D01*
X287932Y2156D01*
X288222Y2556D01*
X288498Y3058D01*
X288710Y3590D01*
X288852Y4146D01*
X288924Y4714D01*
Y5286D01*
X288852Y5854D01*
X288710Y6410D01*
X288498Y6942D01*
X288222Y7444D01*
X287886Y7908D01*
X287494Y8326D01*
X287052Y8692D01*
X286568Y8998D01*
X286050Y9242D01*
X285504Y9420D01*
X284942Y9526D01*
X284370Y9562D01*
X283798Y9526D01*
X283236Y9420D01*
X282690Y9242D01*
X282172Y8998D01*
X281688Y8692D01*
X281246Y8326D01*
X280854Y7908D01*
X280518Y7444D01*
X280242Y6942D01*
X280030Y6410D01*
X279888Y5854D01*
X279816Y5286D01*
Y4792D01*
X279786Y4640D01*
X279700Y4510D01*
X279570Y4422D01*
X279416Y4392D01*
X269564D01*
X269400Y4426D01*
X269266Y4524D01*
X269182Y4668D01*
X269166Y4834D01*
X269216Y4992D01*
X269328Y5116D01*
X269640Y5342D01*
X270058Y5736D01*
X270424Y6176D01*
X270730Y6660D01*
X270814Y6836D01*
X268754D01*
Y4792D01*
X268724Y4640D01*
X268636Y4510D01*
X268508Y4422D01*
X268354Y4392D01*
X265110D01*
X264958Y4422D01*
X264828Y4510D01*
X264742Y4640D01*
X264710Y4792D01*
Y6836D01*
X262652D01*
X262734Y6660D01*
X263042Y6176D01*
X263406Y5736D01*
X263824Y5342D01*
X264136Y5116D01*
X264248Y4992D01*
X264300Y4834D01*
X264282Y4668D01*
X264198Y4524D01*
X264064Y4426D01*
X263902Y4392D01*
X243972D01*
X243810Y4426D01*
X243676Y4524D01*
X243592Y4668D01*
X243574Y4834D01*
X243626Y4992D01*
X243738Y5116D01*
X244050Y5342D01*
X244468Y5736D01*
X244832Y6176D01*
X245140Y6660D01*
X245222Y6836D01*
X243164D01*
Y4792D01*
X243132Y4640D01*
X243046Y4510D01*
X242916Y4422D01*
X242764Y4392D01*
X239520D01*
X239366Y4422D01*
X239238Y4510D01*
X239150Y4640D01*
X239120Y4792D01*
Y6836D01*
X237060D01*
X237144Y6660D01*
X237450Y6176D01*
X237816Y5736D01*
X238234Y5342D01*
X238546Y5116D01*
X238658Y4992D01*
X238708Y4834D01*
X238692Y4668D01*
X238608Y4524D01*
X238474Y4426D01*
X238310Y4392D01*
X221126D01*
X220966Y4426D01*
X220832Y4522D01*
X220748Y4664D01*
X220728Y4828D01*
X220760Y5180D01*
X220726Y5566D01*
X220626Y5940D01*
X220462Y6290D01*
X220240Y6606D01*
X220178Y6670D01*
X220090Y6800D01*
X220060Y6952D01*
Y12766D01*
X220090Y12920D01*
X220178Y13050D01*
X225152Y18026D01*
X225282Y18112D01*
X225436Y18142D01*
X280240D01*
X280410Y18104D01*
X280548Y17998D01*
X280626Y17842D01*
X280632Y17668D01*
X280564Y17508D01*
X280518Y17444D01*
X280286Y17022D01*
X282348D01*
Y17742D01*
X282378Y17896D01*
X282466Y18026D01*
X282596Y18112D01*
X282748Y18142D01*
X285992D01*
X286144Y18112D01*
X286274Y18026D01*
X286362Y17896D01*
X286392Y17742D01*
Y17022D01*
X288454D01*
X288222Y17444D01*
X288178Y17508D01*
X288108Y17668D01*
X288114Y17842D01*
X288192Y17998D01*
X288330Y18104D01*
X288500Y18142D01*
X289604D01*
X289756Y18112D01*
X289886Y18026D01*
X289974Y17896D01*
X290004Y17742D01*
Y17022D01*
X292446D01*
Y17742D01*
X292478Y17896D01*
X292564Y18026D01*
X292694Y18112D01*
X292846Y18142D01*
X295894D01*
X296046Y18112D01*
X296176Y18026D01*
X296262Y17896D01*
X296294Y17742D01*
Y17022D01*
X298736D01*
Y17742D01*
X298768Y17896D01*
X298854Y18026D01*
X298984Y18112D01*
X299136Y18142D01*
X340734D01*
X340888Y18112D01*
X341018Y18026D01*
X358862Y182D01*
X358940Y68D01*
X358976Y-00066D01*
X359004Y-00384D01*
X359104Y-00756D01*
X359268Y-01108D01*
X359490Y-01424D01*
X359764Y-01698D01*
X360080Y-01920D01*
X360430Y-02084D01*
X360804Y-02184D01*
X361190Y-02218D01*
X361576Y-02184D01*
X361950Y-02084D01*
X362300Y-01920D01*
X362616Y-01698D01*
X362680Y-01634D01*
X362810Y-01548D01*
X362962Y-01518D01*
X415148D01*
X415300Y-01548D01*
X415430Y-01634D01*
X420896Y-07100D01*
X421140Y-07302D01*
X421404Y-07442D01*
X421688Y-07528D01*
X422004Y-07558D01*
X429922D01*
X430238Y-07528D01*
X430522Y-07442D01*
X430786Y-07302D01*
X431030Y-07100D01*
X435652Y-02478D01*
X435854Y-02234D01*
X435994Y-01970D01*
X436072Y-01710D01*
X436112Y-01620D01*
X436172Y-01542D01*
X436292Y-01424D01*
X436512Y-01108D01*
X436676Y-00756D01*
X436776Y-00384D01*
X436810Y2D01*
X436776Y388D01*
X436676Y762D01*
X436512Y1112D01*
X436292Y1428D01*
X436018Y1702D01*
X435700Y1924D01*
X435350Y2088D01*
X434976Y2188D01*
X434592Y2222D01*
X434206Y2188D01*
X433832Y2088D01*
X433482Y1924D01*
X433164Y1702D01*
X432890Y1428D01*
X432696Y1150D01*
X432584Y1042D01*
X432438Y986D01*
X432280Y990D01*
X432138Y1054D01*
X432030Y1166D01*
X431972Y1322D01*
X431788Y1962D01*
X431534Y2578D01*
X431212Y3160D01*
X430826Y3704D01*
X430382Y4200D01*
X429884Y4644D01*
X429342Y5030D01*
X428758Y5352D01*
X428144Y5608D01*
X427502Y5792D01*
X426846Y5904D01*
X426182Y5940D01*
X425516Y5904D01*
X424860Y5792D01*
X424218Y5608D01*
X423604Y5352D01*
X423020Y5030D01*
X422478Y4644D01*
X421980Y4200D01*
X421536Y3704D01*
X421150Y3160D01*
X420828Y2578D01*
X420574Y1962D01*
X420390Y1322D01*
X420278Y666D01*
X420240Y0D01*
X420278Y-00666D01*
X420378Y-01256D01*
X420372Y-01424D01*
X420296Y-01572D01*
X420168Y-01678D01*
X420006Y-01722D01*
X419842Y-01696D01*
X419700Y-01606D01*
X417032Y1064D01*
X416786Y1264D01*
X416524Y1404D01*
X416240Y1492D01*
X415924Y1522D01*
X362962D01*
X362810Y1552D01*
X362680Y1640D01*
X362616Y1702D01*
X362300Y1924D01*
X361950Y2088D01*
X361576Y2188D01*
X361258Y2216D01*
X361124Y2252D01*
X361010Y2332D01*
X342618Y20724D01*
X342374Y20924D01*
X342110Y21064D01*
X341826Y21152D01*
X341510Y21182D01*
X224660D01*
X224344Y21152D01*
X224060Y21064D01*
X223796Y20924D01*
X223552Y20724D01*
X218028Y15200D01*
X217898Y15112D01*
X217744Y15082D01*
X162834D01*
X162518Y15052D01*
X162234Y14964D01*
X161970Y14824D01*
X161726Y14624D01*
X154856Y7754D01*
X154726Y7668D01*
X154574Y7636D01*
X154420Y7668D01*
X154290Y7754D01*
X154204Y7884D01*
X154174Y8036D01*
Y8520D01*
X154146Y8770D01*
X154070Y8984D01*
X153948Y9178D01*
X153788Y9338D01*
X153594Y9460D01*
X153380Y9536D01*
X153130Y9564D01*
X146090D01*
X145840Y9536D01*
X145626Y9460D01*
X145432Y9338D01*
X145272Y9178D01*
X145150Y8984D01*
X145074Y8770D01*
X145046Y8520D01*
Y6888D01*
X145020Y6744D01*
X144944Y6620D01*
X144826Y6532D01*
X144388Y6402D01*
X144124Y6262D01*
X143880Y6062D01*
X142098Y4280D01*
X141968Y4192D01*
X141814Y4162D01*
X131404D01*
X131234Y4200D01*
X131096Y4308D01*
X131018Y4462D01*
X131012Y4638D01*
X131082Y4798D01*
X131212Y4912D01*
X131382Y5006D01*
X131846Y5342D01*
X132262Y5736D01*
X132628Y6176D01*
X132936Y6660D01*
X133018Y6836D01*
X130958D01*
Y4562D01*
X130928Y4410D01*
X130842Y4280D01*
X130712Y4192D01*
X130558Y4162D01*
X127316D01*
X127162Y4192D01*
X127032Y4280D01*
X126946Y4410D01*
X126916Y4562D01*
Y6836D01*
X124856D01*
X124938Y6660D01*
X125246Y6176D01*
X125612Y5736D01*
X126028Y5342D01*
X126492Y5006D01*
X126662Y4912D01*
X126792Y4798D01*
X126862Y4638D01*
X126856Y4462D01*
X126778Y4308D01*
X126640Y4200D01*
X126470Y4162D01*
X105814D01*
X105644Y4200D01*
X105506Y4308D01*
X105426Y4462D01*
X105422Y4638D01*
X105490Y4798D01*
X105622Y4912D01*
X105792Y5006D01*
X106254Y5342D01*
X106672Y5736D01*
X107038Y6176D01*
X107344Y6660D01*
X107428Y6836D01*
X105368D01*
Y4562D01*
X105338Y4410D01*
X105250Y4280D01*
X105122Y4192D01*
X104968Y4162D01*
X101724D01*
X101572Y4192D01*
X101442Y4280D01*
X101356Y4410D01*
X101324Y4562D01*
Y6836D01*
X99266D01*
X99348Y6660D01*
X99656Y6176D01*
X100020Y5736D01*
X100438Y5342D01*
X100902Y5006D01*
X101072Y4912D01*
X101202Y4798D01*
X101272Y4638D01*
X101266Y4462D01*
X101186Y4308D01*
X101050Y4200D01*
X100878Y4162D01*
X74702D01*
X74386Y4132D01*
X74102Y4044D01*
X73838Y3904D01*
X73594Y3704D01*
X72220Y2330D01*
X72106Y2250D01*
X71972Y2214D01*
X71654Y2186D01*
X71280Y2086D01*
X70930Y1922D01*
X70614Y1700D01*
X70340Y1426D01*
X70118Y1110D01*
X69954Y760D01*
X69854Y386D01*
X69820Y0D01*
X69854Y-00386D01*
X69954Y-00758D01*
X70118Y-01110D01*
X70340Y-01426D01*
X70614Y-01700D01*
X70930Y-01922D01*
X71280Y-02086D01*
X71654Y-02186D01*
X72040Y-02220D01*
X72426Y-02186D01*
X72800Y-02086D01*
X73150Y-01922D01*
X73466Y-01700D01*
X73740Y-01426D01*
X73962Y-01110D01*
X74126Y-00758D01*
X74226Y-00386D01*
X74254Y-00068D01*
X74290Y66D01*
X74368Y180D01*
X75194Y1006D01*
X75324Y1092D01*
X75478Y1122D01*
X135802D01*
X135954Y1092D01*
X136084Y1006D01*
X136172Y876D01*
X136202Y722D01*
X136172Y570D01*
X136084Y440D01*
X131090Y-04554D01*
X130964Y-04640D01*
X130812Y-04672D01*
X130660Y-04644D01*
X130346Y-04520D01*
X129792Y-04376D01*
X129224Y-04304D01*
X128650D01*
X128082Y-04376D01*
X127528Y-04520D01*
X126994Y-04730D01*
X126492Y-05006D01*
X126028Y-05342D01*
X125612Y-05736D01*
X125246Y-06176D01*
X124938Y-06660D01*
X124694Y-07178D01*
X124518Y-07724D01*
X124410Y-08286D01*
X124374Y-08858D01*
X124410Y-09430D01*
X124518Y-09992D01*
X124694Y-10538D01*
X124938Y-11056D01*
X125246Y-11540D01*
X125536Y-11890D01*
X125608Y-12022D01*
X125626Y-12170D01*
X125588Y-12316D01*
X125500Y-12436D01*
X125374Y-12516D01*
X125226Y-12544D01*
X107056D01*
X106910Y-12516D01*
X106782Y-12436D01*
X106694Y-12316D01*
X106658Y-12170D01*
X106676Y-12022D01*
X106748Y-11890D01*
X107038Y-11540D01*
X107344Y-11056D01*
X107588Y-10538D01*
X107766Y-09992D01*
X107872Y-09430D01*
X107908Y-08858D01*
X107872Y-08286D01*
X107766Y-07724D01*
X107588Y-07178D01*
X107344Y-06660D01*
X107038Y-06176D01*
X106672Y-05736D01*
X106254Y-05342D01*
X105792Y-05006D01*
X105290Y-04730D01*
X104756Y-04520D01*
X104202Y-04376D01*
X103632Y-04304D01*
X103060D01*
X102492Y-04376D01*
X101936Y-04520D01*
X101404Y-04730D01*
X100902Y-05006D01*
X100438Y-05342D01*
X100020Y-05736D01*
X99656Y-06176D01*
X99348Y-06660D01*
X99104Y-07178D01*
X98928Y-07724D01*
X98820Y-08286D01*
X98784Y-08858D01*
X98820Y-09430D01*
X98928Y-09992D01*
X99104Y-10538D01*
X99348Y-11056D01*
X99656Y-11540D01*
X99944Y-11890D01*
X100016Y-12022D01*
X100036Y-12170D01*
X99998Y-12316D01*
X99910Y-12436D01*
X99784Y-12516D01*
X99636Y-12544D01*
X88418D01*
X88264Y-12514D01*
X88134Y-12428D01*
X86424Y-10718D01*
X86346Y-10604D01*
X86310Y-10470D01*
X86282Y-10154D01*
X86182Y-09780D01*
X86018Y-09430D01*
X85796Y-09112D01*
X85522Y-08838D01*
X85206Y-08616D01*
X84856Y-08454D01*
X84482Y-08354D01*
X84096Y-08320D01*
X83710Y-08354D01*
X83336Y-08454D01*
X82986Y-08616D01*
X82670Y-08838D01*
X82396Y-09112D01*
X82174Y-09430D01*
X82010Y-09780D01*
X81910Y-10154D01*
X81876Y-10538D01*
X81910Y-10924D01*
X82010Y-11298D01*
X82174Y-11648D01*
X82396Y-11966D01*
X82670Y-12238D01*
X82986Y-12460D01*
X83336Y-12624D01*
X83710Y-12724D01*
X84028Y-12752D01*
X84162Y-12788D01*
X84276Y-12868D01*
X84876Y-13468D01*
X84962Y-13598D01*
X84992Y-13750D01*
X84962Y-13904D01*
X84876Y-14034D01*
X84746Y-14120D01*
X84592Y-14150D01*
X67648D01*
X67494Y-14120D01*
X67364Y-14034D01*
X64348Y-11018D01*
X64260Y-10882D01*
X64232Y-10722D01*
X64282Y-10538D01*
X64458Y-09992D01*
X64566Y-09430D01*
X64602Y-08858D01*
X64566Y-08286D01*
X64458Y-07724D01*
X64282Y-07178D01*
X64038Y-06660D01*
X63730Y-06176D01*
X63366Y-05736D01*
X62948Y-05342D01*
X62484Y-05006D01*
X61982Y-04730D01*
X61450Y-04520D01*
X60894Y-04376D01*
X60326Y-04304D01*
X59752D01*
X59184Y-04376D01*
X58630Y-04520D01*
X58096Y-04730D01*
X57594Y-05006D01*
X57132Y-05342D01*
X56714Y-05736D01*
X56348Y-06176D01*
X56042Y-06660D01*
X55798Y-07178D01*
X55620Y-07724D01*
X55512Y-08286D01*
X55476Y-08858D01*
X55512Y-09430D01*
X55620Y-09992D01*
X55798Y-10538D01*
X56042Y-11056D01*
X56348Y-11540D01*
X56714Y-11982D01*
X57132Y-12374D01*
X57594Y-12710D01*
X58096Y-12986D01*
X58630Y-13198D01*
X59184Y-13340D01*
X59752Y-13412D01*
X60326D01*
X60894Y-13340D01*
X61450Y-13198D01*
X61764Y-13074D01*
X61916Y-13044D01*
X62066Y-13076D01*
X62194Y-13162D01*
X65764Y-16732D01*
X66008Y-16934D01*
X66272Y-17074D01*
X66556Y-17160D01*
X66872Y-17190D01*
X275950D01*
X276266Y-17160D01*
X276550Y-17074D01*
X276814Y-16934D01*
X277058Y-16732D01*
X279134Y-14656D01*
X279264Y-14570D01*
X279416Y-14540D01*
X279570Y-14570D01*
X279700Y-14656D01*
X279786Y-14786D01*
X279816Y-14940D01*
Y-15286D01*
X279888Y-15854D01*
X280030Y-16410D01*
X280242Y-16942D01*
X280518Y-17444D01*
X280854Y-17908D01*
X281246Y-18326D01*
X281688Y-18692D01*
X282172Y-18998D01*
X282690Y-19242D01*
X283236Y-19420D01*
X283798Y-19526D01*
X284370Y-19562D01*
X284942Y-19526D01*
X285504Y-19420D01*
X286050Y-19242D01*
X286234Y-19192D01*
X286394Y-19220D01*
X286530Y-19308D01*
X287944Y-20722D01*
X288188Y-20924D01*
X288452Y-21064D01*
X288736Y-21150D01*
G37*
G36*
X33594Y-13340D02*
X34162Y-13412D01*
X34736D01*
X35304Y-13340D01*
X35858Y-13198D01*
X36392Y-12986D01*
X36894Y-12710D01*
X37358Y-12374D01*
X37774Y-11982D01*
X38140Y-11540D01*
X38446Y-11056D01*
X38690Y-10538D01*
X38868Y-09992D01*
X38976Y-09430D01*
X39012Y-08858D01*
X38976Y-08286D01*
X38868Y-07724D01*
X38690Y-07178D01*
X38446Y-06660D01*
X38140Y-06176D01*
X37774Y-05736D01*
X37358Y-05342D01*
X36894Y-05006D01*
X36392Y-04730D01*
X35858Y-04520D01*
X35304Y-04376D01*
X34736Y-04304D01*
X34162D01*
X33594Y-04376D01*
X33038Y-04520D01*
X32506Y-04730D01*
X32004Y-05006D01*
X31540Y-05342D01*
X31122Y-05736D01*
X30758Y-06176D01*
X30450Y-06660D01*
X30206Y-07178D01*
X30030Y-07724D01*
X29922Y-08286D01*
X29886Y-08858D01*
X29922Y-09430D01*
X30030Y-09992D01*
X30206Y-10538D01*
X30450Y-11056D01*
X30758Y-11540D01*
X31122Y-11982D01*
X31540Y-12374D01*
X32004Y-12710D01*
X32506Y-12986D01*
X33038Y-13198D01*
X33594Y-13340D01*
G37*
G36*
X446980Y-13340D02*
X447548Y-13412D01*
X448122D01*
X448690Y-13340D01*
X449244Y-13198D01*
X449778Y-12986D01*
X450280Y-12710D01*
X450742Y-12374D01*
X451160Y-11982D01*
X451526Y-11540D01*
X451832Y-11056D01*
X452076Y-10538D01*
X452254Y-09992D01*
X452362Y-09430D01*
X452398Y-08858D01*
X452362Y-08286D01*
X452254Y-07724D01*
X452076Y-07178D01*
X451832Y-06660D01*
X451526Y-06176D01*
X451160Y-05736D01*
X450742Y-05342D01*
X450280Y-05006D01*
X449778Y-04730D01*
X449244Y-04520D01*
X448690Y-04376D01*
X448122Y-04304D01*
X447548D01*
X446980Y-04376D01*
X446424Y-04520D01*
X445892Y-04730D01*
X445390Y-05006D01*
X444926Y-05342D01*
X444508Y-05736D01*
X444144Y-06176D01*
X443836Y-06660D01*
X443592Y-07178D01*
X443416Y-07724D01*
X443308Y-08286D01*
X443272Y-08858D01*
X443308Y-09430D01*
X443416Y-09992D01*
X443592Y-10538D01*
X443836Y-11056D01*
X444144Y-11540D01*
X444508Y-11982D01*
X444926Y-12374D01*
X445390Y-12710D01*
X445892Y-12986D01*
X446424Y-13198D01*
X446980Y-13340D01*
G37*
G36*
X748160Y-13340D02*
X748730Y-13412D01*
X749302D01*
X749870Y-13340D01*
X750426Y-13198D01*
X750958Y-12986D01*
X751460Y-12710D01*
X751924Y-12374D01*
X752342Y-11982D01*
X752706Y-11540D01*
X753014Y-11056D01*
X753258Y-10538D01*
X753434Y-09992D01*
X753542Y-09430D01*
X753578Y-08858D01*
X753542Y-08286D01*
X753434Y-07724D01*
X753258Y-07178D01*
X753014Y-06660D01*
X752706Y-06176D01*
X752342Y-05736D01*
X751924Y-05342D01*
X751460Y-05006D01*
X750958Y-04730D01*
X750426Y-04520D01*
X749870Y-04376D01*
X749302Y-04304D01*
X748730D01*
X748160Y-04376D01*
X747606Y-04520D01*
X747074Y-04730D01*
X746572Y-05006D01*
X746108Y-05342D01*
X745690Y-05736D01*
X745324Y-06176D01*
X745018Y-06660D01*
X744774Y-07178D01*
X744596Y-07724D01*
X744490Y-08286D01*
X744454Y-08858D01*
X744490Y-09430D01*
X744596Y-09992D01*
X744774Y-10538D01*
X745018Y-11056D01*
X745324Y-11540D01*
X745690Y-11982D01*
X746108Y-12374D01*
X746572Y-12710D01*
X747074Y-12986D01*
X747606Y-13198D01*
X748160Y-13340D01*
G37*
G36*
X515878Y-13340D02*
X516446Y-13412D01*
X517018D01*
X517588Y-13340D01*
X518142Y-13198D01*
X518674Y-12986D01*
X519178Y-12710D01*
X519640Y-12374D01*
X520058Y-11982D01*
X520424Y-11540D01*
X520730Y-11056D01*
X520974Y-10538D01*
X521152Y-09992D01*
X521258Y-09430D01*
X521294Y-08858D01*
X521258Y-08286D01*
X521152Y-07724D01*
X520974Y-07178D01*
X520730Y-06660D01*
X520424Y-06176D01*
X520058Y-05736D01*
X519640Y-05342D01*
X519178Y-05006D01*
X518674Y-04730D01*
X518142Y-04520D01*
X517588Y-04376D01*
X517018Y-04304D01*
X516446D01*
X515878Y-04376D01*
X515322Y-04520D01*
X514790Y-04730D01*
X514288Y-05006D01*
X513824Y-05342D01*
X513406Y-05736D01*
X513042Y-06176D01*
X512734Y-06660D01*
X512490Y-07178D01*
X512314Y-07724D01*
X512206Y-08286D01*
X512170Y-08858D01*
X512206Y-09430D01*
X512314Y-09992D01*
X512490Y-10538D01*
X512734Y-11056D01*
X513042Y-11540D01*
X513406Y-11982D01*
X513824Y-12374D01*
X514288Y-12710D01*
X514790Y-12986D01*
X515322Y-13198D01*
X515878Y-13340D01*
G37*
G36*
X403672Y-13340D02*
X404242Y-13412D01*
X404814D01*
X405382Y-13340D01*
X405938Y-13198D01*
X406470Y-12986D01*
X406972Y-12710D01*
X407436Y-12374D01*
X407854Y-11982D01*
X408218Y-11540D01*
X408526Y-11056D01*
X408770Y-10538D01*
X408946Y-09992D01*
X409054Y-09430D01*
X409090Y-08858D01*
X409054Y-08286D01*
X408946Y-07724D01*
X408770Y-07178D01*
X408526Y-06660D01*
X408218Y-06176D01*
X407854Y-05736D01*
X407436Y-05342D01*
X406972Y-05006D01*
X406470Y-04730D01*
X405938Y-04520D01*
X405382Y-04376D01*
X404814Y-04304D01*
X404242D01*
X403672Y-04376D01*
X403118Y-04520D01*
X402584Y-04730D01*
X402082Y-05006D01*
X401620Y-05342D01*
X401202Y-05736D01*
X400836Y-06176D01*
X400530Y-06660D01*
X400286Y-07178D01*
X400108Y-07724D01*
X400002Y-08286D01*
X399966Y-08858D01*
X400002Y-09430D01*
X400108Y-09992D01*
X400286Y-10538D01*
X400530Y-11056D01*
X400836Y-11540D01*
X401202Y-11982D01*
X401620Y-12374D01*
X402082Y-12710D01*
X402584Y-12986D01*
X403118Y-13198D01*
X403672Y-13340D01*
G37*
G36*
X334776Y-13340D02*
X335344Y-13412D01*
X335916D01*
X336484Y-13340D01*
X337040Y-13198D01*
X337572Y-12986D01*
X338074Y-12710D01*
X338538Y-12374D01*
X338956Y-11982D01*
X339322Y-11540D01*
X339628Y-11056D01*
X339872Y-10538D01*
X340050Y-09992D01*
X340156Y-09430D01*
X340192Y-08858D01*
X340156Y-08286D01*
X340050Y-07724D01*
X339872Y-07178D01*
X339628Y-06660D01*
X339322Y-06176D01*
X338956Y-05736D01*
X338538Y-05342D01*
X338074Y-05006D01*
X337572Y-04730D01*
X337040Y-04520D01*
X336484Y-04376D01*
X335916Y-04304D01*
X335344D01*
X334776Y-04376D01*
X334220Y-04520D01*
X333688Y-04730D01*
X333186Y-05006D01*
X332722Y-05342D01*
X332304Y-05736D01*
X331938Y-06176D01*
X331632Y-06660D01*
X331388Y-07178D01*
X331210Y-07724D01*
X331104Y-08286D01*
X331068Y-08858D01*
X331104Y-09430D01*
X331210Y-09992D01*
X331388Y-10538D01*
X331632Y-11056D01*
X331938Y-11540D01*
X332304Y-11982D01*
X332722Y-12374D01*
X333186Y-12710D01*
X333688Y-12986D01*
X334220Y-13198D01*
X334776Y-13340D01*
G37*
G36*
X817058Y-13340D02*
X817626Y-13412D01*
X818200D01*
X818768Y-13340D01*
X819324Y-13198D01*
X819856Y-12986D01*
X820358Y-12710D01*
X820822Y-12374D01*
X821240Y-11982D01*
X821604Y-11540D01*
X821912Y-11056D01*
X822156Y-10538D01*
X822332Y-09992D01*
X822440Y-09430D01*
X822476Y-08858D01*
X822440Y-08286D01*
X822332Y-07724D01*
X822156Y-07178D01*
X821912Y-06660D01*
X821604Y-06176D01*
X821240Y-05736D01*
X820822Y-05342D01*
X820358Y-05006D01*
X819856Y-04730D01*
X819324Y-04520D01*
X818768Y-04376D01*
X818200Y-04304D01*
X817626D01*
X817058Y-04376D01*
X816504Y-04520D01*
X815970Y-04730D01*
X815468Y-05006D01*
X815006Y-05342D01*
X814588Y-05736D01*
X814222Y-06176D01*
X813916Y-06660D01*
X813672Y-07178D01*
X813494Y-07724D01*
X813386Y-08286D01*
X813350Y-08858D01*
X813386Y-09430D01*
X813494Y-09992D01*
X813672Y-10538D01*
X813916Y-11056D01*
X814222Y-11540D01*
X814588Y-11982D01*
X815006Y-12374D01*
X815468Y-12710D01*
X815970Y-12986D01*
X816504Y-13198D01*
X817058Y-13340D01*
G37*
G36*
X7208Y-05904D02*
X7874Y-05940D01*
X8540Y-05904D01*
X9196Y-05792D01*
X9836Y-05608D01*
X10452Y-05352D01*
X11034Y-05030D01*
X11578Y-04644D01*
X12074Y-04200D01*
X12518Y-03704D01*
X12904Y-03160D01*
X13226Y-02578D01*
X13482Y-01962D01*
X13666Y-01322D01*
X13778Y-00666D01*
X13814Y0D01*
X13778Y666D01*
X13666Y1322D01*
X13482Y1962D01*
X13226Y2578D01*
X12904Y3160D01*
X12518Y3704D01*
X12074Y4200D01*
X11578Y4644D01*
X11034Y5030D01*
X10452Y5352D01*
X9836Y5608D01*
X9196Y5792D01*
X8540Y5904D01*
X7874Y5940D01*
X7208Y5904D01*
X6552Y5792D01*
X5912Y5608D01*
X5296Y5352D01*
X4714Y5030D01*
X4170Y4644D01*
X3674Y4200D01*
X3230Y3704D01*
X2844Y3160D01*
X2522Y2578D01*
X2266Y1962D01*
X2082Y1322D01*
X1970Y666D01*
X1934Y0D01*
X1970Y-00666D01*
X2082Y-01322D01*
X2266Y-01962D01*
X2522Y-02578D01*
X2844Y-03160D01*
X3230Y-03704D01*
X3674Y-04200D01*
X4170Y-04644D01*
X4714Y-05030D01*
X5296Y-05352D01*
X5912Y-05608D01*
X6552Y-05792D01*
X7208Y-05904D01*
G37*
G36*
X843822Y-05904D02*
X844488Y-05940D01*
X845154Y-05904D01*
X845810Y-05792D01*
X846450Y-05608D01*
X847066Y-05352D01*
X847648Y-05030D01*
X848192Y-04644D01*
X848688Y-04200D01*
X849132Y-03704D01*
X849518Y-03160D01*
X849840Y-02578D01*
X850096Y-01962D01*
X850280Y-01322D01*
X850392Y-00666D01*
X850428Y0D01*
X850392Y666D01*
X850280Y1322D01*
X850096Y1962D01*
X849840Y2578D01*
X849518Y3160D01*
X849132Y3704D01*
X848688Y4200D01*
X848192Y4644D01*
X847648Y5030D01*
X847066Y5352D01*
X846450Y5608D01*
X845810Y5792D01*
X845154Y5904D01*
X844488Y5940D01*
X843822Y5904D01*
X843166Y5792D01*
X842526Y5608D01*
X841910Y5352D01*
X841328Y5030D01*
X840784Y4644D01*
X840288Y4200D01*
X839844Y3704D01*
X839458Y3160D01*
X839136Y2578D01*
X838880Y1962D01*
X838696Y1322D01*
X838584Y666D01*
X838548Y0D01*
X838584Y-00666D01*
X838696Y-01322D01*
X838880Y-01962D01*
X839136Y-02578D01*
X839458Y-03160D01*
X839844Y-03704D01*
X840288Y-04200D01*
X840784Y-04644D01*
X841328Y-05030D01*
X841910Y-05352D01*
X842526Y-05608D01*
X843166Y-05792D01*
X843822Y-05904D01*
G37*
G36*
X62062Y6836D02*
Y4774D01*
X62484Y5006D01*
X62948Y5342D01*
X63366Y5736D01*
X63730Y6176D01*
X64038Y6660D01*
X64120Y6836D01*
X62062D01*
G37*
G36*
X32004Y5006D02*
X32428Y4774D01*
Y6836D01*
X30368D01*
X30450Y6660D01*
X30758Y6176D01*
X31122Y5736D01*
X31540Y5342D01*
X32004Y5006D01*
G37*
G36*
X36470Y6836D02*
Y4774D01*
X36894Y5006D01*
X37358Y5342D01*
X37774Y5736D01*
X38140Y6176D01*
X38446Y6660D01*
X38530Y6836D01*
X36470D01*
G37*
G36*
X57594Y5006D02*
X58018Y4774D01*
Y6836D01*
X55958D01*
X56042Y6660D01*
X56348Y6176D01*
X56714Y5736D01*
X57132Y5342D01*
X57594Y5006D01*
G37*
G36*
X682140Y6836D02*
Y4774D01*
X682562Y5006D01*
X683026Y5342D01*
X683444Y5736D01*
X683810Y6176D01*
X684116Y6660D01*
X684200Y6836D01*
X682140D01*
G37*
G36*
X720980Y5006D02*
X721404Y4774D01*
Y6836D01*
X719344D01*
X719428Y6660D01*
X719734Y6176D01*
X720100Y5736D01*
X720516Y5342D01*
X720980Y5006D01*
G37*
G36*
X677674Y5006D02*
X678096Y4774D01*
Y6836D01*
X676038D01*
X676120Y6660D01*
X676428Y6176D01*
X676792Y5736D01*
X677210Y5342D01*
X677674Y5006D01*
G37*
G36*
X789878Y5006D02*
X790302Y4774D01*
Y6836D01*
X788242D01*
X788324Y6660D01*
X788632Y6176D01*
X788996Y5736D01*
X789414Y5342D01*
X789878Y5006D01*
G37*
G36*
X725446Y6836D02*
Y4774D01*
X725870Y5006D01*
X726334Y5342D01*
X726752Y5736D01*
X727116Y6176D01*
X727424Y6660D01*
X727506Y6836D01*
X725446D01*
G37*
G36*
X470980Y5006D02*
X471404Y4774D01*
Y6836D01*
X469344D01*
X469428Y6660D01*
X469734Y6176D01*
X470100Y5736D01*
X470516Y5342D01*
X470980Y5006D01*
G37*
G36*
X656550Y6836D02*
Y4774D01*
X656972Y5006D01*
X657436Y5342D01*
X657854Y5736D01*
X658218Y6176D01*
X658526Y6660D01*
X658608Y6836D01*
X656550D01*
G37*
G36*
X608776Y5006D02*
X609198Y4774D01*
Y6836D01*
X607140D01*
X607222Y6660D01*
X607530Y6176D01*
X607894Y5736D01*
X608312Y5342D01*
X608776Y5006D01*
G37*
G36*
X518754Y6836D02*
Y4774D01*
X519178Y5006D01*
X519640Y5342D01*
X520058Y5736D01*
X520424Y6176D01*
X520730Y6660D01*
X520814Y6836D01*
X518754D01*
G37*
G36*
X539878Y5006D02*
X540302Y4774D01*
Y6836D01*
X538242D01*
X538324Y6660D01*
X538632Y6176D01*
X538996Y5736D01*
X539414Y5342D01*
X539878Y5006D01*
G37*
G36*
X746572Y5006D02*
X746994Y4774D01*
Y6836D01*
X744934D01*
X745018Y6660D01*
X745324Y6176D01*
X745690Y5736D01*
X746108Y5342D01*
X746572Y5006D01*
G37*
G36*
X815468Y5006D02*
X815892Y4774D01*
Y6836D01*
X813832D01*
X813916Y6660D01*
X814222Y6176D01*
X814588Y5736D01*
X815006Y5342D01*
X815468Y5006D01*
G37*
G36*
X402082Y5006D02*
X402506Y4774D01*
Y6836D01*
X400446D01*
X400530Y6660D01*
X400836Y6176D01*
X401202Y5736D01*
X401620Y5342D01*
X402082Y5006D01*
G37*
G36*
X333186Y5006D02*
X333608Y4774D01*
Y6836D01*
X331548D01*
X331632Y6660D01*
X331938Y6176D01*
X332304Y5736D01*
X332722Y5342D01*
X333186Y5006D01*
G37*
G36*
X652082Y5006D02*
X652506Y4774D01*
Y6836D01*
X650446D01*
X650530Y6660D01*
X650836Y6176D01*
X651202Y5736D01*
X651620Y5342D01*
X652082Y5006D01*
G37*
G36*
X587652Y6836D02*
Y4774D01*
X588074Y5006D01*
X588538Y5342D01*
X588956Y5736D01*
X589322Y6176D01*
X589628Y6660D01*
X589712Y6836D01*
X587652D01*
G37*
G36*
X794344Y6836D02*
Y4774D01*
X794768Y5006D01*
X795232Y5342D01*
X795648Y5736D01*
X796014Y6176D01*
X796320Y6660D01*
X796404Y6836D01*
X794344D01*
G37*
G36*
X380958Y6836D02*
Y4774D01*
X381382Y5006D01*
X381846Y5342D01*
X382262Y5736D01*
X382628Y6176D01*
X382936Y6660D01*
X383018Y6836D01*
X380958D01*
G37*
G36*
X751038Y6836D02*
Y4774D01*
X751460Y5006D01*
X751924Y5342D01*
X752342Y5736D01*
X752706Y6176D01*
X753014Y6660D01*
X753096Y6836D01*
X751038D01*
G37*
G36*
X312062Y6836D02*
Y4774D01*
X312484Y5006D01*
X312948Y5342D01*
X313366Y5736D01*
X313730Y6176D01*
X314038Y6660D01*
X314120Y6836D01*
X312062D01*
G37*
G36*
X449856Y6836D02*
Y4774D01*
X450280Y5006D01*
X450742Y5342D01*
X451160Y5736D01*
X451526Y6176D01*
X451832Y6660D01*
X451916Y6836D01*
X449856D01*
G37*
G36*
X445390Y5006D02*
X445812Y4774D01*
Y6836D01*
X443754D01*
X443836Y6660D01*
X444144Y6176D01*
X444508Y5736D01*
X444926Y5342D01*
X445390Y5006D01*
G37*
G36*
X337652Y6836D02*
Y4774D01*
X338074Y5006D01*
X338538Y5342D01*
X338956Y5736D01*
X339322Y6176D01*
X339628Y6660D01*
X339712Y6836D01*
X337652D01*
G37*
G36*
X307594Y5006D02*
X308018Y4774D01*
Y6836D01*
X305958D01*
X306042Y6660D01*
X306348Y6176D01*
X306714Y5736D01*
X307132Y5342D01*
X307594Y5006D01*
G37*
G36*
X376492Y5006D02*
X376916Y4774D01*
Y6836D01*
X374856D01*
X374938Y6660D01*
X375246Y6176D01*
X375612Y5736D01*
X376028Y5342D01*
X376492Y5006D01*
G37*
G36*
X475446Y6836D02*
Y4774D01*
X475870Y5006D01*
X476334Y5342D01*
X476752Y5736D01*
X477116Y6176D01*
X477424Y6660D01*
X477506Y6836D01*
X475446D01*
G37*
G36*
X406550Y6836D02*
Y4774D01*
X406972Y5006D01*
X407436Y5342D01*
X407854Y5736D01*
X408218Y6176D01*
X408526Y6660D01*
X408608Y6836D01*
X406550D01*
G37*
G36*
X544344Y6836D02*
Y4774D01*
X544768Y5006D01*
X545232Y5342D01*
X545648Y5736D01*
X546014Y6176D01*
X546322Y6660D01*
X546404Y6836D01*
X544344D01*
G37*
G36*
X514288Y5006D02*
X514710Y4774D01*
Y6836D01*
X512652D01*
X512734Y6660D01*
X513042Y6176D01*
X513406Y5736D01*
X513824Y5342D01*
X514288Y5006D01*
G37*
G36*
X819936Y6836D02*
Y4774D01*
X820358Y5006D01*
X820822Y5342D01*
X821240Y5736D01*
X821604Y6176D01*
X821912Y6660D01*
X821994Y6836D01*
X819936D01*
G37*
G36*
X613242Y6836D02*
Y4774D01*
X613666Y5006D01*
X614128Y5342D01*
X614546Y5736D01*
X614912Y6176D01*
X615218Y6660D01*
X615302Y6836D01*
X613242D01*
G37*
G36*
X583186Y5006D02*
X583608Y4774D01*
Y6836D01*
X581548D01*
X581632Y6660D01*
X581938Y6176D01*
X582304Y5736D01*
X582722Y5342D01*
X583186Y5006D01*
G37*
G36*
X290798Y10464D02*
X291046Y10436D01*
X292446D01*
Y12978D01*
X290004D01*
Y11480D01*
X290032Y11230D01*
X290106Y11016D01*
X290228Y10822D01*
X290390Y10662D01*
X290582Y10540D01*
X290798Y10464D01*
G37*
G36*
X571884Y12978D02*
Y10436D01*
X573284D01*
X573534Y10464D01*
X573748Y10540D01*
X573942Y10662D01*
X574102Y10822D01*
X574224Y11016D01*
X574300Y11230D01*
X574328Y11480D01*
Y12978D01*
X571884D01*
G37*
G36*
X296294Y12978D02*
Y10436D01*
X297694D01*
X297942Y10464D01*
X298158Y10540D01*
X298350Y10662D01*
X298512Y10822D01*
X298634Y11016D01*
X298708Y11230D01*
X298736Y11480D01*
Y12978D01*
X296294D01*
G37*
G36*
X56042Y11056D02*
X55958Y10880D01*
X58018D01*
Y12944D01*
X57594Y12710D01*
X57132Y12374D01*
X56714Y11982D01*
X56348Y11540D01*
X56042Y11056D01*
G37*
G36*
X30450Y11056D02*
X30368Y10880D01*
X32428D01*
Y12944D01*
X32004Y12710D01*
X31540Y12374D01*
X31122Y11982D01*
X30758Y11540D01*
X30450Y11056D01*
G37*
G36*
X62062Y12944D02*
Y10880D01*
X64120D01*
X64038Y11056D01*
X63730Y11540D01*
X63366Y11982D01*
X62948Y12374D01*
X62484Y12710D01*
X62062Y12944D01*
G37*
G36*
X36470Y12944D02*
Y10880D01*
X38530D01*
X38446Y11056D01*
X38140Y11540D01*
X37774Y11982D01*
X37358Y12374D01*
X36894Y12710D01*
X36470Y12944D01*
G37*
G36*
X682140Y12944D02*
Y10880D01*
X684200D01*
X684116Y11056D01*
X683810Y11540D01*
X683444Y11982D01*
X683026Y12374D01*
X682562Y12710D01*
X682140Y12944D01*
G37*
G36*
X719428Y11056D02*
X719344Y10880D01*
X721404D01*
Y12944D01*
X720980Y12710D01*
X720516Y12374D01*
X720100Y11982D01*
X719734Y11540D01*
X719428Y11056D01*
G37*
G36*
X676120Y11056D02*
X676038Y10880D01*
X678096D01*
Y12944D01*
X677674Y12710D01*
X677210Y12374D01*
X676792Y11982D01*
X676428Y11540D01*
X676120Y11056D01*
G37*
G36*
X725446Y12944D02*
Y10880D01*
X727506D01*
X727424Y11056D01*
X727116Y11540D01*
X726752Y11982D01*
X726334Y12374D01*
X725870Y12710D01*
X725446Y12944D01*
G37*
G36*
X105368Y12944D02*
Y10880D01*
X107428D01*
X107344Y11056D01*
X107038Y11540D01*
X106672Y11982D01*
X106254Y12374D01*
X105792Y12710D01*
X105368Y12944D01*
G37*
G36*
X656550Y12944D02*
Y10880D01*
X658608D01*
X658526Y11056D01*
X658218Y11540D01*
X657854Y11982D01*
X657436Y12374D01*
X656972Y12710D01*
X656550Y12944D01*
G37*
G36*
X400530Y11056D02*
X400446Y10880D01*
X402506D01*
Y12944D01*
X402082Y12710D01*
X401620Y12374D01*
X401202Y11982D01*
X400836Y11540D01*
X400530Y11056D01*
G37*
G36*
X312062Y12944D02*
Y10880D01*
X314120D01*
X314038Y11056D01*
X313730Y11540D01*
X313366Y11982D01*
X312948Y12374D01*
X312484Y12710D01*
X312062Y12944D01*
G37*
G36*
X449856Y12944D02*
Y10880D01*
X451916D01*
X451832Y11056D01*
X451526Y11540D01*
X451160Y11982D01*
X450742Y12374D01*
X450280Y12710D01*
X449856Y12944D01*
G37*
G36*
X262734Y11056D02*
X262652Y10880D01*
X264710D01*
Y12944D01*
X264288Y12710D01*
X263824Y12374D01*
X263406Y11982D01*
X263042Y11540D01*
X262734Y11056D01*
G37*
G36*
X469428Y11056D02*
X469344Y10880D01*
X471404D01*
Y12944D01*
X470980Y12710D01*
X470516Y12374D01*
X470100Y11982D01*
X469734Y11540D01*
X469428Y11056D01*
G37*
G36*
X518754Y12944D02*
Y10880D01*
X520814D01*
X520730Y11056D01*
X520424Y11540D01*
X520058Y11982D01*
X519640Y12374D01*
X519178Y12710D01*
X518754Y12944D01*
G37*
G36*
X745018Y11056D02*
X744934Y10880D01*
X746994D01*
Y12944D01*
X746572Y12710D01*
X746108Y12374D01*
X745690Y11982D01*
X745324Y11540D01*
X745018Y11056D01*
G37*
G36*
X650530Y11056D02*
X650446Y10880D01*
X652506D01*
Y12944D01*
X652082Y12710D01*
X651620Y12374D01*
X651202Y11982D01*
X650836Y11540D01*
X650530Y11056D01*
G37*
G36*
X813916Y11056D02*
X813832Y10880D01*
X815892D01*
Y12944D01*
X815468Y12710D01*
X815006Y12374D01*
X814588Y11982D01*
X814222Y11540D01*
X813916Y11056D01*
G37*
G36*
X794344Y12944D02*
Y10880D01*
X796404D01*
X796320Y11056D01*
X796014Y11540D01*
X795648Y11982D01*
X795232Y12374D01*
X794768Y12710D01*
X794344Y12944D01*
G37*
G36*
X538324Y11056D02*
X538242Y10880D01*
X540302D01*
Y12944D01*
X539878Y12710D01*
X539414Y12374D01*
X538996Y11982D01*
X538632Y11540D01*
X538324Y11056D01*
G37*
G36*
X443836Y11056D02*
X443754Y10880D01*
X445812D01*
Y12944D01*
X445390Y12710D01*
X444926Y12374D01*
X444508Y11982D01*
X444144Y11540D01*
X443836Y11056D01*
G37*
G36*
X581632Y11056D02*
X581548Y10880D01*
X583608D01*
Y12944D01*
X583186Y12710D01*
X582722Y12374D01*
X582304Y11982D01*
X581938Y11540D01*
X581632Y11056D01*
G37*
G36*
X788324Y11056D02*
X788242Y10880D01*
X790302D01*
Y12944D01*
X789878Y12710D01*
X789414Y12374D01*
X788996Y11982D01*
X788632Y11540D01*
X788324Y11056D01*
G37*
G36*
X475446Y12944D02*
Y10880D01*
X477506D01*
X477424Y11056D01*
X477116Y11540D01*
X476752Y11982D01*
X476334Y12374D01*
X475870Y12710D01*
X475446Y12944D01*
G37*
G36*
X587652Y12944D02*
Y10880D01*
X589712D01*
X589628Y11056D01*
X589322Y11540D01*
X588956Y11982D01*
X588538Y12374D01*
X588074Y12710D01*
X587652Y12944D01*
G37*
G36*
X751038Y12944D02*
Y10880D01*
X753096D01*
X753014Y11056D01*
X752706Y11540D01*
X752342Y11982D01*
X751924Y12374D01*
X751460Y12710D01*
X751038Y12944D01*
G37*
G36*
X130958Y12944D02*
Y10880D01*
X133018D01*
X132936Y11056D01*
X132628Y11540D01*
X132262Y11982D01*
X131846Y12374D01*
X131382Y12710D01*
X130958Y12944D01*
G37*
G36*
X607222Y11056D02*
X607140Y10880D01*
X609198D01*
Y12944D01*
X608776Y12710D01*
X608312Y12374D01*
X607894Y11982D01*
X607530Y11540D01*
X607222Y11056D01*
G37*
G36*
X337652Y12944D02*
Y10880D01*
X339712D01*
X339628Y11056D01*
X339322Y11540D01*
X338956Y11982D01*
X338538Y12374D01*
X338074Y12710D01*
X337652Y12944D01*
G37*
G36*
X613242Y12944D02*
Y10880D01*
X615302D01*
X615218Y11056D01*
X614912Y11540D01*
X614546Y11982D01*
X614128Y12374D01*
X613666Y12710D01*
X613242Y12944D01*
G37*
G36*
X374938Y11056D02*
X374856Y10880D01*
X376916D01*
Y12944D01*
X376492Y12710D01*
X376028Y12374D01*
X375612Y11982D01*
X375246Y11540D01*
X374938Y11056D01*
G37*
G36*
X124938Y11056D02*
X124856Y10880D01*
X126916D01*
Y12944D01*
X126492Y12710D01*
X126028Y12374D01*
X125612Y11982D01*
X125246Y11540D01*
X124938Y11056D01*
G37*
G36*
X237144Y11056D02*
X237060Y10880D01*
X239120D01*
Y12944D01*
X238696Y12710D01*
X238234Y12374D01*
X237816Y11982D01*
X237450Y11540D01*
X237144Y11056D01*
G37*
G36*
X331632Y11056D02*
X331548Y10880D01*
X333608D01*
Y12944D01*
X333186Y12710D01*
X332722Y12374D01*
X332304Y11982D01*
X331938Y11540D01*
X331632Y11056D01*
G37*
G36*
X99348Y11056D02*
X99266Y10880D01*
X101324D01*
Y12944D01*
X100902Y12710D01*
X100438Y12374D01*
X100020Y11982D01*
X99656Y11540D01*
X99348Y11056D01*
G37*
G36*
X380958Y12944D02*
Y10880D01*
X383018D01*
X382936Y11056D01*
X382628Y11540D01*
X382262Y11982D01*
X381846Y12374D01*
X381382Y12710D01*
X380958Y12944D01*
G37*
G36*
X406550Y12944D02*
Y10880D01*
X408608D01*
X408526Y11056D01*
X408218Y11540D01*
X407854Y11982D01*
X407436Y12374D01*
X406972Y12710D01*
X406550Y12944D01*
G37*
G36*
X243164Y12944D02*
Y10880D01*
X245222D01*
X245140Y11056D01*
X244832Y11540D01*
X244468Y11982D01*
X244050Y12374D01*
X243586Y12710D01*
X243164Y12944D01*
G37*
G36*
X819936Y12944D02*
Y10880D01*
X821994D01*
X821912Y11056D01*
X821604Y11540D01*
X821240Y11982D01*
X820822Y12374D01*
X820358Y12710D01*
X819936Y12944D01*
G37*
G36*
X306042Y11056D02*
X305958Y10880D01*
X308018D01*
Y12944D01*
X307594Y12710D01*
X307132Y12374D01*
X306714Y11982D01*
X306348Y11540D01*
X306042Y11056D01*
G37*
G36*
X512734Y11056D02*
X512652Y10880D01*
X514710D01*
Y12944D01*
X514288Y12710D01*
X513824Y12374D01*
X513406Y11982D01*
X513042Y11540D01*
X512734Y11056D01*
G37*
G36*
X544344Y12944D02*
Y10880D01*
X546404D01*
X546322Y11056D01*
X546014Y11540D01*
X545648Y11982D01*
X545232Y12374D01*
X544768Y12710D01*
X544344Y12944D01*
G37*
G36*
X268754Y12944D02*
Y10880D01*
X270814D01*
X270730Y11056D01*
X270424Y11540D01*
X270058Y11982D01*
X269640Y12374D01*
X269178Y12710D01*
X268754Y12944D01*
G37*
G36*
X286392Y12978D02*
Y10918D01*
X286568Y11002D01*
X287052Y11308D01*
X287494Y11674D01*
X287886Y12092D01*
X288222Y12556D01*
X288454Y12978D01*
X286392D01*
G37*
G36*
X282172Y11002D02*
X282348Y10918D01*
Y12978D01*
X280286D01*
X280518Y12556D01*
X280854Y12092D01*
X281246Y11674D01*
X281688Y11308D01*
X282172Y11002D01*
G37*
G36*
X561982Y19082D02*
Y17022D01*
X564046D01*
X563812Y17444D01*
X563476Y17908D01*
X563084Y18326D01*
X562642Y18692D01*
X562158Y18998D01*
X561982Y19082D01*
G37*
G36*
X556108Y17444D02*
X555876Y17022D01*
X557938D01*
Y19082D01*
X557762Y18998D01*
X557278Y18692D01*
X556838Y18326D01*
X556446Y17908D01*
X556108Y17444D01*
G37*
G36*
X565594Y18520D02*
Y17022D01*
X568038D01*
Y19564D01*
X566636D01*
X566388Y19536D01*
X566172Y19460D01*
X565980Y19338D01*
X565818Y19178D01*
X565698Y18984D01*
X565622Y18770D01*
X565594Y18520D01*
G37*
G36*
X571884Y19564D02*
Y17022D01*
X574328D01*
Y18520D01*
X574300Y18770D01*
X574224Y18984D01*
X574102Y19178D01*
X573942Y19338D01*
X573748Y19460D01*
X573534Y19536D01*
X573284Y19564D01*
X571884D01*
G37*
%LPD*%
G36*
X169414Y4392D02*
X156760D01*
X156606Y4422D01*
X156476Y4510D01*
X156390Y4640D01*
X156360Y4792D01*
X156390Y4946D01*
X156476Y5076D01*
X163326Y11926D01*
X163456Y12012D01*
X163610Y12042D01*
X168144D01*
X168310Y12006D01*
X168446Y11904D01*
X168528Y11756D01*
X168540Y11588D01*
X168482Y11428D01*
X168246Y11056D01*
X168162Y10880D01*
X170222D01*
Y11642D01*
X170252Y11796D01*
X170340Y11926D01*
X170470Y12012D01*
X170622Y12042D01*
X173866D01*
X174018Y12012D01*
X174148Y11926D01*
X174236Y11796D01*
X174266Y11642D01*
Y10880D01*
X176326D01*
X176242Y11056D01*
X176006Y11428D01*
X175948Y11588D01*
X175960Y11756D01*
X176042Y11904D01*
X176178Y12006D01*
X176344Y12042D01*
X193734D01*
X193900Y12006D01*
X194036Y11904D01*
X194118Y11756D01*
X194130Y11588D01*
X194072Y11428D01*
X193836Y11056D01*
X193754Y10880D01*
X195814D01*
Y11642D01*
X195844Y11796D01*
X195930Y11926D01*
X196060Y12012D01*
X196214Y12042D01*
X199456D01*
X199610Y12012D01*
X199740Y11926D01*
X199826Y11796D01*
X199856Y11642D01*
Y10880D01*
X201916D01*
X201832Y11056D01*
X201598Y11428D01*
X201538Y11588D01*
X201552Y11756D01*
X201634Y11904D01*
X201770Y12006D01*
X201934Y12042D01*
X216620D01*
X216774Y12012D01*
X216902Y11926D01*
X216990Y11796D01*
X217020Y11642D01*
Y6952D01*
X216990Y6800D01*
X216902Y6670D01*
X216840Y6606D01*
X216618Y6290D01*
X216454Y5940D01*
X216354Y5566D01*
X216320Y5180D01*
X216352Y4828D01*
X216332Y4664D01*
X216248Y4522D01*
X216114Y4426D01*
X215954Y4392D01*
X200666D01*
X200502Y4426D01*
X200368Y4524D01*
X200286Y4668D01*
X200268Y4834D01*
X200320Y4992D01*
X200430Y5116D01*
X200742Y5342D01*
X201160Y5736D01*
X201526Y6176D01*
X201832Y6660D01*
X201916Y6836D01*
X199856D01*
Y4792D01*
X199826Y4640D01*
X199740Y4510D01*
X199610Y4422D01*
X199456Y4392D01*
X196214D01*
X196060Y4422D01*
X195930Y4510D01*
X195844Y4640D01*
X195814Y4792D01*
Y6836D01*
X193754D01*
X193836Y6660D01*
X194144Y6176D01*
X194508Y5736D01*
X194926Y5342D01*
X195238Y5116D01*
X195350Y4992D01*
X195402Y4834D01*
X195384Y4668D01*
X195302Y4524D01*
X195166Y4426D01*
X195004Y4392D01*
X175076D01*
X174912Y4426D01*
X174778Y4524D01*
X174694Y4668D01*
X174678Y4834D01*
X174728Y4992D01*
X174840Y5116D01*
X175152Y5342D01*
X175570Y5736D01*
X175936Y6176D01*
X176242Y6660D01*
X176326Y6836D01*
X174266D01*
Y4792D01*
X174236Y4640D01*
X174148Y4510D01*
X174018Y4422D01*
X173866Y4392D01*
X170622D01*
X170470Y4422D01*
X170340Y4510D01*
X170252Y4640D01*
X170222Y4792D01*
Y6836D01*
X168162D01*
X168246Y6660D01*
X168552Y6176D01*
X168918Y5736D01*
X169336Y5342D01*
X169648Y5116D01*
X169760Y4992D01*
X169812Y4834D01*
X169794Y4668D01*
X169710Y4524D01*
X169576Y4426D01*
X169414Y4392D01*
G37*
G54D10*
X585630Y-08858D02*
G01X573819D01*
X569961Y-05000D01*
X473425Y-08858D02*
X482283Y0D01*
X547265D01*
X557265Y10000D01*
X564961D01*
X569961Y5000D01*
X310040Y-08858D02*
X300512D01*
X294370Y-15000D01*
X197834Y-08858D02*
X206692Y0D01*
X289370D01*
X294370Y-05000D01*
X792323Y-08858D02*
X781492Y-19689D01*
X564650D01*
X559961Y-15000D01*
X723426Y-08858D02*
X717284Y-15000D01*
X569961D01*
X654528Y-08858D02*
X645670Y0D01*
X564961D01*
X559961Y-05000D01*
X542323Y-08858D02*
X556181Y5000D01*
X559961D01*
X284370Y-15000D02*
X289032Y-19662D01*
X368133D01*
X378937Y-08858D01*
X266732D02*
X280512D01*
X284370Y-05000D01*
Y5000D02*
X282242Y2872D01*
X156131D01*
X153611Y352D01*
X138147D01*
X128937Y-08858D01*
X60039D02*
X66852Y-15671D01*
X275970D01*
X281290Y-10351D01*
X295920D01*
X299721Y-06550D01*
Y-00351D01*
X294370Y5000D01*
X434591Y2D02*
Y-01390D01*
X429942Y-06039D01*
X421984D01*
X415943Y2D01*
X361190D01*
X149610Y5000D02*
X154252D01*
X218540Y13562D02*
X162814D01*
X154252Y5000D01*
X361190Y2D02*
X341530Y19662D01*
X224640D01*
X218540Y13562D01*
Y5180D01*
X149610Y5000D02*
X144968D01*
X142610Y2642D01*
X74682D01*
X72040Y0D01*
X149610Y-05000D02*
X158223Y-13613D01*
X202825D01*
X206925Y-09513D01*
X149610Y-05000D02*
X140545Y-14065D01*
X87622D01*
X84096Y-10539D01*
G54D14*
X34449Y8858D03*
X60039D03*
X34449Y-08858D03*
X60039D03*
X103347Y8858D03*
X128937D03*
X103347Y-08858D03*
X128937D03*
X172244Y8858D03*
X197834D03*
X172244Y-08858D03*
X197834D03*
X241142Y8858D03*
X266732D03*
X241142Y-08858D03*
X266732D03*
X310040Y8858D03*
X335630D03*
X310040Y-08858D03*
X335630D03*
X378937Y8858D03*
X404527D03*
X378937Y-08858D03*
X404527D03*
X447835Y8858D03*
X473425D03*
X447835Y-08858D03*
X473425D03*
X516733Y8858D03*
X542323D03*
X516733Y-08858D03*
X542323D03*
X585630Y8858D03*
X611220D03*
X585630Y-08858D03*
X611220D03*
X654528Y8858D03*
X680118D03*
X654528Y-08858D03*
X680118D03*
X723426Y8858D03*
X749016D03*
X723426Y-08858D03*
X749016D03*
X792323Y8858D03*
X817913D03*
X792323Y-08858D03*
X817913D03*
X149610Y-05000D03*
G36*
X153153Y8543D02*
G01X146067D01*
Y1457D01*
X153153D01*
Y8543D01*
G37*
G54D16*
X569961Y15000D03*
G54D14*
X559961D03*
X569961Y5000D03*
X559961D03*
X569961Y-05000D03*
X559961D03*
X569961Y-15000D03*
X559961D03*
G54D16*
X294370Y15000D03*
G54D14*
X284370D03*
X294370Y5000D03*
X284370D03*
X294370Y-05000D03*
X284370D03*
X294370Y-15000D03*
X284370D03*
G54D11*
X84096Y-10539D03*
X206925Y-09513D03*
X72040Y0D03*
X218540Y5180D03*
X361190Y2D03*
X434591D03*
M02*
