%FSLAX25Y25*%
%MOIN*%
%ADD10C,0.00000394*%
%IPPOS*%
G75*
G36*
X91082Y3188D02*
G01X86024D01*
X85630Y2796D01*
Y1478D01*
X86024Y1084D01*
X87224D01*
X87618Y690D01*
Y-00690D01*
X87224Y-01084D01*
X86024D01*
X85630Y-01478D01*
Y-02796D01*
X86024Y-03188D01*
X91082D01*
X91476Y-02796D01*
Y2796D01*
X91082Y3188D01*
G37*
G36*
X79330Y3188D02*
X74272D01*
X73878Y2796D01*
Y-02796D01*
X74272Y-03188D01*
X79330D01*
X79724Y-02796D01*
Y-01478D01*
X79330Y-01084D01*
X78130D01*
X77736Y-00690D01*
Y690D01*
X78130Y1084D01*
X79330D01*
X79724Y1478D01*
Y2796D01*
X79330Y3188D01*
G37*
G36*
X228908Y3188D02*
X223848D01*
X223454Y2796D01*
Y1478D01*
X223848Y1084D01*
X225048D01*
X225442Y690D01*
Y-00690D01*
X225048Y-01084D01*
X223848D01*
X223454Y-01478D01*
Y-02796D01*
X223848Y-03188D01*
X228908D01*
X229302Y-02796D01*
Y2796D01*
X228908Y3188D01*
G37*
G36*
X217156Y3188D02*
X212096D01*
X211702Y2796D01*
Y-02796D01*
X212096Y-03188D01*
X217156D01*
X217550Y-02796D01*
Y-01478D01*
X217156Y-01084D01*
X215956D01*
X215562Y-00690D01*
Y690D01*
X215956Y1084D01*
X217156D01*
X217550Y1478D01*
Y2796D01*
X217156Y3188D01*
G37*
G36*
X368672Y3188D02*
X363612D01*
X363218Y2796D01*
Y1478D01*
X363612Y1084D01*
X364814D01*
X365206Y690D01*
Y-00690D01*
X364814Y-01084D01*
X363612D01*
X363218Y-01478D01*
Y-02796D01*
X363612Y-03188D01*
X368672D01*
X369066Y-02796D01*
Y2796D01*
X368672Y3188D01*
G37*
G36*
X356920Y3188D02*
X351860D01*
X351466Y2796D01*
Y-02796D01*
X351860Y-03188D01*
X356920D01*
X357314Y-02796D01*
Y-01478D01*
X356920Y-01084D01*
X355720D01*
X355326Y-00690D01*
Y690D01*
X355720Y1084D01*
X356920D01*
X357314Y1478D01*
Y2796D01*
X356920Y3188D01*
G37*
G36*
X504498Y1222D02*
X499438D01*
X499046Y828D01*
Y-00490D01*
X499438Y-00884D01*
X500640D01*
X501032Y-01278D01*
Y-02658D01*
X500640Y-03052D01*
X499438D01*
X499046Y-03446D01*
Y-04764D01*
X499438Y-05158D01*
X504498D01*
X504892Y-04764D01*
Y828D01*
X504498Y1222D01*
G37*
G36*
X492746Y1222D02*
X487686D01*
X487292Y828D01*
Y-04764D01*
X487686Y-05158D01*
X492746D01*
X493140Y-04764D01*
Y-03446D01*
X492746Y-03052D01*
X491546D01*
X491152Y-02658D01*
Y-01278D01*
X491546Y-00884D01*
X492746D01*
X493140Y-00490D01*
Y828D01*
X492746Y1222D01*
G37*
G36*
X642264Y3188D02*
X637204D01*
X636812Y2796D01*
Y1478D01*
X637204Y1084D01*
X638406D01*
X638800Y690D01*
Y-00690D01*
X638406Y-01084D01*
X637204D01*
X636812Y-01478D01*
Y-02796D01*
X637204Y-03188D01*
X642264D01*
X642658Y-02796D01*
Y2796D01*
X642264Y3188D01*
G37*
G36*
X630512Y3188D02*
X625454D01*
X625060Y2796D01*
Y-02796D01*
X625454Y-03188D01*
X630512D01*
X630906Y-02796D01*
Y-01478D01*
X630512Y-01084D01*
X629312D01*
X628918Y-00690D01*
Y690D01*
X629312Y1084D01*
X630512D01*
X630906Y1478D01*
Y2796D01*
X630512Y3188D01*
G37*
G36*
X780060Y3188D02*
X775000D01*
X774606Y2796D01*
Y1478D01*
X775000Y1084D01*
X776200D01*
X776594Y690D01*
Y-00690D01*
X776200Y-01084D01*
X775000D01*
X774606Y-01478D01*
Y-02796D01*
X775000Y-03188D01*
X780060D01*
X780454Y-02796D01*
Y2796D01*
X780060Y3188D01*
G37*
G36*
X768308Y3188D02*
X763248D01*
X762854Y2796D01*
Y-02796D01*
X763248Y-03188D01*
X768308D01*
X768702Y-02796D01*
Y-01478D01*
X768308Y-01084D01*
X767106D01*
X766714Y-00690D01*
Y690D01*
X767106Y1084D01*
X768308D01*
X768702Y1478D01*
Y2796D01*
X768308Y3188D01*
G37*
G36*
X78838Y-08462D02*
X74872D01*
X74478Y-08856D01*
Y-14766D01*
X74872Y-15160D01*
X78838D01*
X79232Y-14766D01*
Y-13344D01*
X78838Y-12950D01*
X78010D01*
X77616Y-12556D01*
Y-11066D01*
X78010Y-10672D01*
X78838D01*
X79232Y-10278D01*
Y-08856D01*
X78838Y-08462D01*
G37*
G36*
X90482Y-08462D02*
X86516D01*
X86122Y-08856D01*
Y-10278D01*
X86516Y-10672D01*
X87344D01*
X87738Y-11066D01*
Y-12556D01*
X87344Y-12950D01*
X86516D01*
X86122Y-13344D01*
Y-14766D01*
X86516Y-15160D01*
X90482D01*
X90876Y-14766D01*
Y-08856D01*
X90482Y-08462D01*
G37*
G36*
X216718Y-08462D02*
X212750D01*
X212356Y-08856D01*
Y-14766D01*
X212750Y-15160D01*
X216718D01*
X217110Y-14766D01*
Y-13344D01*
X216718Y-12950D01*
X215888D01*
X215494Y-12556D01*
Y-11066D01*
X215888Y-10672D01*
X216718D01*
X217110Y-10278D01*
Y-08856D01*
X216718Y-08462D01*
G37*
G36*
X228362Y-08462D02*
X224394D01*
X224000Y-08856D01*
Y-10278D01*
X224394Y-10672D01*
X225224D01*
X225618Y-11066D01*
Y-12556D01*
X225224Y-12950D01*
X224394D01*
X224000Y-13344D01*
Y-14766D01*
X224394Y-15160D01*
X228362D01*
X228754Y-14766D01*
Y-08856D01*
X228362Y-08462D01*
G37*
G36*
X356482Y-08462D02*
X352514D01*
X352122Y-08856D01*
Y-14766D01*
X352514Y-15160D01*
X356482D01*
X356876Y-14766D01*
Y-13344D01*
X356482Y-12950D01*
X355652D01*
X355258Y-12556D01*
Y-11066D01*
X355652Y-10672D01*
X356482D01*
X356876Y-10278D01*
Y-08856D01*
X356482Y-08462D01*
G37*
G36*
X368126Y-08462D02*
X364158D01*
X363764Y-08856D01*
Y-10278D01*
X364158Y-10672D01*
X364988D01*
X365382Y-11066D01*
Y-12556D01*
X364988Y-12950D01*
X364158D01*
X363764Y-13344D01*
Y-14766D01*
X364158Y-15160D01*
X368126D01*
X368518Y-14766D01*
Y-08856D01*
X368126Y-08462D01*
G37*
G36*
X492308Y-10432D02*
X488342D01*
X487948Y-10826D01*
Y-16734D01*
X488342Y-17128D01*
X492308D01*
X492702Y-16734D01*
Y-15312D01*
X492308Y-14918D01*
X491480D01*
X491086Y-14524D01*
Y-13036D01*
X491480Y-12642D01*
X492308D01*
X492702Y-12248D01*
Y-10826D01*
X492308Y-10432D01*
G37*
G36*
X503952Y-10432D02*
X499986D01*
X499592Y-10826D01*
Y-12248D01*
X499986Y-12642D01*
X500814D01*
X501208Y-13036D01*
Y-14524D01*
X500814Y-14918D01*
X499986D01*
X499592Y-15312D01*
Y-16734D01*
X499986Y-17128D01*
X503952D01*
X504346Y-16734D01*
Y-10826D01*
X503952Y-10432D01*
G37*
G36*
X630020Y-08462D02*
X626054D01*
X625660Y-08856D01*
Y-14766D01*
X626054Y-15160D01*
X630020D01*
X630414Y-14766D01*
Y-13344D01*
X630020Y-12950D01*
X629190D01*
X628796Y-12556D01*
Y-11066D01*
X629190Y-10672D01*
X630020D01*
X630414Y-10278D01*
Y-08856D01*
X630020Y-08462D01*
G37*
G36*
X641664Y-08462D02*
X637696D01*
X637304Y-08856D01*
Y-10278D01*
X637696Y-10672D01*
X638526D01*
X638920Y-11066D01*
Y-12556D01*
X638526Y-12950D01*
X637696D01*
X637304Y-13344D01*
Y-14766D01*
X637696Y-15160D01*
X641664D01*
X642058Y-14766D01*
Y-08856D01*
X641664Y-08462D01*
G37*
G36*
X767814Y-08462D02*
X763848D01*
X763454Y-08856D01*
Y-14766D01*
X763848Y-15160D01*
X767814D01*
X768208Y-14766D01*
Y-13344D01*
X767814Y-12950D01*
X766986D01*
X766592Y-12556D01*
Y-11066D01*
X766986Y-10672D01*
X767814D01*
X768208Y-10278D01*
Y-08856D01*
X767814Y-08462D01*
G37*
G36*
X779458Y-08462D02*
X775492D01*
X775098Y-08856D01*
Y-10278D01*
X775492Y-10672D01*
X776322D01*
X776714Y-11066D01*
Y-12556D01*
X776322Y-12950D01*
X775492D01*
X775098Y-13344D01*
Y-14766D01*
X775492Y-15160D01*
X779458D01*
X779852Y-14766D01*
Y-08856D01*
X779458Y-08462D01*
G37*
M02*
