M48
;FILE_FORMAT=2:5
INCH,TZ
T1F00S00C0.01205
T2F00S00C0.03937
T3F00S00C0.04331
%
T1
X218764Y101228
X150843Y62169
X262417Y207626
X159260Y71012
T2
X30000Y110000
Y120000
X40000Y110000
Y120000
X50000Y110000
Y120000
X60000Y110000
Y120000
X100000Y110000
Y120000
X110000Y110000
Y120000
X120000Y110000
Y120000
X160000Y110000
Y120000
X170000Y110000
Y120000
X180000Y110000
Y120000
X90000Y270000
Y280000
X100000Y270000
Y280000
X110000Y270000
Y280000
X150000Y270000
Y280000
X160000Y270000
Y280000
X170000Y270000
Y280000
X210000Y270000
Y280000
X220000Y270000
Y280000
X230000Y270000
Y280000
X270000Y270000
Y280000
X280000Y270000
Y280000
X290000Y270000
Y280000
X130000Y190000
Y200000
X140000Y190000
Y200000
X150000Y190000
Y200000
X340000Y190000
Y200000
X350000Y190000
Y200000
X360000Y190000
Y200000
X200000Y190000
Y200000
X210000Y190000
Y200000
X220000Y190000
Y200000
X230000Y190000
Y200000
X270000Y190000
Y200000
X280000Y190000
Y200000
X290000Y190000
Y200000
X300000Y190000
Y200000
X210000Y110000
Y120000
X220000Y110000
Y120000
X230000Y110000
Y120000
X240000Y110000
Y120000
X250000Y110000
Y120000
X260000Y110000
Y120000
X270000Y110000
Y120000
X280000Y110000
Y120000
X290000Y110000
Y120000
X300000Y110000
Y120000
X310000Y110000
Y120000
X320000Y110000
Y120000
X330000Y110000
Y120000
X340000Y110000
Y120000
X350000Y110000
Y120000
X360000Y110000
Y120000
X165000Y70000
Y80000
X175000Y70000
Y80000
X185000Y70000
Y80000
X195000Y70000
Y80000
X205000Y70000
Y80000
X215000Y70000
Y80000
X225000Y70000
Y80000
X30000Y190000
Y200000
X40000Y190000
Y200000
X50000Y190000
Y200000
X60000Y190000
Y200000
X70000Y190000
Y200000
X80000Y190000
Y200000
X90000Y190000
Y200000
X30000Y140000
X40000
X50000
X60000
X70000
X80000
X90000
X100000
X110000
X120000
X130000
X140000
X150000
X160000
X170000
X180000
X70000Y80000
X80000
X90000
X100000
X110000
X120000
X130000
X140000
X139996Y249996
X79996
X319996
X259996
X139996Y169996
X79996
X319996
X259996
X319996Y89996
X259996
X210000Y300000
X220000
X230000
X240000
X250000
X260000
X270000
X280000
X290000
X300000
X310000
X320000
X330000
X340000
X350000
X360000
X250000Y240000
X260000
X270000
X280000
X290000
X300000
X310000
X320000
X30000Y220000
X40000
X50000
X60000
X70000
X80000
X90000
X100000
X110000
X120000
X130000
X140000
X150000
X160000
X170000
X180000
X70000Y160000
X80000
X90000
X100000
X110000
X120000
X130000
X140000
X210000Y220000
X220000
X230000
X240000
X250000
X260000
X270000
X280000
X290000
X300000
X310000
X320000
X330000
X340000
X350000
X360000
X250000Y160000
X260000
X270000
X280000
X290000
X300000
X310000
X320000
X210000Y140000
X220000
X230000
X240000
X250000
X260000
X270000
X280000
X290000
X300000
X310000
X320000
X330000
X340000
X350000
X360000
X250000Y80000
X260000
X270000
X280000
X290000
X300000
X310000
X320000
X139996Y89996
X79996
X30000Y300000
X40000
X50000
X60000
X70000
X80000
X90000
X100000
X110000
X120000
X130000
X140000
X150000
X160000
X170000
X180000
X70000Y240000
X80000
X90000
X100000
X110000
X120000
X130000
X140000
X30000Y270000
Y280000
X40000Y270000
Y280000
X50000Y270000
Y280000
T3
X330000Y270000
Y280000
X340000Y270000
Y280000
X350000Y270000
Y280000
X360000Y270000
Y280000
M30
