%FSLAX25Y25*%
%MOIN*%
%ADD21C,0.06400000*%
%ADD22C,0.07480315*%
%IPPOS*%
G75*
G54D21*
X330000Y270000D03*
Y280000D03*
X340000Y270000D03*
Y280000D03*
X350000Y270000D03*
Y280000D03*
X360000Y270000D03*
Y280000D03*
G54D22*
X30000Y110000D03*
Y120000D03*
X40000Y110000D03*
Y120000D03*
X50000Y110000D03*
Y120000D03*
X60000Y110000D03*
Y120000D03*
X100000Y110000D03*
Y120000D03*
X110000Y110000D03*
Y120000D03*
X120000Y110000D03*
Y120000D03*
X160000Y110000D03*
Y120000D03*
X170000Y110000D03*
Y120000D03*
X180000Y110000D03*
Y120000D03*
X90000Y270000D03*
Y280000D03*
X100000Y270000D03*
Y280000D03*
X110000Y270000D03*
Y280000D03*
X150000Y270000D03*
Y280000D03*
X160000Y270000D03*
Y280000D03*
X170000Y270000D03*
Y280000D03*
X210000Y270000D03*
Y280000D03*
X220000Y270000D03*
Y280000D03*
X230000Y270000D03*
Y280000D03*
X270000Y270000D03*
Y280000D03*
X280000Y270000D03*
Y280000D03*
X290000Y270000D03*
Y280000D03*
X130000Y190000D03*
Y200000D03*
X140000Y190000D03*
Y200000D03*
X150000Y190000D03*
Y200000D03*
X340000Y190000D03*
Y200000D03*
X350000Y190000D03*
Y200000D03*
X360000Y190000D03*
Y200000D03*
X200000Y190000D03*
Y200000D03*
X210000Y190000D03*
Y200000D03*
X220000Y190000D03*
Y200000D03*
X230000Y190000D03*
Y200000D03*
X270000Y190000D03*
Y200000D03*
X280000Y190000D03*
Y200000D03*
X290000Y190000D03*
Y200000D03*
X300000Y190000D03*
Y200000D03*
G36*
X213740Y106700D02*
G01X206260D01*
Y113300D01*
X213740D01*
Y106700D01*
G37*
G54D22*
X210000Y120000D03*
X220000Y110000D03*
Y120000D03*
X230000Y110000D03*
Y120000D03*
X240000Y110000D03*
Y120000D03*
X250000Y110000D03*
Y120000D03*
X260000Y110000D03*
Y120000D03*
X270000Y110000D03*
Y120000D03*
X280000Y110000D03*
Y120000D03*
X290000Y110000D03*
Y120000D03*
X300000Y110000D03*
Y120000D03*
X310000Y110000D03*
Y120000D03*
X320000Y110000D03*
Y120000D03*
X330000Y110000D03*
Y120000D03*
X340000Y110000D03*
Y120000D03*
X350000Y110000D03*
Y120000D03*
X360000Y110000D03*
Y120000D03*
X165000Y70000D03*
Y80000D03*
X175000Y70000D03*
Y80000D03*
X185000Y70000D03*
Y80000D03*
X195000Y70000D03*
Y80000D03*
X205000Y70000D03*
Y80000D03*
X215000Y70000D03*
Y80000D03*
X225000Y70000D03*
Y80000D03*
X30000Y190000D03*
Y200000D03*
X40000Y190000D03*
Y200000D03*
X50000Y190000D03*
Y200000D03*
X60000Y190000D03*
Y200000D03*
X70000Y190000D03*
Y200000D03*
X80000Y190000D03*
Y200000D03*
X90000Y190000D03*
Y200000D03*
X30000Y140000D03*
X40000D03*
X50000D03*
X60000D03*
X70000D03*
X80000D03*
X90000D03*
X100000D03*
X110000D03*
X120000D03*
X130000D03*
X140000D03*
X150000D03*
X160000D03*
X170000D03*
X180000D03*
G36*
X73900Y76260D02*
G01X66100D01*
Y83740D01*
X73900D01*
Y76260D01*
G37*
G54D22*
X80000Y80000D03*
X90000D03*
X100000D03*
X110000D03*
X120000D03*
X130000D03*
X140000D03*
Y250000D03*
X80000D03*
X320000D03*
X260000D03*
X140000Y170000D03*
X80000D03*
X320000D03*
X260000D03*
X320000Y90000D03*
X260000D03*
X210000Y300000D03*
X220000D03*
X230000D03*
X240000D03*
X250000D03*
X260000D03*
X270000D03*
X280000D03*
X290000D03*
X300000D03*
X310000D03*
X320000D03*
X330000D03*
X340000D03*
X350000D03*
X360000D03*
G36*
X253900Y236260D02*
G01X246100D01*
Y243740D01*
X253900D01*
Y236260D01*
G37*
G54D22*
X260000Y240000D03*
X270000D03*
X280000D03*
X290000D03*
X300000D03*
X310000D03*
X320000D03*
X30000Y220000D03*
X40000D03*
X50000D03*
X60000D03*
X70000D03*
X80000D03*
X90000D03*
X100000D03*
X110000D03*
X120000D03*
X130000D03*
X140000D03*
X150000D03*
X160000D03*
X170000D03*
X180000D03*
G36*
X73900Y156260D02*
G01X66100D01*
Y163740D01*
X73900D01*
Y156260D01*
G37*
G54D22*
X80000Y160000D03*
X90000D03*
X100000D03*
X110000D03*
X120000D03*
X130000D03*
X140000D03*
X210000Y220000D03*
X220000D03*
X230000D03*
X240000D03*
X250000D03*
X260000D03*
X270000D03*
X280000D03*
X290000D03*
X300000D03*
X310000D03*
X320000D03*
X330000D03*
X340000D03*
X350000D03*
X360000D03*
G36*
X253900Y156260D02*
G01X246100D01*
Y163740D01*
X253900D01*
Y156260D01*
G37*
G54D22*
X260000Y160000D03*
X270000D03*
X280000D03*
X290000D03*
X300000D03*
X310000D03*
X320000D03*
X210000Y140000D03*
X220000D03*
X230000D03*
X240000D03*
X250000D03*
X260000D03*
X270000D03*
X280000D03*
X290000D03*
X300000D03*
X310000D03*
X320000D03*
X330000D03*
X340000D03*
X350000D03*
X360000D03*
G36*
X253900Y76260D02*
G01X246100D01*
Y83740D01*
X253900D01*
Y76260D01*
G37*
G54D22*
X260000Y80000D03*
X270000D03*
X280000D03*
X290000D03*
X300000D03*
X310000D03*
X320000D03*
X140000Y90001D03*
X80000D03*
X30000Y300000D03*
X40000D03*
X50000D03*
X60000D03*
X70000D03*
X80000D03*
X90000D03*
X100000D03*
X110000D03*
X120000D03*
X130000D03*
X140000D03*
X150000D03*
X160000D03*
X170000D03*
X180000D03*
G36*
X73900Y236260D02*
G01X66100D01*
Y243740D01*
X73900D01*
Y236260D01*
G37*
G54D22*
X80000Y240000D03*
X90000D03*
X100000D03*
X110000D03*
X120000D03*
X130000D03*
X140000D03*
X30000Y270000D03*
Y280000D03*
X40000Y270000D03*
Y280000D03*
X50000Y270000D03*
Y280000D03*
M02*
