%FSLAX25Y25*%
%MOIN*%
%ADD10C,0.01000000*%
%ADD17C,0.00800000*%
%ADD18C,0.00800000*%
%ADD19C,0.00393701*%
%ADD20C,0.00600000*%
%IPPOS*%
G75*
G54D19*
X32680Y58080D02*
G01X32510Y58440D01*
X32150Y58790D01*
X31790Y58970D01*
X31070D01*
X30720Y58790D01*
X30360Y58440D01*
X30180Y58080D01*
X30000Y57540D01*
Y56650D01*
X30180Y56110D01*
X30360Y55750D01*
X30720Y55390D01*
X31070Y55210D01*
X31790D01*
X32150Y55390D01*
X32510Y55750D01*
X32680Y56110D01*
Y56650D01*
X31790D02*
X32680D01*
X33870Y58260D02*
X34220Y58440D01*
X34760Y58970D01*
Y55210D01*
X37020Y58970D02*
X36480Y58790D01*
X36120Y58260D01*
X35940Y57360D01*
Y56830D01*
X36120Y55930D01*
X36480Y55390D01*
X37020Y55210D01*
X37370D01*
X37910Y55390D01*
X38270Y55930D01*
X38450Y56830D01*
Y57360D01*
X38270Y58260D01*
X37910Y58790D01*
X37370Y58970D01*
X37020D01*
X40700D02*
X40160Y58790D01*
X39810Y58260D01*
X39630Y57360D01*
Y56830D01*
X39810Y55930D01*
X40160Y55390D01*
X40700Y55210D01*
X41060D01*
X41600Y55390D01*
X41950Y55930D01*
X42130Y56830D01*
Y57360D01*
X41950Y58260D01*
X41600Y58790D01*
X41060Y58970D01*
X40700D01*
X44390D02*
X43850Y58790D01*
X43490Y58260D01*
X43310Y57360D01*
Y56830D01*
X43490Y55930D01*
X43850Y55390D01*
X44390Y55210D01*
X44750D01*
X45280Y55390D01*
X45640Y55930D01*
X45820Y56830D01*
Y57360D01*
X45640Y58260D01*
X45280Y58790D01*
X44750Y58970D01*
X44390D01*
X49760D02*
Y55210D01*
Y58970D02*
X51190Y55210D01*
X52620Y58970D02*
X51190Y55210D01*
X52620Y58970D02*
Y55210D01*
X53800Y58970D02*
Y56290D01*
X53980Y55750D01*
X54340Y55390D01*
X54870Y55210D01*
X55230D01*
X55770Y55390D01*
X56130Y55750D01*
X56310Y56290D01*
Y58970D01*
X57490D02*
X59990Y55210D01*
Y58970D02*
X57490Y55210D01*
X63930Y58970D02*
X65360Y55210D01*
X66790Y58970D02*
X65360Y55210D01*
X68150Y58080D02*
Y58260D01*
X68330Y58610D01*
X68510Y58790D01*
X68870Y58970D01*
X69580D01*
X69940Y58790D01*
X70120Y58610D01*
X70300Y58260D01*
Y57900D01*
X70120Y57540D01*
X69760Y57000D01*
X67970Y55210D01*
X70480D01*
X75670Y59690D02*
X75310Y59330D01*
X74950Y58790D01*
X74600Y58080D01*
X74420Y57180D01*
Y56470D01*
X74600Y55570D01*
X74950Y54860D01*
X75310Y54320D01*
X75670Y53960D01*
X79000Y57180D02*
X78640Y57540D01*
X78280Y57720D01*
X77750D01*
X77390Y57540D01*
X77030Y57180D01*
X76850Y56650D01*
Y56290D01*
X77030Y55750D01*
X77390Y55390D01*
X77750Y55210D01*
X78280D01*
X78640Y55390D01*
X79000Y55750D01*
X80180Y59690D02*
X80540Y59330D01*
X80890Y58790D01*
X81250Y58080D01*
X81430Y57180D01*
Y56470D01*
X81250Y55570D01*
X80890Y54860D01*
X80540Y54320D01*
X80180Y53960D01*
X85370Y57720D02*
Y55210D01*
Y57000D02*
X85910Y57540D01*
X86260Y57720D01*
X86800D01*
X87160Y57540D01*
X87340Y57000D01*
Y55210D01*
Y57000D02*
X87870Y57540D01*
X88230Y57720D01*
X88770D01*
X89130Y57540D01*
X89310Y57000D01*
Y55210D01*
X90490Y57720D02*
Y55210D01*
Y56650D02*
X90670Y57180D01*
X91020Y57540D01*
X91380Y57720D01*
X91920D01*
X93100D02*
Y55930D01*
X93280Y55390D01*
X93640Y55210D01*
X94170D01*
X94530Y55390D01*
X95070Y55930D01*
Y57720D02*
Y55210D01*
X98220Y57180D02*
X98040Y57540D01*
X97500Y57720D01*
X96960D01*
X96430Y57540D01*
X96250Y57180D01*
X96430Y56830D01*
X96790Y56650D01*
X97680Y56470D01*
X98040Y56290D01*
X98220Y55930D01*
Y55750D01*
X98040Y55390D01*
X97500Y55210D01*
X96960D01*
X96430Y55390D01*
X96250Y55750D01*
X99400Y58970D02*
Y55210D01*
X101190Y57720D02*
X99400Y55930D01*
X100110Y56650D02*
X101370Y55210D01*
G54D20*
X350000Y254540D02*
G01Y250250D01*
Y254540D02*
X352660D01*
X350000Y252500D02*
X351640D01*
X354010Y254540D02*
Y250250D01*
Y254540D02*
X355650Y250250D01*
X357280Y254540D02*
X355650Y250250D01*
X357280Y254540D02*
Y250250D01*
X361500Y253930D02*
X361090Y254340D01*
X360470Y254540D01*
X359650D01*
X359040Y254340D01*
X358630Y253930D01*
Y253520D01*
X358840Y253110D01*
X359040Y252900D01*
X359450Y252700D01*
X360680Y252290D01*
X361090Y252090D01*
X361290Y251880D01*
X361500Y251470D01*
Y250860D01*
X361090Y250450D01*
X360470Y250250D01*
X359650D01*
X359040Y250450D01*
X358630Y250860D01*
X30000Y94540D02*
Y90250D01*
Y94540D02*
X31840D01*
X32450Y94340D01*
X32660Y94130D01*
X32860Y93720D01*
Y93310D01*
X32660Y92900D01*
X32450Y92700D01*
X31840Y92500D01*
X30000D01*
X31430D02*
X32860Y90250D01*
X35850Y94540D02*
X34210Y90250D01*
X35850Y94540D02*
X37490Y90250D01*
X34830Y91680D02*
X36870D01*
X38840Y94540D02*
Y90250D01*
Y94540D02*
X41700Y90250D01*
Y94540D02*
Y90250D01*
X46120Y93520D02*
X45910Y93930D01*
X45500Y94340D01*
X45100Y94540D01*
X44280D01*
X43870Y94340D01*
X43460Y93930D01*
X43250Y93520D01*
X43050Y92900D01*
Y91880D01*
X43250Y91270D01*
X43460Y90860D01*
X43870Y90450D01*
X44280Y90250D01*
X45100D01*
X45500Y90450D01*
X45910Y90860D01*
X46120Y91270D01*
Y91880D01*
X45100D02*
X46120D01*
X47470Y94540D02*
Y90250D01*
Y94540D02*
X50130D01*
X47470Y92500D02*
X49100D01*
X47470Y90250D02*
X50130D01*
X80000Y99540D02*
Y95250D01*
Y99540D02*
X81430D01*
X82050Y99340D01*
X82450Y98930D01*
X82660Y98520D01*
X82860Y97900D01*
Y96880D01*
X82660Y96270D01*
X82450Y95860D01*
X82050Y95450D01*
X81430Y95250D01*
X80000D01*
X84210Y99540D02*
Y95250D01*
Y99540D02*
X86870D01*
X84210Y97500D02*
X85850D01*
X84210Y95250D02*
X86870D01*
X88220Y99540D02*
Y95250D01*
Y99540D02*
X91090Y95250D01*
Y99540D02*
Y95250D01*
X95500Y98520D02*
X95300Y98930D01*
X94890Y99340D01*
X94480Y99540D01*
X93660D01*
X93250Y99340D01*
X92850Y98930D01*
X92640Y98520D01*
X92440Y97900D01*
Y96880D01*
X92640Y96270D01*
X92850Y95860D01*
X93250Y95450D01*
X93660Y95250D01*
X94480D01*
X94890Y95450D01*
X95300Y95860D01*
X95500Y96270D01*
X99310Y98930D02*
X99100Y99340D01*
X98490Y99540D01*
X98080D01*
X97470Y99340D01*
X97060Y98720D01*
X96850Y97700D01*
Y96680D01*
X97060Y95860D01*
X97470Y95450D01*
X98080Y95250D01*
X98290D01*
X98900Y95450D01*
X99310Y95860D01*
X99510Y96470D01*
Y96680D01*
X99310Y97290D01*
X98900Y97700D01*
X98290Y97900D01*
X98080D01*
X97470Y97700D01*
X97060Y97290D01*
X96850Y96680D01*
X185000Y139540D02*
Y135250D01*
Y139540D02*
X187660D01*
X185000Y137500D02*
X186640D01*
X185000Y135250D02*
X187660D01*
X189010Y139540D02*
Y135250D01*
Y139540D02*
X191870Y135250D01*
Y139540D02*
Y135250D01*
X196290Y138520D02*
X196090Y138930D01*
X195680Y139340D01*
X195270Y139540D01*
X194450D01*
X194040Y139340D01*
X193630Y138930D01*
X193430Y138520D01*
X193220Y137900D01*
Y136880D01*
X193430Y136270D01*
X193630Y135860D01*
X194040Y135450D01*
X194450Y135250D01*
X195270D01*
X195680Y135450D01*
X196090Y135860D01*
X196290Y136270D01*
X198050Y139540D02*
X200300D01*
X199070Y137900D01*
X199690D01*
X200100Y137700D01*
X200300Y137500D01*
X200500Y136880D01*
Y136470D01*
X200300Y135860D01*
X199890Y135450D01*
X199280Y135250D01*
X198660D01*
X198050Y135450D01*
X197850Y135650D01*
X197640Y136060D01*
X70000Y254540D02*
Y250250D01*
Y254540D02*
X71430D01*
X72050Y254340D01*
X72450Y253930D01*
X72660Y253520D01*
X72860Y252900D01*
Y251880D01*
X72660Y251270D01*
X72450Y250860D01*
X72050Y250450D01*
X71430Y250250D01*
X70000D01*
X74210Y254540D02*
Y250250D01*
Y254540D02*
X76870D01*
X74210Y252500D02*
X75850D01*
X74210Y250250D02*
X76870D01*
X78220Y254540D02*
Y250250D01*
Y254540D02*
X81090Y250250D01*
Y254540D02*
Y250250D01*
X85500Y253520D02*
X85300Y253930D01*
X84890Y254340D01*
X84480Y254540D01*
X83660D01*
X83250Y254340D01*
X82850Y253930D01*
X82640Y253520D01*
X82440Y252900D01*
Y251880D01*
X82640Y251270D01*
X82850Y250860D01*
X83250Y250450D01*
X83660Y250250D01*
X84480D01*
X84890Y250450D01*
X85300Y250860D01*
X85500Y251270D01*
X87060Y253520D02*
Y253720D01*
X87260Y254130D01*
X87470Y254340D01*
X87880Y254540D01*
X88700D01*
X89100Y254340D01*
X89310Y254130D01*
X89510Y253720D01*
Y253310D01*
X89310Y252900D01*
X88900Y252290D01*
X86850Y250250D01*
X89720D01*
X160000Y254540D02*
Y250250D01*
Y254540D02*
X161430D01*
X162050Y254340D01*
X162450Y253930D01*
X162660Y253520D01*
X162860Y252900D01*
Y251880D01*
X162660Y251270D01*
X162450Y250860D01*
X162050Y250450D01*
X161430Y250250D01*
X160000D01*
X164210Y254540D02*
Y250250D01*
Y254540D02*
X166870D01*
X164210Y252500D02*
X165850D01*
X164210Y250250D02*
X166870D01*
X168220Y254540D02*
Y250250D01*
Y254540D02*
X171090Y250250D01*
Y254540D02*
Y250250D01*
X175500Y253520D02*
X175300Y253930D01*
X174890Y254340D01*
X174480Y254540D01*
X173660D01*
X173250Y254340D01*
X172850Y253930D01*
X172640Y253520D01*
X172440Y252900D01*
Y251880D01*
X172640Y251270D01*
X172850Y250860D01*
X173250Y250450D01*
X173660Y250250D01*
X174480D01*
X174890Y250450D01*
X175300Y250860D01*
X175500Y251270D01*
X177260Y254540D02*
X179510D01*
X178290Y252900D01*
X178900D01*
X179310Y252700D01*
X179510Y252500D01*
X179720Y251880D01*
Y251470D01*
X179510Y250860D01*
X179100Y250450D01*
X178490Y250250D01*
X177880D01*
X177260Y250450D01*
X177060Y250650D01*
X176850Y251060D01*
X200000Y254540D02*
Y250250D01*
Y254540D02*
X201430D01*
X202050Y254340D01*
X202450Y253930D01*
X202660Y253520D01*
X202860Y252900D01*
Y251880D01*
X202660Y251270D01*
X202450Y250860D01*
X202050Y250450D01*
X201430Y250250D01*
X200000D01*
X204210Y254540D02*
Y250250D01*
Y254540D02*
X206870D01*
X204210Y252500D02*
X205850D01*
X204210Y250250D02*
X206870D01*
X208220Y254540D02*
Y250250D01*
Y254540D02*
X211090Y250250D01*
Y254540D02*
Y250250D01*
X215500Y253520D02*
X215300Y253930D01*
X214890Y254340D01*
X214480Y254540D01*
X213660D01*
X213250Y254340D01*
X212850Y253930D01*
X212640Y253520D01*
X212440Y252900D01*
Y251880D01*
X212640Y251270D01*
X212850Y250860D01*
X213250Y250450D01*
X213660Y250250D01*
X214480D01*
X214890Y250450D01*
X215300Y250860D01*
X215500Y251270D01*
X218900Y254540D02*
X216850Y251680D01*
X219920D01*
X218900Y254540D02*
Y250250D01*
X250000Y254540D02*
Y250250D01*
Y254540D02*
X251430D01*
X252050Y254340D01*
X252450Y253930D01*
X252660Y253520D01*
X252860Y252900D01*
Y251880D01*
X252660Y251270D01*
X252450Y250860D01*
X252050Y250450D01*
X251430Y250250D01*
X250000D01*
X254210Y254540D02*
Y250250D01*
Y254540D02*
X256870D01*
X254210Y252500D02*
X255850D01*
X254210Y250250D02*
X256870D01*
X258220Y254540D02*
Y250250D01*
Y254540D02*
X261090Y250250D01*
Y254540D02*
Y250250D01*
X265500Y253520D02*
X265300Y253930D01*
X264890Y254340D01*
X264480Y254540D01*
X263660D01*
X263250Y254340D01*
X262850Y253930D01*
X262640Y253520D01*
X262440Y252900D01*
Y251880D01*
X262640Y251270D01*
X262850Y250860D01*
X263250Y250450D01*
X263660Y250250D01*
X264480D01*
X264890Y250450D01*
X265300Y250860D01*
X265500Y251270D01*
X269310Y254540D02*
X267260D01*
X267060Y252700D01*
X267260Y252900D01*
X267880Y253110D01*
X268490D01*
X269100Y252900D01*
X269510Y252500D01*
X269720Y251880D01*
Y251470D01*
X269510Y250860D01*
X269100Y250450D01*
X268490Y250250D01*
X267880D01*
X267260Y250450D01*
X267060Y250650D01*
X266850Y251060D01*
X150000Y174540D02*
Y170250D01*
Y174540D02*
X152660D01*
X150000Y172500D02*
X151640D01*
X150000Y170250D02*
X152660D01*
X154010Y174540D02*
Y170250D01*
Y174540D02*
X156870Y170250D01*
Y174540D02*
Y170250D01*
X161290Y173520D02*
X161090Y173930D01*
X160680Y174340D01*
X160270Y174540D01*
X159450D01*
X159040Y174340D01*
X158630Y173930D01*
X158430Y173520D01*
X158220Y172900D01*
Y171880D01*
X158430Y171270D01*
X158630Y170860D01*
X159040Y170450D01*
X159450Y170250D01*
X160270D01*
X160680Y170450D01*
X161090Y170860D01*
X161290Y171270D01*
X162640Y173720D02*
X163050Y173930D01*
X163660Y174540D01*
Y170250D01*
X340000Y174540D02*
Y170250D01*
Y174540D02*
X342660D01*
X340000Y172500D02*
X341640D01*
X340000Y170250D02*
X342660D01*
X344010Y174540D02*
Y170250D01*
Y174540D02*
X346870Y170250D01*
Y174540D02*
Y170250D01*
X351290Y173520D02*
X351090Y173930D01*
X350680Y174340D01*
X350270Y174540D01*
X349450D01*
X349040Y174340D01*
X348630Y173930D01*
X348430Y173520D01*
X348220Y172900D01*
Y171880D01*
X348430Y171270D01*
X348630Y170860D01*
X349040Y170450D01*
X349450Y170250D01*
X350270D01*
X350680Y170450D01*
X351090Y170860D01*
X351290Y171270D01*
X352850Y173520D02*
Y173720D01*
X353050Y174130D01*
X353250Y174340D01*
X353660Y174540D01*
X354480D01*
X354890Y174340D01*
X355100Y174130D01*
X355300Y173720D01*
Y173310D01*
X355100Y172900D01*
X354690Y172290D01*
X352640Y170250D01*
X355500D01*
X210000Y174540D02*
Y170250D01*
X212860Y174540D02*
X210000Y171680D01*
X211020Y172700D02*
X212860Y170250D01*
X214210Y174540D02*
Y170250D01*
Y174540D02*
X216870D01*
X214210Y172500D02*
X215850D01*
X214210Y170250D02*
X216870D01*
X218220Y174540D02*
X219860Y172500D01*
Y170250D01*
X221500Y174540D02*
X219860Y172500D01*
X222850Y173720D02*
X223250Y173930D01*
X223870Y174540D01*
Y170250D01*
X260000Y174540D02*
Y170250D01*
X262860Y174540D02*
X260000Y171680D01*
X261020Y172700D02*
X262860Y170250D01*
X264210Y174540D02*
Y170250D01*
Y174540D02*
X266870D01*
X264210Y172500D02*
X265850D01*
X264210Y170250D02*
X266870D01*
X268220Y174540D02*
X269860Y172500D01*
Y170250D01*
X271500Y174540D02*
X269860Y172500D01*
X273050Y173520D02*
Y173720D01*
X273250Y174130D01*
X273460Y174340D01*
X273870Y174540D01*
X274690D01*
X275100Y174340D01*
X275300Y174130D01*
X275500Y173720D01*
Y173310D01*
X275300Y172900D01*
X274890Y172290D01*
X272850Y170250D01*
X275710D01*
X342860Y103930D02*
X342450Y104340D01*
X341840Y104540D01*
X341020D01*
X340410Y104340D01*
X340000Y103930D01*
Y103520D01*
X340200Y103110D01*
X340410Y102900D01*
X340820Y102700D01*
X342050Y102290D01*
X342450Y102090D01*
X342660Y101880D01*
X342860Y101470D01*
Y100860D01*
X342450Y100450D01*
X341840Y100250D01*
X341020D01*
X340410Y100450D01*
X340000Y100860D01*
X344210Y104540D02*
Y100250D01*
Y104540D02*
X346050D01*
X346670Y104340D01*
X346870Y104130D01*
X347080Y103720D01*
Y103110D01*
X346870Y102700D01*
X346670Y102500D01*
X346050Y102290D01*
X344210D01*
X350060Y104540D02*
X348430Y100250D01*
X350060Y104540D02*
X351700Y100250D01*
X349040Y101680D02*
X351090D01*
X353050Y104540D02*
Y100250D01*
Y104540D02*
X354890D01*
X355500Y104340D01*
X355710Y104130D01*
X355910Y103720D01*
Y103310D01*
X355710Y102900D01*
X355500Y102700D01*
X354890Y102500D01*
X353050D01*
X354480D02*
X355910Y100250D01*
X357260Y104540D02*
Y100250D01*
Y104540D02*
X359920D01*
X357260Y102500D02*
X358900D01*
X357260Y100250D02*
X359920D01*
X130000Y64540D02*
Y60250D01*
X132860Y64540D02*
Y60250D01*
X130000Y62500D02*
X132860D01*
X135850Y64540D02*
X134210Y60250D01*
X135850Y64540D02*
X137490Y60250D01*
X134830Y61680D02*
X136870D01*
X140270Y64540D02*
Y60250D01*
X138840Y64540D02*
X141700D01*
X31640Y174540D02*
X30000Y170250D01*
X31640Y174540D02*
X33270Y170250D01*
X30610Y171680D02*
X32660D01*
X34620Y174540D02*
Y170250D01*
Y174540D02*
X36460D01*
X37080Y174340D01*
X37280Y174130D01*
X37490Y173720D01*
Y173110D01*
X37280Y172700D01*
X37080Y172500D01*
X36460Y172290D01*
X34620D01*
X38840Y174540D02*
Y170250D01*
X41290D01*
X15000Y84540D02*
Y81470D01*
X15200Y80860D01*
X15610Y80450D01*
X16230Y80250D01*
X16640D01*
X17250Y80450D01*
X17660Y80860D01*
X17860Y81470D01*
Y84540D01*
X21670D02*
X19620D01*
X19420Y82700D01*
X19620Y82900D01*
X20240Y83110D01*
X20850D01*
X21460Y82900D01*
X21870Y82500D01*
X22080Y81880D01*
Y81470D01*
X21870Y80860D01*
X21460Y80450D01*
X20850Y80250D01*
X20240D01*
X19620Y80450D01*
X19420Y80650D01*
X19210Y81060D01*
X179950Y132950D02*
X180230Y133090D01*
X180500Y133360D01*
X180640Y133640D01*
Y134180D01*
X180500Y134450D01*
X180230Y134730D01*
X179950Y134860D01*
X179550Y135000D01*
X178860D01*
X178450Y134860D01*
X178180Y134730D01*
X177910Y134450D01*
X177770Y134180D01*
Y133640D01*
X177910Y133360D01*
X178180Y133090D01*
X178450Y132950D01*
X180090Y132050D02*
X180230Y131780D01*
X180640Y131370D01*
X177770D01*
X180640Y128840D02*
Y130200D01*
X179410Y130340D01*
X179550Y130200D01*
X179680Y129790D01*
Y129380D01*
X179550Y128970D01*
X179270Y128700D01*
X178860Y128560D01*
X178590D01*
X178180Y128700D01*
X177910Y128970D01*
X177770Y129380D01*
Y129790D01*
X177910Y130200D01*
X178050Y130340D01*
X178320Y130470D01*
X169950Y132950D02*
X170230Y133090D01*
X170500Y133360D01*
X170640Y133640D01*
Y134180D01*
X170500Y134450D01*
X170230Y134730D01*
X169950Y134860D01*
X169550Y135000D01*
X168860D01*
X168450Y134860D01*
X168180Y134730D01*
X167910Y134450D01*
X167770Y134180D01*
Y133640D01*
X167910Y133360D01*
X168180Y133090D01*
X168450Y132950D01*
X170090Y132050D02*
X170230Y131780D01*
X170640Y131370D01*
X167770D01*
X170640Y129110D02*
X168730Y130470D01*
Y128430D01*
X170640Y129110D02*
X167770D01*
X159950Y132950D02*
X160230Y133090D01*
X160500Y133360D01*
X160640Y133640D01*
Y134180D01*
X160500Y134450D01*
X160230Y134730D01*
X159950Y134860D01*
X159550Y135000D01*
X158860D01*
X158450Y134860D01*
X158180Y134730D01*
X157910Y134450D01*
X157770Y134180D01*
Y133640D01*
X157910Y133360D01*
X158180Y133090D01*
X158450Y132950D01*
X160090Y132050D02*
X160230Y131780D01*
X160640Y131370D01*
X157770D01*
X160640Y130200D02*
Y128700D01*
X159550Y129520D01*
Y129110D01*
X159410Y128840D01*
X159270Y128700D01*
X158860Y128560D01*
X158590D01*
X158180Y128700D01*
X157910Y128970D01*
X157770Y129380D01*
Y129790D01*
X157910Y130200D01*
X158050Y130340D01*
X158320Y130470D01*
X149950Y132950D02*
X150230Y133090D01*
X150500Y133360D01*
X150640Y133640D01*
Y134180D01*
X150500Y134450D01*
X150230Y134730D01*
X149950Y134860D01*
X149550Y135000D01*
X148860D01*
X148450Y134860D01*
X148180Y134730D01*
X147910Y134450D01*
X147770Y134180D01*
Y133640D01*
X147910Y133360D01*
X148180Y133090D01*
X148450Y132950D01*
X150090Y132050D02*
X150230Y131780D01*
X150640Y131370D01*
X147770D01*
X149950Y130340D02*
X150090D01*
X150360Y130200D01*
X150500Y130060D01*
X150640Y129790D01*
Y129250D01*
X150500Y128970D01*
X150360Y128840D01*
X150090Y128700D01*
X149820D01*
X149550Y128840D01*
X149140Y129110D01*
X147770Y130470D01*
Y128560D01*
X139950Y132950D02*
X140230Y133090D01*
X140500Y133360D01*
X140640Y133640D01*
Y134180D01*
X140500Y134450D01*
X140230Y134730D01*
X139950Y134860D01*
X139550Y135000D01*
X138860D01*
X138450Y134860D01*
X138180Y134730D01*
X137910Y134450D01*
X137770Y134180D01*
Y133640D01*
X137910Y133360D01*
X138180Y133090D01*
X138450Y132950D01*
X140090Y132050D02*
X140230Y131780D01*
X140640Y131370D01*
X137770D01*
X140090Y130470D02*
X140230Y130200D01*
X140640Y129790D01*
X137770D01*
X129950Y132950D02*
X130230Y133090D01*
X130500Y133360D01*
X130640Y133640D01*
Y134180D01*
X130500Y134450D01*
X130230Y134730D01*
X129950Y134860D01*
X129550Y135000D01*
X128860D01*
X128450Y134860D01*
X128180Y134730D01*
X127910Y134450D01*
X127770Y134180D01*
Y133640D01*
X127910Y133360D01*
X128180Y133090D01*
X128450Y132950D01*
X130090Y132050D02*
X130230Y131780D01*
X130640Y131370D01*
X127770D01*
X130640Y129650D02*
X130500Y130060D01*
X130090Y130340D01*
X129410Y130470D01*
X129000D01*
X128320Y130340D01*
X127910Y130060D01*
X127770Y129650D01*
Y129380D01*
X127910Y128970D01*
X128320Y128700D01*
X129000Y128560D01*
X129410D01*
X130090Y128700D01*
X130500Y128970D01*
X130640Y129380D01*
Y129650D01*
X119950Y132950D02*
X120230Y133090D01*
X120500Y133360D01*
X120640Y133640D01*
Y134180D01*
X120500Y134450D01*
X120230Y134730D01*
X119950Y134860D01*
X119550Y135000D01*
X118860D01*
X118450Y134860D01*
X118180Y134730D01*
X117910Y134450D01*
X117770Y134180D01*
Y133640D01*
X117910Y133360D01*
X118180Y133090D01*
X118450Y132950D01*
X119680Y130280D02*
X119270Y130420D01*
X119000Y130690D01*
X118860Y131100D01*
Y131240D01*
X119000Y131650D01*
X119270Y131920D01*
X119680Y132050D01*
X119820D01*
X120230Y131920D01*
X120500Y131650D01*
X120640Y131240D01*
Y131100D01*
X120500Y130690D01*
X120230Y130420D01*
X119680Y130280D01*
X119000D01*
X118320Y130420D01*
X117910Y130690D01*
X117770Y131100D01*
Y131370D01*
X117910Y131780D01*
X118180Y131920D01*
X109950Y132950D02*
X110230Y133090D01*
X110500Y133360D01*
X110640Y133640D01*
Y134180D01*
X110500Y134450D01*
X110230Y134730D01*
X109950Y134860D01*
X109550Y135000D01*
X108860D01*
X108450Y134860D01*
X108180Y134730D01*
X107910Y134450D01*
X107770Y134180D01*
Y133640D01*
X107910Y133360D01*
X108180Y133090D01*
X108450Y132950D01*
X110640Y131370D02*
X110500Y131780D01*
X110230Y131920D01*
X109950D01*
X109680Y131780D01*
X109550Y131510D01*
X109410Y130960D01*
X109270Y130550D01*
X109000Y130280D01*
X108730Y130150D01*
X108320D01*
X108050Y130280D01*
X107910Y130420D01*
X107770Y130830D01*
Y131370D01*
X107910Y131780D01*
X108050Y131920D01*
X108320Y132050D01*
X108730D01*
X109000Y131920D01*
X109270Y131650D01*
X109410Y131240D01*
X109550Y130690D01*
X109680Y130420D01*
X109950Y130280D01*
X110230D01*
X110500Y130420D01*
X110640Y130830D01*
Y131370D01*
X99950Y132950D02*
X100230Y133090D01*
X100500Y133360D01*
X100640Y133640D01*
Y134180D01*
X100500Y134450D01*
X100230Y134730D01*
X99950Y134860D01*
X99550Y135000D01*
X98860D01*
X98450Y134860D01*
X98180Y134730D01*
X97910Y134450D01*
X97770Y134180D01*
Y133640D01*
X97910Y133360D01*
X98180Y133090D01*
X98450Y132950D01*
X100640Y130150D02*
X97770Y131510D01*
X100640Y132050D02*
Y130150D01*
X89950Y132950D02*
X90230Y133090D01*
X90500Y133360D01*
X90640Y133640D01*
Y134180D01*
X90500Y134450D01*
X90230Y134730D01*
X89950Y134860D01*
X89550Y135000D01*
X88860D01*
X88450Y134860D01*
X88180Y134730D01*
X87910Y134450D01*
X87770Y134180D01*
Y133640D01*
X87910Y133360D01*
X88180Y133090D01*
X88450Y132950D01*
X90230Y130420D02*
X90500Y130550D01*
X90640Y130960D01*
Y131240D01*
X90500Y131650D01*
X90090Y131920D01*
X89410Y132050D01*
X88730D01*
X88180Y131920D01*
X87910Y131650D01*
X87770Y131240D01*
Y131100D01*
X87910Y130690D01*
X88180Y130420D01*
X88590Y130280D01*
X88730D01*
X89140Y130420D01*
X89410Y130690D01*
X89550Y131100D01*
Y131240D01*
X89410Y131650D01*
X89140Y131920D01*
X88730Y132050D01*
X79950Y132950D02*
X80230Y133090D01*
X80500Y133360D01*
X80640Y133640D01*
Y134180D01*
X80500Y134450D01*
X80230Y134730D01*
X79950Y134860D01*
X79550Y135000D01*
X78860D01*
X78450Y134860D01*
X78180Y134730D01*
X77910Y134450D01*
X77770Y134180D01*
Y133640D01*
X77910Y133360D01*
X78180Y133090D01*
X78450Y132950D01*
X80640Y130420D02*
Y131780D01*
X79410Y131920D01*
X79550Y131780D01*
X79680Y131370D01*
Y130960D01*
X79550Y130550D01*
X79270Y130280D01*
X78860Y130150D01*
X78590D01*
X78180Y130280D01*
X77910Y130550D01*
X77770Y130960D01*
Y131370D01*
X77910Y131780D01*
X78050Y131920D01*
X78320Y132050D01*
X69950Y132950D02*
X70230Y133090D01*
X70500Y133360D01*
X70640Y133640D01*
Y134180D01*
X70500Y134450D01*
X70230Y134730D01*
X69950Y134860D01*
X69550Y135000D01*
X68860D01*
X68450Y134860D01*
X68180Y134730D01*
X67910Y134450D01*
X67770Y134180D01*
Y133640D01*
X67910Y133360D01*
X68180Y133090D01*
X68450Y132950D01*
X70640Y130690D02*
X68730Y132050D01*
Y130010D01*
X70640Y130690D02*
X67770D01*
X59950Y132950D02*
X60230Y133090D01*
X60500Y133360D01*
X60640Y133640D01*
Y134180D01*
X60500Y134450D01*
X60230Y134730D01*
X59950Y134860D01*
X59550Y135000D01*
X58860D01*
X58450Y134860D01*
X58180Y134730D01*
X57910Y134450D01*
X57770Y134180D01*
Y133640D01*
X57910Y133360D01*
X58180Y133090D01*
X58450Y132950D01*
X60640Y131780D02*
Y130280D01*
X59550Y131100D01*
Y130690D01*
X59410Y130420D01*
X59270Y130280D01*
X58860Y130150D01*
X58590D01*
X58180Y130280D01*
X57910Y130550D01*
X57770Y130960D01*
Y131370D01*
X57910Y131780D01*
X58050Y131920D01*
X58320Y132050D01*
X49950Y132950D02*
X50230Y133090D01*
X50500Y133360D01*
X50640Y133640D01*
Y134180D01*
X50500Y134450D01*
X50230Y134730D01*
X49950Y134860D01*
X49550Y135000D01*
X48860D01*
X48450Y134860D01*
X48180Y134730D01*
X47910Y134450D01*
X47770Y134180D01*
Y133640D01*
X47910Y133360D01*
X48180Y133090D01*
X48450Y132950D01*
X49950Y131920D02*
X50090D01*
X50360Y131780D01*
X50500Y131650D01*
X50640Y131370D01*
Y130830D01*
X50500Y130550D01*
X50360Y130420D01*
X50090Y130280D01*
X49820D01*
X49550Y130420D01*
X49140Y130690D01*
X47770Y132050D01*
Y130150D01*
X40950Y132950D02*
X41230Y133090D01*
X41500Y133360D01*
X41640Y133640D01*
Y134180D01*
X41500Y134450D01*
X41230Y134730D01*
X40950Y134860D01*
X40550Y135000D01*
X39860D01*
X39450Y134860D01*
X39180Y134730D01*
X38910Y134450D01*
X38770Y134180D01*
Y133640D01*
X38910Y133360D01*
X39180Y133090D01*
X39450Y132950D01*
X41090Y132050D02*
X41230Y131780D01*
X41640Y131370D01*
X38770D01*
X30950Y132950D02*
X31230Y133090D01*
X31500Y133360D01*
X31640Y133640D01*
Y134180D01*
X31500Y134450D01*
X31230Y134730D01*
X30950Y134860D01*
X30550Y135000D01*
X29860D01*
X29450Y134860D01*
X29180Y134730D01*
X28910Y134450D01*
X28770Y134180D01*
Y133640D01*
X28910Y133360D01*
X29180Y133090D01*
X29450Y132950D01*
X31640Y131240D02*
X31500Y131650D01*
X31090Y131920D01*
X30410Y132050D01*
X30000D01*
X29320Y131920D01*
X28910Y131650D01*
X28770Y131240D01*
Y130960D01*
X28910Y130550D01*
X29320Y130280D01*
X30000Y130150D01*
X30410D01*
X31090Y130280D01*
X31500Y130550D01*
X31640Y130960D01*
Y131240D01*
X141230Y89090D02*
X141500Y89360D01*
X141640Y89770D01*
Y90320D01*
X141500Y90730D01*
X141230Y91000D01*
X140950D01*
X140680Y90860D01*
X140550Y90730D01*
X140410Y90450D01*
X140140Y89640D01*
X140000Y89360D01*
X139860Y89230D01*
X139590Y89090D01*
X139180D01*
X138910Y89360D01*
X138770Y89770D01*
Y90320D01*
X138910Y90730D01*
X139180Y91000D01*
X141640Y88190D02*
X138770D01*
X140950Y85250D02*
X141230Y85380D01*
X141500Y85650D01*
X141640Y85930D01*
Y86470D01*
X141500Y86750D01*
X141230Y87020D01*
X140950Y87150D01*
X140550Y87290D01*
X139860D01*
X139450Y87150D01*
X139180Y87020D01*
X138910Y86750D01*
X138770Y86470D01*
Y85930D01*
X138910Y85650D01*
X139180Y85380D01*
X139450Y85250D01*
X139860D01*
Y85930D02*
Y85250D01*
X131230Y88090D02*
X131500Y88360D01*
X131640Y88770D01*
Y89320D01*
X131500Y89730D01*
X131230Y90000D01*
X130950D01*
X130680Y89860D01*
X130550Y89730D01*
X130410Y89450D01*
X130140Y88640D01*
X130000Y88360D01*
X129860Y88230D01*
X129590Y88090D01*
X129180D01*
X128910Y88360D01*
X128770Y88770D01*
Y89320D01*
X128910Y89730D01*
X129180Y90000D01*
X131640Y86920D02*
Y85420D01*
X130550Y86240D01*
Y85830D01*
X130410Y85550D01*
X130270Y85420D01*
X129860Y85280D01*
X129590D01*
X129180Y85420D01*
X128910Y85690D01*
X128770Y86100D01*
Y86510D01*
X128910Y86920D01*
X129050Y87050D01*
X129320Y87190D01*
X121230Y88090D02*
X121500Y88360D01*
X121640Y88770D01*
Y89320D01*
X121500Y89730D01*
X121230Y90000D01*
X120950D01*
X120680Y89860D01*
X120550Y89730D01*
X120410Y89450D01*
X120140Y88640D01*
X120000Y88360D01*
X119860Y88230D01*
X119590Y88090D01*
X119180D01*
X118910Y88360D01*
X118770Y88770D01*
Y89320D01*
X118910Y89730D01*
X119180Y90000D01*
X120950Y87050D02*
X121090D01*
X121360Y86920D01*
X121500Y86780D01*
X121640Y86510D01*
Y85960D01*
X121500Y85690D01*
X121360Y85550D01*
X121090Y85420D01*
X120820D01*
X120550Y85550D01*
X120140Y85830D01*
X118770Y87190D01*
Y85280D01*
X111230Y87090D02*
X111500Y87360D01*
X111640Y87770D01*
Y88320D01*
X111500Y88730D01*
X111230Y89000D01*
X110950D01*
X110680Y88860D01*
X110550Y88730D01*
X110410Y88450D01*
X110140Y87640D01*
X110000Y87360D01*
X109860Y87230D01*
X109590Y87090D01*
X109180D01*
X108910Y87360D01*
X108770Y87770D01*
Y88320D01*
X108910Y88730D01*
X109180Y89000D01*
X111090Y86190D02*
X111230Y85920D01*
X111640Y85510D01*
X108770D01*
X101230Y88090D02*
X101500Y88360D01*
X101640Y88770D01*
Y89320D01*
X101500Y89730D01*
X101230Y90000D01*
X100950D01*
X100680Y89860D01*
X100550Y89730D01*
X100410Y89450D01*
X100140Y88640D01*
X100000Y88360D01*
X99860Y88230D01*
X99590Y88090D01*
X99180D01*
X98910Y88360D01*
X98770Y88770D01*
Y89320D01*
X98910Y89730D01*
X99180Y90000D01*
X101640Y86370D02*
X101500Y86780D01*
X101090Y87050D01*
X100410Y87190D01*
X100000D01*
X99320Y87050D01*
X98910Y86780D01*
X98770Y86370D01*
Y86100D01*
X98910Y85690D01*
X99320Y85420D01*
X100000Y85280D01*
X100410D01*
X101090Y85420D01*
X101500Y85690D01*
X101640Y86100D01*
Y86370D01*
X91640Y90000D02*
X88770D01*
X91640D02*
Y88230D01*
X90270Y90000D02*
Y88910D01*
X88770Y90000D02*
Y88230D01*
X91640Y87330D02*
X88770D01*
X91640D02*
X88770Y85420D01*
X91640D02*
X88770D01*
X81640Y93000D02*
X78770Y91910D01*
X81640Y90820D02*
X78770Y91910D01*
X80950Y87870D02*
X81230Y88010D01*
X81500Y88280D01*
X81640Y88550D01*
Y89100D01*
X81500Y89370D01*
X81230Y89650D01*
X80950Y89780D01*
X80550Y89920D01*
X79860D01*
X79450Y89780D01*
X79180Y89650D01*
X78910Y89370D01*
X78770Y89100D01*
Y88550D01*
X78910Y88280D01*
X79180Y88010D01*
X79450Y87870D01*
X80950Y84930D02*
X81230Y85060D01*
X81500Y85340D01*
X81640Y85610D01*
Y86150D01*
X81500Y86430D01*
X81230Y86700D01*
X80950Y86840D01*
X80550Y86970D01*
X79860D01*
X79450Y86840D01*
X79180Y86700D01*
X78910Y86430D01*
X78770Y86150D01*
Y85610D01*
X78910Y85340D01*
X79180Y85060D01*
X79450Y84930D01*
X70950Y90950D02*
X71230Y91090D01*
X71500Y91360D01*
X71640Y91640D01*
Y92180D01*
X71500Y92450D01*
X71230Y92730D01*
X70950Y92860D01*
X70550Y93000D01*
X69860D01*
X69450Y92860D01*
X69180Y92730D01*
X68910Y92450D01*
X68770Y92180D01*
Y91640D01*
X68910Y91360D01*
X69180Y91090D01*
X69450Y90950D01*
X69860D01*
Y91640D02*
Y90950D01*
X71640Y90050D02*
X68770D01*
X71640D02*
X68770Y88150D01*
X71640D02*
X68770D01*
X71640Y87250D02*
X68770D01*
X71640D02*
Y86290D01*
X71500Y85880D01*
X71230Y85610D01*
X70950Y85470D01*
X70550Y85340D01*
X69860D01*
X69450Y85470D01*
X69180Y85610D01*
X68910Y85880D01*
X68770Y86290D01*
Y87250D01*
X130000Y254540D02*
Y250250D01*
Y254540D02*
X131840D01*
X132450Y254340D01*
X132660Y254130D01*
X132860Y253720D01*
Y253310D01*
X132660Y252900D01*
X132450Y252700D01*
X131840Y252500D01*
X130000D01*
X131430D02*
X132860Y250250D01*
X134210Y253720D02*
X134620Y253930D01*
X135240Y254540D01*
Y250250D01*
X310000Y254540D02*
Y250250D01*
Y254540D02*
X311840D01*
X312450Y254340D01*
X312660Y254130D01*
X312860Y253720D01*
Y253310D01*
X312660Y252900D01*
X312450Y252700D01*
X311840Y252500D01*
X310000D01*
X311430D02*
X312860Y250250D01*
X314420Y253520D02*
Y253720D01*
X314620Y254130D01*
X314830Y254340D01*
X315240Y254540D01*
X316050D01*
X316460Y254340D01*
X316670Y254130D01*
X316870Y253720D01*
Y253310D01*
X316670Y252900D01*
X316260Y252290D01*
X314210Y250250D01*
X317080D01*
X130000Y174540D02*
Y170250D01*
Y174540D02*
X131840D01*
X132450Y174340D01*
X132660Y174130D01*
X132860Y173720D01*
Y173310D01*
X132660Y172900D01*
X132450Y172700D01*
X131840Y172500D01*
X130000D01*
X131430D02*
X132860Y170250D01*
X134620Y174540D02*
X136870D01*
X135650Y172900D01*
X136260D01*
X136670Y172700D01*
X136870Y172500D01*
X137080Y171880D01*
Y171470D01*
X136870Y170860D01*
X136460Y170450D01*
X135850Y170250D01*
X135240D01*
X134620Y170450D01*
X134420Y170650D01*
X134210Y171060D01*
X310000Y174540D02*
Y170250D01*
Y174540D02*
X311840D01*
X312450Y174340D01*
X312660Y174130D01*
X312860Y173720D01*
Y173310D01*
X312660Y172900D01*
X312450Y172700D01*
X311840Y172500D01*
X310000D01*
X311430D02*
X312860Y170250D01*
X316260Y174540D02*
X314210Y171680D01*
X317280D01*
X316260Y174540D02*
Y170250D01*
X310000Y94540D02*
Y90250D01*
Y94540D02*
X311840D01*
X312450Y94340D01*
X312660Y94130D01*
X312860Y93720D01*
Y93310D01*
X312660Y92900D01*
X312450Y92700D01*
X311840Y92500D01*
X310000D01*
X311430D02*
X312860Y90250D01*
X316670Y93930D02*
X316460Y94340D01*
X315850Y94540D01*
X315440D01*
X314830Y94340D01*
X314420Y93720D01*
X314210Y92700D01*
Y91680D01*
X314420Y90860D01*
X314830Y90450D01*
X315440Y90250D01*
X315650D01*
X316260Y90450D01*
X316670Y90860D01*
X316870Y91470D01*
Y91680D01*
X316670Y92290D01*
X316260Y92700D01*
X315650Y92900D01*
X315440D01*
X314830Y92700D01*
X314420Y92290D01*
X314210Y91680D01*
X370000Y244540D02*
Y241470D01*
X370200Y240860D01*
X370610Y240450D01*
X371230Y240250D01*
X371640D01*
X372250Y240450D01*
X372660Y240860D01*
X372860Y241470D01*
Y244540D01*
X374420Y243520D02*
Y243720D01*
X374620Y244130D01*
X374830Y244340D01*
X375240Y244540D01*
X376050D01*
X376460Y244340D01*
X376670Y244130D01*
X376870Y243720D01*
Y243310D01*
X376670Y242900D01*
X376260Y242290D01*
X374210Y240250D01*
X377080D01*
X359950Y292950D02*
X360230Y293090D01*
X360500Y293360D01*
X360640Y293640D01*
Y294180D01*
X360500Y294450D01*
X360230Y294730D01*
X359950Y294860D01*
X359550Y295000D01*
X358860D01*
X358450Y294860D01*
X358180Y294730D01*
X357910Y294450D01*
X357770Y294180D01*
Y293640D01*
X357910Y293360D01*
X358180Y293090D01*
X358450Y292950D01*
X360090Y292050D02*
X360230Y291780D01*
X360640Y291370D01*
X357770D01*
X360640Y288840D02*
Y290200D01*
X359410Y290340D01*
X359550Y290200D01*
X359680Y289790D01*
Y289380D01*
X359550Y288970D01*
X359270Y288700D01*
X358860Y288560D01*
X358590D01*
X358180Y288700D01*
X357910Y288970D01*
X357770Y289380D01*
Y289790D01*
X357910Y290200D01*
X358050Y290340D01*
X358320Y290470D01*
X349950Y292950D02*
X350230Y293090D01*
X350500Y293360D01*
X350640Y293640D01*
Y294180D01*
X350500Y294450D01*
X350230Y294730D01*
X349950Y294860D01*
X349550Y295000D01*
X348860D01*
X348450Y294860D01*
X348180Y294730D01*
X347910Y294450D01*
X347770Y294180D01*
Y293640D01*
X347910Y293360D01*
X348180Y293090D01*
X348450Y292950D01*
X350090Y292050D02*
X350230Y291780D01*
X350640Y291370D01*
X347770D01*
X350640Y289110D02*
X348730Y290470D01*
Y288430D01*
X350640Y289110D02*
X347770D01*
X339950Y292950D02*
X340230Y293090D01*
X340500Y293360D01*
X340640Y293640D01*
Y294180D01*
X340500Y294450D01*
X340230Y294730D01*
X339950Y294860D01*
X339550Y295000D01*
X338860D01*
X338450Y294860D01*
X338180Y294730D01*
X337910Y294450D01*
X337770Y294180D01*
Y293640D01*
X337910Y293360D01*
X338180Y293090D01*
X338450Y292950D01*
X340090Y292050D02*
X340230Y291780D01*
X340640Y291370D01*
X337770D01*
X340640Y290200D02*
Y288700D01*
X339550Y289520D01*
Y289110D01*
X339410Y288840D01*
X339270Y288700D01*
X338860Y288560D01*
X338590D01*
X338180Y288700D01*
X337910Y288970D01*
X337770Y289380D01*
Y289790D01*
X337910Y290200D01*
X338050Y290340D01*
X338320Y290470D01*
X329950Y292950D02*
X330230Y293090D01*
X330500Y293360D01*
X330640Y293640D01*
Y294180D01*
X330500Y294450D01*
X330230Y294730D01*
X329950Y294860D01*
X329550Y295000D01*
X328860D01*
X328450Y294860D01*
X328180Y294730D01*
X327910Y294450D01*
X327770Y294180D01*
Y293640D01*
X327910Y293360D01*
X328180Y293090D01*
X328450Y292950D01*
X330090Y292050D02*
X330230Y291780D01*
X330640Y291370D01*
X327770D01*
X329950Y290340D02*
X330090D01*
X330360Y290200D01*
X330500Y290060D01*
X330640Y289790D01*
Y289250D01*
X330500Y288970D01*
X330360Y288840D01*
X330090Y288700D01*
X329820D01*
X329550Y288840D01*
X329140Y289110D01*
X327770Y290470D01*
Y288560D01*
X319950Y292950D02*
X320230Y293090D01*
X320500Y293360D01*
X320640Y293640D01*
Y294180D01*
X320500Y294450D01*
X320230Y294730D01*
X319950Y294860D01*
X319550Y295000D01*
X318860D01*
X318450Y294860D01*
X318180Y294730D01*
X317910Y294450D01*
X317770Y294180D01*
Y293640D01*
X317910Y293360D01*
X318180Y293090D01*
X318450Y292950D01*
X320090Y292050D02*
X320230Y291780D01*
X320640Y291370D01*
X317770D01*
X320090Y290470D02*
X320230Y290200D01*
X320640Y289790D01*
X317770D01*
X309950Y292950D02*
X310230Y293090D01*
X310500Y293360D01*
X310640Y293640D01*
Y294180D01*
X310500Y294450D01*
X310230Y294730D01*
X309950Y294860D01*
X309550Y295000D01*
X308860D01*
X308450Y294860D01*
X308180Y294730D01*
X307910Y294450D01*
X307770Y294180D01*
Y293640D01*
X307910Y293360D01*
X308180Y293090D01*
X308450Y292950D01*
X310090Y292050D02*
X310230Y291780D01*
X310640Y291370D01*
X307770D01*
X310640Y289650D02*
X310500Y290060D01*
X310090Y290340D01*
X309410Y290470D01*
X309000D01*
X308320Y290340D01*
X307910Y290060D01*
X307770Y289650D01*
Y289380D01*
X307910Y288970D01*
X308320Y288700D01*
X309000Y288560D01*
X309410D01*
X310090Y288700D01*
X310500Y288970D01*
X310640Y289380D01*
Y289650D01*
X299950Y292950D02*
X300230Y293090D01*
X300500Y293360D01*
X300640Y293640D01*
Y294180D01*
X300500Y294450D01*
X300230Y294730D01*
X299950Y294860D01*
X299550Y295000D01*
X298860D01*
X298450Y294860D01*
X298180Y294730D01*
X297910Y294450D01*
X297770Y294180D01*
Y293640D01*
X297910Y293360D01*
X298180Y293090D01*
X298450Y292950D01*
X299680Y290280D02*
X299270Y290420D01*
X299000Y290690D01*
X298860Y291100D01*
Y291240D01*
X299000Y291650D01*
X299270Y291920D01*
X299680Y292050D01*
X299820D01*
X300230Y291920D01*
X300500Y291650D01*
X300640Y291240D01*
Y291100D01*
X300500Y290690D01*
X300230Y290420D01*
X299680Y290280D01*
X299000D01*
X298320Y290420D01*
X297910Y290690D01*
X297770Y291100D01*
Y291370D01*
X297910Y291780D01*
X298180Y291920D01*
X289950Y292950D02*
X290230Y293090D01*
X290500Y293360D01*
X290640Y293640D01*
Y294180D01*
X290500Y294450D01*
X290230Y294730D01*
X289950Y294860D01*
X289550Y295000D01*
X288860D01*
X288450Y294860D01*
X288180Y294730D01*
X287910Y294450D01*
X287770Y294180D01*
Y293640D01*
X287910Y293360D01*
X288180Y293090D01*
X288450Y292950D01*
X290640Y291370D02*
X290500Y291780D01*
X290230Y291920D01*
X289950D01*
X289680Y291780D01*
X289550Y291510D01*
X289410Y290960D01*
X289270Y290550D01*
X289000Y290280D01*
X288730Y290150D01*
X288320D01*
X288050Y290280D01*
X287910Y290420D01*
X287770Y290830D01*
Y291370D01*
X287910Y291780D01*
X288050Y291920D01*
X288320Y292050D01*
X288730D01*
X289000Y291920D01*
X289270Y291650D01*
X289410Y291240D01*
X289550Y290690D01*
X289680Y290420D01*
X289950Y290280D01*
X290230D01*
X290500Y290420D01*
X290640Y290830D01*
Y291370D01*
X279950Y292950D02*
X280230Y293090D01*
X280500Y293360D01*
X280640Y293640D01*
Y294180D01*
X280500Y294450D01*
X280230Y294730D01*
X279950Y294860D01*
X279550Y295000D01*
X278860D01*
X278450Y294860D01*
X278180Y294730D01*
X277910Y294450D01*
X277770Y294180D01*
Y293640D01*
X277910Y293360D01*
X278180Y293090D01*
X278450Y292950D01*
X280640Y290150D02*
X277770Y291510D01*
X280640Y292050D02*
Y290150D01*
X269950Y292950D02*
X270230Y293090D01*
X270500Y293360D01*
X270640Y293640D01*
Y294180D01*
X270500Y294450D01*
X270230Y294730D01*
X269950Y294860D01*
X269550Y295000D01*
X268860D01*
X268450Y294860D01*
X268180Y294730D01*
X267910Y294450D01*
X267770Y294180D01*
Y293640D01*
X267910Y293360D01*
X268180Y293090D01*
X268450Y292950D01*
X270230Y290420D02*
X270500Y290550D01*
X270640Y290960D01*
Y291240D01*
X270500Y291650D01*
X270090Y291920D01*
X269410Y292050D01*
X268730D01*
X268180Y291920D01*
X267910Y291650D01*
X267770Y291240D01*
Y291100D01*
X267910Y290690D01*
X268180Y290420D01*
X268590Y290280D01*
X268730D01*
X269140Y290420D01*
X269410Y290690D01*
X269550Y291100D01*
Y291240D01*
X269410Y291650D01*
X269140Y291920D01*
X268730Y292050D01*
X259950Y292950D02*
X260230Y293090D01*
X260500Y293360D01*
X260640Y293640D01*
Y294180D01*
X260500Y294450D01*
X260230Y294730D01*
X259950Y294860D01*
X259550Y295000D01*
X258860D01*
X258450Y294860D01*
X258180Y294730D01*
X257910Y294450D01*
X257770Y294180D01*
Y293640D01*
X257910Y293360D01*
X258180Y293090D01*
X258450Y292950D01*
X260640Y290420D02*
Y291780D01*
X259410Y291920D01*
X259550Y291780D01*
X259680Y291370D01*
Y290960D01*
X259550Y290550D01*
X259270Y290280D01*
X258860Y290150D01*
X258590D01*
X258180Y290280D01*
X257910Y290550D01*
X257770Y290960D01*
Y291370D01*
X257910Y291780D01*
X258050Y291920D01*
X258320Y292050D01*
X249950Y292950D02*
X250230Y293090D01*
X250500Y293360D01*
X250640Y293640D01*
Y294180D01*
X250500Y294450D01*
X250230Y294730D01*
X249950Y294860D01*
X249550Y295000D01*
X248860D01*
X248450Y294860D01*
X248180Y294730D01*
X247910Y294450D01*
X247770Y294180D01*
Y293640D01*
X247910Y293360D01*
X248180Y293090D01*
X248450Y292950D01*
X250640Y290690D02*
X248730Y292050D01*
Y290010D01*
X250640Y290690D02*
X247770D01*
X239950Y292950D02*
X240230Y293090D01*
X240500Y293360D01*
X240640Y293640D01*
Y294180D01*
X240500Y294450D01*
X240230Y294730D01*
X239950Y294860D01*
X239550Y295000D01*
X238860D01*
X238450Y294860D01*
X238180Y294730D01*
X237910Y294450D01*
X237770Y294180D01*
Y293640D01*
X237910Y293360D01*
X238180Y293090D01*
X238450Y292950D01*
X240640Y291780D02*
Y290280D01*
X239550Y291100D01*
Y290690D01*
X239410Y290420D01*
X239270Y290280D01*
X238860Y290150D01*
X238590D01*
X238180Y290280D01*
X237910Y290550D01*
X237770Y290960D01*
Y291370D01*
X237910Y291780D01*
X238050Y291920D01*
X238320Y292050D01*
X229950Y292950D02*
X230230Y293090D01*
X230500Y293360D01*
X230640Y293640D01*
Y294180D01*
X230500Y294450D01*
X230230Y294730D01*
X229950Y294860D01*
X229550Y295000D01*
X228860D01*
X228450Y294860D01*
X228180Y294730D01*
X227910Y294450D01*
X227770Y294180D01*
Y293640D01*
X227910Y293360D01*
X228180Y293090D01*
X228450Y292950D01*
X229950Y291920D02*
X230090D01*
X230360Y291780D01*
X230500Y291650D01*
X230640Y291370D01*
Y290830D01*
X230500Y290550D01*
X230360Y290420D01*
X230090Y290280D01*
X229820D01*
X229550Y290420D01*
X229140Y290690D01*
X227770Y292050D01*
Y290150D01*
X220950Y292950D02*
X221230Y293090D01*
X221500Y293360D01*
X221640Y293640D01*
Y294180D01*
X221500Y294450D01*
X221230Y294730D01*
X220950Y294860D01*
X220550Y295000D01*
X219860D01*
X219450Y294860D01*
X219180Y294730D01*
X218910Y294450D01*
X218770Y294180D01*
Y293640D01*
X218910Y293360D01*
X219180Y293090D01*
X219450Y292950D01*
X221090Y292050D02*
X221230Y291780D01*
X221640Y291370D01*
X218770D01*
X210950Y292950D02*
X211230Y293090D01*
X211500Y293360D01*
X211640Y293640D01*
Y294180D01*
X211500Y294450D01*
X211230Y294730D01*
X210950Y294860D01*
X210550Y295000D01*
X209860D01*
X209450Y294860D01*
X209180Y294730D01*
X208910Y294450D01*
X208770Y294180D01*
Y293640D01*
X208910Y293360D01*
X209180Y293090D01*
X209450Y292950D01*
X211640Y291240D02*
X211500Y291650D01*
X211090Y291920D01*
X210410Y292050D01*
X210000D01*
X209320Y291920D01*
X208910Y291650D01*
X208770Y291240D01*
Y290960D01*
X208910Y290550D01*
X209320Y290280D01*
X210000Y290150D01*
X210410D01*
X211090Y290280D01*
X211500Y290550D01*
X211640Y290960D01*
Y291240D01*
X321230Y249090D02*
X321500Y249360D01*
X321640Y249770D01*
Y250320D01*
X321500Y250730D01*
X321230Y251000D01*
X320950D01*
X320680Y250860D01*
X320550Y250730D01*
X320410Y250450D01*
X320140Y249640D01*
X320000Y249360D01*
X319860Y249230D01*
X319590Y249090D01*
X319180D01*
X318910Y249360D01*
X318770Y249770D01*
Y250320D01*
X318910Y250730D01*
X319180Y251000D01*
X321640Y248190D02*
X318770D01*
X320950Y245250D02*
X321230Y245380D01*
X321500Y245650D01*
X321640Y245930D01*
Y246470D01*
X321500Y246750D01*
X321230Y247020D01*
X320950Y247150D01*
X320550Y247290D01*
X319860D01*
X319450Y247150D01*
X319180Y247020D01*
X318910Y246750D01*
X318770Y246470D01*
Y245930D01*
X318910Y245650D01*
X319180Y245380D01*
X319450Y245250D01*
X319860D01*
Y245930D02*
Y245250D01*
X311230Y248090D02*
X311500Y248360D01*
X311640Y248770D01*
Y249320D01*
X311500Y249730D01*
X311230Y250000D01*
X310950D01*
X310680Y249860D01*
X310550Y249730D01*
X310410Y249450D01*
X310140Y248640D01*
X310000Y248360D01*
X309860Y248230D01*
X309590Y248090D01*
X309180D01*
X308910Y248360D01*
X308770Y248770D01*
Y249320D01*
X308910Y249730D01*
X309180Y250000D01*
X311640Y246920D02*
Y245420D01*
X310550Y246240D01*
Y245830D01*
X310410Y245550D01*
X310270Y245420D01*
X309860Y245280D01*
X309590D01*
X309180Y245420D01*
X308910Y245690D01*
X308770Y246100D01*
Y246510D01*
X308910Y246920D01*
X309050Y247050D01*
X309320Y247190D01*
X301230Y248090D02*
X301500Y248360D01*
X301640Y248770D01*
Y249320D01*
X301500Y249730D01*
X301230Y250000D01*
X300950D01*
X300680Y249860D01*
X300550Y249730D01*
X300410Y249450D01*
X300140Y248640D01*
X300000Y248360D01*
X299860Y248230D01*
X299590Y248090D01*
X299180D01*
X298910Y248360D01*
X298770Y248770D01*
Y249320D01*
X298910Y249730D01*
X299180Y250000D01*
X300950Y247050D02*
X301090D01*
X301360Y246920D01*
X301500Y246780D01*
X301640Y246510D01*
Y245960D01*
X301500Y245690D01*
X301360Y245550D01*
X301090Y245420D01*
X300820D01*
X300550Y245550D01*
X300140Y245830D01*
X298770Y247190D01*
Y245280D01*
X291230Y247090D02*
X291500Y247360D01*
X291640Y247770D01*
Y248320D01*
X291500Y248730D01*
X291230Y249000D01*
X290950D01*
X290680Y248860D01*
X290550Y248730D01*
X290410Y248450D01*
X290140Y247640D01*
X290000Y247360D01*
X289860Y247230D01*
X289590Y247090D01*
X289180D01*
X288910Y247360D01*
X288770Y247770D01*
Y248320D01*
X288910Y248730D01*
X289180Y249000D01*
X291090Y246190D02*
X291230Y245920D01*
X291640Y245510D01*
X288770D01*
X281230Y248090D02*
X281500Y248360D01*
X281640Y248770D01*
Y249320D01*
X281500Y249730D01*
X281230Y250000D01*
X280950D01*
X280680Y249860D01*
X280550Y249730D01*
X280410Y249450D01*
X280140Y248640D01*
X280000Y248360D01*
X279860Y248230D01*
X279590Y248090D01*
X279180D01*
X278910Y248360D01*
X278770Y248770D01*
Y249320D01*
X278910Y249730D01*
X279180Y250000D01*
X281640Y246370D02*
X281500Y246780D01*
X281090Y247050D01*
X280410Y247190D01*
X280000D01*
X279320Y247050D01*
X278910Y246780D01*
X278770Y246370D01*
Y246100D01*
X278910Y245690D01*
X279320Y245420D01*
X280000Y245280D01*
X280410D01*
X281090Y245420D01*
X281500Y245690D01*
X281640Y246100D01*
Y246370D01*
X271640Y250000D02*
X268770D01*
X271640D02*
Y248230D01*
X270270Y250000D02*
Y248910D01*
X268770Y250000D02*
Y248230D01*
X271640Y247330D02*
X268770D01*
X271640D02*
X268770Y245420D01*
X271640D02*
X268770D01*
X261640Y253000D02*
X258770Y251910D01*
X261640Y250820D02*
X258770Y251910D01*
X260950Y247870D02*
X261230Y248010D01*
X261500Y248280D01*
X261640Y248550D01*
Y249100D01*
X261500Y249370D01*
X261230Y249650D01*
X260950Y249780D01*
X260550Y249920D01*
X259860D01*
X259450Y249780D01*
X259180Y249650D01*
X258910Y249370D01*
X258770Y249100D01*
Y248550D01*
X258910Y248280D01*
X259180Y248010D01*
X259450Y247870D01*
X260950Y244930D02*
X261230Y245060D01*
X261500Y245340D01*
X261640Y245610D01*
Y246150D01*
X261500Y246430D01*
X261230Y246700D01*
X260950Y246840D01*
X260550Y246970D01*
X259860D01*
X259450Y246840D01*
X259180Y246700D01*
X258910Y246430D01*
X258770Y246150D01*
Y245610D01*
X258910Y245340D01*
X259180Y245060D01*
X259450Y244930D01*
X250950Y250950D02*
X251230Y251090D01*
X251500Y251360D01*
X251640Y251640D01*
Y252180D01*
X251500Y252450D01*
X251230Y252730D01*
X250950Y252860D01*
X250550Y253000D01*
X249860D01*
X249450Y252860D01*
X249180Y252730D01*
X248910Y252450D01*
X248770Y252180D01*
Y251640D01*
X248910Y251360D01*
X249180Y251090D01*
X249450Y250950D01*
X249860D01*
Y251640D02*
Y250950D01*
X251640Y250050D02*
X248770D01*
X251640D02*
X248770Y248150D01*
X251640D02*
X248770D01*
X251640Y247250D02*
X248770D01*
X251640D02*
Y246290D01*
X251500Y245880D01*
X251230Y245610D01*
X250950Y245470D01*
X250550Y245340D01*
X249860D01*
X249450Y245470D01*
X249180Y245610D01*
X248910Y245880D01*
X248770Y246290D01*
Y247250D01*
X15000Y164540D02*
Y161470D01*
X15200Y160860D01*
X15610Y160450D01*
X16230Y160250D01*
X16640D01*
X17250Y160450D01*
X17660Y160860D01*
X17860Y161470D01*
Y164540D01*
X19620D02*
X21870D01*
X20650Y162900D01*
X21260D01*
X21670Y162700D01*
X21870Y162500D01*
X22080Y161880D01*
Y161470D01*
X21870Y160860D01*
X21460Y160450D01*
X20850Y160250D01*
X20240D01*
X19620Y160450D01*
X19420Y160650D01*
X19210Y161060D01*
X179950Y212950D02*
X180230Y213090D01*
X180500Y213360D01*
X180640Y213640D01*
Y214180D01*
X180500Y214450D01*
X180230Y214730D01*
X179950Y214860D01*
X179550Y215000D01*
X178860D01*
X178450Y214860D01*
X178180Y214730D01*
X177910Y214450D01*
X177770Y214180D01*
Y213640D01*
X177910Y213360D01*
X178180Y213090D01*
X178450Y212950D01*
X180090Y212050D02*
X180230Y211780D01*
X180640Y211370D01*
X177770D01*
X180640Y208840D02*
Y210200D01*
X179410Y210340D01*
X179550Y210200D01*
X179680Y209790D01*
Y209380D01*
X179550Y208970D01*
X179270Y208700D01*
X178860Y208560D01*
X178590D01*
X178180Y208700D01*
X177910Y208970D01*
X177770Y209380D01*
Y209790D01*
X177910Y210200D01*
X178050Y210340D01*
X178320Y210470D01*
X169950Y212950D02*
X170230Y213090D01*
X170500Y213360D01*
X170640Y213640D01*
Y214180D01*
X170500Y214450D01*
X170230Y214730D01*
X169950Y214860D01*
X169550Y215000D01*
X168860D01*
X168450Y214860D01*
X168180Y214730D01*
X167910Y214450D01*
X167770Y214180D01*
Y213640D01*
X167910Y213360D01*
X168180Y213090D01*
X168450Y212950D01*
X170090Y212050D02*
X170230Y211780D01*
X170640Y211370D01*
X167770D01*
X170640Y209110D02*
X168730Y210470D01*
Y208430D01*
X170640Y209110D02*
X167770D01*
X159950Y212950D02*
X160230Y213090D01*
X160500Y213360D01*
X160640Y213640D01*
Y214180D01*
X160500Y214450D01*
X160230Y214730D01*
X159950Y214860D01*
X159550Y215000D01*
X158860D01*
X158450Y214860D01*
X158180Y214730D01*
X157910Y214450D01*
X157770Y214180D01*
Y213640D01*
X157910Y213360D01*
X158180Y213090D01*
X158450Y212950D01*
X160090Y212050D02*
X160230Y211780D01*
X160640Y211370D01*
X157770D01*
X160640Y210200D02*
Y208700D01*
X159550Y209520D01*
Y209110D01*
X159410Y208840D01*
X159270Y208700D01*
X158860Y208560D01*
X158590D01*
X158180Y208700D01*
X157910Y208970D01*
X157770Y209380D01*
Y209790D01*
X157910Y210200D01*
X158050Y210340D01*
X158320Y210470D01*
X149950Y212950D02*
X150230Y213090D01*
X150500Y213360D01*
X150640Y213640D01*
Y214180D01*
X150500Y214450D01*
X150230Y214730D01*
X149950Y214860D01*
X149550Y215000D01*
X148860D01*
X148450Y214860D01*
X148180Y214730D01*
X147910Y214450D01*
X147770Y214180D01*
Y213640D01*
X147910Y213360D01*
X148180Y213090D01*
X148450Y212950D01*
X150090Y212050D02*
X150230Y211780D01*
X150640Y211370D01*
X147770D01*
X149950Y210340D02*
X150090D01*
X150360Y210200D01*
X150500Y210060D01*
X150640Y209790D01*
Y209250D01*
X150500Y208970D01*
X150360Y208840D01*
X150090Y208700D01*
X149820D01*
X149550Y208840D01*
X149140Y209110D01*
X147770Y210470D01*
Y208560D01*
X139950Y212950D02*
X140230Y213090D01*
X140500Y213360D01*
X140640Y213640D01*
Y214180D01*
X140500Y214450D01*
X140230Y214730D01*
X139950Y214860D01*
X139550Y215000D01*
X138860D01*
X138450Y214860D01*
X138180Y214730D01*
X137910Y214450D01*
X137770Y214180D01*
Y213640D01*
X137910Y213360D01*
X138180Y213090D01*
X138450Y212950D01*
X140090Y212050D02*
X140230Y211780D01*
X140640Y211370D01*
X137770D01*
X140090Y210470D02*
X140230Y210200D01*
X140640Y209790D01*
X137770D01*
X129950Y212950D02*
X130230Y213090D01*
X130500Y213360D01*
X130640Y213640D01*
Y214180D01*
X130500Y214450D01*
X130230Y214730D01*
X129950Y214860D01*
X129550Y215000D01*
X128860D01*
X128450Y214860D01*
X128180Y214730D01*
X127910Y214450D01*
X127770Y214180D01*
Y213640D01*
X127910Y213360D01*
X128180Y213090D01*
X128450Y212950D01*
X130090Y212050D02*
X130230Y211780D01*
X130640Y211370D01*
X127770D01*
X130640Y209650D02*
X130500Y210060D01*
X130090Y210340D01*
X129410Y210470D01*
X129000D01*
X128320Y210340D01*
X127910Y210060D01*
X127770Y209650D01*
Y209380D01*
X127910Y208970D01*
X128320Y208700D01*
X129000Y208560D01*
X129410D01*
X130090Y208700D01*
X130500Y208970D01*
X130640Y209380D01*
Y209650D01*
X119950Y212950D02*
X120230Y213090D01*
X120500Y213360D01*
X120640Y213640D01*
Y214180D01*
X120500Y214450D01*
X120230Y214730D01*
X119950Y214860D01*
X119550Y215000D01*
X118860D01*
X118450Y214860D01*
X118180Y214730D01*
X117910Y214450D01*
X117770Y214180D01*
Y213640D01*
X117910Y213360D01*
X118180Y213090D01*
X118450Y212950D01*
X119680Y210280D02*
X119270Y210420D01*
X119000Y210690D01*
X118860Y211100D01*
Y211240D01*
X119000Y211650D01*
X119270Y211920D01*
X119680Y212050D01*
X119820D01*
X120230Y211920D01*
X120500Y211650D01*
X120640Y211240D01*
Y211100D01*
X120500Y210690D01*
X120230Y210420D01*
X119680Y210280D01*
X119000D01*
X118320Y210420D01*
X117910Y210690D01*
X117770Y211100D01*
Y211370D01*
X117910Y211780D01*
X118180Y211920D01*
X109950Y212950D02*
X110230Y213090D01*
X110500Y213360D01*
X110640Y213640D01*
Y214180D01*
X110500Y214450D01*
X110230Y214730D01*
X109950Y214860D01*
X109550Y215000D01*
X108860D01*
X108450Y214860D01*
X108180Y214730D01*
X107910Y214450D01*
X107770Y214180D01*
Y213640D01*
X107910Y213360D01*
X108180Y213090D01*
X108450Y212950D01*
X110640Y211370D02*
X110500Y211780D01*
X110230Y211920D01*
X109950D01*
X109680Y211780D01*
X109550Y211510D01*
X109410Y210960D01*
X109270Y210550D01*
X109000Y210280D01*
X108730Y210150D01*
X108320D01*
X108050Y210280D01*
X107910Y210420D01*
X107770Y210830D01*
Y211370D01*
X107910Y211780D01*
X108050Y211920D01*
X108320Y212050D01*
X108730D01*
X109000Y211920D01*
X109270Y211650D01*
X109410Y211240D01*
X109550Y210690D01*
X109680Y210420D01*
X109950Y210280D01*
X110230D01*
X110500Y210420D01*
X110640Y210830D01*
Y211370D01*
X99950Y212950D02*
X100230Y213090D01*
X100500Y213360D01*
X100640Y213640D01*
Y214180D01*
X100500Y214450D01*
X100230Y214730D01*
X99950Y214860D01*
X99550Y215000D01*
X98860D01*
X98450Y214860D01*
X98180Y214730D01*
X97910Y214450D01*
X97770Y214180D01*
Y213640D01*
X97910Y213360D01*
X98180Y213090D01*
X98450Y212950D01*
X100640Y210150D02*
X97770Y211510D01*
X100640Y212050D02*
Y210150D01*
X89950Y212950D02*
X90230Y213090D01*
X90500Y213360D01*
X90640Y213640D01*
Y214180D01*
X90500Y214450D01*
X90230Y214730D01*
X89950Y214860D01*
X89550Y215000D01*
X88860D01*
X88450Y214860D01*
X88180Y214730D01*
X87910Y214450D01*
X87770Y214180D01*
Y213640D01*
X87910Y213360D01*
X88180Y213090D01*
X88450Y212950D01*
X90230Y210420D02*
X90500Y210550D01*
X90640Y210960D01*
Y211240D01*
X90500Y211650D01*
X90090Y211920D01*
X89410Y212050D01*
X88730D01*
X88180Y211920D01*
X87910Y211650D01*
X87770Y211240D01*
Y211100D01*
X87910Y210690D01*
X88180Y210420D01*
X88590Y210280D01*
X88730D01*
X89140Y210420D01*
X89410Y210690D01*
X89550Y211100D01*
Y211240D01*
X89410Y211650D01*
X89140Y211920D01*
X88730Y212050D01*
X79950Y212950D02*
X80230Y213090D01*
X80500Y213360D01*
X80640Y213640D01*
Y214180D01*
X80500Y214450D01*
X80230Y214730D01*
X79950Y214860D01*
X79550Y215000D01*
X78860D01*
X78450Y214860D01*
X78180Y214730D01*
X77910Y214450D01*
X77770Y214180D01*
Y213640D01*
X77910Y213360D01*
X78180Y213090D01*
X78450Y212950D01*
X80640Y210420D02*
Y211780D01*
X79410Y211920D01*
X79550Y211780D01*
X79680Y211370D01*
Y210960D01*
X79550Y210550D01*
X79270Y210280D01*
X78860Y210150D01*
X78590D01*
X78180Y210280D01*
X77910Y210550D01*
X77770Y210960D01*
Y211370D01*
X77910Y211780D01*
X78050Y211920D01*
X78320Y212050D01*
X69950Y212950D02*
X70230Y213090D01*
X70500Y213360D01*
X70640Y213640D01*
Y214180D01*
X70500Y214450D01*
X70230Y214730D01*
X69950Y214860D01*
X69550Y215000D01*
X68860D01*
X68450Y214860D01*
X68180Y214730D01*
X67910Y214450D01*
X67770Y214180D01*
Y213640D01*
X67910Y213360D01*
X68180Y213090D01*
X68450Y212950D01*
X70640Y210690D02*
X68730Y212050D01*
Y210010D01*
X70640Y210690D02*
X67770D01*
X59950Y212950D02*
X60230Y213090D01*
X60500Y213360D01*
X60640Y213640D01*
Y214180D01*
X60500Y214450D01*
X60230Y214730D01*
X59950Y214860D01*
X59550Y215000D01*
X58860D01*
X58450Y214860D01*
X58180Y214730D01*
X57910Y214450D01*
X57770Y214180D01*
Y213640D01*
X57910Y213360D01*
X58180Y213090D01*
X58450Y212950D01*
X60640Y211780D02*
Y210280D01*
X59550Y211100D01*
Y210690D01*
X59410Y210420D01*
X59270Y210280D01*
X58860Y210150D01*
X58590D01*
X58180Y210280D01*
X57910Y210550D01*
X57770Y210960D01*
Y211370D01*
X57910Y211780D01*
X58050Y211920D01*
X58320Y212050D01*
X49950Y212950D02*
X50230Y213090D01*
X50500Y213360D01*
X50640Y213640D01*
Y214180D01*
X50500Y214450D01*
X50230Y214730D01*
X49950Y214860D01*
X49550Y215000D01*
X48860D01*
X48450Y214860D01*
X48180Y214730D01*
X47910Y214450D01*
X47770Y214180D01*
Y213640D01*
X47910Y213360D01*
X48180Y213090D01*
X48450Y212950D01*
X49950Y211920D02*
X50090D01*
X50360Y211780D01*
X50500Y211650D01*
X50640Y211370D01*
Y210830D01*
X50500Y210550D01*
X50360Y210420D01*
X50090Y210280D01*
X49820D01*
X49550Y210420D01*
X49140Y210690D01*
X47770Y212050D01*
Y210150D01*
X40950Y212950D02*
X41230Y213090D01*
X41500Y213360D01*
X41640Y213640D01*
Y214180D01*
X41500Y214450D01*
X41230Y214730D01*
X40950Y214860D01*
X40550Y215000D01*
X39860D01*
X39450Y214860D01*
X39180Y214730D01*
X38910Y214450D01*
X38770Y214180D01*
Y213640D01*
X38910Y213360D01*
X39180Y213090D01*
X39450Y212950D01*
X41090Y212050D02*
X41230Y211780D01*
X41640Y211370D01*
X38770D01*
X30950Y212950D02*
X31230Y213090D01*
X31500Y213360D01*
X31640Y213640D01*
Y214180D01*
X31500Y214450D01*
X31230Y214730D01*
X30950Y214860D01*
X30550Y215000D01*
X29860D01*
X29450Y214860D01*
X29180Y214730D01*
X28910Y214450D01*
X28770Y214180D01*
Y213640D01*
X28910Y213360D01*
X29180Y213090D01*
X29450Y212950D01*
X31640Y211240D02*
X31500Y211650D01*
X31090Y211920D01*
X30410Y212050D01*
X30000D01*
X29320Y211920D01*
X28910Y211650D01*
X28770Y211240D01*
Y210960D01*
X28910Y210550D01*
X29320Y210280D01*
X30000Y210150D01*
X30410D01*
X31090Y210280D01*
X31500Y210550D01*
X31640Y210960D01*
Y211240D01*
X141230Y169090D02*
X141500Y169360D01*
X141640Y169770D01*
Y170320D01*
X141500Y170730D01*
X141230Y171000D01*
X140950D01*
X140680Y170860D01*
X140550Y170730D01*
X140410Y170450D01*
X140140Y169640D01*
X140000Y169360D01*
X139860Y169230D01*
X139590Y169090D01*
X139180D01*
X138910Y169360D01*
X138770Y169770D01*
Y170320D01*
X138910Y170730D01*
X139180Y171000D01*
X141640Y168190D02*
X138770D01*
X140950Y165250D02*
X141230Y165380D01*
X141500Y165650D01*
X141640Y165930D01*
Y166470D01*
X141500Y166750D01*
X141230Y167020D01*
X140950Y167150D01*
X140550Y167290D01*
X139860D01*
X139450Y167150D01*
X139180Y167020D01*
X138910Y166750D01*
X138770Y166470D01*
Y165930D01*
X138910Y165650D01*
X139180Y165380D01*
X139450Y165250D01*
X139860D01*
Y165930D02*
Y165250D01*
X131230Y168090D02*
X131500Y168360D01*
X131640Y168770D01*
Y169320D01*
X131500Y169730D01*
X131230Y170000D01*
X130950D01*
X130680Y169860D01*
X130550Y169730D01*
X130410Y169450D01*
X130140Y168640D01*
X130000Y168360D01*
X129860Y168230D01*
X129590Y168090D01*
X129180D01*
X128910Y168360D01*
X128770Y168770D01*
Y169320D01*
X128910Y169730D01*
X129180Y170000D01*
X131640Y166920D02*
Y165420D01*
X130550Y166240D01*
Y165830D01*
X130410Y165550D01*
X130270Y165420D01*
X129860Y165280D01*
X129590D01*
X129180Y165420D01*
X128910Y165690D01*
X128770Y166100D01*
Y166510D01*
X128910Y166920D01*
X129050Y167050D01*
X129320Y167190D01*
X121230Y168090D02*
X121500Y168360D01*
X121640Y168770D01*
Y169320D01*
X121500Y169730D01*
X121230Y170000D01*
X120950D01*
X120680Y169860D01*
X120550Y169730D01*
X120410Y169450D01*
X120140Y168640D01*
X120000Y168360D01*
X119860Y168230D01*
X119590Y168090D01*
X119180D01*
X118910Y168360D01*
X118770Y168770D01*
Y169320D01*
X118910Y169730D01*
X119180Y170000D01*
X120950Y167050D02*
X121090D01*
X121360Y166920D01*
X121500Y166780D01*
X121640Y166510D01*
Y165960D01*
X121500Y165690D01*
X121360Y165550D01*
X121090Y165420D01*
X120820D01*
X120550Y165550D01*
X120140Y165830D01*
X118770Y167190D01*
Y165280D01*
X111230Y167090D02*
X111500Y167360D01*
X111640Y167770D01*
Y168320D01*
X111500Y168730D01*
X111230Y169000D01*
X110950D01*
X110680Y168860D01*
X110550Y168730D01*
X110410Y168450D01*
X110140Y167640D01*
X110000Y167360D01*
X109860Y167230D01*
X109590Y167090D01*
X109180D01*
X108910Y167360D01*
X108770Y167770D01*
Y168320D01*
X108910Y168730D01*
X109180Y169000D01*
X111090Y166190D02*
X111230Y165920D01*
X111640Y165510D01*
X108770D01*
X101230Y168090D02*
X101500Y168360D01*
X101640Y168770D01*
Y169320D01*
X101500Y169730D01*
X101230Y170000D01*
X100950D01*
X100680Y169860D01*
X100550Y169730D01*
X100410Y169450D01*
X100140Y168640D01*
X100000Y168360D01*
X99860Y168230D01*
X99590Y168090D01*
X99180D01*
X98910Y168360D01*
X98770Y168770D01*
Y169320D01*
X98910Y169730D01*
X99180Y170000D01*
X101640Y166370D02*
X101500Y166780D01*
X101090Y167050D01*
X100410Y167190D01*
X100000D01*
X99320Y167050D01*
X98910Y166780D01*
X98770Y166370D01*
Y166100D01*
X98910Y165690D01*
X99320Y165420D01*
X100000Y165280D01*
X100410D01*
X101090Y165420D01*
X101500Y165690D01*
X101640Y166100D01*
Y166370D01*
X91640Y170000D02*
X88770D01*
X91640D02*
Y168230D01*
X90270Y170000D02*
Y168910D01*
X88770Y170000D02*
Y168230D01*
X91640Y167330D02*
X88770D01*
X91640D02*
X88770Y165420D01*
X91640D02*
X88770D01*
X81640Y173000D02*
X78770Y171910D01*
X81640Y170820D02*
X78770Y171910D01*
X80950Y167870D02*
X81230Y168010D01*
X81500Y168280D01*
X81640Y168550D01*
Y169100D01*
X81500Y169370D01*
X81230Y169650D01*
X80950Y169780D01*
X80550Y169920D01*
X79860D01*
X79450Y169780D01*
X79180Y169650D01*
X78910Y169370D01*
X78770Y169100D01*
Y168550D01*
X78910Y168280D01*
X79180Y168010D01*
X79450Y167870D01*
X80950Y164930D02*
X81230Y165060D01*
X81500Y165340D01*
X81640Y165610D01*
Y166150D01*
X81500Y166430D01*
X81230Y166700D01*
X80950Y166840D01*
X80550Y166970D01*
X79860D01*
X79450Y166840D01*
X79180Y166700D01*
X78910Y166430D01*
X78770Y166150D01*
Y165610D01*
X78910Y165340D01*
X79180Y165060D01*
X79450Y164930D01*
X70950Y170950D02*
X71230Y171090D01*
X71500Y171360D01*
X71640Y171640D01*
Y172180D01*
X71500Y172450D01*
X71230Y172730D01*
X70950Y172860D01*
X70550Y173000D01*
X69860D01*
X69450Y172860D01*
X69180Y172730D01*
X68910Y172450D01*
X68770Y172180D01*
Y171640D01*
X68910Y171360D01*
X69180Y171090D01*
X69450Y170950D01*
X69860D01*
Y171640D02*
Y170950D01*
X71640Y170050D02*
X68770D01*
X71640D02*
X68770Y168150D01*
X71640D02*
X68770D01*
X71640Y167250D02*
X68770D01*
X71640D02*
Y166290D01*
X71500Y165880D01*
X71230Y165610D01*
X70950Y165470D01*
X70550Y165340D01*
X69860D01*
X69450Y165470D01*
X69180Y165610D01*
X68910Y165880D01*
X68770Y166290D01*
Y167250D01*
X370000Y164540D02*
Y161470D01*
X370200Y160860D01*
X370610Y160450D01*
X371230Y160250D01*
X371640D01*
X372250Y160450D01*
X372660Y160860D01*
X372860Y161470D01*
Y164540D01*
X376260D02*
X374210Y161680D01*
X377280D01*
X376260Y164540D02*
Y160250D01*
X359950Y212950D02*
X360230Y213090D01*
X360500Y213360D01*
X360640Y213640D01*
Y214180D01*
X360500Y214450D01*
X360230Y214730D01*
X359950Y214860D01*
X359550Y215000D01*
X358860D01*
X358450Y214860D01*
X358180Y214730D01*
X357910Y214450D01*
X357770Y214180D01*
Y213640D01*
X357910Y213360D01*
X358180Y213090D01*
X358450Y212950D01*
X360090Y212050D02*
X360230Y211780D01*
X360640Y211370D01*
X357770D01*
X360640Y208840D02*
Y210200D01*
X359410Y210340D01*
X359550Y210200D01*
X359680Y209790D01*
Y209380D01*
X359550Y208970D01*
X359270Y208700D01*
X358860Y208560D01*
X358590D01*
X358180Y208700D01*
X357910Y208970D01*
X357770Y209380D01*
Y209790D01*
X357910Y210200D01*
X358050Y210340D01*
X358320Y210470D01*
X349950Y212950D02*
X350230Y213090D01*
X350500Y213360D01*
X350640Y213640D01*
Y214180D01*
X350500Y214450D01*
X350230Y214730D01*
X349950Y214860D01*
X349550Y215000D01*
X348860D01*
X348450Y214860D01*
X348180Y214730D01*
X347910Y214450D01*
X347770Y214180D01*
Y213640D01*
X347910Y213360D01*
X348180Y213090D01*
X348450Y212950D01*
X350090Y212050D02*
X350230Y211780D01*
X350640Y211370D01*
X347770D01*
X350640Y209110D02*
X348730Y210470D01*
Y208430D01*
X350640Y209110D02*
X347770D01*
X339950Y212950D02*
X340230Y213090D01*
X340500Y213360D01*
X340640Y213640D01*
Y214180D01*
X340500Y214450D01*
X340230Y214730D01*
X339950Y214860D01*
X339550Y215000D01*
X338860D01*
X338450Y214860D01*
X338180Y214730D01*
X337910Y214450D01*
X337770Y214180D01*
Y213640D01*
X337910Y213360D01*
X338180Y213090D01*
X338450Y212950D01*
X340090Y212050D02*
X340230Y211780D01*
X340640Y211370D01*
X337770D01*
X340640Y210200D02*
Y208700D01*
X339550Y209520D01*
Y209110D01*
X339410Y208840D01*
X339270Y208700D01*
X338860Y208560D01*
X338590D01*
X338180Y208700D01*
X337910Y208970D01*
X337770Y209380D01*
Y209790D01*
X337910Y210200D01*
X338050Y210340D01*
X338320Y210470D01*
X329950Y212950D02*
X330230Y213090D01*
X330500Y213360D01*
X330640Y213640D01*
Y214180D01*
X330500Y214450D01*
X330230Y214730D01*
X329950Y214860D01*
X329550Y215000D01*
X328860D01*
X328450Y214860D01*
X328180Y214730D01*
X327910Y214450D01*
X327770Y214180D01*
Y213640D01*
X327910Y213360D01*
X328180Y213090D01*
X328450Y212950D01*
X330090Y212050D02*
X330230Y211780D01*
X330640Y211370D01*
X327770D01*
X329950Y210340D02*
X330090D01*
X330360Y210200D01*
X330500Y210060D01*
X330640Y209790D01*
Y209250D01*
X330500Y208970D01*
X330360Y208840D01*
X330090Y208700D01*
X329820D01*
X329550Y208840D01*
X329140Y209110D01*
X327770Y210470D01*
Y208560D01*
X319950Y212950D02*
X320230Y213090D01*
X320500Y213360D01*
X320640Y213640D01*
Y214180D01*
X320500Y214450D01*
X320230Y214730D01*
X319950Y214860D01*
X319550Y215000D01*
X318860D01*
X318450Y214860D01*
X318180Y214730D01*
X317910Y214450D01*
X317770Y214180D01*
Y213640D01*
X317910Y213360D01*
X318180Y213090D01*
X318450Y212950D01*
X320090Y212050D02*
X320230Y211780D01*
X320640Y211370D01*
X317770D01*
X320090Y210470D02*
X320230Y210200D01*
X320640Y209790D01*
X317770D01*
X309950Y212950D02*
X310230Y213090D01*
X310500Y213360D01*
X310640Y213640D01*
Y214180D01*
X310500Y214450D01*
X310230Y214730D01*
X309950Y214860D01*
X309550Y215000D01*
X308860D01*
X308450Y214860D01*
X308180Y214730D01*
X307910Y214450D01*
X307770Y214180D01*
Y213640D01*
X307910Y213360D01*
X308180Y213090D01*
X308450Y212950D01*
X310090Y212050D02*
X310230Y211780D01*
X310640Y211370D01*
X307770D01*
X310640Y209650D02*
X310500Y210060D01*
X310090Y210340D01*
X309410Y210470D01*
X309000D01*
X308320Y210340D01*
X307910Y210060D01*
X307770Y209650D01*
Y209380D01*
X307910Y208970D01*
X308320Y208700D01*
X309000Y208560D01*
X309410D01*
X310090Y208700D01*
X310500Y208970D01*
X310640Y209380D01*
Y209650D01*
X299950Y212950D02*
X300230Y213090D01*
X300500Y213360D01*
X300640Y213640D01*
Y214180D01*
X300500Y214450D01*
X300230Y214730D01*
X299950Y214860D01*
X299550Y215000D01*
X298860D01*
X298450Y214860D01*
X298180Y214730D01*
X297910Y214450D01*
X297770Y214180D01*
Y213640D01*
X297910Y213360D01*
X298180Y213090D01*
X298450Y212950D01*
X299680Y210280D02*
X299270Y210420D01*
X299000Y210690D01*
X298860Y211100D01*
Y211240D01*
X299000Y211650D01*
X299270Y211920D01*
X299680Y212050D01*
X299820D01*
X300230Y211920D01*
X300500Y211650D01*
X300640Y211240D01*
Y211100D01*
X300500Y210690D01*
X300230Y210420D01*
X299680Y210280D01*
X299000D01*
X298320Y210420D01*
X297910Y210690D01*
X297770Y211100D01*
Y211370D01*
X297910Y211780D01*
X298180Y211920D01*
X289950Y212950D02*
X290230Y213090D01*
X290500Y213360D01*
X290640Y213640D01*
Y214180D01*
X290500Y214450D01*
X290230Y214730D01*
X289950Y214860D01*
X289550Y215000D01*
X288860D01*
X288450Y214860D01*
X288180Y214730D01*
X287910Y214450D01*
X287770Y214180D01*
Y213640D01*
X287910Y213360D01*
X288180Y213090D01*
X288450Y212950D01*
X290640Y211370D02*
X290500Y211780D01*
X290230Y211920D01*
X289950D01*
X289680Y211780D01*
X289550Y211510D01*
X289410Y210960D01*
X289270Y210550D01*
X289000Y210280D01*
X288730Y210150D01*
X288320D01*
X288050Y210280D01*
X287910Y210420D01*
X287770Y210830D01*
Y211370D01*
X287910Y211780D01*
X288050Y211920D01*
X288320Y212050D01*
X288730D01*
X289000Y211920D01*
X289270Y211650D01*
X289410Y211240D01*
X289550Y210690D01*
X289680Y210420D01*
X289950Y210280D01*
X290230D01*
X290500Y210420D01*
X290640Y210830D01*
Y211370D01*
X279950Y212950D02*
X280230Y213090D01*
X280500Y213360D01*
X280640Y213640D01*
Y214180D01*
X280500Y214450D01*
X280230Y214730D01*
X279950Y214860D01*
X279550Y215000D01*
X278860D01*
X278450Y214860D01*
X278180Y214730D01*
X277910Y214450D01*
X277770Y214180D01*
Y213640D01*
X277910Y213360D01*
X278180Y213090D01*
X278450Y212950D01*
X280640Y210150D02*
X277770Y211510D01*
X280640Y212050D02*
Y210150D01*
X269950Y212950D02*
X270230Y213090D01*
X270500Y213360D01*
X270640Y213640D01*
Y214180D01*
X270500Y214450D01*
X270230Y214730D01*
X269950Y214860D01*
X269550Y215000D01*
X268860D01*
X268450Y214860D01*
X268180Y214730D01*
X267910Y214450D01*
X267770Y214180D01*
Y213640D01*
X267910Y213360D01*
X268180Y213090D01*
X268450Y212950D01*
X270230Y210420D02*
X270500Y210550D01*
X270640Y210960D01*
Y211240D01*
X270500Y211650D01*
X270090Y211920D01*
X269410Y212050D01*
X268730D01*
X268180Y211920D01*
X267910Y211650D01*
X267770Y211240D01*
Y211100D01*
X267910Y210690D01*
X268180Y210420D01*
X268590Y210280D01*
X268730D01*
X269140Y210420D01*
X269410Y210690D01*
X269550Y211100D01*
Y211240D01*
X269410Y211650D01*
X269140Y211920D01*
X268730Y212050D01*
X259950Y212950D02*
X260230Y213090D01*
X260500Y213360D01*
X260640Y213640D01*
Y214180D01*
X260500Y214450D01*
X260230Y214730D01*
X259950Y214860D01*
X259550Y215000D01*
X258860D01*
X258450Y214860D01*
X258180Y214730D01*
X257910Y214450D01*
X257770Y214180D01*
Y213640D01*
X257910Y213360D01*
X258180Y213090D01*
X258450Y212950D01*
X260640Y210420D02*
Y211780D01*
X259410Y211920D01*
X259550Y211780D01*
X259680Y211370D01*
Y210960D01*
X259550Y210550D01*
X259270Y210280D01*
X258860Y210150D01*
X258590D01*
X258180Y210280D01*
X257910Y210550D01*
X257770Y210960D01*
Y211370D01*
X257910Y211780D01*
X258050Y211920D01*
X258320Y212050D01*
X249950Y212950D02*
X250230Y213090D01*
X250500Y213360D01*
X250640Y213640D01*
Y214180D01*
X250500Y214450D01*
X250230Y214730D01*
X249950Y214860D01*
X249550Y215000D01*
X248860D01*
X248450Y214860D01*
X248180Y214730D01*
X247910Y214450D01*
X247770Y214180D01*
Y213640D01*
X247910Y213360D01*
X248180Y213090D01*
X248450Y212950D01*
X250640Y210690D02*
X248730Y212050D01*
Y210010D01*
X250640Y210690D02*
X247770D01*
X239950Y212950D02*
X240230Y213090D01*
X240500Y213360D01*
X240640Y213640D01*
Y214180D01*
X240500Y214450D01*
X240230Y214730D01*
X239950Y214860D01*
X239550Y215000D01*
X238860D01*
X238450Y214860D01*
X238180Y214730D01*
X237910Y214450D01*
X237770Y214180D01*
Y213640D01*
X237910Y213360D01*
X238180Y213090D01*
X238450Y212950D01*
X240640Y211780D02*
Y210280D01*
X239550Y211100D01*
Y210690D01*
X239410Y210420D01*
X239270Y210280D01*
X238860Y210150D01*
X238590D01*
X238180Y210280D01*
X237910Y210550D01*
X237770Y210960D01*
Y211370D01*
X237910Y211780D01*
X238050Y211920D01*
X238320Y212050D01*
X229950Y212950D02*
X230230Y213090D01*
X230500Y213360D01*
X230640Y213640D01*
Y214180D01*
X230500Y214450D01*
X230230Y214730D01*
X229950Y214860D01*
X229550Y215000D01*
X228860D01*
X228450Y214860D01*
X228180Y214730D01*
X227910Y214450D01*
X227770Y214180D01*
Y213640D01*
X227910Y213360D01*
X228180Y213090D01*
X228450Y212950D01*
X229950Y211920D02*
X230090D01*
X230360Y211780D01*
X230500Y211650D01*
X230640Y211370D01*
Y210830D01*
X230500Y210550D01*
X230360Y210420D01*
X230090Y210280D01*
X229820D01*
X229550Y210420D01*
X229140Y210690D01*
X227770Y212050D01*
Y210150D01*
X220950Y212950D02*
X221230Y213090D01*
X221500Y213360D01*
X221640Y213640D01*
Y214180D01*
X221500Y214450D01*
X221230Y214730D01*
X220950Y214860D01*
X220550Y215000D01*
X219860D01*
X219450Y214860D01*
X219180Y214730D01*
X218910Y214450D01*
X218770Y214180D01*
Y213640D01*
X218910Y213360D01*
X219180Y213090D01*
X219450Y212950D01*
X221090Y212050D02*
X221230Y211780D01*
X221640Y211370D01*
X218770D01*
X210950Y212950D02*
X211230Y213090D01*
X211500Y213360D01*
X211640Y213640D01*
Y214180D01*
X211500Y214450D01*
X211230Y214730D01*
X210950Y214860D01*
X210550Y215000D01*
X209860D01*
X209450Y214860D01*
X209180Y214730D01*
X208910Y214450D01*
X208770Y214180D01*
Y213640D01*
X208910Y213360D01*
X209180Y213090D01*
X209450Y212950D01*
X211640Y211240D02*
X211500Y211650D01*
X211090Y211920D01*
X210410Y212050D01*
X210000D01*
X209320Y211920D01*
X208910Y211650D01*
X208770Y211240D01*
Y210960D01*
X208910Y210550D01*
X209320Y210280D01*
X210000Y210150D01*
X210410D01*
X211090Y210280D01*
X211500Y210550D01*
X211640Y210960D01*
Y211240D01*
X321230Y169090D02*
X321500Y169360D01*
X321640Y169770D01*
Y170320D01*
X321500Y170730D01*
X321230Y171000D01*
X320950D01*
X320680Y170860D01*
X320550Y170730D01*
X320410Y170450D01*
X320140Y169640D01*
X320000Y169360D01*
X319860Y169230D01*
X319590Y169090D01*
X319180D01*
X318910Y169360D01*
X318770Y169770D01*
Y170320D01*
X318910Y170730D01*
X319180Y171000D01*
X321640Y168190D02*
X318770D01*
X320950Y165250D02*
X321230Y165380D01*
X321500Y165650D01*
X321640Y165930D01*
Y166470D01*
X321500Y166750D01*
X321230Y167020D01*
X320950Y167150D01*
X320550Y167290D01*
X319860D01*
X319450Y167150D01*
X319180Y167020D01*
X318910Y166750D01*
X318770Y166470D01*
Y165930D01*
X318910Y165650D01*
X319180Y165380D01*
X319450Y165250D01*
X319860D01*
Y165930D02*
Y165250D01*
X311230Y168090D02*
X311500Y168360D01*
X311640Y168770D01*
Y169320D01*
X311500Y169730D01*
X311230Y170000D01*
X310950D01*
X310680Y169860D01*
X310550Y169730D01*
X310410Y169450D01*
X310140Y168640D01*
X310000Y168360D01*
X309860Y168230D01*
X309590Y168090D01*
X309180D01*
X308910Y168360D01*
X308770Y168770D01*
Y169320D01*
X308910Y169730D01*
X309180Y170000D01*
X311640Y166920D02*
Y165420D01*
X310550Y166240D01*
Y165830D01*
X310410Y165550D01*
X310270Y165420D01*
X309860Y165280D01*
X309590D01*
X309180Y165420D01*
X308910Y165690D01*
X308770Y166100D01*
Y166510D01*
X308910Y166920D01*
X309050Y167050D01*
X309320Y167190D01*
X301230Y168090D02*
X301500Y168360D01*
X301640Y168770D01*
Y169320D01*
X301500Y169730D01*
X301230Y170000D01*
X300950D01*
X300680Y169860D01*
X300550Y169730D01*
X300410Y169450D01*
X300140Y168640D01*
X300000Y168360D01*
X299860Y168230D01*
X299590Y168090D01*
X299180D01*
X298910Y168360D01*
X298770Y168770D01*
Y169320D01*
X298910Y169730D01*
X299180Y170000D01*
X300950Y167050D02*
X301090D01*
X301360Y166920D01*
X301500Y166780D01*
X301640Y166510D01*
Y165960D01*
X301500Y165690D01*
X301360Y165550D01*
X301090Y165420D01*
X300820D01*
X300550Y165550D01*
X300140Y165830D01*
X298770Y167190D01*
Y165280D01*
X291230Y167090D02*
X291500Y167360D01*
X291640Y167770D01*
Y168320D01*
X291500Y168730D01*
X291230Y169000D01*
X290950D01*
X290680Y168860D01*
X290550Y168730D01*
X290410Y168450D01*
X290140Y167640D01*
X290000Y167360D01*
X289860Y167230D01*
X289590Y167090D01*
X289180D01*
X288910Y167360D01*
X288770Y167770D01*
Y168320D01*
X288910Y168730D01*
X289180Y169000D01*
X291090Y166190D02*
X291230Y165920D01*
X291640Y165510D01*
X288770D01*
X281230Y168090D02*
X281500Y168360D01*
X281640Y168770D01*
Y169320D01*
X281500Y169730D01*
X281230Y170000D01*
X280950D01*
X280680Y169860D01*
X280550Y169730D01*
X280410Y169450D01*
X280140Y168640D01*
X280000Y168360D01*
X279860Y168230D01*
X279590Y168090D01*
X279180D01*
X278910Y168360D01*
X278770Y168770D01*
Y169320D01*
X278910Y169730D01*
X279180Y170000D01*
X281640Y166370D02*
X281500Y166780D01*
X281090Y167050D01*
X280410Y167190D01*
X280000D01*
X279320Y167050D01*
X278910Y166780D01*
X278770Y166370D01*
Y166100D01*
X278910Y165690D01*
X279320Y165420D01*
X280000Y165280D01*
X280410D01*
X281090Y165420D01*
X281500Y165690D01*
X281640Y166100D01*
Y166370D01*
X271640Y170000D02*
X268770D01*
X271640D02*
Y168230D01*
X270270Y170000D02*
Y168910D01*
X268770Y170000D02*
Y168230D01*
X271640Y167330D02*
X268770D01*
X271640D02*
X268770Y165420D01*
X271640D02*
X268770D01*
X261640Y173000D02*
X258770Y171910D01*
X261640Y170820D02*
X258770Y171910D01*
X260950Y167870D02*
X261230Y168010D01*
X261500Y168280D01*
X261640Y168550D01*
Y169100D01*
X261500Y169370D01*
X261230Y169650D01*
X260950Y169780D01*
X260550Y169920D01*
X259860D01*
X259450Y169780D01*
X259180Y169650D01*
X258910Y169370D01*
X258770Y169100D01*
Y168550D01*
X258910Y168280D01*
X259180Y168010D01*
X259450Y167870D01*
X260950Y164930D02*
X261230Y165060D01*
X261500Y165340D01*
X261640Y165610D01*
Y166150D01*
X261500Y166430D01*
X261230Y166700D01*
X260950Y166840D01*
X260550Y166970D01*
X259860D01*
X259450Y166840D01*
X259180Y166700D01*
X258910Y166430D01*
X258770Y166150D01*
Y165610D01*
X258910Y165340D01*
X259180Y165060D01*
X259450Y164930D01*
X250950Y170950D02*
X251230Y171090D01*
X251500Y171360D01*
X251640Y171640D01*
Y172180D01*
X251500Y172450D01*
X251230Y172730D01*
X250950Y172860D01*
X250550Y173000D01*
X249860D01*
X249450Y172860D01*
X249180Y172730D01*
X248910Y172450D01*
X248770Y172180D01*
Y171640D01*
X248910Y171360D01*
X249180Y171090D01*
X249450Y170950D01*
X249860D01*
Y171640D02*
Y170950D01*
X251640Y170050D02*
X248770D01*
X251640D02*
X248770Y168150D01*
X251640D02*
X248770D01*
X251640Y167250D02*
X248770D01*
X251640D02*
Y166290D01*
X251500Y165880D01*
X251230Y165610D01*
X250950Y165470D01*
X250550Y165340D01*
X249860D01*
X249450Y165470D01*
X249180Y165610D01*
X248910Y165880D01*
X248770Y166290D01*
Y167250D01*
X370000Y84540D02*
Y81470D01*
X370200Y80860D01*
X370610Y80450D01*
X371230Y80250D01*
X371640D01*
X372250Y80450D01*
X372660Y80860D01*
X372860Y81470D01*
Y84540D01*
X376670Y83930D02*
X376460Y84340D01*
X375850Y84540D01*
X375440D01*
X374830Y84340D01*
X374420Y83720D01*
X374210Y82700D01*
Y81680D01*
X374420Y80860D01*
X374830Y80450D01*
X375440Y80250D01*
X375650D01*
X376260Y80450D01*
X376670Y80860D01*
X376870Y81470D01*
Y81680D01*
X376670Y82290D01*
X376260Y82700D01*
X375650Y82900D01*
X375440D01*
X374830Y82700D01*
X374420Y82290D01*
X374210Y81680D01*
X359950Y132950D02*
X360230Y133090D01*
X360500Y133360D01*
X360640Y133640D01*
Y134180D01*
X360500Y134450D01*
X360230Y134730D01*
X359950Y134860D01*
X359550Y135000D01*
X358860D01*
X358450Y134860D01*
X358180Y134730D01*
X357910Y134450D01*
X357770Y134180D01*
Y133640D01*
X357910Y133360D01*
X358180Y133090D01*
X358450Y132950D01*
X360090Y132050D02*
X360230Y131780D01*
X360640Y131370D01*
X357770D01*
X360640Y128840D02*
Y130200D01*
X359410Y130340D01*
X359550Y130200D01*
X359680Y129790D01*
Y129380D01*
X359550Y128970D01*
X359270Y128700D01*
X358860Y128560D01*
X358590D01*
X358180Y128700D01*
X357910Y128970D01*
X357770Y129380D01*
Y129790D01*
X357910Y130200D01*
X358050Y130340D01*
X358320Y130470D01*
X349950Y132950D02*
X350230Y133090D01*
X350500Y133360D01*
X350640Y133640D01*
Y134180D01*
X350500Y134450D01*
X350230Y134730D01*
X349950Y134860D01*
X349550Y135000D01*
X348860D01*
X348450Y134860D01*
X348180Y134730D01*
X347910Y134450D01*
X347770Y134180D01*
Y133640D01*
X347910Y133360D01*
X348180Y133090D01*
X348450Y132950D01*
X350090Y132050D02*
X350230Y131780D01*
X350640Y131370D01*
X347770D01*
X350640Y129110D02*
X348730Y130470D01*
Y128430D01*
X350640Y129110D02*
X347770D01*
X339950Y132950D02*
X340230Y133090D01*
X340500Y133360D01*
X340640Y133640D01*
Y134180D01*
X340500Y134450D01*
X340230Y134730D01*
X339950Y134860D01*
X339550Y135000D01*
X338860D01*
X338450Y134860D01*
X338180Y134730D01*
X337910Y134450D01*
X337770Y134180D01*
Y133640D01*
X337910Y133360D01*
X338180Y133090D01*
X338450Y132950D01*
X340090Y132050D02*
X340230Y131780D01*
X340640Y131370D01*
X337770D01*
X340640Y130200D02*
Y128700D01*
X339550Y129520D01*
Y129110D01*
X339410Y128840D01*
X339270Y128700D01*
X338860Y128560D01*
X338590D01*
X338180Y128700D01*
X337910Y128970D01*
X337770Y129380D01*
Y129790D01*
X337910Y130200D01*
X338050Y130340D01*
X338320Y130470D01*
X329950Y132950D02*
X330230Y133090D01*
X330500Y133360D01*
X330640Y133640D01*
Y134180D01*
X330500Y134450D01*
X330230Y134730D01*
X329950Y134860D01*
X329550Y135000D01*
X328860D01*
X328450Y134860D01*
X328180Y134730D01*
X327910Y134450D01*
X327770Y134180D01*
Y133640D01*
X327910Y133360D01*
X328180Y133090D01*
X328450Y132950D01*
X330090Y132050D02*
X330230Y131780D01*
X330640Y131370D01*
X327770D01*
X329950Y130340D02*
X330090D01*
X330360Y130200D01*
X330500Y130060D01*
X330640Y129790D01*
Y129250D01*
X330500Y128970D01*
X330360Y128840D01*
X330090Y128700D01*
X329820D01*
X329550Y128840D01*
X329140Y129110D01*
X327770Y130470D01*
Y128560D01*
X319950Y132950D02*
X320230Y133090D01*
X320500Y133360D01*
X320640Y133640D01*
Y134180D01*
X320500Y134450D01*
X320230Y134730D01*
X319950Y134860D01*
X319550Y135000D01*
X318860D01*
X318450Y134860D01*
X318180Y134730D01*
X317910Y134450D01*
X317770Y134180D01*
Y133640D01*
X317910Y133360D01*
X318180Y133090D01*
X318450Y132950D01*
X320090Y132050D02*
X320230Y131780D01*
X320640Y131370D01*
X317770D01*
X320090Y130470D02*
X320230Y130200D01*
X320640Y129790D01*
X317770D01*
X309950Y132950D02*
X310230Y133090D01*
X310500Y133360D01*
X310640Y133640D01*
Y134180D01*
X310500Y134450D01*
X310230Y134730D01*
X309950Y134860D01*
X309550Y135000D01*
X308860D01*
X308450Y134860D01*
X308180Y134730D01*
X307910Y134450D01*
X307770Y134180D01*
Y133640D01*
X307910Y133360D01*
X308180Y133090D01*
X308450Y132950D01*
X310090Y132050D02*
X310230Y131780D01*
X310640Y131370D01*
X307770D01*
X310640Y129650D02*
X310500Y130060D01*
X310090Y130340D01*
X309410Y130470D01*
X309000D01*
X308320Y130340D01*
X307910Y130060D01*
X307770Y129650D01*
Y129380D01*
X307910Y128970D01*
X308320Y128700D01*
X309000Y128560D01*
X309410D01*
X310090Y128700D01*
X310500Y128970D01*
X310640Y129380D01*
Y129650D01*
X299950Y132950D02*
X300230Y133090D01*
X300500Y133360D01*
X300640Y133640D01*
Y134180D01*
X300500Y134450D01*
X300230Y134730D01*
X299950Y134860D01*
X299550Y135000D01*
X298860D01*
X298450Y134860D01*
X298180Y134730D01*
X297910Y134450D01*
X297770Y134180D01*
Y133640D01*
X297910Y133360D01*
X298180Y133090D01*
X298450Y132950D01*
X299680Y130280D02*
X299270Y130420D01*
X299000Y130690D01*
X298860Y131100D01*
Y131240D01*
X299000Y131650D01*
X299270Y131920D01*
X299680Y132050D01*
X299820D01*
X300230Y131920D01*
X300500Y131650D01*
X300640Y131240D01*
Y131100D01*
X300500Y130690D01*
X300230Y130420D01*
X299680Y130280D01*
X299000D01*
X298320Y130420D01*
X297910Y130690D01*
X297770Y131100D01*
Y131370D01*
X297910Y131780D01*
X298180Y131920D01*
X289950Y132950D02*
X290230Y133090D01*
X290500Y133360D01*
X290640Y133640D01*
Y134180D01*
X290500Y134450D01*
X290230Y134730D01*
X289950Y134860D01*
X289550Y135000D01*
X288860D01*
X288450Y134860D01*
X288180Y134730D01*
X287910Y134450D01*
X287770Y134180D01*
Y133640D01*
X287910Y133360D01*
X288180Y133090D01*
X288450Y132950D01*
X290640Y131370D02*
X290500Y131780D01*
X290230Y131920D01*
X289950D01*
X289680Y131780D01*
X289550Y131510D01*
X289410Y130960D01*
X289270Y130550D01*
X289000Y130280D01*
X288730Y130150D01*
X288320D01*
X288050Y130280D01*
X287910Y130420D01*
X287770Y130830D01*
Y131370D01*
X287910Y131780D01*
X288050Y131920D01*
X288320Y132050D01*
X288730D01*
X289000Y131920D01*
X289270Y131650D01*
X289410Y131240D01*
X289550Y130690D01*
X289680Y130420D01*
X289950Y130280D01*
X290230D01*
X290500Y130420D01*
X290640Y130830D01*
Y131370D01*
X279950Y132950D02*
X280230Y133090D01*
X280500Y133360D01*
X280640Y133640D01*
Y134180D01*
X280500Y134450D01*
X280230Y134730D01*
X279950Y134860D01*
X279550Y135000D01*
X278860D01*
X278450Y134860D01*
X278180Y134730D01*
X277910Y134450D01*
X277770Y134180D01*
Y133640D01*
X277910Y133360D01*
X278180Y133090D01*
X278450Y132950D01*
X280640Y130150D02*
X277770Y131510D01*
X280640Y132050D02*
Y130150D01*
X269950Y132950D02*
X270230Y133090D01*
X270500Y133360D01*
X270640Y133640D01*
Y134180D01*
X270500Y134450D01*
X270230Y134730D01*
X269950Y134860D01*
X269550Y135000D01*
X268860D01*
X268450Y134860D01*
X268180Y134730D01*
X267910Y134450D01*
X267770Y134180D01*
Y133640D01*
X267910Y133360D01*
X268180Y133090D01*
X268450Y132950D01*
X270230Y130420D02*
X270500Y130550D01*
X270640Y130960D01*
Y131240D01*
X270500Y131650D01*
X270090Y131920D01*
X269410Y132050D01*
X268730D01*
X268180Y131920D01*
X267910Y131650D01*
X267770Y131240D01*
Y131100D01*
X267910Y130690D01*
X268180Y130420D01*
X268590Y130280D01*
X268730D01*
X269140Y130420D01*
X269410Y130690D01*
X269550Y131100D01*
Y131240D01*
X269410Y131650D01*
X269140Y131920D01*
X268730Y132050D01*
X259950Y132950D02*
X260230Y133090D01*
X260500Y133360D01*
X260640Y133640D01*
Y134180D01*
X260500Y134450D01*
X260230Y134730D01*
X259950Y134860D01*
X259550Y135000D01*
X258860D01*
X258450Y134860D01*
X258180Y134730D01*
X257910Y134450D01*
X257770Y134180D01*
Y133640D01*
X257910Y133360D01*
X258180Y133090D01*
X258450Y132950D01*
X260640Y130420D02*
Y131780D01*
X259410Y131920D01*
X259550Y131780D01*
X259680Y131370D01*
Y130960D01*
X259550Y130550D01*
X259270Y130280D01*
X258860Y130150D01*
X258590D01*
X258180Y130280D01*
X257910Y130550D01*
X257770Y130960D01*
Y131370D01*
X257910Y131780D01*
X258050Y131920D01*
X258320Y132050D01*
X250950Y132950D02*
X251230Y133090D01*
X251500Y133360D01*
X251640Y133640D01*
Y134180D01*
X251500Y134450D01*
X251230Y134730D01*
X250950Y134860D01*
X250550Y135000D01*
X249860D01*
X249450Y134860D01*
X249180Y134730D01*
X248910Y134450D01*
X248770Y134180D01*
Y133640D01*
X248910Y133360D01*
X249180Y133090D01*
X249450Y132950D01*
X251640Y130690D02*
X249730Y132050D01*
Y130010D01*
X251640Y130690D02*
X248770D01*
X239950Y132950D02*
X240230Y133090D01*
X240500Y133360D01*
X240640Y133640D01*
Y134180D01*
X240500Y134450D01*
X240230Y134730D01*
X239950Y134860D01*
X239550Y135000D01*
X238860D01*
X238450Y134860D01*
X238180Y134730D01*
X237910Y134450D01*
X237770Y134180D01*
Y133640D01*
X237910Y133360D01*
X238180Y133090D01*
X238450Y132950D01*
X240640Y131780D02*
Y130280D01*
X239550Y131100D01*
Y130690D01*
X239410Y130420D01*
X239270Y130280D01*
X238860Y130150D01*
X238590D01*
X238180Y130280D01*
X237910Y130550D01*
X237770Y130960D01*
Y131370D01*
X237910Y131780D01*
X238050Y131920D01*
X238320Y132050D01*
X229950Y132950D02*
X230230Y133090D01*
X230500Y133360D01*
X230640Y133640D01*
Y134180D01*
X230500Y134450D01*
X230230Y134730D01*
X229950Y134860D01*
X229550Y135000D01*
X228860D01*
X228450Y134860D01*
X228180Y134730D01*
X227910Y134450D01*
X227770Y134180D01*
Y133640D01*
X227910Y133360D01*
X228180Y133090D01*
X228450Y132950D01*
X229950Y131920D02*
X230090D01*
X230360Y131780D01*
X230500Y131650D01*
X230640Y131370D01*
Y130830D01*
X230500Y130550D01*
X230360Y130420D01*
X230090Y130280D01*
X229820D01*
X229550Y130420D01*
X229140Y130690D01*
X227770Y132050D01*
Y130150D01*
X220950Y132950D02*
X221230Y133090D01*
X221500Y133360D01*
X221640Y133640D01*
Y134180D01*
X221500Y134450D01*
X221230Y134730D01*
X220950Y134860D01*
X220550Y135000D01*
X219860D01*
X219450Y134860D01*
X219180Y134730D01*
X218910Y134450D01*
X218770Y134180D01*
Y133640D01*
X218910Y133360D01*
X219180Y133090D01*
X219450Y132950D01*
X221090Y132050D02*
X221230Y131780D01*
X221640Y131370D01*
X218770D01*
X210950Y132950D02*
X211230Y133090D01*
X211500Y133360D01*
X211640Y133640D01*
Y134180D01*
X211500Y134450D01*
X211230Y134730D01*
X210950Y134860D01*
X210550Y135000D01*
X209860D01*
X209450Y134860D01*
X209180Y134730D01*
X208910Y134450D01*
X208770Y134180D01*
Y133640D01*
X208910Y133360D01*
X209180Y133090D01*
X209450Y132950D01*
X211640Y131240D02*
X211500Y131650D01*
X211090Y131920D01*
X210410Y132050D01*
X210000D01*
X209320Y131920D01*
X208910Y131650D01*
X208770Y131240D01*
Y130960D01*
X208910Y130550D01*
X209320Y130280D01*
X210000Y130150D01*
X210410D01*
X211090Y130280D01*
X211500Y130550D01*
X211640Y130960D01*
Y131240D01*
X321230Y89090D02*
X321500Y89360D01*
X321640Y89770D01*
Y90320D01*
X321500Y90730D01*
X321230Y91000D01*
X320950D01*
X320680Y90860D01*
X320550Y90730D01*
X320410Y90450D01*
X320140Y89640D01*
X320000Y89360D01*
X319860Y89230D01*
X319590Y89090D01*
X319180D01*
X318910Y89360D01*
X318770Y89770D01*
Y90320D01*
X318910Y90730D01*
X319180Y91000D01*
X321640Y88190D02*
X318770D01*
X320950Y85250D02*
X321230Y85380D01*
X321500Y85650D01*
X321640Y85930D01*
Y86470D01*
X321500Y86750D01*
X321230Y87020D01*
X320950Y87150D01*
X320550Y87290D01*
X319860D01*
X319450Y87150D01*
X319180Y87020D01*
X318910Y86750D01*
X318770Y86470D01*
Y85930D01*
X318910Y85650D01*
X319180Y85380D01*
X319450Y85250D01*
X319860D01*
Y85930D02*
Y85250D01*
X311230Y88090D02*
X311500Y88360D01*
X311640Y88770D01*
Y89320D01*
X311500Y89730D01*
X311230Y90000D01*
X310950D01*
X310680Y89860D01*
X310550Y89730D01*
X310410Y89450D01*
X310140Y88640D01*
X310000Y88360D01*
X309860Y88230D01*
X309590Y88090D01*
X309180D01*
X308910Y88360D01*
X308770Y88770D01*
Y89320D01*
X308910Y89730D01*
X309180Y90000D01*
X311640Y86920D02*
Y85420D01*
X310550Y86240D01*
Y85830D01*
X310410Y85550D01*
X310270Y85420D01*
X309860Y85280D01*
X309590D01*
X309180Y85420D01*
X308910Y85690D01*
X308770Y86100D01*
Y86510D01*
X308910Y86920D01*
X309050Y87050D01*
X309320Y87190D01*
X301230Y88090D02*
X301500Y88360D01*
X301640Y88770D01*
Y89320D01*
X301500Y89730D01*
X301230Y90000D01*
X300950D01*
X300680Y89860D01*
X300550Y89730D01*
X300410Y89450D01*
X300140Y88640D01*
X300000Y88360D01*
X299860Y88230D01*
X299590Y88090D01*
X299180D01*
X298910Y88360D01*
X298770Y88770D01*
Y89320D01*
X298910Y89730D01*
X299180Y90000D01*
X300950Y87050D02*
X301090D01*
X301360Y86920D01*
X301500Y86780D01*
X301640Y86510D01*
Y85960D01*
X301500Y85690D01*
X301360Y85550D01*
X301090Y85420D01*
X300820D01*
X300550Y85550D01*
X300140Y85830D01*
X298770Y87190D01*
Y85280D01*
X291230Y87090D02*
X291500Y87360D01*
X291640Y87770D01*
Y88320D01*
X291500Y88730D01*
X291230Y89000D01*
X290950D01*
X290680Y88860D01*
X290550Y88730D01*
X290410Y88450D01*
X290140Y87640D01*
X290000Y87360D01*
X289860Y87230D01*
X289590Y87090D01*
X289180D01*
X288910Y87360D01*
X288770Y87770D01*
Y88320D01*
X288910Y88730D01*
X289180Y89000D01*
X291090Y86190D02*
X291230Y85920D01*
X291640Y85510D01*
X288770D01*
X281230Y88090D02*
X281500Y88360D01*
X281640Y88770D01*
Y89320D01*
X281500Y89730D01*
X281230Y90000D01*
X280950D01*
X280680Y89860D01*
X280550Y89730D01*
X280410Y89450D01*
X280140Y88640D01*
X280000Y88360D01*
X279860Y88230D01*
X279590Y88090D01*
X279180D01*
X278910Y88360D01*
X278770Y88770D01*
Y89320D01*
X278910Y89730D01*
X279180Y90000D01*
X281640Y86370D02*
X281500Y86780D01*
X281090Y87050D01*
X280410Y87190D01*
X280000D01*
X279320Y87050D01*
X278910Y86780D01*
X278770Y86370D01*
Y86100D01*
X278910Y85690D01*
X279320Y85420D01*
X280000Y85280D01*
X280410D01*
X281090Y85420D01*
X281500Y85690D01*
X281640Y86100D01*
Y86370D01*
X271640Y90000D02*
X268770D01*
X271640D02*
Y88230D01*
X270270Y90000D02*
Y88910D01*
X268770Y90000D02*
Y88230D01*
X271640Y87330D02*
X268770D01*
X271640D02*
X268770Y85420D01*
X271640D02*
X268770D01*
X261640Y93000D02*
X258770Y91910D01*
X261640Y90820D02*
X258770Y91910D01*
X260950Y87870D02*
X261230Y88010D01*
X261500Y88280D01*
X261640Y88550D01*
Y89100D01*
X261500Y89370D01*
X261230Y89650D01*
X260950Y89780D01*
X260550Y89920D01*
X259860D01*
X259450Y89780D01*
X259180Y89650D01*
X258910Y89370D01*
X258770Y89100D01*
Y88550D01*
X258910Y88280D01*
X259180Y88010D01*
X259450Y87870D01*
X260950Y84930D02*
X261230Y85060D01*
X261500Y85340D01*
X261640Y85610D01*
Y86150D01*
X261500Y86430D01*
X261230Y86700D01*
X260950Y86840D01*
X260550Y86970D01*
X259860D01*
X259450Y86840D01*
X259180Y86700D01*
X258910Y86430D01*
X258770Y86150D01*
Y85610D01*
X258910Y85340D01*
X259180Y85060D01*
X259450Y84930D01*
X250950Y90950D02*
X251230Y91090D01*
X251500Y91360D01*
X251640Y91640D01*
Y92180D01*
X251500Y92450D01*
X251230Y92730D01*
X250950Y92860D01*
X250550Y93000D01*
X249860D01*
X249450Y92860D01*
X249180Y92730D01*
X248910Y92450D01*
X248770Y92180D01*
Y91640D01*
X248910Y91360D01*
X249180Y91090D01*
X249450Y90950D01*
X249860D01*
Y91640D02*
Y90950D01*
X251640Y90050D02*
X248770D01*
X251640D02*
X248770Y88150D01*
X251640D02*
X248770D01*
X251640Y87250D02*
X248770D01*
X251640D02*
Y86290D01*
X251500Y85880D01*
X251230Y85610D01*
X250950Y85470D01*
X250550Y85340D01*
X249860D01*
X249450Y85470D01*
X249180Y85610D01*
X248910Y85880D01*
X248770Y86290D01*
Y87250D01*
X130000Y94540D02*
Y90250D01*
Y94540D02*
X131840D01*
X132450Y94340D01*
X132660Y94130D01*
X132860Y93720D01*
Y93310D01*
X132660Y92900D01*
X132450Y92700D01*
X131840Y92500D01*
X130000D01*
X131430D02*
X132860Y90250D01*
X136670Y94540D02*
X134620D01*
X134420Y92700D01*
X134620Y92900D01*
X135240Y93110D01*
X135850D01*
X136460Y92900D01*
X136870Y92500D01*
X137080Y91880D01*
Y91470D01*
X136870Y90860D01*
X136460Y90450D01*
X135850Y90250D01*
X135240D01*
X134620Y90450D01*
X134420Y90650D01*
X134210Y91060D01*
X15000Y244540D02*
Y241470D01*
X15200Y240860D01*
X15610Y240450D01*
X16230Y240250D01*
X16640D01*
X17250Y240450D01*
X17660Y240860D01*
X17860Y241470D01*
Y244540D01*
X19210Y243720D02*
X19620Y243930D01*
X20240Y244540D01*
Y240250D01*
X179950Y292950D02*
X180230Y293090D01*
X180500Y293360D01*
X180640Y293640D01*
Y294180D01*
X180500Y294450D01*
X180230Y294730D01*
X179950Y294860D01*
X179550Y295000D01*
X178860D01*
X178450Y294860D01*
X178180Y294730D01*
X177910Y294450D01*
X177770Y294180D01*
Y293640D01*
X177910Y293360D01*
X178180Y293090D01*
X178450Y292950D01*
X180090Y292050D02*
X180230Y291780D01*
X180640Y291370D01*
X177770D01*
X180640Y288840D02*
Y290200D01*
X179410Y290340D01*
X179550Y290200D01*
X179680Y289790D01*
Y289380D01*
X179550Y288970D01*
X179270Y288700D01*
X178860Y288560D01*
X178590D01*
X178180Y288700D01*
X177910Y288970D01*
X177770Y289380D01*
Y289790D01*
X177910Y290200D01*
X178050Y290340D01*
X178320Y290470D01*
X169950Y292950D02*
X170230Y293090D01*
X170500Y293360D01*
X170640Y293640D01*
Y294180D01*
X170500Y294450D01*
X170230Y294730D01*
X169950Y294860D01*
X169550Y295000D01*
X168860D01*
X168450Y294860D01*
X168180Y294730D01*
X167910Y294450D01*
X167770Y294180D01*
Y293640D01*
X167910Y293360D01*
X168180Y293090D01*
X168450Y292950D01*
X170090Y292050D02*
X170230Y291780D01*
X170640Y291370D01*
X167770D01*
X170640Y289110D02*
X168730Y290470D01*
Y288430D01*
X170640Y289110D02*
X167770D01*
X159950Y292950D02*
X160230Y293090D01*
X160500Y293360D01*
X160640Y293640D01*
Y294180D01*
X160500Y294450D01*
X160230Y294730D01*
X159950Y294860D01*
X159550Y295000D01*
X158860D01*
X158450Y294860D01*
X158180Y294730D01*
X157910Y294450D01*
X157770Y294180D01*
Y293640D01*
X157910Y293360D01*
X158180Y293090D01*
X158450Y292950D01*
X160090Y292050D02*
X160230Y291780D01*
X160640Y291370D01*
X157770D01*
X160640Y290200D02*
Y288700D01*
X159550Y289520D01*
Y289110D01*
X159410Y288840D01*
X159270Y288700D01*
X158860Y288560D01*
X158590D01*
X158180Y288700D01*
X157910Y288970D01*
X157770Y289380D01*
Y289790D01*
X157910Y290200D01*
X158050Y290340D01*
X158320Y290470D01*
X149950Y292950D02*
X150230Y293090D01*
X150500Y293360D01*
X150640Y293640D01*
Y294180D01*
X150500Y294450D01*
X150230Y294730D01*
X149950Y294860D01*
X149550Y295000D01*
X148860D01*
X148450Y294860D01*
X148180Y294730D01*
X147910Y294450D01*
X147770Y294180D01*
Y293640D01*
X147910Y293360D01*
X148180Y293090D01*
X148450Y292950D01*
X150090Y292050D02*
X150230Y291780D01*
X150640Y291370D01*
X147770D01*
X149950Y290340D02*
X150090D01*
X150360Y290200D01*
X150500Y290060D01*
X150640Y289790D01*
Y289250D01*
X150500Y288970D01*
X150360Y288840D01*
X150090Y288700D01*
X149820D01*
X149550Y288840D01*
X149140Y289110D01*
X147770Y290470D01*
Y288560D01*
X139950Y292950D02*
X140230Y293090D01*
X140500Y293360D01*
X140640Y293640D01*
Y294180D01*
X140500Y294450D01*
X140230Y294730D01*
X139950Y294860D01*
X139550Y295000D01*
X138860D01*
X138450Y294860D01*
X138180Y294730D01*
X137910Y294450D01*
X137770Y294180D01*
Y293640D01*
X137910Y293360D01*
X138180Y293090D01*
X138450Y292950D01*
X140090Y292050D02*
X140230Y291780D01*
X140640Y291370D01*
X137770D01*
X140090Y290470D02*
X140230Y290200D01*
X140640Y289790D01*
X137770D01*
X129950Y292950D02*
X130230Y293090D01*
X130500Y293360D01*
X130640Y293640D01*
Y294180D01*
X130500Y294450D01*
X130230Y294730D01*
X129950Y294860D01*
X129550Y295000D01*
X128860D01*
X128450Y294860D01*
X128180Y294730D01*
X127910Y294450D01*
X127770Y294180D01*
Y293640D01*
X127910Y293360D01*
X128180Y293090D01*
X128450Y292950D01*
X130090Y292050D02*
X130230Y291780D01*
X130640Y291370D01*
X127770D01*
X130640Y289650D02*
X130500Y290060D01*
X130090Y290340D01*
X129410Y290470D01*
X129000D01*
X128320Y290340D01*
X127910Y290060D01*
X127770Y289650D01*
Y289380D01*
X127910Y288970D01*
X128320Y288700D01*
X129000Y288560D01*
X129410D01*
X130090Y288700D01*
X130500Y288970D01*
X130640Y289380D01*
Y289650D01*
X119950Y292950D02*
X120230Y293090D01*
X120500Y293360D01*
X120640Y293640D01*
Y294180D01*
X120500Y294450D01*
X120230Y294730D01*
X119950Y294860D01*
X119550Y295000D01*
X118860D01*
X118450Y294860D01*
X118180Y294730D01*
X117910Y294450D01*
X117770Y294180D01*
Y293640D01*
X117910Y293360D01*
X118180Y293090D01*
X118450Y292950D01*
X119680Y290280D02*
X119270Y290420D01*
X119000Y290690D01*
X118860Y291100D01*
Y291240D01*
X119000Y291650D01*
X119270Y291920D01*
X119680Y292050D01*
X119820D01*
X120230Y291920D01*
X120500Y291650D01*
X120640Y291240D01*
Y291100D01*
X120500Y290690D01*
X120230Y290420D01*
X119680Y290280D01*
X119000D01*
X118320Y290420D01*
X117910Y290690D01*
X117770Y291100D01*
Y291370D01*
X117910Y291780D01*
X118180Y291920D01*
X109950Y292950D02*
X110230Y293090D01*
X110500Y293360D01*
X110640Y293640D01*
Y294180D01*
X110500Y294450D01*
X110230Y294730D01*
X109950Y294860D01*
X109550Y295000D01*
X108860D01*
X108450Y294860D01*
X108180Y294730D01*
X107910Y294450D01*
X107770Y294180D01*
Y293640D01*
X107910Y293360D01*
X108180Y293090D01*
X108450Y292950D01*
X110640Y291370D02*
X110500Y291780D01*
X110230Y291920D01*
X109950D01*
X109680Y291780D01*
X109550Y291510D01*
X109410Y290960D01*
X109270Y290550D01*
X109000Y290280D01*
X108730Y290150D01*
X108320D01*
X108050Y290280D01*
X107910Y290420D01*
X107770Y290830D01*
Y291370D01*
X107910Y291780D01*
X108050Y291920D01*
X108320Y292050D01*
X108730D01*
X109000Y291920D01*
X109270Y291650D01*
X109410Y291240D01*
X109550Y290690D01*
X109680Y290420D01*
X109950Y290280D01*
X110230D01*
X110500Y290420D01*
X110640Y290830D01*
Y291370D01*
X99950Y292950D02*
X100230Y293090D01*
X100500Y293360D01*
X100640Y293640D01*
Y294180D01*
X100500Y294450D01*
X100230Y294730D01*
X99950Y294860D01*
X99550Y295000D01*
X98860D01*
X98450Y294860D01*
X98180Y294730D01*
X97910Y294450D01*
X97770Y294180D01*
Y293640D01*
X97910Y293360D01*
X98180Y293090D01*
X98450Y292950D01*
X100640Y290150D02*
X97770Y291510D01*
X100640Y292050D02*
Y290150D01*
X89950Y292950D02*
X90230Y293090D01*
X90500Y293360D01*
X90640Y293640D01*
Y294180D01*
X90500Y294450D01*
X90230Y294730D01*
X89950Y294860D01*
X89550Y295000D01*
X88860D01*
X88450Y294860D01*
X88180Y294730D01*
X87910Y294450D01*
X87770Y294180D01*
Y293640D01*
X87910Y293360D01*
X88180Y293090D01*
X88450Y292950D01*
X90230Y290420D02*
X90500Y290550D01*
X90640Y290960D01*
Y291240D01*
X90500Y291650D01*
X90090Y291920D01*
X89410Y292050D01*
X88730D01*
X88180Y291920D01*
X87910Y291650D01*
X87770Y291240D01*
Y291100D01*
X87910Y290690D01*
X88180Y290420D01*
X88590Y290280D01*
X88730D01*
X89140Y290420D01*
X89410Y290690D01*
X89550Y291100D01*
Y291240D01*
X89410Y291650D01*
X89140Y291920D01*
X88730Y292050D01*
X79950Y292950D02*
X80230Y293090D01*
X80500Y293360D01*
X80640Y293640D01*
Y294180D01*
X80500Y294450D01*
X80230Y294730D01*
X79950Y294860D01*
X79550Y295000D01*
X78860D01*
X78450Y294860D01*
X78180Y294730D01*
X77910Y294450D01*
X77770Y294180D01*
Y293640D01*
X77910Y293360D01*
X78180Y293090D01*
X78450Y292950D01*
X80640Y290420D02*
Y291780D01*
X79410Y291920D01*
X79550Y291780D01*
X79680Y291370D01*
Y290960D01*
X79550Y290550D01*
X79270Y290280D01*
X78860Y290150D01*
X78590D01*
X78180Y290280D01*
X77910Y290550D01*
X77770Y290960D01*
Y291370D01*
X77910Y291780D01*
X78050Y291920D01*
X78320Y292050D01*
X69950Y292950D02*
X70230Y293090D01*
X70500Y293360D01*
X70640Y293640D01*
Y294180D01*
X70500Y294450D01*
X70230Y294730D01*
X69950Y294860D01*
X69550Y295000D01*
X68860D01*
X68450Y294860D01*
X68180Y294730D01*
X67910Y294450D01*
X67770Y294180D01*
Y293640D01*
X67910Y293360D01*
X68180Y293090D01*
X68450Y292950D01*
X70640Y290690D02*
X68730Y292050D01*
Y290010D01*
X70640Y290690D02*
X67770D01*
X59950Y292950D02*
X60230Y293090D01*
X60500Y293360D01*
X60640Y293640D01*
Y294180D01*
X60500Y294450D01*
X60230Y294730D01*
X59950Y294860D01*
X59550Y295000D01*
X58860D01*
X58450Y294860D01*
X58180Y294730D01*
X57910Y294450D01*
X57770Y294180D01*
Y293640D01*
X57910Y293360D01*
X58180Y293090D01*
X58450Y292950D01*
X60640Y291780D02*
Y290280D01*
X59550Y291100D01*
Y290690D01*
X59410Y290420D01*
X59270Y290280D01*
X58860Y290150D01*
X58590D01*
X58180Y290280D01*
X57910Y290550D01*
X57770Y290960D01*
Y291370D01*
X57910Y291780D01*
X58050Y291920D01*
X58320Y292050D01*
X49950Y292950D02*
X50230Y293090D01*
X50500Y293360D01*
X50640Y293640D01*
Y294180D01*
X50500Y294450D01*
X50230Y294730D01*
X49950Y294860D01*
X49550Y295000D01*
X48860D01*
X48450Y294860D01*
X48180Y294730D01*
X47910Y294450D01*
X47770Y294180D01*
Y293640D01*
X47910Y293360D01*
X48180Y293090D01*
X48450Y292950D01*
X49950Y291920D02*
X50090D01*
X50360Y291780D01*
X50500Y291650D01*
X50640Y291370D01*
Y290830D01*
X50500Y290550D01*
X50360Y290420D01*
X50090Y290280D01*
X49820D01*
X49550Y290420D01*
X49140Y290690D01*
X47770Y292050D01*
Y290150D01*
X40950Y292950D02*
X41230Y293090D01*
X41500Y293360D01*
X41640Y293640D01*
Y294180D01*
X41500Y294450D01*
X41230Y294730D01*
X40950Y294860D01*
X40550Y295000D01*
X39860D01*
X39450Y294860D01*
X39180Y294730D01*
X38910Y294450D01*
X38770Y294180D01*
Y293640D01*
X38910Y293360D01*
X39180Y293090D01*
X39450Y292950D01*
X41090Y292050D02*
X41230Y291780D01*
X41640Y291370D01*
X38770D01*
X30950Y292950D02*
X31230Y293090D01*
X31500Y293360D01*
X31640Y293640D01*
Y294180D01*
X31500Y294450D01*
X31230Y294730D01*
X30950Y294860D01*
X30550Y295000D01*
X29860D01*
X29450Y294860D01*
X29180Y294730D01*
X28910Y294450D01*
X28770Y294180D01*
Y293640D01*
X28910Y293360D01*
X29180Y293090D01*
X29450Y292950D01*
X31640Y291240D02*
X31500Y291650D01*
X31090Y291920D01*
X30410Y292050D01*
X30000D01*
X29320Y291920D01*
X28910Y291650D01*
X28770Y291240D01*
Y290960D01*
X28910Y290550D01*
X29320Y290280D01*
X30000Y290150D01*
X30410D01*
X31090Y290280D01*
X31500Y290550D01*
X31640Y290960D01*
Y291240D01*
X141230Y249090D02*
X141500Y249360D01*
X141640Y249770D01*
Y250320D01*
X141500Y250730D01*
X141230Y251000D01*
X140950D01*
X140680Y250860D01*
X140550Y250730D01*
X140410Y250450D01*
X140140Y249640D01*
X140000Y249360D01*
X139860Y249230D01*
X139590Y249090D01*
X139180D01*
X138910Y249360D01*
X138770Y249770D01*
Y250320D01*
X138910Y250730D01*
X139180Y251000D01*
X141640Y248190D02*
X138770D01*
X140950Y245250D02*
X141230Y245380D01*
X141500Y245650D01*
X141640Y245930D01*
Y246470D01*
X141500Y246750D01*
X141230Y247020D01*
X140950Y247150D01*
X140550Y247290D01*
X139860D01*
X139450Y247150D01*
X139180Y247020D01*
X138910Y246750D01*
X138770Y246470D01*
Y245930D01*
X138910Y245650D01*
X139180Y245380D01*
X139450Y245250D01*
X139860D01*
Y245930D02*
Y245250D01*
X131230Y248090D02*
X131500Y248360D01*
X131640Y248770D01*
Y249320D01*
X131500Y249730D01*
X131230Y250000D01*
X130950D01*
X130680Y249860D01*
X130550Y249730D01*
X130410Y249450D01*
X130140Y248640D01*
X130000Y248360D01*
X129860Y248230D01*
X129590Y248090D01*
X129180D01*
X128910Y248360D01*
X128770Y248770D01*
Y249320D01*
X128910Y249730D01*
X129180Y250000D01*
X131640Y246920D02*
Y245420D01*
X130550Y246240D01*
Y245830D01*
X130410Y245550D01*
X130270Y245420D01*
X129860Y245280D01*
X129590D01*
X129180Y245420D01*
X128910Y245690D01*
X128770Y246100D01*
Y246510D01*
X128910Y246920D01*
X129050Y247050D01*
X129320Y247190D01*
X121230Y248090D02*
X121500Y248360D01*
X121640Y248770D01*
Y249320D01*
X121500Y249730D01*
X121230Y250000D01*
X120950D01*
X120680Y249860D01*
X120550Y249730D01*
X120410Y249450D01*
X120140Y248640D01*
X120000Y248360D01*
X119860Y248230D01*
X119590Y248090D01*
X119180D01*
X118910Y248360D01*
X118770Y248770D01*
Y249320D01*
X118910Y249730D01*
X119180Y250000D01*
X120950Y247050D02*
X121090D01*
X121360Y246920D01*
X121500Y246780D01*
X121640Y246510D01*
Y245960D01*
X121500Y245690D01*
X121360Y245550D01*
X121090Y245420D01*
X120820D01*
X120550Y245550D01*
X120140Y245830D01*
X118770Y247190D01*
Y245280D01*
X111230Y247090D02*
X111500Y247360D01*
X111640Y247770D01*
Y248320D01*
X111500Y248730D01*
X111230Y249000D01*
X110950D01*
X110680Y248860D01*
X110550Y248730D01*
X110410Y248450D01*
X110140Y247640D01*
X110000Y247360D01*
X109860Y247230D01*
X109590Y247090D01*
X109180D01*
X108910Y247360D01*
X108770Y247770D01*
Y248320D01*
X108910Y248730D01*
X109180Y249000D01*
X111090Y246190D02*
X111230Y245920D01*
X111640Y245510D01*
X108770D01*
X101230Y248090D02*
X101500Y248360D01*
X101640Y248770D01*
Y249320D01*
X101500Y249730D01*
X101230Y250000D01*
X100950D01*
X100680Y249860D01*
X100550Y249730D01*
X100410Y249450D01*
X100140Y248640D01*
X100000Y248360D01*
X99860Y248230D01*
X99590Y248090D01*
X99180D01*
X98910Y248360D01*
X98770Y248770D01*
Y249320D01*
X98910Y249730D01*
X99180Y250000D01*
X101640Y246370D02*
X101500Y246780D01*
X101090Y247050D01*
X100410Y247190D01*
X100000D01*
X99320Y247050D01*
X98910Y246780D01*
X98770Y246370D01*
Y246100D01*
X98910Y245690D01*
X99320Y245420D01*
X100000Y245280D01*
X100410D01*
X101090Y245420D01*
X101500Y245690D01*
X101640Y246100D01*
Y246370D01*
X91640Y250000D02*
X88770D01*
X91640D02*
Y248230D01*
X90270Y250000D02*
Y248910D01*
X88770Y250000D02*
Y248230D01*
X91640Y247330D02*
X88770D01*
X91640D02*
X88770Y245420D01*
X91640D02*
X88770D01*
X81640Y253000D02*
X78770Y251910D01*
X81640Y250820D02*
X78770Y251910D01*
X80950Y247870D02*
X81230Y248010D01*
X81500Y248280D01*
X81640Y248550D01*
Y249100D01*
X81500Y249370D01*
X81230Y249650D01*
X80950Y249780D01*
X80550Y249920D01*
X79860D01*
X79450Y249780D01*
X79180Y249650D01*
X78910Y249370D01*
X78770Y249100D01*
Y248550D01*
X78910Y248280D01*
X79180Y248010D01*
X79450Y247870D01*
X80950Y244930D02*
X81230Y245060D01*
X81500Y245340D01*
X81640Y245610D01*
Y246150D01*
X81500Y246430D01*
X81230Y246700D01*
X80950Y246840D01*
X80550Y246970D01*
X79860D01*
X79450Y246840D01*
X79180Y246700D01*
X78910Y246430D01*
X78770Y246150D01*
Y245610D01*
X78910Y245340D01*
X79180Y245060D01*
X79450Y244930D01*
X70950Y250950D02*
X71230Y251090D01*
X71500Y251360D01*
X71640Y251640D01*
Y252180D01*
X71500Y252450D01*
X71230Y252730D01*
X70950Y252860D01*
X70550Y253000D01*
X69860D01*
X69450Y252860D01*
X69180Y252730D01*
X68910Y252450D01*
X68770Y252180D01*
Y251640D01*
X68910Y251360D01*
X69180Y251090D01*
X69450Y250950D01*
X69860D01*
Y251640D02*
Y250950D01*
X71640Y250050D02*
X68770D01*
X71640D02*
X68770Y248150D01*
X71640D02*
X68770D01*
X71640Y247250D02*
X68770D01*
X71640D02*
Y246290D01*
X71500Y245880D01*
X71230Y245610D01*
X70950Y245470D01*
X70550Y245340D01*
X69860D01*
X69450Y245470D01*
X69180Y245610D01*
X68910Y245880D01*
X68770Y246290D01*
Y247250D01*
X30000Y254540D02*
Y250250D01*
Y254540D02*
X31430D01*
X32050Y254340D01*
X32450Y253930D01*
X32660Y253520D01*
X32860Y252900D01*
Y251880D01*
X32660Y251270D01*
X32450Y250860D01*
X32050Y250450D01*
X31430Y250250D01*
X30000D01*
X34210Y254540D02*
Y250250D01*
Y254540D02*
X36870D01*
X34210Y252500D02*
X35850D01*
X34210Y250250D02*
X36870D01*
X38220Y254540D02*
Y250250D01*
Y254540D02*
X41090Y250250D01*
Y254540D02*
Y250250D01*
X45500Y253520D02*
X45300Y253930D01*
X44890Y254340D01*
X44480Y254540D01*
X43660D01*
X43250Y254340D01*
X42850Y253930D01*
X42640Y253520D01*
X42440Y252900D01*
Y251880D01*
X42640Y251270D01*
X42850Y250860D01*
X43250Y250450D01*
X43660Y250250D01*
X44480D01*
X44890Y250450D01*
X45300Y250860D01*
X45500Y251270D01*
X46850Y253720D02*
X47260Y253930D01*
X47880Y254540D01*
Y250250D01*
G54D10*
X381200Y292733D02*
G01Y257300D01*
X375800Y287966D02*
Y262100D01*
X309010Y292800D02*
X381220D01*
X308900Y257367D02*
Y292800D01*
X314500Y262100D02*
Y287966D01*
X309000Y257300D02*
X381189D01*
X314534Y288000D02*
X375709D01*
X318600Y262500D02*
X321100Y265000D01*
X323800Y262300D01*
Y262200D01*
X337900Y265800D02*
Y257300D01*
X337800Y266100D02*
X352300D01*
Y257300D01*
X355500D01*
X314400Y262000D02*
X337800D01*
X352400D02*
X375800D01*
X81200Y132733D02*
Y97300D01*
X75800Y127966D02*
Y102100D01*
X9010Y132800D02*
X81220D01*
X8900Y97367D02*
Y132800D01*
X14500Y102100D02*
Y127966D01*
X9000Y97300D02*
X81189D01*
X14534Y128000D02*
X75709D01*
X18600Y102500D02*
X21100Y105000D01*
X23800Y102300D01*
Y102200D01*
X37900Y105800D02*
Y97300D01*
X37800Y106100D02*
X52300D01*
Y97300D01*
X55500D01*
X14400Y102000D02*
X37800D01*
X52400D02*
X75800D01*
X141200Y132733D02*
Y97300D01*
X135700Y127900D02*
Y102034D01*
X79010Y132800D02*
X141220D01*
X78900Y97367D02*
Y132800D01*
X84500Y102100D02*
Y127966D01*
X79000Y97300D02*
X141189D01*
X84534Y128000D02*
X135709D01*
X88200Y102100D02*
X91100Y105000D01*
X94000Y102100D01*
Y102000D01*
X105200Y106100D02*
Y97600D01*
Y106100D02*
X115600D01*
Y97300D01*
X125500D01*
X84700Y102000D02*
X84500D01*
X105000D01*
X105100Y102100D01*
X115600D02*
X115800Y102000D01*
X135500D01*
X135600Y102100D01*
X201200Y132733D02*
Y97300D01*
X195700Y127900D02*
Y102034D01*
X139010Y132800D02*
X201220D01*
X138900Y97367D02*
Y132800D01*
X144500Y102100D02*
Y127966D01*
X139000Y97300D02*
X201189D01*
X144534Y128000D02*
X195709D01*
X148200Y102100D02*
X151100Y105000D01*
X154000Y102100D01*
Y102000D01*
X165200Y106100D02*
Y97600D01*
Y106100D02*
X175600D01*
Y97300D01*
X185500D01*
X144700Y102000D02*
X144500D01*
X165000D01*
X165100Y102100D01*
X175600D02*
X175800Y102000D01*
X195500D01*
X195600Y102100D01*
X131200Y292733D02*
Y257300D01*
X125700Y287900D02*
Y262034D01*
X69010Y292800D02*
X131220D01*
X68900Y257367D02*
Y292800D01*
X74500Y262100D02*
Y287966D01*
X69000Y257300D02*
X131189D01*
X74534Y288000D02*
X125709D01*
X78200Y262100D02*
X81100Y265000D01*
X84000Y262100D01*
Y262000D01*
X95200Y266100D02*
Y257600D01*
Y266100D02*
X105600D01*
Y257300D01*
X115500D01*
X74700Y262000D02*
X74500D01*
X95000D01*
X95100Y262100D01*
X105600D02*
X105800Y262000D01*
X125500D01*
X125600Y262100D01*
X191200Y292733D02*
Y257300D01*
X185700Y287900D02*
Y262034D01*
X129010Y292800D02*
X191220D01*
X128900Y257367D02*
Y292800D01*
X134500Y262100D02*
Y287966D01*
X129000Y257300D02*
X191189D01*
X134534Y288000D02*
X185709D01*
X138200Y262100D02*
X141100Y265000D01*
X144000Y262100D01*
Y262000D01*
X155200Y266100D02*
Y257600D01*
Y266100D02*
X165600D01*
Y257300D01*
X175500D01*
X134700Y262000D02*
X134500D01*
X155000D01*
X155100Y262100D01*
X165600D02*
X165800Y262000D01*
X185500D01*
X185600Y262100D01*
X251200Y292733D02*
Y257300D01*
X245700Y287900D02*
Y262034D01*
X189010Y292800D02*
X251220D01*
X188900Y257367D02*
Y292800D01*
X194500Y262100D02*
Y287966D01*
X189000Y257300D02*
X251189D01*
X194534Y288000D02*
X245709D01*
X198200Y262100D02*
X201100Y265000D01*
X204000Y262100D01*
Y262000D01*
X215200Y266100D02*
Y257600D01*
Y266100D02*
X225600D01*
Y257300D01*
X235500D01*
X194700Y262000D02*
X194500D01*
X215000D01*
X215100Y262100D01*
X225600D02*
X225800Y262000D01*
X245500D01*
X245600Y262100D01*
X311200Y292733D02*
Y257300D01*
X305700Y287900D02*
Y262034D01*
X249010Y292800D02*
X311220D01*
X248900Y257367D02*
Y292800D01*
X254500Y262100D02*
Y287966D01*
X249000Y257300D02*
X311189D01*
X254534Y288000D02*
X305709D01*
X258200Y262100D02*
X261100Y265000D01*
X264000Y262100D01*
Y262000D01*
X275200Y266100D02*
Y257600D01*
Y266100D02*
X285600D01*
Y257300D01*
X295500D01*
X254700Y262000D02*
X254500D01*
X275000D01*
X275100Y262100D01*
X285600D02*
X285800Y262000D01*
X305500D01*
X305600Y262100D01*
X171200Y212733D02*
Y177300D01*
X165700Y207900D02*
Y182034D01*
X109010Y212800D02*
X171220D01*
X108900Y177367D02*
Y212800D01*
X114500Y182100D02*
Y207966D01*
X109000Y177300D02*
X171189D01*
X114534Y208000D02*
X165709D01*
X118200Y182100D02*
X121100Y185000D01*
X124000Y182100D01*
Y182000D01*
X135200Y186100D02*
Y177600D01*
Y186100D02*
X145600D01*
Y177300D01*
X155500D01*
X114700Y182000D02*
X114500D01*
X135000D01*
X135100Y182100D01*
X145600D02*
X145800Y182000D01*
X165500D01*
X165600Y182100D01*
X381200Y212733D02*
Y177300D01*
X375700Y207900D02*
Y182034D01*
X319010Y212800D02*
X381220D01*
X318900Y177367D02*
Y212800D01*
X324500Y182100D02*
Y207966D01*
X319000Y177300D02*
X381189D01*
X324534Y208000D02*
X375709D01*
X328200Y182100D02*
X331100Y185000D01*
X334000Y182100D01*
Y182000D01*
X345200Y186100D02*
Y177600D01*
Y186100D02*
X355600D01*
Y177300D01*
X365500D01*
X324700Y182000D02*
X324500D01*
X345000D01*
X345100Y182100D01*
X355600D02*
X355800Y182000D01*
X375500D01*
X375600Y182100D01*
X251200Y212733D02*
Y177300D01*
X245800Y207966D02*
Y182100D01*
X179010Y212800D02*
X251220D01*
X178900Y177367D02*
Y212800D01*
X184500Y182100D02*
Y207966D01*
X179000Y177300D02*
X251189D01*
X184534Y208000D02*
X245709D01*
X188600Y182500D02*
X191100Y185000D01*
X193800Y182300D01*
Y182200D01*
X207900Y185800D02*
Y177300D01*
X207800Y186100D02*
X222300D01*
Y177300D01*
X225500D01*
X184400Y182000D02*
X207800D01*
X222400D02*
X245800D01*
X321200Y212733D02*
Y177300D01*
X315800Y207966D02*
Y182100D01*
X249010Y212800D02*
X321220D01*
X248900Y177367D02*
Y212800D01*
X254500Y182100D02*
Y207966D01*
X249000Y177300D02*
X321189D01*
X254534Y208000D02*
X315709D01*
X258600Y182500D02*
X261100Y185000D01*
X263800Y182300D01*
Y182200D01*
X277900Y185800D02*
Y177300D01*
X277800Y186100D02*
X292300D01*
Y177300D01*
X295500D01*
X254400Y182000D02*
X277800D01*
X292400D02*
X315800D01*
G54D17*
X205000Y125000D02*
G01Y105000D01*
X365000D01*
Y125000D01*
X205000D01*
G54D10*
X246300Y92733D02*
G01Y57300D01*
X240700Y87966D02*
Y62100D01*
X144010Y92800D02*
X246220D01*
X143900Y57367D02*
Y92800D01*
X149500Y62100D02*
Y87966D01*
X144110Y57300D02*
X246299D01*
X149534Y88000D02*
X240709D01*
X153600Y62500D02*
X156100Y65000D01*
X158800Y62300D01*
Y62200D01*
X184800Y65900D02*
Y57400D01*
Y66100D02*
X205300D01*
Y57400D01*
X205400Y57300D01*
X149500Y62100D02*
X184700D01*
X184800Y62000D01*
X240700Y62100D02*
X205500D01*
X205400Y62200D01*
X111300Y212733D02*
Y177300D01*
X105700Y207966D02*
Y182100D01*
X9010Y212800D02*
X111220D01*
X8900Y177367D02*
Y212800D01*
X14500Y182100D02*
Y207966D01*
X9110Y177300D02*
X111299D01*
X14534Y208000D02*
X105709D01*
X18600Y182500D02*
X21100Y185000D01*
X23800Y182300D01*
Y182200D01*
X49800Y185900D02*
Y177400D01*
Y186100D02*
X70300D01*
Y177400D01*
X70400Y177300D01*
X14500Y182100D02*
X49700D01*
X49800Y182000D01*
X105700Y182100D02*
X70500D01*
X70400Y182200D01*
G54D18*
X25000Y145000D02*
G01Y75000D01*
X185000D01*
Y145000D01*
X25000D01*
G54D10*
X125000Y245000D02*
G01X95000D01*
Y255000D01*
X125000D01*
Y245000D01*
X305000Y245000D02*
X275000D01*
Y255000D01*
X305000D01*
Y245000D01*
X125000Y165000D02*
X95000D01*
Y175000D01*
X125000D01*
Y165000D01*
X305000D02*
X275000D01*
Y175000D01*
X305000D01*
Y165000D01*
Y85000D02*
X275000D01*
Y95000D01*
X305000D01*
Y85000D01*
G54D18*
X205000Y305000D02*
G01Y235000D01*
X365000D01*
Y305000D01*
X205000D01*
X25000Y225000D02*
Y155000D01*
X185000D01*
Y225000D01*
X25000D01*
X205000D02*
Y155000D01*
X365000D01*
Y225000D01*
X205000D01*
Y145000D02*
Y75000D01*
X365000D01*
Y145000D01*
X205000D01*
G54D10*
X125000Y85000D02*
G01X95000D01*
Y95000D01*
X125000D01*
Y85000D01*
G54D18*
X25000Y305000D02*
G01Y235000D01*
X185000D01*
Y305000D01*
X25000D01*
G54D10*
X71200Y292733D02*
G01Y257300D01*
X65700Y287900D02*
Y262034D01*
X9010Y292800D02*
X71220D01*
X8900Y257367D02*
Y292800D01*
X14500Y262100D02*
Y287966D01*
X9000Y257300D02*
X71189D01*
X14534Y288000D02*
X65709D01*
X18200Y262100D02*
X21100Y265000D01*
X24000Y262100D01*
Y262000D01*
X35200Y266100D02*
Y257600D01*
Y266100D02*
X45600D01*
Y257300D01*
X55500D01*
X14700Y262000D02*
X14500D01*
X35000D01*
X35100Y262100D01*
X45600D02*
X45800Y262000D01*
X65500D01*
X65600Y262100D01*
M02*
