%FSLAX25Y25*%
%MOIN*%
%ADD10C,0.01000000*%
%ADD11C,0.07086614*%
%ADD12R,0.0708661X0.0708661*%
%ADD13R,0.074X0.0708661*%
%ADD14C,0.09448819*%
%IPPOS*%
G75*
G36*
X73380Y1020D02*
G01X1420D01*
X1266Y1050D01*
X1138Y1138D01*
X1050Y1266D01*
X1020Y1420D01*
Y73380D01*
X1050Y73534D01*
X1138Y73662D01*
X1266Y73750D01*
X1420Y73780D01*
X73380D01*
X73534Y73750D01*
X73662Y73662D01*
X73750Y73534D01*
X73780Y73380D01*
Y1420D01*
X73750Y1266D01*
X73662Y1138D01*
X73534Y1050D01*
X73380Y1020D01*
G37*
%LPC*%
G36*
X4104Y3338D02*
X4354Y3310D01*
X5852D01*
Y5852D01*
X3310D01*
Y4354D01*
X3338Y4104D01*
X3414Y3890D01*
X3536Y3696D01*
X3696Y3536D01*
X3890Y3414D01*
X4104Y3338D01*
G37*
G36*
X9896Y5852D02*
Y3310D01*
X11394D01*
X11644Y3338D01*
X11858Y3414D01*
X12052Y3536D01*
X12212Y3696D01*
X12334Y3890D01*
X12410Y4104D01*
X12438Y4354D01*
Y5852D01*
X9896D01*
G37*
G36*
X26704Y4376D02*
X27272Y4304D01*
X27846D01*
X28414Y4376D01*
X28968Y4518D01*
X29502Y4730D01*
X30004Y5006D01*
X30468Y5342D01*
X30886Y5734D01*
X31250Y6176D01*
X31558Y6660D01*
X31802Y7178D01*
X31978Y7724D01*
X32086Y8286D01*
X32114Y8588D01*
X32304Y11314D01*
X32340Y11452D01*
X32420Y11570D01*
X43462Y22612D01*
X43664Y22856D01*
X43792Y23034D01*
X43924Y23108D01*
X44082Y23160D01*
X44600Y23404D01*
X45084Y23710D01*
X45528Y24078D01*
X45914Y24488D01*
X46254Y24956D01*
X46530Y25458D01*
X46740Y25992D01*
X46884Y26546D01*
X46956Y27116D01*
Y27688D01*
X46884Y28256D01*
X46740Y28812D01*
X46530Y29344D01*
X46254Y29846D01*
X45918Y30310D01*
X45524Y30728D01*
X45084Y31092D01*
X44600Y31400D01*
X44082Y31644D01*
X43536Y31820D01*
X42974Y31928D01*
X42402Y31964D01*
X41830Y31928D01*
X41266Y31820D01*
X40722Y31644D01*
X40204Y31400D01*
X39720Y31092D01*
X39278Y30728D01*
X38886Y30310D01*
X38550Y29846D01*
X38274Y29344D01*
X38062Y28812D01*
X37920Y28256D01*
X37848Y27688D01*
Y27116D01*
X37920Y26546D01*
X38062Y25992D01*
X38274Y25458D01*
X38550Y24956D01*
X38890Y24488D01*
X39278Y24076D01*
X39678Y23746D01*
X39780Y23616D01*
X39822Y23456D01*
X39796Y23292D01*
X39706Y23154D01*
X30270Y13720D01*
X30154Y13638D01*
X30016Y13604D01*
X27278Y13412D01*
X26704Y13340D01*
X26150Y13198D01*
X25616Y12986D01*
X25114Y12710D01*
X24650Y12374D01*
X24234Y11982D01*
X23868Y11540D01*
X23560Y11056D01*
X23316Y10538D01*
X23140Y9992D01*
X23032Y9430D01*
X22996Y8858D01*
X23032Y8286D01*
X23140Y7724D01*
X23316Y7178D01*
X23560Y6660D01*
X23868Y6176D01*
X24234Y5734D01*
X24650Y5342D01*
X25114Y5006D01*
X25616Y4730D01*
X26150Y4518D01*
X26704Y4376D01*
G37*
G36*
X49266Y6836D02*
Y4774D01*
X49688Y5006D01*
X50152Y5342D01*
X50570Y5734D01*
X50936Y6176D01*
X51242Y6660D01*
X51326Y6836D01*
X49266D01*
G37*
G36*
X44800Y5006D02*
X45222Y4774D01*
Y6836D01*
X43162D01*
X43246Y6660D01*
X43552Y6176D01*
X43918Y5734D01*
X44336Y5342D01*
X44800Y5006D01*
G37*
G36*
X3310Y11394D02*
Y9896D01*
X5852D01*
Y12438D01*
X4354D01*
X4104Y12410D01*
X3890Y12334D01*
X3696Y12212D01*
X3536Y12052D01*
X3414Y11858D01*
X3338Y11644D01*
X3310Y11394D01*
G37*
G36*
X9896Y12438D02*
Y9896D01*
X12438D01*
Y11394D01*
X12410Y11644D01*
X12334Y11858D01*
X12212Y12052D01*
X12052Y12212D01*
X11858Y12334D01*
X11644Y12410D01*
X11394Y12438D01*
X9896D01*
G37*
G36*
X49266Y12942D02*
Y10880D01*
X51326D01*
X51242Y11056D01*
X50936Y11540D01*
X50570Y11982D01*
X50152Y12374D01*
X49688Y12710D01*
X49266Y12942D01*
G37*
G36*
X43246Y11056D02*
X43162Y10880D01*
X45222D01*
Y12942D01*
X44800Y12710D01*
X44336Y12374D01*
X43918Y11982D01*
X43552Y11540D01*
X43246Y11056D01*
G37*
G36*
X7302Y13348D02*
X7874Y13312D01*
X8446Y13348D01*
X9008Y13454D01*
X9554Y13632D01*
X10072Y13876D01*
X10556Y14182D01*
X10998Y14548D01*
X11390Y14966D01*
X11726Y15430D01*
X12002Y15932D01*
X12214Y16464D01*
X12356Y17020D01*
X12428Y17588D01*
Y18160D01*
X12356Y18728D01*
X12214Y19284D01*
X12002Y19816D01*
X11726Y20318D01*
X11390Y20782D01*
X10998Y21200D01*
X10556Y21566D01*
X10072Y21872D01*
X9554Y22116D01*
X9008Y22294D01*
X8446Y22400D01*
X7874Y22436D01*
X7302Y22400D01*
X6740Y22294D01*
X6194Y22116D01*
X5676Y21872D01*
X5192Y21566D01*
X4750Y21200D01*
X4358Y20782D01*
X4022Y20318D01*
X3746Y19816D01*
X3534Y19284D01*
X3392Y18728D01*
X3320Y18160D01*
Y17588D01*
X3392Y17020D01*
X3534Y16464D01*
X3746Y15932D01*
X4022Y15430D01*
X4358Y14966D01*
X4750Y14548D01*
X5192Y14182D01*
X5676Y13876D01*
X6194Y13632D01*
X6740Y13454D01*
X7302Y13348D01*
G37*
G36*
X31830Y22876D02*
X32402Y22840D01*
X32974Y22876D01*
X33536Y22982D01*
X34082Y23160D01*
X34600Y23404D01*
X35084Y23710D01*
X35524Y24076D01*
X35918Y24494D01*
X36254Y24956D01*
X36530Y25458D01*
X36740Y25992D01*
X36884Y26546D01*
X36956Y27116D01*
Y27688D01*
X36884Y28256D01*
X36740Y28812D01*
X36530Y29344D01*
X36254Y29846D01*
X35918Y30310D01*
X35524Y30728D01*
X35084Y31092D01*
X34600Y31400D01*
X34082Y31644D01*
X33536Y31820D01*
X32974Y31928D01*
X32402Y31964D01*
X31830Y31928D01*
X31266Y31820D01*
X30722Y31644D01*
X30204Y31400D01*
X29720Y31092D01*
X29278Y30728D01*
X28886Y30310D01*
X28550Y29846D01*
X28274Y29344D01*
X28062Y28812D01*
X27920Y28256D01*
X27848Y27688D01*
Y27116D01*
X27920Y26546D01*
X28062Y25992D01*
X28274Y25458D01*
X28550Y24956D01*
X28886Y24494D01*
X29278Y24076D01*
X29720Y23710D01*
X30204Y23404D01*
X30722Y23160D01*
X31266Y22982D01*
X31830Y22876D01*
G37*
G36*
X55998Y29192D02*
X56442Y28946D01*
Y32624D01*
X53500D01*
X53634Y32158D01*
X53880Y31562D01*
X54192Y31000D01*
X54564Y30474D01*
X54994Y29994D01*
X55474Y29564D01*
X55998Y29192D01*
G37*
G36*
X12692Y29192D02*
X13136Y28946D01*
Y32624D01*
X10192D01*
X10326Y32158D01*
X10574Y31562D01*
X10886Y31000D01*
X11258Y30474D01*
X11686Y29994D01*
X12168Y29564D01*
X12692Y29192D01*
G37*
G36*
X18360Y32624D02*
Y28946D01*
X18804Y29192D01*
X19330Y29564D01*
X19810Y29994D01*
X20240Y30474D01*
X20612Y31000D01*
X20924Y31562D01*
X21170Y32158D01*
X21304Y32624D01*
X18360D01*
G37*
G36*
X61668Y32624D02*
Y28946D01*
X62110Y29192D01*
X62636Y29564D01*
X63116Y29994D01*
X63546Y30474D01*
X63918Y31000D01*
X64230Y31562D01*
X64476Y32158D01*
X64610Y32624D01*
X61668D01*
G37*
G36*
X41830Y32876D02*
X42402Y32840D01*
X42974Y32876D01*
X43536Y32982D01*
X44082Y33160D01*
X44600Y33404D01*
X45084Y33710D01*
X45524Y34076D01*
X45918Y34494D01*
X46254Y34956D01*
X46530Y35458D01*
X46740Y35992D01*
X46884Y36546D01*
X46956Y37138D01*
X47146Y39858D01*
X47182Y39996D01*
X47262Y40114D01*
X48304Y41156D01*
X48506Y41402D01*
X48646Y41664D01*
X48732Y41948D01*
X48764Y42264D01*
Y60590D01*
X48790Y60730D01*
X48862Y60852D01*
X50660Y62918D01*
X50734Y63020D01*
X50936Y63262D01*
X51242Y63746D01*
X51486Y64266D01*
X51664Y64810D01*
X51770Y65372D01*
X51806Y65944D01*
X51770Y66516D01*
X51664Y67080D01*
X51486Y67624D01*
X51242Y68142D01*
X50936Y68626D01*
X50570Y69068D01*
X50152Y69460D01*
X49688Y69796D01*
X49186Y70072D01*
X48654Y70284D01*
X48100Y70426D01*
X47530Y70498D01*
X46958D01*
X46390Y70426D01*
X45834Y70284D01*
X45302Y70072D01*
X44800Y69796D01*
X44336Y69460D01*
X43918Y69068D01*
X43552Y68626D01*
X43246Y68142D01*
X43002Y67624D01*
X42824Y67080D01*
X42718Y66516D01*
X42682Y65946D01*
X42720Y65358D01*
X42824Y64810D01*
X43002Y64266D01*
X43246Y63746D01*
X43552Y63262D01*
X43832Y62916D01*
X45626Y60852D01*
X45698Y60730D01*
X45724Y60590D01*
Y52364D01*
X45694Y52212D01*
X45606Y52082D01*
X45478Y51996D01*
X45324Y51964D01*
X44502D01*
Y49424D01*
X45324D01*
X45478Y49392D01*
X45606Y49306D01*
X45694Y49176D01*
X45724Y49024D01*
Y45780D01*
X45694Y45626D01*
X45606Y45498D01*
X45478Y45410D01*
X45324Y45380D01*
X44502D01*
Y42496D01*
X44474Y42350D01*
X44394Y42222D01*
X44274Y42134D01*
X44130Y42096D01*
X42114Y41956D01*
X41836Y41930D01*
X41266Y41820D01*
X40722Y41644D01*
X40204Y41400D01*
X39720Y41092D01*
X39278Y40728D01*
X38886Y40310D01*
X38550Y39846D01*
X38274Y39344D01*
X38062Y38812D01*
X37920Y38256D01*
X37848Y37688D01*
Y37116D01*
X37920Y36546D01*
X38062Y35992D01*
X38274Y35458D01*
X38550Y34956D01*
X38886Y34494D01*
X39278Y34076D01*
X39720Y33710D01*
X40204Y33404D01*
X40722Y33160D01*
X41266Y32982D01*
X41830Y32876D01*
G37*
G36*
X31830Y32876D02*
X32402Y32840D01*
X32974Y32876D01*
X33536Y32982D01*
X34082Y33160D01*
X34600Y33404D01*
X35084Y33710D01*
X35524Y34076D01*
X35918Y34494D01*
X36254Y34956D01*
X36530Y35458D01*
X36740Y35992D01*
X36884Y36546D01*
X36956Y37116D01*
Y37688D01*
X36884Y38256D01*
X36740Y38812D01*
X36530Y39344D01*
X36254Y39846D01*
X35918Y40310D01*
X35524Y40728D01*
X35084Y41092D01*
X34600Y41400D01*
X34082Y41644D01*
X33536Y41820D01*
X32974Y41928D01*
X32672Y41958D01*
X29944Y42148D01*
X29806Y42182D01*
X29688Y42264D01*
X29196Y42756D01*
X29108Y42890D01*
X29080Y43046D01*
X29084Y43392D01*
X29122Y43556D01*
X29224Y43690D01*
X29372Y43770D01*
X29540Y43782D01*
X29698Y43724D01*
X30204Y43404D01*
X30380Y43320D01*
Y45380D01*
X29480D01*
X29326Y45410D01*
X29196Y45498D01*
X29110Y45626D01*
X29080Y45780D01*
Y49024D01*
X29110Y49176D01*
X29196Y49306D01*
X29326Y49392D01*
X29480Y49424D01*
X30380D01*
Y51482D01*
X30204Y51400D01*
X29694Y51076D01*
X29534Y51016D01*
X29366Y51030D01*
X29216Y51110D01*
X29116Y51246D01*
X29080Y51412D01*
Y60590D01*
X29104Y60730D01*
X29178Y60852D01*
X30974Y62918D01*
X31250Y63262D01*
X31558Y63746D01*
X31802Y64266D01*
X31978Y64810D01*
X32086Y65372D01*
X32122Y65944D01*
X32082Y66532D01*
X31978Y67080D01*
X31802Y67624D01*
X31558Y68142D01*
X31250Y68626D01*
X30886Y69068D01*
X30468Y69460D01*
X30004Y69796D01*
X29502Y70072D01*
X28968Y70284D01*
X28414Y70426D01*
X27846Y70498D01*
X27272D01*
X26704Y70426D01*
X26150Y70284D01*
X25616Y70072D01*
X25114Y69796D01*
X24650Y69460D01*
X24234Y69068D01*
X23868Y68626D01*
X23560Y68142D01*
X23316Y67624D01*
X23140Y67080D01*
X23032Y66516D01*
X22996Y65944D01*
X23032Y65372D01*
X23140Y64810D01*
X23316Y64266D01*
X23560Y63746D01*
X23868Y63262D01*
X24146Y62916D01*
X25940Y60852D01*
X26014Y60730D01*
X26040Y60590D01*
Y42264D01*
X26070Y41948D01*
X26156Y41664D01*
X26296Y41400D01*
X26498Y41156D01*
X27540Y40114D01*
X27620Y39996D01*
X27656Y39858D01*
X27846Y37122D01*
X27920Y36548D01*
X28062Y35992D01*
X28274Y35458D01*
X28550Y34956D01*
X28886Y34494D01*
X29278Y34076D01*
X29720Y33710D01*
X30204Y33404D01*
X30722Y33160D01*
X31266Y32982D01*
X31830Y32876D01*
G37*
G36*
X61668Y43888D02*
Y40210D01*
X64610D01*
X64476Y40676D01*
X64230Y41272D01*
X63918Y41836D01*
X63546Y42360D01*
X63116Y42840D01*
X62636Y43270D01*
X62110Y43642D01*
X61668Y43888D01*
G37*
G36*
X18360Y43888D02*
Y40210D01*
X21304D01*
X21170Y40676D01*
X20924Y41272D01*
X20612Y41836D01*
X20240Y42360D01*
X19810Y42840D01*
X19330Y43270D01*
X18804Y43642D01*
X18360Y43888D01*
G37*
G36*
X53634Y40676D02*
X53500Y40210D01*
X56442D01*
Y43888D01*
X55998Y43642D01*
X55474Y43270D01*
X54994Y42840D01*
X54564Y42360D01*
X54192Y41836D01*
X53880Y41272D01*
X53634Y40676D01*
G37*
G36*
X10326Y40676D02*
X10192Y40210D01*
X13136D01*
Y43888D01*
X12692Y43642D01*
X12168Y43270D01*
X11686Y42840D01*
X11258Y42360D01*
X10886Y41836D01*
X10574Y41272D01*
X10326Y40676D01*
G37*
G36*
X38476Y42866D02*
X38724Y42838D01*
X40302D01*
Y45380D01*
X37682D01*
Y43880D01*
X37710Y43632D01*
X37784Y43416D01*
X37906Y43224D01*
X38068Y43062D01*
X38260Y42942D01*
X38476Y42866D01*
G37*
G36*
X34424Y45380D02*
Y43320D01*
X34600Y43404D01*
X35084Y43710D01*
X35524Y44076D01*
X35918Y44494D01*
X36254Y44956D01*
X36486Y45380D01*
X34424D01*
G37*
G36*
X34424Y51482D02*
Y49424D01*
X36486D01*
X36254Y49846D01*
X35918Y50310D01*
X35524Y50728D01*
X35084Y51092D01*
X34600Y51400D01*
X34424Y51482D01*
G37*
G36*
X37682Y50922D02*
Y49424D01*
X40302D01*
Y51964D01*
X38724D01*
X38476Y51936D01*
X38260Y51862D01*
X38068Y51740D01*
X37906Y51580D01*
X37784Y51386D01*
X37710Y51172D01*
X37682Y50922D01*
G37*
G36*
X39424Y63924D02*
Y61860D01*
X39846Y62092D01*
X40310Y62430D01*
X40728Y62822D01*
X41092Y63262D01*
X41400Y63746D01*
X41482Y63924D01*
X39424D01*
G37*
G36*
X34956Y62092D02*
X35380Y61860D01*
Y63924D01*
X33320D01*
X33404Y63746D01*
X33710Y63262D01*
X34076Y62822D01*
X34494Y62430D01*
X34956Y62092D01*
G37*
G36*
X39424Y70030D02*
Y67966D01*
X41482D01*
X41400Y68142D01*
X41092Y68626D01*
X40728Y69068D01*
X40310Y69460D01*
X39846Y69796D01*
X39424Y70030D01*
G37*
G36*
X33404Y68142D02*
X33320Y67966D01*
X35380D01*
Y70030D01*
X34956Y69796D01*
X34494Y69460D01*
X34076Y69068D01*
X33710Y68626D01*
X33404Y68142D01*
G37*
%LPD*%
G36*
X45058Y25058D02*
X39744D01*
X41900Y23700D01*
X42900D01*
X45058Y25058D01*
G37*
G36*
X46166Y40460D02*
X45458Y41166D01*
X42178Y40938D01*
X45938Y37180D01*
X46166Y40460D01*
G37*
G36*
X32622Y40938D02*
X29344Y41166D01*
X28636Y40460D01*
X28864Y37180D01*
X32622Y40938D01*
G37*
G36*
X31324Y11916D02*
X30616Y12622D01*
X27338Y12394D01*
X31096Y8636D01*
X31324Y11916D01*
G37*
G36*
X30216Y63602D02*
X24902D01*
X27060Y61122D01*
X28060D01*
X30216Y63602D01*
G37*
G36*
X49902Y63602D02*
X44586D01*
X46744Y61122D01*
X47744D01*
X49902Y63602D01*
G37*
G54D10*
X42401Y27402D02*
G01Y23700D01*
X27559Y8858D01*
X32401Y37402D02*
X27559Y42244D01*
Y65945D01*
X42401Y37402D02*
X47244Y42245D01*
Y65945D01*
G54D11*
X7874Y17874D03*
G54D12*
Y7874D03*
G54D11*
X32401Y47402D03*
Y27402D03*
Y37402D03*
G54D13*
X42402Y47402D03*
G54D11*
X42401Y37402D03*
Y27402D03*
X47244Y65945D03*
X27559D03*
X37402D03*
X27559Y8858D03*
X47244D03*
G54D14*
X15748Y34055D02*
G01Y38779D01*
X59055Y34055D02*
Y38779D01*
M02*
