%FSLAX25Y25*%
%MOIN*%
%ADD10C,0.01000000*%
%ADD15C,0.00393701*%
%ADD16C,0.00600000*%
%IPPOS*%
G75*
G54D15*
X67783Y6621D02*
G01X67433Y6441D01*
X67073Y6081D01*
X66893Y5731D01*
Y5011D01*
X67073Y4651D01*
X67433Y4291D01*
X67783Y4121D01*
X68323Y3941D01*
X69223D01*
X69753Y4121D01*
X70113Y4291D01*
X70473Y4651D01*
X70653Y5011D01*
Y5731D01*
X70473Y6081D01*
X70113Y6441D01*
X69753Y6621D01*
X69223D01*
Y5731D02*
Y6621D01*
X67613Y7801D02*
X67433Y8161D01*
X66893Y8701D01*
X70653D01*
X66893Y10951D02*
X67073Y10411D01*
X67613Y10061D01*
X68503Y9881D01*
X69043D01*
X69933Y10061D01*
X70473Y10411D01*
X70653Y10951D01*
Y11311D01*
X70473Y11851D01*
X69933Y12201D01*
X69043Y12381D01*
X68503D01*
X67613Y12201D01*
X67073Y11851D01*
X66893Y11311D01*
Y10951D01*
Y14641D02*
X67073Y14101D01*
X67613Y13741D01*
X68503Y13561D01*
X69043D01*
X69933Y13741D01*
X70473Y14101D01*
X70653Y14641D01*
Y15001D01*
X70473Y15531D01*
X69933Y15891D01*
X69043Y16071D01*
X68503D01*
X67613Y15891D01*
X67073Y15531D01*
X66893Y15001D01*
Y14641D01*
Y18321D02*
X67073Y17791D01*
X67613Y17431D01*
X68503Y17251D01*
X69043D01*
X69933Y17431D01*
X70473Y17791D01*
X70653Y18321D01*
Y18681D01*
X70473Y19221D01*
X69933Y19581D01*
X69043Y19761D01*
X68503D01*
X67613Y19581D01*
X67073Y19221D01*
X66893Y18681D01*
Y18321D01*
Y23691D02*
X70653D01*
X66893D02*
Y26021D01*
X68683Y23691D02*
Y25121D01*
X70653Y23691D02*
Y26021D01*
X66893Y27201D02*
X70653D01*
X66893D02*
X70653Y29711D01*
X66893D02*
X70653D01*
X67783Y33571D02*
X67433Y33391D01*
X67073Y33031D01*
X66893Y32681D01*
Y31961D01*
X67073Y31601D01*
X67433Y31241D01*
X67783Y31071D01*
X68323Y30891D01*
X69223D01*
X69753Y31071D01*
X70113Y31241D01*
X70473Y31601D01*
X70653Y31961D01*
Y32681D01*
X70473Y33031D01*
X70113Y33391D01*
X69753Y33571D01*
X66893Y37511D02*
X70653Y38941D01*
X66893Y40371D02*
X70653Y38941D01*
X67613Y41551D02*
X67433Y41911D01*
X66893Y42451D01*
X70653D01*
X66173Y47641D02*
X66533Y47281D01*
X67073Y46921D01*
X67783Y46561D01*
X68683Y46381D01*
X69403D01*
X70293Y46561D01*
X71013Y46921D01*
X71543Y47281D01*
X71903Y47641D01*
X68683Y50971D02*
X68323Y50611D01*
X68143Y50251D01*
Y49711D01*
X68323Y49351D01*
X68683Y49001D01*
X69223Y48821D01*
X69573D01*
X70113Y49001D01*
X70473Y49351D01*
X70653Y49711D01*
Y50251D01*
X70473Y50611D01*
X70113Y50971D01*
X66173Y52151D02*
X66533Y52501D01*
X67073Y52861D01*
X67783Y53221D01*
X68683Y53401D01*
X69403D01*
X70293Y53221D01*
X71013Y52861D01*
X71543Y52501D01*
X71903Y52151D01*
X68143Y57341D02*
X70653D01*
X68863D02*
X68323Y57871D01*
X68143Y58231D01*
Y58771D01*
X68323Y59131D01*
X68863Y59301D01*
X70653D01*
X68863D02*
X68323Y59841D01*
X68143Y60201D01*
Y60741D01*
X68323Y61091D01*
X68863Y61271D01*
X70653D01*
X68143Y62451D02*
X70653D01*
X69223D02*
X68683Y62631D01*
X68323Y62991D01*
X68143Y63351D01*
Y63891D01*
Y65071D02*
X69933D01*
X70473Y65251D01*
X70653Y65601D01*
Y66141D01*
X70473Y66501D01*
X69933Y67041D01*
X68143D02*
X70653D01*
X68683Y70191D02*
X68323Y70011D01*
X68143Y69471D01*
Y68931D01*
X68323Y68401D01*
X68683Y68221D01*
X69043Y68401D01*
X69223Y68751D01*
X69403Y69651D01*
X69573Y70011D01*
X69933Y70191D01*
X70113D01*
X70473Y70011D01*
X70653Y69471D01*
Y68931D01*
X70473Y68401D01*
X70113Y68221D01*
X66893Y71371D02*
X70653D01*
X68143Y73161D02*
X69933Y71371D01*
X69223Y72081D02*
X70653Y73331D01*
G54D16*
X10734Y66922D02*
G01X10324Y67332D01*
X9714Y67532D01*
X8894D01*
X8284Y67332D01*
X7874Y66922D01*
Y66512D01*
X8074Y66102D01*
X8284Y65892D01*
X8694Y65692D01*
X9924Y65282D01*
X10324Y65082D01*
X10534Y64872D01*
X10734Y64462D01*
Y63852D01*
X10324Y63442D01*
X9714Y63242D01*
X8894D01*
X8284Y63442D01*
X7874Y63852D01*
X12084Y67532D02*
X13114Y63242D01*
X14134Y67532D02*
X13114Y63242D01*
X14134Y67532D02*
X15154Y63242D01*
X16174Y67532D02*
X15154Y63242D01*
X17524Y66712D02*
X17934Y66922D01*
X18554Y67532D01*
Y63242D01*
G54D10*
X60236Y29142D02*
G01Y8858D01*
Y60039D02*
Y43692D01*
X52091Y8858D02*
X60236D01*
X32406D02*
X42397D01*
X14173D02*
X22712D01*
X14173Y29385D02*
Y8858D01*
Y60039D02*
Y43449D01*
X60236Y60039D02*
X14173D01*
X40743Y36417D02*
G03I-03735J0D01*
X47402D02*
G03I-10394J0D01*
M02*
