%FSLAX25Y25*%
%MOIN*%
%ADD10C,0.00000394*%
%IPPOS*%
G75*
G36*
X14270Y2982D02*
G01X12952D01*
X12560Y2588D01*
Y-02470D01*
X12952Y-02864D01*
X18544D01*
X18936Y-02470D01*
Y2588D01*
X18544Y2982D01*
X17226D01*
X16832Y2588D01*
Y1388D01*
X16438Y994D01*
X15058D01*
X14664Y1388D01*
Y2588D01*
X14270Y2982D01*
G37*
G36*
X18544Y14734D02*
X12952D01*
X12560Y14340D01*
Y9282D01*
X12952Y8888D01*
X14270D01*
X14664Y9282D01*
Y10482D01*
X15058Y10876D01*
X16438D01*
X16832Y10482D01*
Y9282D01*
X17226Y8888D01*
X18544D01*
X18936Y9282D01*
Y14340D01*
X18544Y14734D01*
G37*
G36*
X8860Y14020D02*
X2950D01*
X2558Y13628D01*
Y9660D01*
X2950Y9266D01*
X4374D01*
X4766Y9660D01*
Y10490D01*
X5160Y10884D01*
X6650D01*
X7044Y10490D01*
Y9660D01*
X7438Y9266D01*
X8860D01*
X9254Y9660D01*
Y13628D01*
X8860Y14020D01*
G37*
G36*
X4374Y2378D02*
X2950D01*
X2558Y1984D01*
Y-01984D01*
X2950Y-02376D01*
X8860D01*
X9254Y-01984D01*
Y1984D01*
X8860Y2378D01*
X7438D01*
X7044Y1984D01*
Y1154D01*
X6650Y760D01*
X5160D01*
X4766Y1154D01*
Y1984D01*
X4374Y2378D01*
G37*
M02*
