%FSLAX25Y25*%
%MOIN*%
%ADD10C,0.00393701*%
%ADD11C,0.00600000*%
%ADD12C,0.01000000*%
%IPPOS*%
G75*
G54D10*
X57949Y-16997D02*
G01X57589Y-17177D01*
X57229Y-17537D01*
X57049Y-17897D01*
Y-18607D01*
X57229Y-18967D01*
X57589Y-19327D01*
X57949Y-19507D01*
X58479Y-19687D01*
X59379D01*
X59919Y-19507D01*
X60269Y-19327D01*
X60629Y-18967D01*
X60809Y-18607D01*
Y-17897D01*
X60629Y-17537D01*
X60269Y-17177D01*
X59919Y-16997D01*
X59379D01*
Y-17897D02*
Y-16997D01*
X57769Y-15817D02*
X57589Y-15457D01*
X57049Y-14927D01*
X60809D01*
X57049Y-12667D02*
X57229Y-13207D01*
X57769Y-13567D01*
X58659Y-13747D01*
X59199D01*
X60089Y-13567D01*
X60629Y-13207D01*
X60809Y-12667D01*
Y-12307D01*
X60629Y-11777D01*
X60089Y-11417D01*
X59199Y-11237D01*
X58659D01*
X57769Y-11417D01*
X57229Y-11777D01*
X57049Y-12307D01*
Y-12667D01*
Y-08987D02*
X57229Y-09517D01*
X57769Y-09877D01*
X58659Y-10057D01*
X59199D01*
X60089Y-09877D01*
X60629Y-09517D01*
X60809Y-08987D01*
Y-08627D01*
X60629Y-08087D01*
X60089Y-07727D01*
X59199Y-07547D01*
X58659D01*
X57769Y-07727D01*
X57229Y-08087D01*
X57049Y-08627D01*
Y-08987D01*
Y-05297D02*
X57229Y-05837D01*
X57769Y-06187D01*
X58659Y-06367D01*
X59199D01*
X60089Y-06187D01*
X60629Y-05837D01*
X60809Y-05297D01*
Y-04937D01*
X60629Y-04407D01*
X60089Y-04047D01*
X59199Y-03867D01*
X58659D01*
X57769Y-04047D01*
X57229Y-04407D01*
X57049Y-04937D01*
Y-05297D01*
Y73D02*
X60809D01*
X57049D02*
Y2403D01*
X58839Y73D02*
Y1503D01*
X57049Y3583D02*
X60809D01*
X57049D02*
Y5903D01*
X58839Y3583D02*
Y5013D01*
X57049Y9843D02*
X60809Y11273D01*
X57049Y12703D02*
X60809Y11273D01*
X57769Y13883D02*
X57589Y14243D01*
X57049Y14783D01*
X60809D01*
X60276Y-06625D02*
X60626Y-06975D01*
X61166Y-07335D01*
X61886Y-07695D01*
X62776Y-07875D01*
X63496D01*
X64386Y-07695D01*
X65106Y-07335D01*
X65646Y-06975D01*
X65996Y-06625D01*
X62776Y-03295D02*
X62416Y-03655D01*
X62236Y-04005D01*
Y-04545D01*
X62416Y-04905D01*
X62776Y-05265D01*
X63316Y-05445D01*
X63676D01*
X64206Y-05265D01*
X64566Y-04905D01*
X64746Y-04545D01*
Y-04005D01*
X64566Y-03655D01*
X64206Y-03295D01*
X60276Y-02115D02*
X60626Y-01755D01*
X61166Y-01395D01*
X61886Y-01035D01*
X62776Y-00855D01*
X63496D01*
X64386Y-01035D01*
X65106Y-01395D01*
X65646Y-01755D01*
X65996Y-02115D01*
X62236Y3075D02*
X64746D01*
X62956D02*
X62416Y3615D01*
X62236Y3975D01*
Y4505D01*
X62416Y4865D01*
X62956Y5045D01*
X64746D01*
X62956D02*
X62416Y5585D01*
X62236Y5945D01*
Y6475D01*
X62416Y6835D01*
X62956Y7015D01*
X64746D01*
X62236Y8195D02*
X64746D01*
X63316D02*
X62776Y8375D01*
X62416Y8735D01*
X62236Y9095D01*
Y9625D01*
Y10805D02*
X64026D01*
X64566Y10985D01*
X64746Y11345D01*
Y11885D01*
X64566Y12245D01*
X64026Y12775D01*
X62236D02*
X64746D01*
X62776Y15925D02*
X62416Y15745D01*
X62236Y15215D01*
Y14675D01*
X62416Y14135D01*
X62776Y13955D01*
X63136Y14135D01*
X63316Y14495D01*
X63496Y15385D01*
X63676Y15745D01*
X64026Y15925D01*
X64206D01*
X64566Y15745D01*
X64746Y15215D01*
Y14675D01*
X64566Y14135D01*
X64206Y13955D01*
X60986Y17105D02*
X64746D01*
X62236Y18895D02*
X64026Y17105D01*
X63316Y17825D02*
X64746Y19075D01*
G54D11*
X17113Y-17716D02*
G01X21403D01*
Y-15266D01*
X17113Y-13916D02*
X21403D01*
X17113D02*
Y-11256D01*
X19153Y-13916D02*
Y-12276D01*
X21403Y-13916D02*
Y-11256D01*
X17113Y-09906D02*
X21403D01*
X17113D02*
Y-08466D01*
X17313Y-07856D01*
X17723Y-07446D01*
X18133Y-07246D01*
X18753Y-07036D01*
X19773D01*
X20383Y-07246D01*
X20793Y-07446D01*
X21203Y-07856D01*
X21403Y-08466D01*
Y-09906D01*
X17933Y-05686D02*
X17723Y-05276D01*
X17113Y-04666D01*
X21403D01*
X3333Y15748D02*
X7623D01*
X3333D02*
Y17588D01*
X3533Y18198D01*
X3743Y18408D01*
X4153Y18608D01*
X4563D01*
X4973Y18408D01*
X5173Y18198D01*
X5373Y17588D01*
Y15748D01*
Y17178D02*
X7623Y18608D01*
X4153Y19958D02*
X3943Y20368D01*
X3333Y20988D01*
X7623D01*
X36325Y1961D02*
X35915Y2371D01*
X35305Y2571D01*
X34485D01*
X33875Y2371D01*
X33465Y1961D01*
Y1551D01*
X33665Y1141D01*
X33875Y931D01*
X34285Y731D01*
X35515Y321D01*
X35915Y121D01*
X36125Y-00088D01*
X36325Y-00498D01*
Y-01108D01*
X35915Y-01518D01*
X35305Y-01718D01*
X34485D01*
X33875Y-01518D01*
X33465Y-01108D01*
X37675Y2571D02*
X38705Y-01718D01*
X39725Y2571D02*
X38705Y-01718D01*
X39725Y2571D02*
X40745Y-01718D01*
X41765Y2571D02*
X40745Y-01718D01*
X43115Y1751D02*
X43525Y1961D01*
X44145Y2571D01*
Y-01718D01*
G36*
X19236Y16834D02*
X12258D01*
Y16234D01*
X19236D01*
Y16834D01*
G37*
G54D11*
X11659Y2682D02*
G01Y-03764D01*
X19837D01*
Y2682D01*
X11659Y9188D02*
Y15034D01*
X12259Y15634D01*
X19237D01*
X19837Y15034D01*
Y9188D01*
X10154Y9567D02*
Y14921D01*
X1657D01*
Y9567D01*
X10154Y2077D02*
Y-03277D01*
X1657D01*
Y2077D01*
G54D12*
X29905Y11811D02*
G01X48835D01*
X51181Y4515D02*
Y-04515D01*
X48835Y-11811D02*
X29905D01*
X27559Y-04515D02*
Y4515D01*
X46457Y0D02*
G03I-07087J0D01*
X48218Y7086D02*
G03I-01761J0D01*
X34044Y7087D02*
G03I-01761J0D01*
Y-07087D02*
G03I-01761J0D01*
X48218D02*
G03I-01761J0D01*
M02*
