%FSLAX25Y25*%
%MOIN*%
%AMMACRO1*
21.000000,1.000000,0.070866,0.070866,0.000000,0.000000,0.000000*
%
*
%ADD10C,0.01000000*%
%ADD11C,0.03937008*%
%ADD12C,0.07086614*%
%ADD13MACRO1*%
%IPPOS*%
G75*
G36*
X32246Y-22602D02*
G01X1420D01*
X1266Y-22572D01*
X1138Y-22484D01*
X1050Y-22356D01*
X1020Y-22202D01*
Y22202D01*
X1050Y22356D01*
X1138Y22484D01*
X1266Y22572D01*
X1420Y22602D01*
X32246D01*
X32418Y22564D01*
X32556Y22456D01*
X32634Y22302D01*
X32640Y22128D01*
X32570Y21966D01*
X32440Y21852D01*
X31926Y21568D01*
X31462Y21232D01*
X31044Y20840D01*
X30678Y20398D01*
X30372Y19914D01*
X30128Y19396D01*
X29950Y18852D01*
X29844Y18288D01*
X29808Y17716D01*
X29844Y17144D01*
X29950Y16582D01*
X30128Y16036D01*
X30372Y15518D01*
X30678Y15034D01*
X31044Y14594D01*
X31462Y14202D01*
X31926Y13864D01*
X32428Y13588D01*
X32960Y13378D01*
X33516Y13234D01*
X34084Y13162D01*
X34656D01*
X35226Y13234D01*
X35780Y13378D01*
X36312Y13588D01*
X36814Y13864D01*
X37278Y14202D01*
X37696Y14594D01*
X38062Y15034D01*
X38368Y15518D01*
X38612Y16036D01*
X38790Y16582D01*
X38896Y17144D01*
X38932Y17716D01*
X38896Y18288D01*
X38790Y18852D01*
X38612Y19396D01*
X38368Y19914D01*
X38062Y20398D01*
X37696Y20840D01*
X37278Y21232D01*
X36814Y21568D01*
X36300Y21852D01*
X36170Y21966D01*
X36100Y22128D01*
X36106Y22302D01*
X36186Y22456D01*
X36322Y22564D01*
X36494Y22602D01*
X39774D01*
X39926Y22572D01*
X40056Y22484D01*
X40144Y22356D01*
X40174Y22202D01*
X40144Y22048D01*
X40032Y21894D01*
X39910Y21702D01*
X39834Y21486D01*
X39806Y21238D01*
Y14196D01*
X39834Y13946D01*
X39910Y13732D01*
X40032Y13538D01*
X40192Y13378D01*
X40386Y13256D01*
X40600Y13182D01*
X40850Y13154D01*
X47890D01*
X48140Y13182D01*
X48354Y13256D01*
X48548Y13378D01*
X48708Y13538D01*
X48830Y13732D01*
X48906Y13946D01*
X48934Y14196D01*
Y21238D01*
X48906Y21486D01*
X48830Y21702D01*
X48598Y22048D01*
X48566Y22202D01*
X48598Y22356D01*
X48684Y22484D01*
X48814Y22572D01*
X48966Y22602D01*
X65510D01*
X65662Y22572D01*
X65792Y22484D01*
X65878Y22356D01*
X65910Y22202D01*
Y-22202D01*
X65878Y-22356D01*
X65792Y-22484D01*
X65662Y-22572D01*
X65510Y-22602D01*
X48966D01*
X48814Y-22572D01*
X48684Y-22484D01*
X48598Y-22356D01*
X48566Y-22202D01*
X48598Y-22048D01*
X48708Y-21894D01*
X48830Y-21702D01*
X48906Y-21486D01*
X48934Y-21238D01*
Y-19738D01*
X46392D01*
Y-22202D01*
X46362Y-22356D01*
X46274Y-22484D01*
X46144Y-22572D01*
X45992Y-22602D01*
X42748D01*
X42596Y-22572D01*
X42466Y-22484D01*
X42378Y-22356D01*
X42348Y-22202D01*
Y-19738D01*
X39806D01*
Y-21238D01*
X39834Y-21486D01*
X39910Y-21702D01*
X40144Y-22048D01*
X40174Y-22202D01*
X40144Y-22356D01*
X40056Y-22484D01*
X39926Y-22572D01*
X39774Y-22602D01*
X36494D01*
X36322Y-22564D01*
X36186Y-22456D01*
X36106Y-22302D01*
X36100Y-22128D01*
X36170Y-21966D01*
X36300Y-21852D01*
X36814Y-21568D01*
X37278Y-21232D01*
X37696Y-20840D01*
X38062Y-20398D01*
X38368Y-19914D01*
X38612Y-19396D01*
X38790Y-18852D01*
X38896Y-18288D01*
X38932Y-17716D01*
X38896Y-17144D01*
X38790Y-16582D01*
X38612Y-16036D01*
X38368Y-15518D01*
X38062Y-15034D01*
X37696Y-14594D01*
X37278Y-14202D01*
X36814Y-13864D01*
X36312Y-13588D01*
X35780Y-13378D01*
X35226Y-13234D01*
X34636Y-13162D01*
X31914Y-12972D01*
X31776Y-12936D01*
X31658Y-12856D01*
X31010Y-12208D01*
X30918Y-12062D01*
X30894Y-11890D01*
X31118Y-09296D01*
Y-09168D01*
X31138Y-08858D01*
X31102Y-08286D01*
X30994Y-07724D01*
X30816Y-07178D01*
X30572Y-06660D01*
X30266Y-06176D01*
X29900Y-05736D01*
X29484Y-05342D01*
X29020Y-05006D01*
X28518Y-04730D01*
X27984Y-04520D01*
X27430Y-04376D01*
X26862Y-04304D01*
X26288D01*
X25720Y-04376D01*
X25164Y-04520D01*
X24632Y-04730D01*
X24130Y-05006D01*
X23666Y-05342D01*
X23248Y-05736D01*
X22884Y-06176D01*
X22576Y-06660D01*
X22332Y-07178D01*
X22156Y-07724D01*
X22048Y-08286D01*
X22012Y-08858D01*
X22048Y-09430D01*
X22156Y-09992D01*
X22332Y-10538D01*
X22576Y-11056D01*
X22884Y-11540D01*
X23248Y-11982D01*
X23666Y-12374D01*
X24130Y-12710D01*
X24632Y-12986D01*
X25164Y-13198D01*
X25596Y-13316D01*
X28376Y-13958D01*
X28480Y-13998D01*
X28570Y-14066D01*
X29508Y-15006D01*
X29590Y-15122D01*
X29624Y-15260D01*
X29814Y-17988D01*
X29844Y-18288D01*
X29950Y-18852D01*
X30128Y-19396D01*
X30372Y-19914D01*
X30678Y-20398D01*
X31044Y-20840D01*
X31462Y-21232D01*
X31926Y-21568D01*
X32440Y-21852D01*
X32570Y-21966D01*
X32640Y-22128D01*
X32634Y-22302D01*
X32556Y-22456D01*
X32418Y-22564D01*
X32246Y-22602D01*
G37*
%LPC*%
G36*
X9178Y-20470D02*
X9844Y-20508D01*
X10508Y-20470D01*
X11164Y-20358D01*
X11806Y-20174D01*
X12420Y-19920D01*
X13004Y-19598D01*
X13546Y-19212D01*
X14044Y-18768D01*
X14488Y-18270D01*
X14874Y-17728D01*
X15196Y-17144D01*
X15450Y-16530D01*
X15634Y-15888D01*
X15746Y-15232D01*
X15784Y-14568D01*
X15746Y-13902D01*
X15634Y-13246D01*
X15450Y-12604D01*
X15196Y-11990D01*
X14874Y-11406D01*
X14488Y-10864D01*
X14044Y-10366D01*
X13546Y-09922D01*
X13004Y-09536D01*
X12420Y-09214D01*
X11806Y-08960D01*
X11164Y-08776D01*
X10508Y-08664D01*
X9844Y-08626D01*
X9178Y-08664D01*
X8522Y-08776D01*
X7880Y-08960D01*
X7266Y-09214D01*
X6682Y-09536D01*
X6140Y-09922D01*
X5642Y-10366D01*
X5198Y-10864D01*
X4812Y-11406D01*
X4490Y-11990D01*
X4236Y-12604D01*
X4052Y-13246D01*
X3940Y-13902D01*
X3902Y-14568D01*
X3940Y-15232D01*
X4052Y-15888D01*
X4236Y-16530D01*
X4490Y-17144D01*
X4812Y-17728D01*
X5198Y-18270D01*
X5642Y-18768D01*
X6140Y-19212D01*
X6682Y-19598D01*
X7266Y-19920D01*
X7880Y-20174D01*
X8522Y-20358D01*
X9178Y-20470D01*
G37*
G36*
X46392Y-13154D02*
Y-15694D01*
X48934D01*
Y-14196D01*
X48906Y-13946D01*
X48830Y-13732D01*
X48708Y-13538D01*
X48548Y-13378D01*
X48354Y-13256D01*
X48140Y-13182D01*
X47890Y-13154D01*
X46392D01*
G37*
G36*
X39806Y-14196D02*
Y-15694D01*
X42348D01*
Y-13154D01*
X40850D01*
X40600Y-13182D01*
X40386Y-13256D01*
X40192Y-13378D01*
X40032Y-13538D01*
X39910Y-13732D01*
X39834Y-13946D01*
X39806Y-14196D01*
G37*
G36*
X51310Y-13340D02*
X51878Y-13412D01*
X52452D01*
X53020Y-13340D01*
X53576Y-13198D01*
X54108Y-12986D01*
X54610Y-12710D01*
X55074Y-12374D01*
X55492Y-11982D01*
X55856Y-11540D01*
X56164Y-11056D01*
X56408Y-10538D01*
X56584Y-09992D01*
X56692Y-09430D01*
X56728Y-08858D01*
X56692Y-08286D01*
X56584Y-07724D01*
X56408Y-07178D01*
X56164Y-06660D01*
X55856Y-06176D01*
X55492Y-05736D01*
X55074Y-05342D01*
X54610Y-05006D01*
X54108Y-04730D01*
X53576Y-04520D01*
X53020Y-04376D01*
X52452Y-04304D01*
X51878D01*
X51310Y-04376D01*
X50756Y-04520D01*
X50222Y-04730D01*
X49720Y-05006D01*
X49258Y-05342D01*
X48840Y-05736D01*
X48474Y-06176D01*
X48168Y-06660D01*
X47924Y-07178D01*
X47746Y-07724D01*
X47638Y-08286D01*
X47602Y-08858D01*
X47638Y-09430D01*
X47746Y-09992D01*
X47924Y-10538D01*
X48168Y-11056D01*
X48474Y-11540D01*
X48840Y-11982D01*
X49258Y-12374D01*
X49720Y-12710D01*
X50222Y-12986D01*
X50756Y-13198D01*
X51310Y-13340D01*
G37*
G36*
X28596Y6836D02*
Y4774D01*
X29020Y5006D01*
X29484Y5342D01*
X29900Y5736D01*
X30266Y6176D01*
X30572Y6660D01*
X30656Y6836D01*
X28596D01*
G37*
G36*
X49720Y5006D02*
X50144Y4774D01*
Y6836D01*
X48084D01*
X48168Y6660D01*
X48474Y6176D01*
X48840Y5736D01*
X49258Y5342D01*
X49720Y5006D01*
G37*
G36*
X24130Y5006D02*
X24554Y4774D01*
Y6836D01*
X22494D01*
X22576Y6660D01*
X22884Y6176D01*
X23248Y5736D01*
X23666Y5342D01*
X24130Y5006D01*
G37*
G36*
X54188Y6836D02*
Y4774D01*
X54610Y5006D01*
X55074Y5342D01*
X55492Y5736D01*
X55856Y6176D01*
X56164Y6660D01*
X56246Y6836D01*
X54188D01*
G37*
G36*
X48168Y11056D02*
X48084Y10880D01*
X50144D01*
Y12944D01*
X49720Y12710D01*
X49258Y12374D01*
X48840Y11982D01*
X48474Y11540D01*
X48168Y11056D01*
G37*
G36*
X22576Y11056D02*
X22494Y10880D01*
X24554D01*
Y12944D01*
X24130Y12710D01*
X23666Y12374D01*
X23248Y11982D01*
X22884Y11540D01*
X22576Y11056D01*
G37*
G36*
X54188Y12944D02*
Y10880D01*
X56246D01*
X56164Y11056D01*
X55856Y11540D01*
X55492Y11982D01*
X55074Y12374D01*
X54610Y12710D01*
X54188Y12944D01*
G37*
G36*
X28596Y12944D02*
Y10880D01*
X30656D01*
X30572Y11056D01*
X30266Y11540D01*
X29900Y11982D01*
X29484Y12374D01*
X29020Y12710D01*
X28596Y12944D01*
G37*
%LPD*%
G36*
X29822Y-12462D02*
X30102Y-09190D01*
X25804Y-12316D01*
X29002Y-13056D01*
X29822Y-12462D01*
G37*
G36*
X34592Y-14180D02*
X31312Y-13952D01*
X30606Y-14660D01*
X30834Y-17938D01*
X34592Y-14180D01*
G37*
G54D10*
X34370Y-17717D02*
G01X26575Y-09922D01*
Y-08858D01*
G54D12*
X34370Y-17717D03*
G54D13*
X44370Y-17716D03*
G54D12*
X34370Y17716D03*
G54D13*
X44370Y17716D03*
G54D12*
X26575Y8858D03*
X52165D03*
X26575Y-08858D03*
X52165D03*
M02*
