M48
;FILE_FORMAT=2:5
INCH,TZ
T1F00S00C0.04000
T2F00S00C0.04331
T3F00S00C0.04724
%
T1
X40000Y130000
X50000
X60000
X70000
X80000
X90000
X100000
X110000
X120000
X130000
X140000
X150000
Y70000
X140000
X130000
X120000
X110000
X100000
X90000
X80000
X70000
X60000
X50000
X40000
X60000Y30000
Y40000
Y50000
X90000Y30000
Y40000
Y50000
X150000Y30000
Y40000
Y50000
X120000Y30000
Y40000
Y50000
X30000Y39988G85X30000Y40012
X30000Y49988G85X30000Y50012
T2
X90000Y160000
Y170000
X100000Y160000
Y170000
X110000Y160000
Y170000
X120000Y160000
Y170000
X130000Y160000
Y170000
X140000Y160000
Y170000
X150000Y160000
Y170000
X50000
Y160000
X40000Y170000
Y160000
X30000Y170000
Y160000
T3
X11142Y87205
Y112795
X28858Y87205
Y112795
M30
