%FSLAX25Y25*%
%MOIN*%
%ADD10C,0.01000000*%
%ADD11C,0.03937008*%
%ADD12C,0.07086614*%
%ADD13R,0.0708661X0.0708661*%
%ADD14C,0.07400000*%
%ADD15R,0.074X0.074*%
%ADD16C,0.06000000*%
%IPPOS*%
G75*
G36*
X178580Y1020D02*
G01X1420D01*
X1266Y1050D01*
X1138Y1138D01*
X1050Y1266D01*
X1020Y1420D01*
Y208580D01*
X1050Y208734D01*
X1138Y208862D01*
X1266Y208950D01*
X1420Y208980D01*
X178580D01*
X178734Y208950D01*
X178862Y208862D01*
X178950Y208734D01*
X178980Y208580D01*
Y1420D01*
X178950Y1266D01*
X178862Y1138D01*
X178734Y1050D01*
X178580Y1020D01*
G37*
%LPC*%
G36*
X168892Y2766D02*
X169630Y2690D01*
X170370D01*
X171108Y2766D01*
X171834Y2914D01*
X172542Y3136D01*
X173224Y3430D01*
X173872Y3790D01*
X174480Y4212D01*
X175042Y4696D01*
X175554Y5232D01*
X176006Y5820D01*
X176400Y6448D01*
X176726Y7114D01*
X176984Y7810D01*
X177168Y8526D01*
X177282Y9260D01*
X177318Y10000D01*
X177282Y10740D01*
X177168Y11474D01*
X176984Y12190D01*
X176726Y12886D01*
X176400Y13552D01*
X176006Y14180D01*
X175554Y14768D01*
X175042Y15304D01*
X174480Y15788D01*
X173872Y16210D01*
X173224Y16570D01*
X172542Y16864D01*
X171834Y17086D01*
X171108Y17234D01*
X170370Y17310D01*
X169630D01*
X168892Y17234D01*
X168166Y17086D01*
X167458Y16864D01*
X166776Y16570D01*
X166128Y16210D01*
X165520Y15788D01*
X164958Y15304D01*
X164446Y14768D01*
X163994Y14180D01*
X163600Y13552D01*
X163274Y12886D01*
X163016Y12190D01*
X162832Y11474D01*
X162718Y10740D01*
X162682Y10000D01*
X162718Y9260D01*
X162832Y8526D01*
X163016Y7810D01*
X163274Y7114D01*
X163600Y6448D01*
X163994Y5820D01*
X164446Y5232D01*
X164958Y4696D01*
X165520Y4212D01*
X166128Y3790D01*
X166776Y3430D01*
X167458Y3136D01*
X168166Y2914D01*
X168892Y2766D01*
G37*
G36*
X8892Y2766D02*
X9630Y2690D01*
X10370D01*
X11108Y2766D01*
X11834Y2914D01*
X12542Y3136D01*
X13224Y3430D01*
X13872Y3790D01*
X14480Y4212D01*
X15042Y4696D01*
X15554Y5232D01*
X16006Y5820D01*
X16400Y6448D01*
X16726Y7114D01*
X16984Y7810D01*
X17168Y8526D01*
X17282Y9260D01*
X17318Y10000D01*
X17282Y10740D01*
X17168Y11474D01*
X16984Y12190D01*
X16726Y12886D01*
X16400Y13552D01*
X16006Y14180D01*
X15554Y14768D01*
X15042Y15304D01*
X14480Y15788D01*
X13872Y16210D01*
X13224Y16570D01*
X12542Y16864D01*
X11834Y17086D01*
X11108Y17234D01*
X10370Y17310D01*
X9630D01*
X8892Y17234D01*
X8166Y17086D01*
X7458Y16864D01*
X6776Y16570D01*
X6128Y16210D01*
X5520Y15788D01*
X4958Y15304D01*
X4446Y14768D01*
X3994Y14180D01*
X3600Y13552D01*
X3274Y12886D01*
X3016Y12190D01*
X2832Y11474D01*
X2718Y10740D01*
X2682Y10000D01*
X2718Y9260D01*
X2832Y8526D01*
X3016Y7810D01*
X3274Y7114D01*
X3600Y6448D01*
X3994Y5820D01*
X4446Y5232D01*
X4958Y4696D01*
X5520Y4212D01*
X6128Y3790D01*
X6776Y3430D01*
X7458Y3136D01*
X8166Y2914D01*
X8892Y2766D01*
G37*
G36*
X56074Y25308D02*
X56322Y25280D01*
X63678D01*
X63926Y25308D01*
X64142Y25384D01*
X64334Y25504D01*
X64496Y25666D01*
X64616Y25858D01*
X64692Y26074D01*
X64720Y26322D01*
Y33678D01*
X64692Y33926D01*
X64616Y34142D01*
X64496Y34334D01*
X64334Y34496D01*
X64142Y34616D01*
X63926Y34692D01*
X63678Y34720D01*
X61548D01*
X61394Y34750D01*
X61264Y34840D01*
X61178Y34970D01*
X61148Y35126D01*
X61182Y35280D01*
X61272Y35408D01*
X61404Y35494D01*
X61972Y35712D01*
X62484Y35988D01*
X62958Y36324D01*
X63388Y36714D01*
X63766Y37156D01*
X64086Y37640D01*
X64346Y38160D01*
X64540Y38708D01*
X64664Y39276D01*
X64716Y39854D01*
X64700Y40436D01*
X64610Y41010D01*
X64450Y41568D01*
X64224Y42104D01*
X63934Y42606D01*
X63584Y43070D01*
X63180Y43488D01*
X62726Y43852D01*
X62232Y44158D01*
X61704Y44400D01*
X61152Y44576D01*
X60580Y44684D01*
X60000Y44720D01*
X59420Y44684D01*
X58848Y44576D01*
X58296Y44400D01*
X57768Y44158D01*
X57274Y43852D01*
X56820Y43488D01*
X56416Y43070D01*
X56066Y42606D01*
X55776Y42104D01*
X55550Y41568D01*
X55390Y41010D01*
X55300Y40436D01*
X55284Y39854D01*
X55336Y39276D01*
X55460Y38708D01*
X55654Y38160D01*
X55914Y37640D01*
X56234Y37156D01*
X56612Y36714D01*
X57042Y36324D01*
X57516Y35988D01*
X58028Y35712D01*
X58596Y35494D01*
X58728Y35408D01*
X58818Y35280D01*
X58852Y35126D01*
X58822Y34970D01*
X58736Y34840D01*
X58606Y34750D01*
X58452Y34720D01*
X56322D01*
X56074Y34692D01*
X55858Y34616D01*
X55666Y34496D01*
X55504Y34334D01*
X55384Y34142D01*
X55308Y33926D01*
X55280Y33678D01*
Y26322D01*
X55308Y26074D01*
X55384Y25858D01*
X55504Y25666D01*
X55666Y25504D01*
X55858Y25384D01*
X56074Y25308D01*
G37*
G36*
X86074Y25308D02*
X86322Y25280D01*
X93678D01*
X93926Y25308D01*
X94142Y25384D01*
X94334Y25504D01*
X94496Y25666D01*
X94616Y25858D01*
X94692Y26074D01*
X94720Y26322D01*
Y33678D01*
X94692Y33926D01*
X94616Y34142D01*
X94496Y34334D01*
X94334Y34496D01*
X94142Y34616D01*
X93926Y34692D01*
X93678Y34720D01*
X91548D01*
X91394Y34750D01*
X91264Y34840D01*
X91178Y34970D01*
X91148Y35126D01*
X91182Y35280D01*
X91272Y35408D01*
X91404Y35494D01*
X91972Y35712D01*
X92484Y35988D01*
X92958Y36324D01*
X93388Y36714D01*
X93766Y37156D01*
X94086Y37640D01*
X94346Y38160D01*
X94540Y38708D01*
X94664Y39276D01*
X94716Y39854D01*
X94700Y40436D01*
X94610Y41010D01*
X94450Y41568D01*
X94224Y42104D01*
X93934Y42606D01*
X93584Y43070D01*
X93180Y43488D01*
X92726Y43852D01*
X92232Y44158D01*
X91704Y44400D01*
X91152Y44576D01*
X90580Y44684D01*
X90000Y44720D01*
X89420Y44684D01*
X88848Y44576D01*
X88296Y44400D01*
X87768Y44158D01*
X87274Y43852D01*
X86820Y43488D01*
X86416Y43070D01*
X86066Y42606D01*
X85776Y42104D01*
X85550Y41568D01*
X85390Y41010D01*
X85300Y40436D01*
X85284Y39854D01*
X85336Y39276D01*
X85460Y38708D01*
X85654Y38160D01*
X85914Y37640D01*
X86234Y37156D01*
X86612Y36714D01*
X87042Y36324D01*
X87516Y35988D01*
X88028Y35712D01*
X88596Y35494D01*
X88728Y35408D01*
X88818Y35280D01*
X88852Y35126D01*
X88822Y34970D01*
X88736Y34840D01*
X88606Y34750D01*
X88452Y34720D01*
X86322D01*
X86074Y34692D01*
X85858Y34616D01*
X85666Y34496D01*
X85504Y34334D01*
X85384Y34142D01*
X85308Y33926D01*
X85280Y33678D01*
Y26322D01*
X85308Y26074D01*
X85384Y25858D01*
X85504Y25666D01*
X85666Y25504D01*
X85858Y25384D01*
X86074Y25308D01*
G37*
G36*
X116074Y25308D02*
X116322Y25280D01*
X123678D01*
X123926Y25308D01*
X124142Y25384D01*
X124334Y25504D01*
X124496Y25666D01*
X124616Y25858D01*
X124692Y26074D01*
X124720Y26322D01*
Y33678D01*
X124692Y33926D01*
X124616Y34142D01*
X124496Y34334D01*
X124334Y34496D01*
X124142Y34616D01*
X123926Y34692D01*
X123678Y34720D01*
X121548D01*
X121394Y34750D01*
X121264Y34840D01*
X121178Y34970D01*
X121148Y35126D01*
X121182Y35280D01*
X121272Y35408D01*
X121404Y35494D01*
X121972Y35712D01*
X122484Y35988D01*
X122958Y36324D01*
X123388Y36714D01*
X123766Y37156D01*
X124086Y37640D01*
X124346Y38160D01*
X124540Y38708D01*
X124664Y39276D01*
X124716Y39854D01*
X124700Y40436D01*
X124610Y41010D01*
X124450Y41568D01*
X124224Y42104D01*
X123934Y42606D01*
X123584Y43070D01*
X123180Y43488D01*
X122726Y43852D01*
X122232Y44158D01*
X121704Y44400D01*
X121152Y44576D01*
X120580Y44684D01*
X120000Y44720D01*
X119420Y44684D01*
X118848Y44576D01*
X118296Y44400D01*
X117768Y44158D01*
X117274Y43852D01*
X116820Y43488D01*
X116416Y43070D01*
X116066Y42606D01*
X115776Y42104D01*
X115550Y41568D01*
X115390Y41010D01*
X115300Y40436D01*
X115284Y39854D01*
X115336Y39276D01*
X115460Y38708D01*
X115654Y38160D01*
X115914Y37640D01*
X116234Y37156D01*
X116612Y36714D01*
X117042Y36324D01*
X117516Y35988D01*
X118028Y35712D01*
X118596Y35494D01*
X118728Y35408D01*
X118818Y35280D01*
X118852Y35126D01*
X118822Y34970D01*
X118736Y34840D01*
X118606Y34750D01*
X118452Y34720D01*
X116322D01*
X116074Y34692D01*
X115858Y34616D01*
X115666Y34496D01*
X115504Y34334D01*
X115384Y34142D01*
X115308Y33926D01*
X115280Y33678D01*
Y26322D01*
X115308Y26074D01*
X115384Y25858D01*
X115504Y25666D01*
X115666Y25504D01*
X115858Y25384D01*
X116074Y25308D01*
G37*
G36*
X146074Y25308D02*
X146322Y25280D01*
X153678D01*
X153926Y25308D01*
X154142Y25384D01*
X154334Y25504D01*
X154496Y25666D01*
X154616Y25858D01*
X154692Y26074D01*
X154720Y26322D01*
Y33678D01*
X154692Y33926D01*
X154616Y34142D01*
X154496Y34334D01*
X154334Y34496D01*
X154142Y34616D01*
X153926Y34692D01*
X153678Y34720D01*
X151548D01*
X151394Y34750D01*
X151264Y34840D01*
X151178Y34970D01*
X151148Y35126D01*
X151182Y35280D01*
X151272Y35408D01*
X151404Y35494D01*
X151972Y35712D01*
X152484Y35988D01*
X152958Y36324D01*
X153388Y36714D01*
X153766Y37156D01*
X154086Y37640D01*
X154346Y38160D01*
X154540Y38708D01*
X154664Y39276D01*
X154718Y39854D01*
X154700Y40436D01*
X154610Y41010D01*
X154450Y41568D01*
X154224Y42104D01*
X153934Y42606D01*
X153584Y43070D01*
X153180Y43488D01*
X152726Y43852D01*
X152232Y44158D01*
X151704Y44400D01*
X151152Y44576D01*
X150580Y44684D01*
X150000Y44720D01*
X149420Y44684D01*
X148848Y44576D01*
X148296Y44400D01*
X147768Y44158D01*
X147274Y43852D01*
X146862Y43526D01*
X144692Y41620D01*
X144568Y41546D01*
X144428Y41520D01*
X140796D01*
X140642Y41550D01*
X140512Y41638D01*
X115016Y67134D01*
X114934Y67252D01*
X114898Y67392D01*
X114856Y68066D01*
X114878Y68226D01*
X114962Y68366D01*
X115096Y68458D01*
X115256Y68492D01*
X115414Y68458D01*
X115548Y68364D01*
X115632Y68224D01*
X115654Y68160D01*
X115914Y67640D01*
X116234Y67156D01*
X116612Y66714D01*
X117042Y66324D01*
X117516Y65988D01*
X118028Y65712D01*
X118570Y65502D01*
X119132Y65362D01*
X119710Y65290D01*
X120290D01*
X120868Y65362D01*
X121430Y65502D01*
X121972Y65712D01*
X122484Y65988D01*
X122958Y66324D01*
X123388Y66714D01*
X123766Y67156D01*
X124086Y67640D01*
X124346Y68160D01*
X124540Y68708D01*
X124610Y69028D01*
X124670Y69170D01*
X124780Y69278D01*
X124924Y69336D01*
X125076D01*
X125220Y69278D01*
X125330Y69170D01*
X125390Y69028D01*
X125460Y68708D01*
X125654Y68160D01*
X125914Y67640D01*
X126234Y67156D01*
X126612Y66714D01*
X127042Y66324D01*
X127516Y65988D01*
X128028Y65712D01*
X128570Y65502D01*
X129132Y65362D01*
X129710Y65290D01*
X130290D01*
X130868Y65362D01*
X131430Y65502D01*
X131972Y65712D01*
X132484Y65988D01*
X132958Y66324D01*
X133388Y66714D01*
X133766Y67156D01*
X134086Y67640D01*
X134346Y68160D01*
X134540Y68708D01*
X134664Y69276D01*
X134716Y69854D01*
X134700Y70436D01*
X134608Y71014D01*
X134450Y71568D01*
X134224Y72104D01*
X133934Y72606D01*
X133584Y73070D01*
X133180Y73488D01*
X132726Y73852D01*
X132232Y74158D01*
X131704Y74400D01*
X131152Y74576D01*
X130580Y74684D01*
X130276Y74712D01*
X127392Y74898D01*
X127252Y74934D01*
X127134Y75016D01*
X125620Y76530D01*
X125374Y76732D01*
X125112Y76872D01*
X124828Y76958D01*
X124512Y76988D01*
X98458D01*
X98142Y76958D01*
X97858Y76872D01*
X97594Y76732D01*
X97350Y76530D01*
X94022Y73202D01*
X93890Y73114D01*
X93736Y73086D01*
X93582Y73118D01*
X93452Y73206D01*
X93180Y73488D01*
X92726Y73852D01*
X92232Y74158D01*
X91704Y74400D01*
X91152Y74576D01*
X90580Y74684D01*
X90000Y74720D01*
X89420Y74684D01*
X88848Y74576D01*
X88296Y74400D01*
X87768Y74158D01*
X87274Y73852D01*
X86820Y73488D01*
X86416Y73070D01*
X86066Y72606D01*
X85776Y72104D01*
X85550Y71568D01*
X85384Y70992D01*
X85304Y70840D01*
X85168Y70738D01*
X85000Y70700D01*
X84832Y70738D01*
X84696Y70840D01*
X84616Y70992D01*
X84450Y71568D01*
X84224Y72104D01*
X83934Y72606D01*
X83584Y73070D01*
X83180Y73488D01*
X82726Y73852D01*
X82232Y74158D01*
X81704Y74400D01*
X81152Y74576D01*
X80580Y74684D01*
X80000Y74720D01*
X79420Y74684D01*
X78848Y74576D01*
X78296Y74400D01*
X77768Y74158D01*
X77274Y73852D01*
X76820Y73488D01*
X76416Y73070D01*
X76066Y72606D01*
X75776Y72104D01*
X75550Y71568D01*
X75384Y70992D01*
X75304Y70840D01*
X75168Y70738D01*
X75000Y70700D01*
X74832Y70738D01*
X74696Y70840D01*
X74616Y70992D01*
X74450Y71568D01*
X74224Y72104D01*
X73934Y72606D01*
X73584Y73070D01*
X73180Y73488D01*
X72726Y73852D01*
X72232Y74158D01*
X71704Y74400D01*
X71152Y74576D01*
X70580Y74684D01*
X70000Y74720D01*
X69420Y74684D01*
X68848Y74576D01*
X68296Y74400D01*
X67768Y74158D01*
X67274Y73852D01*
X66820Y73488D01*
X66416Y73070D01*
X66066Y72606D01*
X65776Y72104D01*
X65550Y71568D01*
X65384Y70992D01*
X65304Y70840D01*
X65168Y70738D01*
X65000Y70700D01*
X64832Y70738D01*
X64696Y70840D01*
X64616Y70992D01*
X64450Y71568D01*
X64224Y72104D01*
X63934Y72606D01*
X63584Y73070D01*
X63180Y73488D01*
X62726Y73852D01*
X62232Y74158D01*
X61704Y74400D01*
X61152Y74576D01*
X60580Y74684D01*
X60000Y74720D01*
X59420Y74684D01*
X58848Y74576D01*
X58296Y74400D01*
X57768Y74158D01*
X57274Y73852D01*
X56820Y73488D01*
X56416Y73070D01*
X56066Y72606D01*
X55776Y72104D01*
X55550Y71568D01*
X55384Y70992D01*
X55304Y70840D01*
X55168Y70738D01*
X55000Y70700D01*
X54832Y70738D01*
X54696Y70840D01*
X54616Y70992D01*
X54450Y71568D01*
X54224Y72104D01*
X53934Y72606D01*
X53584Y73070D01*
X53180Y73488D01*
X52726Y73852D01*
X52232Y74158D01*
X51704Y74400D01*
X51152Y74576D01*
X50580Y74684D01*
X50276Y74712D01*
X47392Y74898D01*
X47252Y74934D01*
X47134Y75016D01*
X46832Y75318D01*
X46744Y75448D01*
X46714Y75602D01*
Y125776D01*
X46750Y125942D01*
X46850Y126076D01*
X46998Y126160D01*
X47166Y126174D01*
X47324Y126116D01*
X47768Y125842D01*
X48296Y125600D01*
X48848Y125424D01*
X49420Y125316D01*
X50000Y125280D01*
X50580Y125316D01*
X51152Y125424D01*
X51704Y125600D01*
X52232Y125842D01*
X52726Y126148D01*
X53180Y126512D01*
X53584Y126930D01*
X53934Y127394D01*
X54224Y127896D01*
X54450Y128432D01*
X54616Y129008D01*
X54696Y129160D01*
X54832Y129262D01*
X55000Y129300D01*
X55168Y129262D01*
X55304Y129160D01*
X55384Y129008D01*
X55550Y128432D01*
X55776Y127896D01*
X56066Y127394D01*
X56416Y126930D01*
X56820Y126512D01*
X57274Y126148D01*
X57768Y125842D01*
X58296Y125600D01*
X58848Y125424D01*
X59420Y125316D01*
X60000Y125280D01*
X60580Y125316D01*
X61152Y125424D01*
X61704Y125600D01*
X62232Y125842D01*
X62726Y126148D01*
X63180Y126512D01*
X63584Y126930D01*
X63934Y127394D01*
X64224Y127896D01*
X64450Y128432D01*
X64616Y129008D01*
X64696Y129160D01*
X64832Y129262D01*
X65000Y129300D01*
X65168Y129262D01*
X65304Y129160D01*
X65384Y129008D01*
X65550Y128432D01*
X65776Y127896D01*
X66066Y127394D01*
X66416Y126930D01*
X66820Y126512D01*
X67274Y126148D01*
X67768Y125842D01*
X68296Y125600D01*
X68848Y125424D01*
X69420Y125316D01*
X70000Y125280D01*
X70580Y125316D01*
X71152Y125424D01*
X71704Y125600D01*
X72232Y125842D01*
X72726Y126148D01*
X73180Y126512D01*
X73584Y126930D01*
X73934Y127394D01*
X74224Y127896D01*
X74450Y128432D01*
X74616Y129008D01*
X74696Y129160D01*
X74832Y129262D01*
X75000Y129300D01*
X75168Y129262D01*
X75304Y129160D01*
X75384Y129008D01*
X75550Y128432D01*
X75776Y127896D01*
X76066Y127394D01*
X76416Y126930D01*
X76820Y126512D01*
X77274Y126148D01*
X77768Y125842D01*
X78296Y125600D01*
X78848Y125424D01*
X79420Y125316D01*
X80000Y125280D01*
X80580Y125316D01*
X81152Y125424D01*
X81704Y125600D01*
X82232Y125842D01*
X82726Y126148D01*
X83180Y126512D01*
X83584Y126930D01*
X83934Y127394D01*
X84224Y127896D01*
X84450Y128432D01*
X84616Y129008D01*
X84696Y129160D01*
X84832Y129262D01*
X85000Y129300D01*
X85168Y129262D01*
X85304Y129160D01*
X85384Y129008D01*
X85550Y128432D01*
X85776Y127896D01*
X86066Y127394D01*
X86416Y126930D01*
X86820Y126512D01*
X87274Y126148D01*
X87768Y125842D01*
X88296Y125600D01*
X88848Y125424D01*
X89420Y125316D01*
X90000Y125280D01*
X90580Y125316D01*
X91152Y125424D01*
X91704Y125600D01*
X92232Y125842D01*
X92726Y126148D01*
X93180Y126512D01*
X93584Y126930D01*
X93934Y127394D01*
X94224Y127896D01*
X94450Y128432D01*
X94616Y129008D01*
X94696Y129160D01*
X94832Y129262D01*
X95000Y129300D01*
X95168Y129262D01*
X95304Y129160D01*
X95384Y129008D01*
X95550Y128432D01*
X95776Y127896D01*
X96066Y127394D01*
X96416Y126930D01*
X96820Y126512D01*
X97274Y126148D01*
X97768Y125842D01*
X98296Y125600D01*
X98848Y125424D01*
X99420Y125316D01*
X100000Y125280D01*
X100580Y125316D01*
X101152Y125424D01*
X101704Y125600D01*
X102232Y125842D01*
X102726Y126148D01*
X103180Y126512D01*
X103584Y126930D01*
X103934Y127394D01*
X104224Y127896D01*
X104450Y128432D01*
X104616Y129008D01*
X104696Y129160D01*
X104832Y129262D01*
X105000Y129300D01*
X105168Y129262D01*
X105304Y129160D01*
X105384Y129008D01*
X105550Y128432D01*
X105776Y127896D01*
X106066Y127394D01*
X106416Y126930D01*
X106820Y126512D01*
X107274Y126148D01*
X107768Y125842D01*
X108296Y125600D01*
X108848Y125424D01*
X109420Y125316D01*
X110000Y125280D01*
X110580Y125316D01*
X111152Y125424D01*
X111704Y125600D01*
X112232Y125842D01*
X112726Y126148D01*
X113180Y126512D01*
X113584Y126930D01*
X113934Y127394D01*
X114224Y127896D01*
X114450Y128432D01*
X114610Y128990D01*
X114700Y129564D01*
X114716Y130146D01*
X114664Y130724D01*
X114540Y131292D01*
X114346Y131840D01*
X114086Y132360D01*
X113766Y132844D01*
X113388Y133286D01*
X112958Y133676D01*
X112484Y134012D01*
X111972Y134288D01*
X111430Y134498D01*
X110868Y134638D01*
X110290Y134710D01*
X109710D01*
X109132Y134638D01*
X108570Y134498D01*
X108028Y134288D01*
X107516Y134012D01*
X107042Y133676D01*
X106612Y133286D01*
X106234Y132844D01*
X105914Y132360D01*
X105654Y131840D01*
X105632Y131776D01*
X105548Y131636D01*
X105414Y131542D01*
X105256Y131508D01*
X105096Y131542D01*
X104962Y131634D01*
X104878Y131774D01*
X104856Y131934D01*
X104898Y132608D01*
X104934Y132748D01*
X105016Y132866D01*
X127288Y155138D01*
X127406Y155220D01*
X127544Y155254D01*
X130282Y155446D01*
X130854Y155518D01*
X131410Y155660D01*
X131942Y155872D01*
X132444Y156148D01*
X132908Y156484D01*
X133326Y156876D01*
X133692Y157318D01*
X133998Y157802D01*
X134242Y158320D01*
X134420Y158866D01*
X134526Y159428D01*
X134562Y160000D01*
X134526Y160572D01*
X134420Y161134D01*
X134242Y161680D01*
X133998Y162198D01*
X133692Y162682D01*
X133326Y163124D01*
X132908Y163516D01*
X132444Y163852D01*
X131942Y164128D01*
X131410Y164340D01*
X130854Y164482D01*
X130286Y164554D01*
X129714D01*
X129146Y164482D01*
X128590Y164340D01*
X128058Y164128D01*
X127556Y163852D01*
X127092Y163516D01*
X126674Y163124D01*
X126308Y162682D01*
X126002Y162198D01*
X125758Y161680D01*
X125580Y161134D01*
X125474Y160572D01*
X125444Y160270D01*
X125254Y157544D01*
X125220Y157406D01*
X125138Y157288D01*
X102866Y135016D01*
X102748Y134934D01*
X102608Y134898D01*
X99714Y134712D01*
X99134Y134638D01*
X98570Y134498D01*
X98028Y134288D01*
X97516Y134012D01*
X97042Y133676D01*
X96612Y133286D01*
X96234Y132844D01*
X95914Y132360D01*
X95654Y131840D01*
X95460Y131292D01*
X95390Y130972D01*
X95330Y130830D01*
X95220Y130722D01*
X95076Y130664D01*
X94924D01*
X94780Y130722D01*
X94670Y130830D01*
X94610Y130972D01*
X94540Y131292D01*
X94346Y131840D01*
X94086Y132360D01*
X93766Y132844D01*
X93388Y133286D01*
X92958Y133676D01*
X92484Y134012D01*
X91972Y134288D01*
X91430Y134498D01*
X90868Y134638D01*
X90290Y134710D01*
X89710D01*
X89132Y134638D01*
X88570Y134498D01*
X88028Y134288D01*
X87516Y134012D01*
X87042Y133676D01*
X86612Y133286D01*
X86234Y132844D01*
X85914Y132360D01*
X85654Y131840D01*
X85632Y131776D01*
X85548Y131636D01*
X85414Y131542D01*
X85256Y131508D01*
X85096Y131542D01*
X84962Y131634D01*
X84878Y131774D01*
X84856Y131934D01*
X84898Y132608D01*
X84934Y132748D01*
X85016Y132866D01*
X102208Y150058D01*
X102338Y150146D01*
X102492Y150176D01*
X111676D01*
X111992Y150208D01*
X112276Y150294D01*
X112540Y150434D01*
X112784Y150636D01*
X117288Y155138D01*
X117406Y155220D01*
X117544Y155254D01*
X120282Y155446D01*
X120854Y155518D01*
X121410Y155660D01*
X121942Y155872D01*
X122444Y156148D01*
X122908Y156484D01*
X123326Y156876D01*
X123692Y157318D01*
X123998Y157802D01*
X124242Y158320D01*
X124420Y158866D01*
X124526Y159428D01*
X124562Y160000D01*
X124526Y160572D01*
X124420Y161134D01*
X124242Y161680D01*
X123998Y162198D01*
X123692Y162682D01*
X123326Y163124D01*
X122908Y163516D01*
X122444Y163852D01*
X121942Y164128D01*
X121410Y164340D01*
X120854Y164482D01*
X120286Y164554D01*
X119714D01*
X119146Y164482D01*
X118590Y164340D01*
X118058Y164128D01*
X117556Y163852D01*
X117092Y163516D01*
X116674Y163124D01*
X116308Y162682D01*
X116002Y162198D01*
X115758Y161680D01*
X115580Y161134D01*
X115474Y160572D01*
X115444Y160270D01*
X115254Y157544D01*
X115220Y157406D01*
X115138Y157288D01*
X111184Y153334D01*
X111054Y153246D01*
X110900Y153216D01*
X102958D01*
X102804Y153246D01*
X102674Y153334D01*
X102588Y153462D01*
X102558Y153616D01*
X102588Y153770D01*
X102674Y153898D01*
X105900Y157126D01*
X106040Y157216D01*
X106202Y157242D01*
X106362Y157200D01*
X106492Y157098D01*
X106674Y156876D01*
X107092Y156484D01*
X107556Y156148D01*
X108058Y155872D01*
X108590Y155660D01*
X109146Y155518D01*
X109714Y155446D01*
X110286D01*
X110854Y155518D01*
X111410Y155660D01*
X111942Y155872D01*
X112444Y156148D01*
X112908Y156484D01*
X113326Y156876D01*
X113692Y157318D01*
X113998Y157802D01*
X114242Y158320D01*
X114420Y158866D01*
X114526Y159428D01*
X114562Y160000D01*
X114526Y160572D01*
X114420Y161134D01*
X114242Y161680D01*
X113998Y162198D01*
X113692Y162682D01*
X113326Y163124D01*
X112908Y163516D01*
X112444Y163852D01*
X111942Y164128D01*
X111410Y164340D01*
X110854Y164482D01*
X110286Y164554D01*
X109714D01*
X109146Y164482D01*
X108590Y164340D01*
X108058Y164128D01*
X107556Y163852D01*
X107156Y163562D01*
X106994Y163492D01*
X106820Y163498D01*
X106666Y163576D01*
X106558Y163714D01*
X106520Y163886D01*
Y164204D01*
X106550Y164358D01*
X106638Y164488D01*
X107288Y165138D01*
X107406Y165220D01*
X107544Y165254D01*
X110282Y165446D01*
X110854Y165518D01*
X111410Y165660D01*
X111942Y165872D01*
X112444Y166148D01*
X112908Y166484D01*
X113326Y166876D01*
X113692Y167318D01*
X113998Y167802D01*
X114242Y168320D01*
X114420Y168866D01*
X114526Y169428D01*
X114562Y170000D01*
X114526Y170572D01*
X114420Y171134D01*
X114242Y171680D01*
X113998Y172198D01*
X113692Y172682D01*
X113326Y173124D01*
X112908Y173516D01*
X112444Y173852D01*
X111942Y174128D01*
X111410Y174340D01*
X110854Y174482D01*
X110286Y174554D01*
X109714D01*
X109146Y174482D01*
X108590Y174340D01*
X108058Y174128D01*
X107556Y173852D01*
X107092Y173516D01*
X106674Y173124D01*
X106308Y172682D01*
X106002Y172198D01*
X105758Y171680D01*
X105580Y171134D01*
X105474Y170572D01*
X105444Y170270D01*
X105254Y167544D01*
X105220Y167406D01*
X105138Y167288D01*
X103940Y166088D01*
X103738Y165844D01*
X103598Y165580D01*
X103512Y165296D01*
X103480Y164980D01*
Y163886D01*
X103442Y163714D01*
X103334Y163576D01*
X103180Y163498D01*
X103006Y163492D01*
X102844Y163562D01*
X102444Y163852D01*
X101942Y164128D01*
X101410Y164340D01*
X100854Y164482D01*
X100286Y164554D01*
X99714D01*
X99146Y164482D01*
X98590Y164340D01*
X98058Y164128D01*
X97556Y163852D01*
X97156Y163562D01*
X96994Y163492D01*
X96820Y163498D01*
X96666Y163576D01*
X96558Y163714D01*
X96520Y163886D01*
Y164204D01*
X96550Y164358D01*
X96638Y164488D01*
X97288Y165138D01*
X97406Y165220D01*
X97544Y165254D01*
X100282Y165446D01*
X100854Y165518D01*
X101410Y165660D01*
X101942Y165872D01*
X102444Y166148D01*
X102908Y166484D01*
X103326Y166876D01*
X103692Y167318D01*
X103998Y167802D01*
X104242Y168320D01*
X104420Y168866D01*
X104526Y169428D01*
X104562Y170000D01*
X104526Y170572D01*
X104420Y171134D01*
X104242Y171680D01*
X103998Y172198D01*
X103692Y172682D01*
X103326Y173124D01*
X102908Y173516D01*
X102444Y173852D01*
X101942Y174128D01*
X101410Y174340D01*
X100854Y174482D01*
X100286Y174554D01*
X99714D01*
X99146Y174482D01*
X98590Y174340D01*
X98058Y174128D01*
X97556Y173852D01*
X97092Y173516D01*
X96674Y173124D01*
X96308Y172682D01*
X96002Y172198D01*
X95758Y171680D01*
X95580Y171134D01*
X95474Y170572D01*
X95444Y170270D01*
X95254Y167544D01*
X95220Y167406D01*
X95138Y167288D01*
X93940Y166088D01*
X93738Y165844D01*
X93598Y165580D01*
X93512Y165296D01*
X93480Y164980D01*
Y163886D01*
X93442Y163714D01*
X93334Y163576D01*
X93180Y163498D01*
X93006Y163492D01*
X92844Y163562D01*
X92444Y163852D01*
X92022Y164084D01*
Y162022D01*
X93080D01*
X93234Y161992D01*
X93362Y161904D01*
X93450Y161774D01*
X93480Y161622D01*
Y158542D01*
X93450Y158388D01*
X93362Y158258D01*
X93200Y158096D01*
X93070Y158008D01*
X92918Y157978D01*
X92022D01*
Y157178D01*
X91992Y157026D01*
X91904Y156896D01*
X91774Y156810D01*
X91622Y156778D01*
X88378D01*
X88226Y156810D01*
X88096Y156896D01*
X88008Y157026D01*
X87978Y157178D01*
Y157978D01*
X85918D01*
X86002Y157802D01*
X86262Y157394D01*
X86320Y157234D01*
X86306Y157064D01*
X86226Y156916D01*
X86090Y156814D01*
X85924Y156778D01*
X75278D01*
X74962Y156748D01*
X74678Y156662D01*
X74416Y156522D01*
X74170Y156320D01*
X52866Y135016D01*
X52748Y134934D01*
X52608Y134898D01*
X49714Y134712D01*
X49134Y134638D01*
X48570Y134498D01*
X48028Y134288D01*
X47516Y134012D01*
X47346Y133892D01*
X47186Y133824D01*
X47012Y133832D01*
X46858Y133912D01*
X46752Y134048D01*
X46714Y134218D01*
Y154786D01*
X46682Y155102D01*
X46596Y155386D01*
X46456Y155650D01*
X46254Y155894D01*
X44326Y157824D01*
X44246Y157936D01*
X44210Y158070D01*
X44010Y160272D01*
X43938Y160800D01*
X43796Y161318D01*
X43588Y161812D01*
X43314Y162274D01*
X42980Y162696D01*
X42594Y163070D01*
X42162Y163388D01*
X41692Y163646D01*
X41190Y163838D01*
X40668Y163964D01*
X40134Y164016D01*
X39598Y163998D01*
X39068Y163910D01*
X38556Y163750D01*
X38068Y163524D01*
X37616Y163236D01*
X37206Y162890D01*
X36846Y162490D01*
X36542Y162048D01*
X36300Y161570D01*
X36124Y161062D01*
X36016Y160536D01*
X35980Y160000D01*
X36016Y159464D01*
X36124Y158938D01*
X36300Y158430D01*
X36542Y157952D01*
X36846Y157510D01*
X37206Y157110D01*
X37616Y156764D01*
X38068Y156476D01*
X38556Y156250D01*
X39068Y156090D01*
X39608Y156000D01*
X41930Y155790D01*
X42064Y155754D01*
X42176Y155674D01*
X43556Y154294D01*
X43644Y154164D01*
X43674Y154010D01*
Y133930D01*
X43644Y133780D01*
X43562Y133652D01*
X43436Y133564D01*
X43286Y133530D01*
X43136Y133556D01*
X42484Y134012D01*
X41972Y134288D01*
X41430Y134498D01*
X40868Y134638D01*
X40290Y134710D01*
X39710D01*
X39132Y134638D01*
X38570Y134498D01*
X38028Y134288D01*
X37516Y134012D01*
X37042Y133676D01*
X36612Y133286D01*
X36234Y132844D01*
X35914Y132360D01*
X35654Y131840D01*
X35460Y131292D01*
X35336Y130724D01*
X35284Y130146D01*
X35300Y129564D01*
X35390Y128990D01*
X35550Y128432D01*
X35776Y127896D01*
X36066Y127394D01*
X36416Y126930D01*
X36820Y126512D01*
X37274Y126148D01*
X37768Y125842D01*
X38296Y125600D01*
X38848Y125424D01*
X39420Y125316D01*
X40000Y125280D01*
X40580Y125316D01*
X41152Y125424D01*
X41704Y125600D01*
X42232Y125842D01*
X42726Y126148D01*
X43024Y126386D01*
X43154Y126456D01*
X43302Y126474D01*
X43446Y126436D01*
X43566Y126348D01*
X43646Y126222D01*
X43674Y126076D01*
Y76704D01*
X43644Y76552D01*
X43556Y76422D01*
X43428Y76334D01*
X43274Y76304D01*
X43120Y76334D01*
X42992Y76422D01*
X40798Y78614D01*
X40554Y78816D01*
X40290Y78956D01*
X40006Y79042D01*
X39690Y79072D01*
X21590D01*
X21436Y79104D01*
X21306Y79190D01*
X16004Y84494D01*
X15922Y84610D01*
X15888Y84748D01*
X15696Y87486D01*
X15624Y88060D01*
X15480Y88614D01*
X15270Y89148D01*
X14994Y89650D01*
X14658Y90112D01*
X14264Y90530D01*
X13824Y90896D01*
X13340Y91202D01*
X12822Y91446D01*
X12276Y91624D01*
X11714Y91732D01*
X11142Y91768D01*
X10570Y91732D01*
X10008Y91624D01*
X9462Y91446D01*
X8944Y91202D01*
X8460Y90896D01*
X8018Y90530D01*
X7626Y90112D01*
X7290Y89650D01*
X7014Y89148D01*
X6802Y88614D01*
X6660Y88060D01*
X6588Y87492D01*
Y86918D01*
X6660Y86350D01*
X6802Y85794D01*
X7014Y85262D01*
X7290Y84760D01*
X7626Y84296D01*
X8018Y83878D01*
X8460Y83514D01*
X8944Y83206D01*
X9462Y82962D01*
X10008Y82786D01*
X10570Y82678D01*
X10872Y82650D01*
X13598Y82460D01*
X13736Y82424D01*
X13854Y82344D01*
X19706Y76492D01*
X19950Y76290D01*
X20214Y76150D01*
X20498Y76064D01*
X20814Y76032D01*
X38914D01*
X39068Y76002D01*
X39198Y75916D01*
X39744Y75370D01*
X39828Y75244D01*
X39860Y75094D01*
X39836Y74946D01*
X39756Y74816D01*
X39632Y74726D01*
X38848Y74576D01*
X38296Y74400D01*
X37768Y74158D01*
X37274Y73852D01*
X36820Y73488D01*
X36416Y73070D01*
X36066Y72606D01*
X35776Y72104D01*
X35550Y71568D01*
X35390Y71010D01*
X35300Y70436D01*
X35284Y69854D01*
X35336Y69276D01*
X35460Y68708D01*
X35654Y68160D01*
X35914Y67640D01*
X36234Y67156D01*
X36612Y66714D01*
X37042Y66324D01*
X37516Y65988D01*
X38028Y65712D01*
X38570Y65502D01*
X39132Y65362D01*
X39710Y65290D01*
X40290D01*
X40868Y65362D01*
X41430Y65502D01*
X41972Y65712D01*
X42484Y65988D01*
X42958Y66324D01*
X43236Y66576D01*
X43374Y66658D01*
X43534Y66680D01*
X43690Y66636D01*
X43814Y66534D01*
X43940Y66384D01*
X46864Y63460D01*
X47108Y63258D01*
X47372Y63118D01*
X47656Y63032D01*
X47972Y63000D01*
X91742D01*
X92058Y63032D01*
X92342Y63118D01*
X92606Y63258D01*
X92850Y63460D01*
X96078Y66686D01*
X96202Y66770D01*
X96350Y66804D01*
X96500Y66778D01*
X96630Y66698D01*
X97042Y66324D01*
X97516Y65988D01*
X98028Y65712D01*
X98570Y65502D01*
X99132Y65362D01*
X99710Y65290D01*
X100290D01*
X100868Y65362D01*
X101430Y65502D01*
X101972Y65712D01*
X102484Y65988D01*
X102958Y66324D01*
X103388Y66714D01*
X103766Y67156D01*
X104086Y67640D01*
X104346Y68160D01*
X104540Y68708D01*
X104610Y69028D01*
X104670Y69170D01*
X104780Y69278D01*
X104924Y69336D01*
X105076D01*
X105220Y69278D01*
X105330Y69170D01*
X105390Y69028D01*
X105460Y68708D01*
X105654Y68160D01*
X105914Y67640D01*
X106234Y67156D01*
X106612Y66714D01*
X107042Y66324D01*
X107516Y65988D01*
X108028Y65712D01*
X108570Y65502D01*
X109134Y65362D01*
X109714Y65288D01*
X112608Y65102D01*
X112748Y65066D01*
X112866Y64984D01*
X138912Y38940D01*
X139156Y38738D01*
X139420Y38598D01*
X139704Y38512D01*
X140020Y38480D01*
X144428D01*
X144568Y38454D01*
X144692Y38380D01*
X147034Y36328D01*
X147516Y35988D01*
X148028Y35712D01*
X148596Y35494D01*
X148728Y35408D01*
X148818Y35280D01*
X148852Y35126D01*
X148822Y34970D01*
X148736Y34840D01*
X148606Y34750D01*
X148452Y34720D01*
X146322D01*
X146074Y34692D01*
X145858Y34616D01*
X145666Y34496D01*
X145504Y34334D01*
X145384Y34142D01*
X145308Y33926D01*
X145280Y33678D01*
Y26322D01*
X145308Y26074D01*
X145384Y25858D01*
X145504Y25666D01*
X145666Y25504D01*
X145858Y25384D01*
X146074Y25308D01*
G37*
G36*
X26074Y35308D02*
X26322Y35280D01*
X27900D01*
Y37900D01*
X25280D01*
Y36322D01*
X25308Y36074D01*
X25384Y35858D01*
X25504Y35666D01*
X25666Y35504D01*
X25858Y35384D01*
X26074Y35308D01*
G37*
G36*
X32100Y37900D02*
Y35280D01*
X33678D01*
X33926Y35308D01*
X34142Y35384D01*
X34334Y35504D01*
X34496Y35666D01*
X34616Y35858D01*
X34692Y36074D01*
X34720Y36322D01*
Y37900D01*
X32100D01*
G37*
G36*
X32100Y44720D02*
Y42100D01*
X34720D01*
Y43678D01*
X34692Y43926D01*
X34616Y44142D01*
X34496Y44334D01*
X34334Y44496D01*
X34142Y44616D01*
X33926Y44692D01*
X33678Y44720D01*
X32100D01*
G37*
G36*
X25280Y43678D02*
Y42100D01*
X27900D01*
Y44720D01*
X26322D01*
X26074Y44692D01*
X25858Y44616D01*
X25666Y44496D01*
X25504Y44334D01*
X25384Y44142D01*
X25308Y43926D01*
X25280Y43678D01*
G37*
G36*
X29132Y45362D02*
X29710Y45290D01*
X30290D01*
X30868Y45362D01*
X31430Y45502D01*
X31972Y45712D01*
X32484Y45988D01*
X32958Y46324D01*
X33388Y46714D01*
X33766Y47156D01*
X34086Y47640D01*
X34346Y48160D01*
X34540Y48708D01*
X34664Y49276D01*
X34718Y49854D01*
X34700Y50436D01*
X34610Y51010D01*
X34450Y51568D01*
X34224Y52104D01*
X33934Y52606D01*
X33584Y53070D01*
X33180Y53488D01*
X32726Y53852D01*
X32232Y54158D01*
X31704Y54400D01*
X31152Y54576D01*
X30580Y54684D01*
X30000Y54720D01*
X29420Y54684D01*
X28848Y54576D01*
X28296Y54400D01*
X27768Y54158D01*
X27274Y53852D01*
X26820Y53488D01*
X26416Y53070D01*
X26066Y52606D01*
X25776Y52104D01*
X25550Y51568D01*
X25390Y51010D01*
X25300Y50436D01*
X25284Y49854D01*
X25336Y49276D01*
X25460Y48708D01*
X25654Y48160D01*
X25914Y47640D01*
X26234Y47156D01*
X26612Y46714D01*
X27042Y46324D01*
X27516Y45988D01*
X28028Y45712D01*
X28572Y45502D01*
X29132Y45362D01*
G37*
G36*
X117516Y45988D02*
X117900Y45782D01*
Y47900D01*
X115784D01*
X115914Y47640D01*
X116234Y47156D01*
X116612Y46714D01*
X117042Y46324D01*
X117516Y45988D01*
G37*
G36*
X57516Y45988D02*
X57900Y45782D01*
Y47900D01*
X55784D01*
X55914Y47640D01*
X56234Y47156D01*
X56612Y46714D01*
X57042Y46324D01*
X57516Y45988D01*
G37*
G36*
X87516Y45988D02*
X87900Y45782D01*
Y47900D01*
X85784D01*
X85914Y47640D01*
X86234Y47156D01*
X86612Y46714D01*
X87042Y46324D01*
X87516Y45988D01*
G37*
G36*
X147516Y45988D02*
X147900Y45782D01*
Y47900D01*
X145784D01*
X145914Y47640D01*
X146234Y47156D01*
X146612Y46714D01*
X147042Y46324D01*
X147516Y45988D01*
G37*
G36*
X62100Y47900D02*
Y45782D01*
X62484Y45988D01*
X62958Y46324D01*
X63388Y46714D01*
X63766Y47156D01*
X64086Y47640D01*
X64216Y47900D01*
X62100D01*
G37*
G36*
X92100Y47900D02*
Y45782D01*
X92484Y45988D01*
X92958Y46324D01*
X93388Y46714D01*
X93766Y47156D01*
X94086Y47640D01*
X94216Y47900D01*
X92100D01*
G37*
G36*
X152100Y47900D02*
Y45782D01*
X152484Y45988D01*
X152958Y46324D01*
X153388Y46714D01*
X153766Y47156D01*
X154086Y47640D01*
X154216Y47900D01*
X152100D01*
G37*
G36*
X122100Y47900D02*
Y45782D01*
X122484Y45988D01*
X122958Y46324D01*
X123388Y46714D01*
X123766Y47156D01*
X124086Y47640D01*
X124216Y47900D01*
X122100D01*
G37*
G36*
X56066Y52606D02*
X55774Y52100D01*
X57900D01*
Y54218D01*
X57768Y54158D01*
X57274Y53852D01*
X56820Y53488D01*
X56416Y53070D01*
X56066Y52606D01*
G37*
G36*
X146066Y52606D02*
X145774Y52100D01*
X147900D01*
Y54218D01*
X147768Y54158D01*
X147274Y53852D01*
X146820Y53488D01*
X146416Y53070D01*
X146066Y52606D01*
G37*
G36*
X62100Y54218D02*
Y52100D01*
X64226D01*
X63934Y52606D01*
X63584Y53070D01*
X63180Y53488D01*
X62726Y53852D01*
X62232Y54158D01*
X62100Y54218D01*
G37*
G36*
X152100Y54218D02*
Y52100D01*
X154226D01*
X153934Y52606D01*
X153584Y53070D01*
X153180Y53488D01*
X152726Y53852D01*
X152232Y54158D01*
X152100Y54218D01*
G37*
G36*
X92100Y54218D02*
Y52100D01*
X94226D01*
X93934Y52606D01*
X93584Y53070D01*
X93180Y53488D01*
X92726Y53852D01*
X92232Y54158D01*
X92100Y54218D01*
G37*
G36*
X122100Y54218D02*
Y52100D01*
X124226D01*
X123934Y52606D01*
X123584Y53070D01*
X123180Y53488D01*
X122726Y53852D01*
X122232Y54158D01*
X122100Y54218D01*
G37*
G36*
X116066Y52606D02*
X115774Y52100D01*
X117900D01*
Y54218D01*
X117768Y54158D01*
X117274Y53852D01*
X116820Y53488D01*
X116416Y53070D01*
X116066Y52606D01*
G37*
G36*
X86066Y52606D02*
X85774Y52100D01*
X87900D01*
Y54218D01*
X87768Y54158D01*
X87274Y53852D01*
X86820Y53488D01*
X86416Y53070D01*
X86066Y52606D01*
G37*
G36*
X149132Y65362D02*
X149710Y65290D01*
X150290D01*
X150868Y65362D01*
X151430Y65502D01*
X151972Y65712D01*
X152484Y65988D01*
X152958Y66324D01*
X153388Y66714D01*
X153766Y67156D01*
X154086Y67640D01*
X154346Y68160D01*
X154540Y68708D01*
X154664Y69276D01*
X154718Y69854D01*
X154700Y70436D01*
X154610Y71010D01*
X154450Y71568D01*
X154224Y72104D01*
X153934Y72606D01*
X153584Y73070D01*
X153180Y73488D01*
X152726Y73852D01*
X152232Y74158D01*
X151704Y74400D01*
X151152Y74576D01*
X150580Y74684D01*
X150000Y74720D01*
X149420Y74684D01*
X148848Y74576D01*
X148296Y74400D01*
X147768Y74158D01*
X147274Y73852D01*
X146820Y73488D01*
X146416Y73070D01*
X146066Y72606D01*
X145776Y72104D01*
X145550Y71568D01*
X145390Y71010D01*
X145300Y70436D01*
X145284Y69854D01*
X145336Y69276D01*
X145460Y68708D01*
X145654Y68160D01*
X145914Y67640D01*
X146234Y67156D01*
X146612Y66714D01*
X147042Y66324D01*
X147516Y65988D01*
X148028Y65712D01*
X148570Y65502D01*
X149132Y65362D01*
G37*
G36*
X137516Y65988D02*
X137900Y65782D01*
Y67900D01*
X135784D01*
X135914Y67640D01*
X136234Y67156D01*
X136612Y66714D01*
X137042Y66324D01*
X137516Y65988D01*
G37*
G36*
X142100Y67900D02*
Y65782D01*
X142484Y65988D01*
X142958Y66324D01*
X143388Y66714D01*
X143766Y67156D01*
X144086Y67640D01*
X144216Y67900D01*
X142100D01*
G37*
G36*
X142100Y74218D02*
Y72100D01*
X144226D01*
X143934Y72606D01*
X143584Y73070D01*
X143180Y73488D01*
X142726Y73852D01*
X142232Y74158D01*
X142100Y74218D01*
G37*
G36*
X136066Y72606D02*
X135774Y72100D01*
X137900D01*
Y74218D01*
X137768Y74158D01*
X137274Y73852D01*
X136820Y73488D01*
X136416Y73070D01*
X136066Y72606D01*
G37*
G36*
X30880Y85184D02*
Y83124D01*
X31056Y83206D01*
X31540Y83514D01*
X31982Y83878D01*
X32374Y84296D01*
X32710Y84760D01*
X32944Y85184D01*
X30880D01*
G37*
G36*
X26660Y83206D02*
X26836Y83124D01*
Y85184D01*
X24774D01*
X25006Y84760D01*
X25342Y84296D01*
X25736Y83878D01*
X26176Y83514D01*
X26660Y83206D01*
G37*
G36*
X30880Y91286D02*
Y89226D01*
X32944D01*
X32710Y89650D01*
X32374Y90112D01*
X31982Y90530D01*
X31540Y90896D01*
X31056Y91202D01*
X30880Y91286D01*
G37*
G36*
X25006Y89650D02*
X24774Y89226D01*
X26836D01*
Y91286D01*
X26660Y91202D01*
X26176Y90896D01*
X25736Y90530D01*
X25342Y90112D01*
X25006Y89650D01*
G37*
G36*
X10570Y108268D02*
X11142Y108232D01*
X11714Y108268D01*
X12276Y108376D01*
X12822Y108554D01*
X13340Y108798D01*
X13824Y109104D01*
X14264Y109470D01*
X14658Y109888D01*
X14994Y110350D01*
X15270Y110852D01*
X15480Y111386D01*
X15624Y111940D01*
X15696Y112508D01*
Y113082D01*
X15624Y113650D01*
X15480Y114206D01*
X15270Y114738D01*
X14994Y115240D01*
X14658Y115704D01*
X14264Y116122D01*
X13824Y116486D01*
X13340Y116794D01*
X12822Y117038D01*
X12276Y117214D01*
X11714Y117322D01*
X11142Y117358D01*
X10570Y117322D01*
X10008Y117214D01*
X9462Y117038D01*
X8944Y116794D01*
X8460Y116486D01*
X8018Y116122D01*
X7626Y115704D01*
X7290Y115240D01*
X7014Y114738D01*
X6802Y114206D01*
X6660Y113650D01*
X6588Y113082D01*
Y112508D01*
X6660Y111940D01*
X6802Y111386D01*
X7014Y110852D01*
X7290Y110350D01*
X7626Y109888D01*
X8018Y109470D01*
X8460Y109104D01*
X8944Y108798D01*
X9462Y108554D01*
X10008Y108376D01*
X10570Y108268D01*
G37*
G36*
X30880Y110774D02*
Y108714D01*
X31056Y108798D01*
X31540Y109104D01*
X31982Y109470D01*
X32374Y109888D01*
X32710Y110350D01*
X32944Y110774D01*
X30880D01*
G37*
G36*
X26660Y108798D02*
X26836Y108714D01*
Y110774D01*
X24774D01*
X25006Y110350D01*
X25342Y109888D01*
X25736Y109470D01*
X26176Y109104D01*
X26660Y108798D01*
G37*
G36*
X30880Y116876D02*
Y114816D01*
X32944D01*
X32710Y115240D01*
X32374Y115704D01*
X31982Y116122D01*
X31540Y116486D01*
X31056Y116794D01*
X30880Y116876D01*
G37*
G36*
X25006Y115240D02*
X24774Y114816D01*
X26836D01*
Y116876D01*
X26660Y116794D01*
X26176Y116486D01*
X25736Y116122D01*
X25342Y115704D01*
X25006Y115240D01*
G37*
G36*
X139420Y125316D02*
X140000Y125280D01*
X140580Y125316D01*
X141152Y125424D01*
X141704Y125600D01*
X142232Y125842D01*
X142726Y126148D01*
X143180Y126512D01*
X143584Y126930D01*
X143934Y127394D01*
X144224Y127896D01*
X144450Y128432D01*
X144616Y129008D01*
X144696Y129160D01*
X144832Y129262D01*
X145000Y129300D01*
X145168Y129262D01*
X145304Y129160D01*
X145384Y129008D01*
X145550Y128432D01*
X145776Y127896D01*
X146066Y127394D01*
X146416Y126930D01*
X146820Y126512D01*
X147274Y126148D01*
X147768Y125842D01*
X148296Y125600D01*
X148848Y125424D01*
X149420Y125316D01*
X150000Y125280D01*
X150580Y125316D01*
X151152Y125424D01*
X151704Y125600D01*
X152232Y125842D01*
X152726Y126148D01*
X153180Y126512D01*
X153584Y126930D01*
X153934Y127394D01*
X154224Y127896D01*
X154450Y128432D01*
X154610Y128990D01*
X154700Y129564D01*
X154718Y130146D01*
X154664Y130724D01*
X154540Y131292D01*
X154346Y131840D01*
X154086Y132360D01*
X153766Y132844D01*
X153388Y133286D01*
X152958Y133676D01*
X152484Y134012D01*
X151972Y134288D01*
X151430Y134498D01*
X150868Y134638D01*
X150290Y134710D01*
X149710D01*
X149132Y134638D01*
X148570Y134498D01*
X148028Y134288D01*
X147516Y134012D01*
X147042Y133676D01*
X146612Y133286D01*
X146234Y132844D01*
X145914Y132360D01*
X145654Y131840D01*
X145460Y131292D01*
X145390Y130972D01*
X145330Y130830D01*
X145220Y130722D01*
X145076Y130664D01*
X144924D01*
X144780Y130722D01*
X144670Y130830D01*
X144610Y130972D01*
X144540Y131292D01*
X144346Y131840D01*
X144086Y132360D01*
X143766Y132844D01*
X143388Y133286D01*
X142958Y133676D01*
X142484Y134012D01*
X141972Y134288D01*
X141430Y134498D01*
X140868Y134638D01*
X140290Y134710D01*
X139710D01*
X139132Y134638D01*
X138570Y134498D01*
X138028Y134288D01*
X137516Y134012D01*
X137042Y133676D01*
X136612Y133286D01*
X136234Y132844D01*
X135914Y132360D01*
X135654Y131840D01*
X135460Y131292D01*
X135336Y130724D01*
X135284Y130146D01*
X135300Y129564D01*
X135392Y128986D01*
X135550Y128432D01*
X135776Y127896D01*
X136066Y127394D01*
X136416Y126930D01*
X136820Y126512D01*
X137274Y126148D01*
X137768Y125842D01*
X138296Y125600D01*
X138848Y125424D01*
X139420Y125316D01*
G37*
G36*
X132100Y127900D02*
Y125782D01*
X132232Y125842D01*
X132726Y126148D01*
X133180Y126512D01*
X133584Y126930D01*
X133934Y127394D01*
X134226Y127900D01*
X132100D01*
G37*
G36*
X122100Y127900D02*
Y125782D01*
X122232Y125842D01*
X122726Y126148D01*
X123180Y126512D01*
X123584Y126930D01*
X123934Y127394D01*
X124226Y127900D01*
X122100D01*
G37*
G36*
X127768Y125842D02*
X127900Y125782D01*
Y127900D01*
X125774D01*
X126066Y127394D01*
X126416Y126930D01*
X126820Y126512D01*
X127274Y126148D01*
X127768Y125842D01*
G37*
G36*
X117768Y125842D02*
X117900Y125782D01*
Y127900D01*
X115774D01*
X116066Y127394D01*
X116416Y126930D01*
X116820Y126512D01*
X117274Y126148D01*
X117768Y125842D01*
G37*
G36*
X122100Y134218D02*
Y132100D01*
X124216D01*
X124086Y132360D01*
X123766Y132844D01*
X123388Y133286D01*
X122958Y133676D01*
X122484Y134012D01*
X122100Y134218D01*
G37*
G36*
X132100Y134218D02*
Y132100D01*
X134216D01*
X134086Y132360D01*
X133766Y132844D01*
X133388Y133286D01*
X132958Y133676D01*
X132484Y134012D01*
X132100Y134218D01*
G37*
G36*
X125914Y132360D02*
X125784Y132100D01*
X127900D01*
Y134218D01*
X127516Y134012D01*
X127042Y133676D01*
X126612Y133286D01*
X126234Y132844D01*
X125914Y132360D01*
G37*
G36*
X115914Y132360D02*
X115784Y132100D01*
X117900D01*
Y134218D01*
X117516Y134012D01*
X117042Y133676D01*
X116612Y133286D01*
X116234Y132844D01*
X115914Y132360D01*
G37*
G36*
X139146Y155518D02*
X139714Y155446D01*
X140286D01*
X140854Y155518D01*
X141410Y155660D01*
X141942Y155872D01*
X142444Y156148D01*
X142908Y156484D01*
X143326Y156876D01*
X143692Y157318D01*
X143998Y157802D01*
X144242Y158320D01*
X144420Y158866D01*
X144526Y159428D01*
X144562Y160000D01*
X144526Y160572D01*
X144420Y161134D01*
X144242Y161680D01*
X143998Y162198D01*
X143692Y162682D01*
X143326Y163124D01*
X142908Y163516D01*
X142444Y163852D01*
X141942Y164128D01*
X141410Y164340D01*
X140854Y164482D01*
X140286Y164554D01*
X139714D01*
X139146Y164482D01*
X138590Y164340D01*
X138058Y164128D01*
X137556Y163852D01*
X137092Y163516D01*
X136674Y163124D01*
X136308Y162682D01*
X136002Y162198D01*
X135758Y161680D01*
X135580Y161134D01*
X135474Y160572D01*
X135438Y160000D01*
X135474Y159428D01*
X135580Y158866D01*
X135758Y158320D01*
X136002Y157802D01*
X136308Y157318D01*
X136674Y156876D01*
X137092Y156484D01*
X137556Y156148D01*
X138058Y155872D01*
X138590Y155660D01*
X139146Y155518D01*
G37*
G36*
X149146Y155518D02*
X149714Y155446D01*
X150286D01*
X150854Y155518D01*
X151410Y155660D01*
X151942Y155872D01*
X152444Y156148D01*
X152908Y156484D01*
X153326Y156876D01*
X153692Y157318D01*
X153998Y157802D01*
X154242Y158320D01*
X154420Y158866D01*
X154526Y159428D01*
X154562Y160000D01*
X154526Y160572D01*
X154420Y161134D01*
X154242Y161680D01*
X153998Y162198D01*
X153692Y162682D01*
X153326Y163124D01*
X152908Y163516D01*
X152444Y163852D01*
X151942Y164128D01*
X151410Y164340D01*
X150854Y164482D01*
X150286Y164554D01*
X149714D01*
X149146Y164482D01*
X148590Y164340D01*
X148058Y164128D01*
X147556Y163852D01*
X147092Y163516D01*
X146674Y163124D01*
X146308Y162682D01*
X146002Y162198D01*
X145758Y161680D01*
X145580Y161134D01*
X145474Y160572D01*
X145438Y160000D01*
X145474Y159428D01*
X145580Y158866D01*
X145758Y158320D01*
X146002Y157802D01*
X146308Y157318D01*
X146674Y156876D01*
X147092Y156484D01*
X147556Y156148D01*
X148058Y155872D01*
X148590Y155660D01*
X149146Y155518D01*
G37*
G36*
X29598Y156002D02*
X30134Y155984D01*
X30668Y156036D01*
X31190Y156162D01*
X31692Y156354D01*
X32162Y156612D01*
X32594Y156930D01*
X32980Y157304D01*
X33314Y157726D01*
X33588Y158188D01*
X33796Y158682D01*
X33938Y159200D01*
X34010Y159732D01*
Y160268D01*
X33938Y160800D01*
X33796Y161318D01*
X33588Y161812D01*
X33314Y162274D01*
X32980Y162696D01*
X32594Y163070D01*
X32162Y163388D01*
X31692Y163646D01*
X31190Y163838D01*
X30668Y163964D01*
X30134Y164016D01*
X29598Y163998D01*
X29068Y163910D01*
X28556Y163750D01*
X28068Y163524D01*
X27616Y163236D01*
X27206Y162890D01*
X26846Y162490D01*
X26542Y162048D01*
X26300Y161570D01*
X26124Y161062D01*
X26016Y160536D01*
X25980Y160000D01*
X26016Y159464D01*
X26124Y158938D01*
X26300Y158430D01*
X26542Y157952D01*
X26846Y157510D01*
X27206Y157110D01*
X27616Y156764D01*
X28068Y156476D01*
X28556Y156250D01*
X29068Y156090D01*
X29598Y156002D01*
G37*
G36*
X51750Y158250D02*
Y156386D01*
X52162Y156612D01*
X52594Y156930D01*
X52980Y157304D01*
X53314Y157726D01*
X53588Y158188D01*
X53614Y158250D01*
X51750D01*
G37*
G36*
X48068Y156476D02*
X48250Y156392D01*
Y158250D01*
X46392D01*
X46542Y157952D01*
X46846Y157510D01*
X47206Y157110D01*
X47616Y156764D01*
X48068Y156476D01*
G37*
G36*
X46542Y162048D02*
X46392Y161750D01*
X48250D01*
Y163608D01*
X48068Y163524D01*
X47616Y163236D01*
X47206Y162890D01*
X46846Y162490D01*
X46542Y162048D01*
G37*
G36*
X51750Y163614D02*
Y161750D01*
X53614D01*
X53588Y161812D01*
X53314Y162274D01*
X52980Y162696D01*
X52594Y163070D01*
X52162Y163388D01*
X51750Y163614D01*
G37*
G36*
X86002Y162198D02*
X85918Y162022D01*
X87978D01*
Y164084D01*
X87556Y163852D01*
X87092Y163516D01*
X86674Y163124D01*
X86308Y162682D01*
X86002Y162198D01*
G37*
G36*
X146230Y165464D02*
X146480Y165436D01*
X153520D01*
X153770Y165464D01*
X153984Y165540D01*
X154178Y165662D01*
X154338Y165822D01*
X154460Y166016D01*
X154536Y166230D01*
X154564Y166480D01*
Y173520D01*
X154536Y173770D01*
X154460Y173984D01*
X154338Y174178D01*
X154178Y174338D01*
X153984Y174460D01*
X153770Y174536D01*
X153520Y174564D01*
X146480D01*
X146230Y174536D01*
X146016Y174460D01*
X145822Y174338D01*
X145662Y174178D01*
X145540Y173984D01*
X145464Y173770D01*
X145436Y173520D01*
Y166480D01*
X145464Y166230D01*
X145540Y166016D01*
X145662Y165822D01*
X145822Y165662D01*
X146016Y165540D01*
X146230Y165464D01*
G37*
G36*
X119146Y165518D02*
X119714Y165446D01*
X120286D01*
X120854Y165518D01*
X121410Y165660D01*
X121942Y165872D01*
X122444Y166148D01*
X122908Y166484D01*
X123326Y166876D01*
X123692Y167318D01*
X123998Y167802D01*
X124242Y168320D01*
X124420Y168866D01*
X124526Y169428D01*
X124562Y170000D01*
X124526Y170572D01*
X124420Y171134D01*
X124242Y171680D01*
X123998Y172198D01*
X123692Y172682D01*
X123326Y173124D01*
X122908Y173516D01*
X122444Y173852D01*
X121942Y174128D01*
X121410Y174340D01*
X120854Y174482D01*
X120286Y174554D01*
X119714D01*
X119146Y174482D01*
X118590Y174340D01*
X118058Y174128D01*
X117556Y173852D01*
X117092Y173516D01*
X116674Y173124D01*
X116308Y172682D01*
X116002Y172198D01*
X115758Y171680D01*
X115580Y171134D01*
X115474Y170572D01*
X115438Y170000D01*
X115474Y169428D01*
X115580Y168866D01*
X115758Y168320D01*
X116002Y167802D01*
X116308Y167318D01*
X116674Y166876D01*
X117092Y166484D01*
X117556Y166148D01*
X118058Y165872D01*
X118590Y165660D01*
X119146Y165518D01*
G37*
G36*
X139146Y165518D02*
X139714Y165446D01*
X140286D01*
X140854Y165518D01*
X141410Y165660D01*
X141942Y165872D01*
X142444Y166148D01*
X142908Y166484D01*
X143326Y166876D01*
X143692Y167318D01*
X143998Y167802D01*
X144242Y168320D01*
X144420Y168866D01*
X144526Y169428D01*
X144562Y170000D01*
X144526Y170572D01*
X144420Y171134D01*
X144242Y171680D01*
X143998Y172198D01*
X143692Y172682D01*
X143326Y173124D01*
X142908Y173516D01*
X142444Y173852D01*
X141942Y174128D01*
X141410Y174340D01*
X140854Y174482D01*
X140286Y174554D01*
X139714D01*
X139146Y174482D01*
X138590Y174340D01*
X138058Y174128D01*
X137556Y173852D01*
X137092Y173516D01*
X136674Y173124D01*
X136308Y172682D01*
X136002Y172198D01*
X135758Y171680D01*
X135580Y171134D01*
X135474Y170572D01*
X135438Y170000D01*
X135474Y169428D01*
X135580Y168866D01*
X135758Y168320D01*
X136002Y167802D01*
X136308Y167318D01*
X136674Y166876D01*
X137092Y166484D01*
X137556Y166148D01*
X138058Y165872D01*
X138590Y165660D01*
X139146Y165518D01*
G37*
G36*
X129146Y165518D02*
X129714Y165446D01*
X130286D01*
X130854Y165518D01*
X131410Y165660D01*
X131942Y165872D01*
X132444Y166148D01*
X132908Y166484D01*
X133326Y166876D01*
X133692Y167318D01*
X133998Y167802D01*
X134242Y168320D01*
X134420Y168866D01*
X134526Y169428D01*
X134562Y170000D01*
X134526Y170572D01*
X134420Y171134D01*
X134242Y171680D01*
X133998Y172198D01*
X133692Y172682D01*
X133326Y173124D01*
X132908Y173516D01*
X132444Y173852D01*
X131942Y174128D01*
X131410Y174340D01*
X130854Y174482D01*
X130286Y174554D01*
X129714D01*
X129146Y174482D01*
X128590Y174340D01*
X128058Y174128D01*
X127556Y173852D01*
X127092Y173516D01*
X126674Y173124D01*
X126308Y172682D01*
X126002Y172198D01*
X125758Y171680D01*
X125580Y171134D01*
X125474Y170572D01*
X125438Y170000D01*
X125474Y169428D01*
X125580Y168866D01*
X125758Y168320D01*
X126002Y167802D01*
X126308Y167318D01*
X126674Y166876D01*
X127092Y166484D01*
X127556Y166148D01*
X128058Y165872D01*
X128590Y165660D01*
X129146Y165518D01*
G37*
G36*
X87556Y166148D02*
X87978Y165916D01*
Y167978D01*
X85918D01*
X86002Y167802D01*
X86308Y167318D01*
X86674Y166876D01*
X87092Y166484D01*
X87556Y166148D01*
G37*
G36*
X92022Y167978D02*
Y165916D01*
X92444Y166148D01*
X92908Y166484D01*
X93326Y166876D01*
X93692Y167318D01*
X93998Y167802D01*
X94082Y167978D01*
X92022D01*
G37*
G36*
X29598Y166002D02*
X30134Y165984D01*
X30668Y166036D01*
X31190Y166162D01*
X31692Y166354D01*
X32162Y166612D01*
X32594Y166930D01*
X32980Y167304D01*
X33314Y167726D01*
X33588Y168188D01*
X33796Y168682D01*
X33938Y169200D01*
X34010Y169732D01*
Y170268D01*
X33938Y170800D01*
X33796Y171318D01*
X33588Y171812D01*
X33314Y172274D01*
X32980Y172696D01*
X32594Y173070D01*
X32162Y173388D01*
X31692Y173646D01*
X31190Y173838D01*
X30668Y173964D01*
X30134Y174016D01*
X29598Y173998D01*
X29068Y173910D01*
X28556Y173750D01*
X28068Y173524D01*
X27616Y173236D01*
X27206Y172890D01*
X26846Y172490D01*
X26542Y172048D01*
X26300Y171570D01*
X26124Y171062D01*
X26016Y170536D01*
X25980Y170000D01*
X26016Y169464D01*
X26124Y168938D01*
X26300Y168430D01*
X26542Y167952D01*
X26846Y167510D01*
X27206Y167110D01*
X27616Y166764D01*
X28068Y166476D01*
X28556Y166250D01*
X29068Y166090D01*
X29598Y166002D01*
G37*
G36*
X49598Y166002D02*
X50134Y165984D01*
X50668Y166036D01*
X51190Y166162D01*
X51692Y166354D01*
X52162Y166612D01*
X52594Y166930D01*
X52980Y167304D01*
X53314Y167726D01*
X53588Y168188D01*
X53796Y168682D01*
X53938Y169200D01*
X54010Y169732D01*
Y170268D01*
X53938Y170800D01*
X53796Y171318D01*
X53588Y171812D01*
X53314Y172274D01*
X52980Y172696D01*
X52594Y173070D01*
X52162Y173388D01*
X51692Y173646D01*
X51190Y173838D01*
X50668Y173964D01*
X50134Y174016D01*
X49598Y173998D01*
X49068Y173910D01*
X48556Y173750D01*
X48068Y173524D01*
X47616Y173236D01*
X47206Y172890D01*
X46846Y172490D01*
X46542Y172048D01*
X46300Y171570D01*
X46124Y171062D01*
X46016Y170536D01*
X45980Y170000D01*
X46016Y169464D01*
X46124Y168938D01*
X46300Y168430D01*
X46542Y167952D01*
X46846Y167510D01*
X47206Y167110D01*
X47616Y166764D01*
X48068Y166476D01*
X48556Y166250D01*
X49068Y166090D01*
X49598Y166002D01*
G37*
G36*
X41750Y168250D02*
Y166386D01*
X42162Y166612D01*
X42594Y166930D01*
X42980Y167304D01*
X43314Y167726D01*
X43588Y168188D01*
X43614Y168250D01*
X41750D01*
G37*
G36*
X38068Y166476D02*
X38250Y166392D01*
Y168250D01*
X36392D01*
X36542Y167952D01*
X36846Y167510D01*
X37206Y167110D01*
X37616Y166764D01*
X38068Y166476D01*
G37*
G36*
X36542Y172048D02*
X36392Y171750D01*
X38250D01*
Y173608D01*
X38068Y173524D01*
X37616Y173236D01*
X37206Y172890D01*
X36846Y172490D01*
X36542Y172048D01*
G37*
G36*
X41750Y173614D02*
Y171750D01*
X43614D01*
X43588Y171812D01*
X43314Y172274D01*
X42980Y172696D01*
X42594Y173070D01*
X42162Y173388D01*
X41750Y173614D01*
G37*
G36*
X92022Y174084D02*
Y172022D01*
X94082D01*
X93998Y172198D01*
X93692Y172682D01*
X93326Y173124D01*
X92908Y173516D01*
X92444Y173852D01*
X92022Y174084D01*
G37*
G36*
X86002Y172198D02*
X85918Y172022D01*
X87978D01*
Y174084D01*
X87556Y173852D01*
X87092Y173516D01*
X86674Y173124D01*
X86308Y172682D01*
X86002Y172198D01*
G37*
G36*
X168892Y192766D02*
X169630Y192690D01*
X170370D01*
X171108Y192766D01*
X171834Y192914D01*
X172542Y193136D01*
X173224Y193430D01*
X173872Y193790D01*
X174480Y194212D01*
X175042Y194696D01*
X175554Y195232D01*
X176006Y195820D01*
X176400Y196448D01*
X176726Y197114D01*
X176984Y197810D01*
X177168Y198526D01*
X177282Y199260D01*
X177318Y200000D01*
X177282Y200740D01*
X177168Y201474D01*
X176984Y202190D01*
X176726Y202886D01*
X176400Y203552D01*
X176006Y204180D01*
X175554Y204768D01*
X175042Y205304D01*
X174480Y205788D01*
X173872Y206210D01*
X173224Y206570D01*
X172542Y206864D01*
X171834Y207086D01*
X171108Y207234D01*
X170370Y207310D01*
X169630D01*
X168892Y207234D01*
X168166Y207086D01*
X167458Y206864D01*
X166776Y206570D01*
X166128Y206210D01*
X165520Y205788D01*
X164958Y205304D01*
X164446Y204768D01*
X163994Y204180D01*
X163600Y203552D01*
X163274Y202886D01*
X163016Y202190D01*
X162832Y201474D01*
X162718Y200740D01*
X162682Y200000D01*
X162718Y199260D01*
X162832Y198526D01*
X163016Y197810D01*
X163274Y197114D01*
X163600Y196448D01*
X163994Y195820D01*
X164446Y195232D01*
X164958Y194696D01*
X165520Y194212D01*
X166128Y193790D01*
X166776Y193430D01*
X167458Y193136D01*
X168166Y192914D01*
X168892Y192766D01*
G37*
G36*
X8892Y192766D02*
X9630Y192690D01*
X10370D01*
X11108Y192766D01*
X11834Y192914D01*
X12542Y193136D01*
X13224Y193430D01*
X13872Y193790D01*
X14480Y194212D01*
X15042Y194696D01*
X15554Y195232D01*
X16006Y195820D01*
X16400Y196448D01*
X16726Y197114D01*
X16984Y197810D01*
X17168Y198526D01*
X17282Y199260D01*
X17318Y200000D01*
X17282Y200740D01*
X17168Y201474D01*
X16984Y202190D01*
X16726Y202886D01*
X16400Y203552D01*
X16006Y204180D01*
X15554Y204768D01*
X15042Y205304D01*
X14480Y205788D01*
X13872Y206210D01*
X13224Y206570D01*
X12542Y206864D01*
X11834Y207086D01*
X11108Y207234D01*
X10370Y207310D01*
X9630D01*
X8892Y207234D01*
X8166Y207086D01*
X7458Y206864D01*
X6776Y206570D01*
X6128Y206210D01*
X5520Y205788D01*
X4958Y205304D01*
X4446Y204768D01*
X3994Y204180D01*
X3600Y203552D01*
X3274Y202886D01*
X3016Y202190D01*
X2832Y201474D01*
X2718Y200740D01*
X2682Y200000D01*
X2718Y199260D01*
X2832Y198526D01*
X3016Y197810D01*
X3274Y197114D01*
X3600Y196448D01*
X3994Y195820D01*
X4446Y195232D01*
X4958Y194696D01*
X5520Y194212D01*
X6128Y193790D01*
X6776Y193430D01*
X7458Y193136D01*
X8166Y192914D01*
X8892Y192766D01*
G37*
%LPD*%
G36*
X43242Y157466D02*
X42994Y160188D01*
X39812Y157006D01*
X42534Y156758D01*
X43242Y157466D01*
G37*
G36*
X147552Y37224D02*
Y42776D01*
X144962Y40500D01*
Y39500D01*
X147552Y37224D01*
G37*
G36*
X50232Y73692D02*
X46792Y73916D01*
X46084Y73208D01*
X46308Y69768D01*
X50232Y73692D01*
G37*
G36*
X113916Y66792D02*
X113692Y70232D01*
X109768Y66308D01*
X113208Y66084D01*
X113916Y66792D01*
G37*
G36*
X130232Y73692D02*
X126792Y73916D01*
X126084Y73208D01*
X126308Y69768D01*
X130232Y73692D01*
G37*
G36*
X103916Y133208D02*
X103208Y133916D01*
X99768Y133692D01*
X103692Y129768D01*
X103916Y133208D01*
G37*
G36*
X83916Y133208D02*
X83208Y133916D01*
X79768Y133692D01*
X83692Y129768D01*
X83916Y133208D01*
G37*
G36*
X73916Y133208D02*
X73208Y133916D01*
X69768Y133692D01*
X73692Y129768D01*
X73916Y133208D01*
G37*
G36*
X53916Y133208D02*
X53208Y133916D01*
X49768Y133692D01*
X53692Y129768D01*
X53916Y133208D01*
G37*
G36*
X130222Y156464D02*
X126464Y160222D01*
X126236Y156942D01*
X126942Y156236D01*
X130222Y156464D01*
G37*
G36*
X120222Y156464D02*
X116464Y160222D01*
X116236Y156942D01*
X116942Y156236D01*
X120222Y156464D01*
G37*
G36*
X110222Y166464D02*
X106464Y170222D01*
X106236Y166942D01*
X106942Y166236D01*
X110222Y166464D01*
G37*
G36*
X100222Y166464D02*
X96464Y170222D01*
X96236Y166942D01*
X96942Y166236D01*
X100222Y166464D01*
G37*
G36*
X14906Y84148D02*
X14678Y87426D01*
X10920Y83668D01*
X14200Y83440D01*
X14906Y84148D01*
G37*
G54D10*
X40000Y160000D02*
G01X45194Y154806D01*
Y74806D01*
X50000Y70000D01*
X100000Y130000D02*
X130000Y160000D01*
X80000Y130000D02*
X101696Y151696D01*
X111696D01*
X120000Y160000D01*
X70000Y130000D02*
X93653Y153653D01*
X100279D01*
X105000Y158374D01*
Y165000D01*
X110000Y170000D01*
X50000Y130000D02*
X75259Y155259D01*
X92513D01*
X95000Y157746D01*
Y165000D01*
X100000Y170000D01*
X130000Y70000D02*
X124531Y75469D01*
X98438D01*
X95000Y72031D01*
Y67758D01*
X91762Y64520D01*
X47952D01*
X45000Y67472D01*
Y72263D01*
X39710Y77553D01*
X20794D01*
X11142Y87205D01*
X150000Y40000D02*
X140000D01*
X110000Y70000D01*
G54D12*
X11142Y87205D03*
Y112795D03*
X28858Y87205D03*
Y112795D03*
X90000Y160000D03*
Y170000D03*
X100000Y160000D03*
Y170000D03*
X110000Y160000D03*
Y170000D03*
X120000Y160000D03*
Y170000D03*
X130000Y160000D03*
Y170000D03*
X140000Y160000D03*
Y170000D03*
X150000Y160000D03*
G54D13*
Y170000D03*
G54D14*
X40000Y130000D03*
X50000D03*
X60000D03*
X70000D03*
X80000D03*
X90000D03*
X100000D03*
X110000D03*
X120000D03*
X130000D03*
X140000D03*
X150000D03*
Y70000D03*
X140000D03*
X130000D03*
X120000D03*
X110000D03*
X100000D03*
X90000D03*
X80000D03*
X70000D03*
X60000D03*
X50000D03*
X40000D03*
G54D15*
X60000Y30000D03*
G54D14*
Y40000D03*
Y50000D03*
G54D15*
X90000Y30000D03*
G54D14*
Y40000D03*
Y50000D03*
G54D15*
X150000Y30000D03*
G54D14*
Y40000D03*
Y50000D03*
G54D16*
X50000Y170000D03*
Y160000D03*
X40000Y170000D03*
Y160000D03*
X30000Y170000D03*
Y160000D03*
G54D15*
X120000Y30000D03*
G54D14*
Y40000D03*
Y50000D03*
G54D15*
X30000Y40000D03*
G54D14*
Y50000D03*
M02*
