M48
;FILE_FORMAT=2:5
INCH,TZ
T1F00S00C0.01205
T2F00S00C0.03937
%
T1
X61051Y41791
T2
X71929Y11811
X61929
X36929Y298150
X96929
X86929
X76929
X66929
X56929
X46929
X36929Y308150
X46929
X56929
X66929
X76929
X86929
X96929
X22638Y276575
X48228
X22638Y258858
X48228
X22638Y229331
X48228
X22638Y211614
X48228
X22638Y182087
X48228
X22638Y164370
X48228
X22638Y134843
X48228
X22638Y117126
X48228
X22638Y87598
X48228
X22638Y69882
X48228
X22638Y40354
X48228
X22638Y22638
X48228
X85630Y276575
X111220
X85630Y258858
X111220
X85630Y229331
X111220
X85630Y211614
X111220
X85630Y182087
X111220
X85630Y164370
X111220
X85630Y134843
X111220
X85630Y117126
X111220
X85630Y87598
X111220
X85630Y69882
X111220
X85630Y40354
X111220
X85630Y22638
X111220
M30
