%FSLAX25Y25*%
%MOIN*%
%ADD19C,0.07480315*%
%IPPOS*%
G75*
G54D19*
X71930Y11810D03*
G36*
X65670Y8070D02*
G01X58190D01*
Y15550D01*
X65670D01*
Y8070D01*
G37*
G54D19*
X36929Y298150D03*
X96929D03*
X86929D03*
X76929D03*
X66929D03*
X56929D03*
X46929D03*
G36*
X40670Y304250D02*
G01X33190D01*
Y312050D01*
X40670D01*
Y304250D01*
G37*
G54D19*
X46929Y308150D03*
X56929D03*
X66929D03*
X76929D03*
X86929D03*
X96929D03*
G36*
X75930Y240710D02*
G01X69690D01*
Y247480D01*
X75930D01*
Y240710D01*
G37*
G36*
X64170Y240710D02*
X57930D01*
Y247480D01*
X64170D01*
Y240710D01*
G37*
G36*
X75930Y146220D02*
X69690D01*
Y152990D01*
X75930D01*
Y146220D01*
G37*
G36*
X64170Y146220D02*
X57930D01*
Y152990D01*
X64170D01*
Y146220D01*
G37*
G36*
X75930Y51730D02*
X69690D01*
Y58500D01*
X75930D01*
Y51730D01*
G37*
G36*
X64170Y51730D02*
X57930D01*
Y58500D01*
X64170D01*
Y51730D01*
G37*
G36*
X74410Y216100D02*
X67320D01*
Y221250D01*
X74410D01*
Y216100D01*
G37*
G36*
X74410Y227740D02*
X67320D01*
Y232890D01*
X74410D01*
Y227740D01*
G37*
G36*
X74410Y121530D02*
X67320D01*
Y126670D01*
X74410D01*
Y121530D01*
G37*
G36*
X74410Y133170D02*
X67320D01*
Y138320D01*
X74410D01*
Y133170D01*
G37*
G36*
X74410Y27040D02*
X67320D01*
Y32190D01*
X74410D01*
Y27040D01*
G37*
G36*
X74410Y38680D02*
X67320D01*
Y43830D01*
X74410D01*
Y38680D01*
G37*
G54D19*
X22638Y276574D03*
X48228D03*
X22638Y258858D03*
X48228D03*
X22638Y229330D03*
X48228D03*
X22638Y211614D03*
X48228D03*
X22638Y182086D03*
X48228D03*
X22638Y164370D03*
X48228D03*
X22638Y134842D03*
X48228D03*
X22638Y117126D03*
X48228D03*
X22638Y87598D03*
X48228D03*
X22638Y69882D03*
X48228D03*
X22638Y40354D03*
X48228D03*
X22638Y22638D03*
X48228D03*
X85630Y276574D03*
X111220D03*
X85630Y258858D03*
X111220D03*
X85630Y229330D03*
X111220D03*
X85630Y211614D03*
X111220D03*
X85630Y182086D03*
X111220D03*
X85630Y164370D03*
X111220D03*
X85630Y134842D03*
X111220D03*
X85630Y117126D03*
X111220D03*
X85630Y87598D03*
X111220D03*
X85630Y69882D03*
X111220D03*
X85630Y40354D03*
X111220D03*
X85630Y22638D03*
X111220D03*
M02*
