%FSLAX25Y25*%
%MOIN*%
%ADD10C,0.01000000*%
%ADD11C,0.02401575*%
%ADD14C,0.07086614*%
%ADD15R,0.0708661X0.0708661*%
%ADD16R,0.0708661X0.074*%
%IPPOS*%
G75*
G36*
X132438Y1020D02*
G01X1420D01*
X1266Y1050D01*
X1138Y1138D01*
X1050Y1266D01*
X1020Y1420D01*
Y321414D01*
X1050Y321568D01*
X1138Y321698D01*
X1266Y321784D01*
X1420Y321814D01*
X132438D01*
X132592Y321784D01*
X132722Y321698D01*
X132808Y321568D01*
X132838Y321414D01*
Y1420D01*
X132808Y1266D01*
X132722Y1138D01*
X132592Y1050D01*
X132438Y1020D01*
G37*
%LPC*%
G36*
X123350Y3938D02*
X124016Y3902D01*
X124682Y3938D01*
X125338Y4050D01*
X125978Y4234D01*
X126594Y4490D01*
X127176Y4812D01*
X127720Y5198D01*
X128216Y5642D01*
X128660Y6138D01*
X129046Y6682D01*
X129368Y7264D01*
X129624Y7880D01*
X129808Y8520D01*
X129920Y9176D01*
X129956Y9842D01*
X129920Y10508D01*
X129808Y11164D01*
X129624Y11804D01*
X129368Y12420D01*
X129046Y13002D01*
X128660Y13546D01*
X128216Y14042D01*
X127720Y14486D01*
X127176Y14872D01*
X126594Y15194D01*
X125978Y15450D01*
X125338Y15634D01*
X124682Y15746D01*
X124016Y15782D01*
X123350Y15746D01*
X122694Y15634D01*
X122054Y15450D01*
X121438Y15194D01*
X120856Y14872D01*
X120312Y14486D01*
X119816Y14042D01*
X119372Y13546D01*
X118986Y13002D01*
X118664Y12420D01*
X118408Y11804D01*
X118224Y11164D01*
X118112Y10508D01*
X118076Y9842D01*
X118112Y9176D01*
X118224Y8520D01*
X118408Y7880D01*
X118664Y7264D01*
X118986Y6682D01*
X119372Y6138D01*
X119816Y5642D01*
X120312Y5198D01*
X120856Y4812D01*
X121438Y4490D01*
X122054Y4234D01*
X122694Y4050D01*
X123350Y3938D01*
G37*
G36*
X9178Y3938D02*
X9844Y3902D01*
X10508Y3938D01*
X11164Y4050D01*
X11806Y4234D01*
X12420Y4490D01*
X13004Y4812D01*
X13546Y5198D01*
X14044Y5642D01*
X14488Y6138D01*
X14874Y6682D01*
X15196Y7264D01*
X15450Y7880D01*
X15634Y8520D01*
X15746Y9176D01*
X15784Y9842D01*
X15746Y10508D01*
X15634Y11164D01*
X15450Y11804D01*
X15196Y12420D01*
X14874Y13002D01*
X14488Y13546D01*
X14044Y14042D01*
X13546Y14486D01*
X13004Y14872D01*
X12420Y15194D01*
X11806Y15450D01*
X11164Y15634D01*
X10508Y15746D01*
X9844Y15782D01*
X9178Y15746D01*
X8522Y15634D01*
X7880Y15450D01*
X7266Y15194D01*
X6682Y14872D01*
X6140Y14486D01*
X5642Y14042D01*
X5198Y13546D01*
X4812Y13002D01*
X4490Y12420D01*
X4236Y11804D01*
X4052Y11164D01*
X3940Y10508D01*
X3902Y9842D01*
X3940Y9176D01*
X4052Y8520D01*
X4236Y7880D01*
X4490Y7264D01*
X4812Y6682D01*
X5198Y6138D01*
X5642Y5642D01*
X6140Y5198D01*
X6682Y4812D01*
X7266Y4490D01*
X7880Y4234D01*
X8522Y4050D01*
X9178Y3938D01*
G37*
G36*
X58160Y7274D02*
X58410Y7246D01*
X65450D01*
X65700Y7274D01*
X65914Y7350D01*
X66108Y7472D01*
X66268Y7632D01*
X66390Y7826D01*
X66466Y8040D01*
X66494Y8290D01*
Y15330D01*
X66466Y15580D01*
X66390Y15794D01*
X66268Y15988D01*
X66108Y16148D01*
X65914Y16270D01*
X65700Y16346D01*
X65450Y16374D01*
X63850D01*
X63696Y16404D01*
X63568Y16490D01*
X63480Y16620D01*
X63450Y16774D01*
Y40894D01*
X63418Y41210D01*
X63332Y41494D01*
X63276Y41636D01*
X63272Y41790D01*
X63238Y42176D01*
X63138Y42550D01*
X62974Y42900D01*
X62754Y43218D01*
X62480Y43490D01*
X62162Y43712D01*
X61812Y43876D01*
X61438Y43976D01*
X61054Y44010D01*
X60668Y43976D01*
X60294Y43876D01*
X59944Y43712D01*
X59626Y43490D01*
X59482Y43346D01*
X59352Y43260D01*
X59200Y43228D01*
X59046Y43260D01*
X58916Y43346D01*
X58830Y43476D01*
X58800Y43628D01*
Y55904D01*
X58830Y56056D01*
X58916Y56186D01*
X67990Y65260D01*
X68192Y65506D01*
X68332Y65768D01*
X68418Y66052D01*
X68450Y66368D01*
Y293582D01*
X68480Y293738D01*
X68570Y293868D01*
X68702Y293954D01*
X68872Y294022D01*
X69374Y294298D01*
X69838Y294634D01*
X70256Y295026D01*
X70620Y295468D01*
X70928Y295952D01*
X71172Y296470D01*
X71348Y297014D01*
X71456Y297578D01*
X71492Y298150D01*
X71456Y298722D01*
X71348Y299284D01*
X71172Y299830D01*
X70928Y300348D01*
X70620Y300832D01*
X70256Y301272D01*
X69838Y301666D01*
X69374Y302002D01*
X68872Y302278D01*
X68338Y302488D01*
X67784Y302632D01*
X67216Y302704D01*
X66642D01*
X66074Y302632D01*
X65520Y302488D01*
X64986Y302278D01*
X64484Y302002D01*
X64084Y301712D01*
X63924Y301642D01*
X63750Y301648D01*
X63594Y301726D01*
X63488Y301864D01*
X63450Y302034D01*
Y302354D01*
X63480Y302508D01*
X63566Y302638D01*
X64774Y303846D01*
X64902Y303932D01*
X65054Y303962D01*
X65204Y303934D01*
X65520Y303810D01*
X66074Y303668D01*
X66642Y303596D01*
X67216D01*
X67784Y303668D01*
X68338Y303810D01*
X68872Y304022D01*
X69374Y304298D01*
X69838Y304634D01*
X70256Y305026D01*
X70620Y305468D01*
X70928Y305952D01*
X71172Y306470D01*
X71348Y307014D01*
X71456Y307578D01*
X71492Y308150D01*
X71456Y308722D01*
X71348Y309284D01*
X71172Y309830D01*
X70928Y310348D01*
X70620Y310832D01*
X70256Y311272D01*
X69838Y311666D01*
X69374Y312002D01*
X68872Y312278D01*
X68338Y312488D01*
X67784Y312632D01*
X67216Y312704D01*
X66642D01*
X66074Y312632D01*
X65520Y312488D01*
X64986Y312278D01*
X64484Y312002D01*
X64020Y311666D01*
X63604Y311272D01*
X63238Y310832D01*
X62930Y310348D01*
X62686Y309830D01*
X62510Y309284D01*
X62402Y308722D01*
X62366Y308150D01*
X62402Y307578D01*
X62510Y307014D01*
X62686Y306470D01*
X62738Y306286D01*
X62710Y306126D01*
X62620Y305990D01*
X60868Y304238D01*
X60666Y303994D01*
X60526Y303730D01*
X60440Y303446D01*
X60410Y303130D01*
Y302034D01*
X60370Y301864D01*
X60264Y301726D01*
X60108Y301648D01*
X59934Y301642D01*
X59774Y301712D01*
X59374Y302002D01*
X58872Y302278D01*
X58338Y302488D01*
X57784Y302632D01*
X57216Y302704D01*
X56642D01*
X56074Y302632D01*
X55520Y302488D01*
X54986Y302278D01*
X54484Y302002D01*
X54020Y301666D01*
X53604Y301272D01*
X53238Y300832D01*
X52930Y300348D01*
X52686Y299830D01*
X52510Y299284D01*
X52402Y298722D01*
X52366Y298150D01*
X52402Y297578D01*
X52510Y297014D01*
X52686Y296470D01*
X52930Y295952D01*
X53238Y295468D01*
X53604Y295026D01*
X54020Y294634D01*
X54484Y294298D01*
X54986Y294022D01*
X55520Y293810D01*
X56074Y293668D01*
X56642Y293596D01*
X57216D01*
X57784Y293668D01*
X58338Y293810D01*
X58872Y294022D01*
X59374Y294298D01*
X59774Y294588D01*
X59934Y294658D01*
X60108Y294652D01*
X60264Y294572D01*
X60370Y294434D01*
X60410Y294264D01*
Y84378D01*
X60378Y84224D01*
X60292Y84096D01*
X50382Y74186D01*
X50254Y74100D01*
X50104Y74068D01*
X49952Y74096D01*
X49638Y74222D01*
X49084Y74364D01*
X48514Y74436D01*
X47942D01*
X47374Y74364D01*
X46818Y74222D01*
X46286Y74010D01*
X45784Y73734D01*
X45320Y73398D01*
X44902Y73006D01*
X44538Y72564D01*
X44230Y72080D01*
X44020Y71632D01*
X43932Y71510D01*
X43804Y71430D01*
X43658Y71402D01*
X27208D01*
X27062Y71430D01*
X26936Y71510D01*
X26848Y71632D01*
X26636Y72080D01*
X26328Y72564D01*
X25964Y73006D01*
X25546Y73398D01*
X25082Y73734D01*
X24580Y74010D01*
X24048Y74222D01*
X23492Y74364D01*
X22924Y74436D01*
X22352D01*
X21782Y74364D01*
X21228Y74222D01*
X20696Y74010D01*
X20194Y73734D01*
X19730Y73398D01*
X19312Y73006D01*
X18946Y72564D01*
X18640Y72080D01*
X18396Y71562D01*
X18218Y71016D01*
X18112Y70454D01*
X18076Y69882D01*
X18112Y69310D01*
X18218Y68748D01*
X18396Y68202D01*
X18640Y67684D01*
X18946Y67200D01*
X19312Y66758D01*
X19730Y66366D01*
X20194Y66030D01*
X20696Y65754D01*
X21228Y65542D01*
X21782Y65400D01*
X22352Y65328D01*
X22924D01*
X23492Y65400D01*
X24048Y65542D01*
X24580Y65754D01*
X25082Y66030D01*
X25546Y66366D01*
X25964Y66758D01*
X26328Y67200D01*
X26636Y67684D01*
X26846Y68132D01*
X26934Y68254D01*
X27062Y68334D01*
X27208Y68362D01*
X43658D01*
X43804Y68334D01*
X43932Y68254D01*
X44020Y68132D01*
X44230Y67684D01*
X44538Y67200D01*
X44902Y66758D01*
X45320Y66366D01*
X45784Y66030D01*
X46286Y65754D01*
X46818Y65542D01*
X47374Y65400D01*
X47942Y65328D01*
X48514D01*
X49084Y65400D01*
X49638Y65542D01*
X50172Y65754D01*
X50674Y66030D01*
X51136Y66366D01*
X51554Y66758D01*
X51920Y67200D01*
X52226Y67684D01*
X52470Y68202D01*
X52648Y68748D01*
X52754Y69310D01*
X52790Y69882D01*
X52754Y70454D01*
X52648Y71016D01*
X52470Y71562D01*
X52420Y71746D01*
X52448Y71906D01*
X52538Y72042D01*
X62990Y82494D01*
X63192Y82740D01*
X63332Y83002D01*
X63418Y83286D01*
X63450Y83602D01*
Y294264D01*
X63488Y294434D01*
X63594Y294572D01*
X63750Y294652D01*
X63924Y294658D01*
X64084Y294588D01*
X64484Y294298D01*
X64986Y294022D01*
X65156Y293954D01*
X65288Y293868D01*
X65378Y293738D01*
X65410Y293582D01*
Y67144D01*
X65378Y66990D01*
X65292Y66862D01*
X56218Y57788D01*
X56016Y57542D01*
X55876Y57280D01*
X55790Y56994D01*
X55760Y56680D01*
Y32484D01*
X55728Y32330D01*
X55642Y32202D01*
X50382Y26942D01*
X50254Y26856D01*
X50104Y26824D01*
X49952Y26852D01*
X49638Y26976D01*
X49084Y27120D01*
X48514Y27192D01*
X47942D01*
X47374Y27120D01*
X46818Y26976D01*
X46286Y26766D01*
X45784Y26490D01*
X45320Y26154D01*
X44902Y25762D01*
X44538Y25320D01*
X44230Y24836D01*
X44020Y24388D01*
X43932Y24266D01*
X43804Y24186D01*
X43658Y24158D01*
X27208D01*
X27062Y24186D01*
X26936Y24266D01*
X26846Y24388D01*
X26636Y24836D01*
X26328Y25320D01*
X25964Y25762D01*
X25546Y26154D01*
X25082Y26490D01*
X24580Y26766D01*
X24048Y26976D01*
X23492Y27120D01*
X22924Y27192D01*
X22352D01*
X21782Y27120D01*
X21228Y26976D01*
X20696Y26766D01*
X20194Y26490D01*
X19730Y26154D01*
X19312Y25762D01*
X18946Y25320D01*
X18640Y24836D01*
X18396Y24318D01*
X18218Y23772D01*
X18112Y23210D01*
X18076Y22638D01*
X18112Y22066D01*
X18218Y21504D01*
X18396Y20958D01*
X18640Y20440D01*
X18946Y19956D01*
X19312Y19514D01*
X19730Y19122D01*
X20194Y18786D01*
X20696Y18510D01*
X21228Y18298D01*
X21782Y18156D01*
X22352Y18084D01*
X22924D01*
X23492Y18156D01*
X24048Y18298D01*
X24580Y18510D01*
X25082Y18786D01*
X25546Y19122D01*
X25964Y19514D01*
X26328Y19956D01*
X26636Y20440D01*
X26846Y20888D01*
X26934Y21010D01*
X27062Y21090D01*
X27208Y21118D01*
X43658D01*
X43804Y21090D01*
X43932Y21010D01*
X44020Y20888D01*
X44230Y20440D01*
X44538Y19956D01*
X44902Y19514D01*
X45320Y19122D01*
X45784Y18786D01*
X46286Y18510D01*
X46818Y18298D01*
X47374Y18156D01*
X47942Y18084D01*
X48514D01*
X49084Y18156D01*
X49638Y18298D01*
X50172Y18510D01*
X50674Y18786D01*
X51136Y19122D01*
X51554Y19514D01*
X51920Y19956D01*
X52226Y20440D01*
X52470Y20958D01*
X52648Y21504D01*
X52754Y22066D01*
X52790Y22638D01*
X52754Y23210D01*
X52648Y23772D01*
X52470Y24318D01*
X52420Y24502D01*
X52448Y24662D01*
X52538Y24798D01*
X58340Y30600D01*
X58542Y30846D01*
X58682Y31108D01*
X58768Y31392D01*
X58800Y31708D01*
Y39952D01*
X58830Y40106D01*
X58916Y40236D01*
X59046Y40322D01*
X59200Y40352D01*
X59352Y40322D01*
X59482Y40236D01*
X59626Y40090D01*
X59944Y39868D01*
X60180Y39758D01*
X60300Y39670D01*
X60382Y39544D01*
X60410Y39396D01*
Y16774D01*
X60380Y16620D01*
X60292Y16490D01*
X60164Y16404D01*
X60010Y16374D01*
X58410D01*
X58160Y16346D01*
X57946Y16270D01*
X57752Y16148D01*
X57592Y15988D01*
X57470Y15794D01*
X57394Y15580D01*
X57366Y15330D01*
Y8290D01*
X57394Y8040D01*
X57470Y7826D01*
X57592Y7632D01*
X57752Y7472D01*
X57946Y7350D01*
X58160Y7274D01*
G37*
G36*
X71076Y7328D02*
X71644Y7256D01*
X72216D01*
X72784Y7328D01*
X73340Y7470D01*
X73872Y7682D01*
X74374Y7958D01*
X74838Y8294D01*
X75256Y8686D01*
X75622Y9128D01*
X75928Y9612D01*
X76172Y10130D01*
X76350Y10676D01*
X76456Y11238D01*
X76492Y11810D01*
X76456Y12382D01*
X76350Y12944D01*
X76172Y13490D01*
X75928Y14008D01*
X75622Y14492D01*
X75256Y14934D01*
X74838Y15326D01*
X74374Y15662D01*
X73872Y15938D01*
X73340Y16150D01*
X72784Y16292D01*
X72216Y16364D01*
X71644D01*
X71076Y16292D01*
X70520Y16150D01*
X69988Y15938D01*
X69486Y15662D01*
X69022Y15326D01*
X68604Y14934D01*
X68238Y14492D01*
X67932Y14008D01*
X67688Y13490D01*
X67510Y12944D01*
X67404Y12382D01*
X67368Y11810D01*
X67404Y11238D01*
X67510Y10676D01*
X67688Y10130D01*
X67932Y9612D01*
X68238Y9128D01*
X68604Y8686D01*
X69022Y8294D01*
X69486Y7958D01*
X69988Y7682D01*
X70520Y7470D01*
X71076Y7328D01*
G37*
G36*
X84774Y18156D02*
X85344Y18084D01*
X85916D01*
X86484Y18156D01*
X87040Y18298D01*
X87572Y18510D01*
X88074Y18786D01*
X88538Y19122D01*
X88956Y19514D01*
X89322Y19956D01*
X89628Y20440D01*
X89838Y20888D01*
X89928Y21010D01*
X90054Y21090D01*
X90200Y21118D01*
X106650D01*
X106796Y21090D01*
X106924Y21010D01*
X107012Y20888D01*
X107222Y20440D01*
X107530Y19956D01*
X107894Y19514D01*
X108312Y19122D01*
X108776Y18786D01*
X109278Y18510D01*
X109810Y18298D01*
X110366Y18156D01*
X110934Y18084D01*
X111506D01*
X112076Y18156D01*
X112630Y18298D01*
X113164Y18510D01*
X113666Y18786D01*
X114128Y19122D01*
X114546Y19514D01*
X114912Y19956D01*
X115218Y20440D01*
X115462Y20958D01*
X115640Y21504D01*
X115748Y22066D01*
X115784Y22638D01*
X115748Y23210D01*
X115640Y23772D01*
X115462Y24318D01*
X115218Y24836D01*
X114912Y25320D01*
X114546Y25762D01*
X114128Y26154D01*
X113666Y26490D01*
X113164Y26766D01*
X112630Y26976D01*
X112076Y27120D01*
X111506Y27192D01*
X110934D01*
X110366Y27120D01*
X109810Y26976D01*
X109278Y26766D01*
X108776Y26490D01*
X108312Y26154D01*
X107894Y25762D01*
X107530Y25320D01*
X107222Y24836D01*
X107012Y24388D01*
X106924Y24266D01*
X106796Y24186D01*
X106650Y24158D01*
X90202D01*
X90054Y24186D01*
X89928Y24266D01*
X89840Y24388D01*
X89628Y24836D01*
X89322Y25320D01*
X88956Y25762D01*
X88538Y26154D01*
X88074Y26490D01*
X87572Y26766D01*
X87040Y26976D01*
X86484Y27120D01*
X85916Y27192D01*
X85344D01*
X84774Y27120D01*
X84220Y26976D01*
X83688Y26766D01*
X83186Y26490D01*
X82722Y26154D01*
X82304Y25762D01*
X81938Y25320D01*
X81632Y24836D01*
X81388Y24318D01*
X81210Y23772D01*
X81104Y23210D01*
X81068Y22638D01*
X81104Y22066D01*
X81210Y21504D01*
X81388Y20958D01*
X81632Y20440D01*
X81938Y19956D01*
X82304Y19514D01*
X82722Y19122D01*
X83186Y18786D01*
X83688Y18510D01*
X84220Y18298D01*
X84774Y18156D01*
G37*
G36*
X24660Y38332D02*
Y36270D01*
X25082Y36502D01*
X25546Y36838D01*
X25964Y37232D01*
X26328Y37672D01*
X26636Y38156D01*
X26718Y38332D01*
X24660D01*
G37*
G36*
X20194Y36502D02*
X20616Y36270D01*
Y38332D01*
X18556D01*
X18640Y38156D01*
X18946Y37672D01*
X19312Y37232D01*
X19730Y36838D01*
X20194Y36502D01*
G37*
G36*
X45784Y36502D02*
X46206Y36270D01*
Y38332D01*
X44148D01*
X44230Y38156D01*
X44538Y37672D01*
X44902Y37232D01*
X45320Y36838D01*
X45784Y36502D01*
G37*
G36*
X50250Y38332D02*
Y36270D01*
X50674Y36502D01*
X51136Y36838D01*
X51554Y37232D01*
X51920Y37672D01*
X52226Y38156D01*
X52310Y38332D01*
X50250D01*
G37*
G36*
X108776Y36502D02*
X109198Y36270D01*
Y38332D01*
X107140D01*
X107222Y38156D01*
X107530Y37672D01*
X107894Y37232D01*
X108312Y36838D01*
X108776Y36502D01*
G37*
G36*
X83186Y36502D02*
X83608Y36270D01*
Y38332D01*
X81548D01*
X81632Y38156D01*
X81938Y37672D01*
X82304Y37232D01*
X82722Y36838D01*
X83186Y36502D01*
G37*
G36*
X87652Y38332D02*
Y36270D01*
X88074Y36502D01*
X88538Y36838D01*
X88956Y37232D01*
X89322Y37672D01*
X89628Y38156D01*
X89712Y38332D01*
X87652D01*
G37*
G36*
X113242Y38332D02*
Y36270D01*
X113666Y36502D01*
X114128Y36838D01*
X114546Y37232D01*
X114912Y37672D01*
X115218Y38156D01*
X115302Y38332D01*
X113242D01*
G37*
G36*
X44230Y42552D02*
X44148Y42376D01*
X46206D01*
Y44440D01*
X45784Y44206D01*
X45320Y43870D01*
X44902Y43478D01*
X44538Y43036D01*
X44230Y42552D01*
G37*
G36*
X18640Y42552D02*
X18556Y42376D01*
X20616D01*
Y44440D01*
X20194Y44206D01*
X19730Y43870D01*
X19312Y43478D01*
X18946Y43036D01*
X18640Y42552D01*
G37*
G36*
X24660Y44440D02*
Y42376D01*
X26718D01*
X26636Y42552D01*
X26328Y43036D01*
X25964Y43478D01*
X25546Y43870D01*
X25082Y44206D01*
X24660Y44440D01*
G37*
G36*
X50250Y44440D02*
Y42376D01*
X52310D01*
X52226Y42552D01*
X51920Y43036D01*
X51554Y43478D01*
X51136Y43870D01*
X50674Y44206D01*
X50250Y44440D01*
G37*
G36*
X107222Y42552D02*
X107140Y42376D01*
X109198D01*
Y44440D01*
X108776Y44206D01*
X108312Y43870D01*
X107894Y43478D01*
X107530Y43036D01*
X107222Y42552D01*
G37*
G36*
X81632Y42552D02*
X81548Y42376D01*
X83608D01*
Y44440D01*
X83186Y44206D01*
X82722Y43870D01*
X82304Y43478D01*
X81938Y43036D01*
X81632Y42552D01*
G37*
G36*
X87652Y44440D02*
Y42376D01*
X89712D01*
X89628Y42552D01*
X89322Y43036D01*
X88956Y43478D01*
X88538Y43870D01*
X88074Y44206D01*
X87652Y44440D01*
G37*
G36*
X113242Y44440D02*
Y42376D01*
X115302D01*
X115218Y42552D01*
X114912Y43036D01*
X114546Y43478D01*
X114128Y43870D01*
X113666Y44206D01*
X113242Y44440D01*
G37*
G36*
X84774Y65400D02*
X85344Y65328D01*
X85916D01*
X86484Y65400D01*
X87040Y65542D01*
X87572Y65754D01*
X88074Y66030D01*
X88538Y66366D01*
X88956Y66758D01*
X89322Y67200D01*
X89628Y67684D01*
X89838Y68132D01*
X89928Y68254D01*
X90054Y68334D01*
X90200Y68362D01*
X106650D01*
X106796Y68334D01*
X106924Y68254D01*
X107012Y68132D01*
X107222Y67684D01*
X107530Y67200D01*
X107894Y66758D01*
X108312Y66366D01*
X108776Y66030D01*
X109278Y65754D01*
X109810Y65542D01*
X110366Y65400D01*
X110934Y65328D01*
X111506D01*
X112076Y65400D01*
X112630Y65542D01*
X113164Y65754D01*
X113666Y66030D01*
X114128Y66366D01*
X114546Y66758D01*
X114912Y67200D01*
X115218Y67684D01*
X115462Y68202D01*
X115640Y68748D01*
X115748Y69310D01*
X115784Y69882D01*
X115748Y70454D01*
X115640Y71016D01*
X115462Y71562D01*
X115218Y72080D01*
X114912Y72564D01*
X114546Y73006D01*
X114128Y73398D01*
X113666Y73734D01*
X113164Y74010D01*
X112630Y74222D01*
X112076Y74364D01*
X111506Y74436D01*
X110934D01*
X110366Y74364D01*
X109810Y74222D01*
X109278Y74010D01*
X108776Y73734D01*
X108312Y73398D01*
X107894Y73006D01*
X107530Y72564D01*
X107222Y72080D01*
X107012Y71632D01*
X106924Y71510D01*
X106796Y71430D01*
X106650Y71402D01*
X90202D01*
X90054Y71430D01*
X89928Y71510D01*
X89840Y71632D01*
X89628Y72080D01*
X89322Y72564D01*
X88956Y73006D01*
X88538Y73398D01*
X88074Y73734D01*
X87572Y74010D01*
X87040Y74222D01*
X86484Y74364D01*
X85916Y74436D01*
X85344D01*
X84774Y74364D01*
X84220Y74222D01*
X83688Y74010D01*
X83186Y73734D01*
X82722Y73398D01*
X82304Y73006D01*
X81938Y72564D01*
X81632Y72080D01*
X81388Y71562D01*
X81210Y71016D01*
X81104Y70454D01*
X81068Y69882D01*
X81104Y69310D01*
X81210Y68748D01*
X81388Y68202D01*
X81632Y67684D01*
X81938Y67200D01*
X82304Y66758D01*
X82722Y66366D01*
X83186Y66030D01*
X83688Y65754D01*
X84220Y65542D01*
X84774Y65400D01*
G37*
G36*
X50250Y85576D02*
Y83514D01*
X50674Y83746D01*
X51136Y84084D01*
X51554Y84476D01*
X51920Y84916D01*
X52226Y85400D01*
X52310Y85576D01*
X50250D01*
G37*
G36*
X20194Y83746D02*
X20616Y83514D01*
Y85576D01*
X18556D01*
X18640Y85400D01*
X18946Y84916D01*
X19312Y84476D01*
X19730Y84084D01*
X20194Y83746D01*
G37*
G36*
X45784Y83746D02*
X46206Y83514D01*
Y85576D01*
X44148D01*
X44230Y85400D01*
X44538Y84916D01*
X44902Y84476D01*
X45320Y84084D01*
X45784Y83746D01*
G37*
G36*
X24660Y85576D02*
Y83514D01*
X25082Y83746D01*
X25546Y84084D01*
X25964Y84476D01*
X26328Y84916D01*
X26636Y85400D01*
X26718Y85576D01*
X24660D01*
G37*
G36*
X108776Y83746D02*
X109198Y83514D01*
Y85576D01*
X107140D01*
X107222Y85400D01*
X107530Y84916D01*
X107894Y84476D01*
X108312Y84084D01*
X108776Y83746D01*
G37*
G36*
X87652Y85576D02*
Y83514D01*
X88074Y83746D01*
X88538Y84084D01*
X88956Y84476D01*
X89322Y84916D01*
X89628Y85400D01*
X89712Y85576D01*
X87652D01*
G37*
G36*
X83186Y83746D02*
X83608Y83514D01*
Y85576D01*
X81548D01*
X81632Y85400D01*
X81938Y84916D01*
X82304Y84476D01*
X82722Y84084D01*
X83186Y83746D01*
G37*
G36*
X113242Y85576D02*
Y83514D01*
X113666Y83746D01*
X114128Y84084D01*
X114546Y84476D01*
X114912Y84916D01*
X115218Y85400D01*
X115302Y85576D01*
X113242D01*
G37*
G36*
X18640Y89796D02*
X18556Y89620D01*
X20616D01*
Y91684D01*
X20194Y91450D01*
X19730Y91114D01*
X19312Y90722D01*
X18946Y90280D01*
X18640Y89796D01*
G37*
G36*
X44230Y89796D02*
X44148Y89620D01*
X46206D01*
Y91684D01*
X45784Y91450D01*
X45320Y91114D01*
X44902Y90722D01*
X44538Y90280D01*
X44230Y89796D01*
G37*
G36*
X50250Y91684D02*
Y89620D01*
X52310D01*
X52226Y89796D01*
X51920Y90280D01*
X51554Y90722D01*
X51136Y91114D01*
X50674Y91450D01*
X50250Y91684D01*
G37*
G36*
X24660Y91684D02*
Y89620D01*
X26718D01*
X26636Y89796D01*
X26328Y90280D01*
X25964Y90722D01*
X25546Y91114D01*
X25082Y91450D01*
X24660Y91684D01*
G37*
G36*
X87652Y91684D02*
Y89620D01*
X89712D01*
X89628Y89796D01*
X89322Y90280D01*
X88956Y90722D01*
X88538Y91114D01*
X88074Y91450D01*
X87652Y91684D01*
G37*
G36*
X107222Y89796D02*
X107140Y89620D01*
X109198D01*
Y91684D01*
X108776Y91450D01*
X108312Y91114D01*
X107894Y90722D01*
X107530Y90280D01*
X107222Y89796D01*
G37*
G36*
X81632Y89796D02*
X81548Y89620D01*
X83608D01*
Y91684D01*
X83186Y91450D01*
X82722Y91114D01*
X82304Y90722D01*
X81938Y90280D01*
X81632Y89796D01*
G37*
G36*
X113242Y91684D02*
Y89620D01*
X115302D01*
X115218Y89796D01*
X114912Y90280D01*
X114546Y90722D01*
X114128Y91114D01*
X113666Y91450D01*
X113242Y91684D01*
G37*
G36*
X21782Y112644D02*
X22352Y112572D01*
X22924D01*
X23492Y112644D01*
X24048Y112786D01*
X24580Y112998D01*
X25082Y113274D01*
X25546Y113610D01*
X25964Y114002D01*
X26328Y114444D01*
X26636Y114928D01*
X26846Y115376D01*
X26934Y115498D01*
X27062Y115578D01*
X27208Y115606D01*
X43658D01*
X43804Y115578D01*
X43932Y115498D01*
X44020Y115376D01*
X44230Y114928D01*
X44538Y114444D01*
X44902Y114002D01*
X45320Y113610D01*
X45784Y113274D01*
X46286Y112998D01*
X46818Y112786D01*
X47374Y112644D01*
X47942Y112572D01*
X48514D01*
X49084Y112644D01*
X49638Y112786D01*
X50172Y112998D01*
X50674Y113274D01*
X51136Y113610D01*
X51554Y114002D01*
X51920Y114444D01*
X52226Y114928D01*
X52470Y115446D01*
X52648Y115992D01*
X52754Y116554D01*
X52790Y117126D01*
X52754Y117698D01*
X52648Y118260D01*
X52470Y118806D01*
X52226Y119324D01*
X51920Y119808D01*
X51554Y120250D01*
X51136Y120642D01*
X50674Y120978D01*
X50172Y121254D01*
X49638Y121466D01*
X49084Y121608D01*
X48514Y121680D01*
X47942D01*
X47374Y121608D01*
X46818Y121466D01*
X46286Y121254D01*
X45784Y120978D01*
X45320Y120642D01*
X44902Y120250D01*
X44538Y119808D01*
X44230Y119324D01*
X44020Y118876D01*
X43932Y118754D01*
X43804Y118674D01*
X43658Y118646D01*
X27208D01*
X27062Y118674D01*
X26936Y118754D01*
X26848Y118876D01*
X26636Y119324D01*
X26328Y119808D01*
X25964Y120250D01*
X25546Y120642D01*
X25082Y120978D01*
X24580Y121254D01*
X24048Y121466D01*
X23492Y121608D01*
X22924Y121680D01*
X22352D01*
X21782Y121608D01*
X21228Y121466D01*
X20696Y121254D01*
X20194Y120978D01*
X19730Y120642D01*
X19312Y120250D01*
X18946Y119808D01*
X18640Y119324D01*
X18396Y118806D01*
X18218Y118260D01*
X18112Y117698D01*
X18076Y117126D01*
X18112Y116554D01*
X18218Y115992D01*
X18396Y115446D01*
X18640Y114928D01*
X18946Y114444D01*
X19312Y114002D01*
X19730Y113610D01*
X20194Y113274D01*
X20696Y112998D01*
X21228Y112786D01*
X21782Y112644D01*
G37*
G36*
X84774Y112644D02*
X85344Y112572D01*
X85916D01*
X86484Y112644D01*
X87040Y112786D01*
X87572Y112998D01*
X88074Y113274D01*
X88538Y113610D01*
X88956Y114002D01*
X89322Y114444D01*
X89628Y114928D01*
X89838Y115376D01*
X89926Y115498D01*
X90054Y115578D01*
X90200Y115606D01*
X106650D01*
X106796Y115578D01*
X106924Y115498D01*
X107012Y115376D01*
X107222Y114928D01*
X107530Y114444D01*
X107894Y114002D01*
X108312Y113610D01*
X108776Y113274D01*
X109278Y112998D01*
X109810Y112786D01*
X110366Y112644D01*
X110934Y112572D01*
X111506D01*
X112076Y112644D01*
X112630Y112786D01*
X113164Y112998D01*
X113666Y113274D01*
X114128Y113610D01*
X114546Y114002D01*
X114912Y114444D01*
X115218Y114928D01*
X115462Y115446D01*
X115640Y115992D01*
X115748Y116554D01*
X115784Y117126D01*
X115748Y117698D01*
X115640Y118260D01*
X115462Y118806D01*
X115218Y119324D01*
X114912Y119808D01*
X114546Y120250D01*
X114128Y120642D01*
X113666Y120978D01*
X113164Y121254D01*
X112630Y121466D01*
X112076Y121608D01*
X111506Y121680D01*
X110934D01*
X110366Y121608D01*
X109810Y121466D01*
X109278Y121254D01*
X108776Y120978D01*
X108312Y120642D01*
X107894Y120250D01*
X107530Y119808D01*
X107222Y119324D01*
X107012Y118876D01*
X106924Y118754D01*
X106796Y118674D01*
X106650Y118646D01*
X90202D01*
X90054Y118674D01*
X89928Y118754D01*
X89840Y118876D01*
X89628Y119324D01*
X89322Y119808D01*
X88956Y120250D01*
X88538Y120642D01*
X88074Y120978D01*
X87572Y121254D01*
X87040Y121466D01*
X86484Y121608D01*
X85916Y121680D01*
X85344D01*
X84774Y121608D01*
X84220Y121466D01*
X83688Y121254D01*
X83186Y120978D01*
X82722Y120642D01*
X82304Y120250D01*
X81938Y119808D01*
X81632Y119324D01*
X81388Y118806D01*
X81210Y118260D01*
X81104Y117698D01*
X81068Y117126D01*
X81104Y116554D01*
X81210Y115992D01*
X81388Y115446D01*
X81632Y114928D01*
X81938Y114444D01*
X82304Y114002D01*
X82722Y113610D01*
X83186Y113274D01*
X83688Y112998D01*
X84220Y112786D01*
X84774Y112644D01*
G37*
G36*
X50250Y132820D02*
Y130758D01*
X50674Y130990D01*
X51136Y131328D01*
X51554Y131720D01*
X51920Y132160D01*
X52226Y132644D01*
X52310Y132820D01*
X50250D01*
G37*
G36*
X24660Y132820D02*
Y130758D01*
X25082Y130990D01*
X25546Y131328D01*
X25964Y131720D01*
X26328Y132160D01*
X26636Y132644D01*
X26718Y132820D01*
X24660D01*
G37*
G36*
X45784Y130990D02*
X46206Y130758D01*
Y132820D01*
X44148D01*
X44230Y132644D01*
X44538Y132160D01*
X44902Y131720D01*
X45320Y131328D01*
X45784Y130990D01*
G37*
G36*
X20194Y130990D02*
X20616Y130758D01*
Y132820D01*
X18556D01*
X18640Y132644D01*
X18946Y132160D01*
X19312Y131720D01*
X19730Y131328D01*
X20194Y130990D01*
G37*
G36*
X87652Y132820D02*
Y130758D01*
X88074Y130990D01*
X88538Y131328D01*
X88956Y131720D01*
X89322Y132160D01*
X89628Y132644D01*
X89712Y132820D01*
X87652D01*
G37*
G36*
X108776Y130990D02*
X109198Y130758D01*
Y132820D01*
X107140D01*
X107222Y132644D01*
X107530Y132160D01*
X107894Y131720D01*
X108312Y131328D01*
X108776Y130990D01*
G37*
G36*
X113242Y132820D02*
Y130758D01*
X113666Y130990D01*
X114128Y131328D01*
X114546Y131720D01*
X114912Y132160D01*
X115218Y132644D01*
X115302Y132820D01*
X113242D01*
G37*
G36*
X83186Y130990D02*
X83608Y130758D01*
Y132820D01*
X81548D01*
X81632Y132644D01*
X81938Y132160D01*
X82304Y131720D01*
X82722Y131328D01*
X83186Y130990D01*
G37*
G36*
X18640Y137040D02*
X18556Y136864D01*
X20616D01*
Y138928D01*
X20194Y138694D01*
X19730Y138358D01*
X19312Y137966D01*
X18946Y137524D01*
X18640Y137040D01*
G37*
G36*
X44230Y137040D02*
X44148Y136864D01*
X46206D01*
Y138928D01*
X45784Y138694D01*
X45320Y138358D01*
X44902Y137966D01*
X44538Y137524D01*
X44230Y137040D01*
G37*
G36*
X50250Y138928D02*
Y136864D01*
X52310D01*
X52226Y137040D01*
X51920Y137524D01*
X51554Y137966D01*
X51136Y138358D01*
X50674Y138694D01*
X50250Y138928D01*
G37*
G36*
X24660Y138928D02*
Y136864D01*
X26718D01*
X26636Y137040D01*
X26328Y137524D01*
X25964Y137966D01*
X25546Y138358D01*
X25082Y138694D01*
X24660Y138928D01*
G37*
G36*
X107222Y137040D02*
X107140Y136864D01*
X109198D01*
Y138928D01*
X108776Y138694D01*
X108312Y138358D01*
X107894Y137966D01*
X107530Y137524D01*
X107222Y137040D01*
G37*
G36*
X113242Y138928D02*
Y136864D01*
X115302D01*
X115218Y137040D01*
X114912Y137524D01*
X114546Y137966D01*
X114128Y138358D01*
X113666Y138694D01*
X113242Y138928D01*
G37*
G36*
X81632Y137040D02*
X81548Y136864D01*
X83608D01*
Y138928D01*
X83186Y138694D01*
X82722Y138358D01*
X82304Y137966D01*
X81938Y137524D01*
X81632Y137040D01*
G37*
G36*
X87652Y138928D02*
Y136864D01*
X89712D01*
X89628Y137040D01*
X89322Y137524D01*
X88956Y137966D01*
X88538Y138358D01*
X88074Y138694D01*
X87652Y138928D01*
G37*
G36*
X21782Y159888D02*
X22352Y159816D01*
X22924D01*
X23492Y159888D01*
X24048Y160030D01*
X24580Y160242D01*
X25082Y160518D01*
X25546Y160854D01*
X25964Y161246D01*
X26328Y161688D01*
X26636Y162172D01*
X26846Y162620D01*
X26934Y162742D01*
X27062Y162822D01*
X27208Y162850D01*
X43658D01*
X43804Y162822D01*
X43932Y162742D01*
X44020Y162620D01*
X44230Y162172D01*
X44538Y161688D01*
X44902Y161246D01*
X45320Y160854D01*
X45784Y160518D01*
X46286Y160242D01*
X46818Y160030D01*
X47374Y159888D01*
X47942Y159816D01*
X48514D01*
X49084Y159888D01*
X49638Y160030D01*
X50172Y160242D01*
X50674Y160518D01*
X51136Y160854D01*
X51554Y161246D01*
X51920Y161688D01*
X52226Y162172D01*
X52470Y162690D01*
X52648Y163236D01*
X52754Y163798D01*
X52790Y164370D01*
X52754Y164942D01*
X52648Y165504D01*
X52470Y166050D01*
X52226Y166568D01*
X51920Y167052D01*
X51554Y167494D01*
X51136Y167886D01*
X50674Y168222D01*
X50172Y168498D01*
X49638Y168710D01*
X49084Y168852D01*
X48514Y168924D01*
X47942D01*
X47374Y168852D01*
X46818Y168710D01*
X46286Y168498D01*
X45784Y168222D01*
X45320Y167886D01*
X44902Y167494D01*
X44538Y167052D01*
X44230Y166568D01*
X44020Y166120D01*
X43932Y165998D01*
X43804Y165918D01*
X43658Y165890D01*
X27208D01*
X27062Y165918D01*
X26936Y165998D01*
X26848Y166120D01*
X26636Y166568D01*
X26328Y167052D01*
X25964Y167494D01*
X25546Y167886D01*
X25082Y168222D01*
X24580Y168498D01*
X24048Y168710D01*
X23492Y168852D01*
X22924Y168924D01*
X22352D01*
X21782Y168852D01*
X21228Y168710D01*
X20696Y168498D01*
X20194Y168222D01*
X19730Y167886D01*
X19312Y167494D01*
X18946Y167052D01*
X18640Y166568D01*
X18396Y166050D01*
X18218Y165504D01*
X18112Y164942D01*
X18076Y164370D01*
X18112Y163798D01*
X18218Y163236D01*
X18396Y162690D01*
X18640Y162172D01*
X18946Y161688D01*
X19312Y161246D01*
X19730Y160854D01*
X20194Y160518D01*
X20696Y160242D01*
X21228Y160030D01*
X21782Y159888D01*
G37*
G36*
X84774Y159888D02*
X85344Y159816D01*
X85916D01*
X86484Y159888D01*
X87040Y160030D01*
X87572Y160242D01*
X88074Y160518D01*
X88538Y160854D01*
X88956Y161246D01*
X89322Y161688D01*
X89628Y162172D01*
X89838Y162620D01*
X89926Y162742D01*
X90054Y162822D01*
X90200Y162850D01*
X106650D01*
X106796Y162822D01*
X106924Y162742D01*
X107012Y162620D01*
X107222Y162172D01*
X107530Y161688D01*
X107894Y161246D01*
X108312Y160854D01*
X108776Y160518D01*
X109278Y160242D01*
X109810Y160030D01*
X110366Y159888D01*
X110934Y159816D01*
X111506D01*
X112076Y159888D01*
X112630Y160030D01*
X113164Y160242D01*
X113666Y160518D01*
X114128Y160854D01*
X114546Y161246D01*
X114912Y161688D01*
X115218Y162172D01*
X115462Y162690D01*
X115640Y163236D01*
X115748Y163798D01*
X115784Y164370D01*
X115748Y164942D01*
X115640Y165504D01*
X115462Y166050D01*
X115218Y166568D01*
X114912Y167052D01*
X114546Y167494D01*
X114128Y167886D01*
X113666Y168222D01*
X113164Y168498D01*
X112630Y168710D01*
X112076Y168852D01*
X111506Y168924D01*
X110934D01*
X110366Y168852D01*
X109810Y168710D01*
X109278Y168498D01*
X108776Y168222D01*
X108312Y167886D01*
X107894Y167494D01*
X107530Y167052D01*
X107222Y166568D01*
X107012Y166120D01*
X106924Y165998D01*
X106796Y165918D01*
X106650Y165890D01*
X90202D01*
X90054Y165918D01*
X89928Y165998D01*
X89840Y166120D01*
X89628Y166568D01*
X89322Y167052D01*
X88956Y167494D01*
X88538Y167886D01*
X88074Y168222D01*
X87572Y168498D01*
X87040Y168710D01*
X86484Y168852D01*
X85916Y168924D01*
X85344D01*
X84774Y168852D01*
X84220Y168710D01*
X83688Y168498D01*
X83186Y168222D01*
X82722Y167886D01*
X82304Y167494D01*
X81938Y167052D01*
X81632Y166568D01*
X81388Y166050D01*
X81210Y165504D01*
X81104Y164942D01*
X81068Y164370D01*
X81104Y163798D01*
X81210Y163236D01*
X81388Y162690D01*
X81632Y162172D01*
X81938Y161688D01*
X82304Y161246D01*
X82722Y160854D01*
X83186Y160518D01*
X83688Y160242D01*
X84220Y160030D01*
X84774Y159888D01*
G37*
G36*
X24660Y180064D02*
Y178002D01*
X25082Y178234D01*
X25546Y178572D01*
X25964Y178964D01*
X26328Y179404D01*
X26636Y179888D01*
X26718Y180064D01*
X24660D01*
G37*
G36*
X50250Y180064D02*
Y178002D01*
X50674Y178234D01*
X51136Y178572D01*
X51554Y178964D01*
X51920Y179404D01*
X52226Y179888D01*
X52310Y180064D01*
X50250D01*
G37*
G36*
X45784Y178234D02*
X46206Y178002D01*
Y180064D01*
X44148D01*
X44230Y179888D01*
X44538Y179404D01*
X44902Y178964D01*
X45320Y178572D01*
X45784Y178234D01*
G37*
G36*
X20194Y178234D02*
X20616Y178002D01*
Y180064D01*
X18556D01*
X18640Y179888D01*
X18946Y179404D01*
X19312Y178964D01*
X19730Y178572D01*
X20194Y178234D01*
G37*
G36*
X113242Y180066D02*
Y178002D01*
X113666Y178234D01*
X114128Y178572D01*
X114546Y178964D01*
X114912Y179404D01*
X115218Y179888D01*
X115302Y180066D01*
X113242D01*
G37*
G36*
X108776Y178234D02*
X109198Y178002D01*
Y180066D01*
X107140D01*
X107222Y179888D01*
X107530Y179404D01*
X107894Y178964D01*
X108312Y178572D01*
X108776Y178234D01*
G37*
G36*
X87652Y180066D02*
Y178002D01*
X88074Y178234D01*
X88538Y178572D01*
X88956Y178964D01*
X89322Y179404D01*
X89628Y179888D01*
X89712Y180066D01*
X87652D01*
G37*
G36*
X83186Y178234D02*
X83608Y178002D01*
Y180066D01*
X81548D01*
X81632Y179888D01*
X81938Y179404D01*
X82304Y178964D01*
X82722Y178572D01*
X83186Y178234D01*
G37*
G36*
X44230Y184284D02*
X44148Y184108D01*
X46206D01*
Y186172D01*
X45784Y185938D01*
X45320Y185602D01*
X44902Y185210D01*
X44538Y184768D01*
X44230Y184284D01*
G37*
G36*
X18640Y184284D02*
X18556Y184108D01*
X20616D01*
Y186172D01*
X20194Y185938D01*
X19730Y185602D01*
X19312Y185210D01*
X18946Y184768D01*
X18640Y184284D01*
G37*
G36*
X50250Y186172D02*
Y184108D01*
X52310D01*
X52226Y184284D01*
X51920Y184768D01*
X51554Y185210D01*
X51136Y185602D01*
X50674Y185938D01*
X50250Y186172D01*
G37*
G36*
X24660Y186172D02*
Y184108D01*
X26718D01*
X26636Y184284D01*
X26328Y184768D01*
X25964Y185210D01*
X25546Y185602D01*
X25082Y185938D01*
X24660Y186172D01*
G37*
G36*
X87652Y186172D02*
Y184108D01*
X89712D01*
X89628Y184284D01*
X89322Y184768D01*
X88956Y185210D01*
X88538Y185602D01*
X88074Y185938D01*
X87652Y186172D01*
G37*
G36*
X107222Y184284D02*
X107140Y184108D01*
X109198D01*
Y186172D01*
X108776Y185938D01*
X108312Y185602D01*
X107894Y185210D01*
X107530Y184768D01*
X107222Y184284D01*
G37*
G36*
X113242Y186172D02*
Y184108D01*
X115302D01*
X115218Y184284D01*
X114912Y184768D01*
X114546Y185210D01*
X114128Y185602D01*
X113666Y185938D01*
X113242Y186172D01*
G37*
G36*
X81632Y184284D02*
X81548Y184108D01*
X83608D01*
Y186172D01*
X83186Y185938D01*
X82722Y185602D01*
X82304Y185210D01*
X81938Y184768D01*
X81632Y184284D01*
G37*
G36*
X21782Y207132D02*
X22352Y207060D01*
X22924D01*
X23492Y207132D01*
X24048Y207274D01*
X24580Y207486D01*
X25082Y207762D01*
X25546Y208098D01*
X25964Y208490D01*
X26328Y208932D01*
X26636Y209416D01*
X26846Y209864D01*
X26934Y209986D01*
X27062Y210066D01*
X27208Y210094D01*
X43658D01*
X43804Y210066D01*
X43932Y209986D01*
X44020Y209864D01*
X44230Y209416D01*
X44538Y208932D01*
X44902Y208490D01*
X45320Y208098D01*
X45784Y207762D01*
X46286Y207486D01*
X46818Y207274D01*
X47374Y207132D01*
X47942Y207060D01*
X48514D01*
X49084Y207132D01*
X49638Y207274D01*
X50172Y207486D01*
X50674Y207762D01*
X51136Y208098D01*
X51554Y208490D01*
X51920Y208932D01*
X52226Y209416D01*
X52470Y209934D01*
X52648Y210480D01*
X52754Y211042D01*
X52790Y211614D01*
X52754Y212186D01*
X52648Y212748D01*
X52470Y213294D01*
X52226Y213812D01*
X51920Y214296D01*
X51554Y214738D01*
X51136Y215130D01*
X50674Y215466D01*
X50172Y215742D01*
X49638Y215954D01*
X49084Y216096D01*
X48514Y216168D01*
X47942D01*
X47374Y216096D01*
X46818Y215954D01*
X46286Y215742D01*
X45784Y215466D01*
X45320Y215130D01*
X44902Y214738D01*
X44538Y214296D01*
X44230Y213812D01*
X44020Y213364D01*
X43930Y213242D01*
X43804Y213162D01*
X43658Y213134D01*
X27210D01*
X27062Y213162D01*
X26936Y213242D01*
X26848Y213364D01*
X26636Y213812D01*
X26328Y214296D01*
X25964Y214738D01*
X25546Y215130D01*
X25082Y215466D01*
X24580Y215742D01*
X24048Y215954D01*
X23492Y216096D01*
X22924Y216168D01*
X22352D01*
X21782Y216096D01*
X21228Y215954D01*
X20696Y215742D01*
X20194Y215466D01*
X19730Y215130D01*
X19312Y214738D01*
X18946Y214296D01*
X18640Y213812D01*
X18396Y213294D01*
X18218Y212748D01*
X18112Y212186D01*
X18076Y211614D01*
X18112Y211042D01*
X18218Y210480D01*
X18396Y209934D01*
X18640Y209416D01*
X18946Y208932D01*
X19312Y208490D01*
X19730Y208098D01*
X20194Y207762D01*
X20696Y207486D01*
X21228Y207274D01*
X21782Y207132D01*
G37*
G36*
X84774Y207132D02*
X85344Y207060D01*
X85916D01*
X86484Y207132D01*
X87040Y207274D01*
X87572Y207486D01*
X88074Y207762D01*
X88538Y208098D01*
X88956Y208490D01*
X89322Y208932D01*
X89628Y209416D01*
X89838Y209864D01*
X89926Y209986D01*
X90054Y210066D01*
X90200Y210094D01*
X106650D01*
X106796Y210066D01*
X106924Y209986D01*
X107012Y209864D01*
X107222Y209416D01*
X107530Y208932D01*
X107894Y208490D01*
X108312Y208098D01*
X108776Y207762D01*
X109278Y207486D01*
X109810Y207274D01*
X110366Y207132D01*
X110934Y207060D01*
X111506D01*
X112076Y207132D01*
X112630Y207274D01*
X113164Y207486D01*
X113666Y207762D01*
X114128Y208098D01*
X114546Y208490D01*
X114912Y208932D01*
X115218Y209416D01*
X115462Y209934D01*
X115640Y210480D01*
X115748Y211042D01*
X115784Y211614D01*
X115748Y212186D01*
X115640Y212748D01*
X115462Y213294D01*
X115218Y213812D01*
X114912Y214296D01*
X114546Y214738D01*
X114128Y215130D01*
X113666Y215466D01*
X113164Y215742D01*
X112630Y215954D01*
X112076Y216096D01*
X111506Y216168D01*
X110934D01*
X110366Y216096D01*
X109810Y215954D01*
X109278Y215742D01*
X108776Y215466D01*
X108312Y215130D01*
X107894Y214738D01*
X107530Y214296D01*
X107222Y213812D01*
X107012Y213364D01*
X106924Y213242D01*
X106796Y213162D01*
X106650Y213134D01*
X90202D01*
X90054Y213162D01*
X89928Y213242D01*
X89840Y213364D01*
X89628Y213812D01*
X89322Y214296D01*
X88956Y214738D01*
X88538Y215130D01*
X88074Y215466D01*
X87572Y215742D01*
X87040Y215954D01*
X86484Y216096D01*
X85916Y216168D01*
X85344D01*
X84774Y216096D01*
X84220Y215954D01*
X83688Y215742D01*
X83186Y215466D01*
X82722Y215130D01*
X82304Y214738D01*
X81938Y214296D01*
X81632Y213812D01*
X81388Y213294D01*
X81210Y212748D01*
X81104Y212186D01*
X81068Y211614D01*
X81104Y211042D01*
X81210Y210480D01*
X81388Y209934D01*
X81632Y209416D01*
X81938Y208932D01*
X82304Y208490D01*
X82722Y208098D01*
X83186Y207762D01*
X83688Y207486D01*
X84220Y207274D01*
X84774Y207132D01*
G37*
G36*
X24660Y227310D02*
Y225246D01*
X25082Y225478D01*
X25546Y225816D01*
X25964Y226208D01*
X26328Y226648D01*
X26636Y227132D01*
X26718Y227310D01*
X24660D01*
G37*
G36*
X50250Y227310D02*
Y225246D01*
X50674Y225478D01*
X51136Y225816D01*
X51554Y226208D01*
X51920Y226648D01*
X52226Y227132D01*
X52310Y227310D01*
X50250D01*
G37*
G36*
X45784Y225478D02*
X46206Y225246D01*
Y227310D01*
X44148D01*
X44230Y227132D01*
X44538Y226648D01*
X44902Y226208D01*
X45320Y225816D01*
X45784Y225478D01*
G37*
G36*
X20194Y225478D02*
X20616Y225246D01*
Y227310D01*
X18556D01*
X18640Y227132D01*
X18946Y226648D01*
X19312Y226208D01*
X19730Y225816D01*
X20194Y225478D01*
G37*
G36*
X87652Y227310D02*
Y225246D01*
X88074Y225478D01*
X88538Y225816D01*
X88956Y226208D01*
X89322Y226648D01*
X89628Y227132D01*
X89712Y227310D01*
X87652D01*
G37*
G36*
X108776Y225478D02*
X109198Y225246D01*
Y227310D01*
X107140D01*
X107222Y227132D01*
X107530Y226648D01*
X107894Y226208D01*
X108312Y225816D01*
X108776Y225478D01*
G37*
G36*
X113242Y227310D02*
Y225246D01*
X113666Y225478D01*
X114128Y225816D01*
X114546Y226208D01*
X114912Y226648D01*
X115218Y227132D01*
X115302Y227310D01*
X113242D01*
G37*
G36*
X83186Y225478D02*
X83608Y225246D01*
Y227310D01*
X81548D01*
X81632Y227132D01*
X81938Y226648D01*
X82304Y226208D01*
X82722Y225816D01*
X83186Y225478D01*
G37*
G36*
X18640Y231528D02*
X18556Y231352D01*
X20616D01*
Y233416D01*
X20194Y233182D01*
X19730Y232846D01*
X19312Y232454D01*
X18946Y232012D01*
X18640Y231528D01*
G37*
G36*
X44230Y231528D02*
X44148Y231352D01*
X46206D01*
Y233416D01*
X45784Y233182D01*
X45320Y232846D01*
X44902Y232454D01*
X44538Y232012D01*
X44230Y231528D01*
G37*
G36*
X24660Y233416D02*
Y231352D01*
X26718D01*
X26636Y231528D01*
X26328Y232012D01*
X25964Y232454D01*
X25546Y232846D01*
X25082Y233182D01*
X24660Y233416D01*
G37*
G36*
X50250Y233416D02*
Y231352D01*
X52310D01*
X52226Y231528D01*
X51920Y232012D01*
X51554Y232454D01*
X51136Y232846D01*
X50674Y233182D01*
X50250Y233416D01*
G37*
G36*
X81632Y231528D02*
X81548Y231352D01*
X83608D01*
Y233416D01*
X83186Y233182D01*
X82722Y232846D01*
X82304Y232454D01*
X81938Y232012D01*
X81632Y231528D01*
G37*
G36*
X113242Y233416D02*
Y231352D01*
X115302D01*
X115218Y231528D01*
X114912Y232012D01*
X114546Y232454D01*
X114128Y232846D01*
X113666Y233182D01*
X113242Y233416D01*
G37*
G36*
X107222Y231528D02*
X107140Y231352D01*
X109198D01*
Y233416D01*
X108776Y233182D01*
X108312Y232846D01*
X107894Y232454D01*
X107530Y232012D01*
X107222Y231528D01*
G37*
G36*
X87652Y233416D02*
Y231352D01*
X89712D01*
X89628Y231528D01*
X89322Y232012D01*
X88956Y232454D01*
X88538Y232846D01*
X88074Y233182D01*
X87652Y233416D01*
G37*
G36*
X21782Y254376D02*
X22352Y254304D01*
X22924D01*
X23492Y254376D01*
X24048Y254518D01*
X24580Y254730D01*
X25082Y255006D01*
X25546Y255342D01*
X25964Y255734D01*
X26328Y256176D01*
X26636Y256660D01*
X26880Y257178D01*
X27056Y257724D01*
X27164Y258286D01*
X27200Y258858D01*
X27164Y259430D01*
X27056Y259992D01*
X26880Y260538D01*
X26830Y260722D01*
X26858Y260882D01*
X26946Y261016D01*
X29450Y263520D01*
X29580Y263606D01*
X29732Y263636D01*
X41134D01*
X41286Y263606D01*
X41416Y263520D01*
X43920Y261016D01*
X44008Y260882D01*
X44036Y260722D01*
X43986Y260538D01*
X43810Y259992D01*
X43702Y259430D01*
X43666Y258858D01*
X43702Y258286D01*
X43810Y257724D01*
X43986Y257178D01*
X44230Y256660D01*
X44538Y256176D01*
X44902Y255734D01*
X45320Y255342D01*
X45784Y255006D01*
X46286Y254730D01*
X46818Y254518D01*
X47374Y254376D01*
X47942Y254304D01*
X48514D01*
X49084Y254376D01*
X49638Y254518D01*
X50172Y254730D01*
X50674Y255006D01*
X51136Y255342D01*
X51554Y255734D01*
X51920Y256176D01*
X52226Y256660D01*
X52470Y257178D01*
X52648Y257724D01*
X52754Y258286D01*
X52790Y258858D01*
X52754Y259430D01*
X52648Y259992D01*
X52470Y260538D01*
X52226Y261056D01*
X51920Y261540D01*
X51554Y261982D01*
X51136Y262374D01*
X50674Y262710D01*
X50172Y262986D01*
X49638Y263198D01*
X49084Y263340D01*
X48514Y263412D01*
X47942D01*
X47374Y263340D01*
X46818Y263198D01*
X46504Y263072D01*
X46352Y263044D01*
X46202Y263076D01*
X46074Y263162D01*
X43566Y265670D01*
X43480Y265798D01*
X43450Y265952D01*
Y274248D01*
X43478Y274398D01*
X43562Y274526D01*
X43670Y274602D01*
X43566Y274670D01*
X43480Y274800D01*
X43450Y274954D01*
Y278196D01*
X43480Y278350D01*
X43566Y278480D01*
X43670Y278548D01*
X43562Y278624D01*
X43478Y278752D01*
X43450Y278902D01*
Y294264D01*
X43488Y294434D01*
X43594Y294572D01*
X43750Y294652D01*
X43924Y294658D01*
X44084Y294588D01*
X44484Y294298D01*
X44986Y294022D01*
X45520Y293810D01*
X46074Y293668D01*
X46642Y293596D01*
X47216D01*
X47784Y293668D01*
X48338Y293810D01*
X48872Y294022D01*
X49374Y294298D01*
X49838Y294634D01*
X50256Y295026D01*
X50620Y295468D01*
X50928Y295952D01*
X51172Y296470D01*
X51348Y297014D01*
X51456Y297578D01*
X51492Y298150D01*
X51456Y298722D01*
X51348Y299284D01*
X51172Y299830D01*
X50928Y300348D01*
X50620Y300832D01*
X50256Y301272D01*
X49838Y301666D01*
X49374Y302002D01*
X48872Y302278D01*
X48338Y302488D01*
X47784Y302632D01*
X47216Y302704D01*
X46642D01*
X46074Y302632D01*
X45520Y302488D01*
X44986Y302278D01*
X44484Y302002D01*
X44084Y301712D01*
X43924Y301642D01*
X43750Y301648D01*
X43594Y301726D01*
X43488Y301864D01*
X43450Y302034D01*
Y302354D01*
X43480Y302508D01*
X43566Y302638D01*
X44774Y303846D01*
X44902Y303932D01*
X45054Y303962D01*
X45204Y303934D01*
X45520Y303810D01*
X46074Y303668D01*
X46642Y303596D01*
X47216D01*
X47784Y303668D01*
X48338Y303810D01*
X48872Y304022D01*
X49374Y304298D01*
X49838Y304634D01*
X50256Y305026D01*
X50620Y305468D01*
X50928Y305952D01*
X51172Y306470D01*
X51348Y307014D01*
X51456Y307578D01*
X51492Y308150D01*
X51456Y308722D01*
X51348Y309284D01*
X51172Y309830D01*
X50928Y310348D01*
X50620Y310832D01*
X50256Y311272D01*
X49838Y311666D01*
X49374Y312002D01*
X48872Y312278D01*
X48338Y312488D01*
X47784Y312632D01*
X47216Y312704D01*
X46642D01*
X46074Y312632D01*
X45520Y312488D01*
X44986Y312278D01*
X44484Y312002D01*
X44020Y311666D01*
X43604Y311272D01*
X43238Y310832D01*
X42930Y310348D01*
X42686Y309830D01*
X42510Y309284D01*
X42402Y308722D01*
X42366Y308150D01*
X42402Y307578D01*
X42510Y307014D01*
X42686Y306470D01*
X42738Y306286D01*
X42710Y306126D01*
X42620Y305990D01*
X42176Y305546D01*
X42046Y305458D01*
X41892Y305428D01*
X41740Y305458D01*
X41610Y305546D01*
X41522Y305676D01*
X41492Y305828D01*
Y306050D01*
X38950D01*
Y303430D01*
X40010D01*
X40162Y303400D01*
X40292Y303312D01*
X40378Y303182D01*
X40410Y303030D01*
Y302034D01*
X40370Y301864D01*
X40264Y301726D01*
X40108Y301648D01*
X39934Y301642D01*
X39774Y301712D01*
X39374Y302002D01*
X38950Y302234D01*
Y300172D01*
X40010D01*
X40162Y300140D01*
X40292Y300054D01*
X40378Y299924D01*
X40410Y299772D01*
Y296528D01*
X40378Y296374D01*
X40292Y296246D01*
X40162Y296158D01*
X40010Y296128D01*
X38950D01*
Y294064D01*
X39374Y294298D01*
X39774Y294588D01*
X39934Y294658D01*
X40108Y294652D01*
X40264Y294572D01*
X40370Y294434D01*
X40410Y294264D01*
Y267076D01*
X40378Y266924D01*
X40292Y266794D01*
X40162Y266708D01*
X40010Y266676D01*
X28956D01*
X28640Y266646D01*
X28356Y266560D01*
X28094Y266418D01*
X27848Y266218D01*
X24792Y263162D01*
X24664Y263076D01*
X24514Y263044D01*
X24362Y263072D01*
X24048Y263198D01*
X23492Y263340D01*
X22924Y263412D01*
X22352D01*
X21782Y263340D01*
X21228Y263198D01*
X20696Y262986D01*
X20194Y262710D01*
X19730Y262374D01*
X19312Y261982D01*
X18946Y261540D01*
X18640Y261056D01*
X18396Y260538D01*
X18218Y259992D01*
X18112Y259430D01*
X18076Y258858D01*
X18112Y258286D01*
X18218Y257724D01*
X18396Y257178D01*
X18640Y256660D01*
X18946Y256176D01*
X19312Y255734D01*
X19730Y255342D01*
X20194Y255006D01*
X20696Y254730D01*
X21228Y254518D01*
X21782Y254376D01*
G37*
G36*
X84774Y254376D02*
X85344Y254304D01*
X85916D01*
X86484Y254376D01*
X87040Y254518D01*
X87572Y254730D01*
X88074Y255006D01*
X88538Y255342D01*
X88956Y255734D01*
X89322Y256176D01*
X89628Y256660D01*
X89838Y257108D01*
X89926Y257230D01*
X90054Y257310D01*
X90200Y257338D01*
X106650D01*
X106796Y257310D01*
X106924Y257230D01*
X107012Y257108D01*
X107222Y256660D01*
X107530Y256176D01*
X107894Y255734D01*
X108312Y255342D01*
X108776Y255006D01*
X109278Y254730D01*
X109810Y254518D01*
X110366Y254376D01*
X110934Y254304D01*
X111506D01*
X112076Y254376D01*
X112630Y254518D01*
X113164Y254730D01*
X113666Y255006D01*
X114128Y255342D01*
X114546Y255734D01*
X114912Y256176D01*
X115218Y256660D01*
X115462Y257178D01*
X115640Y257724D01*
X115748Y258286D01*
X115784Y258858D01*
X115748Y259430D01*
X115640Y259992D01*
X115462Y260538D01*
X115218Y261056D01*
X114912Y261540D01*
X114546Y261982D01*
X114128Y262374D01*
X113666Y262710D01*
X113164Y262986D01*
X112630Y263198D01*
X112076Y263340D01*
X111506Y263412D01*
X110934D01*
X110366Y263340D01*
X109810Y263198D01*
X109278Y262986D01*
X108776Y262710D01*
X108312Y262374D01*
X107894Y261982D01*
X107530Y261540D01*
X107222Y261056D01*
X107012Y260608D01*
X106924Y260486D01*
X106796Y260406D01*
X106650Y260378D01*
X90202D01*
X90054Y260406D01*
X89928Y260486D01*
X89840Y260608D01*
X89628Y261056D01*
X89322Y261540D01*
X88956Y261982D01*
X88538Y262374D01*
X88074Y262710D01*
X87572Y262986D01*
X87040Y263198D01*
X86484Y263340D01*
X85916Y263412D01*
X85344D01*
X84774Y263340D01*
X84220Y263198D01*
X83906Y263072D01*
X83754Y263044D01*
X83604Y263076D01*
X83476Y263162D01*
X82396Y264242D01*
X82308Y264372D01*
X82278Y264524D01*
Y272596D01*
X82316Y272766D01*
X82424Y272904D01*
X82578Y272984D01*
X82752Y272990D01*
X82914Y272920D01*
X83186Y272722D01*
X83608Y272490D01*
Y274554D01*
X82678D01*
X82524Y274584D01*
X82396Y274670D01*
X82308Y274800D01*
X82278Y274954D01*
Y278196D01*
X82308Y278350D01*
X82396Y278480D01*
X82524Y278566D01*
X82678Y278596D01*
X83608D01*
Y280868D01*
X83510Y280966D01*
X83452Y281094D01*
X83448Y294264D01*
X83488Y294434D01*
X83594Y294572D01*
X83750Y294652D01*
X83924Y294658D01*
X84084Y294588D01*
X84484Y294298D01*
X84986Y294022D01*
X85520Y293810D01*
X86074Y293668D01*
X86642Y293596D01*
X87216D01*
X87784Y293668D01*
X88338Y293810D01*
X88872Y294022D01*
X89374Y294298D01*
X89838Y294634D01*
X90256Y295026D01*
X90620Y295468D01*
X90928Y295952D01*
X91172Y296470D01*
X91348Y297014D01*
X91456Y297578D01*
X91492Y298150D01*
X91456Y298722D01*
X91348Y299284D01*
X91172Y299830D01*
X90928Y300348D01*
X90620Y300832D01*
X90256Y301272D01*
X89838Y301666D01*
X89374Y302002D01*
X88872Y302278D01*
X88338Y302488D01*
X87784Y302632D01*
X87216Y302704D01*
X86642D01*
X86074Y302632D01*
X85520Y302488D01*
X84986Y302278D01*
X84484Y302002D01*
X84084Y301712D01*
X83924Y301642D01*
X83750Y301648D01*
X83594Y301726D01*
X83488Y301864D01*
X83448Y302034D01*
Y303130D01*
X83418Y303446D01*
X83332Y303730D01*
X83192Y303994D01*
X82990Y304238D01*
X81238Y305990D01*
X81148Y306126D01*
X81120Y306286D01*
X81172Y306470D01*
X81348Y307014D01*
X81456Y307578D01*
X81492Y308150D01*
X81456Y308722D01*
X81348Y309284D01*
X81172Y309830D01*
X80928Y310348D01*
X80620Y310832D01*
X80256Y311272D01*
X79838Y311666D01*
X79374Y312002D01*
X78872Y312278D01*
X78338Y312488D01*
X77784Y312632D01*
X77216Y312704D01*
X76642D01*
X76074Y312632D01*
X75520Y312488D01*
X74986Y312278D01*
X74484Y312002D01*
X74020Y311666D01*
X73604Y311272D01*
X73238Y310832D01*
X72930Y310348D01*
X72686Y309830D01*
X72510Y309284D01*
X72402Y308722D01*
X72366Y308150D01*
X72402Y307578D01*
X72510Y307014D01*
X72686Y306470D01*
X72930Y305952D01*
X73238Y305468D01*
X73604Y305026D01*
X74020Y304634D01*
X74484Y304298D01*
X74986Y304022D01*
X75520Y303810D01*
X76074Y303668D01*
X76642Y303596D01*
X77216D01*
X77784Y303668D01*
X78338Y303810D01*
X78654Y303934D01*
X78804Y303962D01*
X78956Y303932D01*
X79084Y303846D01*
X80292Y302638D01*
X80378Y302508D01*
X80408Y302354D01*
Y302034D01*
X80370Y301864D01*
X80264Y301726D01*
X80108Y301648D01*
X79934Y301642D01*
X79774Y301712D01*
X79374Y302002D01*
X78872Y302278D01*
X78338Y302488D01*
X77784Y302632D01*
X77216Y302704D01*
X76642D01*
X76074Y302632D01*
X75520Y302488D01*
X74986Y302278D01*
X74484Y302002D01*
X74020Y301666D01*
X73604Y301272D01*
X73238Y300832D01*
X72930Y300348D01*
X72686Y299830D01*
X72510Y299284D01*
X72402Y298722D01*
X72366Y298150D01*
X72402Y297578D01*
X72510Y297014D01*
X72686Y296470D01*
X72930Y295952D01*
X73238Y295468D01*
X73604Y295026D01*
X74020Y294634D01*
X74484Y294298D01*
X74986Y294022D01*
X75520Y293810D01*
X76074Y293668D01*
X76642Y293596D01*
X77216D01*
X77784Y293668D01*
X78338Y293810D01*
X78872Y294022D01*
X79374Y294298D01*
X79774Y294588D01*
X79934Y294658D01*
X80108Y294652D01*
X80264Y294572D01*
X80370Y294434D01*
X80408Y294264D01*
Y282082D01*
X80378Y281928D01*
X80292Y281800D01*
X79698Y281204D01*
X79496Y280960D01*
X79356Y280696D01*
X79270Y280412D01*
X79238Y280096D01*
Y263750D01*
X79270Y263434D01*
X79356Y263148D01*
X79496Y262886D01*
X79698Y262640D01*
X81322Y261018D01*
X81410Y260882D01*
X81438Y260722D01*
X81388Y260538D01*
X81210Y259992D01*
X81104Y259430D01*
X81068Y258858D01*
X81104Y258286D01*
X81210Y257724D01*
X81388Y257178D01*
X81632Y256660D01*
X81938Y256176D01*
X82304Y255734D01*
X82722Y255342D01*
X83186Y255006D01*
X83688Y254730D01*
X84220Y254518D01*
X84774Y254376D01*
G37*
G36*
X50250Y274554D02*
Y272490D01*
X50674Y272722D01*
X51136Y273060D01*
X51554Y273452D01*
X51920Y273894D01*
X52226Y274376D01*
X52310Y274554D01*
X50250D01*
G37*
G36*
X24660Y274554D02*
Y272490D01*
X25082Y272722D01*
X25546Y273060D01*
X25964Y273452D01*
X26328Y273894D01*
X26636Y274376D01*
X26718Y274554D01*
X24660D01*
G37*
G36*
X20194Y272722D02*
X20616Y272490D01*
Y274554D01*
X18556D01*
X18640Y274376D01*
X18946Y273894D01*
X19312Y273452D01*
X19730Y273060D01*
X20194Y272722D01*
G37*
G36*
X108776Y272722D02*
X109198Y272490D01*
Y274554D01*
X107140D01*
X107222Y274376D01*
X107530Y273894D01*
X107894Y273452D01*
X108312Y273060D01*
X108776Y272722D01*
G37*
G36*
X113242Y274554D02*
Y272490D01*
X113666Y272722D01*
X114128Y273060D01*
X114546Y273452D01*
X114912Y273894D01*
X115218Y274376D01*
X115302Y274554D01*
X113242D01*
G37*
G36*
X87652Y274554D02*
Y272490D01*
X88074Y272722D01*
X88538Y273060D01*
X88956Y273452D01*
X89322Y273894D01*
X89628Y274376D01*
X89712Y274554D01*
X87652D01*
G37*
G36*
X45784Y272722D02*
X46206Y272490D01*
Y274554D01*
X44102D01*
X44230Y274376D01*
X44538Y273894D01*
X44902Y273452D01*
X45320Y273060D01*
X45784Y272722D01*
G37*
G36*
X18640Y278772D02*
X18556Y278596D01*
X20616D01*
Y280660D01*
X20194Y280428D01*
X19730Y280090D01*
X19312Y279698D01*
X18946Y279256D01*
X18640Y278772D01*
G37*
G36*
X50250Y280660D02*
Y278596D01*
X52310D01*
X52226Y278772D01*
X51920Y279256D01*
X51554Y279698D01*
X51136Y280090D01*
X50674Y280428D01*
X50250Y280660D01*
G37*
G36*
X24660Y280660D02*
Y278596D01*
X26718D01*
X26636Y278772D01*
X26328Y279256D01*
X25964Y279698D01*
X25546Y280090D01*
X25082Y280428D01*
X24660Y280660D01*
G37*
G36*
X107222Y278772D02*
X107140Y278596D01*
X109198D01*
Y280660D01*
X108776Y280428D01*
X108312Y280090D01*
X107894Y279698D01*
X107530Y279256D01*
X107222Y278772D01*
G37*
G36*
X113242Y280660D02*
Y278596D01*
X115302D01*
X115218Y278772D01*
X114912Y279256D01*
X114546Y279698D01*
X114128Y280090D01*
X113666Y280428D01*
X113242Y280660D01*
G37*
G36*
X87652Y280660D02*
Y278596D01*
X89712D01*
X89628Y278772D01*
X89322Y279256D01*
X88956Y279698D01*
X88538Y280090D01*
X88074Y280428D01*
X87652Y280660D01*
G37*
G36*
X44120Y278608D02*
X44102Y278596D01*
X46206D01*
Y280660D01*
X45784Y280428D01*
X45320Y280090D01*
X44902Y279698D01*
X44538Y279256D01*
X44120Y278608D01*
G37*
G36*
X96074Y293668D02*
X96642Y293596D01*
X97216D01*
X97784Y293668D01*
X98338Y293810D01*
X98872Y294022D01*
X99374Y294298D01*
X99838Y294634D01*
X100256Y295026D01*
X100620Y295468D01*
X100928Y295952D01*
X101172Y296470D01*
X101348Y297014D01*
X101456Y297578D01*
X101492Y298150D01*
X101456Y298722D01*
X101348Y299284D01*
X101172Y299830D01*
X100928Y300348D01*
X100620Y300832D01*
X100256Y301272D01*
X99838Y301666D01*
X99374Y302002D01*
X98872Y302278D01*
X98338Y302488D01*
X97784Y302632D01*
X97216Y302704D01*
X96642D01*
X96074Y302632D01*
X95520Y302488D01*
X94986Y302278D01*
X94484Y302002D01*
X94020Y301666D01*
X93604Y301272D01*
X93238Y300832D01*
X92930Y300348D01*
X92686Y299830D01*
X92510Y299284D01*
X92402Y298722D01*
X92366Y298150D01*
X92402Y297578D01*
X92510Y297014D01*
X92686Y296470D01*
X92930Y295952D01*
X93238Y295468D01*
X93604Y295026D01*
X94020Y294634D01*
X94484Y294298D01*
X94986Y294022D01*
X95520Y293810D01*
X96074Y293668D01*
G37*
G36*
X34484Y294298D02*
X34908Y294064D01*
Y296128D01*
X32848D01*
X32930Y295952D01*
X33238Y295468D01*
X33604Y295026D01*
X34020Y294634D01*
X34484Y294298D01*
G37*
G36*
X32930Y300348D02*
X32848Y300172D01*
X34908D01*
Y302234D01*
X34484Y302002D01*
X34020Y301666D01*
X33604Y301272D01*
X33238Y300832D01*
X32930Y300348D01*
G37*
G36*
X33160Y303458D02*
X33408Y303430D01*
X34908D01*
Y306050D01*
X32366D01*
Y304472D01*
X32394Y304224D01*
X32470Y304008D01*
X32590Y303816D01*
X32752Y303654D01*
X32944Y303532D01*
X33160Y303458D01*
G37*
G36*
X56074Y303668D02*
X56642Y303596D01*
X57216D01*
X57784Y303668D01*
X58338Y303810D01*
X58872Y304022D01*
X59374Y304298D01*
X59838Y304634D01*
X60256Y305026D01*
X60620Y305468D01*
X60928Y305952D01*
X61172Y306470D01*
X61348Y307014D01*
X61456Y307578D01*
X61492Y308150D01*
X61456Y308722D01*
X61348Y309284D01*
X61172Y309830D01*
X60928Y310348D01*
X60620Y310832D01*
X60256Y311272D01*
X59838Y311666D01*
X59374Y312002D01*
X58872Y312278D01*
X58338Y312488D01*
X57784Y312632D01*
X57216Y312704D01*
X56642D01*
X56074Y312632D01*
X55520Y312488D01*
X54986Y312278D01*
X54484Y312002D01*
X54020Y311666D01*
X53604Y311272D01*
X53238Y310832D01*
X52930Y310348D01*
X52686Y309830D01*
X52510Y309284D01*
X52402Y308722D01*
X52366Y308150D01*
X52402Y307578D01*
X52510Y307014D01*
X52686Y306470D01*
X52930Y305952D01*
X53238Y305468D01*
X53604Y305026D01*
X54020Y304634D01*
X54484Y304298D01*
X54986Y304022D01*
X55520Y303810D01*
X56074Y303668D01*
G37*
G36*
X96074Y303668D02*
X96642Y303596D01*
X97216D01*
X97784Y303668D01*
X98338Y303810D01*
X98872Y304022D01*
X99374Y304298D01*
X99838Y304634D01*
X100256Y305026D01*
X100620Y305468D01*
X100928Y305952D01*
X101172Y306470D01*
X101348Y307014D01*
X101456Y307578D01*
X101492Y308150D01*
X101456Y308722D01*
X101348Y309284D01*
X101172Y309830D01*
X100928Y310348D01*
X100620Y310832D01*
X100256Y311272D01*
X99838Y311666D01*
X99374Y312002D01*
X98872Y312278D01*
X98338Y312488D01*
X97784Y312632D01*
X97216Y312704D01*
X96642D01*
X96074Y312632D01*
X95520Y312488D01*
X94986Y312278D01*
X94484Y312002D01*
X94020Y311666D01*
X93604Y311272D01*
X93238Y310832D01*
X92930Y310348D01*
X92686Y309830D01*
X92510Y309284D01*
X92402Y308722D01*
X92366Y308150D01*
X92402Y307578D01*
X92510Y307014D01*
X92686Y306470D01*
X92930Y305952D01*
X93238Y305468D01*
X93604Y305026D01*
X94020Y304634D01*
X94484Y304298D01*
X94986Y304022D01*
X95520Y303810D01*
X96074Y303668D01*
G37*
G36*
X86074Y303668D02*
X86642Y303596D01*
X87216D01*
X87784Y303668D01*
X88338Y303810D01*
X88872Y304022D01*
X89374Y304298D01*
X89838Y304634D01*
X90256Y305026D01*
X90620Y305468D01*
X90928Y305952D01*
X91172Y306470D01*
X91348Y307014D01*
X91456Y307578D01*
X91492Y308150D01*
X91456Y308722D01*
X91348Y309284D01*
X91172Y309830D01*
X90928Y310348D01*
X90620Y310832D01*
X90256Y311272D01*
X89838Y311666D01*
X89374Y312002D01*
X88872Y312278D01*
X88338Y312488D01*
X87784Y312632D01*
X87216Y312704D01*
X86642D01*
X86074Y312632D01*
X85520Y312488D01*
X84986Y312278D01*
X84484Y312002D01*
X84020Y311666D01*
X83604Y311272D01*
X83238Y310832D01*
X82930Y310348D01*
X82686Y309830D01*
X82510Y309284D01*
X82402Y308722D01*
X82366Y308150D01*
X82402Y307578D01*
X82510Y307014D01*
X82686Y306470D01*
X82930Y305952D01*
X83238Y305468D01*
X83604Y305026D01*
X84020Y304634D01*
X84484Y304298D01*
X84986Y304022D01*
X85520Y303810D01*
X86074Y303668D01*
G37*
G36*
X9178Y307088D02*
X9844Y307052D01*
X10508Y307088D01*
X11164Y307200D01*
X11806Y307384D01*
X12420Y307640D01*
X13004Y307962D01*
X13546Y308348D01*
X14044Y308792D01*
X14488Y309288D01*
X14874Y309832D01*
X15196Y310414D01*
X15450Y311030D01*
X15634Y311670D01*
X15746Y312326D01*
X15784Y312992D01*
X15746Y313658D01*
X15634Y314314D01*
X15450Y314954D01*
X15196Y315570D01*
X14874Y316152D01*
X14488Y316696D01*
X14044Y317192D01*
X13546Y317636D01*
X13004Y318022D01*
X12420Y318344D01*
X11806Y318600D01*
X11164Y318784D01*
X10508Y318896D01*
X9844Y318932D01*
X9178Y318896D01*
X8522Y318784D01*
X7880Y318600D01*
X7266Y318344D01*
X6682Y318022D01*
X6140Y317636D01*
X5642Y317192D01*
X5198Y316696D01*
X4812Y316152D01*
X4490Y315570D01*
X4236Y314954D01*
X4052Y314314D01*
X3940Y313658D01*
X3902Y312992D01*
X3940Y312326D01*
X4052Y311670D01*
X4236Y311030D01*
X4490Y310414D01*
X4812Y309832D01*
X5198Y309288D01*
X5642Y308792D01*
X6140Y308348D01*
X6682Y307962D01*
X7266Y307640D01*
X7880Y307384D01*
X8522Y307200D01*
X9178Y307088D01*
G37*
G36*
X123350Y307088D02*
X124016Y307052D01*
X124682Y307088D01*
X125338Y307200D01*
X125978Y307384D01*
X126594Y307640D01*
X127176Y307962D01*
X127720Y308348D01*
X128216Y308792D01*
X128660Y309288D01*
X129046Y309832D01*
X129368Y310414D01*
X129624Y311030D01*
X129808Y311670D01*
X129920Y312326D01*
X129956Y312992D01*
X129920Y313658D01*
X129808Y314314D01*
X129624Y314954D01*
X129368Y315570D01*
X129046Y316152D01*
X128660Y316696D01*
X128216Y317192D01*
X127720Y317636D01*
X127176Y318022D01*
X126594Y318344D01*
X125978Y318600D01*
X125338Y318784D01*
X124682Y318896D01*
X124016Y318932D01*
X123350Y318896D01*
X122694Y318784D01*
X122054Y318600D01*
X121438Y318344D01*
X120856Y318022D01*
X120312Y317636D01*
X119816Y317192D01*
X119372Y316696D01*
X118986Y316152D01*
X118664Y315570D01*
X118408Y314954D01*
X118224Y314314D01*
X118112Y313658D01*
X118076Y312992D01*
X118112Y312326D01*
X118224Y311670D01*
X118408Y311030D01*
X118664Y310414D01*
X118986Y309832D01*
X119372Y309288D01*
X119816Y308792D01*
X120312Y308348D01*
X120856Y307962D01*
X121438Y307640D01*
X122054Y307384D01*
X122694Y307200D01*
X123350Y307088D01*
G37*
G36*
X38950Y312870D02*
Y310250D01*
X41492D01*
Y311828D01*
X41464Y312076D01*
X41390Y312292D01*
X41268Y312484D01*
X41106Y312646D01*
X40914Y312766D01*
X40698Y312842D01*
X40450Y312870D01*
X38950D01*
G37*
G36*
X32366Y311828D02*
Y310250D01*
X34908D01*
Y312870D01*
X33408D01*
X33160Y312842D01*
X32944Y312766D01*
X32752Y312646D01*
X32590Y312484D01*
X32470Y312292D01*
X32394Y312076D01*
X32366Y311828D01*
G37*
%LPD*%
G54D10*
X61930Y11810D02*
G01Y40914D01*
X61053Y41791D01*
X48228Y211614D02*
X22638D01*
X111220Y22638D02*
X85630D01*
X111220Y69882D02*
X85630D01*
X111220Y117126D02*
X85630D01*
X111220Y164370D02*
X85630D01*
X111220Y211614D02*
X85630D01*
X48228Y117126D02*
X22638D01*
X48228Y164370D02*
X22638D01*
X111220Y258858D02*
X85630D01*
X76929Y308150D02*
X81929Y303150D01*
Y281287D01*
X80758Y280116D01*
Y263730D01*
X85630Y258858D01*
X41929Y265157D02*
X48228Y258858D01*
X46929Y308150D02*
X41929Y303150D01*
Y265157D01*
X28937D01*
X22638Y258858D01*
X66929Y308150D02*
X61929Y303150D01*
Y83583D01*
X48228Y69882D01*
X22638D01*
X66929Y298150D02*
Y66349D01*
X57279Y56699D01*
Y31689D01*
X48228Y22638D01*
X22638D01*
G54D14*
X71930Y11810D03*
G54D15*
X61930D03*
G54D14*
X36929Y298150D03*
X96929D03*
X86929D03*
X76929D03*
X66929D03*
X56929D03*
X46929D03*
G54D16*
X36929Y308150D03*
G54D14*
X46929D03*
X56929D03*
X66929D03*
X76929D03*
X86929D03*
X96929D03*
X22638Y276574D03*
X48228D03*
X22638Y258858D03*
X48228D03*
X22638Y229330D03*
X48228D03*
X22638Y211614D03*
X48228D03*
X22638Y182086D03*
X48228D03*
X22638Y164370D03*
X48228D03*
X22638Y134842D03*
X48228D03*
X22638Y117126D03*
X48228D03*
X22638Y87598D03*
X48228D03*
X22638Y69882D03*
X48228D03*
X22638Y40354D03*
X48228D03*
X22638Y22638D03*
X48228D03*
X85630Y276574D03*
X111220D03*
X85630Y258858D03*
X111220D03*
X85630Y229330D03*
X111220D03*
X85630Y211614D03*
X111220D03*
X85630Y182086D03*
X111220D03*
X85630Y164370D03*
X111220D03*
X85630Y134842D03*
X111220D03*
X85630Y117126D03*
X111220D03*
X85630Y87598D03*
X111220D03*
X85630Y69882D03*
X111220D03*
X85630Y40354D03*
X111220D03*
X85630Y22638D03*
X111220D03*
G54D11*
X61053Y41791D03*
M02*
