%FSLAX25Y25*%
%MOIN*%
%ADD10C,0.01000000*%
%ADD11C,0.02401575*%
%ADD13R,0.0669685X0.0475394*%
%ADD14C,0.07086614*%
%ADD15R,0.0708661X0.0708661*%
%ADD16R,0.0708661X0.074*%
%IPPOS*%
G75*
G36*
X132438Y1020D02*
G01X1420D01*
X1266Y1050D01*
X1138Y1138D01*
X1050Y1266D01*
X1020Y1420D01*
Y321414D01*
X1050Y321568D01*
X1138Y321698D01*
X1266Y321784D01*
X1420Y321814D01*
X132438D01*
X132592Y321784D01*
X132722Y321698D01*
X132808Y321568D01*
X132838Y321414D01*
Y1420D01*
X132808Y1266D01*
X132722Y1138D01*
X132592Y1050D01*
X132438Y1020D01*
G37*
%LPC*%
G36*
X123350Y3938D02*
X124016Y3902D01*
X124682Y3938D01*
X125338Y4050D01*
X125978Y4234D01*
X126594Y4490D01*
X127176Y4812D01*
X127720Y5198D01*
X128216Y5642D01*
X128660Y6138D01*
X129046Y6682D01*
X129368Y7264D01*
X129624Y7880D01*
X129808Y8520D01*
X129920Y9176D01*
X129956Y9842D01*
X129920Y10508D01*
X129808Y11164D01*
X129624Y11804D01*
X129368Y12420D01*
X129046Y13002D01*
X128660Y13546D01*
X128216Y14042D01*
X127720Y14486D01*
X127176Y14872D01*
X126594Y15194D01*
X125978Y15450D01*
X125338Y15634D01*
X124682Y15746D01*
X124016Y15782D01*
X123350Y15746D01*
X122694Y15634D01*
X122054Y15450D01*
X121438Y15194D01*
X120856Y14872D01*
X120312Y14486D01*
X119816Y14042D01*
X119372Y13546D01*
X118986Y13002D01*
X118664Y12420D01*
X118408Y11804D01*
X118224Y11164D01*
X118112Y10508D01*
X118076Y9842D01*
X118112Y9176D01*
X118224Y8520D01*
X118408Y7880D01*
X118664Y7264D01*
X118986Y6682D01*
X119372Y6138D01*
X119816Y5642D01*
X120312Y5198D01*
X120856Y4812D01*
X121438Y4490D01*
X122054Y4234D01*
X122694Y4050D01*
X123350Y3938D01*
G37*
G36*
X9178Y3938D02*
X9844Y3902D01*
X10508Y3938D01*
X11164Y4050D01*
X11806Y4234D01*
X12420Y4490D01*
X13004Y4812D01*
X13546Y5198D01*
X14044Y5642D01*
X14488Y6138D01*
X14874Y6682D01*
X15196Y7264D01*
X15450Y7880D01*
X15634Y8520D01*
X15746Y9176D01*
X15784Y9842D01*
X15746Y10508D01*
X15634Y11164D01*
X15450Y11804D01*
X15196Y12420D01*
X14874Y13002D01*
X14488Y13546D01*
X14044Y14042D01*
X13546Y14486D01*
X13004Y14872D01*
X12420Y15194D01*
X11806Y15450D01*
X11164Y15634D01*
X10508Y15746D01*
X9844Y15782D01*
X9178Y15746D01*
X8522Y15634D01*
X7880Y15450D01*
X7266Y15194D01*
X6682Y14872D01*
X6140Y14486D01*
X5642Y14042D01*
X5198Y13546D01*
X4812Y13002D01*
X4490Y12420D01*
X4236Y11804D01*
X4052Y11164D01*
X3940Y10508D01*
X3902Y9842D01*
X3940Y9176D01*
X4052Y8520D01*
X4236Y7880D01*
X4490Y7264D01*
X4812Y6682D01*
X5198Y6138D01*
X5642Y5642D01*
X6140Y5198D01*
X6682Y4812D01*
X7266Y4490D01*
X7880Y4234D01*
X8522Y4050D01*
X9178Y3938D01*
G37*
G36*
X58160Y7274D02*
X58410Y7246D01*
X65450D01*
X65700Y7274D01*
X65914Y7350D01*
X66108Y7472D01*
X66268Y7632D01*
X66390Y7826D01*
X66466Y8040D01*
X66494Y8290D01*
Y15330D01*
X66466Y15580D01*
X66390Y15794D01*
X66268Y15988D01*
X66108Y16148D01*
X65914Y16270D01*
X65700Y16346D01*
X65450Y16374D01*
X58410D01*
X58160Y16346D01*
X57946Y16270D01*
X57752Y16148D01*
X57592Y15988D01*
X57470Y15794D01*
X57394Y15580D01*
X57366Y15330D01*
Y8290D01*
X57394Y8040D01*
X57470Y7826D01*
X57592Y7632D01*
X57752Y7472D01*
X57946Y7350D01*
X58160Y7274D01*
G37*
G36*
X71076Y7328D02*
X71644Y7256D01*
X72216D01*
X72784Y7328D01*
X73340Y7470D01*
X73872Y7682D01*
X74374Y7958D01*
X74838Y8294D01*
X75256Y8686D01*
X75622Y9128D01*
X75928Y9612D01*
X76172Y10130D01*
X76350Y10676D01*
X76456Y11238D01*
X76492Y11810D01*
X76456Y12382D01*
X76350Y12944D01*
X76172Y13490D01*
X75928Y14008D01*
X75622Y14492D01*
X75256Y14934D01*
X74838Y15326D01*
X74374Y15662D01*
X73872Y15938D01*
X73702Y16006D01*
X73570Y16092D01*
X73482Y16222D01*
X73450Y16378D01*
Y25044D01*
X73420Y25356D01*
X73314Y25694D01*
X73296Y25842D01*
X73334Y25986D01*
X73422Y26106D01*
X73548Y26186D01*
X73694Y26214D01*
X74192D01*
X74440Y26242D01*
X74656Y26318D01*
X74848Y26438D01*
X75010Y26600D01*
X75132Y26792D01*
X75206Y27008D01*
X75234Y27256D01*
Y31966D01*
X75206Y32214D01*
X75132Y32430D01*
X75010Y32622D01*
X74848Y32784D01*
X74656Y32904D01*
X74440Y32980D01*
X74192Y33008D01*
X68330D01*
X68176Y33038D01*
X68048Y33126D01*
X67960Y33256D01*
X67930Y33408D01*
Y37458D01*
X67960Y37612D01*
X68048Y37740D01*
X68176Y37828D01*
X68330Y37858D01*
X74192D01*
X74440Y37886D01*
X74656Y37962D01*
X74848Y38082D01*
X75010Y38244D01*
X75132Y38436D01*
X75206Y38652D01*
X75234Y38900D01*
Y43610D01*
X75206Y43858D01*
X75132Y44074D01*
X75010Y44266D01*
X74848Y44428D01*
X74656Y44548D01*
X74440Y44624D01*
X74192Y44652D01*
X73894D01*
X73742Y44682D01*
X73612Y44770D01*
X73526Y44898D01*
X73494Y45052D01*
X73526Y45206D01*
X73612Y45334D01*
X73866Y45588D01*
X74068Y45834D01*
X74208Y46096D01*
X74294Y46382D01*
X74326Y46698D01*
Y50508D01*
X74356Y50662D01*
X74442Y50792D01*
X74572Y50878D01*
X74726Y50908D01*
X75706D01*
X75954Y50938D01*
X76170Y51012D01*
X76362Y51134D01*
X76524Y51294D01*
X76646Y51488D01*
X76720Y51702D01*
X76748Y51952D01*
Y58284D01*
X76720Y58534D01*
X76646Y58748D01*
X76524Y58942D01*
X76362Y59102D01*
X76170Y59224D01*
X75954Y59298D01*
X75706Y59326D01*
X69908D01*
X69754Y59358D01*
X69624Y59444D01*
X69538Y59574D01*
X69508Y59726D01*
X69538Y59880D01*
X69624Y60010D01*
X71926Y62312D01*
X72128Y62558D01*
X72268Y62820D01*
X72354Y63104D01*
X72386Y63420D01*
Y120302D01*
X72416Y120456D01*
X72504Y120586D01*
X72632Y120672D01*
X72786Y120702D01*
X74192D01*
X74440Y120730D01*
X74656Y120806D01*
X74848Y120926D01*
X75010Y121088D01*
X75132Y121280D01*
X75206Y121496D01*
X75234Y121744D01*
Y126454D01*
X75206Y126702D01*
X75132Y126918D01*
X75010Y127110D01*
X74848Y127272D01*
X74656Y127394D01*
X74440Y127468D01*
X74192Y127496D01*
X73894D01*
X73742Y127526D01*
X73612Y127614D01*
X73526Y127744D01*
X73494Y127896D01*
X73526Y128050D01*
X73612Y128180D01*
X77896Y132464D01*
X78098Y132710D01*
X78238Y132972D01*
X78324Y133256D01*
X78356Y133572D01*
Y209198D01*
X78324Y209514D01*
X78238Y209798D01*
X78098Y210062D01*
X77896Y210306D01*
X73612Y214592D01*
X73524Y214722D01*
X73494Y214874D01*
X73524Y215028D01*
X73612Y215158D01*
X73742Y215244D01*
X73894Y215274D01*
X74192D01*
X74442Y215302D01*
X74656Y215378D01*
X74850Y215500D01*
X75010Y215660D01*
X75132Y215854D01*
X75206Y216068D01*
X75234Y216318D01*
Y218894D01*
X75266Y219046D01*
X75352Y219176D01*
X75482Y219264D01*
X75634Y219294D01*
X75788Y219264D01*
X75918Y219176D01*
X81322Y213774D01*
X81410Y213638D01*
X81438Y213478D01*
X81388Y213294D01*
X81210Y212748D01*
X81104Y212186D01*
X81068Y211614D01*
X81104Y211042D01*
X81210Y210480D01*
X81388Y209934D01*
X81632Y209416D01*
X81938Y208932D01*
X82304Y208490D01*
X82722Y208098D01*
X83186Y207762D01*
X83688Y207486D01*
X84220Y207274D01*
X84774Y207132D01*
X85344Y207060D01*
X85916D01*
X86484Y207132D01*
X87040Y207274D01*
X87572Y207486D01*
X88074Y207762D01*
X88164Y207828D01*
X88326Y207896D01*
X88500Y207892D01*
X88654Y207812D01*
X88762Y207674D01*
X88800Y207504D01*
Y186196D01*
X88762Y186026D01*
X88654Y185888D01*
X88500Y185810D01*
X88326Y185804D01*
X88164Y185874D01*
X88074Y185938D01*
X87652Y186172D01*
Y184108D01*
X88400D01*
X88554Y184078D01*
X88682Y183992D01*
X88770Y183862D01*
X88800Y183708D01*
Y180466D01*
X88770Y180312D01*
X88682Y180182D01*
X88554Y180096D01*
X88400Y180066D01*
X87652D01*
Y178002D01*
X88074Y178234D01*
X88164Y178300D01*
X88326Y178370D01*
X88500Y178364D01*
X88654Y178284D01*
X88762Y178146D01*
X88800Y177976D01*
Y169854D01*
X88770Y169702D01*
X88682Y169572D01*
X87784Y168674D01*
X87656Y168588D01*
X87506Y168556D01*
X87354Y168584D01*
X87040Y168710D01*
X86484Y168852D01*
X85916Y168924D01*
X85344D01*
X84774Y168852D01*
X84220Y168710D01*
X83688Y168498D01*
X83186Y168222D01*
X82722Y167886D01*
X82304Y167494D01*
X81938Y167052D01*
X81632Y166568D01*
X81388Y166050D01*
X81210Y165504D01*
X81104Y164942D01*
X81068Y164370D01*
X81104Y163798D01*
X81210Y163236D01*
X81388Y162690D01*
X81632Y162172D01*
X81938Y161688D01*
X82304Y161246D01*
X82722Y160854D01*
X83186Y160518D01*
X83688Y160242D01*
X84220Y160030D01*
X84774Y159888D01*
X85344Y159816D01*
X85916D01*
X86484Y159888D01*
X87040Y160030D01*
X87572Y160242D01*
X88074Y160518D01*
X88538Y160854D01*
X88956Y161246D01*
X89322Y161688D01*
X89738Y162336D01*
X89868Y162416D01*
X90020Y162442D01*
X90170Y162408D01*
X90296Y162322D01*
X90380Y162192D01*
X90408Y162042D01*
Y137170D01*
X90380Y137020D01*
X90296Y136892D01*
X90188Y136816D01*
X90292Y136748D01*
X90378Y136618D01*
X90408Y136464D01*
Y133220D01*
X90378Y133068D01*
X90292Y132938D01*
X90188Y132868D01*
X90296Y132794D01*
X90380Y132666D01*
X90408Y132514D01*
Y124220D01*
X90378Y124066D01*
X90292Y123938D01*
X87784Y121430D01*
X87656Y121344D01*
X87506Y121312D01*
X87354Y121340D01*
X87040Y121466D01*
X86484Y121608D01*
X85916Y121680D01*
X85344D01*
X84774Y121608D01*
X84220Y121466D01*
X83688Y121254D01*
X83186Y120978D01*
X82722Y120642D01*
X82304Y120250D01*
X81938Y119808D01*
X81632Y119324D01*
X81388Y118806D01*
X81210Y118260D01*
X81104Y117698D01*
X81068Y117126D01*
X81104Y116554D01*
X81210Y115992D01*
X81388Y115446D01*
X81632Y114928D01*
X81938Y114444D01*
X82304Y114002D01*
X82722Y113610D01*
X83186Y113274D01*
X83688Y112998D01*
X84220Y112786D01*
X84774Y112644D01*
X85344Y112572D01*
X85916D01*
X86484Y112644D01*
X87040Y112786D01*
X87572Y112998D01*
X88074Y113274D01*
X88538Y113610D01*
X88956Y114002D01*
X89322Y114444D01*
X89628Y114928D01*
X89872Y115446D01*
X90050Y115992D01*
X90156Y116554D01*
X90192Y117126D01*
X90156Y117698D01*
X90050Y118260D01*
X89872Y118806D01*
X89822Y118990D01*
X89850Y119150D01*
X89938Y119284D01*
X91336Y120682D01*
X91464Y120768D01*
X91618Y120798D01*
X91772Y120768D01*
X91900Y120682D01*
X91988Y120552D01*
X92018Y120398D01*
Y78584D01*
X91988Y78432D01*
X91900Y78302D01*
X87784Y74186D01*
X87656Y74100D01*
X87506Y74068D01*
X87354Y74096D01*
X87040Y74222D01*
X86484Y74364D01*
X85916Y74436D01*
X85344D01*
X84774Y74364D01*
X84220Y74222D01*
X83688Y74010D01*
X83186Y73734D01*
X82722Y73398D01*
X82304Y73006D01*
X81938Y72564D01*
X81632Y72080D01*
X81388Y71562D01*
X81210Y71016D01*
X81104Y70454D01*
X81068Y69882D01*
X81104Y69310D01*
X81210Y68748D01*
X81388Y68202D01*
X81632Y67684D01*
X81938Y67200D01*
X82304Y66758D01*
X82722Y66366D01*
X83186Y66030D01*
X83688Y65754D01*
X84220Y65542D01*
X84774Y65400D01*
X85344Y65328D01*
X85916D01*
X86484Y65400D01*
X87040Y65542D01*
X87572Y65754D01*
X88074Y66030D01*
X88538Y66366D01*
X88956Y66758D01*
X89322Y67200D01*
X89628Y67684D01*
X89872Y68202D01*
X90050Y68748D01*
X90156Y69310D01*
X90192Y69882D01*
X90156Y70454D01*
X90050Y71016D01*
X89872Y71562D01*
X89822Y71746D01*
X89850Y71906D01*
X89938Y72040D01*
X94598Y76700D01*
X94700Y76824D01*
X94826Y76926D01*
X94982Y76970D01*
X95144Y76946D01*
X95282Y76862D01*
X95376Y76730D01*
X95408Y76570D01*
Y36948D01*
X95440Y36632D01*
X95526Y36348D01*
X95666Y36086D01*
X95868Y35840D01*
X106912Y24796D01*
X107000Y24660D01*
X107028Y24502D01*
X106978Y24318D01*
X106802Y23772D01*
X106694Y23210D01*
X106658Y22638D01*
X106694Y22066D01*
X106802Y21504D01*
X106978Y20958D01*
X107222Y20440D01*
X107530Y19956D01*
X107894Y19514D01*
X108312Y19122D01*
X108776Y18786D01*
X109278Y18510D01*
X109810Y18298D01*
X110366Y18156D01*
X110934Y18084D01*
X111506D01*
X112076Y18156D01*
X112630Y18298D01*
X113164Y18510D01*
X113666Y18786D01*
X114128Y19122D01*
X114546Y19514D01*
X114912Y19956D01*
X115218Y20440D01*
X115462Y20958D01*
X115640Y21504D01*
X115748Y22066D01*
X115784Y22638D01*
X115748Y23210D01*
X115640Y23772D01*
X115462Y24318D01*
X115218Y24836D01*
X114912Y25320D01*
X114546Y25762D01*
X114128Y26154D01*
X113666Y26490D01*
X113164Y26766D01*
X112630Y26976D01*
X112076Y27120D01*
X111506Y27192D01*
X110934D01*
X110366Y27120D01*
X109810Y26976D01*
X109496Y26852D01*
X109344Y26824D01*
X109194Y26856D01*
X109066Y26942D01*
X98566Y37442D01*
X98480Y37570D01*
X98448Y37724D01*
Y293582D01*
X98480Y293738D01*
X98570Y293868D01*
X98702Y293954D01*
X98872Y294022D01*
X99374Y294298D01*
X99838Y294634D01*
X100256Y295026D01*
X100620Y295468D01*
X100928Y295952D01*
X101172Y296470D01*
X101348Y297014D01*
X101456Y297578D01*
X101492Y298150D01*
X101456Y298722D01*
X101348Y299284D01*
X101172Y299830D01*
X100928Y300348D01*
X100620Y300832D01*
X100256Y301272D01*
X99838Y301666D01*
X99374Y302002D01*
X98872Y302278D01*
X98338Y302488D01*
X97784Y302632D01*
X97216Y302704D01*
X96642D01*
X96074Y302632D01*
X95520Y302488D01*
X94986Y302278D01*
X94484Y302002D01*
X94086Y301712D01*
X93924Y301642D01*
X93750Y301648D01*
X93596Y301728D01*
X93488Y301866D01*
X93450Y302036D01*
Y302356D01*
X93480Y302508D01*
X93568Y302638D01*
X94774Y303846D01*
X94902Y303932D01*
X95054Y303962D01*
X95204Y303934D01*
X95520Y303810D01*
X96074Y303668D01*
X96642Y303596D01*
X97216D01*
X97784Y303668D01*
X98338Y303810D01*
X98872Y304022D01*
X99374Y304298D01*
X99838Y304634D01*
X100256Y305026D01*
X100620Y305468D01*
X100928Y305952D01*
X101172Y306470D01*
X101348Y307014D01*
X101456Y307578D01*
X101492Y308150D01*
X101456Y308722D01*
X101348Y309284D01*
X101172Y309830D01*
X100928Y310348D01*
X100620Y310832D01*
X100256Y311272D01*
X99838Y311666D01*
X99374Y312002D01*
X98872Y312278D01*
X98338Y312488D01*
X97784Y312632D01*
X97216Y312704D01*
X96642D01*
X96074Y312632D01*
X95520Y312488D01*
X94986Y312278D01*
X94484Y312002D01*
X94020Y311666D01*
X93604Y311272D01*
X93238Y310832D01*
X92930Y310348D01*
X92686Y309830D01*
X92510Y309284D01*
X92402Y308722D01*
X92366Y308150D01*
X92402Y307578D01*
X92510Y307014D01*
X92686Y306470D01*
X92738Y306286D01*
X92710Y306126D01*
X92620Y305990D01*
X90870Y304240D01*
X90668Y303994D01*
X90528Y303732D01*
X90442Y303446D01*
X90410Y303132D01*
Y302034D01*
X90372Y301864D01*
X90264Y301726D01*
X90110Y301646D01*
X89936Y301642D01*
X89774Y301710D01*
X89374Y302002D01*
X88872Y302278D01*
X88338Y302488D01*
X87784Y302632D01*
X87216Y302704D01*
X86642D01*
X86074Y302632D01*
X85520Y302488D01*
X84986Y302278D01*
X84484Y302002D01*
X84084Y301712D01*
X83924Y301642D01*
X83750Y301648D01*
X83594Y301726D01*
X83488Y301864D01*
X83448Y302034D01*
Y302354D01*
X83480Y302508D01*
X83566Y302638D01*
X84774Y303846D01*
X84902Y303932D01*
X85054Y303962D01*
X85204Y303934D01*
X85520Y303810D01*
X86074Y303668D01*
X86642Y303596D01*
X87216D01*
X87784Y303668D01*
X88338Y303810D01*
X88872Y304022D01*
X89374Y304298D01*
X89838Y304634D01*
X90256Y305026D01*
X90620Y305468D01*
X90928Y305952D01*
X91172Y306470D01*
X91348Y307014D01*
X91456Y307578D01*
X91492Y308150D01*
X91456Y308722D01*
X91348Y309284D01*
X91172Y309830D01*
X90928Y310348D01*
X90620Y310832D01*
X90256Y311272D01*
X89838Y311666D01*
X89374Y312002D01*
X88872Y312278D01*
X88338Y312488D01*
X87784Y312632D01*
X87216Y312704D01*
X86642D01*
X86074Y312632D01*
X85520Y312488D01*
X84986Y312278D01*
X84484Y312002D01*
X84020Y311666D01*
X83604Y311272D01*
X83238Y310832D01*
X82930Y310348D01*
X82686Y309830D01*
X82510Y309284D01*
X82402Y308722D01*
X82366Y308150D01*
X82402Y307578D01*
X82510Y307014D01*
X82686Y306470D01*
X82738Y306286D01*
X82710Y306126D01*
X82620Y305990D01*
X80868Y304238D01*
X80666Y303994D01*
X80526Y303730D01*
X80440Y303446D01*
X80408Y303130D01*
Y302034D01*
X80370Y301864D01*
X80264Y301726D01*
X80108Y301648D01*
X79934Y301642D01*
X79774Y301712D01*
X79374Y302002D01*
X78872Y302278D01*
X78338Y302488D01*
X77784Y302632D01*
X77216Y302704D01*
X76642D01*
X76074Y302632D01*
X75520Y302488D01*
X74986Y302278D01*
X74484Y302002D01*
X74020Y301666D01*
X73604Y301272D01*
X73238Y300832D01*
X72930Y300348D01*
X72686Y299830D01*
X72510Y299284D01*
X72402Y298722D01*
X72366Y298150D01*
X72402Y297578D01*
X72510Y297014D01*
X72686Y296470D01*
X72930Y295952D01*
X73238Y295468D01*
X73604Y295026D01*
X74020Y294634D01*
X74484Y294298D01*
X74986Y294022D01*
X75156Y293954D01*
X75288Y293868D01*
X75378Y293738D01*
X75410Y293582D01*
Y248704D01*
X75378Y248550D01*
X75292Y248420D01*
X75162Y248334D01*
X75010Y248304D01*
X69904D01*
X69656Y248276D01*
X69440Y248200D01*
X69248Y248078D01*
X69086Y247918D01*
X68966Y247724D01*
X68890Y247510D01*
X68862Y247260D01*
Y240928D01*
X68890Y240678D01*
X68966Y240464D01*
X69086Y240272D01*
X69248Y240110D01*
X69440Y239988D01*
X69656Y239914D01*
X69904Y239886D01*
X70886D01*
X71038Y239854D01*
X71168Y239768D01*
X71254Y239638D01*
X71286Y239486D01*
Y236532D01*
X71254Y236380D01*
X71168Y236250D01*
X69806Y234888D01*
X69604Y234642D01*
X69464Y234380D01*
X69334Y233932D01*
X69246Y233816D01*
X69120Y233740D01*
X68976Y233712D01*
X67540D01*
X67292Y233684D01*
X67076Y233610D01*
X66884Y233488D01*
X66722Y233326D01*
X66602Y233134D01*
X66526Y232918D01*
X66498Y232670D01*
Y227960D01*
X66526Y227712D01*
X66602Y227496D01*
X66722Y227304D01*
X66884Y227142D01*
X67076Y227022D01*
X67292Y226946D01*
X67540Y226918D01*
X74192D01*
X74442Y226946D01*
X74656Y227022D01*
X74796Y227110D01*
X74956Y227168D01*
X75124Y227154D01*
X75272Y227072D01*
X75374Y226936D01*
X75410Y226770D01*
Y222216D01*
X75374Y222050D01*
X75272Y221914D01*
X75124Y221832D01*
X74956Y221820D01*
X74796Y221878D01*
X74656Y221966D01*
X74442Y222040D01*
X74192Y222068D01*
X67540D01*
X67292Y222040D01*
X67076Y221966D01*
X66884Y221844D01*
X66722Y221682D01*
X66602Y221490D01*
X66526Y221276D01*
X66498Y221026D01*
Y216318D01*
X66526Y216068D01*
X66602Y215854D01*
X66722Y215660D01*
X66884Y215500D01*
X67076Y215378D01*
X67292Y215302D01*
X67540Y215274D01*
X68976D01*
X69120Y215248D01*
X69246Y215170D01*
X69334Y215054D01*
X69464Y214606D01*
X69604Y214344D01*
X69806Y214098D01*
X75198Y208706D01*
X75286Y208576D01*
X75316Y208422D01*
Y154216D01*
X75286Y154062D01*
X75198Y153932D01*
X75070Y153846D01*
X74916Y153816D01*
X69904D01*
X69656Y153788D01*
X69440Y153712D01*
X69248Y153590D01*
X69086Y153430D01*
X68966Y153236D01*
X68890Y153022D01*
X68862Y152772D01*
Y146440D01*
X68890Y146190D01*
X68966Y145976D01*
X69086Y145782D01*
X69248Y145622D01*
X69440Y145500D01*
X69656Y145426D01*
X69904Y145398D01*
X70886D01*
X71038Y145366D01*
X71168Y145280D01*
X71254Y145150D01*
X71286Y144998D01*
Y141960D01*
X71254Y141808D01*
X71168Y141678D01*
X69806Y140316D01*
X69604Y140070D01*
X69464Y139808D01*
X69334Y139360D01*
X69246Y139244D01*
X69120Y139166D01*
X68976Y139140D01*
X67540D01*
X67292Y139112D01*
X67076Y139036D01*
X66884Y138916D01*
X66722Y138754D01*
X66600Y138562D01*
X66526Y138346D01*
X66498Y138098D01*
Y133388D01*
X66526Y133140D01*
X66600Y132924D01*
X66722Y132732D01*
X66884Y132570D01*
X67076Y132450D01*
X67292Y132374D01*
X67540Y132346D01*
X72514D01*
X72668Y132316D01*
X72798Y132230D01*
X72884Y132100D01*
X72914Y131946D01*
X72884Y131794D01*
X72798Y131664D01*
X69806Y128672D01*
X69604Y128426D01*
X69464Y128164D01*
X69334Y127716D01*
X69246Y127600D01*
X69120Y127524D01*
X68976Y127496D01*
X67540D01*
X67292Y127468D01*
X67076Y127394D01*
X66884Y127272D01*
X66722Y127110D01*
X66600Y126918D01*
X66526Y126702D01*
X66498Y126454D01*
Y121744D01*
X66526Y121496D01*
X66600Y121280D01*
X66722Y121088D01*
X66884Y120926D01*
X67076Y120806D01*
X67292Y120730D01*
X67540Y120702D01*
X68946D01*
X69100Y120672D01*
X69228Y120586D01*
X69316Y120456D01*
X69346Y120302D01*
Y64196D01*
X69316Y64042D01*
X69228Y63914D01*
X65350Y60034D01*
X65148Y59788D01*
X64954Y59416D01*
X64870Y59298D01*
X64748Y59218D01*
X64604Y59186D01*
X64460Y59208D01*
X64202Y59298D01*
X63954Y59326D01*
X62974D01*
X62820Y59358D01*
X62690Y59444D01*
X62604Y59574D01*
X62574Y59726D01*
Y144998D01*
X62604Y145150D01*
X62690Y145280D01*
X62820Y145366D01*
X62974Y145398D01*
X63954D01*
X64202Y145426D01*
X64418Y145500D01*
X64610Y145622D01*
X64772Y145782D01*
X64894Y145976D01*
X64968Y146190D01*
X64996Y146440D01*
Y152772D01*
X64968Y153022D01*
X64894Y153236D01*
X64772Y153430D01*
X64610Y153590D01*
X64418Y153712D01*
X64202Y153788D01*
X63954Y153816D01*
X62974D01*
X62820Y153846D01*
X62690Y153932D01*
X62604Y154062D01*
X62574Y154216D01*
Y239486D01*
X62604Y239638D01*
X62690Y239768D01*
X62820Y239854D01*
X62974Y239886D01*
X63954D01*
X64202Y239914D01*
X64418Y239988D01*
X64610Y240110D01*
X64772Y240272D01*
X64894Y240464D01*
X64968Y240678D01*
X64996Y240928D01*
Y247260D01*
X64968Y247510D01*
X64894Y247724D01*
X64772Y247918D01*
X64610Y248078D01*
X64418Y248200D01*
X64202Y248276D01*
X63954Y248304D01*
X58850D01*
X58696Y248334D01*
X58566Y248420D01*
X58480Y248550D01*
X58450Y248704D01*
Y293582D01*
X58480Y293738D01*
X58570Y293868D01*
X58702Y293954D01*
X58872Y294022D01*
X59374Y294298D01*
X59838Y294634D01*
X60256Y295026D01*
X60620Y295468D01*
X60928Y295952D01*
X61172Y296470D01*
X61348Y297014D01*
X61456Y297578D01*
X61492Y298150D01*
X61456Y298722D01*
X61348Y299284D01*
X61172Y299830D01*
X60928Y300348D01*
X60620Y300832D01*
X60256Y301272D01*
X59838Y301666D01*
X59374Y302002D01*
X58872Y302278D01*
X58338Y302488D01*
X57784Y302632D01*
X57216Y302704D01*
X56642D01*
X56074Y302632D01*
X55520Y302488D01*
X54986Y302278D01*
X54484Y302002D01*
X54084Y301712D01*
X53924Y301642D01*
X53750Y301648D01*
X53594Y301726D01*
X53488Y301864D01*
X53450Y302034D01*
Y302354D01*
X53480Y302508D01*
X53566Y302638D01*
X54774Y303846D01*
X54902Y303932D01*
X55054Y303962D01*
X55204Y303934D01*
X55520Y303810D01*
X56074Y303668D01*
X56642Y303596D01*
X57216D01*
X57784Y303668D01*
X58338Y303810D01*
X58872Y304022D01*
X59374Y304298D01*
X59838Y304634D01*
X60256Y305026D01*
X60620Y305468D01*
X60928Y305952D01*
X61172Y306470D01*
X61348Y307014D01*
X61456Y307578D01*
X61492Y308150D01*
X61456Y308722D01*
X61348Y309284D01*
X61172Y309830D01*
X60928Y310348D01*
X60620Y310832D01*
X60256Y311272D01*
X59838Y311666D01*
X59374Y312002D01*
X58872Y312278D01*
X58338Y312488D01*
X57784Y312632D01*
X57216Y312704D01*
X56642D01*
X56074Y312632D01*
X55520Y312488D01*
X54986Y312278D01*
X54484Y312002D01*
X54020Y311666D01*
X53604Y311272D01*
X53238Y310832D01*
X52930Y310348D01*
X52686Y309830D01*
X52510Y309284D01*
X52402Y308722D01*
X52366Y308150D01*
X52402Y307578D01*
X52510Y307014D01*
X52686Y306470D01*
X52738Y306286D01*
X52710Y306126D01*
X52620Y305990D01*
X50868Y304238D01*
X50666Y303994D01*
X50526Y303730D01*
X50440Y303446D01*
X50410Y303130D01*
Y302034D01*
X50370Y301864D01*
X50264Y301726D01*
X50108Y301648D01*
X49934Y301642D01*
X49774Y301712D01*
X49374Y302002D01*
X48872Y302278D01*
X48338Y302488D01*
X47784Y302632D01*
X47216Y302704D01*
X46642D01*
X46074Y302632D01*
X45520Y302488D01*
X44986Y302278D01*
X44484Y302002D01*
X44020Y301666D01*
X43604Y301272D01*
X43238Y300832D01*
X42930Y300348D01*
X42686Y299830D01*
X42510Y299284D01*
X42402Y298722D01*
X42366Y298150D01*
X42402Y297578D01*
X42510Y297014D01*
X42686Y296470D01*
X42930Y295952D01*
X43238Y295468D01*
X43604Y295026D01*
X44020Y294634D01*
X44484Y294298D01*
X44986Y294022D01*
X45156Y293954D01*
X45288Y293868D01*
X45378Y293738D01*
X45410Y293582D01*
Y286172D01*
X45440Y285856D01*
X45526Y285572D01*
X45666Y285310D01*
X45868Y285064D01*
X50132Y280800D01*
X50220Y280670D01*
X50250Y280516D01*
Y278596D01*
X51268D01*
X51422Y278566D01*
X51550Y278480D01*
X51638Y278350D01*
X51668Y278196D01*
Y274954D01*
X51638Y274800D01*
X51550Y274670D01*
X51422Y274584D01*
X51268Y274554D01*
X50250D01*
Y272490D01*
X50674Y272722D01*
X51032Y272984D01*
X51194Y273054D01*
X51368Y273048D01*
X51522Y272968D01*
X51630Y272830D01*
X51668Y272660D01*
Y262772D01*
X51630Y262602D01*
X51522Y262464D01*
X51368Y262386D01*
X51194Y262380D01*
X51032Y262450D01*
X50674Y262710D01*
X50172Y262986D01*
X49638Y263198D01*
X49084Y263340D01*
X48514Y263412D01*
X47942D01*
X47374Y263340D01*
X46818Y263198D01*
X46286Y262986D01*
X45784Y262710D01*
X45320Y262374D01*
X44902Y261982D01*
X44538Y261540D01*
X44230Y261056D01*
X43986Y260538D01*
X43810Y259992D01*
X43702Y259430D01*
X43666Y258858D01*
X43702Y258286D01*
X43810Y257724D01*
X43986Y257178D01*
X44230Y256660D01*
X44538Y256176D01*
X44902Y255734D01*
X45320Y255342D01*
X45784Y255006D01*
X46286Y254730D01*
X46818Y254518D01*
X47374Y254376D01*
X47942Y254304D01*
X48514D01*
X49084Y254376D01*
X49638Y254518D01*
X50172Y254730D01*
X50674Y255006D01*
X51032Y255268D01*
X51194Y255336D01*
X51368Y255332D01*
X51522Y255252D01*
X51630Y255114D01*
X51668Y254944D01*
Y233246D01*
X51630Y233074D01*
X51522Y232936D01*
X51368Y232858D01*
X51194Y232852D01*
X51032Y232922D01*
X50674Y233182D01*
X50250Y233416D01*
Y231352D01*
X51268D01*
X51422Y231322D01*
X51550Y231236D01*
X51638Y231106D01*
X51668Y230952D01*
Y227710D01*
X51638Y227556D01*
X51550Y227426D01*
X51422Y227340D01*
X51268Y227310D01*
X50250D01*
Y225246D01*
X50674Y225478D01*
X51032Y225740D01*
X51194Y225810D01*
X51368Y225804D01*
X51522Y225724D01*
X51630Y225586D01*
X51668Y225416D01*
Y217368D01*
X51638Y217216D01*
X51550Y217086D01*
X50382Y215918D01*
X50254Y215832D01*
X50104Y215800D01*
X49952Y215828D01*
X49638Y215954D01*
X49084Y216096D01*
X48514Y216168D01*
X47942D01*
X47374Y216096D01*
X46818Y215954D01*
X46286Y215742D01*
X45784Y215466D01*
X45320Y215130D01*
X44902Y214738D01*
X44538Y214296D01*
X44230Y213812D01*
X43986Y213294D01*
X43810Y212748D01*
X43702Y212186D01*
X43666Y211614D01*
X43702Y211042D01*
X43810Y210480D01*
X43986Y209934D01*
X44230Y209416D01*
X44538Y208932D01*
X44902Y208490D01*
X45320Y208098D01*
X45784Y207762D01*
X46286Y207486D01*
X46818Y207274D01*
X47374Y207132D01*
X47942Y207060D01*
X48514D01*
X49084Y207132D01*
X49638Y207274D01*
X50172Y207486D01*
X50674Y207762D01*
X51136Y208098D01*
X51554Y208490D01*
X51920Y208932D01*
X52226Y209416D01*
X52470Y209934D01*
X52496Y210014D01*
X52576Y210154D01*
X52704Y210252D01*
X52860Y210290D01*
X53018Y210266D01*
X53154Y210180D01*
X53244Y210048D01*
X53278Y209892D01*
Y171734D01*
X53246Y171580D01*
X53160Y171452D01*
X50382Y168674D01*
X50254Y168588D01*
X50104Y168556D01*
X49952Y168584D01*
X49638Y168710D01*
X49084Y168852D01*
X48514Y168924D01*
X47942D01*
X47374Y168852D01*
X46818Y168710D01*
X46286Y168498D01*
X45784Y168222D01*
X45320Y167886D01*
X44902Y167494D01*
X44538Y167052D01*
X44230Y166568D01*
X43986Y166050D01*
X43810Y165504D01*
X43702Y164942D01*
X43666Y164370D01*
X43702Y163798D01*
X43810Y163236D01*
X43986Y162690D01*
X44230Y162172D01*
X44538Y161688D01*
X44902Y161246D01*
X45320Y160854D01*
X45784Y160518D01*
X46286Y160242D01*
X46818Y160030D01*
X47374Y159888D01*
X47942Y159816D01*
X48514D01*
X49084Y159888D01*
X49638Y160030D01*
X50172Y160242D01*
X50674Y160518D01*
X51136Y160854D01*
X51554Y161246D01*
X51920Y161688D01*
X52226Y162172D01*
X52470Y162690D01*
X52648Y163236D01*
X52754Y163798D01*
X52790Y164370D01*
X52754Y164942D01*
X52648Y165504D01*
X52470Y166050D01*
X52420Y166234D01*
X52448Y166394D01*
X52538Y166530D01*
X54726Y168718D01*
X54856Y168804D01*
X55010Y168836D01*
X55162Y168804D01*
X55292Y168718D01*
X55378Y168588D01*
X55410Y168436D01*
Y126622D01*
X55378Y126468D01*
X55292Y126340D01*
X50382Y121430D01*
X50254Y121344D01*
X50104Y121312D01*
X49952Y121340D01*
X49638Y121466D01*
X49084Y121608D01*
X48514Y121680D01*
X47942D01*
X47374Y121608D01*
X46818Y121466D01*
X46286Y121254D01*
X45784Y120978D01*
X45320Y120642D01*
X44902Y120250D01*
X44538Y119808D01*
X44230Y119324D01*
X43986Y118806D01*
X43810Y118260D01*
X43702Y117698D01*
X43666Y117126D01*
X43702Y116554D01*
X43810Y115992D01*
X43986Y115446D01*
X44230Y114928D01*
X44538Y114444D01*
X44902Y114002D01*
X45320Y113610D01*
X45784Y113274D01*
X46286Y112998D01*
X46818Y112786D01*
X47374Y112644D01*
X47942Y112572D01*
X48514D01*
X49084Y112644D01*
X49638Y112786D01*
X50172Y112998D01*
X50674Y113274D01*
X51136Y113610D01*
X51554Y114002D01*
X51920Y114444D01*
X52226Y114928D01*
X52470Y115446D01*
X52648Y115992D01*
X52754Y116554D01*
X52790Y117126D01*
X52754Y117698D01*
X52648Y118260D01*
X52470Y118806D01*
X52420Y118990D01*
X52448Y119150D01*
X52538Y119286D01*
X57990Y124738D01*
X58192Y124984D01*
X58332Y125246D01*
X58418Y125530D01*
X58450Y125846D01*
Y144998D01*
X58480Y145150D01*
X58566Y145280D01*
X58696Y145366D01*
X58850Y145398D01*
X59134D01*
X59286Y145366D01*
X59416Y145280D01*
X59502Y145150D01*
X59534Y144998D01*
Y59726D01*
X59502Y59574D01*
X59416Y59444D01*
X59286Y59358D01*
X59134Y59326D01*
X58152D01*
X57904Y59298D01*
X57688Y59224D01*
X57496Y59102D01*
X57334Y58942D01*
X57214Y58748D01*
X57138Y58534D01*
X57110Y58284D01*
Y51952D01*
X57138Y51702D01*
X57214Y51488D01*
X57334Y51294D01*
X57496Y51134D01*
X57688Y51012D01*
X57904Y50938D01*
X58152Y50908D01*
X59134D01*
X59286Y50878D01*
X59416Y50792D01*
X59502Y50662D01*
X59534Y50508D01*
Y43562D01*
X59502Y43410D01*
X59416Y43280D01*
X59352Y43218D01*
X59132Y42900D01*
X58968Y42550D01*
X58868Y42176D01*
X58834Y41790D01*
X58868Y41406D01*
X58968Y41032D01*
X59132Y40682D01*
X59352Y40364D01*
X59626Y40090D01*
X59944Y39868D01*
X60294Y39706D01*
X60668Y39606D01*
X61054Y39572D01*
X61438Y39606D01*
X61812Y39706D01*
X62162Y39868D01*
X62480Y40090D01*
X62754Y40364D01*
X62974Y40682D01*
X63138Y41032D01*
X63238Y41406D01*
X63272Y41790D01*
X63238Y42176D01*
X63138Y42550D01*
X62974Y42900D01*
X62754Y43218D01*
X62690Y43280D01*
X62604Y43410D01*
X62574Y43562D01*
Y50508D01*
X62604Y50662D01*
X62690Y50792D01*
X62820Y50878D01*
X62974Y50908D01*
X63954D01*
X64202Y50938D01*
X64358Y50992D01*
X64508Y51014D01*
X64656Y50978D01*
X64780Y50890D01*
X64862Y50762D01*
X64890Y50614D01*
Y32344D01*
X64922Y32028D01*
X65008Y31744D01*
X65148Y31482D01*
X65350Y31236D01*
X66380Y30204D01*
X66468Y30074D01*
X66498Y29922D01*
Y27256D01*
X66526Y27008D01*
X66600Y26792D01*
X66722Y26600D01*
X66884Y26438D01*
X67076Y26318D01*
X67292Y26242D01*
X67540Y26214D01*
X68976D01*
X69120Y26188D01*
X69246Y26110D01*
X69334Y25994D01*
X69464Y25546D01*
X69604Y25284D01*
X69806Y25038D01*
X70292Y24550D01*
X70380Y24420D01*
X70410Y24268D01*
Y16378D01*
X70378Y16222D01*
X70290Y16092D01*
X70158Y16006D01*
X69988Y15938D01*
X69486Y15662D01*
X69022Y15326D01*
X68604Y14934D01*
X68238Y14492D01*
X67932Y14008D01*
X67688Y13490D01*
X67510Y12944D01*
X67404Y12382D01*
X67368Y11810D01*
X67404Y11238D01*
X67510Y10676D01*
X67688Y10130D01*
X67932Y9612D01*
X68238Y9128D01*
X68604Y8686D01*
X69022Y8294D01*
X69486Y7958D01*
X69988Y7682D01*
X70520Y7470D01*
X71076Y7328D01*
G37*
G36*
X47374Y18156D02*
X47942Y18084D01*
X48514D01*
X49084Y18156D01*
X49638Y18298D01*
X50172Y18510D01*
X50674Y18786D01*
X51136Y19122D01*
X51554Y19514D01*
X51920Y19956D01*
X52226Y20440D01*
X52470Y20958D01*
X52648Y21504D01*
X52754Y22066D01*
X52790Y22638D01*
X52754Y23210D01*
X52648Y23772D01*
X52470Y24318D01*
X52226Y24836D01*
X51920Y25320D01*
X51554Y25762D01*
X51136Y26154D01*
X50674Y26490D01*
X50172Y26766D01*
X49638Y26976D01*
X49084Y27120D01*
X48514Y27192D01*
X47942D01*
X47374Y27120D01*
X46818Y26976D01*
X46286Y26766D01*
X45784Y26490D01*
X45320Y26154D01*
X44902Y25762D01*
X44538Y25320D01*
X44230Y24836D01*
X43986Y24318D01*
X43810Y23772D01*
X43702Y23210D01*
X43666Y22638D01*
X43702Y22066D01*
X43810Y21504D01*
X43986Y20958D01*
X44230Y20440D01*
X44538Y19956D01*
X44902Y19514D01*
X45320Y19122D01*
X45784Y18786D01*
X46286Y18510D01*
X46818Y18298D01*
X47374Y18156D01*
G37*
G36*
X21782Y18156D02*
X22352Y18084D01*
X22924D01*
X23492Y18156D01*
X24048Y18298D01*
X24580Y18510D01*
X25082Y18786D01*
X25546Y19122D01*
X25964Y19514D01*
X26328Y19956D01*
X26636Y20440D01*
X26880Y20958D01*
X27056Y21504D01*
X27164Y22066D01*
X27200Y22638D01*
X27164Y23210D01*
X27056Y23772D01*
X26880Y24318D01*
X26636Y24836D01*
X26328Y25320D01*
X25964Y25762D01*
X25546Y26154D01*
X25082Y26490D01*
X24580Y26766D01*
X24048Y26976D01*
X23492Y27120D01*
X22924Y27192D01*
X22352D01*
X21782Y27120D01*
X21228Y26976D01*
X20696Y26766D01*
X20194Y26490D01*
X19730Y26154D01*
X19312Y25762D01*
X18946Y25320D01*
X18640Y24836D01*
X18396Y24318D01*
X18218Y23772D01*
X18112Y23210D01*
X18076Y22638D01*
X18112Y22066D01*
X18218Y21504D01*
X18396Y20958D01*
X18640Y20440D01*
X18946Y19956D01*
X19312Y19514D01*
X19730Y19122D01*
X20194Y18786D01*
X20696Y18510D01*
X21228Y18298D01*
X21782Y18156D01*
G37*
G36*
X84774Y18156D02*
X85344Y18084D01*
X85916D01*
X86484Y18156D01*
X87040Y18298D01*
X87572Y18510D01*
X88074Y18786D01*
X88538Y19122D01*
X88956Y19514D01*
X89322Y19956D01*
X89628Y20440D01*
X89872Y20958D01*
X90050Y21504D01*
X90156Y22066D01*
X90192Y22638D01*
X90156Y23210D01*
X90050Y23772D01*
X89872Y24318D01*
X89628Y24836D01*
X89322Y25320D01*
X88956Y25762D01*
X88538Y26154D01*
X88074Y26490D01*
X87572Y26766D01*
X87040Y26976D01*
X86484Y27120D01*
X85916Y27192D01*
X85344D01*
X84774Y27120D01*
X84220Y26976D01*
X83688Y26766D01*
X83186Y26490D01*
X82722Y26154D01*
X82304Y25762D01*
X81938Y25320D01*
X81632Y24836D01*
X81388Y24318D01*
X81210Y23772D01*
X81104Y23210D01*
X81068Y22638D01*
X81104Y22066D01*
X81210Y21504D01*
X81388Y20958D01*
X81632Y20440D01*
X81938Y19956D01*
X82304Y19514D01*
X82722Y19122D01*
X83186Y18786D01*
X83688Y18510D01*
X84220Y18298D01*
X84774Y18156D01*
G37*
G36*
X45784Y36502D02*
X46206Y36270D01*
Y38332D01*
X44148D01*
X44230Y38156D01*
X44538Y37672D01*
X44902Y37232D01*
X45320Y36838D01*
X45784Y36502D01*
G37*
G36*
X20194Y36502D02*
X20616Y36270D01*
Y38332D01*
X18556D01*
X18640Y38156D01*
X18946Y37672D01*
X19312Y37232D01*
X19730Y36838D01*
X20194Y36502D01*
G37*
G36*
X24660Y38332D02*
Y36270D01*
X25082Y36502D01*
X25546Y36838D01*
X25964Y37232D01*
X26328Y37672D01*
X26636Y38156D01*
X26718Y38332D01*
X24660D01*
G37*
G36*
X50250Y38332D02*
Y36270D01*
X50674Y36502D01*
X51136Y36838D01*
X51554Y37232D01*
X51920Y37672D01*
X52226Y38156D01*
X52310Y38332D01*
X50250D01*
G37*
G36*
X83186Y36502D02*
X83608Y36270D01*
Y38332D01*
X81548D01*
X81632Y38156D01*
X81938Y37672D01*
X82304Y37232D01*
X82722Y36838D01*
X83186Y36502D01*
G37*
G36*
X108776Y36502D02*
X109198Y36270D01*
Y38332D01*
X107140D01*
X107222Y38156D01*
X107530Y37672D01*
X107894Y37232D01*
X108312Y36838D01*
X108776Y36502D01*
G37*
G36*
X87652Y38332D02*
Y36270D01*
X88074Y36502D01*
X88538Y36838D01*
X88956Y37232D01*
X89322Y37672D01*
X89628Y38156D01*
X89712Y38332D01*
X87652D01*
G37*
G36*
X113242Y38332D02*
Y36270D01*
X113666Y36502D01*
X114128Y36838D01*
X114546Y37232D01*
X114912Y37672D01*
X115218Y38156D01*
X115302Y38332D01*
X113242D01*
G37*
G36*
X44230Y42552D02*
X44148Y42376D01*
X46206D01*
Y44440D01*
X45784Y44206D01*
X45320Y43870D01*
X44902Y43478D01*
X44538Y43036D01*
X44230Y42552D01*
G37*
G36*
X18640Y42552D02*
X18556Y42376D01*
X20616D01*
Y44440D01*
X20194Y44206D01*
X19730Y43870D01*
X19312Y43478D01*
X18946Y43036D01*
X18640Y42552D01*
G37*
G36*
X50250Y44440D02*
Y42376D01*
X52310D01*
X52226Y42552D01*
X51920Y43036D01*
X51554Y43478D01*
X51136Y43870D01*
X50674Y44206D01*
X50250Y44440D01*
G37*
G36*
X24660Y44440D02*
Y42376D01*
X26718D01*
X26636Y42552D01*
X26328Y43036D01*
X25964Y43478D01*
X25546Y43870D01*
X25082Y44206D01*
X24660Y44440D01*
G37*
G36*
X87652Y44440D02*
Y42376D01*
X89712D01*
X89628Y42552D01*
X89322Y43036D01*
X88956Y43478D01*
X88538Y43870D01*
X88074Y44206D01*
X87652Y44440D01*
G37*
G36*
X81632Y42552D02*
X81548Y42376D01*
X83608D01*
Y44440D01*
X83186Y44206D01*
X82722Y43870D01*
X82304Y43478D01*
X81938Y43036D01*
X81632Y42552D01*
G37*
G36*
X107222Y42552D02*
X107140Y42376D01*
X109198D01*
Y44440D01*
X108776Y44206D01*
X108312Y43870D01*
X107894Y43478D01*
X107530Y43036D01*
X107222Y42552D01*
G37*
G36*
X113242Y44440D02*
Y42376D01*
X115302D01*
X115218Y42552D01*
X114912Y43036D01*
X114546Y43478D01*
X114128Y43870D01*
X113666Y44206D01*
X113242Y44440D01*
G37*
G36*
X21782Y65400D02*
X22352Y65328D01*
X22924D01*
X23492Y65400D01*
X24048Y65542D01*
X24580Y65754D01*
X25082Y66030D01*
X25546Y66366D01*
X25964Y66758D01*
X26328Y67200D01*
X26636Y67684D01*
X26880Y68202D01*
X27056Y68748D01*
X27164Y69310D01*
X27200Y69882D01*
X27164Y70454D01*
X27056Y71016D01*
X26880Y71562D01*
X26636Y72080D01*
X26328Y72564D01*
X25964Y73006D01*
X25546Y73398D01*
X25082Y73734D01*
X24580Y74010D01*
X24048Y74222D01*
X23492Y74364D01*
X22924Y74436D01*
X22352D01*
X21782Y74364D01*
X21228Y74222D01*
X20696Y74010D01*
X20194Y73734D01*
X19730Y73398D01*
X19312Y73006D01*
X18946Y72564D01*
X18640Y72080D01*
X18396Y71562D01*
X18218Y71016D01*
X18112Y70454D01*
X18076Y69882D01*
X18112Y69310D01*
X18218Y68748D01*
X18396Y68202D01*
X18640Y67684D01*
X18946Y67200D01*
X19312Y66758D01*
X19730Y66366D01*
X20194Y66030D01*
X20696Y65754D01*
X21228Y65542D01*
X21782Y65400D01*
G37*
G36*
X47374Y65400D02*
X47942Y65328D01*
X48514D01*
X49084Y65400D01*
X49638Y65542D01*
X50172Y65754D01*
X50674Y66030D01*
X51136Y66366D01*
X51554Y66758D01*
X51920Y67200D01*
X52226Y67684D01*
X52470Y68202D01*
X52648Y68748D01*
X52754Y69310D01*
X52790Y69882D01*
X52754Y70454D01*
X52648Y71016D01*
X52470Y71562D01*
X52226Y72080D01*
X51920Y72564D01*
X51554Y73006D01*
X51136Y73398D01*
X50674Y73734D01*
X50172Y74010D01*
X49638Y74222D01*
X49084Y74364D01*
X48514Y74436D01*
X47942D01*
X47374Y74364D01*
X46818Y74222D01*
X46286Y74010D01*
X45784Y73734D01*
X45320Y73398D01*
X44902Y73006D01*
X44538Y72564D01*
X44230Y72080D01*
X43986Y71562D01*
X43810Y71016D01*
X43702Y70454D01*
X43666Y69882D01*
X43702Y69310D01*
X43810Y68748D01*
X43986Y68202D01*
X44230Y67684D01*
X44538Y67200D01*
X44902Y66758D01*
X45320Y66366D01*
X45784Y66030D01*
X46286Y65754D01*
X46818Y65542D01*
X47374Y65400D01*
G37*
G36*
X110366Y65400D02*
X110934Y65328D01*
X111506D01*
X112076Y65400D01*
X112630Y65542D01*
X113164Y65754D01*
X113666Y66030D01*
X114128Y66366D01*
X114546Y66758D01*
X114912Y67200D01*
X115218Y67684D01*
X115462Y68202D01*
X115640Y68748D01*
X115748Y69310D01*
X115784Y69882D01*
X115748Y70454D01*
X115640Y71016D01*
X115462Y71562D01*
X115218Y72080D01*
X114912Y72564D01*
X114546Y73006D01*
X114128Y73398D01*
X113666Y73734D01*
X113164Y74010D01*
X112630Y74222D01*
X112076Y74364D01*
X111506Y74436D01*
X110934D01*
X110366Y74364D01*
X109810Y74222D01*
X109278Y74010D01*
X108776Y73734D01*
X108312Y73398D01*
X107894Y73006D01*
X107530Y72564D01*
X107222Y72080D01*
X106978Y71562D01*
X106802Y71016D01*
X106694Y70454D01*
X106658Y69882D01*
X106694Y69310D01*
X106802Y68748D01*
X106978Y68202D01*
X107222Y67684D01*
X107530Y67200D01*
X107894Y66758D01*
X108312Y66366D01*
X108776Y66030D01*
X109278Y65754D01*
X109810Y65542D01*
X110366Y65400D01*
G37*
G36*
X45784Y83746D02*
X46206Y83514D01*
Y85576D01*
X44148D01*
X44230Y85400D01*
X44538Y84916D01*
X44902Y84476D01*
X45320Y84084D01*
X45784Y83746D01*
G37*
G36*
X50250Y85576D02*
Y83514D01*
X50674Y83746D01*
X51136Y84084D01*
X51554Y84476D01*
X51920Y84916D01*
X52226Y85400D01*
X52310Y85576D01*
X50250D01*
G37*
G36*
X24660Y85576D02*
Y83514D01*
X25082Y83746D01*
X25546Y84084D01*
X25964Y84476D01*
X26328Y84916D01*
X26636Y85400D01*
X26718Y85576D01*
X24660D01*
G37*
G36*
X20194Y83746D02*
X20616Y83514D01*
Y85576D01*
X18556D01*
X18640Y85400D01*
X18946Y84916D01*
X19312Y84476D01*
X19730Y84084D01*
X20194Y83746D01*
G37*
G36*
X87652Y85576D02*
Y83514D01*
X88074Y83746D01*
X88538Y84084D01*
X88956Y84476D01*
X89322Y84916D01*
X89628Y85400D01*
X89712Y85576D01*
X87652D01*
G37*
G36*
X108776Y83746D02*
X109198Y83514D01*
Y85576D01*
X107140D01*
X107222Y85400D01*
X107530Y84916D01*
X107894Y84476D01*
X108312Y84084D01*
X108776Y83746D01*
G37*
G36*
X113242Y85576D02*
Y83514D01*
X113666Y83746D01*
X114128Y84084D01*
X114546Y84476D01*
X114912Y84916D01*
X115218Y85400D01*
X115302Y85576D01*
X113242D01*
G37*
G36*
X83186Y83746D02*
X83608Y83514D01*
Y85576D01*
X81548D01*
X81632Y85400D01*
X81938Y84916D01*
X82304Y84476D01*
X82722Y84084D01*
X83186Y83746D01*
G37*
G36*
X18640Y89796D02*
X18556Y89620D01*
X20616D01*
Y91684D01*
X20194Y91450D01*
X19730Y91114D01*
X19312Y90722D01*
X18946Y90280D01*
X18640Y89796D01*
G37*
G36*
X44230Y89796D02*
X44148Y89620D01*
X46206D01*
Y91684D01*
X45784Y91450D01*
X45320Y91114D01*
X44902Y90722D01*
X44538Y90280D01*
X44230Y89796D01*
G37*
G36*
X50250Y91684D02*
Y89620D01*
X52310D01*
X52226Y89796D01*
X51920Y90280D01*
X51554Y90722D01*
X51136Y91114D01*
X50674Y91450D01*
X50250Y91684D01*
G37*
G36*
X24660Y91684D02*
Y89620D01*
X26718D01*
X26636Y89796D01*
X26328Y90280D01*
X25964Y90722D01*
X25546Y91114D01*
X25082Y91450D01*
X24660Y91684D01*
G37*
G36*
X113242Y91684D02*
Y89620D01*
X115302D01*
X115218Y89796D01*
X114912Y90280D01*
X114546Y90722D01*
X114128Y91114D01*
X113666Y91450D01*
X113242Y91684D01*
G37*
G36*
X107222Y89796D02*
X107140Y89620D01*
X109198D01*
Y91684D01*
X108776Y91450D01*
X108312Y91114D01*
X107894Y90722D01*
X107530Y90280D01*
X107222Y89796D01*
G37*
G36*
X81632Y89796D02*
X81548Y89620D01*
X83608D01*
Y91684D01*
X83186Y91450D01*
X82722Y91114D01*
X82304Y90722D01*
X81938Y90280D01*
X81632Y89796D01*
G37*
G36*
X87652Y91684D02*
Y89620D01*
X89712D01*
X89628Y89796D01*
X89322Y90280D01*
X88956Y90722D01*
X88538Y91114D01*
X88074Y91450D01*
X87652Y91684D01*
G37*
G36*
X21782Y112644D02*
X22352Y112572D01*
X22924D01*
X23492Y112644D01*
X24048Y112786D01*
X24580Y112998D01*
X25082Y113274D01*
X25546Y113610D01*
X25964Y114002D01*
X26328Y114444D01*
X26636Y114928D01*
X26880Y115446D01*
X27056Y115992D01*
X27164Y116554D01*
X27200Y117126D01*
X27164Y117698D01*
X27056Y118260D01*
X26880Y118806D01*
X26636Y119324D01*
X26328Y119808D01*
X25964Y120250D01*
X25546Y120642D01*
X25082Y120978D01*
X24580Y121254D01*
X24048Y121466D01*
X23492Y121608D01*
X22924Y121680D01*
X22352D01*
X21782Y121608D01*
X21228Y121466D01*
X20696Y121254D01*
X20194Y120978D01*
X19730Y120642D01*
X19312Y120250D01*
X18946Y119808D01*
X18640Y119324D01*
X18396Y118806D01*
X18218Y118260D01*
X18112Y117698D01*
X18076Y117126D01*
X18112Y116554D01*
X18218Y115992D01*
X18396Y115446D01*
X18640Y114928D01*
X18946Y114444D01*
X19312Y114002D01*
X19730Y113610D01*
X20194Y113274D01*
X20696Y112998D01*
X21228Y112786D01*
X21782Y112644D01*
G37*
G36*
X110366Y112644D02*
X110934Y112572D01*
X111506D01*
X112076Y112644D01*
X112630Y112786D01*
X113164Y112998D01*
X113666Y113274D01*
X114128Y113610D01*
X114546Y114002D01*
X114912Y114444D01*
X115218Y114928D01*
X115462Y115446D01*
X115640Y115992D01*
X115748Y116554D01*
X115784Y117126D01*
X115748Y117698D01*
X115640Y118260D01*
X115462Y118806D01*
X115218Y119324D01*
X114912Y119808D01*
X114546Y120250D01*
X114128Y120642D01*
X113666Y120978D01*
X113164Y121254D01*
X112630Y121466D01*
X112076Y121608D01*
X111506Y121680D01*
X110934D01*
X110366Y121608D01*
X109810Y121466D01*
X109278Y121254D01*
X108776Y120978D01*
X108312Y120642D01*
X107894Y120250D01*
X107530Y119808D01*
X107222Y119324D01*
X106978Y118806D01*
X106802Y118260D01*
X106694Y117698D01*
X106658Y117126D01*
X106694Y116554D01*
X106802Y115992D01*
X106978Y115446D01*
X107222Y114928D01*
X107530Y114444D01*
X107894Y114002D01*
X108312Y113610D01*
X108776Y113274D01*
X109278Y112998D01*
X109810Y112786D01*
X110366Y112644D01*
G37*
G36*
X45784Y130990D02*
X46206Y130758D01*
Y132820D01*
X44148D01*
X44230Y132644D01*
X44538Y132160D01*
X44902Y131720D01*
X45320Y131328D01*
X45784Y130990D01*
G37*
G36*
X50250Y132820D02*
Y130758D01*
X50674Y130990D01*
X51136Y131328D01*
X51554Y131720D01*
X51920Y132160D01*
X52226Y132644D01*
X52310Y132820D01*
X50250D01*
G37*
G36*
X24660Y132820D02*
Y130758D01*
X25082Y130990D01*
X25546Y131328D01*
X25964Y131720D01*
X26328Y132160D01*
X26636Y132644D01*
X26718Y132820D01*
X24660D01*
G37*
G36*
X20194Y130990D02*
X20616Y130758D01*
Y132820D01*
X18556D01*
X18640Y132644D01*
X18946Y132160D01*
X19312Y131720D01*
X19730Y131328D01*
X20194Y130990D01*
G37*
G36*
X113242Y132820D02*
Y130758D01*
X113666Y130990D01*
X114128Y131328D01*
X114546Y131720D01*
X114912Y132160D01*
X115218Y132644D01*
X115302Y132820D01*
X113242D01*
G37*
G36*
X83186Y130990D02*
X83608Y130758D01*
Y132820D01*
X81548D01*
X81632Y132644D01*
X81938Y132160D01*
X82304Y131720D01*
X82722Y131328D01*
X83186Y130990D01*
G37*
G36*
X108776Y130990D02*
X109198Y130758D01*
Y132820D01*
X107140D01*
X107222Y132644D01*
X107530Y132160D01*
X107894Y131720D01*
X108312Y131328D01*
X108776Y130990D01*
G37*
G36*
X87652Y132820D02*
Y130758D01*
X88074Y130990D01*
X88538Y131328D01*
X88956Y131720D01*
X89322Y132160D01*
X89628Y132644D01*
X89758Y132820D01*
X87652D01*
G37*
G36*
X44230Y137040D02*
X44148Y136864D01*
X46206D01*
Y138928D01*
X45784Y138694D01*
X45320Y138358D01*
X44902Y137966D01*
X44538Y137524D01*
X44230Y137040D01*
G37*
G36*
X18640Y137040D02*
X18556Y136864D01*
X20616D01*
Y138928D01*
X20194Y138694D01*
X19730Y138358D01*
X19312Y137966D01*
X18946Y137524D01*
X18640Y137040D01*
G37*
G36*
X24660Y138928D02*
Y136864D01*
X26718D01*
X26636Y137040D01*
X26328Y137524D01*
X25964Y137966D01*
X25546Y138358D01*
X25082Y138694D01*
X24660Y138928D01*
G37*
G36*
X50250Y138928D02*
Y136864D01*
X52310D01*
X52226Y137040D01*
X51920Y137524D01*
X51554Y137966D01*
X51136Y138358D01*
X50674Y138694D01*
X50250Y138928D01*
G37*
G36*
X107222Y137040D02*
X107140Y136864D01*
X109198D01*
Y138928D01*
X108776Y138694D01*
X108312Y138358D01*
X107894Y137966D01*
X107530Y137524D01*
X107222Y137040D01*
G37*
G36*
X81632Y137040D02*
X81548Y136864D01*
X83608D01*
Y138928D01*
X83186Y138694D01*
X82722Y138358D01*
X82304Y137966D01*
X81938Y137524D01*
X81632Y137040D01*
G37*
G36*
X113242Y138928D02*
Y136864D01*
X115302D01*
X115218Y137040D01*
X114912Y137524D01*
X114546Y137966D01*
X114128Y138358D01*
X113666Y138694D01*
X113242Y138928D01*
G37*
G36*
X87652Y138928D02*
Y136864D01*
X89758D01*
X89628Y137040D01*
X89322Y137524D01*
X88956Y137966D01*
X88538Y138358D01*
X88074Y138694D01*
X87652Y138928D01*
G37*
G36*
X21782Y159888D02*
X22352Y159816D01*
X22924D01*
X23492Y159888D01*
X24048Y160030D01*
X24580Y160242D01*
X25082Y160518D01*
X25546Y160854D01*
X25964Y161246D01*
X26328Y161688D01*
X26636Y162172D01*
X26880Y162690D01*
X27056Y163236D01*
X27164Y163798D01*
X27200Y164370D01*
X27164Y164942D01*
X27056Y165504D01*
X26880Y166050D01*
X26636Y166568D01*
X26328Y167052D01*
X25964Y167494D01*
X25546Y167886D01*
X25082Y168222D01*
X24580Y168498D01*
X24048Y168710D01*
X23492Y168852D01*
X22924Y168924D01*
X22352D01*
X21782Y168852D01*
X21228Y168710D01*
X20696Y168498D01*
X20194Y168222D01*
X19730Y167886D01*
X19312Y167494D01*
X18946Y167052D01*
X18640Y166568D01*
X18396Y166050D01*
X18218Y165504D01*
X18112Y164942D01*
X18076Y164370D01*
X18112Y163798D01*
X18218Y163236D01*
X18396Y162690D01*
X18640Y162172D01*
X18946Y161688D01*
X19312Y161246D01*
X19730Y160854D01*
X20194Y160518D01*
X20696Y160242D01*
X21228Y160030D01*
X21782Y159888D01*
G37*
G36*
X110366Y159888D02*
X110934Y159816D01*
X111506D01*
X112076Y159888D01*
X112630Y160030D01*
X113164Y160242D01*
X113666Y160518D01*
X114128Y160854D01*
X114546Y161246D01*
X114912Y161688D01*
X115218Y162172D01*
X115462Y162690D01*
X115640Y163236D01*
X115748Y163798D01*
X115784Y164370D01*
X115748Y164942D01*
X115640Y165504D01*
X115462Y166050D01*
X115218Y166568D01*
X114912Y167052D01*
X114546Y167494D01*
X114128Y167886D01*
X113666Y168222D01*
X113164Y168498D01*
X112630Y168710D01*
X112076Y168852D01*
X111506Y168924D01*
X110934D01*
X110366Y168852D01*
X109810Y168710D01*
X109278Y168498D01*
X108776Y168222D01*
X108312Y167886D01*
X107894Y167494D01*
X107530Y167052D01*
X107222Y166568D01*
X106978Y166050D01*
X106802Y165504D01*
X106694Y164942D01*
X106658Y164370D01*
X106694Y163798D01*
X106802Y163236D01*
X106978Y162690D01*
X107222Y162172D01*
X107530Y161688D01*
X107894Y161246D01*
X108312Y160854D01*
X108776Y160518D01*
X109278Y160242D01*
X109810Y160030D01*
X110366Y159888D01*
G37*
G36*
X45784Y178234D02*
X46206Y178002D01*
Y180064D01*
X44148D01*
X44230Y179888D01*
X44538Y179404D01*
X44902Y178964D01*
X45320Y178572D01*
X45784Y178234D01*
G37*
G36*
X24660Y180064D02*
Y178002D01*
X25082Y178234D01*
X25546Y178572D01*
X25964Y178964D01*
X26328Y179404D01*
X26636Y179888D01*
X26718Y180064D01*
X24660D01*
G37*
G36*
X20194Y178234D02*
X20616Y178002D01*
Y180064D01*
X18556D01*
X18640Y179888D01*
X18946Y179404D01*
X19312Y178964D01*
X19730Y178572D01*
X20194Y178234D01*
G37*
G36*
X50250Y180064D02*
Y178002D01*
X50674Y178234D01*
X51136Y178572D01*
X51554Y178964D01*
X51920Y179404D01*
X52226Y179888D01*
X52310Y180064D01*
X50250D01*
G37*
G36*
X108776Y178234D02*
X109198Y178002D01*
Y180066D01*
X107140D01*
X107222Y179888D01*
X107530Y179404D01*
X107894Y178964D01*
X108312Y178572D01*
X108776Y178234D01*
G37*
G36*
X83186Y178234D02*
X83608Y178002D01*
Y180066D01*
X81548D01*
X81632Y179888D01*
X81938Y179404D01*
X82304Y178964D01*
X82722Y178572D01*
X83186Y178234D01*
G37*
G36*
X113242Y180066D02*
Y178002D01*
X113666Y178234D01*
X114128Y178572D01*
X114546Y178964D01*
X114912Y179404D01*
X115218Y179888D01*
X115302Y180066D01*
X113242D01*
G37*
G36*
X44230Y184284D02*
X44148Y184108D01*
X46206D01*
Y186172D01*
X45784Y185938D01*
X45320Y185602D01*
X44902Y185210D01*
X44538Y184768D01*
X44230Y184284D01*
G37*
G36*
X18640Y184284D02*
X18556Y184108D01*
X20616D01*
Y186172D01*
X20194Y185938D01*
X19730Y185602D01*
X19312Y185210D01*
X18946Y184768D01*
X18640Y184284D01*
G37*
G36*
X24660Y186172D02*
Y184108D01*
X26718D01*
X26636Y184284D01*
X26328Y184768D01*
X25964Y185210D01*
X25546Y185602D01*
X25082Y185938D01*
X24660Y186172D01*
G37*
G36*
X50250Y186172D02*
Y184108D01*
X52310D01*
X52226Y184284D01*
X51920Y184768D01*
X51554Y185210D01*
X51136Y185602D01*
X50674Y185938D01*
X50250Y186172D01*
G37*
G36*
X81632Y184284D02*
X81548Y184108D01*
X83608D01*
Y186172D01*
X83186Y185938D01*
X82722Y185602D01*
X82304Y185210D01*
X81938Y184768D01*
X81632Y184284D01*
G37*
G36*
X107222Y184284D02*
X107140Y184108D01*
X109198D01*
Y186172D01*
X108776Y185938D01*
X108312Y185602D01*
X107894Y185210D01*
X107530Y184768D01*
X107222Y184284D01*
G37*
G36*
X113242Y186172D02*
Y184108D01*
X115302D01*
X115218Y184284D01*
X114912Y184768D01*
X114546Y185210D01*
X114128Y185602D01*
X113666Y185938D01*
X113242Y186172D01*
G37*
G36*
X21782Y207132D02*
X22352Y207060D01*
X22924D01*
X23492Y207132D01*
X24048Y207274D01*
X24580Y207486D01*
X25082Y207762D01*
X25546Y208098D01*
X25964Y208490D01*
X26328Y208932D01*
X26636Y209416D01*
X26880Y209934D01*
X27056Y210480D01*
X27164Y211042D01*
X27200Y211614D01*
X27164Y212186D01*
X27056Y212748D01*
X26880Y213294D01*
X26636Y213812D01*
X26328Y214296D01*
X25964Y214738D01*
X25546Y215130D01*
X25082Y215466D01*
X24580Y215742D01*
X24048Y215954D01*
X23492Y216096D01*
X22924Y216168D01*
X22352D01*
X21782Y216096D01*
X21228Y215954D01*
X20696Y215742D01*
X20194Y215466D01*
X19730Y215130D01*
X19312Y214738D01*
X18946Y214296D01*
X18640Y213812D01*
X18396Y213294D01*
X18218Y212748D01*
X18112Y212186D01*
X18076Y211614D01*
X18112Y211042D01*
X18218Y210480D01*
X18396Y209934D01*
X18640Y209416D01*
X18946Y208932D01*
X19312Y208490D01*
X19730Y208098D01*
X20194Y207762D01*
X20696Y207486D01*
X21228Y207274D01*
X21782Y207132D01*
G37*
G36*
X110366Y207132D02*
X110934Y207060D01*
X111506D01*
X112076Y207132D01*
X112630Y207274D01*
X113164Y207486D01*
X113666Y207762D01*
X114128Y208098D01*
X114546Y208490D01*
X114912Y208932D01*
X115218Y209416D01*
X115462Y209934D01*
X115640Y210480D01*
X115748Y211042D01*
X115784Y211614D01*
X115748Y212186D01*
X115640Y212748D01*
X115462Y213294D01*
X115218Y213812D01*
X114912Y214296D01*
X114546Y214738D01*
X114128Y215130D01*
X113666Y215466D01*
X113164Y215742D01*
X112630Y215954D01*
X112076Y216096D01*
X111506Y216168D01*
X110934D01*
X110366Y216096D01*
X109810Y215954D01*
X109278Y215742D01*
X108776Y215466D01*
X108312Y215130D01*
X107894Y214738D01*
X107530Y214296D01*
X107222Y213812D01*
X106978Y213294D01*
X106802Y212748D01*
X106694Y212186D01*
X106658Y211614D01*
X106694Y211042D01*
X106802Y210480D01*
X106978Y209934D01*
X107222Y209416D01*
X107530Y208932D01*
X107894Y208490D01*
X108312Y208098D01*
X108776Y207762D01*
X109278Y207486D01*
X109810Y207274D01*
X110366Y207132D01*
G37*
G36*
X24660Y227310D02*
Y225246D01*
X25082Y225478D01*
X25546Y225816D01*
X25964Y226208D01*
X26328Y226648D01*
X26636Y227132D01*
X26718Y227310D01*
X24660D01*
G37*
G36*
X20194Y225478D02*
X20616Y225246D01*
Y227310D01*
X18556D01*
X18640Y227132D01*
X18946Y226648D01*
X19312Y226208D01*
X19730Y225816D01*
X20194Y225478D01*
G37*
G36*
X45784Y225478D02*
X46206Y225246D01*
Y227310D01*
X44148D01*
X44230Y227132D01*
X44538Y226648D01*
X44902Y226208D01*
X45320Y225816D01*
X45784Y225478D01*
G37*
G36*
X108776Y225478D02*
X109198Y225246D01*
Y227310D01*
X107140D01*
X107222Y227132D01*
X107530Y226648D01*
X107894Y226208D01*
X108312Y225816D01*
X108776Y225478D01*
G37*
G36*
X113242Y227310D02*
Y225246D01*
X113666Y225478D01*
X114128Y225816D01*
X114546Y226208D01*
X114912Y226648D01*
X115218Y227132D01*
X115302Y227310D01*
X113242D01*
G37*
G36*
X18640Y231528D02*
X18556Y231352D01*
X20616D01*
Y233416D01*
X20194Y233182D01*
X19730Y232846D01*
X19312Y232454D01*
X18946Y232012D01*
X18640Y231528D01*
G37*
G36*
X44230Y231528D02*
X44148Y231352D01*
X46206D01*
Y233416D01*
X45784Y233182D01*
X45320Y232846D01*
X44902Y232454D01*
X44538Y232012D01*
X44230Y231528D01*
G37*
G36*
X24660Y233416D02*
Y231352D01*
X26718D01*
X26636Y231528D01*
X26328Y232012D01*
X25964Y232454D01*
X25546Y232846D01*
X25082Y233182D01*
X24660Y233416D01*
G37*
G36*
X107222Y231528D02*
X107140Y231352D01*
X109198D01*
Y233416D01*
X108776Y233182D01*
X108312Y232846D01*
X107894Y232454D01*
X107530Y232012D01*
X107222Y231528D01*
G37*
G36*
X113242Y233416D02*
Y231352D01*
X115302D01*
X115218Y231528D01*
X114912Y232012D01*
X114546Y232454D01*
X114128Y232846D01*
X113666Y233182D01*
X113242Y233416D01*
G37*
G36*
X21782Y254376D02*
X22352Y254304D01*
X22924D01*
X23492Y254376D01*
X24048Y254518D01*
X24580Y254730D01*
X25082Y255006D01*
X25546Y255342D01*
X25964Y255734D01*
X26328Y256176D01*
X26636Y256660D01*
X26880Y257178D01*
X27056Y257724D01*
X27164Y258286D01*
X27200Y258858D01*
X27164Y259430D01*
X27056Y259992D01*
X26880Y260538D01*
X26636Y261056D01*
X26328Y261540D01*
X25964Y261982D01*
X25546Y262374D01*
X25082Y262710D01*
X24580Y262986D01*
X24048Y263198D01*
X23492Y263340D01*
X22924Y263412D01*
X22352D01*
X21782Y263340D01*
X21228Y263198D01*
X20696Y262986D01*
X20194Y262710D01*
X19730Y262374D01*
X19312Y261982D01*
X18946Y261540D01*
X18640Y261056D01*
X18396Y260538D01*
X18218Y259992D01*
X18112Y259430D01*
X18076Y258858D01*
X18112Y258286D01*
X18218Y257724D01*
X18396Y257178D01*
X18640Y256660D01*
X18946Y256176D01*
X19312Y255734D01*
X19730Y255342D01*
X20194Y255006D01*
X20696Y254730D01*
X21228Y254518D01*
X21782Y254376D01*
G37*
G36*
X110366Y254376D02*
X110934Y254304D01*
X111506D01*
X112076Y254376D01*
X112630Y254518D01*
X113164Y254730D01*
X113666Y255006D01*
X114128Y255342D01*
X114546Y255734D01*
X114912Y256176D01*
X115218Y256660D01*
X115462Y257178D01*
X115640Y257724D01*
X115748Y258286D01*
X115784Y258858D01*
X115748Y259430D01*
X115640Y259992D01*
X115462Y260538D01*
X115218Y261056D01*
X114912Y261540D01*
X114546Y261982D01*
X114128Y262374D01*
X113666Y262710D01*
X113164Y262986D01*
X112630Y263198D01*
X112076Y263340D01*
X111506Y263412D01*
X110934D01*
X110366Y263340D01*
X109810Y263198D01*
X109278Y262986D01*
X108776Y262710D01*
X108312Y262374D01*
X107894Y261982D01*
X107530Y261540D01*
X107222Y261056D01*
X106978Y260538D01*
X106802Y259992D01*
X106694Y259430D01*
X106658Y258858D01*
X106694Y258286D01*
X106802Y257724D01*
X106978Y257178D01*
X107222Y256660D01*
X107530Y256176D01*
X107894Y255734D01*
X108312Y255342D01*
X108776Y255006D01*
X109278Y254730D01*
X109810Y254518D01*
X110366Y254376D01*
G37*
G36*
X24660Y274554D02*
Y272490D01*
X25082Y272722D01*
X25546Y273060D01*
X25964Y273452D01*
X26328Y273894D01*
X26636Y274376D01*
X26718Y274554D01*
X24660D01*
G37*
G36*
X45784Y272722D02*
X46206Y272490D01*
Y274554D01*
X44148D01*
X44230Y274376D01*
X44538Y273894D01*
X44902Y273452D01*
X45320Y273060D01*
X45784Y272722D01*
G37*
G36*
X20194Y272722D02*
X20616Y272490D01*
Y274554D01*
X18556D01*
X18640Y274376D01*
X18946Y273894D01*
X19312Y273452D01*
X19730Y273060D01*
X20194Y272722D01*
G37*
G36*
X108776Y272722D02*
X109198Y272490D01*
Y274554D01*
X107140D01*
X107222Y274376D01*
X107530Y273894D01*
X107894Y273452D01*
X108312Y273060D01*
X108776Y272722D01*
G37*
G36*
X113242Y274554D02*
Y272490D01*
X113666Y272722D01*
X114128Y273060D01*
X114546Y273452D01*
X114912Y273894D01*
X115218Y274376D01*
X115302Y274554D01*
X113242D01*
G37*
G36*
X44230Y278772D02*
X44148Y278596D01*
X46206D01*
Y280660D01*
X45784Y280428D01*
X45320Y280090D01*
X44902Y279698D01*
X44538Y279256D01*
X44230Y278772D01*
G37*
G36*
X18640Y278772D02*
X18556Y278596D01*
X20616D01*
Y280660D01*
X20194Y280428D01*
X19730Y280090D01*
X19312Y279698D01*
X18946Y279256D01*
X18640Y278772D01*
G37*
G36*
X24660Y280660D02*
Y278596D01*
X26718D01*
X26636Y278772D01*
X26328Y279256D01*
X25964Y279698D01*
X25546Y280090D01*
X25082Y280428D01*
X24660Y280660D01*
G37*
G36*
X107222Y278772D02*
X107140Y278596D01*
X109198D01*
Y280660D01*
X108776Y280428D01*
X108312Y280090D01*
X107894Y279698D01*
X107530Y279256D01*
X107222Y278772D01*
G37*
G36*
X113242Y280660D02*
Y278596D01*
X115302D01*
X115218Y278772D01*
X114912Y279256D01*
X114546Y279698D01*
X114128Y280090D01*
X113666Y280428D01*
X113242Y280660D01*
G37*
G36*
X66074Y293668D02*
X66642Y293596D01*
X67216D01*
X67784Y293668D01*
X68338Y293810D01*
X68872Y294022D01*
X69374Y294298D01*
X69838Y294634D01*
X70256Y295026D01*
X70620Y295468D01*
X70928Y295952D01*
X71172Y296470D01*
X71348Y297014D01*
X71456Y297578D01*
X71492Y298150D01*
X71456Y298722D01*
X71348Y299284D01*
X71172Y299830D01*
X70928Y300348D01*
X70620Y300832D01*
X70256Y301272D01*
X69838Y301666D01*
X69374Y302002D01*
X68872Y302278D01*
X68338Y302488D01*
X67784Y302632D01*
X67216Y302704D01*
X66642D01*
X66074Y302632D01*
X65520Y302488D01*
X64986Y302278D01*
X64484Y302002D01*
X64020Y301666D01*
X63604Y301272D01*
X63238Y300832D01*
X62930Y300348D01*
X62686Y299830D01*
X62510Y299284D01*
X62402Y298722D01*
X62366Y298150D01*
X62402Y297578D01*
X62510Y297014D01*
X62686Y296470D01*
X62930Y295952D01*
X63238Y295468D01*
X63604Y295026D01*
X64020Y294634D01*
X64484Y294298D01*
X64986Y294022D01*
X65520Y293810D01*
X66074Y293668D01*
G37*
G36*
X38950Y296128D02*
Y294064D01*
X39374Y294298D01*
X39838Y294634D01*
X40256Y295026D01*
X40620Y295468D01*
X40928Y295952D01*
X41010Y296128D01*
X38950D01*
G37*
G36*
X34484Y294298D02*
X34908Y294064D01*
Y296128D01*
X32848D01*
X32930Y295952D01*
X33238Y295468D01*
X33604Y295026D01*
X34020Y294634D01*
X34484Y294298D01*
G37*
G36*
X32930Y300348D02*
X32848Y300172D01*
X34908D01*
Y302234D01*
X34484Y302002D01*
X34020Y301666D01*
X33604Y301272D01*
X33238Y300832D01*
X32930Y300348D01*
G37*
G36*
X38950Y302234D02*
Y300172D01*
X41010D01*
X40928Y300348D01*
X40620Y300832D01*
X40256Y301272D01*
X39838Y301666D01*
X39374Y302002D01*
X38950Y302234D01*
G37*
G36*
X38950Y306050D02*
Y303430D01*
X40450D01*
X40698Y303458D01*
X40914Y303532D01*
X41106Y303654D01*
X41268Y303816D01*
X41390Y304008D01*
X41464Y304224D01*
X41492Y304472D01*
Y306050D01*
X38950D01*
G37*
G36*
X33160Y303458D02*
X33408Y303430D01*
X34908D01*
Y306050D01*
X32366D01*
Y304472D01*
X32394Y304224D01*
X32470Y304008D01*
X32590Y303816D01*
X32752Y303654D01*
X32944Y303532D01*
X33160Y303458D01*
G37*
G36*
X46074Y303668D02*
X46642Y303596D01*
X47216D01*
X47784Y303668D01*
X48338Y303810D01*
X48872Y304022D01*
X49374Y304298D01*
X49838Y304634D01*
X50256Y305026D01*
X50620Y305468D01*
X50928Y305952D01*
X51172Y306470D01*
X51348Y307014D01*
X51456Y307578D01*
X51492Y308150D01*
X51456Y308722D01*
X51348Y309284D01*
X51172Y309830D01*
X50928Y310348D01*
X50620Y310832D01*
X50256Y311272D01*
X49838Y311666D01*
X49374Y312002D01*
X48872Y312278D01*
X48338Y312488D01*
X47784Y312632D01*
X47216Y312704D01*
X46642D01*
X46074Y312632D01*
X45520Y312488D01*
X44986Y312278D01*
X44484Y312002D01*
X44020Y311666D01*
X43604Y311272D01*
X43238Y310832D01*
X42930Y310348D01*
X42686Y309830D01*
X42510Y309284D01*
X42402Y308722D01*
X42366Y308150D01*
X42402Y307578D01*
X42510Y307014D01*
X42686Y306470D01*
X42930Y305952D01*
X43238Y305468D01*
X43604Y305026D01*
X44020Y304634D01*
X44484Y304298D01*
X44986Y304022D01*
X45520Y303810D01*
X46074Y303668D01*
G37*
G36*
X66074Y303668D02*
X66642Y303596D01*
X67216D01*
X67784Y303668D01*
X68338Y303810D01*
X68872Y304022D01*
X69374Y304298D01*
X69838Y304634D01*
X70256Y305026D01*
X70620Y305468D01*
X70928Y305952D01*
X71172Y306470D01*
X71348Y307014D01*
X71456Y307578D01*
X71492Y308150D01*
X71456Y308722D01*
X71348Y309284D01*
X71172Y309830D01*
X70928Y310348D01*
X70620Y310832D01*
X70256Y311272D01*
X69838Y311666D01*
X69374Y312002D01*
X68872Y312278D01*
X68338Y312488D01*
X67784Y312632D01*
X67216Y312704D01*
X66642D01*
X66074Y312632D01*
X65520Y312488D01*
X64986Y312278D01*
X64484Y312002D01*
X64020Y311666D01*
X63604Y311272D01*
X63238Y310832D01*
X62930Y310348D01*
X62686Y309830D01*
X62510Y309284D01*
X62402Y308722D01*
X62366Y308150D01*
X62402Y307578D01*
X62510Y307014D01*
X62686Y306470D01*
X62930Y305952D01*
X63238Y305468D01*
X63604Y305026D01*
X64020Y304634D01*
X64484Y304298D01*
X64986Y304022D01*
X65520Y303810D01*
X66074Y303668D01*
G37*
G36*
X76074Y303668D02*
X76642Y303596D01*
X77216D01*
X77784Y303668D01*
X78338Y303810D01*
X78872Y304022D01*
X79374Y304298D01*
X79838Y304634D01*
X80256Y305026D01*
X80620Y305468D01*
X80928Y305952D01*
X81172Y306470D01*
X81348Y307014D01*
X81456Y307578D01*
X81492Y308150D01*
X81456Y308722D01*
X81348Y309284D01*
X81172Y309830D01*
X80928Y310348D01*
X80620Y310832D01*
X80256Y311272D01*
X79838Y311666D01*
X79374Y312002D01*
X78872Y312278D01*
X78338Y312488D01*
X77784Y312632D01*
X77216Y312704D01*
X76642D01*
X76074Y312632D01*
X75520Y312488D01*
X74986Y312278D01*
X74484Y312002D01*
X74020Y311666D01*
X73604Y311272D01*
X73238Y310832D01*
X72930Y310348D01*
X72686Y309830D01*
X72510Y309284D01*
X72402Y308722D01*
X72366Y308150D01*
X72402Y307578D01*
X72510Y307014D01*
X72686Y306470D01*
X72930Y305952D01*
X73238Y305468D01*
X73604Y305026D01*
X74020Y304634D01*
X74484Y304298D01*
X74986Y304022D01*
X75520Y303810D01*
X76074Y303668D01*
G37*
G36*
X123350Y307088D02*
X124016Y307052D01*
X124682Y307088D01*
X125338Y307200D01*
X125978Y307384D01*
X126594Y307640D01*
X127176Y307962D01*
X127720Y308348D01*
X128216Y308792D01*
X128660Y309288D01*
X129046Y309832D01*
X129368Y310414D01*
X129624Y311030D01*
X129808Y311670D01*
X129920Y312326D01*
X129956Y312992D01*
X129920Y313658D01*
X129808Y314314D01*
X129624Y314954D01*
X129368Y315570D01*
X129046Y316152D01*
X128660Y316696D01*
X128216Y317192D01*
X127720Y317636D01*
X127176Y318022D01*
X126594Y318344D01*
X125978Y318600D01*
X125338Y318784D01*
X124682Y318896D01*
X124016Y318932D01*
X123350Y318896D01*
X122694Y318784D01*
X122054Y318600D01*
X121438Y318344D01*
X120856Y318022D01*
X120312Y317636D01*
X119816Y317192D01*
X119372Y316696D01*
X118986Y316152D01*
X118664Y315570D01*
X118408Y314954D01*
X118224Y314314D01*
X118112Y313658D01*
X118076Y312992D01*
X118112Y312326D01*
X118224Y311670D01*
X118408Y311030D01*
X118664Y310414D01*
X118986Y309832D01*
X119372Y309288D01*
X119816Y308792D01*
X120312Y308348D01*
X120856Y307962D01*
X121438Y307640D01*
X122054Y307384D01*
X122694Y307200D01*
X123350Y307088D01*
G37*
G36*
X9178Y307088D02*
X9844Y307052D01*
X10508Y307088D01*
X11164Y307200D01*
X11806Y307384D01*
X12420Y307640D01*
X13004Y307962D01*
X13546Y308348D01*
X14044Y308792D01*
X14488Y309288D01*
X14874Y309832D01*
X15196Y310414D01*
X15450Y311030D01*
X15634Y311670D01*
X15746Y312326D01*
X15784Y312992D01*
X15746Y313658D01*
X15634Y314314D01*
X15450Y314954D01*
X15196Y315570D01*
X14874Y316152D01*
X14488Y316696D01*
X14044Y317192D01*
X13546Y317636D01*
X13004Y318022D01*
X12420Y318344D01*
X11806Y318600D01*
X11164Y318784D01*
X10508Y318896D01*
X9844Y318932D01*
X9178Y318896D01*
X8522Y318784D01*
X7880Y318600D01*
X7266Y318344D01*
X6682Y318022D01*
X6140Y317636D01*
X5642Y317192D01*
X5198Y316696D01*
X4812Y316152D01*
X4490Y315570D01*
X4236Y314954D01*
X4052Y314314D01*
X3940Y313658D01*
X3902Y312992D01*
X3940Y312326D01*
X4052Y311670D01*
X4236Y311030D01*
X4490Y310414D01*
X4812Y309832D01*
X5198Y309288D01*
X5642Y308792D01*
X6140Y308348D01*
X6682Y307962D01*
X7266Y307640D01*
X7880Y307384D01*
X8522Y307200D01*
X9178Y307088D01*
G37*
G36*
X32366Y311828D02*
Y310250D01*
X34908D01*
Y312870D01*
X33408D01*
X33160Y312842D01*
X32944Y312766D01*
X32752Y312646D01*
X32590Y312484D01*
X32470Y312292D01*
X32394Y312076D01*
X32366Y311828D01*
G37*
G36*
X38950Y312870D02*
Y310250D01*
X41492D01*
Y311828D01*
X41464Y312076D01*
X41390Y312292D01*
X41268Y312484D01*
X41106Y312646D01*
X40914Y312766D01*
X40698Y312842D01*
X40450Y312870D01*
X38950D01*
G37*
%LPD*%
G36*
X88500Y215336D02*
X88326Y215332D01*
X88164Y215400D01*
X88074Y215466D01*
X87572Y215742D01*
X87040Y215954D01*
X86484Y216096D01*
X85916Y216168D01*
X85344D01*
X84774Y216096D01*
X84220Y215954D01*
X83906Y215828D01*
X83754Y215800D01*
X83604Y215832D01*
X83476Y215918D01*
X78566Y220828D01*
X78480Y220956D01*
X78448Y221110D01*
Y293582D01*
X78480Y293738D01*
X78570Y293868D01*
X78702Y293954D01*
X78872Y294022D01*
X79374Y294298D01*
X79774Y294588D01*
X79934Y294658D01*
X80108Y294652D01*
X80264Y294572D01*
X80370Y294434D01*
X80408Y294264D01*
Y288026D01*
X80440Y287710D01*
X80526Y287424D01*
X80666Y287162D01*
X80868Y286916D01*
X87534Y280250D01*
X87622Y280120D01*
X87652Y279968D01*
Y278596D01*
X88400D01*
X88554Y278566D01*
X88682Y278480D01*
X88770Y278350D01*
X88800Y278196D01*
Y274954D01*
X88770Y274800D01*
X88682Y274670D01*
X88554Y274584D01*
X88400Y274554D01*
X87652D01*
Y272490D01*
X88074Y272722D01*
X88164Y272788D01*
X88326Y272858D01*
X88500Y272852D01*
X88654Y272772D01*
X88762Y272634D01*
X88800Y272464D01*
Y262968D01*
X88762Y262798D01*
X88654Y262660D01*
X88500Y262582D01*
X88326Y262576D01*
X88164Y262644D01*
X88074Y262710D01*
X87572Y262986D01*
X87040Y263198D01*
X86484Y263340D01*
X85916Y263412D01*
X85344D01*
X84774Y263340D01*
X84220Y263198D01*
X83688Y262986D01*
X83186Y262710D01*
X82722Y262374D01*
X82304Y261982D01*
X81938Y261540D01*
X81632Y261056D01*
X81388Y260538D01*
X81210Y259992D01*
X81104Y259430D01*
X81068Y258858D01*
X81104Y258286D01*
X81210Y257724D01*
X81388Y257178D01*
X81632Y256660D01*
X81938Y256176D01*
X82304Y255734D01*
X82722Y255342D01*
X83186Y255006D01*
X83688Y254730D01*
X84220Y254518D01*
X84774Y254376D01*
X85344Y254304D01*
X85916D01*
X86484Y254376D01*
X87040Y254518D01*
X87572Y254730D01*
X88074Y255006D01*
X88164Y255072D01*
X88326Y255140D01*
X88500Y255136D01*
X88654Y255056D01*
X88762Y254918D01*
X88800Y254748D01*
Y233440D01*
X88762Y233270D01*
X88654Y233132D01*
X88500Y233054D01*
X88326Y233048D01*
X88164Y233118D01*
X88074Y233182D01*
X87652Y233416D01*
Y231352D01*
X88400D01*
X88554Y231322D01*
X88682Y231236D01*
X88770Y231106D01*
X88800Y230952D01*
Y227710D01*
X88770Y227556D01*
X88682Y227426D01*
X88554Y227340D01*
X88400Y227310D01*
X87652D01*
Y225246D01*
X88074Y225478D01*
X88164Y225544D01*
X88326Y225614D01*
X88500Y225608D01*
X88654Y225528D01*
X88762Y225390D01*
X88800Y225220D01*
Y215724D01*
X88762Y215554D01*
X88654Y215416D01*
X88500Y215336D01*
G37*
%LPC*%
G36*
X83186Y225478D02*
X83608Y225246D01*
Y227310D01*
X81548D01*
X81632Y227132D01*
X81938Y226648D01*
X82304Y226208D01*
X82722Y225816D01*
X83186Y225478D01*
G37*
G36*
X81632Y231528D02*
X81548Y231352D01*
X83608D01*
Y233416D01*
X83186Y233182D01*
X82722Y232846D01*
X82304Y232454D01*
X81938Y232012D01*
X81632Y231528D01*
G37*
G36*
X83186Y272722D02*
X83608Y272490D01*
Y274554D01*
X81548D01*
X81632Y274376D01*
X81938Y273894D01*
X82304Y273452D01*
X82722Y273060D01*
X83186Y272722D01*
G37*
G36*
X81632Y278772D02*
X81548Y278596D01*
X83608D01*
Y280660D01*
X83186Y280428D01*
X82722Y280090D01*
X82304Y279698D01*
X81938Y279256D01*
X81632Y278772D01*
G37*
%LPD*%
G54D10*
X61053Y149606D02*
G01Y244094D01*
Y55118D02*
Y149606D01*
Y41791D02*
Y55118D01*
X46929Y298150D02*
Y286153D01*
X53188Y279894D01*
Y216574D01*
X48228Y211614D01*
X96929Y298150D02*
Y36929D01*
X111220Y22638D01*
X85630Y69882D02*
X93538Y77790D01*
Y281755D01*
X91930Y283363D01*
Y303151D01*
X96929Y308150D01*
X85630Y117126D02*
X91929Y123425D01*
Y281088D01*
X86929Y286088D01*
Y298150D01*
X85630Y164370D02*
X90320Y169060D01*
Y279615D01*
X81929Y288006D01*
Y303150D01*
X86929Y308150D01*
X76929Y298150D02*
Y220315D01*
X85630Y211614D01*
X56929Y298150D02*
Y125827D01*
X48228Y117126D01*
Y164370D02*
X54797Y170939D01*
Y280990D01*
X51929Y283858D01*
Y303150D01*
X56929Y308150D01*
X70866Y124099D02*
Y127583D01*
X76836Y133553D01*
Y209218D01*
X70866Y215188D01*
Y27869D02*
X66410Y32325D01*
Y58945D01*
X70866Y63401D01*
Y124099D01*
Y218672D02*
Y215188D01*
Y27869D02*
Y26127D01*
Y29611D02*
Y27869D01*
X71930Y11810D02*
Y25063D01*
X70866Y26127D01*
Y41255D02*
Y44739D01*
X72805Y46678D01*
Y55118D01*
X70866Y135743D02*
Y139227D01*
X72805Y141166D01*
Y149606D01*
X70866Y230315D02*
Y233799D01*
X72805Y235738D01*
Y244094D01*
G36*
X75728Y240905D02*
X69882D01*
Y247283D01*
X75728D01*
Y240905D01*
G37*
G36*
X58130Y240905D02*
X63976D01*
Y247283D01*
X58130D01*
Y240905D01*
G37*
G36*
X75728Y146417D02*
X69882D01*
Y152795D01*
X75728D01*
Y146417D01*
G37*
G36*
X58130Y146417D02*
X63976D01*
Y152795D01*
X58130D01*
Y146417D01*
G37*
G36*
X75728Y51929D02*
X69882D01*
Y58307D01*
X75728D01*
Y51929D01*
G37*
G36*
X58130Y51929D02*
X63976D01*
Y58307D01*
X58130D01*
Y51929D01*
G37*
G36*
X67518Y216295D02*
Y221049D01*
X74215D01*
Y216295D01*
X67518D01*
G37*
G54D13*
X70866Y230315D03*
G36*
X67518Y121722D02*
G01Y126476D01*
X74214D01*
Y121722D01*
X67518D01*
G37*
G54D13*
X70866Y135743D03*
G36*
X67518Y27234D02*
G01Y31988D01*
X74214D01*
Y27234D01*
X67518D01*
G37*
G54D13*
X70866Y41255D03*
G54D14*
X71930Y11810D03*
G54D15*
X61930D03*
G54D14*
X36929Y298150D03*
X96929D03*
X86929D03*
X76929D03*
X66929D03*
X56929D03*
X46929D03*
G54D16*
X36929Y308150D03*
G54D14*
X46929D03*
X56929D03*
X66929D03*
X76929D03*
X86929D03*
X96929D03*
X22638Y276574D03*
X48228D03*
X22638Y258858D03*
X48228D03*
X22638Y229330D03*
X48228D03*
X22638Y211614D03*
X48228D03*
X22638Y182086D03*
X48228D03*
X22638Y164370D03*
X48228D03*
X22638Y134842D03*
X48228D03*
X22638Y117126D03*
X48228D03*
X22638Y87598D03*
X48228D03*
X22638Y69882D03*
X48228D03*
X22638Y40354D03*
X48228D03*
X22638Y22638D03*
X48228D03*
X85630Y276574D03*
X111220D03*
X85630Y258858D03*
X111220D03*
X85630Y229330D03*
X111220D03*
X85630Y211614D03*
X111220D03*
X85630Y182086D03*
X111220D03*
X85630Y164370D03*
X111220D03*
X85630Y134842D03*
X111220D03*
X85630Y117126D03*
X111220D03*
X85630Y87598D03*
X111220D03*
X85630Y69882D03*
X111220D03*
X85630Y40354D03*
X111220D03*
X85630Y22638D03*
X111220D03*
G54D11*
X61053Y41791D03*
M02*
