%FSLAX25Y25*%
%MOIN*%
%ADD10C,0.00000394*%
%IPPOS*%
G75*
G36*
X75334Y247284D02*
G01X70276D01*
X69882Y246890D01*
Y245572D01*
X70276Y245178D01*
X71476D01*
X71870Y244786D01*
Y243404D01*
X71476Y243010D01*
X70276D01*
X69882Y242616D01*
Y241300D01*
X70276Y240906D01*
X75334D01*
X75728Y241300D01*
Y246890D01*
X75334Y247284D01*
G37*
G36*
X63582Y247284D02*
X58524D01*
X58130Y246890D01*
Y241300D01*
X58524Y240906D01*
X63582D01*
X63976Y241300D01*
Y242616D01*
X63582Y243010D01*
X62382D01*
X61988Y243404D01*
Y244786D01*
X62382Y245178D01*
X63582D01*
X63976Y245572D01*
Y246890D01*
X63582Y247284D01*
G37*
G36*
X75334Y152796D02*
X70276D01*
X69882Y152402D01*
Y151084D01*
X70276Y150690D01*
X71476D01*
X71870Y150296D01*
Y148916D01*
X71476Y148522D01*
X70276D01*
X69882Y148128D01*
Y146812D01*
X70276Y146418D01*
X75334D01*
X75728Y146812D01*
Y152402D01*
X75334Y152796D01*
G37*
G36*
X63582Y152796D02*
X58524D01*
X58130Y152402D01*
Y146812D01*
X58524Y146418D01*
X63582D01*
X63976Y146812D01*
Y148128D01*
X63582Y148522D01*
X62382D01*
X61988Y148916D01*
Y150296D01*
X62382Y150690D01*
X63582D01*
X63976Y151084D01*
Y152402D01*
X63582Y152796D01*
G37*
G36*
X75334Y58308D02*
X70276D01*
X69882Y57914D01*
Y56596D01*
X70276Y56202D01*
X71476D01*
X71870Y55808D01*
Y54428D01*
X71476Y54034D01*
X70276D01*
X69882Y53640D01*
Y52322D01*
X70276Y51930D01*
X75334D01*
X75728Y52322D01*
Y57914D01*
X75334Y58308D01*
G37*
G36*
X63582Y58308D02*
X58524D01*
X58130Y57914D01*
Y52322D01*
X58524Y51930D01*
X63582D01*
X63976Y52322D01*
Y53640D01*
X63582Y54034D01*
X62382D01*
X61988Y54428D01*
Y55808D01*
X62382Y56202D01*
X63582D01*
X63976Y56596D01*
Y57914D01*
X63582Y58308D01*
G37*
G36*
X69334Y221048D02*
X67912D01*
X67518Y220654D01*
Y216688D01*
X67912Y216294D01*
X73820D01*
X74214Y216688D01*
Y220654D01*
X73820Y221048D01*
X72398D01*
X72004Y220654D01*
Y219826D01*
X71612Y219432D01*
X70122D01*
X69728Y219826D01*
Y220654D01*
X69334Y221048D01*
G37*
G36*
X73820Y232692D02*
X67912D01*
X67518Y232298D01*
Y228332D01*
X67912Y227938D01*
X69334D01*
X69728Y228332D01*
Y229162D01*
X70122Y229554D01*
X71612D01*
X72004Y229162D01*
Y228332D01*
X72398Y227938D01*
X73820D01*
X74214Y228332D01*
Y232298D01*
X73820Y232692D01*
G37*
G36*
X69334Y126476D02*
X67912D01*
X67518Y126082D01*
Y122116D01*
X67912Y121722D01*
X73820D01*
X74214Y122116D01*
Y126082D01*
X73820Y126476D01*
X72398D01*
X72004Y126082D01*
Y125254D01*
X71610Y124860D01*
X70122D01*
X69728Y125254D01*
Y126082D01*
X69334Y126476D01*
G37*
G36*
X73820Y138120D02*
X67912D01*
X67518Y137726D01*
Y133760D01*
X67912Y133366D01*
X69334D01*
X69728Y133760D01*
Y134588D01*
X70122Y134982D01*
X71610D01*
X72004Y134588D01*
Y133760D01*
X72398Y133366D01*
X73820D01*
X74214Y133760D01*
Y137726D01*
X73820Y138120D01*
G37*
G36*
X69334Y31988D02*
X67912D01*
X67518Y31594D01*
Y27628D01*
X67912Y27234D01*
X73820D01*
X74214Y27628D01*
Y31594D01*
X73820Y31988D01*
X72398D01*
X72004Y31594D01*
Y30766D01*
X71610Y30372D01*
X70122D01*
X69728Y30766D01*
Y31594D01*
X69334Y31988D01*
G37*
G36*
X73820Y43632D02*
X67912D01*
X67518Y43238D01*
Y39272D01*
X67912Y38878D01*
X69334D01*
X69728Y39272D01*
Y40100D01*
X70122Y40494D01*
X71610D01*
X72004Y40100D01*
Y39272D01*
X72398Y38878D01*
X73820D01*
X74214Y39272D01*
Y43238D01*
X73820Y43632D01*
G37*
M02*
