%FSLAX25Y25*%
%MOIN*%
%ADD10C,0.01000000*%
%ADD17C,0.00600000*%
%ADD18C,0.00393701*%
%IPPOS*%
G75*
G54D18*
X124876Y24341D02*
G01X124516Y24161D01*
X124156Y23801D01*
X123976Y23441D01*
Y22731D01*
X124156Y22371D01*
X124516Y22011D01*
X124876Y21831D01*
X125416Y21651D01*
X126306D01*
X126846Y21831D01*
X127196Y22011D01*
X127556Y22371D01*
X127736Y22731D01*
Y23441D01*
X127556Y23801D01*
X127196Y24161D01*
X126846Y24341D01*
X126306D01*
Y23441D02*
Y24341D01*
X124696Y25521D02*
X124516Y25881D01*
X123976Y26411D01*
X127736D01*
X123976Y28671D02*
X124156Y28131D01*
X124696Y27771D01*
X125586Y27591D01*
X126126D01*
X127026Y27771D01*
X127556Y28131D01*
X127736Y28671D01*
Y29031D01*
X127556Y29561D01*
X127026Y29921D01*
X126126Y30101D01*
X125586D01*
X124696Y29921D01*
X124156Y29561D01*
X123976Y29031D01*
Y28671D01*
Y32351D02*
X124156Y31821D01*
X124696Y31461D01*
X125586Y31281D01*
X126126D01*
X127026Y31461D01*
X127556Y31821D01*
X127736Y32351D01*
Y32711D01*
X127556Y33251D01*
X127026Y33611D01*
X126126Y33791D01*
X125586D01*
X124696Y33611D01*
X124156Y33251D01*
X123976Y32711D01*
Y32351D01*
Y36041D02*
X124156Y35501D01*
X124696Y35151D01*
X125586Y34971D01*
X126126D01*
X127026Y35151D01*
X127556Y35501D01*
X127736Y36041D01*
Y36401D01*
X127556Y36941D01*
X127026Y37291D01*
X126126Y37471D01*
X125586D01*
X124696Y37291D01*
X124156Y36941D01*
X123976Y36401D01*
Y36041D01*
Y42841D02*
X127736Y41411D01*
X123976Y42841D02*
X127736Y44271D01*
X126486Y41951D02*
Y43741D01*
X123976Y45451D02*
X127736D01*
X123976D02*
Y47061D01*
X124156Y47601D01*
X124336Y47781D01*
X124696Y47961D01*
X125236D01*
X125586Y47781D01*
X125766Y47601D01*
X125946Y47061D01*
Y45451D01*
X123976Y49141D02*
X127736D01*
Y51291D01*
X123976Y55221D02*
X127736Y56661D01*
X123976Y58091D02*
X127736Y56661D01*
X124696Y59271D02*
X124516Y59631D01*
X123976Y60161D01*
X127736D01*
X123266Y65351D02*
X123626Y65001D01*
X124156Y64641D01*
X124876Y64281D01*
X125766Y64101D01*
X126486D01*
X127376Y64281D01*
X128096Y64641D01*
X128636Y65001D01*
X128986Y65351D01*
X125766Y68681D02*
X125416Y68321D01*
X125236Y67971D01*
Y67431D01*
X125416Y67071D01*
X125766Y66711D01*
X126306Y66531D01*
X126666D01*
X127196Y66711D01*
X127556Y67071D01*
X127736Y67431D01*
Y67971D01*
X127556Y68321D01*
X127196Y68681D01*
X123266Y69861D02*
X123626Y70221D01*
X124156Y70581D01*
X124876Y70941D01*
X125766Y71121D01*
X126486D01*
X127376Y70941D01*
X128096Y70581D01*
X128636Y70221D01*
X128986Y69861D01*
X125236Y75051D02*
X127736D01*
X125946D02*
X125416Y75591D01*
X125236Y75951D01*
Y76481D01*
X125416Y76841D01*
X125946Y77021D01*
X127736D01*
X125946D02*
X125416Y77561D01*
X125236Y77921D01*
Y78451D01*
X125416Y78811D01*
X125946Y78991D01*
X127736D01*
X125236Y80171D02*
X127736D01*
X126306D02*
X125766Y80351D01*
X125416Y80711D01*
X125236Y81071D01*
Y81601D01*
Y82781D02*
X127026D01*
X127556Y82961D01*
X127736Y83321D01*
Y83861D01*
X127556Y84221D01*
X127026Y84751D01*
X125236D02*
X127736D01*
X125766Y87901D02*
X125416Y87721D01*
X125236Y87191D01*
Y86651D01*
X125416Y86111D01*
X125766Y85931D01*
X126126Y86111D01*
X126306Y86471D01*
X126486Y87371D01*
X126666Y87721D01*
X127026Y87901D01*
X127196D01*
X127556Y87721D01*
X127736Y87191D01*
Y86651D01*
X127556Y86111D01*
X127196Y85931D01*
X123976Y89081D02*
X127736D01*
X125236Y90871D02*
X127026Y89081D01*
X126306Y89801D02*
X127736Y91051D01*
G54D17*
X65929Y254634D02*
G01Y250344D01*
X68379D01*
X69729Y254634D02*
Y250344D01*
Y254634D02*
X72389D01*
X69729Y252594D02*
X71369D01*
X69729Y250344D02*
X72389D01*
X73739Y254634D02*
Y250344D01*
Y254634D02*
X75179D01*
X75789Y254434D01*
X76199Y254024D01*
X76399Y253614D01*
X76609Y252994D01*
Y251974D01*
X76399Y251364D01*
X76199Y250954D01*
X75789Y250544D01*
X75179Y250344D01*
X73739D01*
X77959Y253814D02*
X78369Y254024D01*
X78979Y254634D01*
Y250344D01*
X65929Y160146D02*
Y155856D01*
X68379D01*
X69729Y160146D02*
Y155856D01*
Y160146D02*
X72389D01*
X69729Y158106D02*
X71369D01*
X69729Y155856D02*
X72389D01*
X73739Y160146D02*
Y155856D01*
Y160146D02*
X75179D01*
X75789Y159946D01*
X76199Y159536D01*
X76399Y159126D01*
X76609Y158506D01*
Y157486D01*
X76399Y156876D01*
X76199Y156466D01*
X75789Y156056D01*
X75179Y155856D01*
X73739D01*
X78159Y159126D02*
Y159326D01*
X78369Y159736D01*
X78569Y159946D01*
X78979Y160146D01*
X79799D01*
X80209Y159946D01*
X80409Y159736D01*
X80619Y159326D01*
Y158916D01*
X80409Y158506D01*
X79999Y157896D01*
X77959Y155856D01*
X80819D01*
X65929Y65658D02*
Y61368D01*
X68379D01*
X69729Y65658D02*
Y61368D01*
Y65658D02*
X72389D01*
X69729Y63618D02*
X71369D01*
X69729Y61368D02*
X72389D01*
X73739Y65658D02*
Y61368D01*
Y65658D02*
X75179D01*
X75789Y65458D01*
X76199Y65048D01*
X76399Y64638D01*
X76609Y64018D01*
Y62998D01*
X76399Y62388D01*
X76199Y61978D01*
X75789Y61568D01*
X75179Y61368D01*
X73739D01*
X78369Y65658D02*
X80619D01*
X79389Y64018D01*
X79999D01*
X80409Y63818D01*
X80619Y63618D01*
X80819Y62998D01*
Y62588D01*
X80619Y61978D01*
X80209Y61568D01*
X79589Y61368D01*
X78979D01*
X78369Y61568D01*
X78159Y61768D01*
X77959Y62178D01*
X59055Y232887D02*
Y228597D01*
Y232887D02*
X60895D01*
X61505Y232687D01*
X61715Y232477D01*
X61915Y232067D01*
Y231657D01*
X61715Y231247D01*
X61505Y231047D01*
X60895Y230847D01*
X59055D01*
X60485D02*
X61915Y228597D01*
X63265Y232067D02*
X63675Y232277D01*
X64295Y232887D01*
Y228597D01*
X57086Y138398D02*
Y134108D01*
Y138398D02*
X58926D01*
X59536Y138198D01*
X59746Y137988D01*
X59946Y137578D01*
Y137168D01*
X59746Y136758D01*
X59536Y136558D01*
X58926Y136358D01*
X57086D01*
X58516D02*
X59946Y134108D01*
X61506Y137378D02*
Y137578D01*
X61706Y137988D01*
X61916Y138198D01*
X62326Y138398D01*
X63136D01*
X63546Y138198D01*
X63756Y137988D01*
X63956Y137578D01*
Y137168D01*
X63756Y136758D01*
X63346Y136148D01*
X61296Y134108D01*
X64166D01*
X57086Y30131D02*
Y25841D01*
Y30131D02*
X58926D01*
X59536Y29931D01*
X59746Y29721D01*
X59946Y29311D01*
Y28901D01*
X59746Y28491D01*
X59536Y28291D01*
X58926Y28091D01*
X57086D01*
X58516D02*
X59946Y25841D01*
X61706Y30131D02*
X63956D01*
X62736Y28491D01*
X63346D01*
X63756Y28291D01*
X63956Y28091D01*
X64166Y27471D01*
Y27061D01*
X63956Y26451D01*
X63546Y26041D01*
X62936Y25841D01*
X62326D01*
X61706Y26041D01*
X61506Y26241D01*
X61296Y26651D01*
X37293Y285646D02*
X36883Y286056D01*
X36273Y286256D01*
X35453D01*
X34843Y286056D01*
X34433Y285646D01*
Y285236D01*
X34633Y284826D01*
X34843Y284616D01*
X35253Y284416D01*
X36483Y284006D01*
X36883Y283806D01*
X37093Y283596D01*
X37293Y283186D01*
Y282576D01*
X36883Y282166D01*
X36273Y281966D01*
X35453D01*
X34843Y282166D01*
X34433Y282576D01*
X38643Y286256D02*
X39673Y281966D01*
X40693Y286256D02*
X39673Y281966D01*
X40693Y286256D02*
X41713Y281966D01*
X42733Y286256D02*
X41713Y281966D01*
X44083Y285436D02*
X44493Y285646D01*
X45113Y286256D01*
Y281966D01*
X37293Y238402D02*
X36883Y238812D01*
X36273Y239012D01*
X35453D01*
X34843Y238812D01*
X34433Y238402D01*
Y237992D01*
X34633Y237582D01*
X34843Y237372D01*
X35253Y237172D01*
X36483Y236762D01*
X36883Y236562D01*
X37093Y236352D01*
X37293Y235942D01*
Y235332D01*
X36883Y234922D01*
X36273Y234722D01*
X35453D01*
X34843Y234922D01*
X34433Y235332D01*
X38643Y239012D02*
X39673Y234722D01*
X40693Y239012D02*
X39673Y234722D01*
X40693Y239012D02*
X41713Y234722D01*
X42733Y239012D02*
X41713Y234722D01*
X44293Y237992D02*
Y238192D01*
X44493Y238602D01*
X44703Y238812D01*
X45113Y239012D01*
X45933D01*
X46333Y238812D01*
X46543Y238602D01*
X46743Y238192D01*
Y237782D01*
X46543Y237372D01*
X46133Y236762D01*
X44083Y234722D01*
X46953D01*
X37293Y191158D02*
X36883Y191568D01*
X36273Y191768D01*
X35453D01*
X34843Y191568D01*
X34433Y191158D01*
Y190748D01*
X34633Y190338D01*
X34843Y190128D01*
X35253Y189928D01*
X36483Y189518D01*
X36883Y189318D01*
X37093Y189108D01*
X37293Y188698D01*
Y188088D01*
X36883Y187678D01*
X36273Y187478D01*
X35453D01*
X34843Y187678D01*
X34433Y188088D01*
X38643Y191768D02*
X39673Y187478D01*
X40693Y191768D02*
X39673Y187478D01*
X40693Y191768D02*
X41713Y187478D01*
X42733Y191768D02*
X41713Y187478D01*
X44493Y191768D02*
X46743D01*
X45523Y190128D01*
X46133D01*
X46543Y189928D01*
X46743Y189728D01*
X46953Y189108D01*
Y188698D01*
X46743Y188088D01*
X46333Y187678D01*
X45723Y187478D01*
X45113D01*
X44493Y187678D01*
X44293Y187878D01*
X44083Y188288D01*
X37293Y143914D02*
X36883Y144324D01*
X36273Y144524D01*
X35453D01*
X34843Y144324D01*
X34433Y143914D01*
Y143504D01*
X34633Y143094D01*
X34843Y142884D01*
X35253Y142684D01*
X36483Y142274D01*
X36883Y142074D01*
X37093Y141864D01*
X37293Y141454D01*
Y140844D01*
X36883Y140434D01*
X36273Y140234D01*
X35453D01*
X34843Y140434D01*
X34433Y140844D01*
X38643Y144524D02*
X39673Y140234D01*
X40693Y144524D02*
X39673Y140234D01*
X40693Y144524D02*
X41713Y140234D01*
X42733Y144524D02*
X41713Y140234D01*
X46133Y144524D02*
X44083Y141664D01*
X47153D01*
X46133Y144524D02*
Y140234D01*
X37293Y96670D02*
X36883Y97080D01*
X36273Y97280D01*
X35453D01*
X34843Y97080D01*
X34433Y96670D01*
Y96260D01*
X34633Y95850D01*
X34843Y95640D01*
X35253Y95440D01*
X36483Y95030D01*
X36883Y94830D01*
X37093Y94620D01*
X37293Y94210D01*
Y93600D01*
X36883Y93190D01*
X36273Y92990D01*
X35453D01*
X34843Y93190D01*
X34433Y93600D01*
X38643Y97280D02*
X39673Y92990D01*
X40693Y97280D02*
X39673Y92990D01*
X40693Y97280D02*
X41713Y92990D01*
X42733Y97280D02*
X41713Y92990D01*
X46543Y97280D02*
X44493D01*
X44293Y95440D01*
X44493Y95640D01*
X45113Y95850D01*
X45723D01*
X46333Y95640D01*
X46743Y95240D01*
X46953Y94620D01*
Y94210D01*
X46743Y93600D01*
X46333Y93190D01*
X45723Y92990D01*
X45113D01*
X44493Y93190D01*
X44293Y93390D01*
X44083Y93800D01*
X37293Y49426D02*
X36883Y49836D01*
X36273Y50036D01*
X35453D01*
X34843Y49836D01*
X34433Y49426D01*
Y49016D01*
X34633Y48606D01*
X34843Y48396D01*
X35253Y48196D01*
X36483Y47786D01*
X36883Y47586D01*
X37093Y47376D01*
X37293Y46966D01*
Y46356D01*
X36883Y45946D01*
X36273Y45746D01*
X35453D01*
X34843Y45946D01*
X34433Y46356D01*
X38643Y50036D02*
X39673Y45746D01*
X40693Y50036D02*
X39673Y45746D01*
X40693Y50036D02*
X41713Y45746D01*
X42733Y50036D02*
X41713Y45746D01*
X46543Y49426D02*
X46333Y49836D01*
X45723Y50036D01*
X45313D01*
X44703Y49836D01*
X44293Y49216D01*
X44083Y48196D01*
Y47176D01*
X44293Y46356D01*
X44703Y45946D01*
X45313Y45746D01*
X45523D01*
X46133Y45946D01*
X46543Y46356D01*
X46743Y46966D01*
Y47176D01*
X46543Y47786D01*
X46133Y48196D01*
X45523Y48396D01*
X45313D01*
X44703Y48196D01*
X44293Y47786D01*
X44083Y47176D01*
X100285Y285646D02*
X99875Y286056D01*
X99265Y286256D01*
X98445D01*
X97835Y286056D01*
X97425Y285646D01*
Y285236D01*
X97625Y284826D01*
X97835Y284616D01*
X98245Y284416D01*
X99475Y284006D01*
X99875Y283806D01*
X100085Y283596D01*
X100285Y283186D01*
Y282576D01*
X99875Y282166D01*
X99265Y281966D01*
X98445D01*
X97835Y282166D01*
X97425Y282576D01*
X101635Y286256D02*
X102665Y281966D01*
X103685Y286256D02*
X102665Y281966D01*
X103685Y286256D02*
X104705Y281966D01*
X105725Y286256D02*
X104705Y281966D01*
X109945Y286256D02*
X107895Y281966D01*
X107075Y286256D02*
X109945D01*
X100285Y238402D02*
X99875Y238812D01*
X99265Y239012D01*
X98445D01*
X97835Y238812D01*
X97425Y238402D01*
Y237992D01*
X97625Y237582D01*
X97835Y237372D01*
X98245Y237172D01*
X99475Y236762D01*
X99875Y236562D01*
X100085Y236352D01*
X100285Y235942D01*
Y235332D01*
X99875Y234922D01*
X99265Y234722D01*
X98445D01*
X97835Y234922D01*
X97425Y235332D01*
X101635Y239012D02*
X102665Y234722D01*
X103685Y239012D02*
X102665Y234722D01*
X103685Y239012D02*
X104705Y234722D01*
X105725Y239012D02*
X104705Y234722D01*
X108105Y239012D02*
X107485Y238812D01*
X107285Y238402D01*
Y237992D01*
X107485Y237582D01*
X107895Y237372D01*
X108715Y237172D01*
X109325Y236972D01*
X109735Y236562D01*
X109945Y236152D01*
Y235532D01*
X109735Y235122D01*
X109535Y234922D01*
X108925Y234722D01*
X108105D01*
X107485Y234922D01*
X107285Y235122D01*
X107075Y235532D01*
Y236152D01*
X107285Y236562D01*
X107695Y236972D01*
X108305Y237172D01*
X109125Y237372D01*
X109535Y237582D01*
X109735Y237992D01*
Y238402D01*
X109535Y238812D01*
X108925Y239012D01*
X108105D01*
X100285Y191158D02*
X99875Y191568D01*
X99265Y191768D01*
X98445D01*
X97835Y191568D01*
X97425Y191158D01*
Y190748D01*
X97625Y190338D01*
X97835Y190128D01*
X98245Y189928D01*
X99475Y189518D01*
X99875Y189318D01*
X100085Y189108D01*
X100285Y188698D01*
Y188088D01*
X99875Y187678D01*
X99265Y187478D01*
X98445D01*
X97835Y187678D01*
X97425Y188088D01*
X101635Y191768D02*
X102665Y187478D01*
X103685Y191768D02*
X102665Y187478D01*
X103685Y191768D02*
X104705Y187478D01*
X105725Y191768D02*
X104705Y187478D01*
X109735Y190338D02*
X109535Y189728D01*
X109125Y189318D01*
X108515Y189108D01*
X108305D01*
X107695Y189318D01*
X107285Y189728D01*
X107075Y190338D01*
Y190538D01*
X107285Y191158D01*
X107695Y191568D01*
X108305Y191768D01*
X108515D01*
X109125Y191568D01*
X109535Y191158D01*
X109735Y190338D01*
Y189318D01*
X109535Y188288D01*
X109125Y187678D01*
X108515Y187478D01*
X108105D01*
X107485Y187678D01*
X107285Y188088D01*
X100285Y143914D02*
X99875Y144324D01*
X99265Y144524D01*
X98445D01*
X97835Y144324D01*
X97425Y143914D01*
Y143504D01*
X97625Y143094D01*
X97835Y142884D01*
X98245Y142684D01*
X99475Y142274D01*
X99875Y142074D01*
X100085Y141864D01*
X100285Y141454D01*
Y140844D01*
X99875Y140434D01*
X99265Y140234D01*
X98445D01*
X97835Y140434D01*
X97425Y140844D01*
X101635Y144524D02*
X102665Y140234D01*
X103685Y144524D02*
X102665Y140234D01*
X103685Y144524D02*
X104705Y140234D01*
X105725Y144524D02*
X104705Y140234D01*
X107075Y143704D02*
X107485Y143914D01*
X108105Y144524D01*
Y140234D01*
X110675Y144524D02*
X110065Y144324D01*
X109655Y143704D01*
X109455Y142684D01*
Y142074D01*
X109655Y141044D01*
X110065Y140434D01*
X110675Y140234D01*
X111085D01*
X111705Y140434D01*
X112115Y141044D01*
X112315Y142074D01*
Y142684D01*
X112115Y143704D01*
X111705Y144324D01*
X111085Y144524D01*
X110675D01*
X100285Y96670D02*
X99875Y97080D01*
X99265Y97280D01*
X98445D01*
X97835Y97080D01*
X97425Y96670D01*
Y96260D01*
X97625Y95850D01*
X97835Y95640D01*
X98245Y95440D01*
X99475Y95030D01*
X99875Y94830D01*
X100085Y94620D01*
X100285Y94210D01*
Y93600D01*
X99875Y93190D01*
X99265Y92990D01*
X98445D01*
X97835Y93190D01*
X97425Y93600D01*
X101635Y97280D02*
X102665Y92990D01*
X103685Y97280D02*
X102665Y92990D01*
X103685Y97280D02*
X104705Y92990D01*
X105725Y97280D02*
X104705Y92990D01*
X107075Y96460D02*
X107485Y96670D01*
X108105Y97280D01*
Y92990D01*
X109455Y96460D02*
X109865Y96670D01*
X110475Y97280D01*
Y92990D01*
X100285Y49426D02*
X99875Y49836D01*
X99265Y50036D01*
X98445D01*
X97835Y49836D01*
X97425Y49426D01*
Y49016D01*
X97625Y48606D01*
X97835Y48396D01*
X98245Y48196D01*
X99475Y47786D01*
X99875Y47586D01*
X100085Y47376D01*
X100285Y46966D01*
Y46356D01*
X99875Y45946D01*
X99265Y45746D01*
X98445D01*
X97835Y45946D01*
X97425Y46356D01*
X101635Y50036D02*
X102665Y45746D01*
X103685Y50036D02*
X102665Y45746D01*
X103685Y50036D02*
X104705Y45746D01*
X105725Y50036D02*
X104705Y45746D01*
X107075Y49216D02*
X107485Y49426D01*
X108105Y50036D01*
Y45746D01*
X109655Y49016D02*
Y49216D01*
X109865Y49626D01*
X110065Y49836D01*
X110475Y50036D01*
X111295D01*
X111705Y49836D01*
X111905Y49626D01*
X112115Y49216D01*
Y48806D01*
X111905Y48396D01*
X111495Y47786D01*
X109455Y45746D01*
X112315D01*
G36*
X56630Y247584D02*
X56030D01*
Y240606D01*
X56630D01*
Y247584D01*
G37*
G36*
X56630Y153096D02*
X56030D01*
Y146118D01*
X56630D01*
Y153096D01*
G37*
G36*
X56630Y58606D02*
X56030D01*
Y51628D01*
X56630D01*
Y58606D01*
G37*
G54D17*
X70182Y240005D02*
G01X76628D01*
Y248184D01*
X70182D01*
X63677Y240005D02*
X57830D01*
X57230Y240605D01*
Y247583D01*
X57830Y248184D01*
X63677D01*
X70182Y145517D02*
X76628D01*
Y153695D01*
X70182D01*
X63677Y145517D02*
X57830D01*
X57230Y146117D01*
Y153095D01*
X57830Y153695D01*
X63677D01*
X70182Y51029D02*
X76628D01*
Y59207D01*
X70182D01*
X63677Y51029D02*
X57830D01*
X57230Y51629D01*
Y58607D01*
X57830Y59207D01*
X63677D01*
X66618Y220749D02*
Y215395D01*
X75115D01*
Y220749D01*
X66618Y228238D02*
Y233592D01*
X75115D01*
Y228238D01*
X66618Y126176D02*
Y120822D01*
X75114D01*
Y126176D01*
X66618Y133666D02*
Y139020D01*
X75114D01*
Y133666D01*
X66618Y31688D02*
Y26334D01*
X75114D01*
Y31688D01*
X66618Y39178D02*
Y44532D01*
X75114D01*
Y39178D01*
G54D10*
X25968Y279527D02*
G01X44898D01*
X47244Y272232D02*
Y263201D01*
X44898Y255905D02*
X25968D01*
X23622Y263201D02*
Y272232D01*
X25968Y232283D02*
X44898D01*
X47244Y224988D02*
Y215957D01*
X44898Y208661D02*
X25968D01*
X23622Y215957D02*
Y224988D01*
X25968Y185039D02*
X44898D01*
X47244Y177744D02*
Y168713D01*
X44898Y161417D02*
X25968D01*
X23622Y168713D02*
Y177744D01*
X25968Y137795D02*
X44898D01*
X47244Y130500D02*
Y121469D01*
X44898Y114173D02*
X25968D01*
X23622Y121469D02*
Y130500D01*
X25968Y90551D02*
X44898D01*
X47244Y83256D02*
Y74225D01*
X44898Y66929D02*
X25968D01*
X23622Y74225D02*
Y83256D01*
X25968Y43307D02*
X44898D01*
X47244Y36011D02*
Y26981D01*
X44898Y19685D02*
X25968D01*
X23622Y26981D02*
Y36011D01*
X88960Y279527D02*
X107890D01*
X110236Y272232D02*
Y263201D01*
X107890Y255905D02*
X88960D01*
X86614Y263201D02*
Y272232D01*
X88960Y232283D02*
X107890D01*
X110236Y224988D02*
Y215957D01*
X107890Y208661D02*
X88960D01*
X86614Y215957D02*
Y224988D01*
X88960Y185039D02*
X107890D01*
X110236Y177744D02*
Y168713D01*
X107890Y161417D02*
X88960D01*
X86614Y168713D02*
Y177744D01*
X88960Y137795D02*
X107890D01*
X110236Y130500D02*
Y121469D01*
X107890Y114173D02*
X88960D01*
X86614Y121469D02*
Y130500D01*
X88960Y90551D02*
X107890D01*
X110236Y83256D02*
Y74225D01*
X107890Y66929D02*
X88960D01*
X86614Y74225D02*
Y83256D01*
X88960Y43307D02*
X107890D01*
X110236Y36011D02*
Y26981D01*
X107890Y19685D02*
X88960D01*
X86614Y26981D02*
Y36011D01*
X42520Y267716D02*
G03I-07087J0D01*
X44281Y274802D02*
G03I-01761J0D01*
X30107Y274803D02*
G03I-01761J0D01*
Y260629D02*
G03I-01761J0D01*
X44281D02*
G03I-01761J0D01*
X42520Y220472D02*
G03I-07087J0D01*
X44281Y227558D02*
G03I-01761J0D01*
X30107Y227559D02*
G03I-01761J0D01*
Y213385D02*
G03I-01761J0D01*
X44281D02*
G03I-01761J0D01*
X42520Y173228D02*
G03I-07087J0D01*
X44281Y180314D02*
G03I-01761J0D01*
X30107Y180315D02*
G03I-01761J0D01*
Y166141D02*
G03I-01761J0D01*
X44281D02*
G03I-01761J0D01*
X42520Y125984D02*
G03I-07087J0D01*
X44281Y133070D02*
G03I-01761J0D01*
X30107Y133071D02*
G03I-01761J0D01*
Y118897D02*
G03I-01761J0D01*
X44281D02*
G03I-01761J0D01*
X42520Y78740D02*
G03I-07087J0D01*
X44281Y85826D02*
G03I-01761J0D01*
X30107Y85827D02*
G03I-01761J0D01*
Y71653D02*
G03I-01761J0D01*
X44281D02*
G03I-01761J0D01*
X42520Y31496D02*
G03I-07087J0D01*
X44281Y38582D02*
G03I-01761J0D01*
X30107Y38583D02*
G03I-01761J0D01*
Y24409D02*
G03I-01761J0D01*
X44281D02*
G03I-01761J0D01*
X105512Y267716D02*
G03I-07087J0D01*
X107273Y274802D02*
G03I-01761J0D01*
X93099Y274803D02*
G03I-01761J0D01*
Y260629D02*
G03I-01761J0D01*
X107273D02*
G03I-01761J0D01*
X105512Y220472D02*
G03I-07087J0D01*
X107273Y227558D02*
G03I-01761J0D01*
X93099Y227559D02*
G03I-01761J0D01*
Y213385D02*
G03I-01761J0D01*
X107273D02*
G03I-01761J0D01*
X105512Y173228D02*
G03I-07087J0D01*
X107273Y180314D02*
G03I-01761J0D01*
X93099Y180315D02*
G03I-01761J0D01*
Y166141D02*
G03I-01761J0D01*
X107273D02*
G03I-01761J0D01*
X105512Y125984D02*
G03I-07087J0D01*
X107273Y133070D02*
G03I-01761J0D01*
X93099Y133071D02*
G03I-01761J0D01*
Y118897D02*
G03I-01761J0D01*
X107273D02*
G03I-01761J0D01*
X105512Y78740D02*
G03I-07087J0D01*
X107273Y85826D02*
G03I-01761J0D01*
X93099Y85827D02*
G03I-01761J0D01*
Y71653D02*
G03I-01761J0D01*
X107273D02*
G03I-01761J0D01*
X105512Y31496D02*
G03I-07087J0D01*
X107273Y38582D02*
G03I-01761J0D01*
X93099Y38583D02*
G03I-01761J0D01*
Y24409D02*
G03I-01761J0D01*
X107273D02*
G03I-01761J0D01*
M02*
